<?xml version="1.0" encoding="UTF-8" standalone="no"?>
<!DOCTYPE svg PUBLIC "-//W3C//DTD SVG 1.1//EN"
 "http://www.w3.org/Graphics/SVG/1.1/DTD/svg11.dtd">
<!-- Generated by graphviz version 12.1.2 (20240928.0832)
 -->
<!-- Title: code_notebook_state Pages: 1 -->
<svg width="354pt" height="1838pt"
 viewBox="0.00 0.00 354.38 1838.00" xmlns="http://www.w3.org/2000/svg" xmlns:xlink="http://www.w3.org/1999/xlink">
<g id="graph0" class="graph" transform="scale(1 1) rotate(0) translate(4 1834)">
<title>code_notebook_state</title>
<polygon fill="white" stroke="none" points="-4,4 -4,-1834 350.38,-1834 350.38,4 -4,4"/>
<!-- code_notebook_state -->
<g id="node1" class="node">
<title>code_notebook_state</title>
<polygon fill="#efefef" stroke="none" points="47.09,-1748.2 47.09,-1783.8 293.78,-1783.8 293.78,-1748.2 47.09,-1748.2"/>
<polygon fill="none" stroke="black" points="47.09,-1748.2 47.09,-1783.8 293.78,-1783.8 293.78,-1748.2 47.09,-1748.2"/>
<text text-anchor="start" x="59.83" y="-1761.6" font-family="Arial Bold" font-size="18.00">code_notebook_state</text>
<text text-anchor="start" x="211.79" y="-1761.6" font-family="Arial" font-size="14.00">    </text>
<text text-anchor="start" x="242.9" y="-1761.6" font-family="Arial" font-size="14.00" fill="#666666">[table]</text>
<polygon fill="none" stroke="black" points="47.09,-1717.4 47.09,-1748.2 293.78,-1748.2 293.78,-1717.4 47.09,-1717.4"/>
<text text-anchor="start" x="54.09" y="-1729.6" font-family="Arial" font-size="14.00">code_notebook_state_id </text>
<text text-anchor="start" x="210.55" y="-1729.6" font-family="Arial" font-size="14.00" fill="#666666">[VARCHAR]</text>
<polygon fill="none" stroke="black" points="47.09,-1686.6 47.09,-1717.4 293.78,-1717.4 293.78,-1686.6 47.09,-1686.6"/>
<text text-anchor="start" x="54.09" y="-1698.8" font-family="Arial" font-size="14.00">code_notebook_cell_id </text>
<text text-anchor="start" x="201.21" y="-1698.8" font-family="Arial" font-size="14.00" fill="#666666">[VARCHAR]</text>
<polygon fill="none" stroke="black" points="47.09,-1655.8 47.09,-1686.6 293.78,-1686.6 293.78,-1655.8 47.09,-1655.8"/>
<text text-anchor="start" x="54.09" y="-1668" font-family="Arial" font-size="14.00">from_state </text>
<text text-anchor="start" x="124.12" y="-1668" font-family="Arial" font-size="14.00" fill="#666666">[TEXT]</text>
<polygon fill="none" stroke="black" points="47.09,-1625 47.09,-1655.8 293.78,-1655.8 293.78,-1625 47.09,-1625"/>
<text text-anchor="start" x="54.09" y="-1637.2" font-family="Arial" font-size="14.00">to_state </text>
<text text-anchor="start" x="107.79" y="-1637.2" font-family="Arial" font-size="14.00" fill="#666666">[TEXT]</text>
<polygon fill="none" stroke="black" points="47.09,-1594.2 47.09,-1625 293.78,-1625 293.78,-1594.2 47.09,-1594.2"/>
<text text-anchor="start" x="54.09" y="-1606.4" font-family="Arial" font-size="14.00">transition_result </text>
<text text-anchor="start" x="156.81" y="-1606.4" font-family="Arial" font-size="14.00" fill="#666666">[TEXT]</text>
<polygon fill="none" stroke="black" points="47.09,-1563.4 47.09,-1594.2 293.78,-1594.2 293.78,-1563.4 47.09,-1563.4"/>
<text text-anchor="start" x="54.09" y="-1575.6" font-family="Arial" font-size="14.00">transition_reason </text>
<text text-anchor="start" x="165.38" y="-1575.6" font-family="Arial" font-size="14.00" fill="#666666">[TEXT]</text>
<polygon fill="none" stroke="black" points="47.09,-1532.6 47.09,-1563.4 293.78,-1563.4 293.78,-1532.6 47.09,-1532.6"/>
<text text-anchor="start" x="54.09" y="-1544.8" font-family="Arial" font-size="14.00">transitioned_at </text>
<text text-anchor="start" x="149.82" y="-1544.8" font-family="Arial" font-size="14.00" fill="#666666">[TIMESTAMPTZ]</text>
<polygon fill="none" stroke="black" points="47.09,-1501.8 47.09,-1532.6 293.78,-1532.6 293.78,-1501.8 47.09,-1501.8"/>
<text text-anchor="start" x="54.09" y="-1514" font-family="Arial" font-size="14.00">elaboration </text>
<text text-anchor="start" x="127.25" y="-1514" font-family="Arial" font-size="14.00" fill="#666666">[TEXT]</text>
<polygon fill="none" stroke="black" points="47.09,-1471 47.09,-1501.8 293.78,-1501.8 293.78,-1471 47.09,-1471"/>
<text text-anchor="start" x="54.09" y="-1483.2" font-family="Arial" font-size="14.00">created_at </text>
<text text-anchor="start" x="124.14" y="-1483.2" font-family="Arial" font-size="14.00" fill="#666666">[TIMESTAMPTZ]</text>
<polygon fill="none" stroke="black" points="47.09,-1440.2 47.09,-1471 293.78,-1471 293.78,-1440.2 47.09,-1440.2"/>
<text text-anchor="start" x="54.09" y="-1452.4" font-family="Arial" font-size="14.00">created_by </text>
<text text-anchor="start" x="127.25" y="-1452.4" font-family="Arial" font-size="14.00" fill="#666666">[TEXT]</text>
<polygon fill="none" stroke="black" points="47.09,-1409.4 47.09,-1440.2 293.78,-1440.2 293.78,-1409.4 47.09,-1409.4"/>
<text text-anchor="start" x="54.09" y="-1421.6" font-family="Arial" font-size="14.00">updated_at </text>
<text text-anchor="start" x="128.05" y="-1421.6" font-family="Arial" font-size="14.00" fill="#666666">[TIMESTAMPTZ]</text>
<polygon fill="none" stroke="black" points="47.09,-1378.6 47.09,-1409.4 293.78,-1409.4 293.78,-1378.6 47.09,-1378.6"/>
<text text-anchor="start" x="54.09" y="-1390.8" font-family="Arial" font-size="14.00">updated_by </text>
<text text-anchor="start" x="131.16" y="-1390.8" font-family="Arial" font-size="14.00" fill="#666666">[TEXT]</text>
<polygon fill="none" stroke="black" points="47.09,-1347.8 47.09,-1378.6 293.78,-1378.6 293.78,-1347.8 47.09,-1347.8"/>
<text text-anchor="start" x="54.09" y="-1360" font-family="Arial" font-size="14.00">deleted_at </text>
<text text-anchor="start" x="123.37" y="-1360" font-family="Arial" font-size="14.00" fill="#666666">[TIMESTAMPTZ]</text>
<polygon fill="none" stroke="black" points="47.09,-1317 47.09,-1347.8 293.78,-1347.8 293.78,-1317 47.09,-1317"/>
<text text-anchor="start" x="54.09" y="-1329.2" font-family="Arial" font-size="14.00">deleted_by </text>
<text text-anchor="start" x="126.48" y="-1329.2" font-family="Arial" font-size="14.00" fill="#666666">[TEXT]</text>
<polygon fill="none" stroke="black" points="47.09,-1286.2 47.09,-1317 293.78,-1317 293.78,-1286.2 47.09,-1286.2"/>
<text text-anchor="start" x="54.09" y="-1298.4" font-family="Arial" font-size="14.00">activity_log </text>
<text text-anchor="start" x="127.23" y="-1298.4" font-family="Arial" font-size="14.00" fill="#666666">[TEXT]</text>
<polygon fill="none" stroke="black" stroke-width="3" points="45.59,-1284.7 45.59,-1785.3 295.28,-1785.3 295.28,-1284.7 45.59,-1284.7"/>
</g>
<!-- code_notebook_cell -->
<g id="node2" class="node">
<title>code_notebook_cell</title>
<polygon fill="#efefef" stroke="none" points="51.76,-1125.2 51.76,-1160.8 289.11,-1160.8 289.11,-1125.2 51.76,-1125.2"/>
<polygon fill="none" stroke="black" points="51.76,-1125.2 51.76,-1160.8 289.11,-1160.8 289.11,-1125.2 51.76,-1125.2"/>
<text text-anchor="start" x="63.34" y="-1138.6" font-family="Arial Bold" font-size="18.00">code_notebook_cell</text>
<text text-anchor="start" x="208.28" y="-1138.6" font-family="Arial" font-size="14.00">    </text>
<text text-anchor="start" x="239.4" y="-1138.6" font-family="Arial" font-size="14.00" fill="#666666">[table]</text>
<polygon fill="none" stroke="black" points="51.76,-1094.4 51.76,-1125.2 289.11,-1125.2 289.11,-1094.4 51.76,-1094.4"/>
<text text-anchor="start" x="58.76" y="-1106.6" font-family="Arial" font-size="14.00">code_notebook_cell_id </text>
<text text-anchor="start" x="205.88" y="-1106.6" font-family="Arial" font-size="14.00" fill="#666666">[VARCHAR]</text>
<polygon fill="none" stroke="black" points="51.76,-1063.6 51.76,-1094.4 289.11,-1094.4 289.11,-1063.6 51.76,-1063.6"/>
<text text-anchor="start" x="58.76" y="-1075.8" font-family="Arial" font-size="14.00">notebook_kernel_id </text>
<text text-anchor="start" x="184.86" y="-1075.8" font-family="Arial" font-size="14.00" fill="#666666">[VARCHAR]</text>
<polygon fill="none" stroke="black" points="51.76,-1032.8 51.76,-1063.6 289.11,-1063.6 289.11,-1032.8 51.76,-1032.8"/>
<text text-anchor="start" x="58.76" y="-1045" font-family="Arial" font-size="14.00">notebook_name </text>
<text text-anchor="start" x="163.06" y="-1045" font-family="Arial" font-size="14.00" fill="#666666">[TEXT]</text>
<polygon fill="none" stroke="black" points="51.76,-1002 51.76,-1032.8 289.11,-1032.8 289.11,-1002 51.76,-1002"/>
<text text-anchor="start" x="58.76" y="-1014.2" font-family="Arial" font-size="14.00">cell_name </text>
<text text-anchor="start" x="126.47" y="-1014.2" font-family="Arial" font-size="14.00" fill="#666666">[TEXT]</text>
<polygon fill="none" stroke="black" points="51.76,-971.2 51.76,-1002 289.11,-1002 289.11,-971.2 51.76,-971.2"/>
<text text-anchor="start" x="58.76" y="-983.4" font-family="Arial" font-size="14.00">cell_governance </text>
<text text-anchor="start" x="164.61" y="-983.4" font-family="Arial" font-size="14.00" fill="#666666">[TEXT]</text>
<polygon fill="none" stroke="black" points="51.76,-940.4 51.76,-971.2 289.11,-971.2 289.11,-940.4 51.76,-940.4"/>
<text text-anchor="start" x="58.76" y="-952.6" font-family="Arial" font-size="14.00">interpretable_code </text>
<text text-anchor="start" x="178.62" y="-952.6" font-family="Arial" font-size="14.00" fill="#666666">[TEXT]</text>
<polygon fill="none" stroke="black" points="51.76,-909.6 51.76,-940.4 289.11,-940.4 289.11,-909.6 51.76,-909.6"/>
<text text-anchor="start" x="58.76" y="-921.8" font-family="Arial" font-size="14.00">interpretable_code_hash </text>
<text text-anchor="start" x="216.77" y="-921.8" font-family="Arial" font-size="14.00" fill="#666666">[TEXT]</text>
<polygon fill="none" stroke="black" points="51.76,-878.8 51.76,-909.6 289.11,-909.6 289.11,-878.8 51.76,-878.8"/>
<text text-anchor="start" x="58.76" y="-891" font-family="Arial" font-size="14.00">description </text>
<text text-anchor="start" x="130.35" y="-891" font-family="Arial" font-size="14.00" fill="#666666">[TEXT]</text>
<polygon fill="none" stroke="black" points="51.76,-848 51.76,-878.8 289.11,-878.8 289.11,-848 51.76,-848"/>
<text text-anchor="start" x="58.76" y="-860.2" font-family="Arial" font-size="14.00">arguments </text>
<text text-anchor="start" x="128.8" y="-860.2" font-family="Arial" font-size="14.00" fill="#666666">[TEXT]</text>
<polygon fill="none" stroke="black" points="51.76,-817.2 51.76,-848 289.11,-848 289.11,-817.2 51.76,-817.2"/>
<text text-anchor="start" x="58.76" y="-829.4" font-family="Arial" font-size="14.00">created_at </text>
<text text-anchor="start" x="128.81" y="-829.4" font-family="Arial" font-size="14.00" fill="#666666">[TIMESTAMPTZ]</text>
<polygon fill="none" stroke="black" points="51.76,-786.4 51.76,-817.2 289.11,-817.2 289.11,-786.4 51.76,-786.4"/>
<text text-anchor="start" x="58.76" y="-798.6" font-family="Arial" font-size="14.00">created_by </text>
<text text-anchor="start" x="131.92" y="-798.6" font-family="Arial" font-size="14.00" fill="#666666">[TEXT]</text>
<polygon fill="none" stroke="black" points="51.76,-755.6 51.76,-786.4 289.11,-786.4 289.11,-755.6 51.76,-755.6"/>
<text text-anchor="start" x="58.76" y="-767.8" font-family="Arial" font-size="14.00">updated_at </text>
<text text-anchor="start" x="132.72" y="-767.8" font-family="Arial" font-size="14.00" fill="#666666">[TIMESTAMPTZ]</text>
<polygon fill="none" stroke="black" points="51.76,-724.8 51.76,-755.6 289.11,-755.6 289.11,-724.8 51.76,-724.8"/>
<text text-anchor="start" x="58.76" y="-737" font-family="Arial" font-size="14.00">updated_by </text>
<text text-anchor="start" x="135.83" y="-737" font-family="Arial" font-size="14.00" fill="#666666">[TEXT]</text>
<polygon fill="none" stroke="black" points="51.76,-694 51.76,-724.8 289.11,-724.8 289.11,-694 51.76,-694"/>
<text text-anchor="start" x="58.76" y="-706.2" font-family="Arial" font-size="14.00">deleted_at </text>
<text text-anchor="start" x="128.04" y="-706.2" font-family="Arial" font-size="14.00" fill="#666666">[TIMESTAMPTZ]</text>
<polygon fill="none" stroke="black" points="51.76,-663.2 51.76,-694 289.11,-694 289.11,-663.2 51.76,-663.2"/>
<text text-anchor="start" x="58.76" y="-675.4" font-family="Arial" font-size="14.00">deleted_by </text>
<text text-anchor="start" x="131.15" y="-675.4" font-family="Arial" font-size="14.00" fill="#666666">[TEXT]</text>
<polygon fill="none" stroke="black" points="51.76,-632.4 51.76,-663.2 289.11,-663.2 289.11,-632.4 51.76,-632.4"/>
<text text-anchor="start" x="58.76" y="-644.6" font-family="Arial" font-size="14.00">activity_log </text>
<text text-anchor="start" x="131.91" y="-644.6" font-family="Arial" font-size="14.00" fill="#666666">[TEXT]</text>
</g>
<!-- code_notebook_state&#45;&gt;code_notebook_cell -->
<g id="edge1" class="edge">
<title>code_notebook_state:code_notebook_cell_id&#45;&gt;code_notebook_cell:code_notebook_cell_id</title>
<path fill="none" stroke="black" d="M303.92,-1697.9C359.98,-1645.58 352.7,-1109.8 290.11,-1109.8"/>
<polygon fill="black" stroke="black" points="304.21,-1697.77 293.25,-1697.76 299.35,-1699.95 295.4,-1701.73 295.4,-1701.73 295.4,-1701.73 299.35,-1699.95 296.93,-1705.97 304.21,-1697.77"/>
</g>
<!-- code_notebook_kernel -->
<g id="node3" class="node">
<title>code_notebook_kernel</title>
<polygon fill="#efefef" stroke="none" points="43.2,-474.4 43.2,-510 297.67,-510 297.67,-474.4 43.2,-474.4"/>
<polygon fill="none" stroke="black" points="43.2,-474.4 43.2,-510 297.67,-510 297.67,-474.4 43.2,-474.4"/>
<text text-anchor="start" x="53.84" y="-487.8" font-family="Arial Bold" font-size="18.00">code_notebook_kernel</text>
<text text-anchor="start" x="217.78" y="-487.8" font-family="Arial" font-size="14.00">    </text>
<text text-anchor="start" x="248.9" y="-487.8" font-family="Arial" font-size="14.00" fill="#666666">[table]</text>
<polygon fill="none" stroke="black" points="43.2,-443.6 43.2,-474.4 297.67,-474.4 297.67,-443.6 43.2,-443.6"/>
<text text-anchor="start" x="50.2" y="-455.8" font-family="Arial" font-size="14.00">code_notebook_kernel_id </text>
<text text-anchor="start" x="214.44" y="-455.8" font-family="Arial" font-size="14.00" fill="#666666">[VARCHAR]</text>
<polygon fill="none" stroke="black" points="43.2,-412.8 43.2,-443.6 297.67,-443.6 297.67,-412.8 43.2,-412.8"/>
<text text-anchor="start" x="50.2" y="-425" font-family="Arial" font-size="14.00">kernel_name </text>
<text text-anchor="start" x="135.03" y="-425" font-family="Arial" font-size="14.00" fill="#666666">[TEXT]</text>
<polygon fill="none" stroke="black" points="43.2,-382 43.2,-412.8 297.67,-412.8 297.67,-382 43.2,-382"/>
<text text-anchor="start" x="50.2" y="-394.2" font-family="Arial" font-size="14.00">description </text>
<text text-anchor="start" x="121.79" y="-394.2" font-family="Arial" font-size="14.00" fill="#666666">[TEXT]</text>
<polygon fill="none" stroke="black" points="43.2,-351.2 43.2,-382 297.67,-382 297.67,-351.2 43.2,-351.2"/>
<text text-anchor="start" x="50.2" y="-363.4" font-family="Arial" font-size="14.00">mime_type </text>
<text text-anchor="start" x="122.56" y="-363.4" font-family="Arial" font-size="14.00" fill="#666666">[TEXT]</text>
<polygon fill="none" stroke="black" points="43.2,-320.4 43.2,-351.2 297.67,-351.2 297.67,-320.4 43.2,-320.4"/>
<text text-anchor="start" x="50.2" y="-332.6" font-family="Arial" font-size="14.00">file_extn </text>
<text text-anchor="start" x="106.23" y="-332.6" font-family="Arial" font-size="14.00" fill="#666666">[TEXT]</text>
<polygon fill="none" stroke="black" points="43.2,-289.6 43.2,-320.4 297.67,-320.4 297.67,-289.6 43.2,-289.6"/>
<text text-anchor="start" x="50.2" y="-301.8" font-family="Arial" font-size="14.00">elaboration </text>
<text text-anchor="start" x="123.37" y="-301.8" font-family="Arial" font-size="14.00" fill="#666666">[TEXT]</text>
<polygon fill="none" stroke="black" points="43.2,-258.8 43.2,-289.6 297.67,-289.6 297.67,-258.8 43.2,-258.8"/>
<text text-anchor="start" x="50.2" y="-271" font-family="Arial" font-size="14.00">governance </text>
<text text-anchor="start" x="127.25" y="-271" font-family="Arial" font-size="14.00" fill="#666666">[TEXT]</text>
<polygon fill="none" stroke="black" points="43.2,-228 43.2,-258.8 297.67,-258.8 297.67,-228 43.2,-228"/>
<text text-anchor="start" x="50.2" y="-240.2" font-family="Arial" font-size="14.00">created_at </text>
<text text-anchor="start" x="120.25" y="-240.2" font-family="Arial" font-size="14.00" fill="#666666">[TIMESTAMPTZ]</text>
<polygon fill="none" stroke="black" points="43.2,-197.2 43.2,-228 297.67,-228 297.67,-197.2 43.2,-197.2"/>
<text text-anchor="start" x="50.2" y="-209.4" font-family="Arial" font-size="14.00">created_by </text>
<text text-anchor="start" x="123.36" y="-209.4" font-family="Arial" font-size="14.00" fill="#666666">[TEXT]</text>
<polygon fill="none" stroke="black" points="43.2,-166.4 43.2,-197.2 297.67,-197.2 297.67,-166.4 43.2,-166.4"/>
<text text-anchor="start" x="50.2" y="-178.6" font-family="Arial" font-size="14.00">updated_at </text>
<text text-anchor="start" x="124.16" y="-178.6" font-family="Arial" font-size="14.00" fill="#666666">[TIMESTAMPTZ]</text>
<polygon fill="none" stroke="black" points="43.2,-135.6 43.2,-166.4 297.67,-166.4 297.67,-135.6 43.2,-135.6"/>
<text text-anchor="start" x="50.2" y="-147.8" font-family="Arial" font-size="14.00">updated_by </text>
<text text-anchor="start" x="127.27" y="-147.8" font-family="Arial" font-size="14.00" fill="#666666">[TEXT]</text>
<polygon fill="none" stroke="black" points="43.2,-104.8 43.2,-135.6 297.67,-135.6 297.67,-104.8 43.2,-104.8"/>
<text text-anchor="start" x="50.2" y="-117" font-family="Arial" font-size="14.00">deleted_at </text>
<text text-anchor="start" x="119.48" y="-117" font-family="Arial" font-size="14.00" fill="#666666">[TIMESTAMPTZ]</text>
<polygon fill="none" stroke="black" points="43.2,-74 43.2,-104.8 297.67,-104.8 297.67,-74 43.2,-74"/>
<text text-anchor="start" x="50.2" y="-86.2" font-family="Arial" font-size="14.00">deleted_by </text>
<text text-anchor="start" x="122.59" y="-86.2" font-family="Arial" font-size="14.00" fill="#666666">[TEXT]</text>
<polygon fill="none" stroke="black" points="43.2,-43.2 43.2,-74 297.67,-74 297.67,-43.2 43.2,-43.2"/>
<text text-anchor="start" x="50.2" y="-55.4" font-family="Arial" font-size="14.00">activity_log </text>
<text text-anchor="start" x="123.34" y="-55.4" font-family="Arial" font-size="14.00" fill="#666666">[TEXT]</text>
</g>
<!-- code_notebook_cell&#45;&gt;code_notebook_kernel -->
<g id="edge2" class="edge">
<title>code_notebook_cell:notebook_kernel_id&#45;&gt;code_notebook_kernel:code_notebook_kernel_id</title>
<path fill="none" stroke="black" d="M299.4,-1075.04C359.64,-1022.24 364.34,-459 298.67,-459"/>
<polygon fill="black" stroke="black" points="299.62,-1074.95 288.66,-1074.73 294.71,-1077.04 290.73,-1078.74 290.73,-1078.74 290.73,-1078.74 294.71,-1077.04 292.18,-1083.01 299.62,-1074.95"/>
</g>
</g>
</svg>
