<?xml version="1.0" encoding="UTF-8" standalone="no"?>
<!DOCTYPE svg PUBLIC "-//W3C//DTD SVG 1.1//EN"
 "http://www.w3.org/Graphics/SVG/1.1/DTD/svg11.dtd">
<!-- Generated by graphviz version 2.40.1 (20161225.0304)
 -->
<!-- Title: code_notebook_state Pages: 1 -->
<svg width="400pt" height="1799pt"
 viewBox="0.00 0.00 400.41 1799.00" xmlns="http://www.w3.org/2000/svg" xmlns:xlink="http://www.w3.org/1999/xlink">
<g id="graph0" class="graph" transform="scale(1 1) rotate(0) translate(4 1795)">
<title>code_notebook_state</title>
<polygon fill="#ffffff" stroke="transparent" points="-4,4 -4,-1795 396.4101,-1795 396.4101,4 -4,4"/>
<!-- code_notebook_state -->
<g id="node1" class="node">
<title>code_notebook_state</title>
<polygon fill="#efefef" stroke="transparent" points="63.2709,-1709.5 63.2709,-1744.5 321.2709,-1744.5 321.2709,-1709.5 63.2709,-1709.5"/>
<polygon fill="none" stroke="#000000" points="63.2709,-1709.5 63.2709,-1744.5 321.2709,-1744.5 321.2709,-1709.5 63.2709,-1709.5"/>
<text text-anchor="start" x="70.0618" y="-1722.3" font-family="Arial Bold" font-size="18.00" fill="#000000">code_notebook_state</text>
<text text-anchor="start" x="242.149" y="-1722.3" font-family="Arial" font-size="14.00" fill="#000000">    </text>
<text text-anchor="start" x="276.3538" y="-1722.3" font-family="Arial" font-size="14.00" fill="#666666">[table]</text>
<polygon fill="none" stroke="#000000" points="63.2709,-1679.5 63.2709,-1709.5 321.2709,-1709.5 321.2709,-1679.5 63.2709,-1679.5"/>
<text text-anchor="start" x="70.2709" y="-1690.9" font-family="Arial" font-size="14.00" fill="#000000">code_notebook_state_id </text>
<text text-anchor="start" x="226.6789" y="-1690.9" font-family="Arial" font-size="14.00" fill="#666666">[VARCHAR]</text>
<polygon fill="none" stroke="#000000" points="63.2709,-1649.5 63.2709,-1679.5 321.2709,-1679.5 321.2709,-1649.5 63.2709,-1649.5"/>
<text text-anchor="start" x="70.2709" y="-1660.9" font-family="Arial" font-size="14.00" fill="#000000">code_notebook_cell_id </text>
<text text-anchor="start" x="217.3283" y="-1660.9" font-family="Arial" font-size="14.00" fill="#666666">[VARCHAR]</text>
<polygon fill="none" stroke="#000000" points="63.2709,-1619.5 63.2709,-1649.5 321.2709,-1649.5 321.2709,-1619.5 63.2709,-1619.5"/>
<text text-anchor="start" x="70.2709" y="-1630.9" font-family="Arial" font-size="14.00" fill="#000000">from_state </text>
<text text-anchor="start" x="140.2849" y="-1630.9" font-family="Arial" font-size="14.00" fill="#666666">[TEXT]</text>
<polygon fill="none" stroke="#000000" points="63.2709,-1589.5 63.2709,-1619.5 321.2709,-1619.5 321.2709,-1589.5 63.2709,-1589.5"/>
<text text-anchor="start" x="70.2709" y="-1600.9" font-family="Arial" font-size="14.00" fill="#000000">to_state </text>
<text text-anchor="start" x="123.9637" y="-1600.9" font-family="Arial" font-size="14.00" fill="#666666">[TEXT]</text>
<polygon fill="none" stroke="#000000" points="63.2709,-1559.5 63.2709,-1589.5 321.2709,-1589.5 321.2709,-1559.5 63.2709,-1559.5"/>
<text text-anchor="start" x="70.2709" y="-1570.9" font-family="Arial" font-size="14.00" fill="#000000">transition_result </text>
<text text-anchor="start" x="172.9525" y="-1570.9" font-family="Arial" font-size="14.00" fill="#666666">[TEXT]</text>
<polygon fill="none" stroke="#000000" points="63.2709,-1529.5 63.2709,-1559.5 321.2709,-1559.5 321.2709,-1529.5 63.2709,-1529.5"/>
<text text-anchor="start" x="70.2709" y="-1540.9" font-family="Arial" font-size="14.00" fill="#000000">transition_reason </text>
<text text-anchor="start" x="181.5205" y="-1540.9" font-family="Arial" font-size="14.00" fill="#666666">[TEXT]</text>
<polygon fill="none" stroke="#000000" points="63.2709,-1499.5 63.2709,-1529.5 321.2709,-1529.5 321.2709,-1499.5 63.2709,-1499.5"/>
<text text-anchor="start" x="70.2709" y="-1510.9" font-family="Arial" font-size="14.00" fill="#000000">transitioned_at </text>
<text text-anchor="start" x="165.9679" y="-1510.9" font-family="Arial" font-size="14.00" fill="#666666">[TIMESTAMP]</text>
<polygon fill="none" stroke="#000000" points="63.2709,-1469.5 63.2709,-1499.5 321.2709,-1499.5 321.2709,-1469.5 63.2709,-1469.5"/>
<text text-anchor="start" x="70.2709" y="-1480.9" font-family="Arial" font-size="14.00" fill="#000000">elaboration </text>
<text text-anchor="start" x="143.4041" y="-1480.9" font-family="Arial" font-size="14.00" fill="#666666">[TEXT]</text>
<polygon fill="none" stroke="#000000" points="63.2709,-1439.5 63.2709,-1469.5 321.2709,-1469.5 321.2709,-1439.5 63.2709,-1439.5"/>
<text text-anchor="start" x="70.2709" y="-1450.9" font-family="Arial" font-size="14.00" fill="#000000">created_at </text>
<text text-anchor="start" x="140.2989" y="-1450.9" font-family="Arial" font-size="14.00" fill="#666666">[TIMESTAMP]</text>
<polygon fill="none" stroke="#000000" points="63.2709,-1409.5 63.2709,-1439.5 321.2709,-1439.5 321.2709,-1409.5 63.2709,-1409.5"/>
<text text-anchor="start" x="70.2709" y="-1420.9" font-family="Arial" font-size="14.00" fill="#000000">created_by </text>
<text text-anchor="start" x="143.4083" y="-1420.9" font-family="Arial" font-size="14.00" fill="#666666">[TEXT]</text>
<polygon fill="none" stroke="#000000" points="63.2709,-1379.5 63.2709,-1409.5 321.2709,-1409.5 321.2709,-1379.5 63.2709,-1379.5"/>
<text text-anchor="start" x="70.2709" y="-1390.9" font-family="Arial" font-size="14.00" fill="#000000">updated_at </text>
<text text-anchor="start" x="144.2035" y="-1390.9" font-family="Arial" font-size="14.00" fill="#666666">[TIMESTAMP]</text>
<polygon fill="none" stroke="#000000" points="63.2709,-1349.5 63.2709,-1379.5 321.2709,-1379.5 321.2709,-1349.5 63.2709,-1349.5"/>
<text text-anchor="start" x="70.2709" y="-1360.9" font-family="Arial" font-size="14.00" fill="#000000">updated_by </text>
<text text-anchor="start" x="147.3129" y="-1360.9" font-family="Arial" font-size="14.00" fill="#666666">[TEXT]</text>
<polygon fill="none" stroke="#000000" points="63.2709,-1319.5 63.2709,-1349.5 321.2709,-1349.5 321.2709,-1319.5 63.2709,-1319.5"/>
<text text-anchor="start" x="70.2709" y="-1330.9" font-family="Arial" font-size="14.00" fill="#000000">deleted_at </text>
<text text-anchor="start" x="139.5275" y="-1330.9" font-family="Arial" font-size="14.00" fill="#666666">[TIMESTAMP]</text>
<polygon fill="none" stroke="#000000" points="63.2709,-1289.5 63.2709,-1319.5 321.2709,-1319.5 321.2709,-1289.5 63.2709,-1289.5"/>
<text text-anchor="start" x="70.2709" y="-1300.9" font-family="Arial" font-size="14.00" fill="#000000">deleted_by </text>
<text text-anchor="start" x="142.6369" y="-1300.9" font-family="Arial" font-size="14.00" fill="#666666">[TEXT]</text>
<polygon fill="none" stroke="#000000" points="63.2709,-1259.5 63.2709,-1289.5 321.2709,-1289.5 321.2709,-1259.5 63.2709,-1259.5"/>
<text text-anchor="start" x="70.2709" y="-1270.9" font-family="Arial" font-size="14.00" fill="#000000">activity_log </text>
<text text-anchor="start" x="143.3929" y="-1270.9" font-family="Arial" font-size="14.00" fill="#666666">[TEXT]</text>
<polygon fill="none" stroke="#000000" stroke-width="3" points="61.7709,-1258.5 61.7709,-1746.5 322.7709,-1746.5 322.7709,-1258.5 61.7709,-1258.5"/>
</g>
<!-- code_notebook_cell -->
<g id="node2" class="node">
<title>code_notebook_cell</title>
<polygon fill="#efefef" stroke="transparent" points="58.2709,-1099.5 58.2709,-1134.5 325.2709,-1134.5 325.2709,-1099.5 58.2709,-1099.5"/>
<polygon fill="none" stroke="#000000" points="58.2709,-1099.5 58.2709,-1134.5 325.2709,-1134.5 325.2709,-1099.5 58.2709,-1099.5"/>
<text text-anchor="start" x="75.5729" y="-1112.3" font-family="Arial Bold" font-size="18.00" fill="#000000">code_notebook_cell</text>
<text text-anchor="start" x="235.6379" y="-1112.3" font-family="Arial" font-size="14.00" fill="#000000">    </text>
<text text-anchor="start" x="269.8427" y="-1112.3" font-family="Arial" font-size="14.00" fill="#666666">[table]</text>
<polygon fill="none" stroke="#000000" points="58.2709,-1069.5 58.2709,-1099.5 325.2709,-1099.5 325.2709,-1069.5 58.2709,-1069.5"/>
<text text-anchor="start" x="64.9764" y="-1080.9" font-family="Arial" font-size="14.00" fill="#000000">code_notebook_cell_id    </text>
<text text-anchor="start" x="242.348" y="-1080.9" font-family="Arial" font-size="14.00" fill="#666666">[VARCHAR]</text>
<polygon fill="none" stroke="#000000" points="58.2709,-1039.5 58.2709,-1069.5 325.2709,-1069.5 325.2709,-1039.5 58.2709,-1039.5"/>
<text text-anchor="start" x="65.2709" y="-1050.9" font-family="Arial" font-size="14.00" fill="#000000">notebook_kernel_id    </text>
<text text-anchor="start" x="221.6313" y="-1050.9" font-family="Arial" font-size="14.00" fill="#666666">[VARCHAR]</text>
<polygon fill="none" stroke="#000000" points="58.2709,-1009.5 58.2709,-1039.5 325.2709,-1039.5 325.2709,-1009.5 58.2709,-1009.5"/>
<text text-anchor="start" x="65.2709" y="-1020.9" font-family="Arial" font-size="14.00" fill="#000000">notebook_name    </text>
<text text-anchor="start" x="199.8529" y="-1020.9" font-family="Arial" font-size="14.00" fill="#666666">[TEXT]</text>
<polygon fill="none" stroke="#000000" points="58.2709,-979.5 58.2709,-1009.5 325.2709,-1009.5 325.2709,-979.5 58.2709,-979.5"/>
<text text-anchor="start" x="65.2709" y="-990.9" font-family="Arial" font-size="14.00" fill="#000000">cell_name    </text>
<text text-anchor="start" x="163.2625" y="-990.9" font-family="Arial" font-size="14.00" fill="#666666">[TEXT]</text>
<polygon fill="none" stroke="#000000" points="58.2709,-949.5 58.2709,-979.5 325.2709,-979.5 325.2709,-949.5 58.2709,-949.5"/>
<text text-anchor="start" x="65.2709" y="-960.9" font-family="Arial" font-size="14.00" fill="#000000">cell_governance    </text>
<text text-anchor="start" x="201.3929" y="-960.9" font-family="Arial" font-size="14.00" fill="#666666">[TEXT]</text>
<polygon fill="none" stroke="#000000" points="58.2709,-919.5 58.2709,-949.5 325.2709,-949.5 325.2709,-919.5 58.2709,-919.5"/>
<text text-anchor="start" x="65.2709" y="-930.9" font-family="Arial" font-size="14.00" fill="#000000">interpretable_code    </text>
<text text-anchor="start" x="215.3999" y="-930.9" font-family="Arial" font-size="14.00" fill="#666666">[TEXT]</text>
<polygon fill="none" stroke="#000000" points="58.2709,-889.5 58.2709,-919.5 325.2709,-919.5 325.2709,-889.5 58.2709,-889.5"/>
<text text-anchor="start" x="65.2709" y="-900.9" font-family="Arial" font-size="14.00" fill="#000000">interpretable_code_hash    </text>
<text text-anchor="start" x="253.5303" y="-900.9" font-family="Arial" font-size="14.00" fill="#666666">[TEXT]</text>
<polygon fill="none" stroke="#000000" points="58.2709,-859.5 58.2709,-889.5 325.2709,-889.5 325.2709,-859.5 58.2709,-859.5"/>
<text text-anchor="start" x="65.2709" y="-870.9" font-family="Arial" font-size="14.00" fill="#000000">description    </text>
<text text-anchor="start" x="167.1531" y="-870.9" font-family="Arial" font-size="14.00" fill="#666666">[TEXT]</text>
<polygon fill="none" stroke="#000000" points="58.2709,-829.5 58.2709,-859.5 325.2709,-859.5 325.2709,-829.5 58.2709,-829.5"/>
<text text-anchor="start" x="65.2709" y="-840.9" font-family="Arial" font-size="14.00" fill="#000000">arguments    </text>
<text text-anchor="start" x="165.6005" y="-840.9" font-family="Arial" font-size="14.00" fill="#666666">[TEXT]</text>
<polygon fill="none" stroke="#000000" points="58.2709,-799.5 58.2709,-829.5 325.2709,-829.5 325.2709,-799.5 58.2709,-799.5"/>
<text text-anchor="start" x="65.2709" y="-810.9" font-family="Arial" font-size="14.00" fill="#000000">created_at    </text>
<text text-anchor="start" x="165.6131" y="-810.9" font-family="Arial" font-size="14.00" fill="#666666">[TIMESTAMP]</text>
<polygon fill="none" stroke="#000000" points="58.2709,-769.5 58.2709,-799.5 325.2709,-799.5 325.2709,-769.5 58.2709,-769.5"/>
<text text-anchor="start" x="65.2709" y="-780.9" font-family="Arial" font-size="14.00" fill="#000000">created_by    </text>
<text text-anchor="start" x="168.7225" y="-780.9" font-family="Arial" font-size="14.00" fill="#666666">[TEXT]</text>
<polygon fill="none" stroke="#000000" points="58.2709,-739.5 58.2709,-769.5 325.2709,-769.5 325.2709,-739.5 58.2709,-739.5"/>
<text text-anchor="start" x="65.2709" y="-750.9" font-family="Arial" font-size="14.00" fill="#000000">updated_at    </text>
<text text-anchor="start" x="169.5177" y="-750.9" font-family="Arial" font-size="14.00" fill="#666666">[TIMESTAMP]</text>
<polygon fill="none" stroke="#000000" points="58.2709,-709.5 58.2709,-739.5 325.2709,-739.5 325.2709,-709.5 58.2709,-709.5"/>
<text text-anchor="start" x="65.2709" y="-720.9" font-family="Arial" font-size="14.00" fill="#000000">updated_by    </text>
<text text-anchor="start" x="172.6271" y="-720.9" font-family="Arial" font-size="14.00" fill="#666666">[TEXT]</text>
<polygon fill="none" stroke="#000000" points="58.2709,-679.5 58.2709,-709.5 325.2709,-709.5 325.2709,-679.5 58.2709,-679.5"/>
<text text-anchor="start" x="65.2709" y="-690.9" font-family="Arial" font-size="14.00" fill="#000000">deleted_at    </text>
<text text-anchor="start" x="164.8417" y="-690.9" font-family="Arial" font-size="14.00" fill="#666666">[TIMESTAMP]</text>
<polygon fill="none" stroke="#000000" points="58.2709,-649.5 58.2709,-679.5 325.2709,-679.5 325.2709,-649.5 58.2709,-649.5"/>
<text text-anchor="start" x="65.2709" y="-660.9" font-family="Arial" font-size="14.00" fill="#000000">deleted_by    </text>
<text text-anchor="start" x="167.9511" y="-660.9" font-family="Arial" font-size="14.00" fill="#666666">[TEXT]</text>
<polygon fill="none" stroke="#000000" points="58.2709,-619.5 58.2709,-649.5 325.2709,-649.5 325.2709,-619.5 58.2709,-619.5"/>
<text text-anchor="start" x="65.2709" y="-630.9" font-family="Arial" font-size="14.00" fill="#000000">activity_log    </text>
<text text-anchor="start" x="168.7071" y="-630.9" font-family="Arial" font-size="14.00" fill="#666666">[TEXT]</text>
</g>
<!-- code_notebook_state&#45;&gt;code_notebook_cell -->
<g id="edge1" class="edge">
<title>code_notebook_state:code_notebook_cell_id&#45;&gt;code_notebook_cell:code_notebook_cell_id</title>
<path fill="none" stroke="#000000" d="M53.2062,-1663.1387C-34.3885,-1638.4998 -.211,-1286.801 63.2709,-1214 140.5195,-1125.4113 248.0223,-1266.5887 325.2709,-1178 352.582,-1146.6796 366.8264,-1084.5 325.2709,-1084.5"/>
<polygon fill="#000000" stroke="#000000" points="53.3611,-1663.1595 62.6677,-1668.9594 58.316,-1663.8298 63.2709,-1664.5 63.2709,-1664.5 63.2709,-1664.5 58.316,-1663.8298 63.8741,-1660.0406 53.3611,-1663.1595 53.3611,-1663.1595"/>
</g>
<!-- code_notebook_kernel -->
<g id="node3" class="node">
<title>code_notebook_kernel</title>
<polygon fill="#efefef" stroke="transparent" points="50.2709,-462.5 50.2709,-497.5 334.2709,-497.5 334.2709,-462.5 50.2709,-462.5"/>
<polygon fill="none" stroke="#000000" points="50.2709,-462.5 50.2709,-497.5 334.2709,-497.5 334.2709,-462.5 50.2709,-462.5"/>
<text text-anchor="start" x="65.0677" y="-475.3" font-family="Arial Bold" font-size="18.00" fill="#000000">code_notebook_kernel</text>
<text text-anchor="start" x="247.1431" y="-475.3" font-family="Arial" font-size="14.00" fill="#000000">    </text>
<text text-anchor="start" x="281.3479" y="-475.3" font-family="Arial" font-size="14.00" fill="#666666">[table]</text>
<polygon fill="none" stroke="#000000" points="50.2709,-432.5 50.2709,-462.5 334.2709,-462.5 334.2709,-432.5 50.2709,-432.5"/>
<text text-anchor="start" x="56.9168" y="-443.9" font-family="Arial" font-size="14.00" fill="#000000">code_notebook_kernel_id    </text>
<text text-anchor="start" x="251.4076" y="-443.9" font-family="Arial" font-size="14.00" fill="#666666">[VARCHAR]</text>
<polygon fill="none" stroke="#000000" points="50.2709,-402.5 50.2709,-432.5 334.2709,-432.5 334.2709,-402.5 50.2709,-402.5"/>
<text text-anchor="start" x="57.2709" y="-413.9" font-family="Arial" font-size="14.00" fill="#000000">kernel_name    </text>
<text text-anchor="start" x="172.3817" y="-413.9" font-family="Arial" font-size="14.00" fill="#666666">[TEXT]</text>
<polygon fill="none" stroke="#000000" points="50.2709,-372.5 50.2709,-402.5 334.2709,-402.5 334.2709,-372.5 50.2709,-372.5"/>
<text text-anchor="start" x="57.2709" y="-383.9" font-family="Arial" font-size="14.00" fill="#000000">description    </text>
<text text-anchor="start" x="159.1531" y="-383.9" font-family="Arial" font-size="14.00" fill="#666666">[TEXT]</text>
<polygon fill="none" stroke="#000000" points="50.2709,-342.5 50.2709,-372.5 334.2709,-372.5 334.2709,-342.5 50.2709,-342.5"/>
<text text-anchor="start" x="57.2709" y="-353.9" font-family="Arial" font-size="14.00" fill="#000000">mime_type    </text>
<text text-anchor="start" x="159.9245" y="-353.9" font-family="Arial" font-size="14.00" fill="#666666">[TEXT]</text>
<polygon fill="none" stroke="#000000" points="50.2709,-312.5 50.2709,-342.5 334.2709,-342.5 334.2709,-312.5 50.2709,-312.5"/>
<text text-anchor="start" x="57.2709" y="-323.9" font-family="Arial" font-size="14.00" fill="#000000">file_extn    </text>
<text text-anchor="start" x="143.6005" y="-323.9" font-family="Arial" font-size="14.00" fill="#666666">[TEXT]</text>
<polygon fill="none" stroke="#000000" points="50.2709,-282.5 50.2709,-312.5 334.2709,-312.5 334.2709,-282.5 50.2709,-282.5"/>
<text text-anchor="start" x="57.2709" y="-293.9" font-family="Arial" font-size="14.00" fill="#000000">elaboration    </text>
<text text-anchor="start" x="160.7183" y="-293.9" font-family="Arial" font-size="14.00" fill="#666666">[TEXT]</text>
<polygon fill="none" stroke="#000000" points="50.2709,-252.5 50.2709,-282.5 334.2709,-282.5 334.2709,-252.5 50.2709,-252.5"/>
<text text-anchor="start" x="57.2709" y="-263.9" font-family="Arial" font-size="14.00" fill="#000000">governance    </text>
<text text-anchor="start" x="164.6145" y="-263.9" font-family="Arial" font-size="14.00" fill="#666666">[TEXT]</text>
<polygon fill="none" stroke="#000000" points="50.2709,-222.5 50.2709,-252.5 334.2709,-252.5 334.2709,-222.5 50.2709,-222.5"/>
<text text-anchor="start" x="57.2709" y="-233.9" font-family="Arial" font-size="14.00" fill="#000000">created_at    </text>
<text text-anchor="start" x="157.6131" y="-233.9" font-family="Arial" font-size="14.00" fill="#666666">[TIMESTAMP]</text>
<polygon fill="none" stroke="#000000" points="50.2709,-192.5 50.2709,-222.5 334.2709,-222.5 334.2709,-192.5 50.2709,-192.5"/>
<text text-anchor="start" x="57.2709" y="-203.9" font-family="Arial" font-size="14.00" fill="#000000">created_by    </text>
<text text-anchor="start" x="160.7225" y="-203.9" font-family="Arial" font-size="14.00" fill="#666666">[TEXT]</text>
<polygon fill="none" stroke="#000000" points="50.2709,-162.5 50.2709,-192.5 334.2709,-192.5 334.2709,-162.5 50.2709,-162.5"/>
<text text-anchor="start" x="57.2709" y="-173.9" font-family="Arial" font-size="14.00" fill="#000000">updated_at    </text>
<text text-anchor="start" x="161.5177" y="-173.9" font-family="Arial" font-size="14.00" fill="#666666">[TIMESTAMP]</text>
<polygon fill="none" stroke="#000000" points="50.2709,-132.5 50.2709,-162.5 334.2709,-162.5 334.2709,-132.5 50.2709,-132.5"/>
<text text-anchor="start" x="57.2709" y="-143.9" font-family="Arial" font-size="14.00" fill="#000000">updated_by    </text>
<text text-anchor="start" x="164.6271" y="-143.9" font-family="Arial" font-size="14.00" fill="#666666">[TEXT]</text>
<polygon fill="none" stroke="#000000" points="50.2709,-102.5 50.2709,-132.5 334.2709,-132.5 334.2709,-102.5 50.2709,-102.5"/>
<text text-anchor="start" x="57.2709" y="-113.9" font-family="Arial" font-size="14.00" fill="#000000">deleted_at    </text>
<text text-anchor="start" x="156.8417" y="-113.9" font-family="Arial" font-size="14.00" fill="#666666">[TIMESTAMP]</text>
<polygon fill="none" stroke="#000000" points="50.2709,-72.5 50.2709,-102.5 334.2709,-102.5 334.2709,-72.5 50.2709,-72.5"/>
<text text-anchor="start" x="57.2709" y="-83.9" font-family="Arial" font-size="14.00" fill="#000000">deleted_by    </text>
<text text-anchor="start" x="159.9511" y="-83.9" font-family="Arial" font-size="14.00" fill="#666666">[TEXT]</text>
<polygon fill="none" stroke="#000000" points="50.2709,-42.5 50.2709,-72.5 334.2709,-72.5 334.2709,-42.5 50.2709,-42.5"/>
<text text-anchor="start" x="57.2709" y="-53.9" font-family="Arial" font-size="14.00" fill="#000000">activity_log    </text>
<text text-anchor="start" x="160.7071" y="-53.9" font-family="Arial" font-size="14.00" fill="#666666">[TEXT]</text>
</g>
<!-- code_notebook_cell&#45;&gt;code_notebook_kernel -->
<g id="edge2" class="edge">
<title>code_notebook_cell:notebook_kernel_id&#45;&gt;code_notebook_kernel:code_notebook_kernel_id</title>
<path fill="none" stroke="#000000" d="M335.3741,-1053.2107C428.9462,-1028.4377 392.94,-654.1049 325.2709,-577 243.9627,-484.3541 131.579,-633.6459 50.2709,-541 22.86,-509.7669 8.7153,-447.5 50.2709,-447.5"/>
<polygon fill="#000000" stroke="#000000" points="335.1904,-1053.2341 324.7012,-1050.0362 330.2307,-1053.867 325.2709,-1054.5 325.2709,-1054.5 325.2709,-1054.5 330.2307,-1053.867 325.8405,-1058.9638 335.1904,-1053.2341 335.1904,-1053.2341"/>
</g>
</g>
</svg>
