<?xml version="1.0" encoding="UTF-8" standalone="no"?>
<!DOCTYPE svg PUBLIC "-//W3C//DTD SVG 1.1//EN"
 "http://www.w3.org/Graphics/SVG/1.1/DTD/svg11.dtd">
<!-- Generated by graphviz version 12.1.2 (20240928.0832)
 -->
<!-- Title: Resource Surveillance Notebooks Schema Pages: 1 -->
<svg width="689pt" height="1832pt"
 viewBox="0.00 0.00 689.24 1832.00" xmlns="http://www.w3.org/2000/svg" xmlns:xlink="http://www.w3.org/1999/xlink">
<g id="graph0" class="graph" transform="scale(1 1) rotate(0) translate(4 1828)">
<title>Resource Surveillance Notebooks Schema</title>
<polygon fill="white" stroke="none" points="-4,4 -4,-1828 685.24,-1828 685.24,4 -4,4"/>
<!-- assurance_schema -->
<g id="node1" class="node">
<title>assurance_schema</title>
<polygon fill="#efefef" stroke="none" points="43.2,-1699 43.2,-1734.6 277.41,-1734.6 277.41,-1699 43.2,-1699"/>
<polygon fill="none" stroke="black" points="43.2,-1699 43.2,-1734.6 277.41,-1734.6 277.41,-1699 43.2,-1699"/>
<text text-anchor="start" x="59.21" y="-1712.4" font-family="Arial Bold" font-size="18.00">assurance_schema</text>
<text text-anchor="start" x="192.14" y="-1712.4" font-family="Arial" font-size="14.00">    </text>
<text text-anchor="start" x="223.26" y="-1712.4" font-family="Arial" font-size="14.00" fill="#666666">[table]</text>
<polygon fill="none" stroke="black" points="43.2,-1668.2 43.2,-1699 277.41,-1699 277.41,-1668.2 43.2,-1668.2"/>
<text text-anchor="start" x="50.2" y="-1680.4" font-family="Arial" font-size="14.00">assurance_schema_id </text>
<text text-anchor="start" x="194.17" y="-1680.4" font-family="Arial" font-size="14.00" fill="#666666">[VARCHAR]</text>
<polygon fill="none" stroke="black" points="43.2,-1637.4 43.2,-1668.2 277.41,-1668.2 277.41,-1637.4 43.2,-1637.4"/>
<text text-anchor="start" x="50.2" y="-1649.6" font-family="Arial" font-size="14.00">assurance_type </text>
<text text-anchor="start" x="152.93" y="-1649.6" font-family="Arial" font-size="14.00" fill="#666666">[TEXT]</text>
<polygon fill="none" stroke="black" points="43.2,-1606.6 43.2,-1637.4 277.41,-1637.4 277.41,-1606.6 43.2,-1606.6"/>
<text text-anchor="start" x="50.2" y="-1618.8" font-family="Arial" font-size="14.00">code </text>
<text text-anchor="start" x="84.45" y="-1618.8" font-family="Arial" font-size="14.00" fill="#666666">[TEXT]</text>
<polygon fill="none" stroke="black" points="43.2,-1575.8 43.2,-1606.6 277.41,-1606.6 277.41,-1575.8 43.2,-1575.8"/>
<text text-anchor="start" x="50.2" y="-1588" font-family="Arial" font-size="14.00">code_json </text>
<text text-anchor="start" x="117.92" y="-1588" font-family="Arial" font-size="14.00" fill="#666666">[TEXT]</text>
<polygon fill="none" stroke="black" points="43.2,-1545 43.2,-1575.8 277.41,-1575.8 277.41,-1545 43.2,-1545"/>
<text text-anchor="start" x="50.2" y="-1557.2" font-family="Arial" font-size="14.00">governance </text>
<text text-anchor="start" x="127.25" y="-1557.2" font-family="Arial" font-size="14.00" fill="#666666">[TEXT]</text>
<polygon fill="none" stroke="black" points="43.2,-1514.2 43.2,-1545 277.41,-1545 277.41,-1514.2 43.2,-1514.2"/>
<text text-anchor="start" x="50.2" y="-1526.4" font-family="Arial" font-size="14.00">created_at </text>
<text text-anchor="start" x="120.25" y="-1526.4" font-family="Arial" font-size="14.00" fill="#666666">[TIMESTAMPTZ]</text>
<polygon fill="none" stroke="black" points="43.2,-1483.4 43.2,-1514.2 277.41,-1514.2 277.41,-1483.4 43.2,-1483.4"/>
<text text-anchor="start" x="50.2" y="-1495.6" font-family="Arial" font-size="14.00">created_by </text>
<text text-anchor="start" x="123.36" y="-1495.6" font-family="Arial" font-size="14.00" fill="#666666">[TEXT]</text>
<polygon fill="none" stroke="black" points="43.2,-1452.6 43.2,-1483.4 277.41,-1483.4 277.41,-1452.6 43.2,-1452.6"/>
<text text-anchor="start" x="50.2" y="-1464.8" font-family="Arial" font-size="14.00">updated_at </text>
<text text-anchor="start" x="124.16" y="-1464.8" font-family="Arial" font-size="14.00" fill="#666666">[TIMESTAMPTZ]</text>
<polygon fill="none" stroke="black" points="43.2,-1421.8 43.2,-1452.6 277.41,-1452.6 277.41,-1421.8 43.2,-1421.8"/>
<text text-anchor="start" x="50.2" y="-1434" font-family="Arial" font-size="14.00">updated_by </text>
<text text-anchor="start" x="127.27" y="-1434" font-family="Arial" font-size="14.00" fill="#666666">[TEXT]</text>
<polygon fill="none" stroke="black" points="43.2,-1391 43.2,-1421.8 277.41,-1421.8 277.41,-1391 43.2,-1391"/>
<text text-anchor="start" x="50.2" y="-1403.2" font-family="Arial" font-size="14.00">deleted_at </text>
<text text-anchor="start" x="119.48" y="-1403.2" font-family="Arial" font-size="14.00" fill="#666666">[TIMESTAMPTZ]</text>
<polygon fill="none" stroke="black" points="43.2,-1360.2 43.2,-1391 277.41,-1391 277.41,-1360.2 43.2,-1360.2"/>
<text text-anchor="start" x="50.2" y="-1372.4" font-family="Arial" font-size="14.00">deleted_by </text>
<text text-anchor="start" x="122.59" y="-1372.4" font-family="Arial" font-size="14.00" fill="#666666">[TEXT]</text>
<polygon fill="none" stroke="black" points="43.2,-1329.4 43.2,-1360.2 277.41,-1360.2 277.41,-1329.4 43.2,-1329.4"/>
<text text-anchor="start" x="50.2" y="-1341.6" font-family="Arial" font-size="14.00">activity_log </text>
<text text-anchor="start" x="123.34" y="-1341.6" font-family="Arial" font-size="14.00" fill="#666666">[TEXT]</text>
</g>
<!-- code_notebook_kernel -->
<g id="node2" class="node">
<title>code_notebook_kernel</title>
<polygon fill="#efefef" stroke="none" points="378.07,-474.4 378.07,-510 632.54,-510 632.54,-474.4 378.07,-474.4"/>
<polygon fill="none" stroke="black" points="378.07,-474.4 378.07,-510 632.54,-510 632.54,-474.4 378.07,-474.4"/>
<text text-anchor="start" x="388.7" y="-487.8" font-family="Arial Bold" font-size="18.00">code_notebook_kernel</text>
<text text-anchor="start" x="552.65" y="-487.8" font-family="Arial" font-size="14.00">    </text>
<text text-anchor="start" x="583.76" y="-487.8" font-family="Arial" font-size="14.00" fill="#666666">[table]</text>
<polygon fill="none" stroke="black" points="378.07,-443.6 378.07,-474.4 632.54,-474.4 632.54,-443.6 378.07,-443.6"/>
<text text-anchor="start" x="385.07" y="-455.8" font-family="Arial" font-size="14.00">code_notebook_kernel_id </text>
<text text-anchor="start" x="549.31" y="-455.8" font-family="Arial" font-size="14.00" fill="#666666">[VARCHAR]</text>
<polygon fill="none" stroke="black" points="378.07,-412.8 378.07,-443.6 632.54,-443.6 632.54,-412.8 378.07,-412.8"/>
<text text-anchor="start" x="385.07" y="-425" font-family="Arial" font-size="14.00">kernel_name </text>
<text text-anchor="start" x="469.89" y="-425" font-family="Arial" font-size="14.00" fill="#666666">[TEXT]</text>
<polygon fill="none" stroke="black" points="378.07,-382 378.07,-412.8 632.54,-412.8 632.54,-382 378.07,-382"/>
<text text-anchor="start" x="385.07" y="-394.2" font-family="Arial" font-size="14.00">description </text>
<text text-anchor="start" x="456.66" y="-394.2" font-family="Arial" font-size="14.00" fill="#666666">[TEXT]</text>
<polygon fill="none" stroke="black" points="378.07,-351.2 378.07,-382 632.54,-382 632.54,-351.2 378.07,-351.2"/>
<text text-anchor="start" x="385.07" y="-363.4" font-family="Arial" font-size="14.00">mime_type </text>
<text text-anchor="start" x="457.42" y="-363.4" font-family="Arial" font-size="14.00" fill="#666666">[TEXT]</text>
<polygon fill="none" stroke="black" points="378.07,-320.4 378.07,-351.2 632.54,-351.2 632.54,-320.4 378.07,-320.4"/>
<text text-anchor="start" x="385.07" y="-332.6" font-family="Arial" font-size="14.00">file_extn </text>
<text text-anchor="start" x="441.1" y="-332.6" font-family="Arial" font-size="14.00" fill="#666666">[TEXT]</text>
<polygon fill="none" stroke="black" points="378.07,-289.6 378.07,-320.4 632.54,-320.4 632.54,-289.6 378.07,-289.6"/>
<text text-anchor="start" x="385.07" y="-301.8" font-family="Arial" font-size="14.00">elaboration </text>
<text text-anchor="start" x="458.23" y="-301.8" font-family="Arial" font-size="14.00" fill="#666666">[TEXT]</text>
<polygon fill="none" stroke="black" points="378.07,-258.8 378.07,-289.6 632.54,-289.6 632.54,-258.8 378.07,-258.8"/>
<text text-anchor="start" x="385.07" y="-271" font-family="Arial" font-size="14.00">governance </text>
<text text-anchor="start" x="462.12" y="-271" font-family="Arial" font-size="14.00" fill="#666666">[TEXT]</text>
<polygon fill="none" stroke="black" points="378.07,-228 378.07,-258.8 632.54,-258.8 632.54,-228 378.07,-228"/>
<text text-anchor="start" x="385.07" y="-240.2" font-family="Arial" font-size="14.00">created_at </text>
<text text-anchor="start" x="455.11" y="-240.2" font-family="Arial" font-size="14.00" fill="#666666">[TIMESTAMPTZ]</text>
<polygon fill="none" stroke="black" points="378.07,-197.2 378.07,-228 632.54,-228 632.54,-197.2 378.07,-197.2"/>
<text text-anchor="start" x="385.07" y="-209.4" font-family="Arial" font-size="14.00">created_by </text>
<text text-anchor="start" x="458.22" y="-209.4" font-family="Arial" font-size="14.00" fill="#666666">[TEXT]</text>
<polygon fill="none" stroke="black" points="378.07,-166.4 378.07,-197.2 632.54,-197.2 632.54,-166.4 378.07,-166.4"/>
<text text-anchor="start" x="385.07" y="-178.6" font-family="Arial" font-size="14.00">updated_at </text>
<text text-anchor="start" x="459.02" y="-178.6" font-family="Arial" font-size="14.00" fill="#666666">[TIMESTAMPTZ]</text>
<polygon fill="none" stroke="black" points="378.07,-135.6 378.07,-166.4 632.54,-166.4 632.54,-135.6 378.07,-135.6"/>
<text text-anchor="start" x="385.07" y="-147.8" font-family="Arial" font-size="14.00">updated_by </text>
<text text-anchor="start" x="462.13" y="-147.8" font-family="Arial" font-size="14.00" fill="#666666">[TEXT]</text>
<polygon fill="none" stroke="black" points="378.07,-104.8 378.07,-135.6 632.54,-135.6 632.54,-104.8 378.07,-104.8"/>
<text text-anchor="start" x="385.07" y="-117" font-family="Arial" font-size="14.00">deleted_at </text>
<text text-anchor="start" x="454.35" y="-117" font-family="Arial" font-size="14.00" fill="#666666">[TIMESTAMPTZ]</text>
<polygon fill="none" stroke="black" points="378.07,-74 378.07,-104.8 632.54,-104.8 632.54,-74 378.07,-74"/>
<text text-anchor="start" x="385.07" y="-86.2" font-family="Arial" font-size="14.00">deleted_by </text>
<text text-anchor="start" x="457.46" y="-86.2" font-family="Arial" font-size="14.00" fill="#666666">[TEXT]</text>
<polygon fill="none" stroke="black" points="378.07,-43.2 378.07,-74 632.54,-74 632.54,-43.2 378.07,-43.2"/>
<text text-anchor="start" x="385.07" y="-55.4" font-family="Arial" font-size="14.00">activity_log </text>
<text text-anchor="start" x="458.21" y="-55.4" font-family="Arial" font-size="14.00" fill="#666666">[TEXT]</text>
</g>
<!-- code_notebook_cell -->
<g id="node3" class="node">
<title>code_notebook_cell</title>
<polygon fill="#efefef" stroke="none" points="386.63,-1125.2 386.63,-1160.8 623.98,-1160.8 623.98,-1125.2 386.63,-1125.2"/>
<polygon fill="none" stroke="black" points="386.63,-1125.2 386.63,-1160.8 623.98,-1160.8 623.98,-1125.2 386.63,-1125.2"/>
<text text-anchor="start" x="398.2" y="-1138.6" font-family="Arial Bold" font-size="18.00">code_notebook_cell</text>
<text text-anchor="start" x="543.15" y="-1138.6" font-family="Arial" font-size="14.00">    </text>
<text text-anchor="start" x="574.27" y="-1138.6" font-family="Arial" font-size="14.00" fill="#666666">[table]</text>
<polygon fill="none" stroke="black" points="386.63,-1094.4 386.63,-1125.2 623.98,-1125.2 623.98,-1094.4 386.63,-1094.4"/>
<text text-anchor="start" x="393.63" y="-1106.6" font-family="Arial" font-size="14.00">code_notebook_cell_id </text>
<text text-anchor="start" x="540.74" y="-1106.6" font-family="Arial" font-size="14.00" fill="#666666">[VARCHAR]</text>
<polygon fill="none" stroke="black" points="386.63,-1063.6 386.63,-1094.4 623.98,-1094.4 623.98,-1063.6 386.63,-1063.6"/>
<text text-anchor="start" x="393.63" y="-1075.8" font-family="Arial" font-size="14.00">notebook_kernel_id </text>
<text text-anchor="start" x="519.72" y="-1075.8" font-family="Arial" font-size="14.00" fill="#666666">[VARCHAR]</text>
<polygon fill="none" stroke="black" points="386.63,-1032.8 386.63,-1063.6 623.98,-1063.6 623.98,-1032.8 386.63,-1032.8"/>
<text text-anchor="start" x="393.63" y="-1045" font-family="Arial" font-size="14.00">notebook_name </text>
<text text-anchor="start" x="497.93" y="-1045" font-family="Arial" font-size="14.00" fill="#666666">[TEXT]</text>
<polygon fill="none" stroke="black" points="386.63,-1002 386.63,-1032.8 623.98,-1032.8 623.98,-1002 386.63,-1002"/>
<text text-anchor="start" x="393.63" y="-1014.2" font-family="Arial" font-size="14.00">cell_name </text>
<text text-anchor="start" x="461.33" y="-1014.2" font-family="Arial" font-size="14.00" fill="#666666">[TEXT]</text>
<polygon fill="none" stroke="black" points="386.63,-971.2 386.63,-1002 623.98,-1002 623.98,-971.2 386.63,-971.2"/>
<text text-anchor="start" x="393.63" y="-983.4" font-family="Arial" font-size="14.00">cell_governance </text>
<text text-anchor="start" x="499.48" y="-983.4" font-family="Arial" font-size="14.00" fill="#666666">[TEXT]</text>
<polygon fill="none" stroke="black" points="386.63,-940.4 386.63,-971.2 623.98,-971.2 623.98,-940.4 386.63,-940.4"/>
<text text-anchor="start" x="393.63" y="-952.6" font-family="Arial" font-size="14.00">interpretable_code </text>
<text text-anchor="start" x="513.49" y="-952.6" font-family="Arial" font-size="14.00" fill="#666666">[TEXT]</text>
<polygon fill="none" stroke="black" points="386.63,-909.6 386.63,-940.4 623.98,-940.4 623.98,-909.6 386.63,-909.6"/>
<text text-anchor="start" x="393.63" y="-921.8" font-family="Arial" font-size="14.00">interpretable_code_hash </text>
<text text-anchor="start" x="551.63" y="-921.8" font-family="Arial" font-size="14.00" fill="#666666">[TEXT]</text>
<polygon fill="none" stroke="black" points="386.63,-878.8 386.63,-909.6 623.98,-909.6 623.98,-878.8 386.63,-878.8"/>
<text text-anchor="start" x="393.63" y="-891" font-family="Arial" font-size="14.00">description </text>
<text text-anchor="start" x="465.22" y="-891" font-family="Arial" font-size="14.00" fill="#666666">[TEXT]</text>
<polygon fill="none" stroke="black" points="386.63,-848 386.63,-878.8 623.98,-878.8 623.98,-848 386.63,-848"/>
<text text-anchor="start" x="393.63" y="-860.2" font-family="Arial" font-size="14.00">arguments </text>
<text text-anchor="start" x="463.66" y="-860.2" font-family="Arial" font-size="14.00" fill="#666666">[TEXT]</text>
<polygon fill="none" stroke="black" points="386.63,-817.2 386.63,-848 623.98,-848 623.98,-817.2 386.63,-817.2"/>
<text text-anchor="start" x="393.63" y="-829.4" font-family="Arial" font-size="14.00">created_at </text>
<text text-anchor="start" x="463.68" y="-829.4" font-family="Arial" font-size="14.00" fill="#666666">[TIMESTAMPTZ]</text>
<polygon fill="none" stroke="black" points="386.63,-786.4 386.63,-817.2 623.98,-817.2 623.98,-786.4 386.63,-786.4"/>
<text text-anchor="start" x="393.63" y="-798.6" font-family="Arial" font-size="14.00">created_by </text>
<text text-anchor="start" x="466.79" y="-798.6" font-family="Arial" font-size="14.00" fill="#666666">[TEXT]</text>
<polygon fill="none" stroke="black" points="386.63,-755.6 386.63,-786.4 623.98,-786.4 623.98,-755.6 386.63,-755.6"/>
<text text-anchor="start" x="393.63" y="-767.8" font-family="Arial" font-size="14.00">updated_at </text>
<text text-anchor="start" x="467.59" y="-767.8" font-family="Arial" font-size="14.00" fill="#666666">[TIMESTAMPTZ]</text>
<polygon fill="none" stroke="black" points="386.63,-724.8 386.63,-755.6 623.98,-755.6 623.98,-724.8 386.63,-724.8"/>
<text text-anchor="start" x="393.63" y="-737" font-family="Arial" font-size="14.00">updated_by </text>
<text text-anchor="start" x="470.7" y="-737" font-family="Arial" font-size="14.00" fill="#666666">[TEXT]</text>
<polygon fill="none" stroke="black" points="386.63,-694 386.63,-724.8 623.98,-724.8 623.98,-694 386.63,-694"/>
<text text-anchor="start" x="393.63" y="-706.2" font-family="Arial" font-size="14.00">deleted_at </text>
<text text-anchor="start" x="462.91" y="-706.2" font-family="Arial" font-size="14.00" fill="#666666">[TIMESTAMPTZ]</text>
<polygon fill="none" stroke="black" points="386.63,-663.2 386.63,-694 623.98,-694 623.98,-663.2 386.63,-663.2"/>
<text text-anchor="start" x="393.63" y="-675.4" font-family="Arial" font-size="14.00">deleted_by </text>
<text text-anchor="start" x="466.02" y="-675.4" font-family="Arial" font-size="14.00" fill="#666666">[TEXT]</text>
<polygon fill="none" stroke="black" points="386.63,-632.4 386.63,-663.2 623.98,-663.2 623.98,-632.4 386.63,-632.4"/>
<text text-anchor="start" x="393.63" y="-644.6" font-family="Arial" font-size="14.00">activity_log </text>
<text text-anchor="start" x="466.77" y="-644.6" font-family="Arial" font-size="14.00" fill="#666666">[TEXT]</text>
</g>
<!-- code_notebook_cell&#45;&gt;code_notebook_kernel -->
<g id="edge1" class="edge">
<title>code_notebook_cell:notebook_kernel_id&#45;&gt;code_notebook_kernel:code_notebook_kernel_id</title>
<path fill="none" stroke="black" d="M634.27,-1075.04C694.51,-1022.24 699.21,-459 633.54,-459"/>
<polygon fill="black" stroke="black" points="634.49,-1074.95 623.52,-1074.73 629.58,-1077.04 625.59,-1078.74 625.59,-1078.74 625.59,-1078.74 629.58,-1077.04 627.05,-1083.01 634.49,-1074.95"/>
</g>
<!-- code_notebook_state -->
<g id="node4" class="node">
<title>code_notebook_state</title>
<polygon fill="#efefef" stroke="none" points="381.96,-1745.2 381.96,-1780.8 628.65,-1780.8 628.65,-1745.2 381.96,-1745.2"/>
<polygon fill="none" stroke="black" points="381.96,-1745.2 381.96,-1780.8 628.65,-1780.8 628.65,-1745.2 381.96,-1745.2"/>
<text text-anchor="start" x="394.7" y="-1758.6" font-family="Arial Bold" font-size="18.00">code_notebook_state</text>
<text text-anchor="start" x="546.65" y="-1758.6" font-family="Arial" font-size="14.00">    </text>
<text text-anchor="start" x="577.77" y="-1758.6" font-family="Arial" font-size="14.00" fill="#666666">[table]</text>
<polygon fill="none" stroke="black" points="381.96,-1714.4 381.96,-1745.2 628.65,-1745.2 628.65,-1714.4 381.96,-1714.4"/>
<text text-anchor="start" x="388.96" y="-1726.6" font-family="Arial" font-size="14.00">code_notebook_state_id </text>
<text text-anchor="start" x="545.42" y="-1726.6" font-family="Arial" font-size="14.00" fill="#666666">[VARCHAR]</text>
<polygon fill="none" stroke="black" points="381.96,-1683.6 381.96,-1714.4 628.65,-1714.4 628.65,-1683.6 381.96,-1683.6"/>
<text text-anchor="start" x="388.96" y="-1695.8" font-family="Arial" font-size="14.00">code_notebook_cell_id </text>
<text text-anchor="start" x="536.07" y="-1695.8" font-family="Arial" font-size="14.00" fill="#666666">[VARCHAR]</text>
<polygon fill="none" stroke="black" points="381.96,-1652.8 381.96,-1683.6 628.65,-1683.6 628.65,-1652.8 381.96,-1652.8"/>
<text text-anchor="start" x="388.96" y="-1665" font-family="Arial" font-size="14.00">from_state </text>
<text text-anchor="start" x="458.98" y="-1665" font-family="Arial" font-size="14.00" fill="#666666">[TEXT]</text>
<polygon fill="none" stroke="black" points="381.96,-1622 381.96,-1652.8 628.65,-1652.8 628.65,-1622 381.96,-1622"/>
<text text-anchor="start" x="388.96" y="-1634.2" font-family="Arial" font-size="14.00">to_state </text>
<text text-anchor="start" x="442.66" y="-1634.2" font-family="Arial" font-size="14.00" fill="#666666">[TEXT]</text>
<polygon fill="none" stroke="black" points="381.96,-1591.2 381.96,-1622 628.65,-1622 628.65,-1591.2 381.96,-1591.2"/>
<text text-anchor="start" x="388.96" y="-1603.4" font-family="Arial" font-size="14.00">transition_result </text>
<text text-anchor="start" x="491.67" y="-1603.4" font-family="Arial" font-size="14.00" fill="#666666">[TEXT]</text>
<polygon fill="none" stroke="black" points="381.96,-1560.4 381.96,-1591.2 628.65,-1591.2 628.65,-1560.4 381.96,-1560.4"/>
<text text-anchor="start" x="388.96" y="-1572.6" font-family="Arial" font-size="14.00">transition_reason </text>
<text text-anchor="start" x="500.24" y="-1572.6" font-family="Arial" font-size="14.00" fill="#666666">[TEXT]</text>
<polygon fill="none" stroke="black" points="381.96,-1529.6 381.96,-1560.4 628.65,-1560.4 628.65,-1529.6 381.96,-1529.6"/>
<text text-anchor="start" x="388.96" y="-1541.8" font-family="Arial" font-size="14.00">transitioned_at </text>
<text text-anchor="start" x="484.69" y="-1541.8" font-family="Arial" font-size="14.00" fill="#666666">[TIMESTAMPTZ]</text>
<polygon fill="none" stroke="black" points="381.96,-1498.8 381.96,-1529.6 628.65,-1529.6 628.65,-1498.8 381.96,-1498.8"/>
<text text-anchor="start" x="388.96" y="-1511" font-family="Arial" font-size="14.00">elaboration </text>
<text text-anchor="start" x="462.12" y="-1511" font-family="Arial" font-size="14.00" fill="#666666">[TEXT]</text>
<polygon fill="none" stroke="black" points="381.96,-1468 381.96,-1498.8 628.65,-1498.8 628.65,-1468 381.96,-1468"/>
<text text-anchor="start" x="388.96" y="-1480.2" font-family="Arial" font-size="14.00">created_at </text>
<text text-anchor="start" x="459" y="-1480.2" font-family="Arial" font-size="14.00" fill="#666666">[TIMESTAMPTZ]</text>
<polygon fill="none" stroke="black" points="381.96,-1437.2 381.96,-1468 628.65,-1468 628.65,-1437.2 381.96,-1437.2"/>
<text text-anchor="start" x="388.96" y="-1449.4" font-family="Arial" font-size="14.00">created_by </text>
<text text-anchor="start" x="462.11" y="-1449.4" font-family="Arial" font-size="14.00" fill="#666666">[TEXT]</text>
<polygon fill="none" stroke="black" points="381.96,-1406.4 381.96,-1437.2 628.65,-1437.2 628.65,-1406.4 381.96,-1406.4"/>
<text text-anchor="start" x="388.96" y="-1418.6" font-family="Arial" font-size="14.00">updated_at </text>
<text text-anchor="start" x="462.91" y="-1418.6" font-family="Arial" font-size="14.00" fill="#666666">[TIMESTAMPTZ]</text>
<polygon fill="none" stroke="black" points="381.96,-1375.6 381.96,-1406.4 628.65,-1406.4 628.65,-1375.6 381.96,-1375.6"/>
<text text-anchor="start" x="388.96" y="-1387.8" font-family="Arial" font-size="14.00">updated_by </text>
<text text-anchor="start" x="466.02" y="-1387.8" font-family="Arial" font-size="14.00" fill="#666666">[TEXT]</text>
<polygon fill="none" stroke="black" points="381.96,-1344.8 381.96,-1375.6 628.65,-1375.6 628.65,-1344.8 381.96,-1344.8"/>
<text text-anchor="start" x="388.96" y="-1357" font-family="Arial" font-size="14.00">deleted_at </text>
<text text-anchor="start" x="458.24" y="-1357" font-family="Arial" font-size="14.00" fill="#666666">[TIMESTAMPTZ]</text>
<polygon fill="none" stroke="black" points="381.96,-1314 381.96,-1344.8 628.65,-1344.8 628.65,-1314 381.96,-1314"/>
<text text-anchor="start" x="388.96" y="-1326.2" font-family="Arial" font-size="14.00">deleted_by </text>
<text text-anchor="start" x="461.35" y="-1326.2" font-family="Arial" font-size="14.00" fill="#666666">[TEXT]</text>
<polygon fill="none" stroke="black" points="381.96,-1283.2 381.96,-1314 628.65,-1314 628.65,-1283.2 381.96,-1283.2"/>
<text text-anchor="start" x="388.96" y="-1295.4" font-family="Arial" font-size="14.00">activity_log </text>
<text text-anchor="start" x="462.1" y="-1295.4" font-family="Arial" font-size="14.00" fill="#666666">[TEXT]</text>
</g>
<!-- code_notebook_state&#45;&gt;code_notebook_cell -->
<g id="edge2" class="edge">
<title>code_notebook_state:code_notebook_cell_id&#45;&gt;code_notebook_cell:code_notebook_cell_id</title>
<path fill="none" stroke="black" d="M639.08,-1694.6C694.49,-1640.68 687.12,-1109.8 624.98,-1109.8"/>
<polygon fill="black" stroke="black" points="639.01,-1694.63 628.05,-1694.78 634.18,-1696.88 630.26,-1698.72 630.26,-1698.72 630.26,-1698.72 634.18,-1696.88 631.86,-1702.94 639.01,-1694.63"/>
</g>
</g>
</svg>
