<?xml version="1.0" encoding="UTF-8" standalone="no"?>
<!DOCTYPE svg PUBLIC "-//W3C//DTD SVG 1.1//EN"
 "http://www.w3.org/Graphics/SVG/1.1/DTD/svg11.dtd">
<!-- Generated by graphviz version 12.1.2 (20240928.0832)
 -->
<!-- Title: orchestration_session_state Pages: 1 -->
<svg width="1166pt" height="1959pt"
 viewBox="0.00 0.00 1165.58 1959.20" xmlns="http://www.w3.org/2000/svg" xmlns:xlink="http://www.w3.org/1999/xlink">
<g id="graph0" class="graph" transform="scale(1 1) rotate(0) translate(4 1955.2)">
<title>orchestration_session_state</title>
<polygon fill="white" stroke="none" points="-4,4 -4,-1955.2 1161.58,-1955.2 1161.58,4 -4,4"/>
<!-- orchestration_session_state -->
<g id="node1" class="node">
<title>orchestration_session_state</title>
<polygon fill="#efefef" stroke="none" points="46.2,-1780 46.2,-1815.6 333.33,-1815.6 333.33,-1780 46.2,-1780"/>
<polygon fill="none" stroke="black" points="46.2,-1780 46.2,-1815.6 333.33,-1815.6 333.33,-1780 46.2,-1780"/>
<text text-anchor="start" x="56.66" y="-1793.4" font-family="Arial Bold" font-size="18.00">orchestration_session_state</text>
<text text-anchor="start" x="253.61" y="-1793.4" font-family="Arial" font-size="14.00">    </text>
<text text-anchor="start" x="284.73" y="-1793.4" font-family="Arial" font-size="14.00" fill="#666666">[table]</text>
<polygon fill="none" stroke="black" points="46.2,-1749.2 46.2,-1780 333.33,-1780 333.33,-1749.2 46.2,-1749.2"/>
<text text-anchor="start" x="53.2" y="-1761.4" font-family="Arial" font-size="14.00">orchestration_session_state_id </text>
<text text-anchor="start" x="250.1" y="-1761.4" font-family="Arial" font-size="14.00" fill="#666666">[VARCHAR]</text>
<polygon fill="none" stroke="black" points="46.2,-1718.4 46.2,-1749.2 333.33,-1749.2 333.33,-1718.4 46.2,-1718.4"/>
<text text-anchor="start" x="53.2" y="-1730.6" font-family="Arial" font-size="14.00">session_id </text>
<text text-anchor="start" x="123.24" y="-1730.6" font-family="Arial" font-size="14.00" fill="#666666">[VARCHAR]</text>
<polygon fill="none" stroke="black" points="46.2,-1687.6 46.2,-1718.4 333.33,-1718.4 333.33,-1687.6 46.2,-1687.6"/>
<text text-anchor="start" x="53.2" y="-1699.8" font-family="Arial" font-size="14.00">session_entry_id </text>
<text text-anchor="start" x="162.15" y="-1699.8" font-family="Arial" font-size="14.00" fill="#666666">[VARCHAR]</text>
<polygon fill="none" stroke="black" points="46.2,-1656.8 46.2,-1687.6 333.33,-1687.6 333.33,-1656.8 46.2,-1656.8"/>
<text text-anchor="start" x="53.2" y="-1669" font-family="Arial" font-size="14.00">from_state </text>
<text text-anchor="start" x="123.23" y="-1669" font-family="Arial" font-size="14.00" fill="#666666">[TEXT]</text>
<polygon fill="none" stroke="black" points="46.2,-1626 46.2,-1656.8 333.33,-1656.8 333.33,-1626 46.2,-1626"/>
<text text-anchor="start" x="53.2" y="-1638.2" font-family="Arial" font-size="14.00">to_state </text>
<text text-anchor="start" x="106.9" y="-1638.2" font-family="Arial" font-size="14.00" fill="#666666">[TEXT]</text>
<polygon fill="none" stroke="black" points="46.2,-1595.2 46.2,-1626 333.33,-1626 333.33,-1595.2 46.2,-1595.2"/>
<text text-anchor="start" x="53.2" y="-1607.4" font-family="Arial" font-size="14.00">transition_result </text>
<text text-anchor="start" x="155.92" y="-1607.4" font-family="Arial" font-size="14.00" fill="#666666">[TEXT]</text>
<polygon fill="none" stroke="black" points="46.2,-1564.4 46.2,-1595.2 333.33,-1595.2 333.33,-1564.4 46.2,-1564.4"/>
<text text-anchor="start" x="53.2" y="-1576.6" font-family="Arial" font-size="14.00">transition_reason </text>
<text text-anchor="start" x="164.49" y="-1576.6" font-family="Arial" font-size="14.00" fill="#666666">[TEXT]</text>
<polygon fill="none" stroke="black" points="46.2,-1533.6 46.2,-1564.4 333.33,-1564.4 333.33,-1533.6 46.2,-1533.6"/>
<text text-anchor="start" x="53.2" y="-1545.8" font-family="Arial" font-size="14.00">transitioned_at </text>
<text text-anchor="start" x="148.93" y="-1545.8" font-family="Arial" font-size="14.00" fill="#666666">[TIMESTAMPTZ]</text>
<polygon fill="none" stroke="black" points="46.2,-1502.8 46.2,-1533.6 333.33,-1533.6 333.33,-1502.8 46.2,-1502.8"/>
<text text-anchor="start" x="53.2" y="-1515" font-family="Arial" font-size="14.00">elaboration </text>
<text text-anchor="start" x="126.37" y="-1515" font-family="Arial" font-size="14.00" fill="#666666">[TEXT]</text>
<polygon fill="none" stroke="black" stroke-width="3" points="44.7,-1501.3 44.7,-1817.1 334.83,-1817.1 334.83,-1501.3 44.7,-1501.3"/>
</g>
<!-- orchestration_session -->
<g id="node2" class="node">
<title>orchestration_session</title>
<polygon fill="#efefef" stroke="none" points="521.27,-940.4 521.27,-976 770.26,-976 770.26,-940.4 521.27,-940.4"/>
<polygon fill="none" stroke="black" points="521.27,-940.4 521.27,-976 770.26,-976 770.26,-940.4 521.27,-940.4"/>
<text text-anchor="start" x="533.65" y="-953.8" font-family="Arial Bold" font-size="18.00">orchestration_session</text>
<text text-anchor="start" x="688.62" y="-953.8" font-family="Arial" font-size="14.00">    </text>
<text text-anchor="start" x="719.74" y="-953.8" font-family="Arial" font-size="14.00" fill="#666666">[table]</text>
<polygon fill="none" stroke="black" points="521.27,-909.6 521.27,-940.4 770.26,-940.4 770.26,-909.6 521.27,-909.6"/>
<text text-anchor="start" x="528.27" y="-921.8" font-family="Arial" font-size="14.00">orchestration_session_id </text>
<text text-anchor="start" x="687.03" y="-921.8" font-family="Arial" font-size="14.00" fill="#666666">[VARCHAR]</text>
<polygon fill="none" stroke="black" points="521.27,-878.8 521.27,-909.6 770.26,-909.6 770.26,-878.8 521.27,-878.8"/>
<text text-anchor="start" x="528.27" y="-891" font-family="Arial" font-size="14.00">device_id </text>
<text text-anchor="start" x="591.31" y="-891" font-family="Arial" font-size="14.00" fill="#666666">[VARCHAR]</text>
<polygon fill="none" stroke="black" points="521.27,-848 521.27,-878.8 770.26,-878.8 770.26,-848 521.27,-848"/>
<text text-anchor="start" x="528.27" y="-860.2" font-family="Arial" font-size="14.00">orchestration_nature_id </text>
<text text-anchor="start" x="679.25" y="-860.2" font-family="Arial" font-size="14.00" fill="#666666">[TEXT]</text>
<polygon fill="none" stroke="black" points="521.27,-817.2 521.27,-848 770.26,-848 770.26,-817.2 521.27,-817.2"/>
<text text-anchor="start" x="528.27" y="-829.4" font-family="Arial" font-size="14.00">version </text>
<text text-anchor="start" x="577.29" y="-829.4" font-family="Arial" font-size="14.00" fill="#666666">[TEXT]</text>
<polygon fill="none" stroke="black" points="521.27,-786.4 521.27,-817.2 770.26,-817.2 770.26,-786.4 521.27,-786.4"/>
<text text-anchor="start" x="528.27" y="-798.6" font-family="Arial" font-size="14.00">orch_started_at </text>
<text text-anchor="start" x="629.44" y="-798.6" font-family="Arial" font-size="14.00" fill="#666666">[TIMESTAMPTZ]</text>
<polygon fill="none" stroke="black" points="521.27,-755.6 521.27,-786.4 770.26,-786.4 770.26,-755.6 521.27,-755.6"/>
<text text-anchor="start" x="528.27" y="-767.8" font-family="Arial" font-size="14.00">orch_finished_at </text>
<text text-anchor="start" x="634.9" y="-767.8" font-family="Arial" font-size="14.00" fill="#666666">[TIMESTAMPTZ]</text>
<polygon fill="none" stroke="black" points="521.27,-724.8 521.27,-755.6 770.26,-755.6 770.26,-724.8 521.27,-724.8"/>
<text text-anchor="start" x="528.27" y="-737" font-family="Arial" font-size="14.00">elaboration </text>
<text text-anchor="start" x="601.43" y="-737" font-family="Arial" font-size="14.00" fill="#666666">[TEXT]</text>
<polygon fill="none" stroke="black" points="521.27,-694 521.27,-724.8 770.26,-724.8 770.26,-694 521.27,-694"/>
<text text-anchor="start" x="528.27" y="-706.2" font-family="Arial" font-size="14.00">args_json </text>
<text text-anchor="start" x="592.86" y="-706.2" font-family="Arial" font-size="14.00" fill="#666666">[TEXT]</text>
<polygon fill="none" stroke="black" points="521.27,-663.2 521.27,-694 770.26,-694 770.26,-663.2 521.27,-663.2"/>
<text text-anchor="start" x="528.27" y="-675.4" font-family="Arial" font-size="14.00">diagnostics_json </text>
<text text-anchor="start" x="635.67" y="-675.4" font-family="Arial" font-size="14.00" fill="#666666">[TEXT]</text>
<polygon fill="none" stroke="black" points="521.27,-632.4 521.27,-663.2 770.26,-663.2 770.26,-632.4 521.27,-632.4"/>
<text text-anchor="start" x="528.27" y="-644.6" font-family="Arial" font-size="14.00">diagnostics_md </text>
<text text-anchor="start" x="629.43" y="-644.6" font-family="Arial" font-size="14.00" fill="#666666">[TEXT]</text>
</g>
<!-- orchestration_session_state&#45;&gt;orchestration_session -->
<g id="edge1" class="edge">
<title>orchestration_session_state:session_id&#45;&gt;orchestration_session:orchestration_session_id</title>
<path fill="none" stroke="black" d="M337.81,-1724.18C350.61,-1642.71 334.76,-1070.77 342.76,-1055.2 387.53,-968.2 422.43,-925 520.27,-925"/>
<polygon fill="black" stroke="black" points="337.84,-1724.08 330.21,-1731.96 336.03,-1729.1 334.56,-1733.17 334.56,-1733.17 334.56,-1733.17 336.03,-1729.1 338.68,-1735.02 337.84,-1724.08"/>
</g>
<!-- orchestration_session_entry -->
<g id="node3" class="node">
<title>orchestration_session_entry</title>
<polygon fill="#efefef" stroke="none" points="394.81,-1252.4 394.81,-1288 682.72,-1288 682.72,-1252.4 394.81,-1252.4"/>
<polygon fill="none" stroke="black" points="394.81,-1252.4 394.81,-1288 682.72,-1288 682.72,-1252.4 394.81,-1252.4"/>
<text text-anchor="start" x="403.66" y="-1265.8" font-family="Arial Bold" font-size="18.00">orchestration_session_entry</text>
<text text-anchor="start" x="604.61" y="-1265.8" font-family="Arial" font-size="14.00">    </text>
<text text-anchor="start" x="635.73" y="-1265.8" font-family="Arial" font-size="14.00" fill="#666666">[table]</text>
<polygon fill="none" stroke="black" points="394.81,-1221.6 394.81,-1252.4 682.72,-1252.4 682.72,-1221.6 394.81,-1221.6"/>
<text text-anchor="start" x="401.81" y="-1233.8" font-family="Arial" font-size="14.00">orchestration_session_entry_id </text>
<text text-anchor="start" x="599.48" y="-1233.8" font-family="Arial" font-size="14.00" fill="#666666">[VARCHAR]</text>
<polygon fill="none" stroke="black" points="394.81,-1190.8 394.81,-1221.6 682.72,-1221.6 682.72,-1190.8 394.81,-1190.8"/>
<text text-anchor="start" x="401.81" y="-1203" font-family="Arial" font-size="14.00">session_id </text>
<text text-anchor="start" x="471.85" y="-1203" font-family="Arial" font-size="14.00" fill="#666666">[VARCHAR]</text>
<polygon fill="none" stroke="black" points="394.81,-1160 394.81,-1190.8 682.72,-1190.8 682.72,-1160 394.81,-1160"/>
<text text-anchor="start" x="401.81" y="-1172.2" font-family="Arial" font-size="14.00">ingest_src </text>
<text text-anchor="start" x="469.51" y="-1172.2" font-family="Arial" font-size="14.00" fill="#666666">[TEXT]</text>
<polygon fill="none" stroke="black" points="394.81,-1129.2 394.81,-1160 682.72,-1160 682.72,-1129.2 394.81,-1129.2"/>
<text text-anchor="start" x="401.81" y="-1141.4" font-family="Arial" font-size="14.00">ingest_table_name </text>
<text text-anchor="start" x="524.01" y="-1141.4" font-family="Arial" font-size="14.00" fill="#666666">[TEXT]</text>
<polygon fill="none" stroke="black" points="394.81,-1098.4 394.81,-1129.2 682.72,-1129.2 682.72,-1098.4 394.81,-1098.4"/>
<text text-anchor="start" x="401.81" y="-1110.6" font-family="Arial" font-size="14.00">elaboration </text>
<text text-anchor="start" x="474.98" y="-1110.6" font-family="Arial" font-size="14.00" fill="#666666">[TEXT]</text>
</g>
<!-- orchestration_session_state&#45;&gt;orchestration_session_entry -->
<g id="edge7" class="edge">
<title>orchestration_session_state:session_entry_id&#45;&gt;orchestration_session_entry:orchestration_session_entry_id</title>
<path fill="none" stroke="black" d="M344.42,-1701.31C428.54,-1670.81 293.09,-1237 393.81,-1237"/>
<polygon fill="black" stroke="black" points="344.52,-1701.3 333.92,-1698.51 339.26,-1702.18 334.99,-1702.89 334.99,-1702.89 334.99,-1702.89 339.26,-1702.18 335.4,-1707.38 344.52,-1701.3"/>
</g>
<!-- device -->
<g id="node6" class="node">
<title>device</title>
<polygon fill="#efefef" stroke="none" points="390.51,-474.4 390.51,-510 585.02,-510 585.02,-474.4 390.51,-474.4"/>
<polygon fill="none" stroke="black" points="390.51,-474.4 390.51,-510 585.02,-510 585.02,-474.4 390.51,-474.4"/>
<text text-anchor="start" x="429.65" y="-487.8" font-family="Arial Bold" font-size="18.00">device</text>
<text text-anchor="start" x="476.62" y="-487.8" font-family="Arial" font-size="14.00">    </text>
<text text-anchor="start" x="507.74" y="-487.8" font-family="Arial" font-size="14.00" fill="#666666">[table]</text>
<polygon fill="none" stroke="black" points="390.51,-443.6 390.51,-474.4 585.02,-474.4 585.02,-443.6 390.51,-443.6"/>
<text text-anchor="start" x="397.51" y="-455.8" font-family="Arial" font-size="14.00">device_id </text>
<text text-anchor="start" x="460.55" y="-455.8" font-family="Arial" font-size="14.00" fill="#666666">[VARCHAR]</text>
<polygon fill="none" stroke="black" points="390.51,-412.8 390.51,-443.6 585.02,-443.6 585.02,-412.8 390.51,-412.8"/>
<text text-anchor="start" x="397.51" y="-425" font-family="Arial" font-size="14.00">name </text>
<text text-anchor="start" x="436.42" y="-425" font-family="Arial" font-size="14.00" fill="#666666">[TEXT]</text>
<polygon fill="none" stroke="black" points="390.51,-382 390.51,-412.8 585.02,-412.8 585.02,-382 390.51,-382"/>
<text text-anchor="start" x="397.51" y="-394.2" font-family="Arial" font-size="14.00">state </text>
<text text-anchor="start" x="431.75" y="-394.2" font-family="Arial" font-size="14.00" fill="#666666">[TEXT]</text>
<polygon fill="none" stroke="black" points="390.51,-351.2 390.51,-382 585.02,-382 585.02,-351.2 390.51,-351.2"/>
<text text-anchor="start" x="397.51" y="-363.4" font-family="Arial" font-size="14.00">boundary </text>
<text text-anchor="start" x="459.78" y="-363.4" font-family="Arial" font-size="14.00" fill="#666666">[TEXT]</text>
<polygon fill="none" stroke="black" points="390.51,-320.4 390.51,-351.2 585.02,-351.2 585.02,-320.4 390.51,-320.4"/>
<text text-anchor="start" x="397.51" y="-332.6" font-family="Arial" font-size="14.00">segmentation </text>
<text text-anchor="start" x="485.45" y="-332.6" font-family="Arial" font-size="14.00" fill="#666666">[TEXT]</text>
<polygon fill="none" stroke="black" points="390.51,-289.6 390.51,-320.4 585.02,-320.4 585.02,-289.6 390.51,-289.6"/>
<text text-anchor="start" x="397.51" y="-301.8" font-family="Arial" font-size="14.00">state_sysinfo </text>
<text text-anchor="start" x="483.11" y="-301.8" font-family="Arial" font-size="14.00" fill="#666666">[TEXT]</text>
<polygon fill="none" stroke="black" points="390.51,-258.8 390.51,-289.6 585.02,-289.6 585.02,-258.8 390.51,-258.8"/>
<text text-anchor="start" x="397.51" y="-271" font-family="Arial" font-size="14.00">elaboration </text>
<text text-anchor="start" x="470.68" y="-271" font-family="Arial" font-size="14.00" fill="#666666">[TEXT]</text>
<polygon fill="none" stroke="black" points="390.51,-228 390.51,-258.8 585.02,-258.8 585.02,-228 390.51,-228"/>
<text text-anchor="start" x="397.51" y="-240.2" font-family="Arial" font-size="14.00">created_at </text>
<text text-anchor="start" x="467.56" y="-240.2" font-family="Arial" font-size="14.00" fill="#666666">[TIMESTAMPTZ]</text>
<polygon fill="none" stroke="black" points="390.51,-197.2 390.51,-228 585.02,-228 585.02,-197.2 390.51,-197.2"/>
<text text-anchor="start" x="397.51" y="-209.4" font-family="Arial" font-size="14.00">created_by </text>
<text text-anchor="start" x="470.67" y="-209.4" font-family="Arial" font-size="14.00" fill="#666666">[TEXT]</text>
<polygon fill="none" stroke="black" points="390.51,-166.4 390.51,-197.2 585.02,-197.2 585.02,-166.4 390.51,-166.4"/>
<text text-anchor="start" x="397.51" y="-178.6" font-family="Arial" font-size="14.00">updated_at </text>
<text text-anchor="start" x="471.47" y="-178.6" font-family="Arial" font-size="14.00" fill="#666666">[TIMESTAMPTZ]</text>
<polygon fill="none" stroke="black" points="390.51,-135.6 390.51,-166.4 585.02,-166.4 585.02,-135.6 390.51,-135.6"/>
<text text-anchor="start" x="397.51" y="-147.8" font-family="Arial" font-size="14.00">updated_by </text>
<text text-anchor="start" x="474.58" y="-147.8" font-family="Arial" font-size="14.00" fill="#666666">[TEXT]</text>
<polygon fill="none" stroke="black" points="390.51,-104.8 390.51,-135.6 585.02,-135.6 585.02,-104.8 390.51,-104.8"/>
<text text-anchor="start" x="397.51" y="-117" font-family="Arial" font-size="14.00">deleted_at </text>
<text text-anchor="start" x="466.79" y="-117" font-family="Arial" font-size="14.00" fill="#666666">[TIMESTAMPTZ]</text>
<polygon fill="none" stroke="black" points="390.51,-74 390.51,-104.8 585.02,-104.8 585.02,-74 390.51,-74"/>
<text text-anchor="start" x="397.51" y="-86.2" font-family="Arial" font-size="14.00">deleted_by </text>
<text text-anchor="start" x="469.9" y="-86.2" font-family="Arial" font-size="14.00" fill="#666666">[TEXT]</text>
<polygon fill="none" stroke="black" points="390.51,-43.2 390.51,-74 585.02,-74 585.02,-43.2 390.51,-43.2"/>
<text text-anchor="start" x="397.51" y="-55.4" font-family="Arial" font-size="14.00">activity_log </text>
<text text-anchor="start" x="470.65" y="-55.4" font-family="Arial" font-size="14.00" fill="#666666">[TEXT]</text>
</g>
<!-- orchestration_session&#45;&gt;device -->
<g id="edge5" class="edge">
<title>orchestration_session:device_id&#45;&gt;device:device_id</title>
<path fill="none" stroke="black" d="M509.97,-893.81C388.3,-884.33 454.55,-703.07 521.27,-589.2 537.72,-561.13 568.47,-581.21 585.02,-553.2 606.32,-517.15 627.89,-459 586.02,-459"/>
<polygon fill="black" stroke="black" points="509.94,-893.81 519.77,-898.68 515.27,-894.01 519.6,-894.17 519.6,-894.17 519.6,-894.17 515.27,-894.01 520.1,-889.69 509.94,-893.81"/>
</g>
<!-- orchestration_nature -->
<g id="node7" class="node">
<title>orchestration_nature</title>
<polygon fill="#efefef" stroke="none" points="689.17,-412.8 689.17,-448.4 920.36,-448.4 920.36,-412.8 689.17,-412.8"/>
<polygon fill="none" stroke="black" points="689.17,-412.8 689.17,-448.4 920.36,-448.4 920.36,-412.8 689.17,-412.8"/>
<text text-anchor="start" x="696.17" y="-426.2" font-family="Arial Bold" font-size="18.00">orchestration_nature</text>
<text text-anchor="start" x="844.11" y="-426.2" font-family="Arial" font-size="14.00">    </text>
<text text-anchor="start" x="875.22" y="-426.2" font-family="Arial" font-size="14.00" fill="#666666">[table]</text>
<polygon fill="none" stroke="black" points="689.17,-382 689.17,-412.8 920.36,-412.8 920.36,-382 689.17,-382"/>
<text text-anchor="start" x="696.17" y="-394.2" font-family="Arial" font-size="14.00">orchestration_nature_id </text>
<text text-anchor="start" x="847.15" y="-394.2" font-family="Arial" font-size="14.00" fill="#666666">[TEXT]</text>
<polygon fill="none" stroke="black" points="689.17,-351.2 689.17,-382 920.36,-382 920.36,-351.2 689.17,-351.2"/>
<text text-anchor="start" x="696.17" y="-363.4" font-family="Arial" font-size="14.00">nature </text>
<text text-anchor="start" x="739.75" y="-363.4" font-family="Arial" font-size="14.00" fill="#666666">[TEXT]</text>
<polygon fill="none" stroke="black" points="689.17,-320.4 689.17,-351.2 920.36,-351.2 920.36,-320.4 689.17,-320.4"/>
<text text-anchor="start" x="696.17" y="-332.6" font-family="Arial" font-size="14.00">elaboration </text>
<text text-anchor="start" x="769.33" y="-332.6" font-family="Arial" font-size="14.00" fill="#666666">[TEXT]</text>
<polygon fill="none" stroke="black" points="689.17,-289.6 689.17,-320.4 920.36,-320.4 920.36,-289.6 689.17,-289.6"/>
<text text-anchor="start" x="696.17" y="-301.8" font-family="Arial" font-size="14.00">created_at </text>
<text text-anchor="start" x="766.22" y="-301.8" font-family="Arial" font-size="14.00" fill="#666666">[TIMESTAMPTZ]</text>
<polygon fill="none" stroke="black" points="689.17,-258.8 689.17,-289.6 920.36,-289.6 920.36,-258.8 689.17,-258.8"/>
<text text-anchor="start" x="696.17" y="-271" font-family="Arial" font-size="14.00">created_by </text>
<text text-anchor="start" x="769.33" y="-271" font-family="Arial" font-size="14.00" fill="#666666">[TEXT]</text>
<polygon fill="none" stroke="black" points="689.17,-228 689.17,-258.8 920.36,-258.8 920.36,-228 689.17,-228"/>
<text text-anchor="start" x="696.17" y="-240.2" font-family="Arial" font-size="14.00">updated_at </text>
<text text-anchor="start" x="770.13" y="-240.2" font-family="Arial" font-size="14.00" fill="#666666">[TIMESTAMPTZ]</text>
<polygon fill="none" stroke="black" points="689.17,-197.2 689.17,-228 920.36,-228 920.36,-197.2 689.17,-197.2"/>
<text text-anchor="start" x="696.17" y="-209.4" font-family="Arial" font-size="14.00">updated_by </text>
<text text-anchor="start" x="773.24" y="-209.4" font-family="Arial" font-size="14.00" fill="#666666">[TEXT]</text>
<polygon fill="none" stroke="black" points="689.17,-166.4 689.17,-197.2 920.36,-197.2 920.36,-166.4 689.17,-166.4"/>
<text text-anchor="start" x="696.17" y="-178.6" font-family="Arial" font-size="14.00">deleted_at </text>
<text text-anchor="start" x="765.45" y="-178.6" font-family="Arial" font-size="14.00" fill="#666666">[TIMESTAMPTZ]</text>
<polygon fill="none" stroke="black" points="689.17,-135.6 689.17,-166.4 920.36,-166.4 920.36,-135.6 689.17,-135.6"/>
<text text-anchor="start" x="696.17" y="-147.8" font-family="Arial" font-size="14.00">deleted_by </text>
<text text-anchor="start" x="768.56" y="-147.8" font-family="Arial" font-size="14.00" fill="#666666">[TEXT]</text>
<polygon fill="none" stroke="black" points="689.17,-104.8 689.17,-135.6 920.36,-135.6 920.36,-104.8 689.17,-104.8"/>
<text text-anchor="start" x="696.17" y="-117" font-family="Arial" font-size="14.00">activity_log </text>
<text text-anchor="start" x="769.31" y="-117" font-family="Arial" font-size="14.00" fill="#666666">[TEXT]</text>
</g>
<!-- orchestration_session&#45;&gt;orchestration_nature -->
<g id="edge6" class="edge">
<title>orchestration_session:orchestration_nature_id&#45;&gt;orchestration_nature:orchestration_nature_id</title>
<path fill="none" stroke="black" d="M781.46,-862.99C888.4,-854.08 810.65,-700.39 770.26,-589.2 751,-536.19 708.61,-544.54 689.17,-491.6 674.74,-452.3 646.3,-397.4 688.17,-397.4"/>
<polygon fill="black" stroke="black" points="781.59,-862.99 771.42,-858.89 776.26,-863.2 771.93,-863.37 771.93,-863.37 771.93,-863.37 776.26,-863.2 771.77,-867.88 781.59,-862.99"/>
</g>
<!-- orchestration_session_entry&#45;&gt;orchestration_session -->
<g id="edge2" class="edge">
<title>orchestration_session_entry:session_id&#45;&gt;orchestration_session:orchestration_session_id</title>
<path fill="none" stroke="black" d="M693.9,-1205.34C747.94,-1195.54 722.56,-1104.57 682.72,-1055.2 636.55,-997.99 567.55,-1076.32 521.27,-1019.2 494.91,-986.67 478.4,-925 520.27,-925"/>
<polygon fill="black" stroke="black" points="694.01,-1205.33 683.67,-1201.69 688.7,-1205.78 684.38,-1206.14 684.38,-1206.14 684.38,-1206.14 688.7,-1205.78 684.43,-1210.66 694.01,-1205.33"/>
</g>
<!-- orchestration_session_exec -->
<g id="node4" class="node">
<title>orchestration_session_exec</title>
<polygon fill="#efefef" stroke="none" points="440.59,-1872.4 440.59,-1908 726.94,-1908 726.94,-1872.4 440.59,-1872.4"/>
<polygon fill="none" stroke="black" points="440.59,-1872.4 440.59,-1908 726.94,-1908 726.94,-1872.4 440.59,-1872.4"/>
<text text-anchor="start" x="450.67" y="-1885.8" font-family="Arial Bold" font-size="18.00">orchestration_session_exec</text>
<text text-anchor="start" x="647.61" y="-1885.8" font-family="Arial" font-size="14.00">    </text>
<text text-anchor="start" x="678.72" y="-1885.8" font-family="Arial" font-size="14.00" fill="#666666">[table]</text>
<polygon fill="none" stroke="black" points="440.59,-1841.6 440.59,-1872.4 726.94,-1872.4 726.94,-1841.6 440.59,-1841.6"/>
<text text-anchor="start" x="447.59" y="-1853.8" font-family="Arial" font-size="14.00">orchestration_session_exec_id </text>
<text text-anchor="start" x="643.71" y="-1853.8" font-family="Arial" font-size="14.00" fill="#666666">[VARCHAR]</text>
<polygon fill="none" stroke="black" points="440.59,-1810.8 440.59,-1841.6 726.94,-1841.6 726.94,-1810.8 440.59,-1810.8"/>
<text text-anchor="start" x="447.59" y="-1823" font-family="Arial" font-size="14.00">exec_nature </text>
<text text-anchor="start" x="528.53" y="-1823" font-family="Arial" font-size="14.00" fill="#666666">[TEXT]</text>
<polygon fill="none" stroke="black" points="440.59,-1780 440.59,-1810.8 726.94,-1810.8 726.94,-1780 440.59,-1780"/>
<text text-anchor="start" x="447.59" y="-1792.2" font-family="Arial" font-size="14.00">session_id </text>
<text text-anchor="start" x="517.63" y="-1792.2" font-family="Arial" font-size="14.00" fill="#666666">[VARCHAR]</text>
<polygon fill="none" stroke="black" points="440.59,-1749.2 440.59,-1780 726.94,-1780 726.94,-1749.2 440.59,-1749.2"/>
<text text-anchor="start" x="447.59" y="-1761.4" font-family="Arial" font-size="14.00">session_entry_id </text>
<text text-anchor="start" x="556.54" y="-1761.4" font-family="Arial" font-size="14.00" fill="#666666">[VARCHAR]</text>
<polygon fill="none" stroke="black" points="440.59,-1718.4 440.59,-1749.2 726.94,-1749.2 726.94,-1718.4 440.59,-1718.4"/>
<text text-anchor="start" x="447.59" y="-1730.6" font-family="Arial" font-size="14.00">parent_exec_id </text>
<text text-anchor="start" x="547.22" y="-1730.6" font-family="Arial" font-size="14.00" fill="#666666">[VARCHAR]</text>
<polygon fill="none" stroke="black" points="440.59,-1687.6 440.59,-1718.4 726.94,-1718.4 726.94,-1687.6 440.59,-1687.6"/>
<text text-anchor="start" x="447.59" y="-1699.8" font-family="Arial" font-size="14.00">namespace </text>
<text text-anchor="start" x="523.86" y="-1699.8" font-family="Arial" font-size="14.00" fill="#666666">[TEXT]</text>
<polygon fill="none" stroke="black" points="440.59,-1656.8 440.59,-1687.6 726.94,-1687.6 726.94,-1656.8 440.59,-1656.8"/>
<text text-anchor="start" x="447.59" y="-1669" font-family="Arial" font-size="14.00">exec_identity </text>
<text text-anchor="start" x="533.2" y="-1669" font-family="Arial" font-size="14.00" fill="#666666">[TEXT]</text>
<polygon fill="none" stroke="black" points="440.59,-1626 440.59,-1656.8 726.94,-1656.8 726.94,-1626 440.59,-1626"/>
<text text-anchor="start" x="447.59" y="-1638.2" font-family="Arial" font-size="14.00">exec_code </text>
<text text-anchor="start" x="519.2" y="-1638.2" font-family="Arial" font-size="14.00" fill="#666666">[TEXT]</text>
<polygon fill="none" stroke="black" points="440.59,-1595.2 440.59,-1626 726.94,-1626 726.94,-1595.2 440.59,-1595.2"/>
<text text-anchor="start" x="447.59" y="-1607.4" font-family="Arial" font-size="14.00">exec_status </text>
<text text-anchor="start" x="526.19" y="-1607.4" font-family="Arial" font-size="14.00" fill="#666666">[INTEGER]</text>
<polygon fill="none" stroke="black" points="440.59,-1564.4 440.59,-1595.2 726.94,-1595.2 726.94,-1564.4 440.59,-1564.4"/>
<text text-anchor="start" x="447.59" y="-1576.6" font-family="Arial" font-size="14.00">input_text </text>
<text text-anchor="start" x="512.19" y="-1576.6" font-family="Arial" font-size="14.00" fill="#666666">[TEXT]</text>
<polygon fill="none" stroke="black" points="440.59,-1533.6 440.59,-1564.4 726.94,-1564.4 726.94,-1533.6 440.59,-1533.6"/>
<text text-anchor="start" x="447.59" y="-1545.8" font-family="Arial" font-size="14.00">exec_error_text </text>
<text text-anchor="start" x="548.75" y="-1545.8" font-family="Arial" font-size="14.00" fill="#666666">[TEXT]</text>
<polygon fill="none" stroke="black" points="440.59,-1502.8 440.59,-1533.6 726.94,-1533.6 726.94,-1502.8 440.59,-1502.8"/>
<text text-anchor="start" x="447.59" y="-1515" font-family="Arial" font-size="14.00">output_text </text>
<text text-anchor="start" x="520.75" y="-1515" font-family="Arial" font-size="14.00" fill="#666666">[TEXT]</text>
<polygon fill="none" stroke="black" points="440.59,-1472 440.59,-1502.8 726.94,-1502.8 726.94,-1472 440.59,-1472"/>
<text text-anchor="start" x="447.59" y="-1484.2" font-family="Arial" font-size="14.00">output_nature </text>
<text text-anchor="start" x="537.89" y="-1484.2" font-family="Arial" font-size="14.00" fill="#666666">[TEXT]</text>
<polygon fill="none" stroke="black" points="440.59,-1441.2 440.59,-1472 726.94,-1472 726.94,-1441.2 440.59,-1441.2"/>
<text text-anchor="start" x="447.59" y="-1453.4" font-family="Arial" font-size="14.00">narrative_md </text>
<text text-anchor="start" x="533.18" y="-1453.4" font-family="Arial" font-size="14.00" fill="#666666">[TEXT]</text>
<polygon fill="none" stroke="black" points="440.59,-1410.4 440.59,-1441.2 726.94,-1441.2 726.94,-1410.4 440.59,-1410.4"/>
<text text-anchor="start" x="447.59" y="-1422.6" font-family="Arial" font-size="14.00">elaboration </text>
<text text-anchor="start" x="520.75" y="-1422.6" font-family="Arial" font-size="14.00" fill="#666666">[TEXT]</text>
</g>
<!-- orchestration_session_exec&#45;&gt;orchestration_session -->
<g id="edge3" class="edge">
<title>orchestration_session_exec:session_id&#45;&gt;orchestration_session:orchestration_session_id</title>
<path fill="none" stroke="black" d="M732.53,-1786.21C757.15,-1693.19 794,-925 771.26,-925"/>
<polygon fill="black" stroke="black" points="732.56,-1786.15 724.06,-1793.09 730.17,-1790.93 728.24,-1794.8 728.24,-1794.8 728.24,-1794.8 730.17,-1790.93 732.12,-1797.11 732.56,-1786.15"/>
</g>
<!-- orchestration_session_exec&#45;&gt;orchestration_session_entry -->
<g id="edge8" class="edge">
<title>orchestration_session_exec:session_entry_id&#45;&gt;orchestration_session_entry:orchestration_session_entry_id</title>
<path fill="none" stroke="black" d="M430.95,-1759.16C397.85,-1713.72 413.8,-1398.19 440.59,-1367.2 511.74,-1284.9 611.23,-1413.21 682.72,-1331.2 710.23,-1299.64 725.59,-1237 683.72,-1237"/>
<polygon fill="black" stroke="black" points="430.84,-1759.1 436.91,-1768.23 435.36,-1761.94 439.02,-1764.24 439.02,-1764.24 439.02,-1764.24 435.36,-1761.94 441.7,-1760.61 430.84,-1759.1"/>
</g>
<!-- orchestration_session_issue -->
<g id="node5" class="node">
<title>orchestration_session_issue</title>
<polygon fill="#efefef" stroke="none" points="831.15,-1795.4 831.15,-1831 1114.38,-1831 1114.38,-1795.4 831.15,-1795.4"/>
<polygon fill="none" stroke="black" points="831.15,-1795.4 831.15,-1831 1114.38,-1831 1114.38,-1795.4 831.15,-1795.4"/>
<text text-anchor="start" x="838.15" y="-1808.8" font-family="Arial Bold" font-size="18.00">orchestration_session_issue</text>
<text text-anchor="start" x="1038.12" y="-1808.8" font-family="Arial" font-size="14.00">    </text>
<text text-anchor="start" x="1069.24" y="-1808.8" font-family="Arial" font-size="14.00" fill="#666666">[table]</text>
<polygon fill="none" stroke="black" points="831.15,-1764.6 831.15,-1795.4 1114.38,-1795.4 1114.38,-1764.6 831.15,-1764.6"/>
<text text-anchor="start" x="838.15" y="-1776.8" font-family="Arial" font-size="14.00">orchestration_session_issue_id </text>
<text text-anchor="start" x="1037.38" y="-1776.8" font-family="Arial" font-size="14.00" fill="#666666">[UUID]</text>
<polygon fill="none" stroke="black" points="831.15,-1733.8 831.15,-1764.6 1114.38,-1764.6 1114.38,-1733.8 831.15,-1733.8"/>
<text text-anchor="start" x="838.15" y="-1746" font-family="Arial" font-size="14.00">session_id </text>
<text text-anchor="start" x="908.19" y="-1746" font-family="Arial" font-size="14.00" fill="#666666">[VARCHAR]</text>
<polygon fill="none" stroke="black" points="831.15,-1703 831.15,-1733.8 1114.38,-1733.8 1114.38,-1703 831.15,-1703"/>
<text text-anchor="start" x="838.15" y="-1715.2" font-family="Arial" font-size="14.00">session_entry_id </text>
<text text-anchor="start" x="947.1" y="-1715.2" font-family="Arial" font-size="14.00" fill="#666666">[VARCHAR]</text>
<polygon fill="none" stroke="black" points="831.15,-1672.2 831.15,-1703 1114.38,-1703 1114.38,-1672.2 831.15,-1672.2"/>
<text text-anchor="start" x="838.15" y="-1684.4" font-family="Arial" font-size="14.00">issue_type </text>
<text text-anchor="start" x="908.97" y="-1684.4" font-family="Arial" font-size="14.00" fill="#666666">[TEXT]</text>
<polygon fill="none" stroke="black" points="831.15,-1641.4 831.15,-1672.2 1114.38,-1672.2 1114.38,-1641.4 831.15,-1641.4"/>
<text text-anchor="start" x="838.15" y="-1653.6" font-family="Arial" font-size="14.00">issue_message </text>
<text text-anchor="start" x="939.32" y="-1653.6" font-family="Arial" font-size="14.00" fill="#666666">[TEXT]</text>
<polygon fill="none" stroke="black" points="831.15,-1610.6 831.15,-1641.4 1114.38,-1641.4 1114.38,-1610.6 831.15,-1610.6"/>
<text text-anchor="start" x="838.15" y="-1622.8" font-family="Arial" font-size="14.00">issue_row </text>
<text text-anchor="start" x="905.07" y="-1622.8" font-family="Arial" font-size="14.00" fill="#666666">[INTEGER]</text>
<polygon fill="none" stroke="black" points="831.15,-1579.8 831.15,-1610.6 1114.38,-1610.6 1114.38,-1579.8 831.15,-1579.8"/>
<text text-anchor="start" x="838.15" y="-1592" font-family="Arial" font-size="14.00">issue_column </text>
<text text-anchor="start" x="927.64" y="-1592" font-family="Arial" font-size="14.00" fill="#666666">[TEXT]</text>
<polygon fill="none" stroke="black" points="831.15,-1549 831.15,-1579.8 1114.38,-1579.8 1114.38,-1549 831.15,-1549"/>
<text text-anchor="start" x="838.15" y="-1561.2" font-family="Arial" font-size="14.00">invalid_value </text>
<text text-anchor="start" x="922.99" y="-1561.2" font-family="Arial" font-size="14.00" fill="#666666">[TEXT]</text>
<polygon fill="none" stroke="black" points="831.15,-1518.2 831.15,-1549 1114.38,-1549 1114.38,-1518.2 831.15,-1518.2"/>
<text text-anchor="start" x="838.15" y="-1530.4" font-family="Arial" font-size="14.00">remediation </text>
<text text-anchor="start" x="915.19" y="-1530.4" font-family="Arial" font-size="14.00" fill="#666666">[TEXT]</text>
<polygon fill="none" stroke="black" points="831.15,-1487.4 831.15,-1518.2 1114.38,-1518.2 1114.38,-1487.4 831.15,-1487.4"/>
<text text-anchor="start" x="838.15" y="-1499.6" font-family="Arial" font-size="14.00">elaboration </text>
<text text-anchor="start" x="911.32" y="-1499.6" font-family="Arial" font-size="14.00" fill="#666666">[TEXT]</text>
</g>
<!-- orchestration_session_issue&#45;&gt;orchestration_session -->
<g id="edge4" class="edge">
<title>orchestration_session_issue:session_id&#45;&gt;orchestration_session:orchestration_session_id</title>
<path fill="none" stroke="black" d="M820.8,-1745.88C747.3,-1689.16 859.67,-925 771.26,-925"/>
<polygon fill="black" stroke="black" points="820.41,-1745.74 828.33,-1753.33 825.44,-1747.53 829.52,-1748.98 829.52,-1748.98 829.52,-1748.98 825.44,-1747.53 831.34,-1744.85 820.41,-1745.74"/>
</g>
<!-- orchestration_session_issue&#45;&gt;orchestration_session_entry -->
<g id="edge9" class="edge">
<title>orchestration_session_issue:session_entry_id&#45;&gt;orchestration_session_entry:orchestration_session_entry_id</title>
<path fill="none" stroke="black" d="M819.94,-1716.62C756.46,-1692.77 807.2,-1436.79 778.76,-1367.2 751.66,-1300.88 755.36,-1237 683.72,-1237"/>
<polygon fill="black" stroke="black" points="819.97,-1716.62 829.05,-1722.78 825.23,-1717.54 829.49,-1718.28 829.49,-1718.28 829.49,-1718.28 825.23,-1717.54 830.6,-1713.91 819.97,-1716.62"/>
</g>
</g>
</svg>
