<?xml version="1.0" encoding="UTF-8" standalone="no"?>
<!DOCTYPE svg PUBLIC "-//W3C//DTD SVG 1.1//EN"
 "http://www.w3.org/Graphics/SVG/1.1/DTD/svg11.dtd">
<!-- Generated by graphviz version 12.1.2 (20240928.0832)
 -->
<!-- Title: orchestration_session_exec Pages: 1 -->
<svg width="1166pt" height="2200pt"
 viewBox="0.00 0.00 1166.19 2199.70" xmlns="http://www.w3.org/2000/svg" xmlns:xlink="http://www.w3.org/1999/xlink">
<g id="graph0" class="graph" transform="scale(1 1) rotate(0) translate(4 2195.7)">
<title>orchestration_session_exec</title>
<polygon fill="white" stroke="none" points="-4,4 -4,-2195.7 1162.19,-2195.7 1162.19,4 -4,4"/>
<!-- orchestration_session_exec -->
<g id="node1" class="node">
<title>orchestration_session_exec</title>
<polygon fill="#efefef" stroke="none" points="46.2,-1875.4 46.2,-1911 332.55,-1911 332.55,-1875.4 46.2,-1875.4"/>
<polygon fill="none" stroke="black" points="46.2,-1875.4 46.2,-1911 332.55,-1911 332.55,-1875.4 46.2,-1875.4"/>
<text text-anchor="start" x="56.28" y="-1888.8" font-family="Arial Bold" font-size="18.00">orchestration_session_exec</text>
<text text-anchor="start" x="253.22" y="-1888.8" font-family="Arial" font-size="14.00">    </text>
<text text-anchor="start" x="284.33" y="-1888.8" font-family="Arial" font-size="14.00" fill="#666666">[table]</text>
<polygon fill="none" stroke="black" points="46.2,-1844.6 46.2,-1875.4 332.55,-1875.4 332.55,-1844.6 46.2,-1844.6"/>
<text text-anchor="start" x="53.2" y="-1856.8" font-family="Arial" font-size="14.00">orchestration_session_exec_id </text>
<text text-anchor="start" x="249.32" y="-1856.8" font-family="Arial" font-size="14.00" fill="#666666">[VARCHAR]</text>
<polygon fill="none" stroke="black" points="46.2,-1813.8 46.2,-1844.6 332.55,-1844.6 332.55,-1813.8 46.2,-1813.8"/>
<text text-anchor="start" x="53.2" y="-1826" font-family="Arial" font-size="14.00">exec_nature </text>
<text text-anchor="start" x="134.14" y="-1826" font-family="Arial" font-size="14.00" fill="#666666">[TEXT]</text>
<polygon fill="none" stroke="black" points="46.2,-1783 46.2,-1813.8 332.55,-1813.8 332.55,-1783 46.2,-1783"/>
<text text-anchor="start" x="53.2" y="-1795.2" font-family="Arial" font-size="14.00">session_id </text>
<text text-anchor="start" x="123.24" y="-1795.2" font-family="Arial" font-size="14.00" fill="#666666">[VARCHAR]</text>
<polygon fill="none" stroke="black" points="46.2,-1752.2 46.2,-1783 332.55,-1783 332.55,-1752.2 46.2,-1752.2"/>
<text text-anchor="start" x="53.2" y="-1764.4" font-family="Arial" font-size="14.00">session_entry_id </text>
<text text-anchor="start" x="162.15" y="-1764.4" font-family="Arial" font-size="14.00" fill="#666666">[VARCHAR]</text>
<polygon fill="none" stroke="black" points="46.2,-1721.4 46.2,-1752.2 332.55,-1752.2 332.55,-1721.4 46.2,-1721.4"/>
<text text-anchor="start" x="53.2" y="-1733.6" font-family="Arial" font-size="14.00">parent_exec_id </text>
<text text-anchor="start" x="152.83" y="-1733.6" font-family="Arial" font-size="14.00" fill="#666666">[VARCHAR]</text>
<polygon fill="none" stroke="black" points="46.2,-1690.6 46.2,-1721.4 332.55,-1721.4 332.55,-1690.6 46.2,-1690.6"/>
<text text-anchor="start" x="53.2" y="-1702.8" font-family="Arial" font-size="14.00">namespace </text>
<text text-anchor="start" x="129.47" y="-1702.8" font-family="Arial" font-size="14.00" fill="#666666">[TEXT]</text>
<polygon fill="none" stroke="black" points="46.2,-1659.8 46.2,-1690.6 332.55,-1690.6 332.55,-1659.8 46.2,-1659.8"/>
<text text-anchor="start" x="53.2" y="-1672" font-family="Arial" font-size="14.00">exec_identity </text>
<text text-anchor="start" x="138.81" y="-1672" font-family="Arial" font-size="14.00" fill="#666666">[TEXT]</text>
<polygon fill="none" stroke="black" points="46.2,-1629 46.2,-1659.8 332.55,-1659.8 332.55,-1629 46.2,-1629"/>
<text text-anchor="start" x="53.2" y="-1641.2" font-family="Arial" font-size="14.00">exec_code </text>
<text text-anchor="start" x="124.81" y="-1641.2" font-family="Arial" font-size="14.00" fill="#666666">[TEXT]</text>
<polygon fill="none" stroke="black" points="46.2,-1598.2 46.2,-1629 332.55,-1629 332.55,-1598.2 46.2,-1598.2"/>
<text text-anchor="start" x="53.2" y="-1610.4" font-family="Arial" font-size="14.00">exec_status </text>
<text text-anchor="start" x="131.8" y="-1610.4" font-family="Arial" font-size="14.00" fill="#666666">[INTEGER]</text>
<polygon fill="none" stroke="black" points="46.2,-1567.4 46.2,-1598.2 332.55,-1598.2 332.55,-1567.4 46.2,-1567.4"/>
<text text-anchor="start" x="53.2" y="-1579.6" font-family="Arial" font-size="14.00">input_text </text>
<text text-anchor="start" x="117.8" y="-1579.6" font-family="Arial" font-size="14.00" fill="#666666">[TEXT]</text>
<polygon fill="none" stroke="black" points="46.2,-1536.6 46.2,-1567.4 332.55,-1567.4 332.55,-1536.6 46.2,-1536.6"/>
<text text-anchor="start" x="53.2" y="-1548.8" font-family="Arial" font-size="14.00">exec_error_text </text>
<text text-anchor="start" x="154.36" y="-1548.8" font-family="Arial" font-size="14.00" fill="#666666">[TEXT]</text>
<polygon fill="none" stroke="black" points="46.2,-1505.8 46.2,-1536.6 332.55,-1536.6 332.55,-1505.8 46.2,-1505.8"/>
<text text-anchor="start" x="53.2" y="-1518" font-family="Arial" font-size="14.00">output_text </text>
<text text-anchor="start" x="126.37" y="-1518" font-family="Arial" font-size="14.00" fill="#666666">[TEXT]</text>
<polygon fill="none" stroke="black" points="46.2,-1475 46.2,-1505.8 332.55,-1505.8 332.55,-1475 46.2,-1475"/>
<text text-anchor="start" x="53.2" y="-1487.2" font-family="Arial" font-size="14.00">output_nature </text>
<text text-anchor="start" x="143.5" y="-1487.2" font-family="Arial" font-size="14.00" fill="#666666">[TEXT]</text>
<polygon fill="none" stroke="black" points="46.2,-1444.2 46.2,-1475 332.55,-1475 332.55,-1444.2 46.2,-1444.2"/>
<text text-anchor="start" x="53.2" y="-1456.4" font-family="Arial" font-size="14.00">narrative_md </text>
<text text-anchor="start" x="138.79" y="-1456.4" font-family="Arial" font-size="14.00" fill="#666666">[TEXT]</text>
<polygon fill="none" stroke="black" points="46.2,-1413.4 46.2,-1444.2 332.55,-1444.2 332.55,-1413.4 46.2,-1413.4"/>
<text text-anchor="start" x="53.2" y="-1425.6" font-family="Arial" font-size="14.00">elaboration </text>
<text text-anchor="start" x="126.37" y="-1425.6" font-family="Arial" font-size="14.00" fill="#666666">[TEXT]</text>
<polygon fill="none" stroke="black" stroke-width="3" points="44.7,-1411.9 44.7,-1912.5 334.05,-1912.5 334.05,-1411.9 44.7,-1411.9"/>
</g>
<!-- orchestration_session_exec&#45;&gt;orchestration_session_exec -->
<g id="edge1" class="edge">
<title>orchestration_session_exec:parent_exec_id&#45;&gt;orchestration_session_exec:orchestration_session_exec_id</title>
<path fill="none" stroke="black" d="M190.58,-1762.22C198.36,-1938.76 197.95,-2191.7 189.38,-2191.7 180.64,-2191.7 180.38,-2044.39 188.61,-1875.36"/>
<polygon fill="black" stroke="black" points="190.59,-1762.36 194.63,-1752.16 190.34,-1757.03 190.15,-1752.7 190.15,-1752.7 190.15,-1752.7 190.34,-1757.03 185.64,-1752.57 190.59,-1762.36"/>
</g>
<!-- orchestration_session -->
<g id="node2" class="node">
<title>orchestration_session</title>
<polygon fill="#efefef" stroke="none" points="520.88,-940.4 520.88,-976 769.87,-976 769.87,-940.4 520.88,-940.4"/>
<polygon fill="none" stroke="black" points="520.88,-940.4 520.88,-976 769.87,-976 769.87,-940.4 520.88,-940.4"/>
<text text-anchor="start" x="533.26" y="-953.8" font-family="Arial Bold" font-size="18.00">orchestration_session</text>
<text text-anchor="start" x="688.23" y="-953.8" font-family="Arial" font-size="14.00">    </text>
<text text-anchor="start" x="719.35" y="-953.8" font-family="Arial" font-size="14.00" fill="#666666">[table]</text>
<polygon fill="none" stroke="black" points="520.88,-909.6 520.88,-940.4 769.87,-940.4 769.87,-909.6 520.88,-909.6"/>
<text text-anchor="start" x="527.88" y="-921.8" font-family="Arial" font-size="14.00">orchestration_session_id </text>
<text text-anchor="start" x="686.64" y="-921.8" font-family="Arial" font-size="14.00" fill="#666666">[VARCHAR]</text>
<polygon fill="none" stroke="black" points="520.88,-878.8 520.88,-909.6 769.87,-909.6 769.87,-878.8 520.88,-878.8"/>
<text text-anchor="start" x="527.88" y="-891" font-family="Arial" font-size="14.00">device_id </text>
<text text-anchor="start" x="590.92" y="-891" font-family="Arial" font-size="14.00" fill="#666666">[VARCHAR]</text>
<polygon fill="none" stroke="black" points="520.88,-848 520.88,-878.8 769.87,-878.8 769.87,-848 520.88,-848"/>
<text text-anchor="start" x="527.88" y="-860.2" font-family="Arial" font-size="14.00">orchestration_nature_id </text>
<text text-anchor="start" x="678.86" y="-860.2" font-family="Arial" font-size="14.00" fill="#666666">[TEXT]</text>
<polygon fill="none" stroke="black" points="520.88,-817.2 520.88,-848 769.87,-848 769.87,-817.2 520.88,-817.2"/>
<text text-anchor="start" x="527.88" y="-829.4" font-family="Arial" font-size="14.00">version </text>
<text text-anchor="start" x="576.9" y="-829.4" font-family="Arial" font-size="14.00" fill="#666666">[TEXT]</text>
<polygon fill="none" stroke="black" points="520.88,-786.4 520.88,-817.2 769.87,-817.2 769.87,-786.4 520.88,-786.4"/>
<text text-anchor="start" x="527.88" y="-798.6" font-family="Arial" font-size="14.00">orch_started_at </text>
<text text-anchor="start" x="629.05" y="-798.6" font-family="Arial" font-size="14.00" fill="#666666">[TIMESTAMPTZ]</text>
<polygon fill="none" stroke="black" points="520.88,-755.6 520.88,-786.4 769.87,-786.4 769.87,-755.6 520.88,-755.6"/>
<text text-anchor="start" x="527.88" y="-767.8" font-family="Arial" font-size="14.00">orch_finished_at </text>
<text text-anchor="start" x="634.51" y="-767.8" font-family="Arial" font-size="14.00" fill="#666666">[TIMESTAMPTZ]</text>
<polygon fill="none" stroke="black" points="520.88,-724.8 520.88,-755.6 769.87,-755.6 769.87,-724.8 520.88,-724.8"/>
<text text-anchor="start" x="527.88" y="-737" font-family="Arial" font-size="14.00">elaboration </text>
<text text-anchor="start" x="601.04" y="-737" font-family="Arial" font-size="14.00" fill="#666666">[TEXT]</text>
<polygon fill="none" stroke="black" points="520.88,-694 520.88,-724.8 769.87,-724.8 769.87,-694 520.88,-694"/>
<text text-anchor="start" x="527.88" y="-706.2" font-family="Arial" font-size="14.00">args_json </text>
<text text-anchor="start" x="592.47" y="-706.2" font-family="Arial" font-size="14.00" fill="#666666">[TEXT]</text>
<polygon fill="none" stroke="black" points="520.88,-663.2 520.88,-694 769.87,-694 769.87,-663.2 520.88,-663.2"/>
<text text-anchor="start" x="527.88" y="-675.4" font-family="Arial" font-size="14.00">diagnostics_json </text>
<text text-anchor="start" x="635.28" y="-675.4" font-family="Arial" font-size="14.00" fill="#666666">[TEXT]</text>
<polygon fill="none" stroke="black" points="520.88,-632.4 520.88,-663.2 769.87,-663.2 769.87,-632.4 520.88,-632.4"/>
<text text-anchor="start" x="527.88" y="-644.6" font-family="Arial" font-size="14.00">diagnostics_md </text>
<text text-anchor="start" x="629.04" y="-644.6" font-family="Arial" font-size="14.00" fill="#666666">[TEXT]</text>
</g>
<!-- orchestration_session_exec&#45;&gt;orchestration_session -->
<g id="edge2" class="edge">
<title>orchestration_session_exec:session_id&#45;&gt;orchestration_session:orchestration_session_id</title>
<path fill="none" stroke="black" d="M337.22,-1788.7C351.43,-1702.6 333.58,-1072.31 342.38,-1055.2 387.11,-968.19 422.04,-925 519.88,-925"/>
<polygon fill="black" stroke="black" points="337.21,-1788.73 329.46,-1796.5 335.32,-1793.72 333.79,-1797.77 333.79,-1797.77 333.79,-1797.77 335.32,-1793.72 337.88,-1799.68 337.21,-1788.73"/>
</g>
<!-- orchestration_session_entry -->
<g id="node3" class="node">
<title>orchestration_session_entry</title>
<polygon fill="#efefef" stroke="none" points="394.42,-1252.4 394.42,-1288 682.33,-1288 682.33,-1252.4 394.42,-1252.4"/>
<polygon fill="none" stroke="black" points="394.42,-1252.4 394.42,-1288 682.33,-1288 682.33,-1252.4 394.42,-1252.4"/>
<text text-anchor="start" x="403.27" y="-1265.8" font-family="Arial Bold" font-size="18.00">orchestration_session_entry</text>
<text text-anchor="start" x="604.22" y="-1265.8" font-family="Arial" font-size="14.00">    </text>
<text text-anchor="start" x="635.34" y="-1265.8" font-family="Arial" font-size="14.00" fill="#666666">[table]</text>
<polygon fill="none" stroke="black" points="394.42,-1221.6 394.42,-1252.4 682.33,-1252.4 682.33,-1221.6 394.42,-1221.6"/>
<text text-anchor="start" x="401.42" y="-1233.8" font-family="Arial" font-size="14.00">orchestration_session_entry_id </text>
<text text-anchor="start" x="599.09" y="-1233.8" font-family="Arial" font-size="14.00" fill="#666666">[VARCHAR]</text>
<polygon fill="none" stroke="black" points="394.42,-1190.8 394.42,-1221.6 682.33,-1221.6 682.33,-1190.8 394.42,-1190.8"/>
<text text-anchor="start" x="401.42" y="-1203" font-family="Arial" font-size="14.00">session_id </text>
<text text-anchor="start" x="471.47" y="-1203" font-family="Arial" font-size="14.00" fill="#666666">[VARCHAR]</text>
<polygon fill="none" stroke="black" points="394.42,-1160 394.42,-1190.8 682.33,-1190.8 682.33,-1160 394.42,-1160"/>
<text text-anchor="start" x="401.42" y="-1172.2" font-family="Arial" font-size="14.00">ingest_src </text>
<text text-anchor="start" x="469.12" y="-1172.2" font-family="Arial" font-size="14.00" fill="#666666">[TEXT]</text>
<polygon fill="none" stroke="black" points="394.42,-1129.2 394.42,-1160 682.33,-1160 682.33,-1129.2 394.42,-1129.2"/>
<text text-anchor="start" x="401.42" y="-1141.4" font-family="Arial" font-size="14.00">ingest_table_name </text>
<text text-anchor="start" x="523.62" y="-1141.4" font-family="Arial" font-size="14.00" fill="#666666">[TEXT]</text>
<polygon fill="none" stroke="black" points="394.42,-1098.4 394.42,-1129.2 682.33,-1129.2 682.33,-1098.4 394.42,-1098.4"/>
<text text-anchor="start" x="401.42" y="-1110.6" font-family="Arial" font-size="14.00">elaboration </text>
<text text-anchor="start" x="474.59" y="-1110.6" font-family="Arial" font-size="14.00" fill="#666666">[TEXT]</text>
</g>
<!-- orchestration_session_exec&#45;&gt;orchestration_session_entry -->
<g id="edge3" class="edge">
<title>orchestration_session_exec:session_entry_id&#45;&gt;orchestration_session_entry:orchestration_session_entry_id</title>
<path fill="none" stroke="black" d="M343.83,-1766.08C441.41,-1734.96 278.47,-1237 393.42,-1237"/>
<polygon fill="black" stroke="black" points="343.77,-1766.09 333.22,-1763.1 338.5,-1766.87 334.21,-1767.5 334.21,-1767.5 334.21,-1767.5 338.5,-1766.87 334.54,-1772 343.77,-1766.09"/>
</g>
<!-- device -->
<g id="node6" class="node">
<title>device</title>
<polygon fill="#efefef" stroke="none" points="390.12,-474.4 390.12,-510 584.63,-510 584.63,-474.4 390.12,-474.4"/>
<polygon fill="none" stroke="black" points="390.12,-474.4 390.12,-510 584.63,-510 584.63,-474.4 390.12,-474.4"/>
<text text-anchor="start" x="429.26" y="-487.8" font-family="Arial Bold" font-size="18.00">device</text>
<text text-anchor="start" x="476.23" y="-487.8" font-family="Arial" font-size="14.00">    </text>
<text text-anchor="start" x="507.35" y="-487.8" font-family="Arial" font-size="14.00" fill="#666666">[table]</text>
<polygon fill="none" stroke="black" points="390.12,-443.6 390.12,-474.4 584.63,-474.4 584.63,-443.6 390.12,-443.6"/>
<text text-anchor="start" x="397.12" y="-455.8" font-family="Arial" font-size="14.00">device_id </text>
<text text-anchor="start" x="460.16" y="-455.8" font-family="Arial" font-size="14.00" fill="#666666">[VARCHAR]</text>
<polygon fill="none" stroke="black" points="390.12,-412.8 390.12,-443.6 584.63,-443.6 584.63,-412.8 390.12,-412.8"/>
<text text-anchor="start" x="397.12" y="-425" font-family="Arial" font-size="14.00">name </text>
<text text-anchor="start" x="436.03" y="-425" font-family="Arial" font-size="14.00" fill="#666666">[TEXT]</text>
<polygon fill="none" stroke="black" points="390.12,-382 390.12,-412.8 584.63,-412.8 584.63,-382 390.12,-382"/>
<text text-anchor="start" x="397.12" y="-394.2" font-family="Arial" font-size="14.00">state </text>
<text text-anchor="start" x="431.36" y="-394.2" font-family="Arial" font-size="14.00" fill="#666666">[TEXT]</text>
<polygon fill="none" stroke="black" points="390.12,-351.2 390.12,-382 584.63,-382 584.63,-351.2 390.12,-351.2"/>
<text text-anchor="start" x="397.12" y="-363.4" font-family="Arial" font-size="14.00">boundary </text>
<text text-anchor="start" x="459.39" y="-363.4" font-family="Arial" font-size="14.00" fill="#666666">[TEXT]</text>
<polygon fill="none" stroke="black" points="390.12,-320.4 390.12,-351.2 584.63,-351.2 584.63,-320.4 390.12,-320.4"/>
<text text-anchor="start" x="397.12" y="-332.6" font-family="Arial" font-size="14.00">segmentation </text>
<text text-anchor="start" x="485.06" y="-332.6" font-family="Arial" font-size="14.00" fill="#666666">[TEXT]</text>
<polygon fill="none" stroke="black" points="390.12,-289.6 390.12,-320.4 584.63,-320.4 584.63,-289.6 390.12,-289.6"/>
<text text-anchor="start" x="397.12" y="-301.8" font-family="Arial" font-size="14.00">state_sysinfo </text>
<text text-anchor="start" x="482.72" y="-301.8" font-family="Arial" font-size="14.00" fill="#666666">[TEXT]</text>
<polygon fill="none" stroke="black" points="390.12,-258.8 390.12,-289.6 584.63,-289.6 584.63,-258.8 390.12,-258.8"/>
<text text-anchor="start" x="397.12" y="-271" font-family="Arial" font-size="14.00">elaboration </text>
<text text-anchor="start" x="470.29" y="-271" font-family="Arial" font-size="14.00" fill="#666666">[TEXT]</text>
<polygon fill="none" stroke="black" points="390.12,-228 390.12,-258.8 584.63,-258.8 584.63,-228 390.12,-228"/>
<text text-anchor="start" x="397.12" y="-240.2" font-family="Arial" font-size="14.00">created_at </text>
<text text-anchor="start" x="467.17" y="-240.2" font-family="Arial" font-size="14.00" fill="#666666">[TIMESTAMPTZ]</text>
<polygon fill="none" stroke="black" points="390.12,-197.2 390.12,-228 584.63,-228 584.63,-197.2 390.12,-197.2"/>
<text text-anchor="start" x="397.12" y="-209.4" font-family="Arial" font-size="14.00">created_by </text>
<text text-anchor="start" x="470.28" y="-209.4" font-family="Arial" font-size="14.00" fill="#666666">[TEXT]</text>
<polygon fill="none" stroke="black" points="390.12,-166.4 390.12,-197.2 584.63,-197.2 584.63,-166.4 390.12,-166.4"/>
<text text-anchor="start" x="397.12" y="-178.6" font-family="Arial" font-size="14.00">updated_at </text>
<text text-anchor="start" x="471.08" y="-178.6" font-family="Arial" font-size="14.00" fill="#666666">[TIMESTAMPTZ]</text>
<polygon fill="none" stroke="black" points="390.12,-135.6 390.12,-166.4 584.63,-166.4 584.63,-135.6 390.12,-135.6"/>
<text text-anchor="start" x="397.12" y="-147.8" font-family="Arial" font-size="14.00">updated_by </text>
<text text-anchor="start" x="474.19" y="-147.8" font-family="Arial" font-size="14.00" fill="#666666">[TEXT]</text>
<polygon fill="none" stroke="black" points="390.12,-104.8 390.12,-135.6 584.63,-135.6 584.63,-104.8 390.12,-104.8"/>
<text text-anchor="start" x="397.12" y="-117" font-family="Arial" font-size="14.00">deleted_at </text>
<text text-anchor="start" x="466.4" y="-117" font-family="Arial" font-size="14.00" fill="#666666">[TIMESTAMPTZ]</text>
<polygon fill="none" stroke="black" points="390.12,-74 390.12,-104.8 584.63,-104.8 584.63,-74 390.12,-74"/>
<text text-anchor="start" x="397.12" y="-86.2" font-family="Arial" font-size="14.00">deleted_by </text>
<text text-anchor="start" x="469.51" y="-86.2" font-family="Arial" font-size="14.00" fill="#666666">[TEXT]</text>
<polygon fill="none" stroke="black" points="390.12,-43.2 390.12,-74 584.63,-74 584.63,-43.2 390.12,-43.2"/>
<text text-anchor="start" x="397.12" y="-55.4" font-family="Arial" font-size="14.00">activity_log </text>
<text text-anchor="start" x="470.26" y="-55.4" font-family="Arial" font-size="14.00" fill="#666666">[TEXT]</text>
</g>
<!-- orchestration_session&#45;&gt;device -->
<g id="edge7" class="edge">
<title>orchestration_session:device_id&#45;&gt;device:device_id</title>
<path fill="none" stroke="black" d="M509.58,-893.81C387.91,-884.33 454.16,-703.07 520.88,-589.2 537.33,-561.13 568.08,-581.21 584.63,-553.2 605.93,-517.15 627.5,-459 585.63,-459"/>
<polygon fill="black" stroke="black" points="509.55,-893.81 519.38,-898.68 514.88,-894.01 519.21,-894.17 519.21,-894.17 519.21,-894.17 514.88,-894.01 519.71,-889.69 509.55,-893.81"/>
</g>
<!-- orchestration_nature -->
<g id="node7" class="node">
<title>orchestration_nature</title>
<polygon fill="#efefef" stroke="none" points="688.78,-412.8 688.78,-448.4 919.97,-448.4 919.97,-412.8 688.78,-412.8"/>
<polygon fill="none" stroke="black" points="688.78,-412.8 688.78,-448.4 919.97,-448.4 919.97,-412.8 688.78,-412.8"/>
<text text-anchor="start" x="695.78" y="-426.2" font-family="Arial Bold" font-size="18.00">orchestration_nature</text>
<text text-anchor="start" x="843.72" y="-426.2" font-family="Arial" font-size="14.00">    </text>
<text text-anchor="start" x="874.83" y="-426.2" font-family="Arial" font-size="14.00" fill="#666666">[table]</text>
<polygon fill="none" stroke="black" points="688.78,-382 688.78,-412.8 919.97,-412.8 919.97,-382 688.78,-382"/>
<text text-anchor="start" x="695.78" y="-394.2" font-family="Arial" font-size="14.00">orchestration_nature_id </text>
<text text-anchor="start" x="846.76" y="-394.2" font-family="Arial" font-size="14.00" fill="#666666">[TEXT]</text>
<polygon fill="none" stroke="black" points="688.78,-351.2 688.78,-382 919.97,-382 919.97,-351.2 688.78,-351.2"/>
<text text-anchor="start" x="695.78" y="-363.4" font-family="Arial" font-size="14.00">nature </text>
<text text-anchor="start" x="739.37" y="-363.4" font-family="Arial" font-size="14.00" fill="#666666">[TEXT]</text>
<polygon fill="none" stroke="black" points="688.78,-320.4 688.78,-351.2 919.97,-351.2 919.97,-320.4 688.78,-320.4"/>
<text text-anchor="start" x="695.78" y="-332.6" font-family="Arial" font-size="14.00">elaboration </text>
<text text-anchor="start" x="768.94" y="-332.6" font-family="Arial" font-size="14.00" fill="#666666">[TEXT]</text>
<polygon fill="none" stroke="black" points="688.78,-289.6 688.78,-320.4 919.97,-320.4 919.97,-289.6 688.78,-289.6"/>
<text text-anchor="start" x="695.78" y="-301.8" font-family="Arial" font-size="14.00">created_at </text>
<text text-anchor="start" x="765.83" y="-301.8" font-family="Arial" font-size="14.00" fill="#666666">[TIMESTAMPTZ]</text>
<polygon fill="none" stroke="black" points="688.78,-258.8 688.78,-289.6 919.97,-289.6 919.97,-258.8 688.78,-258.8"/>
<text text-anchor="start" x="695.78" y="-271" font-family="Arial" font-size="14.00">created_by </text>
<text text-anchor="start" x="768.94" y="-271" font-family="Arial" font-size="14.00" fill="#666666">[TEXT]</text>
<polygon fill="none" stroke="black" points="688.78,-228 688.78,-258.8 919.97,-258.8 919.97,-228 688.78,-228"/>
<text text-anchor="start" x="695.78" y="-240.2" font-family="Arial" font-size="14.00">updated_at </text>
<text text-anchor="start" x="769.74" y="-240.2" font-family="Arial" font-size="14.00" fill="#666666">[TIMESTAMPTZ]</text>
<polygon fill="none" stroke="black" points="688.78,-197.2 688.78,-228 919.97,-228 919.97,-197.2 688.78,-197.2"/>
<text text-anchor="start" x="695.78" y="-209.4" font-family="Arial" font-size="14.00">updated_by </text>
<text text-anchor="start" x="772.85" y="-209.4" font-family="Arial" font-size="14.00" fill="#666666">[TEXT]</text>
<polygon fill="none" stroke="black" points="688.78,-166.4 688.78,-197.2 919.97,-197.2 919.97,-166.4 688.78,-166.4"/>
<text text-anchor="start" x="695.78" y="-178.6" font-family="Arial" font-size="14.00">deleted_at </text>
<text text-anchor="start" x="765.06" y="-178.6" font-family="Arial" font-size="14.00" fill="#666666">[TIMESTAMPTZ]</text>
<polygon fill="none" stroke="black" points="688.78,-135.6 688.78,-166.4 919.97,-166.4 919.97,-135.6 688.78,-135.6"/>
<text text-anchor="start" x="695.78" y="-147.8" font-family="Arial" font-size="14.00">deleted_by </text>
<text text-anchor="start" x="768.17" y="-147.8" font-family="Arial" font-size="14.00" fill="#666666">[TEXT]</text>
<polygon fill="none" stroke="black" points="688.78,-104.8 688.78,-135.6 919.97,-135.6 919.97,-104.8 688.78,-104.8"/>
<text text-anchor="start" x="695.78" y="-117" font-family="Arial" font-size="14.00">activity_log </text>
<text text-anchor="start" x="768.92" y="-117" font-family="Arial" font-size="14.00" fill="#666666">[TEXT]</text>
</g>
<!-- orchestration_session&#45;&gt;orchestration_nature -->
<g id="edge8" class="edge">
<title>orchestration_session:orchestration_nature_id&#45;&gt;orchestration_nature:orchestration_nature_id</title>
<path fill="none" stroke="black" d="M781.07,-862.99C888.01,-854.08 810.26,-700.39 769.87,-589.2 750.61,-536.19 708.22,-544.54 688.78,-491.6 674.35,-452.3 645.91,-397.4 687.78,-397.4"/>
<polygon fill="black" stroke="black" points="781.2,-862.99 771.03,-858.89 775.87,-863.2 771.54,-863.37 771.54,-863.37 771.54,-863.37 775.87,-863.2 771.38,-867.88 781.2,-862.99"/>
</g>
<!-- orchestration_session_entry&#45;&gt;orchestration_session -->
<g id="edge4" class="edge">
<title>orchestration_session_entry:session_id&#45;&gt;orchestration_session:orchestration_session_id</title>
<path fill="none" stroke="black" d="M693.51,-1205.34C747.55,-1195.54 722.17,-1104.57 682.33,-1055.2 636.16,-997.99 567.16,-1076.32 520.88,-1019.2 494.52,-986.67 478.01,-925 519.88,-925"/>
<polygon fill="black" stroke="black" points="693.62,-1205.33 683.28,-1201.69 688.31,-1205.78 683.99,-1206.14 683.99,-1206.14 683.99,-1206.14 688.31,-1205.78 684.04,-1210.66 693.62,-1205.33"/>
</g>
<!-- orchestration_session_state -->
<g id="node4" class="node">
<title>orchestration_session_state</title>
<polygon fill="#efefef" stroke="none" points="439.81,-1783 439.81,-1818.6 726.94,-1818.6 726.94,-1783 439.81,-1783"/>
<polygon fill="none" stroke="black" points="439.81,-1783 439.81,-1818.6 726.94,-1818.6 726.94,-1783 439.81,-1783"/>
<text text-anchor="start" x="450.27" y="-1796.4" font-family="Arial Bold" font-size="18.00">orchestration_session_state</text>
<text text-anchor="start" x="647.22" y="-1796.4" font-family="Arial" font-size="14.00">    </text>
<text text-anchor="start" x="678.34" y="-1796.4" font-family="Arial" font-size="14.00" fill="#666666">[table]</text>
<polygon fill="none" stroke="black" points="439.81,-1752.2 439.81,-1783 726.94,-1783 726.94,-1752.2 439.81,-1752.2"/>
<text text-anchor="start" x="446.81" y="-1764.4" font-family="Arial" font-size="14.00">orchestration_session_state_id </text>
<text text-anchor="start" x="643.71" y="-1764.4" font-family="Arial" font-size="14.00" fill="#666666">[VARCHAR]</text>
<polygon fill="none" stroke="black" points="439.81,-1721.4 439.81,-1752.2 726.94,-1752.2 726.94,-1721.4 439.81,-1721.4"/>
<text text-anchor="start" x="446.81" y="-1733.6" font-family="Arial" font-size="14.00">session_id </text>
<text text-anchor="start" x="516.85" y="-1733.6" font-family="Arial" font-size="14.00" fill="#666666">[VARCHAR]</text>
<polygon fill="none" stroke="black" points="439.81,-1690.6 439.81,-1721.4 726.94,-1721.4 726.94,-1690.6 439.81,-1690.6"/>
<text text-anchor="start" x="446.81" y="-1702.8" font-family="Arial" font-size="14.00">session_entry_id </text>
<text text-anchor="start" x="555.76" y="-1702.8" font-family="Arial" font-size="14.00" fill="#666666">[VARCHAR]</text>
<polygon fill="none" stroke="black" points="439.81,-1659.8 439.81,-1690.6 726.94,-1690.6 726.94,-1659.8 439.81,-1659.8"/>
<text text-anchor="start" x="446.81" y="-1672" font-family="Arial" font-size="14.00">from_state </text>
<text text-anchor="start" x="516.84" y="-1672" font-family="Arial" font-size="14.00" fill="#666666">[TEXT]</text>
<polygon fill="none" stroke="black" points="439.81,-1629 439.81,-1659.8 726.94,-1659.8 726.94,-1629 439.81,-1629"/>
<text text-anchor="start" x="446.81" y="-1641.2" font-family="Arial" font-size="14.00">to_state </text>
<text text-anchor="start" x="500.51" y="-1641.2" font-family="Arial" font-size="14.00" fill="#666666">[TEXT]</text>
<polygon fill="none" stroke="black" points="439.81,-1598.2 439.81,-1629 726.94,-1629 726.94,-1598.2 439.81,-1598.2"/>
<text text-anchor="start" x="446.81" y="-1610.4" font-family="Arial" font-size="14.00">transition_result </text>
<text text-anchor="start" x="549.53" y="-1610.4" font-family="Arial" font-size="14.00" fill="#666666">[TEXT]</text>
<polygon fill="none" stroke="black" points="439.81,-1567.4 439.81,-1598.2 726.94,-1598.2 726.94,-1567.4 439.81,-1567.4"/>
<text text-anchor="start" x="446.81" y="-1579.6" font-family="Arial" font-size="14.00">transition_reason </text>
<text text-anchor="start" x="558.1" y="-1579.6" font-family="Arial" font-size="14.00" fill="#666666">[TEXT]</text>
<polygon fill="none" stroke="black" points="439.81,-1536.6 439.81,-1567.4 726.94,-1567.4 726.94,-1536.6 439.81,-1536.6"/>
<text text-anchor="start" x="446.81" y="-1548.8" font-family="Arial" font-size="14.00">transitioned_at </text>
<text text-anchor="start" x="542.54" y="-1548.8" font-family="Arial" font-size="14.00" fill="#666666">[TIMESTAMPTZ]</text>
<polygon fill="none" stroke="black" points="439.81,-1505.8 439.81,-1536.6 726.94,-1536.6 726.94,-1505.8 439.81,-1505.8"/>
<text text-anchor="start" x="446.81" y="-1518" font-family="Arial" font-size="14.00">elaboration </text>
<text text-anchor="start" x="519.98" y="-1518" font-family="Arial" font-size="14.00" fill="#666666">[TEXT]</text>
</g>
<!-- orchestration_session_state&#45;&gt;orchestration_session -->
<g id="edge5" class="edge">
<title>orchestration_session_state:session_id&#45;&gt;orchestration_session:orchestration_session_id</title>
<path fill="none" stroke="black" d="M732.46,-1727.4C755.71,-1637.01 792.02,-925 770.87,-925"/>
<polygon fill="black" stroke="black" points="732.42,-1727.49 724.03,-1734.55 730.11,-1732.29 728.23,-1736.2 728.23,-1736.2 728.23,-1736.2 730.11,-1732.29 732.14,-1738.45 732.42,-1727.49"/>
</g>
<!-- orchestration_session_state&#45;&gt;orchestration_session_entry -->
<g id="edge9" class="edge">
<title>orchestration_session_state:session_entry_id&#45;&gt;orchestration_session_entry:orchestration_session_entry_id</title>
<path fill="none" stroke="black" d="M428.83,-1703.35C388.46,-1679.77 413.94,-1505.84 439.81,-1462.6 502.75,-1357.4 619.04,-1436.19 682.33,-1331.2 703.94,-1295.34 725.2,-1237 683.33,-1237"/>
<polygon fill="black" stroke="black" points="428.82,-1703.35 437.33,-1710.26 433.98,-1704.72 438.16,-1705.83 438.16,-1705.83 438.16,-1705.83 433.98,-1704.72 439.64,-1701.56 428.82,-1703.35"/>
</g>
<!-- orchestration_session_issue -->
<g id="node5" class="node">
<title>orchestration_session_issue</title>
<polygon fill="#efefef" stroke="none" points="831.76,-1798.4 831.76,-1834 1114.99,-1834 1114.99,-1798.4 831.76,-1798.4"/>
<polygon fill="none" stroke="black" points="831.76,-1798.4 831.76,-1834 1114.99,-1834 1114.99,-1798.4 831.76,-1798.4"/>
<text text-anchor="start" x="838.76" y="-1811.8" font-family="Arial Bold" font-size="18.00">orchestration_session_issue</text>
<text text-anchor="start" x="1038.73" y="-1811.8" font-family="Arial" font-size="14.00">    </text>
<text text-anchor="start" x="1069.85" y="-1811.8" font-family="Arial" font-size="14.00" fill="#666666">[table]</text>
<polygon fill="none" stroke="black" points="831.76,-1767.6 831.76,-1798.4 1114.99,-1798.4 1114.99,-1767.6 831.76,-1767.6"/>
<text text-anchor="start" x="838.76" y="-1779.8" font-family="Arial" font-size="14.00">orchestration_session_issue_id </text>
<text text-anchor="start" x="1037.99" y="-1779.8" font-family="Arial" font-size="14.00" fill="#666666">[UUID]</text>
<polygon fill="none" stroke="black" points="831.76,-1736.8 831.76,-1767.6 1114.99,-1767.6 1114.99,-1736.8 831.76,-1736.8"/>
<text text-anchor="start" x="838.76" y="-1749" font-family="Arial" font-size="14.00">session_id </text>
<text text-anchor="start" x="908.8" y="-1749" font-family="Arial" font-size="14.00" fill="#666666">[VARCHAR]</text>
<polygon fill="none" stroke="black" points="831.76,-1706 831.76,-1736.8 1114.99,-1736.8 1114.99,-1706 831.76,-1706"/>
<text text-anchor="start" x="838.76" y="-1718.2" font-family="Arial" font-size="14.00">session_entry_id </text>
<text text-anchor="start" x="947.71" y="-1718.2" font-family="Arial" font-size="14.00" fill="#666666">[VARCHAR]</text>
<polygon fill="none" stroke="black" points="831.76,-1675.2 831.76,-1706 1114.99,-1706 1114.99,-1675.2 831.76,-1675.2"/>
<text text-anchor="start" x="838.76" y="-1687.4" font-family="Arial" font-size="14.00">issue_type </text>
<text text-anchor="start" x="909.58" y="-1687.4" font-family="Arial" font-size="14.00" fill="#666666">[TEXT]</text>
<polygon fill="none" stroke="black" points="831.76,-1644.4 831.76,-1675.2 1114.99,-1675.2 1114.99,-1644.4 831.76,-1644.4"/>
<text text-anchor="start" x="838.76" y="-1656.6" font-family="Arial" font-size="14.00">issue_message </text>
<text text-anchor="start" x="939.93" y="-1656.6" font-family="Arial" font-size="14.00" fill="#666666">[TEXT]</text>
<polygon fill="none" stroke="black" points="831.76,-1613.6 831.76,-1644.4 1114.99,-1644.4 1114.99,-1613.6 831.76,-1613.6"/>
<text text-anchor="start" x="838.76" y="-1625.8" font-family="Arial" font-size="14.00">issue_row </text>
<text text-anchor="start" x="905.68" y="-1625.8" font-family="Arial" font-size="14.00" fill="#666666">[INTEGER]</text>
<polygon fill="none" stroke="black" points="831.76,-1582.8 831.76,-1613.6 1114.99,-1613.6 1114.99,-1582.8 831.76,-1582.8"/>
<text text-anchor="start" x="838.76" y="-1595" font-family="Arial" font-size="14.00">issue_column </text>
<text text-anchor="start" x="928.25" y="-1595" font-family="Arial" font-size="14.00" fill="#666666">[TEXT]</text>
<polygon fill="none" stroke="black" points="831.76,-1552 831.76,-1582.8 1114.99,-1582.8 1114.99,-1552 831.76,-1552"/>
<text text-anchor="start" x="838.76" y="-1564.2" font-family="Arial" font-size="14.00">invalid_value </text>
<text text-anchor="start" x="923.6" y="-1564.2" font-family="Arial" font-size="14.00" fill="#666666">[TEXT]</text>
<polygon fill="none" stroke="black" points="831.76,-1521.2 831.76,-1552 1114.99,-1552 1114.99,-1521.2 831.76,-1521.2"/>
<text text-anchor="start" x="838.76" y="-1533.4" font-family="Arial" font-size="14.00">remediation </text>
<text text-anchor="start" x="915.8" y="-1533.4" font-family="Arial" font-size="14.00" fill="#666666">[TEXT]</text>
<polygon fill="none" stroke="black" points="831.76,-1490.4 831.76,-1521.2 1114.99,-1521.2 1114.99,-1490.4 831.76,-1490.4"/>
<text text-anchor="start" x="838.76" y="-1502.6" font-family="Arial" font-size="14.00">elaboration </text>
<text text-anchor="start" x="911.93" y="-1502.6" font-family="Arial" font-size="14.00" fill="#666666">[TEXT]</text>
</g>
<!-- orchestration_session_issue&#45;&gt;orchestration_session -->
<g id="edge6" class="edge">
<title>orchestration_session_issue:session_id&#45;&gt;orchestration_session:orchestration_session_id</title>
<path fill="none" stroke="black" d="M821.38,-1748.87C747.55,-1691.95 859.6,-925 770.87,-925"/>
<polygon fill="black" stroke="black" points="821.02,-1748.74 828.94,-1756.33 826.05,-1750.53 830.13,-1751.98 830.13,-1751.98 830.13,-1751.98 826.05,-1750.53 831.95,-1747.85 821.02,-1748.74"/>
</g>
<!-- orchestration_session_issue&#45;&gt;orchestration_session_entry -->
<g id="edge10" class="edge">
<title>orchestration_session_issue:session_entry_id&#45;&gt;orchestration_session_entry:orchestration_session_entry_id</title>
<path fill="none" stroke="black" d="M820.86,-1719.75C756.29,-1696.6 808.24,-1437.46 779.38,-1367.2 752.05,-1300.69 755.24,-1237 683.33,-1237"/>
<polygon fill="black" stroke="black" points="820.57,-1719.7 829.69,-1725.78 825.83,-1720.58 830.1,-1721.29 830.1,-1721.29 830.1,-1721.29 825.83,-1720.58 831.18,-1716.91 820.57,-1719.7"/>
</g>
</g>
</svg>
