<?xml version="1.0" encoding="UTF-8" standalone="no"?>
<!DOCTYPE svg PUBLIC "-//W3C//DTD SVG 1.1//EN"
 "http://www.w3.org/Graphics/SVG/1.1/DTD/svg11.dtd">
<!-- Generated by graphviz version 2.40.1 (20161225.0304)
 -->
<!-- Title: orchestration_session_exec Pages: 1 -->
<svg width="1247pt" height="2156pt"
 viewBox="0.00 0.00 1247.00 2156.00" xmlns="http://www.w3.org/2000/svg" xmlns:xlink="http://www.w3.org/1999/xlink">
<g id="graph0" class="graph" transform="scale(1 1) rotate(0) translate(4 2152)">
<title>orchestration_session_exec</title>
<polygon fill="#ffffff" stroke="transparent" points="-4,4 -4,-2152 1243,-2152 1243,4 -4,4"/>
<!-- orchestration_session_exec -->
<g id="node1" class="node">
<title>orchestration_session_exec</title>
<polygon fill="#efefef" stroke="transparent" points="46.5,-1836.5 46.5,-1871.5 355.5,-1871.5 355.5,-1836.5 46.5,-1836.5"/>
<polygon fill="none" stroke="#000000" points="46.5,-1836.5 46.5,-1871.5 355.5,-1871.5 355.5,-1836.5 46.5,-1836.5"/>
<text text-anchor="start" x="53.3056" y="-1849.3" font-family="Arial Bold" font-size="18.00" fill="#000000">orchestration_session_exec</text>
<text text-anchor="start" x="276.3634" y="-1849.3" font-family="Arial" font-size="14.00" fill="#000000">    </text>
<text text-anchor="start" x="310.5682" y="-1849.3" font-family="Arial" font-size="14.00" fill="#666666">[table]</text>
<polygon fill="none" stroke="#000000" points="46.5,-1806.5 46.5,-1836.5 355.5,-1836.5 355.5,-1806.5 46.5,-1806.5"/>
<text text-anchor="start" x="53.5" y="-1817.9" font-family="Arial" font-size="14.00" fill="#000000">orchestration_session_exec_id </text>
<text text-anchor="start" x="249.5518" y="-1817.9" font-family="Arial" font-size="14.00" fill="#666666">[VARCHAR]</text>
<polygon fill="none" stroke="#000000" points="46.5,-1776.5 46.5,-1806.5 355.5,-1806.5 355.5,-1776.5 46.5,-1776.5"/>
<text text-anchor="start" x="53.5" y="-1787.9" font-family="Arial" font-size="14.00" fill="#000000">exec_nature </text>
<text text-anchor="start" x="134.42" y="-1787.9" font-family="Arial" font-size="14.00" fill="#666666">[TEXT]</text>
<polygon fill="none" stroke="#000000" points="46.5,-1746.5 46.5,-1776.5 355.5,-1776.5 355.5,-1746.5 46.5,-1746.5"/>
<text text-anchor="start" x="53.5" y="-1757.9" font-family="Arial" font-size="14.00" fill="#000000">session_id </text>
<text text-anchor="start" x="123.5168" y="-1757.9" font-family="Arial" font-size="14.00" fill="#666666">[VARCHAR]</text>
<polygon fill="none" stroke="#000000" points="46.5,-1716.5 46.5,-1746.5 355.5,-1746.5 355.5,-1716.5 46.5,-1716.5"/>
<text text-anchor="start" x="53.5" y="-1727.9" font-family="Arial" font-size="14.00" fill="#000000">session_entry_id </text>
<text text-anchor="start" x="162.4158" y="-1727.9" font-family="Arial" font-size="14.00" fill="#666666">[VARCHAR]</text>
<polygon fill="none" stroke="#000000" points="46.5,-1686.5 46.5,-1716.5 355.5,-1716.5 355.5,-1686.5 46.5,-1686.5"/>
<text text-anchor="start" x="53.5" y="-1697.9" font-family="Arial" font-size="14.00" fill="#000000">parent_exec_id </text>
<text text-anchor="start" x="153.0918" y="-1697.9" font-family="Arial" font-size="14.00" fill="#666666">[VARCHAR]</text>
<polygon fill="none" stroke="#000000" points="46.5,-1656.5 46.5,-1686.5 355.5,-1686.5 355.5,-1656.5 46.5,-1656.5"/>
<text text-anchor="start" x="53.5" y="-1667.9" font-family="Arial" font-size="14.00" fill="#000000">namespace </text>
<text text-anchor="start" x="129.7468" y="-1667.9" font-family="Arial" font-size="14.00" fill="#666666">[TEXT]</text>
<polygon fill="none" stroke="#000000" points="46.5,-1626.5 46.5,-1656.5 355.5,-1656.5 355.5,-1626.5 46.5,-1626.5"/>
<text text-anchor="start" x="53.5" y="-1637.9" font-family="Arial" font-size="14.00" fill="#000000">exec_identity </text>
<text text-anchor="start" x="139.0806" y="-1637.9" font-family="Arial" font-size="14.00" fill="#666666">[TEXT]</text>
<polygon fill="none" stroke="#000000" points="46.5,-1596.5 46.5,-1626.5 355.5,-1626.5 355.5,-1596.5 46.5,-1596.5"/>
<text text-anchor="start" x="53.5" y="-1607.9" font-family="Arial" font-size="14.00" fill="#000000">exec_code </text>
<text text-anchor="start" x="125.0862" y="-1607.9" font-family="Arial" font-size="14.00" fill="#666666">[TEXT]</text>
<polygon fill="none" stroke="#000000" points="46.5,-1566.5 46.5,-1596.5 355.5,-1596.5 355.5,-1566.5 46.5,-1566.5"/>
<text text-anchor="start" x="53.5" y="-1577.9" font-family="Arial" font-size="14.00" fill="#000000">exec_status </text>
<text text-anchor="start" x="132.0848" y="-1577.9" font-family="Arial" font-size="14.00" fill="#666666">[INTEGER]</text>
<polygon fill="none" stroke="#000000" points="46.5,-1536.5 46.5,-1566.5 355.5,-1566.5 355.5,-1536.5 46.5,-1536.5"/>
<text text-anchor="start" x="53.5" y="-1547.9" font-family="Arial" font-size="14.00" fill="#000000">input_text </text>
<text text-anchor="start" x="118.082" y="-1547.9" font-family="Arial" font-size="14.00" fill="#666666">[TEXT]</text>
<polygon fill="none" stroke="#000000" points="46.5,-1506.5 46.5,-1536.5 355.5,-1536.5 355.5,-1506.5 46.5,-1506.5"/>
<text text-anchor="start" x="53.5" y="-1517.9" font-family="Arial" font-size="14.00" fill="#000000">exec_error_text </text>
<text text-anchor="start" x="154.6318" y="-1517.9" font-family="Arial" font-size="14.00" fill="#666666">[TEXT]</text>
<polygon fill="none" stroke="#000000" points="46.5,-1476.5 46.5,-1506.5 355.5,-1506.5 355.5,-1476.5 46.5,-1476.5"/>
<text text-anchor="start" x="53.5" y="-1487.9" font-family="Arial" font-size="14.00" fill="#000000">output_text </text>
<text text-anchor="start" x="126.6486" y="-1487.9" font-family="Arial" font-size="14.00" fill="#666666">[TEXT]</text>
<polygon fill="none" stroke="#000000" points="46.5,-1446.5 46.5,-1476.5 355.5,-1476.5 355.5,-1446.5 46.5,-1446.5"/>
<text text-anchor="start" x="53.5" y="-1457.9" font-family="Arial" font-size="14.00" fill="#000000">output_nature </text>
<text text-anchor="start" x="143.7664" y="-1457.9" font-family="Arial" font-size="14.00" fill="#666666">[TEXT]</text>
<polygon fill="none" stroke="#000000" points="46.5,-1416.5 46.5,-1446.5 355.5,-1446.5 355.5,-1416.5 46.5,-1416.5"/>
<text text-anchor="start" x="53.5" y="-1427.9" font-family="Arial" font-size="14.00" fill="#000000">narrative_md </text>
<text text-anchor="start" x="139.0652" y="-1427.9" font-family="Arial" font-size="14.00" fill="#666666">[TEXT]</text>
<polygon fill="none" stroke="#000000" points="46.5,-1386.5 46.5,-1416.5 355.5,-1416.5 355.5,-1386.5 46.5,-1386.5"/>
<text text-anchor="start" x="53.5" y="-1397.9" font-family="Arial" font-size="14.00" fill="#000000">elaboration </text>
<text text-anchor="start" x="126.6332" y="-1397.9" font-family="Arial" font-size="14.00" fill="#666666">[TEXT]</text>
<polygon fill="none" stroke="#000000" stroke-width="3" points="44.5,-1385.5 44.5,-1873.5 356.5,-1873.5 356.5,-1385.5 44.5,-1385.5"/>
</g>
<!-- orchestration_session_exec&#45;&gt;orchestration_session_exec -->
<g id="edge1" class="edge">
<title>orchestration_session_exec:parent_exec_id&#45;&gt;orchestration_session_exec:orchestration_session_exec_id</title>
<path fill="none" stroke="#000000" d="M202.7284,-1726.9221C210.4795,-1899.8587 210.07,-2148 201.5,-2148 192.7637,-2148 192.5077,-2003.2053 200.7322,-1836.6377"/>
<polygon fill="#000000" stroke="#000000" points="202.7167,-1726.6687 206.7506,-1716.4718 202.4861,-1721.674 202.2554,-1716.6794 202.2554,-1716.6794 202.2554,-1716.6794 202.4861,-1721.674 197.7602,-1716.887 202.7167,-1726.6687 202.7167,-1726.6687"/>
</g>
<!-- orchestration_session -->
<g id="node2" class="node">
<title>orchestration_session</title>
<polygon fill="#efefef" stroke="transparent" points="548.5,-919.5 548.5,-954.5 827.5,-954.5 827.5,-919.5 548.5,-919.5"/>
<polygon fill="none" stroke="#000000" points="548.5,-919.5 548.5,-954.5 827.5,-954.5 827.5,-919.5 548.5,-919.5"/>
<text text-anchor="start" x="564.3149" y="-932.3" font-family="Arial Bold" font-size="18.00" fill="#000000">orchestration_session</text>
<text text-anchor="start" x="739.3541" y="-932.3" font-family="Arial" font-size="14.00" fill="#000000">    </text>
<text text-anchor="start" x="773.5589" y="-932.3" font-family="Arial" font-size="14.00" fill="#666666">[table]</text>
<polygon fill="none" stroke="#000000" points="548.5,-889.5 548.5,-919.5 827.5,-919.5 827.5,-889.5 548.5,-889.5"/>
<text text-anchor="start" x="555.3822" y="-900.9" font-family="Arial" font-size="14.00" fill="#000000">orchestration_session_id    </text>
<text text-anchor="start" x="744.4004" y="-900.9" font-family="Arial" font-size="14.00" fill="#666666">[VARCHAR]</text>
<polygon fill="none" stroke="#000000" points="548.5,-859.5 548.5,-889.5 827.5,-889.5 827.5,-859.5 548.5,-859.5"/>
<text text-anchor="start" x="555.5" y="-870.9" font-family="Arial" font-size="14.00" fill="#000000">device_id    </text>
<text text-anchor="start" x="648.831" y="-870.9" font-family="Arial" font-size="14.00" fill="#666666">[VARCHAR]</text>
<polygon fill="none" stroke="#000000" points="548.5,-829.5 548.5,-859.5 827.5,-859.5 827.5,-829.5 548.5,-829.5"/>
<text text-anchor="start" x="555.5" y="-840.9" font-family="Arial" font-size="14.00" fill="#000000">orchestration_nature_id    </text>
<text text-anchor="start" x="736.7454" y="-840.9" font-family="Arial" font-size="14.00" fill="#666666">[TEXT]</text>
<polygon fill="none" stroke="#000000" points="548.5,-799.5 548.5,-829.5 827.5,-829.5 827.5,-799.5 548.5,-799.5"/>
<text text-anchor="start" x="555.5" y="-810.9" font-family="Arial" font-size="14.00" fill="#000000">version    </text>
<text text-anchor="start" x="634.8198" y="-810.9" font-family="Arial" font-size="14.00" fill="#666666">[TEXT]</text>
<polygon fill="none" stroke="#000000" points="548.5,-769.5 548.5,-799.5 827.5,-799.5 827.5,-769.5 548.5,-769.5"/>
<text text-anchor="start" x="555.5" y="-780.9" font-family="Arial" font-size="14.00" fill="#000000">orch_started_at    </text>
<text text-anchor="start" x="686.9586" y="-780.9" font-family="Arial" font-size="14.00" fill="#666666">[TIMESTAMPTZ]</text>
<polygon fill="none" stroke="#000000" points="548.5,-739.5 548.5,-769.5 827.5,-769.5 827.5,-739.5 548.5,-739.5"/>
<text text-anchor="start" x="555.5" y="-750.9" font-family="Arial" font-size="14.00" fill="#000000">orch_finished_at    </text>
<text text-anchor="start" x="692.4032" y="-750.9" font-family="Arial" font-size="14.00" fill="#666666">[TIMESTAMPTZ]</text>
<polygon fill="none" stroke="#000000" points="548.5,-709.5 548.5,-739.5 827.5,-739.5 827.5,-709.5 548.5,-709.5"/>
<text text-anchor="start" x="555.5" y="-720.9" font-family="Arial" font-size="14.00" fill="#000000">elaboration    </text>
<text text-anchor="start" x="658.9474" y="-720.9" font-family="Arial" font-size="14.00" fill="#666666">[TEXT]</text>
<polygon fill="none" stroke="#000000" points="548.5,-679.5 548.5,-709.5 827.5,-709.5 827.5,-679.5 548.5,-679.5"/>
<text text-anchor="start" x="555.5" y="-690.9" font-family="Arial" font-size="14.00" fill="#000000">args_json    </text>
<text text-anchor="start" x="650.385" y="-690.9" font-family="Arial" font-size="14.00" fill="#666666">[TEXT]</text>
<polygon fill="none" stroke="#000000" points="548.5,-649.5 548.5,-679.5 827.5,-679.5 827.5,-649.5 548.5,-649.5"/>
<text text-anchor="start" x="555.5" y="-660.9" font-family="Arial" font-size="14.00" fill="#000000">diagnostics_json    </text>
<text text-anchor="start" x="693.176" y="-660.9" font-family="Arial" font-size="14.00" fill="#666666">[TEXT]</text>
<polygon fill="none" stroke="#000000" points="548.5,-619.5 548.5,-649.5 827.5,-649.5 827.5,-619.5 548.5,-619.5"/>
<text text-anchor="start" x="555.5" y="-630.9" font-family="Arial" font-size="14.00" fill="#000000">diagnostics_md    </text>
<text text-anchor="start" x="686.9474" y="-630.9" font-family="Arial" font-size="14.00" fill="#666666">[TEXT]</text>
</g>
<!-- orchestration_session_exec&#45;&gt;orchestration_session -->
<g id="edge2" class="edge">
<title>orchestration_session_exec:session_id&#45;&gt;orchestration_session:orchestration_session_id</title>
<path fill="none" stroke="#000000" d="M359.0676,-1751.9993C372.7624,-1667.7126 353.7038,-1050.6467 362.5,-1034 409.5599,-944.9394 447.7706,-904.5 548.5,-904.5"/>
<polygon fill="#000000" stroke="#000000" points="359.0155,-1752.1383 351.2872,-1759.918 357.2577,-1756.8191 355.5,-1761.5 355.5,-1761.5 355.5,-1761.5 357.2577,-1756.8191 359.7128,-1763.082 359.0155,-1752.1383 359.0155,-1752.1383"/>
</g>
<!-- orchestration_session_entry -->
<g id="node3" class="node">
<title>orchestration_session_entry</title>
<polygon fill="#efefef" stroke="transparent" points="414.5,-1226.5 414.5,-1261.5 732.5,-1261.5 732.5,-1226.5 414.5,-1226.5"/>
<polygon fill="none" stroke="#000000" points="414.5,-1226.5 414.5,-1261.5 732.5,-1261.5 732.5,-1226.5 414.5,-1226.5"/>
<text text-anchor="start" x="424.8084" y="-1239.3" font-family="Arial Bold" font-size="18.00" fill="#000000">orchestration_session_entry</text>
<text text-anchor="start" x="649.8606" y="-1239.3" font-family="Arial" font-size="14.00" fill="#000000">    </text>
<text text-anchor="start" x="684.0654" y="-1239.3" font-family="Arial" font-size="14.00" fill="#666666">[table]</text>
<polygon fill="none" stroke="#000000" points="414.5,-1196.5 414.5,-1226.5 732.5,-1226.5 732.5,-1196.5 414.5,-1196.5"/>
<text text-anchor="start" x="421.4327" y="-1207.9" font-family="Arial" font-size="14.00" fill="#000000">orchestration_session_entry_id    </text>
<text text-anchor="start" x="649.3499" y="-1207.9" font-family="Arial" font-size="14.00" fill="#666666">[VARCHAR]</text>
<polygon fill="none" stroke="#000000" points="414.5,-1166.5 414.5,-1196.5 732.5,-1196.5 732.5,-1166.5 414.5,-1166.5"/>
<text text-anchor="start" x="421.5" y="-1177.9" font-family="Arial" font-size="14.00" fill="#000000">session_id    </text>
<text text-anchor="start" x="521.831" y="-1177.9" font-family="Arial" font-size="14.00" fill="#666666">[VARCHAR]</text>
<polygon fill="none" stroke="#000000" points="414.5,-1136.5 414.5,-1166.5 732.5,-1166.5 732.5,-1136.5 414.5,-1136.5"/>
<text text-anchor="start" x="421.5" y="-1147.9" font-family="Arial" font-size="14.00" fill="#000000">ingest_src    </text>
<text text-anchor="start" x="519.493" y="-1147.9" font-family="Arial" font-size="14.00" fill="#666666">[TEXT]</text>
<polygon fill="none" stroke="#000000" points="414.5,-1106.5 414.5,-1136.5 732.5,-1136.5 732.5,-1106.5 414.5,-1106.5"/>
<text text-anchor="start" x="421.5" y="-1117.9" font-family="Arial" font-size="14.00" fill="#000000">ingest_table_name    </text>
<text text-anchor="start" x="573.9684" y="-1117.9" font-family="Arial" font-size="14.00" fill="#666666">[TEXT]</text>
<polygon fill="none" stroke="#000000" points="414.5,-1076.5 414.5,-1106.5 732.5,-1106.5 732.5,-1076.5 414.5,-1076.5"/>
<text text-anchor="start" x="421.5" y="-1087.9" font-family="Arial" font-size="14.00" fill="#000000">elaboration    </text>
<text text-anchor="start" x="524.9474" y="-1087.9" font-family="Arial" font-size="14.00" fill="#666666">[TEXT]</text>
</g>
<!-- orchestration_session_exec&#45;&gt;orchestration_session_entry -->
<g id="edge3" class="edge">
<title>orchestration_session_exec:session_entry_id&#45;&gt;orchestration_session_entry:orchestration_session_entry_id</title>
<path fill="none" stroke="#000000" d="M365.5712,-1730.0083C461.2305,-1699.5078 301.8373,-1211.5 414.5,-1211.5"/>
<polygon fill="#000000" stroke="#000000" points="365.3921,-1730.0348 354.8406,-1727.0486 360.446,-1730.7674 355.5,-1731.5 355.5,-1731.5 355.5,-1731.5 360.446,-1730.7674 356.1594,-1735.9514 365.3921,-1730.0348 365.3921,-1730.0348"/>
</g>
<!-- device -->
<g id="node6" class="node">
<title>device</title>
<polygon fill="#efefef" stroke="transparent" points="405.5,-462.5 405.5,-497.5 629.5,-497.5 629.5,-462.5 405.5,-462.5"/>
<polygon fill="none" stroke="#000000" points="405.5,-462.5 405.5,-497.5 629.5,-497.5 629.5,-462.5 405.5,-462.5"/>
<text text-anchor="start" x="455.3281" y="-475.3" font-family="Arial Bold" font-size="18.00" fill="#000000">device</text>
<text text-anchor="start" x="507.3409" y="-475.3" font-family="Arial" font-size="14.00" fill="#000000">    </text>
<text text-anchor="start" x="541.5457" y="-475.3" font-family="Arial" font-size="14.00" fill="#666666">[table]</text>
<polygon fill="none" stroke="#000000" points="405.5,-432.5 405.5,-462.5 629.5,-462.5 629.5,-432.5 405.5,-432.5"/>
<text text-anchor="start" x="412.5" y="-443.9" font-family="Arial" font-size="14.00" fill="#000000">device_id    </text>
<text text-anchor="start" x="505.831" y="-443.9" font-family="Arial" font-size="14.00" fill="#666666">[VARCHAR]</text>
<polygon fill="none" stroke="#000000" points="405.5,-402.5 405.5,-432.5 629.5,-432.5 629.5,-402.5 405.5,-402.5"/>
<text text-anchor="start" x="412.5" y="-413.9" font-family="Arial" font-size="14.00" fill="#000000">name    </text>
<text text-anchor="start" x="481.7132" y="-413.9" font-family="Arial" font-size="14.00" fill="#666666">[TEXT]</text>
<polygon fill="none" stroke="#000000" points="405.5,-372.5 405.5,-402.5 629.5,-402.5 629.5,-372.5 405.5,-372.5"/>
<text text-anchor="start" x="412.5" y="-383.9" font-family="Arial" font-size="14.00" fill="#000000">state    </text>
<text text-anchor="start" x="477.0512" y="-383.9" font-family="Arial" font-size="14.00" fill="#666666">[TEXT]</text>
<polygon fill="none" stroke="#000000" points="405.5,-342.5 405.5,-372.5 629.5,-372.5 629.5,-342.5 405.5,-342.5"/>
<text text-anchor="start" x="412.5" y="-353.9" font-family="Arial" font-size="14.00" fill="#000000">boundary    </text>
<text text-anchor="start" x="505.061" y="-353.9" font-family="Arial" font-size="14.00" fill="#666666">[TEXT]</text>
<polygon fill="none" stroke="#000000" points="405.5,-312.5 405.5,-342.5 629.5,-342.5 629.5,-312.5 405.5,-312.5"/>
<text text-anchor="start" x="412.5" y="-323.9" font-family="Arial" font-size="14.00" fill="#000000">segmentation    </text>
<text text-anchor="start" x="530.7314" y="-323.9" font-family="Arial" font-size="14.00" fill="#666666">[TEXT]</text>
<polygon fill="none" stroke="#000000" points="405.5,-282.5 405.5,-312.5 629.5,-312.5 629.5,-282.5 405.5,-282.5"/>
<text text-anchor="start" x="412.5" y="-293.9" font-family="Arial" font-size="14.00" fill="#000000">state_sysinfo    </text>
<text text-anchor="start" x="528.3962" y="-293.9" font-family="Arial" font-size="14.00" fill="#666666">[TEXT]</text>
<polygon fill="none" stroke="#000000" points="405.5,-252.5 405.5,-282.5 629.5,-282.5 629.5,-252.5 405.5,-252.5"/>
<text text-anchor="start" x="412.5" y="-263.9" font-family="Arial" font-size="14.00" fill="#000000">elaboration    </text>
<text text-anchor="start" x="515.9474" y="-263.9" font-family="Arial" font-size="14.00" fill="#666666">[TEXT]</text>
<polygon fill="none" stroke="#000000" points="405.5,-222.5 405.5,-252.5 629.5,-252.5 629.5,-222.5 405.5,-222.5"/>
<text text-anchor="start" x="412.5" y="-233.9" font-family="Arial" font-size="14.00" fill="#000000">created_at    </text>
<text text-anchor="start" x="512.8422" y="-233.9" font-family="Arial" font-size="14.00" fill="#666666">[TIMESTAMPTZ]</text>
<polygon fill="none" stroke="#000000" points="405.5,-192.5 405.5,-222.5 629.5,-222.5 629.5,-192.5 405.5,-192.5"/>
<text text-anchor="start" x="412.5" y="-203.9" font-family="Arial" font-size="14.00" fill="#000000">created_by    </text>
<text text-anchor="start" x="515.9516" y="-203.9" font-family="Arial" font-size="14.00" fill="#666666">[TEXT]</text>
<polygon fill="none" stroke="#000000" points="405.5,-162.5 405.5,-192.5 629.5,-192.5 629.5,-162.5 405.5,-162.5"/>
<text text-anchor="start" x="412.1017" y="-173.9" font-family="Arial" font-size="14.00" fill="#000000">updated_at    </text>
<text text-anchor="start" x="516.3485" y="-173.9" font-family="Arial" font-size="14.00" fill="#666666">[TIMESTAMPTZ]</text>
<polygon fill="none" stroke="#000000" points="405.5,-132.5 405.5,-162.5 629.5,-162.5 629.5,-132.5 405.5,-132.5"/>
<text text-anchor="start" x="412.5" y="-143.9" font-family="Arial" font-size="14.00" fill="#000000">updated_by    </text>
<text text-anchor="start" x="519.8562" y="-143.9" font-family="Arial" font-size="14.00" fill="#666666">[TEXT]</text>
<polygon fill="none" stroke="#000000" points="405.5,-102.5 405.5,-132.5 629.5,-132.5 629.5,-102.5 405.5,-102.5"/>
<text text-anchor="start" x="412.5" y="-113.9" font-family="Arial" font-size="14.00" fill="#000000">deleted_at    </text>
<text text-anchor="start" x="512.0708" y="-113.9" font-family="Arial" font-size="14.00" fill="#666666">[TIMESTAMPTZ]</text>
<polygon fill="none" stroke="#000000" points="405.5,-72.5 405.5,-102.5 629.5,-102.5 629.5,-72.5 405.5,-72.5"/>
<text text-anchor="start" x="412.5" y="-83.9" font-family="Arial" font-size="14.00" fill="#000000">deleted_by    </text>
<text text-anchor="start" x="515.1802" y="-83.9" font-family="Arial" font-size="14.00" fill="#666666">[TEXT]</text>
<polygon fill="none" stroke="#000000" points="405.5,-42.5 405.5,-72.5 629.5,-72.5 629.5,-42.5 405.5,-42.5"/>
<text text-anchor="start" x="412.5" y="-53.9" font-family="Arial" font-size="14.00" fill="#000000">activity_log    </text>
<text text-anchor="start" x="515.9362" y="-53.9" font-family="Arial" font-size="14.00" fill="#666666">[TEXT]</text>
</g>
<!-- orchestration_session&#45;&gt;device -->
<g id="edge7" class="edge">
<title>orchestration_session:device_id&#45;&gt;device:device_id</title>
<path fill="none" stroke="#000000" d="M538.439,-874.1156C419.4592,-864.7107 478.3501,-684.944 548.5,-577 569.9671,-543.9672 608.0329,-574.0328 629.5,-541 652.1442,-506.156 671.0556,-447.5 629.5,-447.5"/>
<polygon fill="#000000" stroke="#000000" points="538.5073,-874.1181 548.3281,-878.9967 543.5036,-874.309 548.5,-874.5 548.5,-874.5 548.5,-874.5 543.5036,-874.309 548.6719,-870.0033 538.5073,-874.1181 538.5073,-874.1181"/>
</g>
<!-- orchestration_nature -->
<g id="node7" class="node">
<title>orchestration_nature</title>
<polygon fill="#efefef" stroke="transparent" points="734.5,-402.5 734.5,-437.5 985.5,-437.5 985.5,-402.5 734.5,-402.5"/>
<polygon fill="none" stroke="#000000" points="734.5,-402.5 734.5,-437.5 985.5,-437.5 985.5,-402.5 734.5,-402.5"/>
<text text-anchor="start" x="741.3117" y="-415.3" font-family="Arial Bold" font-size="18.00" fill="#000000">orchestration_nature</text>
<text text-anchor="start" x="906.3573" y="-415.3" font-family="Arial" font-size="14.00" fill="#000000">    </text>
<text text-anchor="start" x="940.5621" y="-415.3" font-family="Arial" font-size="14.00" fill="#666666">[table]</text>
<polygon fill="none" stroke="#000000" points="734.5,-372.5 734.5,-402.5 985.5,-402.5 985.5,-372.5 734.5,-372.5"/>
<text text-anchor="start" x="741.5" y="-383.9" font-family="Arial" font-size="14.00" fill="#000000">orchestration_nature_id    </text>
<text text-anchor="start" x="922.7454" y="-383.9" font-family="Arial" font-size="14.00" fill="#666666">[TEXT]</text>
<polygon fill="none" stroke="#000000" points="734.5,-342.5 734.5,-372.5 985.5,-372.5 985.5,-342.5 734.5,-342.5"/>
<text text-anchor="start" x="741.5" y="-353.9" font-family="Arial" font-size="14.00" fill="#000000">nature    </text>
<text text-anchor="start" x="815.3864" y="-353.9" font-family="Arial" font-size="14.00" fill="#666666">[TEXT]</text>
<polygon fill="none" stroke="#000000" points="734.5,-312.5 734.5,-342.5 985.5,-342.5 985.5,-312.5 734.5,-312.5"/>
<text text-anchor="start" x="741.5" y="-323.9" font-family="Arial" font-size="14.00" fill="#000000">elaboration    </text>
<text text-anchor="start" x="844.9474" y="-323.9" font-family="Arial" font-size="14.00" fill="#666666">[TEXT]</text>
<polygon fill="none" stroke="#000000" points="734.5,-282.5 734.5,-312.5 985.5,-312.5 985.5,-282.5 734.5,-282.5"/>
<text text-anchor="start" x="741.5" y="-293.9" font-family="Arial" font-size="14.00" fill="#000000">created_at    </text>
<text text-anchor="start" x="841.8422" y="-293.9" font-family="Arial" font-size="14.00" fill="#666666">[TIMESTAMPTZ]</text>
<polygon fill="none" stroke="#000000" points="734.5,-252.5 734.5,-282.5 985.5,-282.5 985.5,-252.5 734.5,-252.5"/>
<text text-anchor="start" x="741.5" y="-263.9" font-family="Arial" font-size="14.00" fill="#000000">created_by    </text>
<text text-anchor="start" x="844.9516" y="-263.9" font-family="Arial" font-size="14.00" fill="#666666">[TEXT]</text>
<polygon fill="none" stroke="#000000" points="734.5,-222.5 734.5,-252.5 985.5,-252.5 985.5,-222.5 734.5,-222.5"/>
<text text-anchor="start" x="741.5" y="-233.9" font-family="Arial" font-size="14.00" fill="#000000">updated_at    </text>
<text text-anchor="start" x="845.7468" y="-233.9" font-family="Arial" font-size="14.00" fill="#666666">[TIMESTAMPTZ]</text>
<polygon fill="none" stroke="#000000" points="734.5,-192.5 734.5,-222.5 985.5,-222.5 985.5,-192.5 734.5,-192.5"/>
<text text-anchor="start" x="741.5" y="-203.9" font-family="Arial" font-size="14.00" fill="#000000">updated_by    </text>
<text text-anchor="start" x="848.8562" y="-203.9" font-family="Arial" font-size="14.00" fill="#666666">[TEXT]</text>
<polygon fill="none" stroke="#000000" points="734.5,-162.5 734.5,-192.5 985.5,-192.5 985.5,-162.5 734.5,-162.5"/>
<text text-anchor="start" x="741.5" y="-173.9" font-family="Arial" font-size="14.00" fill="#000000">deleted_at    </text>
<text text-anchor="start" x="841.0708" y="-173.9" font-family="Arial" font-size="14.00" fill="#666666">[TIMESTAMPTZ]</text>
<polygon fill="none" stroke="#000000" points="734.5,-132.5 734.5,-162.5 985.5,-162.5 985.5,-132.5 734.5,-132.5"/>
<text text-anchor="start" x="741.5" y="-143.9" font-family="Arial" font-size="14.00" fill="#000000">deleted_by    </text>
<text text-anchor="start" x="844.1802" y="-143.9" font-family="Arial" font-size="14.00" fill="#666666">[TEXT]</text>
<polygon fill="none" stroke="#000000" points="734.5,-102.5 734.5,-132.5 985.5,-132.5 985.5,-102.5 734.5,-102.5"/>
<text text-anchor="start" x="741.5" y="-113.9" font-family="Arial" font-size="14.00" fill="#000000">activity_log    </text>
<text text-anchor="start" x="844.9362" y="-113.9" font-family="Arial" font-size="14.00" fill="#666666">[TEXT]</text>
</g>
<!-- orchestration_session&#45;&gt;orchestration_nature -->
<g id="edge8" class="edge">
<title>orchestration_session:orchestration_nature_id&#45;&gt;orchestration_nature:orchestration_nature_id</title>
<path fill="none" stroke="#000000" d="M837.7726,-844.0732C941.9195,-835.0189 870.7728,-683.8606 827.5,-577 805.2032,-521.9388 756.7968,-536.0612 734.5,-481 718.9026,-442.4827 692.9444,-387.5 734.5,-387.5"/>
<polygon fill="#000000" stroke="#000000" points="837.4914,-844.0848 827.3131,-840.0039 832.4957,-844.2924 827.5,-844.5 827.5,-844.5 827.5,-844.5 832.4957,-844.2924 827.6869,-848.9961 837.4914,-844.0848 837.4914,-844.0848"/>
</g>
<!-- orchestration_session_entry&#45;&gt;orchestration_session -->
<g id="edge4" class="edge">
<title>orchestration_session_entry:session_id&#45;&gt;orchestration_session:orchestration_session_id</title>
<path fill="none" stroke="#000000" d="M742.4644,-1180.6541C795.3896,-1171.041 771.8888,-1081.8421 732.5,-1034 679.5361,-969.6694 601.4639,-1062.3306 548.5,-998 522.0871,-965.9185 506.9444,-904.5 548.5,-904.5"/>
<polygon fill="#000000" stroke="#000000" points="742.4642,-1180.654 732.1193,-1177.0161 737.4821,-1181.077 732.5,-1181.5 732.5,-1181.5 732.5,-1181.5 737.4821,-1181.077 732.8807,-1185.9839 742.4642,-1180.654 742.4642,-1180.654"/>
</g>
<!-- orchestration_session_state -->
<g id="node4" class="node">
<title>orchestration_session_state</title>
<polygon fill="#efefef" stroke="transparent" points="462.5,-1746.5 462.5,-1781.5 779.5,-1781.5 779.5,-1746.5 462.5,-1746.5"/>
<polygon fill="none" stroke="#000000" points="462.5,-1746.5 462.5,-1781.5 779.5,-1781.5 779.5,-1746.5 462.5,-1746.5"/>
<text text-anchor="start" x="472.8034" y="-1759.3" font-family="Arial Bold" font-size="18.00" fill="#000000">orchestration_session_state</text>
<text text-anchor="start" x="696.8656" y="-1759.3" font-family="Arial" font-size="14.00" fill="#000000">    </text>
<text text-anchor="start" x="731.0704" y="-1759.3" font-family="Arial" font-size="14.00" fill="#666666">[table]</text>
<polygon fill="none" stroke="#000000" points="462.5,-1716.5 462.5,-1746.5 779.5,-1746.5 779.5,-1716.5 462.5,-1716.5"/>
<text text-anchor="start" x="469.3177" y="-1727.9" font-family="Arial" font-size="14.00" fill="#000000">orchestration_session_state_id    </text>
<text text-anchor="start" x="696.4649" y="-1727.9" font-family="Arial" font-size="14.00" fill="#666666">[VARCHAR]</text>
<polygon fill="none" stroke="#000000" points="462.5,-1686.5 462.5,-1716.5 779.5,-1716.5 779.5,-1686.5 462.5,-1686.5"/>
<text text-anchor="start" x="469.5" y="-1697.9" font-family="Arial" font-size="14.00" fill="#000000">session_id    </text>
<text text-anchor="start" x="569.831" y="-1697.9" font-family="Arial" font-size="14.00" fill="#666666">[VARCHAR]</text>
<polygon fill="none" stroke="#000000" points="462.5,-1656.5 462.5,-1686.5 779.5,-1686.5 779.5,-1656.5 462.5,-1656.5"/>
<text text-anchor="start" x="469.5" y="-1667.9" font-family="Arial" font-size="14.00" fill="#000000">session_entry_id    </text>
<text text-anchor="start" x="608.73" y="-1667.9" font-family="Arial" font-size="14.00" fill="#666666">[VARCHAR]</text>
<polygon fill="none" stroke="#000000" points="462.5,-1626.5 462.5,-1656.5 779.5,-1656.5 779.5,-1626.5 462.5,-1626.5"/>
<text text-anchor="start" x="469.5" y="-1637.9" font-family="Arial" font-size="14.00" fill="#000000">from_state    </text>
<text text-anchor="start" x="569.8282" y="-1637.9" font-family="Arial" font-size="14.00" fill="#666666">[TEXT]</text>
<polygon fill="none" stroke="#000000" points="462.5,-1596.5 462.5,-1626.5 779.5,-1626.5 779.5,-1596.5 462.5,-1596.5"/>
<text text-anchor="start" x="469.5" y="-1607.9" font-family="Arial" font-size="14.00" fill="#000000">to_state    </text>
<text text-anchor="start" x="553.507" y="-1607.9" font-family="Arial" font-size="14.00" fill="#666666">[TEXT]</text>
<polygon fill="none" stroke="#000000" points="462.5,-1566.5 462.5,-1596.5 779.5,-1596.5 779.5,-1566.5 462.5,-1566.5"/>
<text text-anchor="start" x="469.5" y="-1577.9" font-family="Arial" font-size="14.00" fill="#000000">transition_result    </text>
<text text-anchor="start" x="602.4958" y="-1577.9" font-family="Arial" font-size="14.00" fill="#666666">[TEXT]</text>
<polygon fill="none" stroke="#000000" points="462.5,-1536.5 462.5,-1566.5 779.5,-1566.5 779.5,-1536.5 462.5,-1536.5"/>
<text text-anchor="start" x="469.5" y="-1547.9" font-family="Arial" font-size="14.00" fill="#000000">transition_reason    </text>
<text text-anchor="start" x="611.0638" y="-1547.9" font-family="Arial" font-size="14.00" fill="#666666">[TEXT]</text>
<polygon fill="none" stroke="#000000" points="462.5,-1506.5 462.5,-1536.5 779.5,-1536.5 779.5,-1506.5 462.5,-1506.5"/>
<text text-anchor="start" x="469.5" y="-1517.9" font-family="Arial" font-size="14.00" fill="#000000">transitioned_at    </text>
<text text-anchor="start" x="595.5112" y="-1517.9" font-family="Arial" font-size="14.00" fill="#666666">[TIMESTAMPTZ]</text>
<polygon fill="none" stroke="#000000" points="462.5,-1476.5 462.5,-1506.5 779.5,-1506.5 779.5,-1476.5 462.5,-1476.5"/>
<text text-anchor="start" x="469.5" y="-1487.9" font-family="Arial" font-size="14.00" fill="#000000">elaboration    </text>
<text text-anchor="start" x="572.9474" y="-1487.9" font-family="Arial" font-size="14.00" fill="#666666">[TEXT]</text>
</g>
<!-- orchestration_session_state&#45;&gt;orchestration_session -->
<g id="edge5" class="edge">
<title>orchestration_session_state:session_id&#45;&gt;orchestration_session:orchestration_session_id</title>
<path fill="none" stroke="#000000" d="M784.0111,-1692.2737C807.49,-1603.5297 848.2712,-904.5 827.5,-904.5"/>
<polygon fill="#000000" stroke="#000000" points="783.8925,-1692.5163 775.4573,-1699.5234 781.6963,-1697.0082 779.5,-1701.5 779.5,-1701.5 779.5,-1701.5 781.6963,-1697.0082 783.5427,-1703.4766 783.8925,-1692.5163 783.8925,-1692.5163"/>
</g>
<!-- orchestration_session_state&#45;&gt;orchestration_session_entry -->
<g id="edge9" class="edge">
<title>orchestration_session_state:session_entry_id&#45;&gt;orchestration_session_entry:orchestration_session_entry_id</title>
<path fill="none" stroke="#000000" d="M452.4896,-1668.7582C413.2031,-1645.1125 436.3308,-1475.5057 462.5,-1434 533.4302,-1321.501 661.5698,-1417.499 732.5,-1305 754.6632,-1269.8481 774.0556,-1211.5 732.5,-1211.5"/>
<polygon fill="#000000" stroke="#000000" points="452.8552,-1668.8583 461.3112,-1675.8402 457.6776,-1670.1791 462.5,-1671.5 462.5,-1671.5 462.5,-1671.5 457.6776,-1670.1791 463.6888,-1667.1598 452.8552,-1668.8583 452.8552,-1668.8583"/>
</g>
<!-- orchestration_session_issue -->
<g id="node5" class="node">
<title>orchestration_session_issue</title>
<polygon fill="#efefef" stroke="transparent" points="883.5,-1761.5 883.5,-1796.5 1196.5,-1796.5 1196.5,-1761.5 883.5,-1761.5"/>
<polygon fill="none" stroke="#000000" points="883.5,-1761.5 883.5,-1796.5 1196.5,-1796.5 1196.5,-1761.5 883.5,-1761.5"/>
<text text-anchor="start" x="890.3085" y="-1774.3" font-family="Arial Bold" font-size="18.00" fill="#000000">orchestration_session_issue</text>
<text text-anchor="start" x="1117.3605" y="-1774.3" font-family="Arial" font-size="14.00" fill="#000000">    </text>
<text text-anchor="start" x="1151.5653" y="-1774.3" font-family="Arial" font-size="14.00" fill="#666666">[table]</text>
<polygon fill="none" stroke="#000000" points="883.5,-1731.5 883.5,-1761.5 1196.5,-1761.5 1196.5,-1731.5 883.5,-1731.5"/>
<text text-anchor="start" x="890.5" y="-1742.9" font-family="Arial" font-size="14.00" fill="#000000">orchestration_session_issue_id    </text>
<text text-anchor="start" x="1119.9726" y="-1742.9" font-family="Arial" font-size="14.00" fill="#666666">[UUID]</text>
<polygon fill="none" stroke="#000000" points="883.5,-1701.5 883.5,-1731.5 1196.5,-1731.5 1196.5,-1701.5 883.5,-1701.5"/>
<text text-anchor="start" x="890.5" y="-1712.9" font-family="Arial" font-size="14.00" fill="#000000">session_id    </text>
<text text-anchor="start" x="990.831" y="-1712.9" font-family="Arial" font-size="14.00" fill="#666666">[VARCHAR]</text>
<polygon fill="none" stroke="#000000" points="883.5,-1671.5 883.5,-1701.5 1196.5,-1701.5 1196.5,-1671.5 883.5,-1671.5"/>
<text text-anchor="start" x="890.5" y="-1682.9" font-family="Arial" font-size="14.00" fill="#000000">session_entry_id    </text>
<text text-anchor="start" x="1029.73" y="-1682.9" font-family="Arial" font-size="14.00" fill="#666666">[VARCHAR]</text>
<polygon fill="none" stroke="#000000" points="883.5,-1641.5 883.5,-1671.5 1196.5,-1671.5 1196.5,-1641.5 883.5,-1641.5"/>
<text text-anchor="start" x="890.5" y="-1652.9" font-family="Arial" font-size="14.00" fill="#000000">issue_type    </text>
<text text-anchor="start" x="991.615" y="-1652.9" font-family="Arial" font-size="14.00" fill="#666666">[TEXT]</text>
<polygon fill="none" stroke="#000000" points="883.5,-1611.5 883.5,-1641.5 1196.5,-1641.5 1196.5,-1611.5 883.5,-1611.5"/>
<text text-anchor="start" x="890.5" y="-1622.9" font-family="Arial" font-size="14.00" fill="#000000">issue_message    </text>
<text text-anchor="start" x="1021.9502" y="-1622.9" font-family="Arial" font-size="14.00" fill="#666666">[TEXT]</text>
<polygon fill="none" stroke="#000000" points="883.5,-1581.5 883.5,-1611.5 1196.5,-1611.5 1196.5,-1581.5 883.5,-1581.5"/>
<text text-anchor="start" x="890.5" y="-1592.9" font-family="Arial" font-size="14.00" fill="#000000">issue_row    </text>
<text text-anchor="start" x="987.709" y="-1592.9" font-family="Arial" font-size="14.00" fill="#666666">[INTEGER]</text>
<polygon fill="none" stroke="#000000" points="883.5,-1551.5 883.5,-1581.5 1196.5,-1581.5 1196.5,-1551.5 883.5,-1551.5"/>
<text text-anchor="start" x="890.5" y="-1562.9" font-family="Arial" font-size="14.00" fill="#000000">issue_column    </text>
<text text-anchor="start" x="1010.2742" y="-1562.9" font-family="Arial" font-size="14.00" fill="#666666">[TEXT]</text>
<polygon fill="none" stroke="#000000" points="883.5,-1521.5 883.5,-1551.5 1196.5,-1551.5 1196.5,-1521.5 883.5,-1521.5"/>
<text text-anchor="start" x="890.5" y="-1532.9" font-family="Arial" font-size="14.00" fill="#000000">invalid_value    </text>
<text text-anchor="start" x="1005.6094" y="-1532.9" font-family="Arial" font-size="14.00" fill="#666666">[TEXT]</text>
<polygon fill="none" stroke="#000000" points="883.5,-1491.5 883.5,-1521.5 1196.5,-1521.5 1196.5,-1491.5 883.5,-1491.5"/>
<text text-anchor="start" x="890.5" y="-1502.9" font-family="Arial" font-size="14.00" fill="#000000">remediation    </text>
<text text-anchor="start" x="997.8254" y="-1502.9" font-family="Arial" font-size="14.00" fill="#666666">[TEXT]</text>
<polygon fill="none" stroke="#000000" points="883.5,-1461.5 883.5,-1491.5 1196.5,-1491.5 1196.5,-1461.5 883.5,-1461.5"/>
<text text-anchor="start" x="890.5" y="-1472.9" font-family="Arial" font-size="14.00" fill="#000000">elaboration    </text>
<text text-anchor="start" x="993.9474" y="-1472.9" font-family="Arial" font-size="14.00" fill="#666666">[TEXT]</text>
</g>
<!-- orchestration_session_issue&#45;&gt;orchestration_session -->
<g id="edge6" class="edge">
<title>orchestration_session_issue:session_id&#45;&gt;orchestration_session:orchestration_session_id</title>
<path fill="none" stroke="#000000" d="M873.8619,-1712.8798C802.4906,-1654.3015 914.4039,-904.5 827.5,-904.5"/>
<polygon fill="#000000" stroke="#000000" points="874.1386,-1712.9836 881.9176,-1720.7126 878.8193,-1714.7418 883.5,-1716.5 883.5,-1716.5 883.5,-1716.5 878.8193,-1714.7418 885.0824,-1712.2874 874.1386,-1712.9836 874.1386,-1712.9836"/>
</g>
<!-- orchestration_session_issue&#45;&gt;orchestration_session_entry -->
<g id="edge10" class="edge">
<title>orchestration_session_issue:session_entry_id&#45;&gt;orchestration_session_entry:orchestration_session_entry_id</title>
<path fill="none" stroke="#000000" d="M873.4285,-1684.7432C810.7862,-1661.2614 859.3314,-1409.1902 830.5,-1341 802.3915,-1274.5196 804.6784,-1211.5 732.5,-1211.5"/>
<polygon fill="#000000" stroke="#000000" points="873.6487,-1684.7815 882.7267,-1690.9331 878.5744,-1685.6408 883.5,-1686.5 883.5,-1686.5 883.5,-1686.5 878.5744,-1685.6408 884.2733,-1682.0669 873.6487,-1684.7815 873.6487,-1684.7815"/>
</g>
</g>
</svg>
