<?xml version="1.0" encoding="UTF-8" standalone="no"?>
<!DOCTYPE svg PUBLIC "-//W3C//DTD SVG 1.1//EN"
 "http://www.w3.org/Graphics/SVG/1.1/DTD/svg11.dtd">
<!-- Generated by graphviz version 12.1.2 (20240928.0832)
 -->
<!-- Title: orchestration_nature Pages: 1 -->
<svg width="1552pt" height="1647pt"
 viewBox="0.00 0.00 1551.96 1647.20" xmlns="http://www.w3.org/2000/svg" xmlns:xlink="http://www.w3.org/1999/xlink">
<g id="graph0" class="graph" transform="scale(1 1) rotate(0) translate(4 1643.2)">
<title>orchestration_nature</title>
<polygon fill="white" stroke="none" points="-4,4 -4,-1643.2 1547.96,-1643.2 1547.96,4 -4,4"/>
<!-- orchestration_nature -->
<g id="node1" class="node">
<title>orchestration_nature</title>
<polygon fill="#efefef" stroke="none" points="498.55,-412.8 498.55,-448.4 729.75,-448.4 729.75,-412.8 498.55,-412.8"/>
<polygon fill="none" stroke="black" points="498.55,-412.8 498.55,-448.4 729.75,-448.4 729.75,-412.8 498.55,-412.8"/>
<text text-anchor="start" x="505.55" y="-426.2" font-family="Arial Bold" font-size="18.00">orchestration_nature</text>
<text text-anchor="start" x="653.49" y="-426.2" font-family="Arial" font-size="14.00">    </text>
<text text-anchor="start" x="684.61" y="-426.2" font-family="Arial" font-size="14.00" fill="#666666">[table]</text>
<polygon fill="none" stroke="black" points="498.55,-382 498.55,-412.8 729.75,-412.8 729.75,-382 498.55,-382"/>
<text text-anchor="start" x="505.55" y="-394.2" font-family="Arial" font-size="14.00">orchestration_nature_id </text>
<text text-anchor="start" x="656.54" y="-394.2" font-family="Arial" font-size="14.00" fill="#666666">[TEXT]</text>
<polygon fill="none" stroke="black" points="498.55,-351.2 498.55,-382 729.75,-382 729.75,-351.2 498.55,-351.2"/>
<text text-anchor="start" x="505.55" y="-363.4" font-family="Arial" font-size="14.00">nature </text>
<text text-anchor="start" x="549.14" y="-363.4" font-family="Arial" font-size="14.00" fill="#666666">[TEXT]</text>
<polygon fill="none" stroke="black" points="498.55,-320.4 498.55,-351.2 729.75,-351.2 729.75,-320.4 498.55,-320.4"/>
<text text-anchor="start" x="505.55" y="-332.6" font-family="Arial" font-size="14.00">elaboration </text>
<text text-anchor="start" x="578.72" y="-332.6" font-family="Arial" font-size="14.00" fill="#666666">[TEXT]</text>
<polygon fill="none" stroke="black" points="498.55,-289.6 498.55,-320.4 729.75,-320.4 729.75,-289.6 498.55,-289.6"/>
<text text-anchor="start" x="505.55" y="-301.8" font-family="Arial" font-size="14.00">created_at </text>
<text text-anchor="start" x="575.6" y="-301.8" font-family="Arial" font-size="14.00" fill="#666666">[TIMESTAMPTZ]</text>
<polygon fill="none" stroke="black" points="498.55,-258.8 498.55,-289.6 729.75,-289.6 729.75,-258.8 498.55,-258.8"/>
<text text-anchor="start" x="505.55" y="-271" font-family="Arial" font-size="14.00">created_by </text>
<text text-anchor="start" x="578.71" y="-271" font-family="Arial" font-size="14.00" fill="#666666">[TEXT]</text>
<polygon fill="none" stroke="black" points="498.55,-228 498.55,-258.8 729.75,-258.8 729.75,-228 498.55,-228"/>
<text text-anchor="start" x="505.55" y="-240.2" font-family="Arial" font-size="14.00">updated_at </text>
<text text-anchor="start" x="579.51" y="-240.2" font-family="Arial" font-size="14.00" fill="#666666">[TIMESTAMPTZ]</text>
<polygon fill="none" stroke="black" points="498.55,-197.2 498.55,-228 729.75,-228 729.75,-197.2 498.55,-197.2"/>
<text text-anchor="start" x="505.55" y="-209.4" font-family="Arial" font-size="14.00">updated_by </text>
<text text-anchor="start" x="582.62" y="-209.4" font-family="Arial" font-size="14.00" fill="#666666">[TEXT]</text>
<polygon fill="none" stroke="black" points="498.55,-166.4 498.55,-197.2 729.75,-197.2 729.75,-166.4 498.55,-166.4"/>
<text text-anchor="start" x="505.55" y="-178.6" font-family="Arial" font-size="14.00">deleted_at </text>
<text text-anchor="start" x="574.84" y="-178.6" font-family="Arial" font-size="14.00" fill="#666666">[TIMESTAMPTZ]</text>
<polygon fill="none" stroke="black" points="498.55,-135.6 498.55,-166.4 729.75,-166.4 729.75,-135.6 498.55,-135.6"/>
<text text-anchor="start" x="505.55" y="-147.8" font-family="Arial" font-size="14.00">deleted_by </text>
<text text-anchor="start" x="577.95" y="-147.8" font-family="Arial" font-size="14.00" fill="#666666">[TEXT]</text>
<polygon fill="none" stroke="black" points="498.55,-104.8 498.55,-135.6 729.75,-135.6 729.75,-104.8 498.55,-104.8"/>
<text text-anchor="start" x="505.55" y="-117" font-family="Arial" font-size="14.00">activity_log </text>
<text text-anchor="start" x="578.7" y="-117" font-family="Arial" font-size="14.00" fill="#666666">[TEXT]</text>
<polygon fill="none" stroke="black" stroke-width="3" points="497.05,-103.3 497.05,-449.9 731.25,-449.9 731.25,-103.3 497.05,-103.3"/>
</g>
<!-- orchestration_session -->
<g id="node2" class="node">
<title>orchestration_session</title>
<polygon fill="#efefef" stroke="none" points="649.66,-940.4 649.66,-976 898.65,-976 898.65,-940.4 649.66,-940.4"/>
<polygon fill="none" stroke="black" points="649.66,-940.4 649.66,-976 898.65,-976 898.65,-940.4 649.66,-940.4"/>
<text text-anchor="start" x="662.04" y="-953.8" font-family="Arial Bold" font-size="18.00">orchestration_session</text>
<text text-anchor="start" x="817.01" y="-953.8" font-family="Arial" font-size="14.00">    </text>
<text text-anchor="start" x="848.13" y="-953.8" font-family="Arial" font-size="14.00" fill="#666666">[table]</text>
<polygon fill="none" stroke="black" points="649.66,-909.6 649.66,-940.4 898.65,-940.4 898.65,-909.6 649.66,-909.6"/>
<text text-anchor="start" x="656.66" y="-921.8" font-family="Arial" font-size="14.00">orchestration_session_id </text>
<text text-anchor="start" x="815.41" y="-921.8" font-family="Arial" font-size="14.00" fill="#666666">[VARCHAR]</text>
<polygon fill="none" stroke="black" points="649.66,-878.8 649.66,-909.6 898.65,-909.6 898.65,-878.8 649.66,-878.8"/>
<text text-anchor="start" x="656.66" y="-891" font-family="Arial" font-size="14.00">device_id </text>
<text text-anchor="start" x="719.7" y="-891" font-family="Arial" font-size="14.00" fill="#666666">[VARCHAR]</text>
<polygon fill="none" stroke="black" points="649.66,-848 649.66,-878.8 898.65,-878.8 898.65,-848 649.66,-848"/>
<text text-anchor="start" x="656.66" y="-860.2" font-family="Arial" font-size="14.00">orchestration_nature_id </text>
<text text-anchor="start" x="807.64" y="-860.2" font-family="Arial" font-size="14.00" fill="#666666">[TEXT]</text>
<polygon fill="none" stroke="black" points="649.66,-817.2 649.66,-848 898.65,-848 898.65,-817.2 649.66,-817.2"/>
<text text-anchor="start" x="656.66" y="-829.4" font-family="Arial" font-size="14.00">version </text>
<text text-anchor="start" x="705.68" y="-829.4" font-family="Arial" font-size="14.00" fill="#666666">[TEXT]</text>
<polygon fill="none" stroke="black" points="649.66,-786.4 649.66,-817.2 898.65,-817.2 898.65,-786.4 649.66,-786.4"/>
<text text-anchor="start" x="656.66" y="-798.6" font-family="Arial" font-size="14.00">orch_started_at </text>
<text text-anchor="start" x="757.83" y="-798.6" font-family="Arial" font-size="14.00" fill="#666666">[TIMESTAMPTZ]</text>
<polygon fill="none" stroke="black" points="649.66,-755.6 649.66,-786.4 898.65,-786.4 898.65,-755.6 649.66,-755.6"/>
<text text-anchor="start" x="656.66" y="-767.8" font-family="Arial" font-size="14.00">orch_finished_at </text>
<text text-anchor="start" x="763.28" y="-767.8" font-family="Arial" font-size="14.00" fill="#666666">[TIMESTAMPTZ]</text>
<polygon fill="none" stroke="black" points="649.66,-724.8 649.66,-755.6 898.65,-755.6 898.65,-724.8 649.66,-724.8"/>
<text text-anchor="start" x="656.66" y="-737" font-family="Arial" font-size="14.00">elaboration </text>
<text text-anchor="start" x="729.82" y="-737" font-family="Arial" font-size="14.00" fill="#666666">[TEXT]</text>
<polygon fill="none" stroke="black" points="649.66,-694 649.66,-724.8 898.65,-724.8 898.65,-694 649.66,-694"/>
<text text-anchor="start" x="656.66" y="-706.2" font-family="Arial" font-size="14.00">args_json </text>
<text text-anchor="start" x="721.25" y="-706.2" font-family="Arial" font-size="14.00" fill="#666666">[TEXT]</text>
<polygon fill="none" stroke="black" points="649.66,-663.2 649.66,-694 898.65,-694 898.65,-663.2 649.66,-663.2"/>
<text text-anchor="start" x="656.66" y="-675.4" font-family="Arial" font-size="14.00">diagnostics_json </text>
<text text-anchor="start" x="764.05" y="-675.4" font-family="Arial" font-size="14.00" fill="#666666">[TEXT]</text>
<polygon fill="none" stroke="black" points="649.66,-632.4 649.66,-663.2 898.65,-663.2 898.65,-632.4 649.66,-632.4"/>
<text text-anchor="start" x="656.66" y="-644.6" font-family="Arial" font-size="14.00">diagnostics_md </text>
<text text-anchor="start" x="757.82" y="-644.6" font-family="Arial" font-size="14.00" fill="#666666">[TEXT]</text>
</g>
<!-- orchestration_session&#45;&gt;orchestration_nature -->
<g id="edge1" class="edge">
<title>orchestration_session:orchestration_nature_id&#45;&gt;orchestration_nature:orchestration_nature_id</title>
<path fill="none" stroke="black" d="M638.46,-862.99C531.48,-854.07 608.75,-700.2 649.66,-589.2 668.71,-537.51 710.53,-546.23 729.75,-494.6 744.82,-454.11 773.95,-397.4 730.75,-397.4"/>
<polygon fill="black" stroke="black" points="638.33,-862.99 648.14,-867.88 643.66,-863.2 647.99,-863.37 647.99,-863.37 647.99,-863.37 643.66,-863.2 648.5,-858.89 638.33,-862.99"/>
</g>
<!-- device -->
<g id="node7" class="node">
<title>device</title>
<polygon fill="#efefef" stroke="none" points="836.9,-474.4 836.9,-510 1031.41,-510 1031.41,-474.4 836.9,-474.4"/>
<polygon fill="none" stroke="black" points="836.9,-474.4 836.9,-510 1031.41,-510 1031.41,-474.4 836.9,-474.4"/>
<text text-anchor="start" x="876.04" y="-487.8" font-family="Arial Bold" font-size="18.00">device</text>
<text text-anchor="start" x="923.01" y="-487.8" font-family="Arial" font-size="14.00">    </text>
<text text-anchor="start" x="954.13" y="-487.8" font-family="Arial" font-size="14.00" fill="#666666">[table]</text>
<polygon fill="none" stroke="black" points="836.9,-443.6 836.9,-474.4 1031.41,-474.4 1031.41,-443.6 836.9,-443.6"/>
<text text-anchor="start" x="843.9" y="-455.8" font-family="Arial" font-size="14.00">device_id </text>
<text text-anchor="start" x="906.94" y="-455.8" font-family="Arial" font-size="14.00" fill="#666666">[VARCHAR]</text>
<polygon fill="none" stroke="black" points="836.9,-412.8 836.9,-443.6 1031.41,-443.6 1031.41,-412.8 836.9,-412.8"/>
<text text-anchor="start" x="843.9" y="-425" font-family="Arial" font-size="14.00">name </text>
<text text-anchor="start" x="882.81" y="-425" font-family="Arial" font-size="14.00" fill="#666666">[TEXT]</text>
<polygon fill="none" stroke="black" points="836.9,-382 836.9,-412.8 1031.41,-412.8 1031.41,-382 836.9,-382"/>
<text text-anchor="start" x="843.9" y="-394.2" font-family="Arial" font-size="14.00">state </text>
<text text-anchor="start" x="878.14" y="-394.2" font-family="Arial" font-size="14.00" fill="#666666">[TEXT]</text>
<polygon fill="none" stroke="black" points="836.9,-351.2 836.9,-382 1031.41,-382 1031.41,-351.2 836.9,-351.2"/>
<text text-anchor="start" x="843.9" y="-363.4" font-family="Arial" font-size="14.00">boundary </text>
<text text-anchor="start" x="906.16" y="-363.4" font-family="Arial" font-size="14.00" fill="#666666">[TEXT]</text>
<polygon fill="none" stroke="black" points="836.9,-320.4 836.9,-351.2 1031.41,-351.2 1031.41,-320.4 836.9,-320.4"/>
<text text-anchor="start" x="843.9" y="-332.6" font-family="Arial" font-size="14.00">segmentation </text>
<text text-anchor="start" x="931.84" y="-332.6" font-family="Arial" font-size="14.00" fill="#666666">[TEXT]</text>
<polygon fill="none" stroke="black" points="836.9,-289.6 836.9,-320.4 1031.41,-320.4 1031.41,-289.6 836.9,-289.6"/>
<text text-anchor="start" x="843.9" y="-301.8" font-family="Arial" font-size="14.00">state_sysinfo </text>
<text text-anchor="start" x="929.5" y="-301.8" font-family="Arial" font-size="14.00" fill="#666666">[TEXT]</text>
<polygon fill="none" stroke="black" points="836.9,-258.8 836.9,-289.6 1031.41,-289.6 1031.41,-258.8 836.9,-258.8"/>
<text text-anchor="start" x="843.9" y="-271" font-family="Arial" font-size="14.00">elaboration </text>
<text text-anchor="start" x="917.06" y="-271" font-family="Arial" font-size="14.00" fill="#666666">[TEXT]</text>
<polygon fill="none" stroke="black" points="836.9,-228 836.9,-258.8 1031.41,-258.8 1031.41,-228 836.9,-228"/>
<text text-anchor="start" x="843.9" y="-240.2" font-family="Arial" font-size="14.00">created_at </text>
<text text-anchor="start" x="913.94" y="-240.2" font-family="Arial" font-size="14.00" fill="#666666">[TIMESTAMPTZ]</text>
<polygon fill="none" stroke="black" points="836.9,-197.2 836.9,-228 1031.41,-228 1031.41,-197.2 836.9,-197.2"/>
<text text-anchor="start" x="843.9" y="-209.4" font-family="Arial" font-size="14.00">created_by </text>
<text text-anchor="start" x="917.05" y="-209.4" font-family="Arial" font-size="14.00" fill="#666666">[TEXT]</text>
<polygon fill="none" stroke="black" points="836.9,-166.4 836.9,-197.2 1031.41,-197.2 1031.41,-166.4 836.9,-166.4"/>
<text text-anchor="start" x="843.9" y="-178.6" font-family="Arial" font-size="14.00">updated_at </text>
<text text-anchor="start" x="917.85" y="-178.6" font-family="Arial" font-size="14.00" fill="#666666">[TIMESTAMPTZ]</text>
<polygon fill="none" stroke="black" points="836.9,-135.6 836.9,-166.4 1031.41,-166.4 1031.41,-135.6 836.9,-135.6"/>
<text text-anchor="start" x="843.9" y="-147.8" font-family="Arial" font-size="14.00">updated_by </text>
<text text-anchor="start" x="920.96" y="-147.8" font-family="Arial" font-size="14.00" fill="#666666">[TEXT]</text>
<polygon fill="none" stroke="black" points="836.9,-104.8 836.9,-135.6 1031.41,-135.6 1031.41,-104.8 836.9,-104.8"/>
<text text-anchor="start" x="843.9" y="-117" font-family="Arial" font-size="14.00">deleted_at </text>
<text text-anchor="start" x="913.18" y="-117" font-family="Arial" font-size="14.00" fill="#666666">[TIMESTAMPTZ]</text>
<polygon fill="none" stroke="black" points="836.9,-74 836.9,-104.8 1031.41,-104.8 1031.41,-74 836.9,-74"/>
<text text-anchor="start" x="843.9" y="-86.2" font-family="Arial" font-size="14.00">deleted_by </text>
<text text-anchor="start" x="916.29" y="-86.2" font-family="Arial" font-size="14.00" fill="#666666">[TEXT]</text>
<polygon fill="none" stroke="black" points="836.9,-43.2 836.9,-74 1031.41,-74 1031.41,-43.2 836.9,-43.2"/>
<text text-anchor="start" x="843.9" y="-55.4" font-family="Arial" font-size="14.00">activity_log </text>
<text text-anchor="start" x="917.04" y="-55.4" font-family="Arial" font-size="14.00" fill="#666666">[TEXT]</text>
</g>
<!-- orchestration_session&#45;&gt;device -->
<g id="edge6" class="edge">
<title>orchestration_session:device_id&#45;&gt;device:device_id</title>
<path fill="none" stroke="black" d="M909.95,-893.81C1031.57,-884.36 964.58,-703.53 898.65,-589.2 882.78,-561.68 852.87,-580.66 836.9,-553.2 815.85,-517.01 794.03,-459 835.9,-459"/>
<polygon fill="black" stroke="black" points="909.97,-893.81 899.81,-889.69 904.64,-894.01 900.32,-894.17 900.32,-894.17 900.32,-894.17 904.64,-894.01 900.15,-898.68 909.97,-893.81"/>
</g>
<!-- orchestration_session_entry -->
<g id="node3" class="node">
<title>orchestration_session_entry</title>
<polygon fill="#efefef" stroke="none" points="43.2,-1406.4 43.2,-1442 331.1,-1442 331.1,-1406.4 43.2,-1406.4"/>
<polygon fill="none" stroke="black" points="43.2,-1406.4 43.2,-1442 331.1,-1442 331.1,-1406.4 43.2,-1406.4"/>
<text text-anchor="start" x="52.05" y="-1419.8" font-family="Arial Bold" font-size="18.00">orchestration_session_entry</text>
<text text-anchor="start" x="253" y="-1419.8" font-family="Arial" font-size="14.00">    </text>
<text text-anchor="start" x="284.12" y="-1419.8" font-family="Arial" font-size="14.00" fill="#666666">[table]</text>
<polygon fill="none" stroke="black" points="43.2,-1375.6 43.2,-1406.4 331.1,-1406.4 331.1,-1375.6 43.2,-1375.6"/>
<text text-anchor="start" x="50.2" y="-1387.8" font-family="Arial" font-size="14.00">orchestration_session_entry_id </text>
<text text-anchor="start" x="247.87" y="-1387.8" font-family="Arial" font-size="14.00" fill="#666666">[VARCHAR]</text>
<polygon fill="none" stroke="black" points="43.2,-1344.8 43.2,-1375.6 331.1,-1375.6 331.1,-1344.8 43.2,-1344.8"/>
<text text-anchor="start" x="50.2" y="-1357" font-family="Arial" font-size="14.00">session_id </text>
<text text-anchor="start" x="120.24" y="-1357" font-family="Arial" font-size="14.00" fill="#666666">[VARCHAR]</text>
<polygon fill="none" stroke="black" points="43.2,-1314 43.2,-1344.8 331.1,-1344.8 331.1,-1314 43.2,-1314"/>
<text text-anchor="start" x="50.2" y="-1326.2" font-family="Arial" font-size="14.00">ingest_src </text>
<text text-anchor="start" x="117.9" y="-1326.2" font-family="Arial" font-size="14.00" fill="#666666">[TEXT]</text>
<polygon fill="none" stroke="black" points="43.2,-1283.2 43.2,-1314 331.1,-1314 331.1,-1283.2 43.2,-1283.2"/>
<text text-anchor="start" x="50.2" y="-1295.4" font-family="Arial" font-size="14.00">ingest_table_name </text>
<text text-anchor="start" x="172.4" y="-1295.4" font-family="Arial" font-size="14.00" fill="#666666">[TEXT]</text>
<polygon fill="none" stroke="black" points="43.2,-1252.4 43.2,-1283.2 331.1,-1283.2 331.1,-1252.4 43.2,-1252.4"/>
<text text-anchor="start" x="50.2" y="-1264.6" font-family="Arial" font-size="14.00">elaboration </text>
<text text-anchor="start" x="123.37" y="-1264.6" font-family="Arial" font-size="14.00" fill="#666666">[TEXT]</text>
</g>
<!-- orchestration_session_entry&#45;&gt;orchestration_session -->
<g id="edge2" class="edge">
<title>orchestration_session_entry:session_id&#45;&gt;orchestration_session:orchestration_session_id</title>
<path fill="none" stroke="black" d="M342.27,-1358.03C394.7,-1333.45 344.34,-1107.29 383.15,-1055.2 461.68,-949.81 517.23,-925 648.66,-925"/>
<polygon fill="black" stroke="black" points="342.21,-1358.04 331.49,-1355.73 336.99,-1359.16 332.76,-1360.06 332.76,-1360.06 332.76,-1360.06 336.99,-1359.16 333.37,-1364.53 342.21,-1358.04"/>
</g>
<!-- orchestration_session_state -->
<g id="node4" class="node">
<title>orchestration_session_state</title>
<polygon fill="#efefef" stroke="none" points="435.59,-1468 435.59,-1503.6 722.72,-1503.6 722.72,-1468 435.59,-1468"/>
<polygon fill="none" stroke="black" points="435.59,-1468 435.59,-1503.6 722.72,-1503.6 722.72,-1468 435.59,-1468"/>
<text text-anchor="start" x="446.05" y="-1481.4" font-family="Arial Bold" font-size="18.00">orchestration_session_state</text>
<text text-anchor="start" x="643" y="-1481.4" font-family="Arial" font-size="14.00">    </text>
<text text-anchor="start" x="674.12" y="-1481.4" font-family="Arial" font-size="14.00" fill="#666666">[table]</text>
<polygon fill="none" stroke="black" points="435.59,-1437.2 435.59,-1468 722.72,-1468 722.72,-1437.2 435.59,-1437.2"/>
<text text-anchor="start" x="442.59" y="-1449.4" font-family="Arial" font-size="14.00">orchestration_session_state_id </text>
<text text-anchor="start" x="639.48" y="-1449.4" font-family="Arial" font-size="14.00" fill="#666666">[VARCHAR]</text>
<polygon fill="none" stroke="black" points="435.59,-1406.4 435.59,-1437.2 722.72,-1437.2 722.72,-1406.4 435.59,-1406.4"/>
<text text-anchor="start" x="442.59" y="-1418.6" font-family="Arial" font-size="14.00">session_id </text>
<text text-anchor="start" x="512.63" y="-1418.6" font-family="Arial" font-size="14.00" fill="#666666">[VARCHAR]</text>
<polygon fill="none" stroke="black" points="435.59,-1375.6 435.59,-1406.4 722.72,-1406.4 722.72,-1375.6 435.59,-1375.6"/>
<text text-anchor="start" x="442.59" y="-1387.8" font-family="Arial" font-size="14.00">session_entry_id </text>
<text text-anchor="start" x="551.54" y="-1387.8" font-family="Arial" font-size="14.00" fill="#666666">[VARCHAR]</text>
<polygon fill="none" stroke="black" points="435.59,-1344.8 435.59,-1375.6 722.72,-1375.6 722.72,-1344.8 435.59,-1344.8"/>
<text text-anchor="start" x="442.59" y="-1357" font-family="Arial" font-size="14.00">from_state </text>
<text text-anchor="start" x="512.61" y="-1357" font-family="Arial" font-size="14.00" fill="#666666">[TEXT]</text>
<polygon fill="none" stroke="black" points="435.59,-1314 435.59,-1344.8 722.72,-1344.8 722.72,-1314 435.59,-1314"/>
<text text-anchor="start" x="442.59" y="-1326.2" font-family="Arial" font-size="14.00">to_state </text>
<text text-anchor="start" x="496.29" y="-1326.2" font-family="Arial" font-size="14.00" fill="#666666">[TEXT]</text>
<polygon fill="none" stroke="black" points="435.59,-1283.2 435.59,-1314 722.72,-1314 722.72,-1283.2 435.59,-1283.2"/>
<text text-anchor="start" x="442.59" y="-1295.4" font-family="Arial" font-size="14.00">transition_result </text>
<text text-anchor="start" x="545.3" y="-1295.4" font-family="Arial" font-size="14.00" fill="#666666">[TEXT]</text>
<polygon fill="none" stroke="black" points="435.59,-1252.4 435.59,-1283.2 722.72,-1283.2 722.72,-1252.4 435.59,-1252.4"/>
<text text-anchor="start" x="442.59" y="-1264.6" font-family="Arial" font-size="14.00">transition_reason </text>
<text text-anchor="start" x="553.88" y="-1264.6" font-family="Arial" font-size="14.00" fill="#666666">[TEXT]</text>
<polygon fill="none" stroke="black" points="435.59,-1221.6 435.59,-1252.4 722.72,-1252.4 722.72,-1221.6 435.59,-1221.6"/>
<text text-anchor="start" x="442.59" y="-1233.8" font-family="Arial" font-size="14.00">transitioned_at </text>
<text text-anchor="start" x="538.32" y="-1233.8" font-family="Arial" font-size="14.00" fill="#666666">[TIMESTAMPTZ]</text>
<polygon fill="none" stroke="black" points="435.59,-1190.8 435.59,-1221.6 722.72,-1221.6 722.72,-1190.8 435.59,-1190.8"/>
<text text-anchor="start" x="442.59" y="-1203" font-family="Arial" font-size="14.00">elaboration </text>
<text text-anchor="start" x="515.75" y="-1203" font-family="Arial" font-size="14.00" fill="#666666">[TEXT]</text>
</g>
<!-- orchestration_session_state&#45;&gt;orchestration_session -->
<g id="edge3" class="edge">
<title>orchestration_session_state:session_id&#45;&gt;orchestration_session:orchestration_session_id</title>
<path fill="none" stroke="black" d="M733.64,-1419.51C779.16,-1396.3 737.46,-1202.91 722.72,-1147.6 705.81,-1084.16 666.79,-1082.58 649.66,-1019.2 638.73,-978.78 606.79,-925 648.66,-925"/>
<polygon fill="black" stroke="black" points="733.79,-1419.48 723.03,-1417.34 728.59,-1420.68 724.37,-1421.65 724.37,-1421.65 724.37,-1421.65 728.59,-1420.68 725.05,-1426.11 733.79,-1419.48"/>
</g>
<!-- orchestration_session_exec -->
<g id="node5" class="node">
<title>orchestration_session_exec</title>
<polygon fill="#efefef" stroke="none" points="826.98,-1560.4 826.98,-1596 1113.33,-1596 1113.33,-1560.4 826.98,-1560.4"/>
<polygon fill="none" stroke="black" points="826.98,-1560.4 826.98,-1596 1113.33,-1596 1113.33,-1560.4 826.98,-1560.4"/>
<text text-anchor="start" x="837.06" y="-1573.8" font-family="Arial Bold" font-size="18.00">orchestration_session_exec</text>
<text text-anchor="start" x="1033.99" y="-1573.8" font-family="Arial" font-size="14.00">    </text>
<text text-anchor="start" x="1065.11" y="-1573.8" font-family="Arial" font-size="14.00" fill="#666666">[table]</text>
<polygon fill="none" stroke="black" points="826.98,-1529.6 826.98,-1560.4 1113.33,-1560.4 1113.33,-1529.6 826.98,-1529.6"/>
<text text-anchor="start" x="833.98" y="-1541.8" font-family="Arial" font-size="14.00">orchestration_session_exec_id </text>
<text text-anchor="start" x="1030.09" y="-1541.8" font-family="Arial" font-size="14.00" fill="#666666">[VARCHAR]</text>
<polygon fill="none" stroke="black" points="826.98,-1498.8 826.98,-1529.6 1113.33,-1529.6 1113.33,-1498.8 826.98,-1498.8"/>
<text text-anchor="start" x="833.98" y="-1511" font-family="Arial" font-size="14.00">exec_nature </text>
<text text-anchor="start" x="914.92" y="-1511" font-family="Arial" font-size="14.00" fill="#666666">[TEXT]</text>
<polygon fill="none" stroke="black" points="826.98,-1468 826.98,-1498.8 1113.33,-1498.8 1113.33,-1468 826.98,-1468"/>
<text text-anchor="start" x="833.98" y="-1480.2" font-family="Arial" font-size="14.00">session_id </text>
<text text-anchor="start" x="904.02" y="-1480.2" font-family="Arial" font-size="14.00" fill="#666666">[VARCHAR]</text>
<polygon fill="none" stroke="black" points="826.98,-1437.2 826.98,-1468 1113.33,-1468 1113.33,-1437.2 826.98,-1437.2"/>
<text text-anchor="start" x="833.98" y="-1449.4" font-family="Arial" font-size="14.00">session_entry_id </text>
<text text-anchor="start" x="942.93" y="-1449.4" font-family="Arial" font-size="14.00" fill="#666666">[VARCHAR]</text>
<polygon fill="none" stroke="black" points="826.98,-1406.4 826.98,-1437.2 1113.33,-1437.2 1113.33,-1406.4 826.98,-1406.4"/>
<text text-anchor="start" x="833.98" y="-1418.6" font-family="Arial" font-size="14.00">parent_exec_id </text>
<text text-anchor="start" x="933.6" y="-1418.6" font-family="Arial" font-size="14.00" fill="#666666">[VARCHAR]</text>
<polygon fill="none" stroke="black" points="826.98,-1375.6 826.98,-1406.4 1113.33,-1406.4 1113.33,-1375.6 826.98,-1375.6"/>
<text text-anchor="start" x="833.98" y="-1387.8" font-family="Arial" font-size="14.00">namespace </text>
<text text-anchor="start" x="910.24" y="-1387.8" font-family="Arial" font-size="14.00" fill="#666666">[TEXT]</text>
<polygon fill="none" stroke="black" points="826.98,-1344.8 826.98,-1375.6 1113.33,-1375.6 1113.33,-1344.8 826.98,-1344.8"/>
<text text-anchor="start" x="833.98" y="-1357" font-family="Arial" font-size="14.00">exec_identity </text>
<text text-anchor="start" x="919.58" y="-1357" font-family="Arial" font-size="14.00" fill="#666666">[TEXT]</text>
<polygon fill="none" stroke="black" points="826.98,-1314 826.98,-1344.8 1113.33,-1344.8 1113.33,-1314 826.98,-1314"/>
<text text-anchor="start" x="833.98" y="-1326.2" font-family="Arial" font-size="14.00">exec_code </text>
<text text-anchor="start" x="905.58" y="-1326.2" font-family="Arial" font-size="14.00" fill="#666666">[TEXT]</text>
<polygon fill="none" stroke="black" points="826.98,-1283.2 826.98,-1314 1113.33,-1314 1113.33,-1283.2 826.98,-1283.2"/>
<text text-anchor="start" x="833.98" y="-1295.4" font-family="Arial" font-size="14.00">exec_status </text>
<text text-anchor="start" x="912.58" y="-1295.4" font-family="Arial" font-size="14.00" fill="#666666">[INTEGER]</text>
<polygon fill="none" stroke="black" points="826.98,-1252.4 826.98,-1283.2 1113.33,-1283.2 1113.33,-1252.4 826.98,-1252.4"/>
<text text-anchor="start" x="833.98" y="-1264.6" font-family="Arial" font-size="14.00">input_text </text>
<text text-anchor="start" x="898.58" y="-1264.6" font-family="Arial" font-size="14.00" fill="#666666">[TEXT]</text>
<polygon fill="none" stroke="black" points="826.98,-1221.6 826.98,-1252.4 1113.33,-1252.4 1113.33,-1221.6 826.98,-1221.6"/>
<text text-anchor="start" x="833.98" y="-1233.8" font-family="Arial" font-size="14.00">exec_error_text </text>
<text text-anchor="start" x="935.13" y="-1233.8" font-family="Arial" font-size="14.00" fill="#666666">[TEXT]</text>
<polygon fill="none" stroke="black" points="826.98,-1190.8 826.98,-1221.6 1113.33,-1221.6 1113.33,-1190.8 826.98,-1190.8"/>
<text text-anchor="start" x="833.98" y="-1203" font-family="Arial" font-size="14.00">output_text </text>
<text text-anchor="start" x="907.14" y="-1203" font-family="Arial" font-size="14.00" fill="#666666">[TEXT]</text>
<polygon fill="none" stroke="black" points="826.98,-1160 826.98,-1190.8 1113.33,-1190.8 1113.33,-1160 826.98,-1160"/>
<text text-anchor="start" x="833.98" y="-1172.2" font-family="Arial" font-size="14.00">output_nature </text>
<text text-anchor="start" x="924.27" y="-1172.2" font-family="Arial" font-size="14.00" fill="#666666">[TEXT]</text>
<polygon fill="none" stroke="black" points="826.98,-1129.2 826.98,-1160 1113.33,-1160 1113.33,-1129.2 826.98,-1129.2"/>
<text text-anchor="start" x="833.98" y="-1141.4" font-family="Arial" font-size="14.00">narrative_md </text>
<text text-anchor="start" x="919.57" y="-1141.4" font-family="Arial" font-size="14.00" fill="#666666">[TEXT]</text>
<polygon fill="none" stroke="black" points="826.98,-1098.4 826.98,-1129.2 1113.33,-1129.2 1113.33,-1098.4 826.98,-1098.4"/>
<text text-anchor="start" x="833.98" y="-1110.6" font-family="Arial" font-size="14.00">elaboration </text>
<text text-anchor="start" x="907.14" y="-1110.6" font-family="Arial" font-size="14.00" fill="#666666">[TEXT]</text>
</g>
<!-- orchestration_session_exec&#45;&gt;orchestration_session -->
<g id="edge4" class="edge">
<title>orchestration_session_exec:session_id&#45;&gt;orchestration_session:orchestration_session_id</title>
<path fill="none" stroke="black" d="M817.19,-1478.2C781.63,-1432.01 803.66,-1092.9 826.98,-1055.2 845.72,-1024.88 879.77,-1049.44 898.65,-1019.2 920.82,-983.68 941.52,-925 899.65,-925"/>
<polygon fill="black" stroke="black" points="817.08,-1478.13 823.4,-1487.1 821.67,-1480.85 825.4,-1483.06 825.4,-1483.06 825.4,-1483.06 821.67,-1480.85 827.98,-1479.36 817.08,-1478.13"/>
</g>
<!-- orchestration_session_issue -->
<g id="node6" class="node">
<title>orchestration_session_issue</title>
<polygon fill="#efefef" stroke="none" points="1217.54,-1483.4 1217.54,-1519 1500.76,-1519 1500.76,-1483.4 1217.54,-1483.4"/>
<polygon fill="none" stroke="black" points="1217.54,-1483.4 1217.54,-1519 1500.76,-1519 1500.76,-1483.4 1217.54,-1483.4"/>
<text text-anchor="start" x="1224.54" y="-1496.8" font-family="Arial Bold" font-size="18.00">orchestration_session_issue</text>
<text text-anchor="start" x="1424.51" y="-1496.8" font-family="Arial" font-size="14.00">    </text>
<text text-anchor="start" x="1455.63" y="-1496.8" font-family="Arial" font-size="14.00" fill="#666666">[table]</text>
<polygon fill="none" stroke="black" points="1217.54,-1452.6 1217.54,-1483.4 1500.76,-1483.4 1500.76,-1452.6 1217.54,-1452.6"/>
<text text-anchor="start" x="1224.54" y="-1464.8" font-family="Arial" font-size="14.00">orchestration_session_issue_id </text>
<text text-anchor="start" x="1423.77" y="-1464.8" font-family="Arial" font-size="14.00" fill="#666666">[UUID]</text>
<polygon fill="none" stroke="black" points="1217.54,-1421.8 1217.54,-1452.6 1500.76,-1452.6 1500.76,-1421.8 1217.54,-1421.8"/>
<text text-anchor="start" x="1224.54" y="-1434" font-family="Arial" font-size="14.00">session_id </text>
<text text-anchor="start" x="1294.58" y="-1434" font-family="Arial" font-size="14.00" fill="#666666">[VARCHAR]</text>
<polygon fill="none" stroke="black" points="1217.54,-1391 1217.54,-1421.8 1500.76,-1421.8 1500.76,-1391 1217.54,-1391"/>
<text text-anchor="start" x="1224.54" y="-1403.2" font-family="Arial" font-size="14.00">session_entry_id </text>
<text text-anchor="start" x="1333.49" y="-1403.2" font-family="Arial" font-size="14.00" fill="#666666">[VARCHAR]</text>
<polygon fill="none" stroke="black" points="1217.54,-1360.2 1217.54,-1391 1500.76,-1391 1500.76,-1360.2 1217.54,-1360.2"/>
<text text-anchor="start" x="1224.54" y="-1372.4" font-family="Arial" font-size="14.00">issue_type </text>
<text text-anchor="start" x="1295.36" y="-1372.4" font-family="Arial" font-size="14.00" fill="#666666">[TEXT]</text>
<polygon fill="none" stroke="black" points="1217.54,-1329.4 1217.54,-1360.2 1500.76,-1360.2 1500.76,-1329.4 1217.54,-1329.4"/>
<text text-anchor="start" x="1224.54" y="-1341.6" font-family="Arial" font-size="14.00">issue_message </text>
<text text-anchor="start" x="1325.7" y="-1341.6" font-family="Arial" font-size="14.00" fill="#666666">[TEXT]</text>
<polygon fill="none" stroke="black" points="1217.54,-1298.6 1217.54,-1329.4 1500.76,-1329.4 1500.76,-1298.6 1217.54,-1298.6"/>
<text text-anchor="start" x="1224.54" y="-1310.8" font-family="Arial" font-size="14.00">issue_row </text>
<text text-anchor="start" x="1291.46" y="-1310.8" font-family="Arial" font-size="14.00" fill="#666666">[INTEGER]</text>
<polygon fill="none" stroke="black" points="1217.54,-1267.8 1217.54,-1298.6 1500.76,-1298.6 1500.76,-1267.8 1217.54,-1267.8"/>
<text text-anchor="start" x="1224.54" y="-1280" font-family="Arial" font-size="14.00">issue_column </text>
<text text-anchor="start" x="1314.03" y="-1280" font-family="Arial" font-size="14.00" fill="#666666">[TEXT]</text>
<polygon fill="none" stroke="black" points="1217.54,-1237 1217.54,-1267.8 1500.76,-1267.8 1500.76,-1237 1217.54,-1237"/>
<text text-anchor="start" x="1224.54" y="-1249.2" font-family="Arial" font-size="14.00">invalid_value </text>
<text text-anchor="start" x="1309.37" y="-1249.2" font-family="Arial" font-size="14.00" fill="#666666">[TEXT]</text>
<polygon fill="none" stroke="black" points="1217.54,-1206.2 1217.54,-1237 1500.76,-1237 1500.76,-1206.2 1217.54,-1206.2"/>
<text text-anchor="start" x="1224.54" y="-1218.4" font-family="Arial" font-size="14.00">remediation </text>
<text text-anchor="start" x="1301.58" y="-1218.4" font-family="Arial" font-size="14.00" fill="#666666">[TEXT]</text>
<polygon fill="none" stroke="black" points="1217.54,-1175.4 1217.54,-1206.2 1500.76,-1206.2 1500.76,-1175.4 1217.54,-1175.4"/>
<text text-anchor="start" x="1224.54" y="-1187.6" font-family="Arial" font-size="14.00">elaboration </text>
<text text-anchor="start" x="1297.7" y="-1187.6" font-family="Arial" font-size="14.00" fill="#666666">[TEXT]</text>
</g>
<!-- orchestration_session_issue&#45;&gt;orchestration_session -->
<g id="edge5" class="edge">
<title>orchestration_session_issue:session_id&#45;&gt;orchestration_session:orchestration_session_id</title>
<path fill="none" stroke="black" d="M1206.42,-1435.51C1137.88,-1410.79 1213.07,-1121.71 1165.15,-1055.2 1088.33,-948.56 1031.07,-925 899.65,-925"/>
<polygon fill="black" stroke="black" points="1206.35,-1435.5 1215.47,-1441.58 1211.61,-1436.38 1215.88,-1437.09 1215.88,-1437.09 1215.88,-1437.09 1211.61,-1436.38 1216.95,-1432.71 1206.35,-1435.5"/>
</g>
</g>
</svg>
