<?xml version="1.0" encoding="UTF-8" standalone="no"?>
<!DOCTYPE svg PUBLIC "-//W3C//DTD SVG 1.1//EN"
 "http://www.w3.org/Graphics/SVG/1.1/DTD/svg11.dtd">
<!-- Generated by graphviz version 12.1.2 (20240928.0832)
 -->
<!-- Title: orchestration_session_issue_relation Pages: 1 -->
<svg width="736pt" height="1222pt"
 viewBox="0.00 0.00 735.85 1222.00" xmlns="http://www.w3.org/2000/svg" xmlns:xlink="http://www.w3.org/1999/xlink">
<g id="graph0" class="graph" transform="scale(1 1) rotate(0) translate(4 1218)">
<title>orchestration_session_issue_relation</title>
<polygon fill="white" stroke="none" points="-4,4 -4,-1218 731.85,-1218 731.85,4 -4,4"/>
<!-- orchestration_session_issue_relation -->
<g id="node1" class="node">
<title>orchestration_session_issue_relation</title>
<polygon fill="#efefef" stroke="none" points="180.1,-1132.2 180.1,-1167.8 527.3,-1167.8 527.3,-1132.2 180.1,-1132.2"/>
<polygon fill="none" stroke="black" points="180.1,-1132.2 180.1,-1167.8 527.3,-1167.8 527.3,-1132.2 180.1,-1132.2"/>
<text text-anchor="start" x="187.1" y="-1145.6" font-family="Arial Bold" font-size="18.00">orchestration_session_issue_relation</text>
<text text-anchor="start" x="451.04" y="-1145.6" font-family="Arial" font-size="14.00">    </text>
<text text-anchor="start" x="482.16" y="-1145.6" font-family="Arial" font-size="14.00" fill="#666666">[table]</text>
<polygon fill="none" stroke="black" points="180.1,-1101.4 180.1,-1132.2 527.3,-1132.2 527.3,-1101.4 180.1,-1101.4"/>
<text text-anchor="start" x="187.1" y="-1113.6" font-family="Arial" font-size="14.00">orchestration_session_issue_relation_id </text>
<text text-anchor="start" x="440.03" y="-1113.6" font-family="Arial" font-size="14.00" fill="#666666">[UUID]</text>
<polygon fill="none" stroke="black" points="180.1,-1070.6 180.1,-1101.4 527.3,-1101.4 527.3,-1070.6 180.1,-1070.6"/>
<text text-anchor="start" x="187.1" y="-1082.8" font-family="Arial" font-size="14.00">issue_id_prime </text>
<text text-anchor="start" x="285.14" y="-1082.8" font-family="Arial" font-size="14.00" fill="#666666">[UUID]</text>
<polygon fill="none" stroke="black" points="180.1,-1039.8 180.1,-1070.6 527.3,-1070.6 527.3,-1039.8 180.1,-1039.8"/>
<text text-anchor="start" x="187.1" y="-1052" font-family="Arial" font-size="14.00">issue_id_rel </text>
<text text-anchor="start" x="265.7" y="-1052" font-family="Arial" font-size="14.00" fill="#666666">[TEXT]</text>
<polygon fill="none" stroke="black" points="180.1,-1009 180.1,-1039.8 527.3,-1039.8 527.3,-1009 180.1,-1009"/>
<text text-anchor="start" x="187.1" y="-1021.2" font-family="Arial" font-size="14.00">relationship_nature </text>
<text text-anchor="start" x="310.07" y="-1021.2" font-family="Arial" font-size="14.00" fill="#666666">[TEXT]</text>
<polygon fill="none" stroke="black" points="180.1,-978.2 180.1,-1009 527.3,-1009 527.3,-978.2 180.1,-978.2"/>
<text text-anchor="start" x="187.1" y="-990.4" font-family="Arial" font-size="14.00">elaboration </text>
<text text-anchor="start" x="260.26" y="-990.4" font-family="Arial" font-size="14.00" fill="#666666">[TEXT]</text>
<polygon fill="none" stroke="black" stroke-width="3" points="178.6,-976.7 178.6,-1169.3 528.8,-1169.3 528.8,-976.7 178.6,-976.7"/>
</g>
<!-- orchestration_session_issue -->
<g id="node2" class="node">
<title>orchestration_session_issue</title>
<polygon fill="#efefef" stroke="none" points="212.08,-817.2 212.08,-852.8 495.31,-852.8 495.31,-817.2 212.08,-817.2"/>
<polygon fill="none" stroke="black" points="212.08,-817.2 212.08,-852.8 495.31,-852.8 495.31,-817.2 212.08,-817.2"/>
<text text-anchor="start" x="219.08" y="-830.6" font-family="Arial Bold" font-size="18.00">orchestration_session_issue</text>
<text text-anchor="start" x="419.05" y="-830.6" font-family="Arial" font-size="14.00">    </text>
<text text-anchor="start" x="450.17" y="-830.6" font-family="Arial" font-size="14.00" fill="#666666">[table]</text>
<polygon fill="none" stroke="black" points="212.08,-786.4 212.08,-817.2 495.31,-817.2 495.31,-786.4 212.08,-786.4"/>
<text text-anchor="start" x="219.08" y="-798.6" font-family="Arial" font-size="14.00">orchestration_session_issue_id </text>
<text text-anchor="start" x="418.31" y="-798.6" font-family="Arial" font-size="14.00" fill="#666666">[UUID]</text>
<polygon fill="none" stroke="black" points="212.08,-755.6 212.08,-786.4 495.31,-786.4 495.31,-755.6 212.08,-755.6"/>
<text text-anchor="start" x="219.08" y="-767.8" font-family="Arial" font-size="14.00">session_id </text>
<text text-anchor="start" x="289.13" y="-767.8" font-family="Arial" font-size="14.00" fill="#666666">[VARCHAR]</text>
<polygon fill="none" stroke="black" points="212.08,-724.8 212.08,-755.6 495.31,-755.6 495.31,-724.8 212.08,-724.8"/>
<text text-anchor="start" x="219.08" y="-737" font-family="Arial" font-size="14.00">session_entry_id </text>
<text text-anchor="start" x="328.04" y="-737" font-family="Arial" font-size="14.00" fill="#666666">[VARCHAR]</text>
<polygon fill="none" stroke="black" points="212.08,-694 212.08,-724.8 495.31,-724.8 495.31,-694 212.08,-694"/>
<text text-anchor="start" x="219.08" y="-706.2" font-family="Arial" font-size="14.00">issue_type </text>
<text text-anchor="start" x="289.9" y="-706.2" font-family="Arial" font-size="14.00" fill="#666666">[TEXT]</text>
<polygon fill="none" stroke="black" points="212.08,-663.2 212.08,-694 495.31,-694 495.31,-663.2 212.08,-663.2"/>
<text text-anchor="start" x="219.08" y="-675.4" font-family="Arial" font-size="14.00">issue_message </text>
<text text-anchor="start" x="320.25" y="-675.4" font-family="Arial" font-size="14.00" fill="#666666">[TEXT]</text>
<polygon fill="none" stroke="black" points="212.08,-632.4 212.08,-663.2 495.31,-663.2 495.31,-632.4 212.08,-632.4"/>
<text text-anchor="start" x="219.08" y="-644.6" font-family="Arial" font-size="14.00">issue_row </text>
<text text-anchor="start" x="286" y="-644.6" font-family="Arial" font-size="14.00" fill="#666666">[INTEGER]</text>
<polygon fill="none" stroke="black" points="212.08,-601.6 212.08,-632.4 495.31,-632.4 495.31,-601.6 212.08,-601.6"/>
<text text-anchor="start" x="219.08" y="-613.8" font-family="Arial" font-size="14.00">issue_column </text>
<text text-anchor="start" x="308.57" y="-613.8" font-family="Arial" font-size="14.00" fill="#666666">[TEXT]</text>
<polygon fill="none" stroke="black" points="212.08,-570.8 212.08,-601.6 495.31,-601.6 495.31,-570.8 212.08,-570.8"/>
<text text-anchor="start" x="219.08" y="-583" font-family="Arial" font-size="14.00">invalid_value </text>
<text text-anchor="start" x="303.92" y="-583" font-family="Arial" font-size="14.00" fill="#666666">[TEXT]</text>
<polygon fill="none" stroke="black" points="212.08,-540 212.08,-570.8 495.31,-570.8 495.31,-540 212.08,-540"/>
<text text-anchor="start" x="219.08" y="-552.2" font-family="Arial" font-size="14.00">remediation </text>
<text text-anchor="start" x="296.13" y="-552.2" font-family="Arial" font-size="14.00" fill="#666666">[TEXT]</text>
<polygon fill="none" stroke="black" points="212.08,-509.2 212.08,-540 495.31,-540 495.31,-509.2 212.08,-509.2"/>
<text text-anchor="start" x="219.08" y="-521.4" font-family="Arial" font-size="14.00">elaboration </text>
<text text-anchor="start" x="292.25" y="-521.4" font-family="Arial" font-size="14.00" fill="#666666">[TEXT]</text>
</g>
<!-- orchestration_session_issue_relation&#45;&gt;orchestration_session_issue -->
<g id="edge1" class="edge">
<title>orchestration_session_issue_relation:issue_id_prime&#45;&gt;orchestration_session_issue:orchestration_session_issue_id</title>
<path fill="none" stroke="black" d="M538.71,-1085.33C653.52,-1070.13 619.82,-801.8 496.31,-801.8"/>
<polygon fill="black" stroke="black" points="538.61,-1085.34 528.34,-1081.49 533.29,-1085.68 528.96,-1085.96 528.96,-1085.96 528.96,-1085.96 533.29,-1085.68 528.92,-1090.47 538.61,-1085.34"/>
</g>
<!-- orchestration_session -->
<g id="node3" class="node">
<title>orchestration_session</title>
<polygon fill="#efefef" stroke="none" points="43.2,-351.2 43.2,-386.8 292.19,-386.8 292.19,-351.2 43.2,-351.2"/>
<polygon fill="none" stroke="black" points="43.2,-351.2 43.2,-386.8 292.19,-386.8 292.19,-351.2 43.2,-351.2"/>
<text text-anchor="start" x="55.58" y="-364.6" font-family="Arial Bold" font-size="18.00">orchestration_session</text>
<text text-anchor="start" x="210.55" y="-364.6" font-family="Arial" font-size="14.00">    </text>
<text text-anchor="start" x="241.67" y="-364.6" font-family="Arial" font-size="14.00" fill="#666666">[table]</text>
<polygon fill="none" stroke="black" points="43.2,-320.4 43.2,-351.2 292.19,-351.2 292.19,-320.4 43.2,-320.4"/>
<text text-anchor="start" x="50.2" y="-332.6" font-family="Arial" font-size="14.00">orchestration_session_id </text>
<text text-anchor="start" x="208.96" y="-332.6" font-family="Arial" font-size="14.00" fill="#666666">[VARCHAR]</text>
<polygon fill="none" stroke="black" points="43.2,-289.6 43.2,-320.4 292.19,-320.4 292.19,-289.6 43.2,-289.6"/>
<text text-anchor="start" x="50.2" y="-301.8" font-family="Arial" font-size="14.00">device_id </text>
<text text-anchor="start" x="113.24" y="-301.8" font-family="Arial" font-size="14.00" fill="#666666">[VARCHAR]</text>
<polygon fill="none" stroke="black" points="43.2,-258.8 43.2,-289.6 292.19,-289.6 292.19,-258.8 43.2,-258.8"/>
<text text-anchor="start" x="50.2" y="-271" font-family="Arial" font-size="14.00">orchestration_nature_id </text>
<text text-anchor="start" x="201.19" y="-271" font-family="Arial" font-size="14.00" fill="#666666">[TEXT]</text>
<polygon fill="none" stroke="black" points="43.2,-228 43.2,-258.8 292.19,-258.8 292.19,-228 43.2,-228"/>
<text text-anchor="start" x="50.2" y="-240.2" font-family="Arial" font-size="14.00">version </text>
<text text-anchor="start" x="99.22" y="-240.2" font-family="Arial" font-size="14.00" fill="#666666">[TEXT]</text>
<polygon fill="none" stroke="black" points="43.2,-197.2 43.2,-228 292.19,-228 292.19,-197.2 43.2,-197.2"/>
<text text-anchor="start" x="50.2" y="-209.4" font-family="Arial" font-size="14.00">orch_started_at </text>
<text text-anchor="start" x="151.37" y="-209.4" font-family="Arial" font-size="14.00" fill="#666666">[TIMESTAMPTZ]</text>
<polygon fill="none" stroke="black" points="43.2,-166.4 43.2,-197.2 292.19,-197.2 292.19,-166.4 43.2,-166.4"/>
<text text-anchor="start" x="50.2" y="-178.6" font-family="Arial" font-size="14.00">orch_finished_at </text>
<text text-anchor="start" x="156.83" y="-178.6" font-family="Arial" font-size="14.00" fill="#666666">[TIMESTAMPTZ]</text>
<polygon fill="none" stroke="black" points="43.2,-135.6 43.2,-166.4 292.19,-166.4 292.19,-135.6 43.2,-135.6"/>
<text text-anchor="start" x="50.2" y="-147.8" font-family="Arial" font-size="14.00">elaboration </text>
<text text-anchor="start" x="123.37" y="-147.8" font-family="Arial" font-size="14.00" fill="#666666">[TEXT]</text>
<polygon fill="none" stroke="black" points="43.2,-104.8 43.2,-135.6 292.19,-135.6 292.19,-104.8 43.2,-104.8"/>
<text text-anchor="start" x="50.2" y="-117" font-family="Arial" font-size="14.00">args_json </text>
<text text-anchor="start" x="114.79" y="-117" font-family="Arial" font-size="14.00" fill="#666666">[TEXT]</text>
<polygon fill="none" stroke="black" points="43.2,-74 43.2,-104.8 292.19,-104.8 292.19,-74 43.2,-74"/>
<text text-anchor="start" x="50.2" y="-86.2" font-family="Arial" font-size="14.00">diagnostics_json </text>
<text text-anchor="start" x="157.6" y="-86.2" font-family="Arial" font-size="14.00" fill="#666666">[TEXT]</text>
<polygon fill="none" stroke="black" points="43.2,-43.2 43.2,-74 292.19,-74 292.19,-43.2 43.2,-43.2"/>
<text text-anchor="start" x="50.2" y="-55.4" font-family="Arial" font-size="14.00">diagnostics_md </text>
<text text-anchor="start" x="151.37" y="-55.4" font-family="Arial" font-size="14.00" fill="#666666">[TEXT]</text>
</g>
<!-- orchestration_session_issue&#45;&gt;orchestration_session -->
<g id="edge2" class="edge">
<title>orchestration_session_issue:session_id&#45;&gt;orchestration_session:orchestration_session_id</title>
<path fill="none" stroke="black" d="M200.77,-770.61C78.84,-760.97 140.21,-576.7 212.08,-466 233.34,-433.26 270.82,-462.66 292.19,-430 315.12,-394.97 335.06,-335.8 293.19,-335.8"/>
<polygon fill="black" stroke="black" points="200.76,-770.61 210.58,-775.48 206.09,-770.81 210.42,-770.97 210.42,-770.97 210.42,-770.97 206.09,-770.81 210.92,-766.49 200.76,-770.61"/>
</g>
<!-- orchestration_session_entry -->
<g id="node4" class="node">
<title>orchestration_session_entry</title>
<polygon fill="#efefef" stroke="none" points="396.74,-274.2 396.74,-309.8 684.65,-309.8 684.65,-274.2 396.74,-274.2"/>
<polygon fill="none" stroke="black" points="396.74,-274.2 396.74,-309.8 684.65,-309.8 684.65,-274.2 396.74,-274.2"/>
<text text-anchor="start" x="405.59" y="-287.6" font-family="Arial Bold" font-size="18.00">orchestration_session_entry</text>
<text text-anchor="start" x="606.55" y="-287.6" font-family="Arial" font-size="14.00">    </text>
<text text-anchor="start" x="637.66" y="-287.6" font-family="Arial" font-size="14.00" fill="#666666">[table]</text>
<polygon fill="none" stroke="black" points="396.74,-243.4 396.74,-274.2 684.65,-274.2 684.65,-243.4 396.74,-243.4"/>
<text text-anchor="start" x="403.74" y="-255.6" font-family="Arial" font-size="14.00">orchestration_session_entry_id </text>
<text text-anchor="start" x="601.41" y="-255.6" font-family="Arial" font-size="14.00" fill="#666666">[VARCHAR]</text>
<polygon fill="none" stroke="black" points="396.74,-212.6 396.74,-243.4 684.65,-243.4 684.65,-212.6 396.74,-212.6"/>
<text text-anchor="start" x="403.74" y="-224.8" font-family="Arial" font-size="14.00">session_id </text>
<text text-anchor="start" x="473.79" y="-224.8" font-family="Arial" font-size="14.00" fill="#666666">[VARCHAR]</text>
<polygon fill="none" stroke="black" points="396.74,-181.8 396.74,-212.6 684.65,-212.6 684.65,-181.8 396.74,-181.8"/>
<text text-anchor="start" x="403.74" y="-194" font-family="Arial" font-size="14.00">ingest_src </text>
<text text-anchor="start" x="471.44" y="-194" font-family="Arial" font-size="14.00" fill="#666666">[TEXT]</text>
<polygon fill="none" stroke="black" points="396.74,-151 396.74,-181.8 684.65,-181.8 684.65,-151 396.74,-151"/>
<text text-anchor="start" x="403.74" y="-163.2" font-family="Arial" font-size="14.00">ingest_table_name </text>
<text text-anchor="start" x="525.94" y="-163.2" font-family="Arial" font-size="14.00" fill="#666666">[TEXT]</text>
<polygon fill="none" stroke="black" points="396.74,-120.2 396.74,-151 684.65,-151 684.65,-120.2 396.74,-120.2"/>
<text text-anchor="start" x="403.74" y="-132.4" font-family="Arial" font-size="14.00">elaboration </text>
<text text-anchor="start" x="476.91" y="-132.4" font-family="Arial" font-size="14.00" fill="#666666">[TEXT]</text>
</g>
<!-- orchestration_session_issue&#45;&gt;orchestration_session_entry -->
<g id="edge3" class="edge">
<title>orchestration_session_issue:session_entry_id&#45;&gt;orchestration_session_entry:orchestration_session_entry_id</title>
<path fill="none" stroke="black" d="M506.51,-739.79C613.53,-730.85 537.03,-576.69 495.31,-466 471.8,-403.64 420.47,-415.28 396.74,-353 381.84,-313.87 353.88,-258.8 395.74,-258.8"/>
<polygon fill="black" stroke="black" points="506.63,-739.79 496.46,-735.69 501.3,-740 496.98,-740.17 496.98,-740.17 496.98,-740.17 501.3,-740 496.82,-744.68 506.63,-739.79"/>
</g>
</g>
</svg>
