<?xml version="1.0" encoding="UTF-8" standalone="no"?>
<!DOCTYPE svg PUBLIC "-//W3C//DTD SVG 1.1//EN"
 "http://www.w3.org/Graphics/SVG/1.1/DTD/svg11.dtd">
<!-- Generated by graphviz version 2.40.1 (20161225.0304)
 -->
<!-- Title: orchestration_session_state Pages: 1 -->
<svg width="1248pt" height="1920pt"
 viewBox="0.00 0.00 1247.50 1920.00" xmlns="http://www.w3.org/2000/svg" xmlns:xlink="http://www.w3.org/1999/xlink">
<g id="graph0" class="graph" transform="scale(1 1) rotate(0) translate(4 1916)">
<title>orchestration_session_state</title>
<polygon fill="#ffffff" stroke="transparent" points="-4,4 -4,-1916 1243.5,-1916 1243.5,4 -4,4"/>
<!-- orchestration_session_state -->
<g id="node1" class="node">
<title>orchestration_session_state</title>
<polygon fill="#efefef" stroke="transparent" points="46,-1743.5 46,-1778.5 356,-1778.5 356,-1743.5 46,-1743.5"/>
<polygon fill="none" stroke="#000000" points="46,-1743.5 46,-1778.5 356,-1778.5 356,-1743.5 46,-1743.5"/>
<text text-anchor="start" x="52.8034" y="-1756.3" font-family="Arial Bold" font-size="18.00" fill="#000000">orchestration_session_state</text>
<text text-anchor="start" x="276.8656" y="-1756.3" font-family="Arial" font-size="14.00" fill="#000000">    </text>
<text text-anchor="start" x="311.0704" y="-1756.3" font-family="Arial" font-size="14.00" fill="#666666">[table]</text>
<polygon fill="none" stroke="#000000" points="46,-1713.5 46,-1743.5 356,-1743.5 356,-1713.5 46,-1713.5"/>
<text text-anchor="start" x="53" y="-1724.9" font-family="Arial" font-size="14.00" fill="#000000">orchestration_session_state_id </text>
<text text-anchor="start" x="249.833" y="-1724.9" font-family="Arial" font-size="14.00" fill="#666666">[VARCHAR]</text>
<polygon fill="none" stroke="#000000" points="46,-1683.5 46,-1713.5 356,-1713.5 356,-1683.5 46,-1683.5"/>
<text text-anchor="start" x="53" y="-1694.9" font-family="Arial" font-size="14.00" fill="#000000">session_id </text>
<text text-anchor="start" x="123.0168" y="-1694.9" font-family="Arial" font-size="14.00" fill="#666666">[VARCHAR]</text>
<polygon fill="none" stroke="#000000" points="46,-1653.5 46,-1683.5 356,-1683.5 356,-1653.5 46,-1653.5"/>
<text text-anchor="start" x="53" y="-1664.9" font-family="Arial" font-size="14.00" fill="#000000">session_entry_id </text>
<text text-anchor="start" x="161.9158" y="-1664.9" font-family="Arial" font-size="14.00" fill="#666666">[VARCHAR]</text>
<polygon fill="none" stroke="#000000" points="46,-1623.5 46,-1653.5 356,-1653.5 356,-1623.5 46,-1623.5"/>
<text text-anchor="start" x="53" y="-1634.9" font-family="Arial" font-size="14.00" fill="#000000">from_state </text>
<text text-anchor="start" x="123.014" y="-1634.9" font-family="Arial" font-size="14.00" fill="#666666">[TEXT]</text>
<polygon fill="none" stroke="#000000" points="46,-1593.5 46,-1623.5 356,-1623.5 356,-1593.5 46,-1593.5"/>
<text text-anchor="start" x="53" y="-1604.9" font-family="Arial" font-size="14.00" fill="#000000">to_state </text>
<text text-anchor="start" x="106.6928" y="-1604.9" font-family="Arial" font-size="14.00" fill="#666666">[TEXT]</text>
<polygon fill="none" stroke="#000000" points="46,-1563.5 46,-1593.5 356,-1593.5 356,-1563.5 46,-1563.5"/>
<text text-anchor="start" x="53" y="-1574.9" font-family="Arial" font-size="14.00" fill="#000000">transition_result </text>
<text text-anchor="start" x="155.6816" y="-1574.9" font-family="Arial" font-size="14.00" fill="#666666">[TEXT]</text>
<polygon fill="none" stroke="#000000" points="46,-1533.5 46,-1563.5 356,-1563.5 356,-1533.5 46,-1533.5"/>
<text text-anchor="start" x="53" y="-1544.9" font-family="Arial" font-size="14.00" fill="#000000">transition_reason </text>
<text text-anchor="start" x="164.2496" y="-1544.9" font-family="Arial" font-size="14.00" fill="#666666">[TEXT]</text>
<polygon fill="none" stroke="#000000" points="46,-1503.5 46,-1533.5 356,-1533.5 356,-1503.5 46,-1503.5"/>
<text text-anchor="start" x="53" y="-1514.9" font-family="Arial" font-size="14.00" fill="#000000">transitioned_at </text>
<text text-anchor="start" x="148.697" y="-1514.9" font-family="Arial" font-size="14.00" fill="#666666">[TIMESTAMPTZ]</text>
<polygon fill="none" stroke="#000000" points="46,-1473.5 46,-1503.5 356,-1503.5 356,-1473.5 46,-1473.5"/>
<text text-anchor="start" x="53" y="-1484.9" font-family="Arial" font-size="14.00" fill="#000000">elaboration </text>
<text text-anchor="start" x="126.1332" y="-1484.9" font-family="Arial" font-size="14.00" fill="#666666">[TEXT]</text>
<polygon fill="none" stroke="#000000" stroke-width="3" points="44.5,-1472.5 44.5,-1780.5 357.5,-1780.5 357.5,-1472.5 44.5,-1472.5"/>
</g>
<!-- orchestration_session -->
<g id="node2" class="node">
<title>orchestration_session</title>
<polygon fill="#efefef" stroke="transparent" points="548,-919.5 548,-954.5 827,-954.5 827,-919.5 548,-919.5"/>
<polygon fill="none" stroke="#000000" points="548,-919.5 548,-954.5 827,-954.5 827,-919.5 548,-919.5"/>
<text text-anchor="start" x="563.8149" y="-932.3" font-family="Arial Bold" font-size="18.00" fill="#000000">orchestration_session</text>
<text text-anchor="start" x="738.8541" y="-932.3" font-family="Arial" font-size="14.00" fill="#000000">    </text>
<text text-anchor="start" x="773.0589" y="-932.3" font-family="Arial" font-size="14.00" fill="#666666">[table]</text>
<polygon fill="none" stroke="#000000" points="548,-889.5 548,-919.5 827,-919.5 827,-889.5 548,-889.5"/>
<text text-anchor="start" x="554.8822" y="-900.9" font-family="Arial" font-size="14.00" fill="#000000">orchestration_session_id    </text>
<text text-anchor="start" x="743.9004" y="-900.9" font-family="Arial" font-size="14.00" fill="#666666">[VARCHAR]</text>
<polygon fill="none" stroke="#000000" points="548,-859.5 548,-889.5 827,-889.5 827,-859.5 548,-859.5"/>
<text text-anchor="start" x="555" y="-870.9" font-family="Arial" font-size="14.00" fill="#000000">device_id    </text>
<text text-anchor="start" x="648.331" y="-870.9" font-family="Arial" font-size="14.00" fill="#666666">[VARCHAR]</text>
<polygon fill="none" stroke="#000000" points="548,-829.5 548,-859.5 827,-859.5 827,-829.5 548,-829.5"/>
<text text-anchor="start" x="555" y="-840.9" font-family="Arial" font-size="14.00" fill="#000000">orchestration_nature_id    </text>
<text text-anchor="start" x="736.2454" y="-840.9" font-family="Arial" font-size="14.00" fill="#666666">[TEXT]</text>
<polygon fill="none" stroke="#000000" points="548,-799.5 548,-829.5 827,-829.5 827,-799.5 548,-799.5"/>
<text text-anchor="start" x="555" y="-810.9" font-family="Arial" font-size="14.00" fill="#000000">version    </text>
<text text-anchor="start" x="634.3198" y="-810.9" font-family="Arial" font-size="14.00" fill="#666666">[TEXT]</text>
<polygon fill="none" stroke="#000000" points="548,-769.5 548,-799.5 827,-799.5 827,-769.5 548,-769.5"/>
<text text-anchor="start" x="555" y="-780.9" font-family="Arial" font-size="14.00" fill="#000000">orch_started_at    </text>
<text text-anchor="start" x="686.4586" y="-780.9" font-family="Arial" font-size="14.00" fill="#666666">[TIMESTAMPTZ]</text>
<polygon fill="none" stroke="#000000" points="548,-739.5 548,-769.5 827,-769.5 827,-739.5 548,-739.5"/>
<text text-anchor="start" x="555" y="-750.9" font-family="Arial" font-size="14.00" fill="#000000">orch_finished_at    </text>
<text text-anchor="start" x="691.9032" y="-750.9" font-family="Arial" font-size="14.00" fill="#666666">[TIMESTAMPTZ]</text>
<polygon fill="none" stroke="#000000" points="548,-709.5 548,-739.5 827,-739.5 827,-709.5 548,-709.5"/>
<text text-anchor="start" x="555" y="-720.9" font-family="Arial" font-size="14.00" fill="#000000">elaboration    </text>
<text text-anchor="start" x="658.4474" y="-720.9" font-family="Arial" font-size="14.00" fill="#666666">[TEXT]</text>
<polygon fill="none" stroke="#000000" points="548,-679.5 548,-709.5 827,-709.5 827,-679.5 548,-679.5"/>
<text text-anchor="start" x="555" y="-690.9" font-family="Arial" font-size="14.00" fill="#000000">args_json    </text>
<text text-anchor="start" x="649.885" y="-690.9" font-family="Arial" font-size="14.00" fill="#666666">[TEXT]</text>
<polygon fill="none" stroke="#000000" points="548,-649.5 548,-679.5 827,-679.5 827,-649.5 548,-649.5"/>
<text text-anchor="start" x="555" y="-660.9" font-family="Arial" font-size="14.00" fill="#000000">diagnostics_json    </text>
<text text-anchor="start" x="692.676" y="-660.9" font-family="Arial" font-size="14.00" fill="#666666">[TEXT]</text>
<polygon fill="none" stroke="#000000" points="548,-619.5 548,-649.5 827,-649.5 827,-619.5 548,-619.5"/>
<text text-anchor="start" x="555" y="-630.9" font-family="Arial" font-size="14.00" fill="#000000">diagnostics_md    </text>
<text text-anchor="start" x="686.4474" y="-630.9" font-family="Arial" font-size="14.00" fill="#666666">[TEXT]</text>
</g>
<!-- orchestration_session_state&#45;&gt;orchestration_session -->
<g id="edge1" class="edge">
<title>orchestration_session_state:session_id&#45;&gt;orchestration_session:orchestration_session_id</title>
<path fill="none" stroke="#000000" d="M359.3701,-1689.0814C371.6047,-1609.2953 353.9954,-1049.1596 362,-1034 409.0335,-944.9255 447.2706,-904.5 548,-904.5"/>
<polygon fill="#000000" stroke="#000000" points="359.369,-1689.0846 351.7631,-1696.9839 357.6845,-1693.7923 356,-1698.5 356,-1698.5 356,-1698.5 357.6845,-1693.7923 360.2369,-1700.0161 359.369,-1689.0846 359.369,-1689.0846"/>
</g>
<!-- orchestration_session_entry -->
<g id="node3" class="node">
<title>orchestration_session_entry</title>
<polygon fill="#efefef" stroke="transparent" points="414,-1226.5 414,-1261.5 732,-1261.5 732,-1226.5 414,-1226.5"/>
<polygon fill="none" stroke="#000000" points="414,-1226.5 414,-1261.5 732,-1261.5 732,-1226.5 414,-1226.5"/>
<text text-anchor="start" x="424.3084" y="-1239.3" font-family="Arial Bold" font-size="18.00" fill="#000000">orchestration_session_entry</text>
<text text-anchor="start" x="649.3606" y="-1239.3" font-family="Arial" font-size="14.00" fill="#000000">    </text>
<text text-anchor="start" x="683.5654" y="-1239.3" font-family="Arial" font-size="14.00" fill="#666666">[table]</text>
<polygon fill="none" stroke="#000000" points="414,-1196.5 414,-1226.5 732,-1226.5 732,-1196.5 414,-1196.5"/>
<text text-anchor="start" x="420.9327" y="-1207.9" font-family="Arial" font-size="14.00" fill="#000000">orchestration_session_entry_id    </text>
<text text-anchor="start" x="648.8499" y="-1207.9" font-family="Arial" font-size="14.00" fill="#666666">[VARCHAR]</text>
<polygon fill="none" stroke="#000000" points="414,-1166.5 414,-1196.5 732,-1196.5 732,-1166.5 414,-1166.5"/>
<text text-anchor="start" x="421" y="-1177.9" font-family="Arial" font-size="14.00" fill="#000000">session_id    </text>
<text text-anchor="start" x="521.331" y="-1177.9" font-family="Arial" font-size="14.00" fill="#666666">[VARCHAR]</text>
<polygon fill="none" stroke="#000000" points="414,-1136.5 414,-1166.5 732,-1166.5 732,-1136.5 414,-1136.5"/>
<text text-anchor="start" x="421" y="-1147.9" font-family="Arial" font-size="14.00" fill="#000000">ingest_src    </text>
<text text-anchor="start" x="518.993" y="-1147.9" font-family="Arial" font-size="14.00" fill="#666666">[TEXT]</text>
<polygon fill="none" stroke="#000000" points="414,-1106.5 414,-1136.5 732,-1136.5 732,-1106.5 414,-1106.5"/>
<text text-anchor="start" x="421" y="-1117.9" font-family="Arial" font-size="14.00" fill="#000000">ingest_table_name    </text>
<text text-anchor="start" x="573.4684" y="-1117.9" font-family="Arial" font-size="14.00" fill="#666666">[TEXT]</text>
<polygon fill="none" stroke="#000000" points="414,-1076.5 414,-1106.5 732,-1106.5 732,-1076.5 414,-1076.5"/>
<text text-anchor="start" x="421" y="-1087.9" font-family="Arial" font-size="14.00" fill="#000000">elaboration    </text>
<text text-anchor="start" x="524.4474" y="-1087.9" font-family="Arial" font-size="14.00" fill="#666666">[TEXT]</text>
</g>
<!-- orchestration_session_state&#45;&gt;orchestration_session_entry -->
<g id="edge7" class="edge">
<title>orchestration_session_state:session_entry_id&#45;&gt;orchestration_session_entry:orchestration_session_entry_id</title>
<path fill="none" stroke="#000000" d="M365.8948,-1666.8452C448.3604,-1636.932 315.2288,-1211.5 414,-1211.5"/>
<polygon fill="#000000" stroke="#000000" points="365.863,-1666.8504 355.2577,-1664.0616 360.9315,-1667.6752 356,-1668.5 356,-1668.5 356,-1668.5 360.9315,-1667.6752 356.7423,-1672.9384 365.863,-1666.8504 365.863,-1666.8504"/>
</g>
<!-- device -->
<g id="node6" class="node">
<title>device</title>
<polygon fill="#efefef" stroke="transparent" points="405,-462.5 405,-497.5 629,-497.5 629,-462.5 405,-462.5"/>
<polygon fill="none" stroke="#000000" points="405,-462.5 405,-497.5 629,-497.5 629,-462.5 405,-462.5"/>
<text text-anchor="start" x="454.8281" y="-475.3" font-family="Arial Bold" font-size="18.00" fill="#000000">device</text>
<text text-anchor="start" x="506.8409" y="-475.3" font-family="Arial" font-size="14.00" fill="#000000">    </text>
<text text-anchor="start" x="541.0457" y="-475.3" font-family="Arial" font-size="14.00" fill="#666666">[table]</text>
<polygon fill="none" stroke="#000000" points="405,-432.5 405,-462.5 629,-462.5 629,-432.5 405,-432.5"/>
<text text-anchor="start" x="412" y="-443.9" font-family="Arial" font-size="14.00" fill="#000000">device_id    </text>
<text text-anchor="start" x="505.331" y="-443.9" font-family="Arial" font-size="14.00" fill="#666666">[VARCHAR]</text>
<polygon fill="none" stroke="#000000" points="405,-402.5 405,-432.5 629,-432.5 629,-402.5 405,-402.5"/>
<text text-anchor="start" x="412" y="-413.9" font-family="Arial" font-size="14.00" fill="#000000">name    </text>
<text text-anchor="start" x="481.2132" y="-413.9" font-family="Arial" font-size="14.00" fill="#666666">[TEXT]</text>
<polygon fill="none" stroke="#000000" points="405,-372.5 405,-402.5 629,-402.5 629,-372.5 405,-372.5"/>
<text text-anchor="start" x="412" y="-383.9" font-family="Arial" font-size="14.00" fill="#000000">state    </text>
<text text-anchor="start" x="476.5512" y="-383.9" font-family="Arial" font-size="14.00" fill="#666666">[TEXT]</text>
<polygon fill="none" stroke="#000000" points="405,-342.5 405,-372.5 629,-372.5 629,-342.5 405,-342.5"/>
<text text-anchor="start" x="412" y="-353.9" font-family="Arial" font-size="14.00" fill="#000000">boundary    </text>
<text text-anchor="start" x="504.561" y="-353.9" font-family="Arial" font-size="14.00" fill="#666666">[TEXT]</text>
<polygon fill="none" stroke="#000000" points="405,-312.5 405,-342.5 629,-342.5 629,-312.5 405,-312.5"/>
<text text-anchor="start" x="412" y="-323.9" font-family="Arial" font-size="14.00" fill="#000000">segmentation    </text>
<text text-anchor="start" x="530.2314" y="-323.9" font-family="Arial" font-size="14.00" fill="#666666">[TEXT]</text>
<polygon fill="none" stroke="#000000" points="405,-282.5 405,-312.5 629,-312.5 629,-282.5 405,-282.5"/>
<text text-anchor="start" x="412" y="-293.9" font-family="Arial" font-size="14.00" fill="#000000">state_sysinfo    </text>
<text text-anchor="start" x="527.8962" y="-293.9" font-family="Arial" font-size="14.00" fill="#666666">[TEXT]</text>
<polygon fill="none" stroke="#000000" points="405,-252.5 405,-282.5 629,-282.5 629,-252.5 405,-252.5"/>
<text text-anchor="start" x="412" y="-263.9" font-family="Arial" font-size="14.00" fill="#000000">elaboration    </text>
<text text-anchor="start" x="515.4474" y="-263.9" font-family="Arial" font-size="14.00" fill="#666666">[TEXT]</text>
<polygon fill="none" stroke="#000000" points="405,-222.5 405,-252.5 629,-252.5 629,-222.5 405,-222.5"/>
<text text-anchor="start" x="412" y="-233.9" font-family="Arial" font-size="14.00" fill="#000000">created_at    </text>
<text text-anchor="start" x="512.3422" y="-233.9" font-family="Arial" font-size="14.00" fill="#666666">[TIMESTAMPTZ]</text>
<polygon fill="none" stroke="#000000" points="405,-192.5 405,-222.5 629,-222.5 629,-192.5 405,-192.5"/>
<text text-anchor="start" x="412" y="-203.9" font-family="Arial" font-size="14.00" fill="#000000">created_by    </text>
<text text-anchor="start" x="515.4516" y="-203.9" font-family="Arial" font-size="14.00" fill="#666666">[TEXT]</text>
<polygon fill="none" stroke="#000000" points="405,-162.5 405,-192.5 629,-192.5 629,-162.5 405,-162.5"/>
<text text-anchor="start" x="411.6017" y="-173.9" font-family="Arial" font-size="14.00" fill="#000000">updated_at    </text>
<text text-anchor="start" x="515.8485" y="-173.9" font-family="Arial" font-size="14.00" fill="#666666">[TIMESTAMPTZ]</text>
<polygon fill="none" stroke="#000000" points="405,-132.5 405,-162.5 629,-162.5 629,-132.5 405,-132.5"/>
<text text-anchor="start" x="412" y="-143.9" font-family="Arial" font-size="14.00" fill="#000000">updated_by    </text>
<text text-anchor="start" x="519.3562" y="-143.9" font-family="Arial" font-size="14.00" fill="#666666">[TEXT]</text>
<polygon fill="none" stroke="#000000" points="405,-102.5 405,-132.5 629,-132.5 629,-102.5 405,-102.5"/>
<text text-anchor="start" x="412" y="-113.9" font-family="Arial" font-size="14.00" fill="#000000">deleted_at    </text>
<text text-anchor="start" x="511.5708" y="-113.9" font-family="Arial" font-size="14.00" fill="#666666">[TIMESTAMPTZ]</text>
<polygon fill="none" stroke="#000000" points="405,-72.5 405,-102.5 629,-102.5 629,-72.5 405,-72.5"/>
<text text-anchor="start" x="412" y="-83.9" font-family="Arial" font-size="14.00" fill="#000000">deleted_by    </text>
<text text-anchor="start" x="514.6802" y="-83.9" font-family="Arial" font-size="14.00" fill="#666666">[TEXT]</text>
<polygon fill="none" stroke="#000000" points="405,-42.5 405,-72.5 629,-72.5 629,-42.5 405,-42.5"/>
<text text-anchor="start" x="412" y="-53.9" font-family="Arial" font-size="14.00" fill="#000000">activity_log    </text>
<text text-anchor="start" x="515.4362" y="-53.9" font-family="Arial" font-size="14.00" fill="#666666">[TEXT]</text>
</g>
<!-- orchestration_session&#45;&gt;device -->
<g id="edge5" class="edge">
<title>orchestration_session:device_id&#45;&gt;device:device_id</title>
<path fill="none" stroke="#000000" d="M537.939,-874.1156C418.9592,-864.7107 477.8501,-684.944 548,-577 569.4671,-543.9672 607.5329,-574.0328 629,-541 651.6442,-506.156 670.5556,-447.5 629,-447.5"/>
<polygon fill="#000000" stroke="#000000" points="538.0073,-874.1181 547.8281,-878.9967 543.0036,-874.309 548,-874.5 548,-874.5 548,-874.5 543.0036,-874.309 548.1719,-870.0033 538.0073,-874.1181 538.0073,-874.1181"/>
</g>
<!-- orchestration_nature -->
<g id="node7" class="node">
<title>orchestration_nature</title>
<polygon fill="#efefef" stroke="transparent" points="734,-402.5 734,-437.5 985,-437.5 985,-402.5 734,-402.5"/>
<polygon fill="none" stroke="#000000" points="734,-402.5 734,-437.5 985,-437.5 985,-402.5 734,-402.5"/>
<text text-anchor="start" x="740.8117" y="-415.3" font-family="Arial Bold" font-size="18.00" fill="#000000">orchestration_nature</text>
<text text-anchor="start" x="905.8573" y="-415.3" font-family="Arial" font-size="14.00" fill="#000000">    </text>
<text text-anchor="start" x="940.0621" y="-415.3" font-family="Arial" font-size="14.00" fill="#666666">[table]</text>
<polygon fill="none" stroke="#000000" points="734,-372.5 734,-402.5 985,-402.5 985,-372.5 734,-372.5"/>
<text text-anchor="start" x="741" y="-383.9" font-family="Arial" font-size="14.00" fill="#000000">orchestration_nature_id    </text>
<text text-anchor="start" x="922.2454" y="-383.9" font-family="Arial" font-size="14.00" fill="#666666">[TEXT]</text>
<polygon fill="none" stroke="#000000" points="734,-342.5 734,-372.5 985,-372.5 985,-342.5 734,-342.5"/>
<text text-anchor="start" x="741" y="-353.9" font-family="Arial" font-size="14.00" fill="#000000">nature    </text>
<text text-anchor="start" x="814.8864" y="-353.9" font-family="Arial" font-size="14.00" fill="#666666">[TEXT]</text>
<polygon fill="none" stroke="#000000" points="734,-312.5 734,-342.5 985,-342.5 985,-312.5 734,-312.5"/>
<text text-anchor="start" x="741" y="-323.9" font-family="Arial" font-size="14.00" fill="#000000">elaboration    </text>
<text text-anchor="start" x="844.4474" y="-323.9" font-family="Arial" font-size="14.00" fill="#666666">[TEXT]</text>
<polygon fill="none" stroke="#000000" points="734,-282.5 734,-312.5 985,-312.5 985,-282.5 734,-282.5"/>
<text text-anchor="start" x="741" y="-293.9" font-family="Arial" font-size="14.00" fill="#000000">created_at    </text>
<text text-anchor="start" x="841.3422" y="-293.9" font-family="Arial" font-size="14.00" fill="#666666">[TIMESTAMPTZ]</text>
<polygon fill="none" stroke="#000000" points="734,-252.5 734,-282.5 985,-282.5 985,-252.5 734,-252.5"/>
<text text-anchor="start" x="741" y="-263.9" font-family="Arial" font-size="14.00" fill="#000000">created_by    </text>
<text text-anchor="start" x="844.4516" y="-263.9" font-family="Arial" font-size="14.00" fill="#666666">[TEXT]</text>
<polygon fill="none" stroke="#000000" points="734,-222.5 734,-252.5 985,-252.5 985,-222.5 734,-222.5"/>
<text text-anchor="start" x="741" y="-233.9" font-family="Arial" font-size="14.00" fill="#000000">updated_at    </text>
<text text-anchor="start" x="845.2468" y="-233.9" font-family="Arial" font-size="14.00" fill="#666666">[TIMESTAMPTZ]</text>
<polygon fill="none" stroke="#000000" points="734,-192.5 734,-222.5 985,-222.5 985,-192.5 734,-192.5"/>
<text text-anchor="start" x="741" y="-203.9" font-family="Arial" font-size="14.00" fill="#000000">updated_by    </text>
<text text-anchor="start" x="848.3562" y="-203.9" font-family="Arial" font-size="14.00" fill="#666666">[TEXT]</text>
<polygon fill="none" stroke="#000000" points="734,-162.5 734,-192.5 985,-192.5 985,-162.5 734,-162.5"/>
<text text-anchor="start" x="741" y="-173.9" font-family="Arial" font-size="14.00" fill="#000000">deleted_at    </text>
<text text-anchor="start" x="840.5708" y="-173.9" font-family="Arial" font-size="14.00" fill="#666666">[TIMESTAMPTZ]</text>
<polygon fill="none" stroke="#000000" points="734,-132.5 734,-162.5 985,-162.5 985,-132.5 734,-132.5"/>
<text text-anchor="start" x="741" y="-143.9" font-family="Arial" font-size="14.00" fill="#000000">deleted_by    </text>
<text text-anchor="start" x="843.6802" y="-143.9" font-family="Arial" font-size="14.00" fill="#666666">[TEXT]</text>
<polygon fill="none" stroke="#000000" points="734,-102.5 734,-132.5 985,-132.5 985,-102.5 734,-102.5"/>
<text text-anchor="start" x="741" y="-113.9" font-family="Arial" font-size="14.00" fill="#000000">activity_log    </text>
<text text-anchor="start" x="844.4362" y="-113.9" font-family="Arial" font-size="14.00" fill="#666666">[TEXT]</text>
</g>
<!-- orchestration_session&#45;&gt;orchestration_nature -->
<g id="edge6" class="edge">
<title>orchestration_session:orchestration_nature_id&#45;&gt;orchestration_nature:orchestration_nature_id</title>
<path fill="none" stroke="#000000" d="M837.2726,-844.0732C941.4195,-835.0189 870.2728,-683.8606 827,-577 804.7032,-521.9388 756.2968,-536.0612 734,-481 718.4026,-442.4827 692.4444,-387.5 734,-387.5"/>
<polygon fill="#000000" stroke="#000000" points="836.9914,-844.0848 826.8131,-840.0039 831.9957,-844.2924 827,-844.5 827,-844.5 827,-844.5 831.9957,-844.2924 827.1869,-848.9961 836.9914,-844.0848 836.9914,-844.0848"/>
</g>
<!-- orchestration_session_entry&#45;&gt;orchestration_session -->
<g id="edge2" class="edge">
<title>orchestration_session_entry:session_id&#45;&gt;orchestration_session:orchestration_session_id</title>
<path fill="none" stroke="#000000" d="M741.9644,-1180.6541C794.8896,-1171.041 771.3888,-1081.8421 732,-1034 679.0361,-969.6694 600.9639,-1062.3306 548,-998 521.5871,-965.9185 506.4444,-904.5 548,-904.5"/>
<polygon fill="#000000" stroke="#000000" points="741.9642,-1180.654 731.6193,-1177.0161 736.9821,-1181.077 732,-1181.5 732,-1181.5 732,-1181.5 736.9821,-1181.077 732.3807,-1185.9839 741.9642,-1180.654 741.9642,-1180.654"/>
</g>
<!-- orchestration_session_exec -->
<g id="node4" class="node">
<title>orchestration_session_exec</title>
<polygon fill="#efefef" stroke="transparent" points="463,-1833.5 463,-1868.5 779,-1868.5 779,-1833.5 463,-1833.5"/>
<polygon fill="none" stroke="#000000" points="463,-1833.5 463,-1868.5 779,-1868.5 779,-1833.5 463,-1833.5"/>
<text text-anchor="start" x="473.3056" y="-1846.3" font-family="Arial Bold" font-size="18.00" fill="#000000">orchestration_session_exec</text>
<text text-anchor="start" x="696.3634" y="-1846.3" font-family="Arial" font-size="14.00" fill="#000000">    </text>
<text text-anchor="start" x="730.5682" y="-1846.3" font-family="Arial" font-size="14.00" fill="#666666">[table]</text>
<polygon fill="none" stroke="#000000" points="463,-1803.5 463,-1833.5 779,-1833.5 779,-1803.5 463,-1803.5"/>
<text text-anchor="start" x="469.7083" y="-1814.9" font-family="Arial" font-size="14.00" fill="#000000">orchestration_session_exec_id    </text>
<text text-anchor="start" x="696.0743" y="-1814.9" font-family="Arial" font-size="14.00" fill="#666666">[VARCHAR]</text>
<polygon fill="none" stroke="#000000" points="463,-1773.5 463,-1803.5 779,-1803.5 779,-1773.5 463,-1773.5"/>
<text text-anchor="start" x="470" y="-1784.9" font-family="Arial" font-size="14.00" fill="#000000">exec_nature    </text>
<text text-anchor="start" x="581.2342" y="-1784.9" font-family="Arial" font-size="14.00" fill="#666666">[TEXT]</text>
<polygon fill="none" stroke="#000000" points="463,-1743.5 463,-1773.5 779,-1773.5 779,-1743.5 463,-1743.5"/>
<text text-anchor="start" x="470" y="-1754.9" font-family="Arial" font-size="14.00" fill="#000000">session_id    </text>
<text text-anchor="start" x="570.331" y="-1754.9" font-family="Arial" font-size="14.00" fill="#666666">[VARCHAR]</text>
<polygon fill="none" stroke="#000000" points="463,-1713.5 463,-1743.5 779,-1743.5 779,-1713.5 463,-1713.5"/>
<text text-anchor="start" x="470" y="-1724.9" font-family="Arial" font-size="14.00" fill="#000000">session_entry_id    </text>
<text text-anchor="start" x="609.23" y="-1724.9" font-family="Arial" font-size="14.00" fill="#666666">[VARCHAR]</text>
<polygon fill="none" stroke="#000000" points="463,-1683.5 463,-1713.5 779,-1713.5 779,-1683.5 463,-1683.5"/>
<text text-anchor="start" x="470" y="-1694.9" font-family="Arial" font-size="14.00" fill="#000000">parent_exec_id    </text>
<text text-anchor="start" x="599.906" y="-1694.9" font-family="Arial" font-size="14.00" fill="#666666">[VARCHAR]</text>
<polygon fill="none" stroke="#000000" points="463,-1653.5 463,-1683.5 779,-1683.5 779,-1653.5 463,-1653.5"/>
<text text-anchor="start" x="470" y="-1664.9" font-family="Arial" font-size="14.00" fill="#000000">namespace    </text>
<text text-anchor="start" x="576.561" y="-1664.9" font-family="Arial" font-size="14.00" fill="#666666">[TEXT]</text>
<polygon fill="none" stroke="#000000" points="463,-1623.5 463,-1653.5 779,-1653.5 779,-1623.5 463,-1623.5"/>
<text text-anchor="start" x="470" y="-1634.9" font-family="Arial" font-size="14.00" fill="#000000">exec_identity    </text>
<text text-anchor="start" x="585.8948" y="-1634.9" font-family="Arial" font-size="14.00" fill="#666666">[TEXT]</text>
<polygon fill="none" stroke="#000000" points="463,-1593.5 463,-1623.5 779,-1623.5 779,-1593.5 463,-1593.5"/>
<text text-anchor="start" x="470" y="-1604.9" font-family="Arial" font-size="14.00" fill="#000000">exec_code    </text>
<text text-anchor="start" x="571.9004" y="-1604.9" font-family="Arial" font-size="14.00" fill="#666666">[TEXT]</text>
<polygon fill="none" stroke="#000000" points="463,-1563.5 463,-1593.5 779,-1593.5 779,-1563.5 463,-1563.5"/>
<text text-anchor="start" x="470" y="-1574.9" font-family="Arial" font-size="14.00" fill="#000000">exec_status    </text>
<text text-anchor="start" x="578.899" y="-1574.9" font-family="Arial" font-size="14.00" fill="#666666">[INTEGER]</text>
<polygon fill="none" stroke="#000000" points="463,-1533.5 463,-1563.5 779,-1563.5 779,-1533.5 463,-1533.5"/>
<text text-anchor="start" x="470" y="-1544.9" font-family="Arial" font-size="14.00" fill="#000000">input_text    </text>
<text text-anchor="start" x="564.8962" y="-1544.9" font-family="Arial" font-size="14.00" fill="#666666">[TEXT]</text>
<polygon fill="none" stroke="#000000" points="463,-1503.5 463,-1533.5 779,-1533.5 779,-1503.5 463,-1503.5"/>
<text text-anchor="start" x="470" y="-1514.9" font-family="Arial" font-size="14.00" fill="#000000">exec_error_text    </text>
<text text-anchor="start" x="601.446" y="-1514.9" font-family="Arial" font-size="14.00" fill="#666666">[TEXT]</text>
<polygon fill="none" stroke="#000000" points="463,-1473.5 463,-1503.5 779,-1503.5 779,-1473.5 463,-1473.5"/>
<text text-anchor="start" x="470" y="-1484.9" font-family="Arial" font-size="14.00" fill="#000000">output_text    </text>
<text text-anchor="start" x="573.4628" y="-1484.9" font-family="Arial" font-size="14.00" fill="#666666">[TEXT]</text>
<polygon fill="none" stroke="#000000" points="463,-1443.5 463,-1473.5 779,-1473.5 779,-1443.5 463,-1443.5"/>
<text text-anchor="start" x="470" y="-1454.9" font-family="Arial" font-size="14.00" fill="#000000">output_nature    </text>
<text text-anchor="start" x="590.5806" y="-1454.9" font-family="Arial" font-size="14.00" fill="#666666">[TEXT]</text>
<polygon fill="none" stroke="#000000" points="463,-1413.5 463,-1443.5 779,-1443.5 779,-1413.5 463,-1413.5"/>
<text text-anchor="start" x="470" y="-1424.9" font-family="Arial" font-size="14.00" fill="#000000">narrative_md    </text>
<text text-anchor="start" x="585.8794" y="-1424.9" font-family="Arial" font-size="14.00" fill="#666666">[TEXT]</text>
<polygon fill="none" stroke="#000000" points="463,-1383.5 463,-1413.5 779,-1413.5 779,-1383.5 463,-1383.5"/>
<text text-anchor="start" x="470" y="-1394.9" font-family="Arial" font-size="14.00" fill="#000000">elaboration    </text>
<text text-anchor="start" x="573.4474" y="-1394.9" font-family="Arial" font-size="14.00" fill="#666666">[TEXT]</text>
</g>
<!-- orchestration_session_exec&#45;&gt;orchestration_session -->
<g id="edge3" class="edge">
<title>orchestration_session_exec:session_id&#45;&gt;orchestration_session:orchestration_session_id</title>
<path fill="none" stroke="#000000" d="M783.561,-1749.487C808.3091,-1658.2166 849.3211,-904.5 827,-904.5"/>
<polygon fill="#000000" stroke="#000000" points="783.5153,-1749.5774 774.9848,-1756.4681 781.2577,-1754.0387 779,-1758.5 779,-1758.5 779,-1758.5 781.2577,-1754.0387 783.0152,-1760.5319 783.5153,-1749.5774 783.5153,-1749.5774"/>
</g>
<!-- orchestration_session_exec&#45;&gt;orchestration_session_entry -->
<g id="edge8" class="edge">
<title>orchestration_session_exec:session_entry_id&#45;&gt;orchestration_session_entry:orchestration_session_entry_id</title>
<path fill="none" stroke="#000000" d="M454.3498,-1722.909C422.2019,-1677.5676 436.7505,-1370.9964 463,-1341 542.4342,-1250.227 652.5658,-1395.773 732,-1305 759.3661,-1273.7276 773.5556,-1211.5 732,-1211.5"/>
<polygon fill="#000000" stroke="#000000" points="454.6016,-1723.0717 460.5572,-1732.2793 458.8008,-1725.7858 463,-1728.5 463,-1728.5 463,-1728.5 458.8008,-1725.7858 465.4428,-1724.7207 454.6016,-1723.0717 454.6016,-1723.0717"/>
</g>
<!-- orchestration_session_issue -->
<g id="node5" class="node">
<title>orchestration_session_issue</title>
<polygon fill="#efefef" stroke="transparent" points="884,-1758.5 884,-1793.5 1197,-1793.5 1197,-1758.5 884,-1758.5"/>
<polygon fill="none" stroke="#000000" points="884,-1758.5 884,-1793.5 1197,-1793.5 1197,-1758.5 884,-1758.5"/>
<text text-anchor="start" x="890.8085" y="-1771.3" font-family="Arial Bold" font-size="18.00" fill="#000000">orchestration_session_issue</text>
<text text-anchor="start" x="1117.8605" y="-1771.3" font-family="Arial" font-size="14.00" fill="#000000">    </text>
<text text-anchor="start" x="1152.0653" y="-1771.3" font-family="Arial" font-size="14.00" fill="#666666">[table]</text>
<polygon fill="none" stroke="#000000" points="884,-1728.5 884,-1758.5 1197,-1758.5 1197,-1728.5 884,-1728.5"/>
<text text-anchor="start" x="891" y="-1739.9" font-family="Arial" font-size="14.00" fill="#000000">orchestration_session_issue_id    </text>
<text text-anchor="start" x="1120.4726" y="-1739.9" font-family="Arial" font-size="14.00" fill="#666666">[UUID]</text>
<polygon fill="none" stroke="#000000" points="884,-1698.5 884,-1728.5 1197,-1728.5 1197,-1698.5 884,-1698.5"/>
<text text-anchor="start" x="891" y="-1709.9" font-family="Arial" font-size="14.00" fill="#000000">session_id    </text>
<text text-anchor="start" x="991.331" y="-1709.9" font-family="Arial" font-size="14.00" fill="#666666">[VARCHAR]</text>
<polygon fill="none" stroke="#000000" points="884,-1668.5 884,-1698.5 1197,-1698.5 1197,-1668.5 884,-1668.5"/>
<text text-anchor="start" x="891" y="-1679.9" font-family="Arial" font-size="14.00" fill="#000000">session_entry_id    </text>
<text text-anchor="start" x="1030.23" y="-1679.9" font-family="Arial" font-size="14.00" fill="#666666">[VARCHAR]</text>
<polygon fill="none" stroke="#000000" points="884,-1638.5 884,-1668.5 1197,-1668.5 1197,-1638.5 884,-1638.5"/>
<text text-anchor="start" x="891" y="-1649.9" font-family="Arial" font-size="14.00" fill="#000000">issue_type    </text>
<text text-anchor="start" x="992.115" y="-1649.9" font-family="Arial" font-size="14.00" fill="#666666">[TEXT]</text>
<polygon fill="none" stroke="#000000" points="884,-1608.5 884,-1638.5 1197,-1638.5 1197,-1608.5 884,-1608.5"/>
<text text-anchor="start" x="891" y="-1619.9" font-family="Arial" font-size="14.00" fill="#000000">issue_message    </text>
<text text-anchor="start" x="1022.4502" y="-1619.9" font-family="Arial" font-size="14.00" fill="#666666">[TEXT]</text>
<polygon fill="none" stroke="#000000" points="884,-1578.5 884,-1608.5 1197,-1608.5 1197,-1578.5 884,-1578.5"/>
<text text-anchor="start" x="891" y="-1589.9" font-family="Arial" font-size="14.00" fill="#000000">issue_row    </text>
<text text-anchor="start" x="988.209" y="-1589.9" font-family="Arial" font-size="14.00" fill="#666666">[INTEGER]</text>
<polygon fill="none" stroke="#000000" points="884,-1548.5 884,-1578.5 1197,-1578.5 1197,-1548.5 884,-1548.5"/>
<text text-anchor="start" x="891" y="-1559.9" font-family="Arial" font-size="14.00" fill="#000000">issue_column    </text>
<text text-anchor="start" x="1010.7742" y="-1559.9" font-family="Arial" font-size="14.00" fill="#666666">[TEXT]</text>
<polygon fill="none" stroke="#000000" points="884,-1518.5 884,-1548.5 1197,-1548.5 1197,-1518.5 884,-1518.5"/>
<text text-anchor="start" x="891" y="-1529.9" font-family="Arial" font-size="14.00" fill="#000000">invalid_value    </text>
<text text-anchor="start" x="1006.1094" y="-1529.9" font-family="Arial" font-size="14.00" fill="#666666">[TEXT]</text>
<polygon fill="none" stroke="#000000" points="884,-1488.5 884,-1518.5 1197,-1518.5 1197,-1488.5 884,-1488.5"/>
<text text-anchor="start" x="891" y="-1499.9" font-family="Arial" font-size="14.00" fill="#000000">remediation    </text>
<text text-anchor="start" x="998.3254" y="-1499.9" font-family="Arial" font-size="14.00" fill="#666666">[TEXT]</text>
<polygon fill="none" stroke="#000000" points="884,-1458.5 884,-1488.5 1197,-1488.5 1197,-1458.5 884,-1458.5"/>
<text text-anchor="start" x="891" y="-1469.9" font-family="Arial" font-size="14.00" fill="#000000">elaboration    </text>
<text text-anchor="start" x="994.4474" y="-1469.9" font-family="Arial" font-size="14.00" fill="#666666">[TEXT]</text>
</g>
<!-- orchestration_session_issue&#45;&gt;orchestration_session -->
<g id="edge4" class="edge">
<title>orchestration_session_issue:session_id&#45;&gt;orchestration_session:orchestration_session_id</title>
<path fill="none" stroke="#000000" d="M874.3912,-1709.8931C803.1896,-1651.5313 913.5917,-904.5 827,-904.5"/>
<polygon fill="#000000" stroke="#000000" points="874.6378,-1709.9857 882.4185,-1717.713 879.3189,-1711.7428 884,-1713.5 884,-1713.5 884,-1713.5 879.3189,-1711.7428 885.5815,-1709.287 874.6378,-1709.9857 874.6378,-1709.9857"/>
</g>
<!-- orchestration_session_issue&#45;&gt;orchestration_session_entry -->
<g id="edge9" class="edge">
<title>orchestration_session_issue:session_entry_id&#45;&gt;orchestration_session_entry:orchestration_session_entry_id</title>
<path fill="none" stroke="#000000" d="M874.0124,-1681.758C811.8815,-1658.4734 859.7964,-1408.5228 831,-1341 802.5799,-1274.3596 804.4475,-1211.5 732,-1211.5"/>
<polygon fill="#000000" stroke="#000000" points="874.1487,-1681.7817 883.2267,-1687.9331 879.0744,-1682.6408 884,-1683.5 884,-1683.5 884,-1683.5 879.0744,-1682.6408 884.7733,-1679.0669 874.1487,-1681.7817 874.1487,-1681.7817"/>
</g>
</g>
</svg>
