<?xml version="1.0" encoding="UTF-8" standalone="no"?>
<!DOCTYPE svg PUBLIC "-//W3C//DTD SVG 1.1//EN"
 "http://www.w3.org/Graphics/SVG/1.1/DTD/svg11.dtd">
<!-- Generated by graphviz version 2.40.1 (20161225.0304)
 -->
<!-- Title: orchestration_session_issue_relation Pages: 1 -->
<svg width="796pt" height="1199pt"
 viewBox="0.00 0.00 795.50 1199.00" xmlns="http://www.w3.org/2000/svg" xmlns:xlink="http://www.w3.org/1999/xlink">
<g id="graph0" class="graph" transform="scale(1 1) rotate(0) translate(4 1195)">
<title>orchestration_session_issue_relation</title>
<polygon fill="#ffffff" stroke="transparent" points="-4,4 -4,-1195 791.5,-1195 791.5,4 -4,4"/>
<!-- orchestration_session_issue_relation -->
<g id="node1" class="node">
<title>orchestration_session_issue_relation</title>
<polygon fill="#efefef" stroke="transparent" points="193.5,-1109.5 193.5,-1144.5 575.5,-1144.5 575.5,-1109.5 193.5,-1109.5"/>
<polygon fill="none" stroke="#000000" points="193.5,-1109.5 193.5,-1144.5 575.5,-1144.5 575.5,-1109.5 193.5,-1109.5"/>
<text text-anchor="start" x="200.3016" y="-1122.3" font-family="Arial Bold" font-size="18.00" fill="#000000">orchestration_session_issue_relation</text>
<text text-anchor="start" x="496.3674" y="-1122.3" font-family="Arial" font-size="14.00" fill="#000000">    </text>
<text text-anchor="start" x="530.5722" y="-1122.3" font-family="Arial" font-size="14.00" fill="#666666">[table]</text>
<polygon fill="none" stroke="#000000" points="193.5,-1079.5 193.5,-1109.5 575.5,-1109.5 575.5,-1079.5 193.5,-1079.5"/>
<text text-anchor="start" x="200.5" y="-1090.9" font-family="Arial" font-size="14.00" fill="#000000">orchestration_session_issue_relation_id </text>
<text text-anchor="start" x="453.3358" y="-1090.9" font-family="Arial" font-size="14.00" fill="#666666">[UUID]</text>
<polygon fill="none" stroke="#000000" points="193.5,-1049.5 193.5,-1079.5 575.5,-1079.5 575.5,-1049.5 193.5,-1049.5"/>
<text text-anchor="start" x="200.5" y="-1060.9" font-family="Arial" font-size="14.00" fill="#000000">issue_id_prime </text>
<text text-anchor="start" x="298.5098" y="-1060.9" font-family="Arial" font-size="14.00" fill="#666666">[UUID]</text>
<polygon fill="none" stroke="#000000" points="193.5,-1019.5 193.5,-1049.5 575.5,-1049.5 575.5,-1019.5 193.5,-1019.5"/>
<text text-anchor="start" x="200.5" y="-1030.9" font-family="Arial" font-size="14.00" fill="#000000">issue_id_rel </text>
<text text-anchor="start" x="279.0666" y="-1030.9" font-family="Arial" font-size="14.00" fill="#666666">[TEXT]</text>
<polygon fill="none" stroke="#000000" points="193.5,-989.5 193.5,-1019.5 575.5,-1019.5 575.5,-989.5 193.5,-989.5"/>
<text text-anchor="start" x="200.5" y="-1000.9" font-family="Arial" font-size="14.00" fill="#000000">relationship_nature </text>
<text text-anchor="start" x="323.4214" y="-1000.9" font-family="Arial" font-size="14.00" fill="#666666">[TEXT]</text>
<polygon fill="none" stroke="#000000" points="193.5,-959.5 193.5,-989.5 575.5,-989.5 575.5,-959.5 193.5,-959.5"/>
<text text-anchor="start" x="200.5" y="-970.9" font-family="Arial" font-size="14.00" fill="#000000">elaboration </text>
<text text-anchor="start" x="273.6332" y="-970.9" font-family="Arial" font-size="14.00" fill="#666666">[TEXT]</text>
<polygon fill="none" stroke="#000000" stroke-width="3" points="192,-958.5 192,-1146.5 577,-1146.5 577,-958.5 192,-958.5"/>
</g>
<!-- orchestration_session_issue -->
<g id="node2" class="node">
<title>orchestration_session_issue</title>
<polygon fill="#efefef" stroke="transparent" points="227.5,-799.5 227.5,-834.5 540.5,-834.5 540.5,-799.5 227.5,-799.5"/>
<polygon fill="none" stroke="#000000" points="227.5,-799.5 227.5,-834.5 540.5,-834.5 540.5,-799.5 227.5,-799.5"/>
<text text-anchor="start" x="234.3085" y="-812.3" font-family="Arial Bold" font-size="18.00" fill="#000000">orchestration_session_issue</text>
<text text-anchor="start" x="461.3605" y="-812.3" font-family="Arial" font-size="14.00" fill="#000000">    </text>
<text text-anchor="start" x="495.5653" y="-812.3" font-family="Arial" font-size="14.00" fill="#666666">[table]</text>
<polygon fill="none" stroke="#000000" points="227.5,-769.5 227.5,-799.5 540.5,-799.5 540.5,-769.5 227.5,-769.5"/>
<text text-anchor="start" x="234.5" y="-780.9" font-family="Arial" font-size="14.00" fill="#000000">orchestration_session_issue_id    </text>
<text text-anchor="start" x="463.9726" y="-780.9" font-family="Arial" font-size="14.00" fill="#666666">[UUID]</text>
<polygon fill="none" stroke="#000000" points="227.5,-739.5 227.5,-769.5 540.5,-769.5 540.5,-739.5 227.5,-739.5"/>
<text text-anchor="start" x="234.5" y="-750.9" font-family="Arial" font-size="14.00" fill="#000000">session_id    </text>
<text text-anchor="start" x="334.831" y="-750.9" font-family="Arial" font-size="14.00" fill="#666666">[VARCHAR]</text>
<polygon fill="none" stroke="#000000" points="227.5,-709.5 227.5,-739.5 540.5,-739.5 540.5,-709.5 227.5,-709.5"/>
<text text-anchor="start" x="234.5" y="-720.9" font-family="Arial" font-size="14.00" fill="#000000">session_entry_id    </text>
<text text-anchor="start" x="373.73" y="-720.9" font-family="Arial" font-size="14.00" fill="#666666">[VARCHAR]</text>
<polygon fill="none" stroke="#000000" points="227.5,-679.5 227.5,-709.5 540.5,-709.5 540.5,-679.5 227.5,-679.5"/>
<text text-anchor="start" x="234.5" y="-690.9" font-family="Arial" font-size="14.00" fill="#000000">issue_type    </text>
<text text-anchor="start" x="335.615" y="-690.9" font-family="Arial" font-size="14.00" fill="#666666">[TEXT]</text>
<polygon fill="none" stroke="#000000" points="227.5,-649.5 227.5,-679.5 540.5,-679.5 540.5,-649.5 227.5,-649.5"/>
<text text-anchor="start" x="234.5" y="-660.9" font-family="Arial" font-size="14.00" fill="#000000">issue_message    </text>
<text text-anchor="start" x="365.9502" y="-660.9" font-family="Arial" font-size="14.00" fill="#666666">[TEXT]</text>
<polygon fill="none" stroke="#000000" points="227.5,-619.5 227.5,-649.5 540.5,-649.5 540.5,-619.5 227.5,-619.5"/>
<text text-anchor="start" x="234.5" y="-630.9" font-family="Arial" font-size="14.00" fill="#000000">issue_row    </text>
<text text-anchor="start" x="331.709" y="-630.9" font-family="Arial" font-size="14.00" fill="#666666">[INTEGER]</text>
<polygon fill="none" stroke="#000000" points="227.5,-589.5 227.5,-619.5 540.5,-619.5 540.5,-589.5 227.5,-589.5"/>
<text text-anchor="start" x="234.5" y="-600.9" font-family="Arial" font-size="14.00" fill="#000000">issue_column    </text>
<text text-anchor="start" x="354.2742" y="-600.9" font-family="Arial" font-size="14.00" fill="#666666">[TEXT]</text>
<polygon fill="none" stroke="#000000" points="227.5,-559.5 227.5,-589.5 540.5,-589.5 540.5,-559.5 227.5,-559.5"/>
<text text-anchor="start" x="234.5" y="-570.9" font-family="Arial" font-size="14.00" fill="#000000">invalid_value    </text>
<text text-anchor="start" x="349.6094" y="-570.9" font-family="Arial" font-size="14.00" fill="#666666">[TEXT]</text>
<polygon fill="none" stroke="#000000" points="227.5,-529.5 227.5,-559.5 540.5,-559.5 540.5,-529.5 227.5,-529.5"/>
<text text-anchor="start" x="234.5" y="-540.9" font-family="Arial" font-size="14.00" fill="#000000">remediation    </text>
<text text-anchor="start" x="341.8254" y="-540.9" font-family="Arial" font-size="14.00" fill="#666666">[TEXT]</text>
<polygon fill="none" stroke="#000000" points="227.5,-499.5 227.5,-529.5 540.5,-529.5 540.5,-499.5 227.5,-499.5"/>
<text text-anchor="start" x="234.5" y="-510.9" font-family="Arial" font-size="14.00" fill="#000000">elaboration    </text>
<text text-anchor="start" x="337.9474" y="-510.9" font-family="Arial" font-size="14.00" fill="#666666">[TEXT]</text>
</g>
<!-- orchestration_session_issue_relation&#45;&gt;orchestration_session_issue -->
<g id="edge1" class="edge">
<title>orchestration_session_issue_relation:issue_id_prime&#45;&gt;orchestration_session_issue:orchestration_session_issue_id</title>
<path fill="none" stroke="#000000" d="M183.3136,-1063.6203C129.096,-1053.6256 151.1587,-960.9613 193.5,-914 245.413,-856.4226 488.587,-935.5774 540.5,-878 568.3268,-847.1369 582.0556,-784.5 540.5,-784.5"/>
<polygon fill="#000000" stroke="#000000" points="183.5371,-1063.6395 193.1128,-1068.9833 188.5185,-1064.0697 193.5,-1064.5 193.5,-1064.5 193.5,-1064.5 188.5185,-1064.0697 193.8872,-1060.0167 183.5371,-1063.6395 183.5371,-1063.6395"/>
</g>
<!-- orchestration_session -->
<g id="node3" class="node">
<title>orchestration_session</title>
<polygon fill="#efefef" stroke="transparent" points="43.5,-342.5 43.5,-377.5 322.5,-377.5 322.5,-342.5 43.5,-342.5"/>
<polygon fill="none" stroke="#000000" points="43.5,-342.5 43.5,-377.5 322.5,-377.5 322.5,-342.5 43.5,-342.5"/>
<text text-anchor="start" x="59.3149" y="-355.3" font-family="Arial Bold" font-size="18.00" fill="#000000">orchestration_session</text>
<text text-anchor="start" x="234.3541" y="-355.3" font-family="Arial" font-size="14.00" fill="#000000">    </text>
<text text-anchor="start" x="268.5589" y="-355.3" font-family="Arial" font-size="14.00" fill="#666666">[table]</text>
<polygon fill="none" stroke="#000000" points="43.5,-312.5 43.5,-342.5 322.5,-342.5 322.5,-312.5 43.5,-312.5"/>
<text text-anchor="start" x="50.3822" y="-323.9" font-family="Arial" font-size="14.00" fill="#000000">orchestration_session_id    </text>
<text text-anchor="start" x="239.4004" y="-323.9" font-family="Arial" font-size="14.00" fill="#666666">[VARCHAR]</text>
<polygon fill="none" stroke="#000000" points="43.5,-282.5 43.5,-312.5 322.5,-312.5 322.5,-282.5 43.5,-282.5"/>
<text text-anchor="start" x="50.5" y="-293.9" font-family="Arial" font-size="14.00" fill="#000000">device_id    </text>
<text text-anchor="start" x="143.831" y="-293.9" font-family="Arial" font-size="14.00" fill="#666666">[VARCHAR]</text>
<polygon fill="none" stroke="#000000" points="43.5,-252.5 43.5,-282.5 322.5,-282.5 322.5,-252.5 43.5,-252.5"/>
<text text-anchor="start" x="50.5" y="-263.9" font-family="Arial" font-size="14.00" fill="#000000">orchestration_nature_id    </text>
<text text-anchor="start" x="231.7454" y="-263.9" font-family="Arial" font-size="14.00" fill="#666666">[TEXT]</text>
<polygon fill="none" stroke="#000000" points="43.5,-222.5 43.5,-252.5 322.5,-252.5 322.5,-222.5 43.5,-222.5"/>
<text text-anchor="start" x="50.5" y="-233.9" font-family="Arial" font-size="14.00" fill="#000000">version    </text>
<text text-anchor="start" x="129.8198" y="-233.9" font-family="Arial" font-size="14.00" fill="#666666">[TEXT]</text>
<polygon fill="none" stroke="#000000" points="43.5,-192.5 43.5,-222.5 322.5,-222.5 322.5,-192.5 43.5,-192.5"/>
<text text-anchor="start" x="50.5" y="-203.9" font-family="Arial" font-size="14.00" fill="#000000">orch_started_at    </text>
<text text-anchor="start" x="181.9586" y="-203.9" font-family="Arial" font-size="14.00" fill="#666666">[TIMESTAMPTZ]</text>
<polygon fill="none" stroke="#000000" points="43.5,-162.5 43.5,-192.5 322.5,-192.5 322.5,-162.5 43.5,-162.5"/>
<text text-anchor="start" x="50.5" y="-173.9" font-family="Arial" font-size="14.00" fill="#000000">orch_finished_at    </text>
<text text-anchor="start" x="187.4032" y="-173.9" font-family="Arial" font-size="14.00" fill="#666666">[TIMESTAMPTZ]</text>
<polygon fill="none" stroke="#000000" points="43.5,-132.5 43.5,-162.5 322.5,-162.5 322.5,-132.5 43.5,-132.5"/>
<text text-anchor="start" x="50.5" y="-143.9" font-family="Arial" font-size="14.00" fill="#000000">elaboration    </text>
<text text-anchor="start" x="153.9474" y="-143.9" font-family="Arial" font-size="14.00" fill="#666666">[TEXT]</text>
<polygon fill="none" stroke="#000000" points="43.5,-102.5 43.5,-132.5 322.5,-132.5 322.5,-102.5 43.5,-102.5"/>
<text text-anchor="start" x="50.5" y="-113.9" font-family="Arial" font-size="14.00" fill="#000000">args_json    </text>
<text text-anchor="start" x="145.385" y="-113.9" font-family="Arial" font-size="14.00" fill="#666666">[TEXT]</text>
<polygon fill="none" stroke="#000000" points="43.5,-72.5 43.5,-102.5 322.5,-102.5 322.5,-72.5 43.5,-72.5"/>
<text text-anchor="start" x="50.5" y="-83.9" font-family="Arial" font-size="14.00" fill="#000000">diagnostics_json    </text>
<text text-anchor="start" x="188.176" y="-83.9" font-family="Arial" font-size="14.00" fill="#666666">[TEXT]</text>
<polygon fill="none" stroke="#000000" points="43.5,-42.5 43.5,-72.5 322.5,-72.5 322.5,-42.5 43.5,-42.5"/>
<text text-anchor="start" x="50.5" y="-53.9" font-family="Arial" font-size="14.00" fill="#000000">diagnostics_md    </text>
<text text-anchor="start" x="181.9474" y="-53.9" font-family="Arial" font-size="14.00" fill="#666666">[TEXT]</text>
</g>
<!-- orchestration_session_issue&#45;&gt;orchestration_session -->
<g id="edge2" class="edge">
<title>orchestration_session_issue:session_id&#45;&gt;orchestration_session:orchestration_session_id</title>
<path fill="none" stroke="#000000" d="M217.4327,-754.1114C98.3013,-744.6049 154.3557,-562.9379 227.5,-457 253.1543,-419.8439 296.8457,-458.1561 322.5,-421 346.1108,-386.8036 364.0556,-327.5 322.5,-327.5"/>
<polygon fill="#000000" stroke="#000000" points="217.5074,-754.1142 227.3264,-758.9967 222.5037,-754.3071 227.5,-754.5 227.5,-754.5 227.5,-754.5 222.5037,-754.3071 227.6736,-750.0033 217.5074,-754.1142 217.5074,-754.1142"/>
</g>
<!-- orchestration_session_entry -->
<g id="node4" class="node">
<title>orchestration_session_entry</title>
<polygon fill="#efefef" stroke="transparent" points="426.5,-267.5 426.5,-302.5 744.5,-302.5 744.5,-267.5 426.5,-267.5"/>
<polygon fill="none" stroke="#000000" points="426.5,-267.5 426.5,-302.5 744.5,-302.5 744.5,-267.5 426.5,-267.5"/>
<text text-anchor="start" x="436.8084" y="-280.3" font-family="Arial Bold" font-size="18.00" fill="#000000">orchestration_session_entry</text>
<text text-anchor="start" x="661.8606" y="-280.3" font-family="Arial" font-size="14.00" fill="#000000">    </text>
<text text-anchor="start" x="696.0654" y="-280.3" font-family="Arial" font-size="14.00" fill="#666666">[table]</text>
<polygon fill="none" stroke="#000000" points="426.5,-237.5 426.5,-267.5 744.5,-267.5 744.5,-237.5 426.5,-237.5"/>
<text text-anchor="start" x="433.4327" y="-248.9" font-family="Arial" font-size="14.00" fill="#000000">orchestration_session_entry_id    </text>
<text text-anchor="start" x="661.3499" y="-248.9" font-family="Arial" font-size="14.00" fill="#666666">[VARCHAR]</text>
<polygon fill="none" stroke="#000000" points="426.5,-207.5 426.5,-237.5 744.5,-237.5 744.5,-207.5 426.5,-207.5"/>
<text text-anchor="start" x="433.5" y="-218.9" font-family="Arial" font-size="14.00" fill="#000000">session_id    </text>
<text text-anchor="start" x="533.831" y="-218.9" font-family="Arial" font-size="14.00" fill="#666666">[VARCHAR]</text>
<polygon fill="none" stroke="#000000" points="426.5,-177.5 426.5,-207.5 744.5,-207.5 744.5,-177.5 426.5,-177.5"/>
<text text-anchor="start" x="433.5" y="-188.9" font-family="Arial" font-size="14.00" fill="#000000">ingest_src    </text>
<text text-anchor="start" x="531.493" y="-188.9" font-family="Arial" font-size="14.00" fill="#666666">[TEXT]</text>
<polygon fill="none" stroke="#000000" points="426.5,-147.5 426.5,-177.5 744.5,-177.5 744.5,-147.5 426.5,-147.5"/>
<text text-anchor="start" x="433.5" y="-158.9" font-family="Arial" font-size="14.00" fill="#000000">ingest_table_name    </text>
<text text-anchor="start" x="585.9684" y="-158.9" font-family="Arial" font-size="14.00" fill="#666666">[TEXT]</text>
<polygon fill="none" stroke="#000000" points="426.5,-117.5 426.5,-147.5 744.5,-147.5 744.5,-117.5 426.5,-117.5"/>
<text text-anchor="start" x="433.5" y="-128.9" font-family="Arial" font-size="14.00" fill="#000000">elaboration    </text>
<text text-anchor="start" x="536.9474" y="-128.9" font-family="Arial" font-size="14.00" fill="#666666">[TEXT]</text>
</g>
<!-- orchestration_session_issue&#45;&gt;orchestration_session_entry -->
<g id="edge3" class="edge">
<title>orchestration_session_issue:session_entry_id&#45;&gt;orchestration_session_entry:orchestration_session_entry_id</title>
<path fill="none" stroke="#000000" d="M550.7769,-724.0714C655.0137,-714.98 585.3285,-563.2173 540.5,-457 513.0029,-391.8479 453.9971,-411.1521 426.5,-346 410.3418,-307.7145 384.9444,-252.5 426.5,-252.5"/>
<polygon fill="#000000" stroke="#000000" points="550.4913,-724.0832 540.3125,-720.0039 545.4957,-724.2916 540.5,-724.5 540.5,-724.5 540.5,-724.5 545.4957,-724.2916 540.6875,-728.9961 550.4913,-724.0832 550.4913,-724.0832"/>
</g>
</g>
</svg>
