<?xml version="1.0" encoding="UTF-8" standalone="no"?>
<!DOCTYPE svg PUBLIC "-//W3C//DTD SVG 1.1//EN"
 "http://www.w3.org/Graphics/SVG/1.1/DTD/svg11.dtd">
<!-- Generated by graphviz version 2.40.1 (20161225.0304)
 -->
<!-- Title: orchestration_session_entry Pages: 1 -->
<svg width="1285pt" height="2233pt"
 viewBox="0.00 0.00 1284.50 2233.00" xmlns="http://www.w3.org/2000/svg" xmlns:xlink="http://www.w3.org/1999/xlink">
<g id="graph0" class="graph" transform="scale(1 1) rotate(0) translate(4 2229)">
<title>orchestration_session_entry</title>
<polygon fill="#ffffff" stroke="transparent" points="-4,4 -4,-2229 1280.5,-2229 1280.5,4 -4,4"/>
<!-- orchestration_session_entry -->
<g id="node1" class="node">
<title>orchestration_session_entry</title>
<polygon fill="#efefef" stroke="transparent" points="418.5,-1229.5 418.5,-1264.5 729.5,-1264.5 729.5,-1229.5 418.5,-1229.5"/>
<polygon fill="none" stroke="#000000" points="418.5,-1229.5 418.5,-1264.5 729.5,-1264.5 729.5,-1229.5 418.5,-1229.5"/>
<text text-anchor="start" x="425.3084" y="-1242.3" font-family="Arial Bold" font-size="18.00" fill="#000000">orchestration_session_entry</text>
<text text-anchor="start" x="650.3606" y="-1242.3" font-family="Arial" font-size="14.00" fill="#000000">    </text>
<text text-anchor="start" x="684.5654" y="-1242.3" font-family="Arial" font-size="14.00" fill="#666666">[table]</text>
<polygon fill="none" stroke="#000000" points="418.5,-1199.5 418.5,-1229.5 729.5,-1229.5 729.5,-1199.5 418.5,-1199.5"/>
<text text-anchor="start" x="425.5" y="-1210.9" font-family="Arial" font-size="14.00" fill="#000000">orchestration_session_entry_id </text>
<text text-anchor="start" x="623.103" y="-1210.9" font-family="Arial" font-size="14.00" fill="#666666">[VARCHAR]</text>
<polygon fill="none" stroke="#000000" points="418.5,-1169.5 418.5,-1199.5 729.5,-1199.5 729.5,-1169.5 418.5,-1169.5"/>
<text text-anchor="start" x="425.5" y="-1180.9" font-family="Arial" font-size="14.00" fill="#000000">session_id </text>
<text text-anchor="start" x="495.5168" y="-1180.9" font-family="Arial" font-size="14.00" fill="#666666">[VARCHAR]</text>
<polygon fill="none" stroke="#000000" points="418.5,-1139.5 418.5,-1169.5 729.5,-1169.5 729.5,-1139.5 418.5,-1139.5"/>
<text text-anchor="start" x="425.5" y="-1150.9" font-family="Arial" font-size="14.00" fill="#000000">ingest_src </text>
<text text-anchor="start" x="493.1788" y="-1150.9" font-family="Arial" font-size="14.00" fill="#666666">[TEXT]</text>
<polygon fill="none" stroke="#000000" points="418.5,-1109.5 418.5,-1139.5 729.5,-1139.5 729.5,-1109.5 418.5,-1109.5"/>
<text text-anchor="start" x="425.5" y="-1120.9" font-family="Arial" font-size="14.00" fill="#000000">ingest_table_name </text>
<text text-anchor="start" x="547.6542" y="-1120.9" font-family="Arial" font-size="14.00" fill="#666666">[TEXT]</text>
<polygon fill="none" stroke="#000000" points="418.5,-1079.5 418.5,-1109.5 729.5,-1109.5 729.5,-1079.5 418.5,-1079.5"/>
<text text-anchor="start" x="425.5" y="-1090.9" font-family="Arial" font-size="14.00" fill="#000000">elaboration </text>
<text text-anchor="start" x="498.6332" y="-1090.9" font-family="Arial" font-size="14.00" fill="#666666">[TEXT]</text>
<polygon fill="none" stroke="#000000" stroke-width="3" points="416.5,-1078.5 416.5,-1266.5 730.5,-1266.5 730.5,-1078.5 416.5,-1078.5"/>
</g>
<!-- orchestration_session -->
<g id="node3" class="node">
<title>orchestration_session</title>
<polygon fill="#efefef" stroke="transparent" points="548.5,-919.5 548.5,-954.5 827.5,-954.5 827.5,-919.5 548.5,-919.5"/>
<polygon fill="none" stroke="#000000" points="548.5,-919.5 548.5,-954.5 827.5,-954.5 827.5,-919.5 548.5,-919.5"/>
<text text-anchor="start" x="564.3149" y="-932.3" font-family="Arial Bold" font-size="18.00" fill="#000000">orchestration_session</text>
<text text-anchor="start" x="739.3541" y="-932.3" font-family="Arial" font-size="14.00" fill="#000000">    </text>
<text text-anchor="start" x="773.5589" y="-932.3" font-family="Arial" font-size="14.00" fill="#666666">[table]</text>
<polygon fill="none" stroke="#000000" points="548.5,-889.5 548.5,-919.5 827.5,-919.5 827.5,-889.5 548.5,-889.5"/>
<text text-anchor="start" x="555.3822" y="-900.9" font-family="Arial" font-size="14.00" fill="#000000">orchestration_session_id    </text>
<text text-anchor="start" x="744.4004" y="-900.9" font-family="Arial" font-size="14.00" fill="#666666">[VARCHAR]</text>
<polygon fill="none" stroke="#000000" points="548.5,-859.5 548.5,-889.5 827.5,-889.5 827.5,-859.5 548.5,-859.5"/>
<text text-anchor="start" x="555.5" y="-870.9" font-family="Arial" font-size="14.00" fill="#000000">device_id    </text>
<text text-anchor="start" x="648.831" y="-870.9" font-family="Arial" font-size="14.00" fill="#666666">[VARCHAR]</text>
<polygon fill="none" stroke="#000000" points="548.5,-829.5 548.5,-859.5 827.5,-859.5 827.5,-829.5 548.5,-829.5"/>
<text text-anchor="start" x="555.5" y="-840.9" font-family="Arial" font-size="14.00" fill="#000000">orchestration_nature_id    </text>
<text text-anchor="start" x="736.7454" y="-840.9" font-family="Arial" font-size="14.00" fill="#666666">[TEXT]</text>
<polygon fill="none" stroke="#000000" points="548.5,-799.5 548.5,-829.5 827.5,-829.5 827.5,-799.5 548.5,-799.5"/>
<text text-anchor="start" x="555.5" y="-810.9" font-family="Arial" font-size="14.00" fill="#000000">version    </text>
<text text-anchor="start" x="634.8198" y="-810.9" font-family="Arial" font-size="14.00" fill="#666666">[TEXT]</text>
<polygon fill="none" stroke="#000000" points="548.5,-769.5 548.5,-799.5 827.5,-799.5 827.5,-769.5 548.5,-769.5"/>
<text text-anchor="start" x="555.5" y="-780.9" font-family="Arial" font-size="14.00" fill="#000000">orch_started_at    </text>
<text text-anchor="start" x="686.9586" y="-780.9" font-family="Arial" font-size="14.00" fill="#666666">[TIMESTAMPTZ]</text>
<polygon fill="none" stroke="#000000" points="548.5,-739.5 548.5,-769.5 827.5,-769.5 827.5,-739.5 548.5,-739.5"/>
<text text-anchor="start" x="555.5" y="-750.9" font-family="Arial" font-size="14.00" fill="#000000">orch_finished_at    </text>
<text text-anchor="start" x="692.4032" y="-750.9" font-family="Arial" font-size="14.00" fill="#666666">[TIMESTAMPTZ]</text>
<polygon fill="none" stroke="#000000" points="548.5,-709.5 548.5,-739.5 827.5,-739.5 827.5,-709.5 548.5,-709.5"/>
<text text-anchor="start" x="555.5" y="-720.9" font-family="Arial" font-size="14.00" fill="#000000">elaboration    </text>
<text text-anchor="start" x="658.9474" y="-720.9" font-family="Arial" font-size="14.00" fill="#666666">[TEXT]</text>
<polygon fill="none" stroke="#000000" points="548.5,-679.5 548.5,-709.5 827.5,-709.5 827.5,-679.5 548.5,-679.5"/>
<text text-anchor="start" x="555.5" y="-690.9" font-family="Arial" font-size="14.00" fill="#000000">args_json    </text>
<text text-anchor="start" x="650.385" y="-690.9" font-family="Arial" font-size="14.00" fill="#666666">[TEXT]</text>
<polygon fill="none" stroke="#000000" points="548.5,-649.5 548.5,-679.5 827.5,-679.5 827.5,-649.5 548.5,-649.5"/>
<text text-anchor="start" x="555.5" y="-660.9" font-family="Arial" font-size="14.00" fill="#000000">diagnostics_json    </text>
<text text-anchor="start" x="693.176" y="-660.9" font-family="Arial" font-size="14.00" fill="#666666">[TEXT]</text>
<polygon fill="none" stroke="#000000" points="548.5,-619.5 548.5,-649.5 827.5,-649.5 827.5,-619.5 548.5,-619.5"/>
<text text-anchor="start" x="555.5" y="-630.9" font-family="Arial" font-size="14.00" fill="#000000">diagnostics_md    </text>
<text text-anchor="start" x="686.9474" y="-630.9" font-family="Arial" font-size="14.00" fill="#666666">[TEXT]</text>
</g>
<!-- orchestration_session_entry&#45;&gt;orchestration_session -->
<g id="edge9" class="edge">
<title>orchestration_session_entry:session_id&#45;&gt;orchestration_session:orchestration_session_id</title>
<path fill="none" stroke="#000000" d="M739.6664,-1183.6375C793.6604,-1173.8352 769.6137,-1082.8778 729.5,-1034 677.4664,-970.598 600.5336,-1061.402 548.5,-998 522.1372,-965.8773 506.9444,-904.5 548.5,-904.5"/>
<polygon fill="#000000" stroke="#000000" points="739.4642,-1183.6545 729.1195,-1180.0161 734.4821,-1184.0773 729.5,-1184.5 729.5,-1184.5 729.5,-1184.5 734.4821,-1184.0773 729.8805,-1188.9839 739.4642,-1183.6545 739.4642,-1183.6545"/>
</g>
<!-- orchestration_session_state -->
<g id="node2" class="node">
<title>orchestration_session_state</title>
<polygon fill="#efefef" stroke="transparent" points="43.5,-1749.5 43.5,-1784.5 360.5,-1784.5 360.5,-1749.5 43.5,-1749.5"/>
<polygon fill="none" stroke="#000000" points="43.5,-1749.5 43.5,-1784.5 360.5,-1784.5 360.5,-1749.5 43.5,-1749.5"/>
<text text-anchor="start" x="53.8034" y="-1762.3" font-family="Arial Bold" font-size="18.00" fill="#000000">orchestration_session_state</text>
<text text-anchor="start" x="277.8656" y="-1762.3" font-family="Arial" font-size="14.00" fill="#000000">    </text>
<text text-anchor="start" x="312.0704" y="-1762.3" font-family="Arial" font-size="14.00" fill="#666666">[table]</text>
<polygon fill="none" stroke="#000000" points="43.5,-1719.5 43.5,-1749.5 360.5,-1749.5 360.5,-1719.5 43.5,-1719.5"/>
<text text-anchor="start" x="50.3177" y="-1730.9" font-family="Arial" font-size="14.00" fill="#000000">orchestration_session_state_id    </text>
<text text-anchor="start" x="277.4649" y="-1730.9" font-family="Arial" font-size="14.00" fill="#666666">[VARCHAR]</text>
<polygon fill="none" stroke="#000000" points="43.5,-1689.5 43.5,-1719.5 360.5,-1719.5 360.5,-1689.5 43.5,-1689.5"/>
<text text-anchor="start" x="50.5" y="-1700.9" font-family="Arial" font-size="14.00" fill="#000000">session_id    </text>
<text text-anchor="start" x="150.831" y="-1700.9" font-family="Arial" font-size="14.00" fill="#666666">[VARCHAR]</text>
<polygon fill="none" stroke="#000000" points="43.5,-1659.5 43.5,-1689.5 360.5,-1689.5 360.5,-1659.5 43.5,-1659.5"/>
<text text-anchor="start" x="50.5" y="-1670.9" font-family="Arial" font-size="14.00" fill="#000000">session_entry_id    </text>
<text text-anchor="start" x="189.73" y="-1670.9" font-family="Arial" font-size="14.00" fill="#666666">[VARCHAR]</text>
<polygon fill="none" stroke="#000000" points="43.5,-1629.5 43.5,-1659.5 360.5,-1659.5 360.5,-1629.5 43.5,-1629.5"/>
<text text-anchor="start" x="50.5" y="-1640.9" font-family="Arial" font-size="14.00" fill="#000000">from_state    </text>
<text text-anchor="start" x="150.8282" y="-1640.9" font-family="Arial" font-size="14.00" fill="#666666">[TEXT]</text>
<polygon fill="none" stroke="#000000" points="43.5,-1599.5 43.5,-1629.5 360.5,-1629.5 360.5,-1599.5 43.5,-1599.5"/>
<text text-anchor="start" x="50.5" y="-1610.9" font-family="Arial" font-size="14.00" fill="#000000">to_state    </text>
<text text-anchor="start" x="134.507" y="-1610.9" font-family="Arial" font-size="14.00" fill="#666666">[TEXT]</text>
<polygon fill="none" stroke="#000000" points="43.5,-1569.5 43.5,-1599.5 360.5,-1599.5 360.5,-1569.5 43.5,-1569.5"/>
<text text-anchor="start" x="50.5" y="-1580.9" font-family="Arial" font-size="14.00" fill="#000000">transition_result    </text>
<text text-anchor="start" x="183.4958" y="-1580.9" font-family="Arial" font-size="14.00" fill="#666666">[TEXT]</text>
<polygon fill="none" stroke="#000000" points="43.5,-1539.5 43.5,-1569.5 360.5,-1569.5 360.5,-1539.5 43.5,-1539.5"/>
<text text-anchor="start" x="50.5" y="-1550.9" font-family="Arial" font-size="14.00" fill="#000000">transition_reason    </text>
<text text-anchor="start" x="192.0638" y="-1550.9" font-family="Arial" font-size="14.00" fill="#666666">[TEXT]</text>
<polygon fill="none" stroke="#000000" points="43.5,-1509.5 43.5,-1539.5 360.5,-1539.5 360.5,-1509.5 43.5,-1509.5"/>
<text text-anchor="start" x="50.5" y="-1520.9" font-family="Arial" font-size="14.00" fill="#000000">transitioned_at    </text>
<text text-anchor="start" x="176.5112" y="-1520.9" font-family="Arial" font-size="14.00" fill="#666666">[TIMESTAMPTZ]</text>
<polygon fill="none" stroke="#000000" points="43.5,-1479.5 43.5,-1509.5 360.5,-1509.5 360.5,-1479.5 43.5,-1479.5"/>
<text text-anchor="start" x="50.5" y="-1490.9" font-family="Arial" font-size="14.00" fill="#000000">elaboration    </text>
<text text-anchor="start" x="153.9474" y="-1490.9" font-family="Arial" font-size="14.00" fill="#666666">[TEXT]</text>
</g>
<!-- orchestration_session_state&#45;&gt;orchestration_session_entry -->
<g id="edge1" class="edge">
<title>orchestration_session_state:session_entry_id&#45;&gt;orchestration_session_entry:orchestration_session_entry_id</title>
<path fill="none" stroke="#000000" d="M370.4574,-1672.8343C453.4312,-1642.7248 319.0906,-1214.5 418.5,-1214.5"/>
<polygon fill="#000000" stroke="#000000" points="370.363,-1672.8501 359.7575,-1670.0617 365.4315,-1673.675 360.5,-1674.5 360.5,-1674.5 360.5,-1674.5 365.4315,-1673.675 361.2425,-1678.9383 370.363,-1672.8501 370.363,-1672.8501"/>
</g>
<!-- orchestration_session_state&#45;&gt;orchestration_session -->
<g id="edge2" class="edge">
<title>orchestration_session_state:session_id&#45;&gt;orchestration_session:orchestration_session_id</title>
<path fill="none" stroke="#000000" d="M361.3771,-1694.2979C364.488,-1610.4389 360.4966,-1037.822 362.5,-1034 409.264,-944.7837 447.7706,-904.5 548.5,-904.5"/>
<polygon fill="#000000" stroke="#000000" points="361.3567,-1694.5368 356.0165,-1704.1145 360.9283,-1699.5184 360.5,-1704.5 360.5,-1704.5 360.5,-1704.5 360.9283,-1699.5184 364.9835,-1704.8855 361.3567,-1694.5368 361.3567,-1694.5368"/>
</g>
<!-- device -->
<g id="node7" class="node">
<title>device</title>
<polygon fill="#efefef" stroke="transparent" points="405.5,-462.5 405.5,-497.5 629.5,-497.5 629.5,-462.5 405.5,-462.5"/>
<polygon fill="none" stroke="#000000" points="405.5,-462.5 405.5,-497.5 629.5,-497.5 629.5,-462.5 405.5,-462.5"/>
<text text-anchor="start" x="455.3281" y="-475.3" font-family="Arial Bold" font-size="18.00" fill="#000000">device</text>
<text text-anchor="start" x="507.3409" y="-475.3" font-family="Arial" font-size="14.00" fill="#000000">    </text>
<text text-anchor="start" x="541.5457" y="-475.3" font-family="Arial" font-size="14.00" fill="#666666">[table]</text>
<polygon fill="none" stroke="#000000" points="405.5,-432.5 405.5,-462.5 629.5,-462.5 629.5,-432.5 405.5,-432.5"/>
<text text-anchor="start" x="412.5" y="-443.9" font-family="Arial" font-size="14.00" fill="#000000">device_id    </text>
<text text-anchor="start" x="505.831" y="-443.9" font-family="Arial" font-size="14.00" fill="#666666">[VARCHAR]</text>
<polygon fill="none" stroke="#000000" points="405.5,-402.5 405.5,-432.5 629.5,-432.5 629.5,-402.5 405.5,-402.5"/>
<text text-anchor="start" x="412.5" y="-413.9" font-family="Arial" font-size="14.00" fill="#000000">name    </text>
<text text-anchor="start" x="481.7132" y="-413.9" font-family="Arial" font-size="14.00" fill="#666666">[TEXT]</text>
<polygon fill="none" stroke="#000000" points="405.5,-372.5 405.5,-402.5 629.5,-402.5 629.5,-372.5 405.5,-372.5"/>
<text text-anchor="start" x="412.5" y="-383.9" font-family="Arial" font-size="14.00" fill="#000000">state    </text>
<text text-anchor="start" x="477.0512" y="-383.9" font-family="Arial" font-size="14.00" fill="#666666">[TEXT]</text>
<polygon fill="none" stroke="#000000" points="405.5,-342.5 405.5,-372.5 629.5,-372.5 629.5,-342.5 405.5,-342.5"/>
<text text-anchor="start" x="412.5" y="-353.9" font-family="Arial" font-size="14.00" fill="#000000">boundary    </text>
<text text-anchor="start" x="505.061" y="-353.9" font-family="Arial" font-size="14.00" fill="#666666">[TEXT]</text>
<polygon fill="none" stroke="#000000" points="405.5,-312.5 405.5,-342.5 629.5,-342.5 629.5,-312.5 405.5,-312.5"/>
<text text-anchor="start" x="412.5" y="-323.9" font-family="Arial" font-size="14.00" fill="#000000">segmentation    </text>
<text text-anchor="start" x="530.7314" y="-323.9" font-family="Arial" font-size="14.00" fill="#666666">[TEXT]</text>
<polygon fill="none" stroke="#000000" points="405.5,-282.5 405.5,-312.5 629.5,-312.5 629.5,-282.5 405.5,-282.5"/>
<text text-anchor="start" x="412.5" y="-293.9" font-family="Arial" font-size="14.00" fill="#000000">state_sysinfo    </text>
<text text-anchor="start" x="528.3962" y="-293.9" font-family="Arial" font-size="14.00" fill="#666666">[TEXT]</text>
<polygon fill="none" stroke="#000000" points="405.5,-252.5 405.5,-282.5 629.5,-282.5 629.5,-252.5 405.5,-252.5"/>
<text text-anchor="start" x="412.5" y="-263.9" font-family="Arial" font-size="14.00" fill="#000000">elaboration    </text>
<text text-anchor="start" x="515.9474" y="-263.9" font-family="Arial" font-size="14.00" fill="#666666">[TEXT]</text>
<polygon fill="none" stroke="#000000" points="405.5,-222.5 405.5,-252.5 629.5,-252.5 629.5,-222.5 405.5,-222.5"/>
<text text-anchor="start" x="412.5" y="-233.9" font-family="Arial" font-size="14.00" fill="#000000">created_at    </text>
<text text-anchor="start" x="512.8422" y="-233.9" font-family="Arial" font-size="14.00" fill="#666666">[TIMESTAMPTZ]</text>
<polygon fill="none" stroke="#000000" points="405.5,-192.5 405.5,-222.5 629.5,-222.5 629.5,-192.5 405.5,-192.5"/>
<text text-anchor="start" x="412.5" y="-203.9" font-family="Arial" font-size="14.00" fill="#000000">created_by    </text>
<text text-anchor="start" x="515.9516" y="-203.9" font-family="Arial" font-size="14.00" fill="#666666">[TEXT]</text>
<polygon fill="none" stroke="#000000" points="405.5,-162.5 405.5,-192.5 629.5,-192.5 629.5,-162.5 405.5,-162.5"/>
<text text-anchor="start" x="412.1017" y="-173.9" font-family="Arial" font-size="14.00" fill="#000000">updated_at    </text>
<text text-anchor="start" x="516.3485" y="-173.9" font-family="Arial" font-size="14.00" fill="#666666">[TIMESTAMPTZ]</text>
<polygon fill="none" stroke="#000000" points="405.5,-132.5 405.5,-162.5 629.5,-162.5 629.5,-132.5 405.5,-132.5"/>
<text text-anchor="start" x="412.5" y="-143.9" font-family="Arial" font-size="14.00" fill="#000000">updated_by    </text>
<text text-anchor="start" x="519.8562" y="-143.9" font-family="Arial" font-size="14.00" fill="#666666">[TEXT]</text>
<polygon fill="none" stroke="#000000" points="405.5,-102.5 405.5,-132.5 629.5,-132.5 629.5,-102.5 405.5,-102.5"/>
<text text-anchor="start" x="412.5" y="-113.9" font-family="Arial" font-size="14.00" fill="#000000">deleted_at    </text>
<text text-anchor="start" x="512.0708" y="-113.9" font-family="Arial" font-size="14.00" fill="#666666">[TIMESTAMPTZ]</text>
<polygon fill="none" stroke="#000000" points="405.5,-72.5 405.5,-102.5 629.5,-102.5 629.5,-72.5 405.5,-72.5"/>
<text text-anchor="start" x="412.5" y="-83.9" font-family="Arial" font-size="14.00" fill="#000000">deleted_by    </text>
<text text-anchor="start" x="515.1802" y="-83.9" font-family="Arial" font-size="14.00" fill="#666666">[TEXT]</text>
<polygon fill="none" stroke="#000000" points="405.5,-42.5 405.5,-72.5 629.5,-72.5 629.5,-42.5 405.5,-42.5"/>
<text text-anchor="start" x="412.5" y="-53.9" font-family="Arial" font-size="14.00" fill="#000000">activity_log    </text>
<text text-anchor="start" x="515.9362" y="-53.9" font-family="Arial" font-size="14.00" fill="#666666">[TEXT]</text>
</g>
<!-- orchestration_session&#45;&gt;device -->
<g id="edge10" class="edge">
<title>orchestration_session:device_id&#45;&gt;device:device_id</title>
<path fill="none" stroke="#000000" d="M538.439,-874.1156C419.4592,-864.7107 478.3501,-684.944 548.5,-577 569.9671,-543.9672 608.0329,-574.0328 629.5,-541 652.1442,-506.156 671.0556,-447.5 629.5,-447.5"/>
<polygon fill="#000000" stroke="#000000" points="538.5073,-874.1181 548.3281,-878.9967 543.5036,-874.309 548.5,-874.5 548.5,-874.5 548.5,-874.5 543.5036,-874.309 548.6719,-870.0033 538.5073,-874.1181 538.5073,-874.1181"/>
</g>
<!-- orchestration_nature -->
<g id="node8" class="node">
<title>orchestration_nature</title>
<polygon fill="#efefef" stroke="transparent" points="734.5,-402.5 734.5,-437.5 985.5,-437.5 985.5,-402.5 734.5,-402.5"/>
<polygon fill="none" stroke="#000000" points="734.5,-402.5 734.5,-437.5 985.5,-437.5 985.5,-402.5 734.5,-402.5"/>
<text text-anchor="start" x="741.3117" y="-415.3" font-family="Arial Bold" font-size="18.00" fill="#000000">orchestration_nature</text>
<text text-anchor="start" x="906.3573" y="-415.3" font-family="Arial" font-size="14.00" fill="#000000">    </text>
<text text-anchor="start" x="940.5621" y="-415.3" font-family="Arial" font-size="14.00" fill="#666666">[table]</text>
<polygon fill="none" stroke="#000000" points="734.5,-372.5 734.5,-402.5 985.5,-402.5 985.5,-372.5 734.5,-372.5"/>
<text text-anchor="start" x="741.5" y="-383.9" font-family="Arial" font-size="14.00" fill="#000000">orchestration_nature_id    </text>
<text text-anchor="start" x="922.7454" y="-383.9" font-family="Arial" font-size="14.00" fill="#666666">[TEXT]</text>
<polygon fill="none" stroke="#000000" points="734.5,-342.5 734.5,-372.5 985.5,-372.5 985.5,-342.5 734.5,-342.5"/>
<text text-anchor="start" x="741.5" y="-353.9" font-family="Arial" font-size="14.00" fill="#000000">nature    </text>
<text text-anchor="start" x="815.3864" y="-353.9" font-family="Arial" font-size="14.00" fill="#666666">[TEXT]</text>
<polygon fill="none" stroke="#000000" points="734.5,-312.5 734.5,-342.5 985.5,-342.5 985.5,-312.5 734.5,-312.5"/>
<text text-anchor="start" x="741.5" y="-323.9" font-family="Arial" font-size="14.00" fill="#000000">elaboration    </text>
<text text-anchor="start" x="844.9474" y="-323.9" font-family="Arial" font-size="14.00" fill="#666666">[TEXT]</text>
<polygon fill="none" stroke="#000000" points="734.5,-282.5 734.5,-312.5 985.5,-312.5 985.5,-282.5 734.5,-282.5"/>
<text text-anchor="start" x="741.5" y="-293.9" font-family="Arial" font-size="14.00" fill="#000000">created_at    </text>
<text text-anchor="start" x="841.8422" y="-293.9" font-family="Arial" font-size="14.00" fill="#666666">[TIMESTAMPTZ]</text>
<polygon fill="none" stroke="#000000" points="734.5,-252.5 734.5,-282.5 985.5,-282.5 985.5,-252.5 734.5,-252.5"/>
<text text-anchor="start" x="741.5" y="-263.9" font-family="Arial" font-size="14.00" fill="#000000">created_by    </text>
<text text-anchor="start" x="844.9516" y="-263.9" font-family="Arial" font-size="14.00" fill="#666666">[TEXT]</text>
<polygon fill="none" stroke="#000000" points="734.5,-222.5 734.5,-252.5 985.5,-252.5 985.5,-222.5 734.5,-222.5"/>
<text text-anchor="start" x="741.5" y="-233.9" font-family="Arial" font-size="14.00" fill="#000000">updated_at    </text>
<text text-anchor="start" x="845.7468" y="-233.9" font-family="Arial" font-size="14.00" fill="#666666">[TIMESTAMPTZ]</text>
<polygon fill="none" stroke="#000000" points="734.5,-192.5 734.5,-222.5 985.5,-222.5 985.5,-192.5 734.5,-192.5"/>
<text text-anchor="start" x="741.5" y="-203.9" font-family="Arial" font-size="14.00" fill="#000000">updated_by    </text>
<text text-anchor="start" x="848.8562" y="-203.9" font-family="Arial" font-size="14.00" fill="#666666">[TEXT]</text>
<polygon fill="none" stroke="#000000" points="734.5,-162.5 734.5,-192.5 985.5,-192.5 985.5,-162.5 734.5,-162.5"/>
<text text-anchor="start" x="741.5" y="-173.9" font-family="Arial" font-size="14.00" fill="#000000">deleted_at    </text>
<text text-anchor="start" x="841.0708" y="-173.9" font-family="Arial" font-size="14.00" fill="#666666">[TIMESTAMPTZ]</text>
<polygon fill="none" stroke="#000000" points="734.5,-132.5 734.5,-162.5 985.5,-162.5 985.5,-132.5 734.5,-132.5"/>
<text text-anchor="start" x="741.5" y="-143.9" font-family="Arial" font-size="14.00" fill="#000000">deleted_by    </text>
<text text-anchor="start" x="844.1802" y="-143.9" font-family="Arial" font-size="14.00" fill="#666666">[TEXT]</text>
<polygon fill="none" stroke="#000000" points="734.5,-102.5 734.5,-132.5 985.5,-132.5 985.5,-102.5 734.5,-102.5"/>
<text text-anchor="start" x="741.5" y="-113.9" font-family="Arial" font-size="14.00" fill="#000000">activity_log    </text>
<text text-anchor="start" x="844.9362" y="-113.9" font-family="Arial" font-size="14.00" fill="#666666">[TEXT]</text>
</g>
<!-- orchestration_session&#45;&gt;orchestration_nature -->
<g id="edge11" class="edge">
<title>orchestration_session:orchestration_nature_id&#45;&gt;orchestration_nature:orchestration_nature_id</title>
<path fill="none" stroke="#000000" d="M837.7726,-844.0732C941.9195,-835.0189 870.7728,-683.8606 827.5,-577 805.2032,-521.9388 756.7968,-536.0612 734.5,-481 718.9026,-442.4827 692.9444,-387.5 734.5,-387.5"/>
<polygon fill="#000000" stroke="#000000" points="837.4914,-844.0848 827.3131,-840.0039 832.4957,-844.2924 827.5,-844.5 827.5,-844.5 827.5,-844.5 832.4957,-844.2924 827.6869,-848.9961 837.4914,-844.0848 837.4914,-844.0848"/>
</g>
<!-- orchestration_session_exec -->
<g id="node4" class="node">
<title>orchestration_session_exec</title>
<polygon fill="#efefef" stroke="transparent" points="464.5,-1839.5 464.5,-1874.5 780.5,-1874.5 780.5,-1839.5 464.5,-1839.5"/>
<polygon fill="none" stroke="#000000" points="464.5,-1839.5 464.5,-1874.5 780.5,-1874.5 780.5,-1839.5 464.5,-1839.5"/>
<text text-anchor="start" x="474.8056" y="-1852.3" font-family="Arial Bold" font-size="18.00" fill="#000000">orchestration_session_exec</text>
<text text-anchor="start" x="697.8634" y="-1852.3" font-family="Arial" font-size="14.00" fill="#000000">    </text>
<text text-anchor="start" x="732.0682" y="-1852.3" font-family="Arial" font-size="14.00" fill="#666666">[table]</text>
<polygon fill="none" stroke="#000000" points="464.5,-1809.5 464.5,-1839.5 780.5,-1839.5 780.5,-1809.5 464.5,-1809.5"/>
<text text-anchor="start" x="471.2083" y="-1820.9" font-family="Arial" font-size="14.00" fill="#000000">orchestration_session_exec_id    </text>
<text text-anchor="start" x="697.5743" y="-1820.9" font-family="Arial" font-size="14.00" fill="#666666">[VARCHAR]</text>
<polygon fill="none" stroke="#000000" points="464.5,-1779.5 464.5,-1809.5 780.5,-1809.5 780.5,-1779.5 464.5,-1779.5"/>
<text text-anchor="start" x="471.5" y="-1790.9" font-family="Arial" font-size="14.00" fill="#000000">exec_nature    </text>
<text text-anchor="start" x="582.7342" y="-1790.9" font-family="Arial" font-size="14.00" fill="#666666">[TEXT]</text>
<polygon fill="none" stroke="#000000" points="464.5,-1749.5 464.5,-1779.5 780.5,-1779.5 780.5,-1749.5 464.5,-1749.5"/>
<text text-anchor="start" x="471.5" y="-1760.9" font-family="Arial" font-size="14.00" fill="#000000">session_id    </text>
<text text-anchor="start" x="571.831" y="-1760.9" font-family="Arial" font-size="14.00" fill="#666666">[VARCHAR]</text>
<polygon fill="none" stroke="#000000" points="464.5,-1719.5 464.5,-1749.5 780.5,-1749.5 780.5,-1719.5 464.5,-1719.5"/>
<text text-anchor="start" x="471.5" y="-1730.9" font-family="Arial" font-size="14.00" fill="#000000">session_entry_id    </text>
<text text-anchor="start" x="610.73" y="-1730.9" font-family="Arial" font-size="14.00" fill="#666666">[VARCHAR]</text>
<polygon fill="none" stroke="#000000" points="464.5,-1689.5 464.5,-1719.5 780.5,-1719.5 780.5,-1689.5 464.5,-1689.5"/>
<text text-anchor="start" x="471.5" y="-1700.9" font-family="Arial" font-size="14.00" fill="#000000">parent_exec_id    </text>
<text text-anchor="start" x="601.406" y="-1700.9" font-family="Arial" font-size="14.00" fill="#666666">[VARCHAR]</text>
<polygon fill="none" stroke="#000000" points="464.5,-1659.5 464.5,-1689.5 780.5,-1689.5 780.5,-1659.5 464.5,-1659.5"/>
<text text-anchor="start" x="471.5" y="-1670.9" font-family="Arial" font-size="14.00" fill="#000000">namespace    </text>
<text text-anchor="start" x="578.061" y="-1670.9" font-family="Arial" font-size="14.00" fill="#666666">[TEXT]</text>
<polygon fill="none" stroke="#000000" points="464.5,-1629.5 464.5,-1659.5 780.5,-1659.5 780.5,-1629.5 464.5,-1629.5"/>
<text text-anchor="start" x="471.5" y="-1640.9" font-family="Arial" font-size="14.00" fill="#000000">exec_identity    </text>
<text text-anchor="start" x="587.3948" y="-1640.9" font-family="Arial" font-size="14.00" fill="#666666">[TEXT]</text>
<polygon fill="none" stroke="#000000" points="464.5,-1599.5 464.5,-1629.5 780.5,-1629.5 780.5,-1599.5 464.5,-1599.5"/>
<text text-anchor="start" x="471.5" y="-1610.9" font-family="Arial" font-size="14.00" fill="#000000">exec_code    </text>
<text text-anchor="start" x="573.4004" y="-1610.9" font-family="Arial" font-size="14.00" fill="#666666">[TEXT]</text>
<polygon fill="none" stroke="#000000" points="464.5,-1569.5 464.5,-1599.5 780.5,-1599.5 780.5,-1569.5 464.5,-1569.5"/>
<text text-anchor="start" x="471.5" y="-1580.9" font-family="Arial" font-size="14.00" fill="#000000">exec_status    </text>
<text text-anchor="start" x="580.399" y="-1580.9" font-family="Arial" font-size="14.00" fill="#666666">[INTEGER]</text>
<polygon fill="none" stroke="#000000" points="464.5,-1539.5 464.5,-1569.5 780.5,-1569.5 780.5,-1539.5 464.5,-1539.5"/>
<text text-anchor="start" x="471.5" y="-1550.9" font-family="Arial" font-size="14.00" fill="#000000">input_text    </text>
<text text-anchor="start" x="566.3962" y="-1550.9" font-family="Arial" font-size="14.00" fill="#666666">[TEXT]</text>
<polygon fill="none" stroke="#000000" points="464.5,-1509.5 464.5,-1539.5 780.5,-1539.5 780.5,-1509.5 464.5,-1509.5"/>
<text text-anchor="start" x="471.5" y="-1520.9" font-family="Arial" font-size="14.00" fill="#000000">exec_error_text    </text>
<text text-anchor="start" x="602.946" y="-1520.9" font-family="Arial" font-size="14.00" fill="#666666">[TEXT]</text>
<polygon fill="none" stroke="#000000" points="464.5,-1479.5 464.5,-1509.5 780.5,-1509.5 780.5,-1479.5 464.5,-1479.5"/>
<text text-anchor="start" x="471.5" y="-1490.9" font-family="Arial" font-size="14.00" fill="#000000">output_text    </text>
<text text-anchor="start" x="574.9628" y="-1490.9" font-family="Arial" font-size="14.00" fill="#666666">[TEXT]</text>
<polygon fill="none" stroke="#000000" points="464.5,-1449.5 464.5,-1479.5 780.5,-1479.5 780.5,-1449.5 464.5,-1449.5"/>
<text text-anchor="start" x="471.5" y="-1460.9" font-family="Arial" font-size="14.00" fill="#000000">output_nature    </text>
<text text-anchor="start" x="592.0806" y="-1460.9" font-family="Arial" font-size="14.00" fill="#666666">[TEXT]</text>
<polygon fill="none" stroke="#000000" points="464.5,-1419.5 464.5,-1449.5 780.5,-1449.5 780.5,-1419.5 464.5,-1419.5"/>
<text text-anchor="start" x="471.5" y="-1430.9" font-family="Arial" font-size="14.00" fill="#000000">narrative_md    </text>
<text text-anchor="start" x="587.3794" y="-1430.9" font-family="Arial" font-size="14.00" fill="#666666">[TEXT]</text>
<polygon fill="none" stroke="#000000" points="464.5,-1389.5 464.5,-1419.5 780.5,-1419.5 780.5,-1389.5 464.5,-1389.5"/>
<text text-anchor="start" x="471.5" y="-1400.9" font-family="Arial" font-size="14.00" fill="#000000">elaboration    </text>
<text text-anchor="start" x="574.9474" y="-1400.9" font-family="Arial" font-size="14.00" fill="#666666">[TEXT]</text>
</g>
<!-- orchestration_session_exec&#45;&gt;orchestration_session_entry -->
<g id="edge3" class="edge">
<title>orchestration_session_exec:session_entry_id&#45;&gt;orchestration_session_entry:orchestration_session_entry_id</title>
<path fill="none" stroke="#000000" d="M455.8503,-1728.9094C423.7063,-1683.5714 438.2803,-1377.0225 464.5,-1347 542.6852,-1257.4753 651.3148,-1400.5247 729.5,-1311 757.7121,-1278.6962 772.3889,-1214.5 729.5,-1214.5"/>
<polygon fill="#000000" stroke="#000000" points="456.1015,-1729.0717 462.0573,-1738.2793 460.3008,-1731.7859 464.5,-1734.5 464.5,-1734.5 464.5,-1734.5 460.3008,-1731.7859 466.9427,-1730.7207 456.1015,-1729.0717 456.1015,-1729.0717"/>
</g>
<!-- orchestration_session_exec&#45;&gt;orchestration_session -->
<g id="edge5" class="edge">
<title>orchestration_session_exec:session_id&#45;&gt;orchestration_session:orchestration_session_id</title>
<path fill="none" stroke="#000000" d="M785.0786,-1755.4237C809.8559,-1663.5121 849.976,-904.5 827.5,-904.5"/>
<polygon fill="#000000" stroke="#000000" points="785.004,-1755.5717 776.4823,-1762.4732 782.752,-1760.0358 780.5,-1764.5 780.5,-1764.5 780.5,-1764.5 782.752,-1760.0358 784.5177,-1766.5268 785.004,-1755.5717 785.004,-1755.5717"/>
</g>
<!-- orchestration_session_exec&#45;&gt;orchestration_session_exec -->
<g id="edge4" class="edge">
<title>orchestration_session_exec:parent_exec_id&#45;&gt;orchestration_session_exec:orchestration_session_exec_id</title>
<path fill="none" stroke="#000000" d="M623.7284,-1729.6724C631.4795,-1900.8811 631.07,-2146 622.5,-2146 613.7725,-2146 613.5082,-2003.0638 621.7074,-1839.8422"/>
<polygon fill="#000000" stroke="#000000" points="623.7214,-1729.5204 627.7505,-1719.3216 623.4884,-1724.5259 623.2554,-1719.5313 623.2554,-1719.5313 623.2554,-1719.5313 623.4884,-1724.5259 618.7603,-1719.741 623.7214,-1729.5204 623.7214,-1729.5204"/>
</g>
<!-- orchestration_session_issue -->
<g id="node5" class="node">
<title>orchestration_session_issue</title>
<polygon fill="#efefef" stroke="transparent" points="885.5,-1764.5 885.5,-1799.5 1198.5,-1799.5 1198.5,-1764.5 885.5,-1764.5"/>
<polygon fill="none" stroke="#000000" points="885.5,-1764.5 885.5,-1799.5 1198.5,-1799.5 1198.5,-1764.5 885.5,-1764.5"/>
<text text-anchor="start" x="892.3085" y="-1777.3" font-family="Arial Bold" font-size="18.00" fill="#000000">orchestration_session_issue</text>
<text text-anchor="start" x="1119.3605" y="-1777.3" font-family="Arial" font-size="14.00" fill="#000000">    </text>
<text text-anchor="start" x="1153.5653" y="-1777.3" font-family="Arial" font-size="14.00" fill="#666666">[table]</text>
<polygon fill="none" stroke="#000000" points="885.5,-1734.5 885.5,-1764.5 1198.5,-1764.5 1198.5,-1734.5 885.5,-1734.5"/>
<text text-anchor="start" x="892.5" y="-1745.9" font-family="Arial" font-size="14.00" fill="#000000">orchestration_session_issue_id    </text>
<text text-anchor="start" x="1121.9726" y="-1745.9" font-family="Arial" font-size="14.00" fill="#666666">[UUID]</text>
<polygon fill="none" stroke="#000000" points="885.5,-1704.5 885.5,-1734.5 1198.5,-1734.5 1198.5,-1704.5 885.5,-1704.5"/>
<text text-anchor="start" x="892.5" y="-1715.9" font-family="Arial" font-size="14.00" fill="#000000">session_id    </text>
<text text-anchor="start" x="992.831" y="-1715.9" font-family="Arial" font-size="14.00" fill="#666666">[VARCHAR]</text>
<polygon fill="none" stroke="#000000" points="885.5,-1674.5 885.5,-1704.5 1198.5,-1704.5 1198.5,-1674.5 885.5,-1674.5"/>
<text text-anchor="start" x="892.5" y="-1685.9" font-family="Arial" font-size="14.00" fill="#000000">session_entry_id    </text>
<text text-anchor="start" x="1031.73" y="-1685.9" font-family="Arial" font-size="14.00" fill="#666666">[VARCHAR]</text>
<polygon fill="none" stroke="#000000" points="885.5,-1644.5 885.5,-1674.5 1198.5,-1674.5 1198.5,-1644.5 885.5,-1644.5"/>
<text text-anchor="start" x="892.5" y="-1655.9" font-family="Arial" font-size="14.00" fill="#000000">issue_type    </text>
<text text-anchor="start" x="993.615" y="-1655.9" font-family="Arial" font-size="14.00" fill="#666666">[TEXT]</text>
<polygon fill="none" stroke="#000000" points="885.5,-1614.5 885.5,-1644.5 1198.5,-1644.5 1198.5,-1614.5 885.5,-1614.5"/>
<text text-anchor="start" x="892.5" y="-1625.9" font-family="Arial" font-size="14.00" fill="#000000">issue_message    </text>
<text text-anchor="start" x="1023.9502" y="-1625.9" font-family="Arial" font-size="14.00" fill="#666666">[TEXT]</text>
<polygon fill="none" stroke="#000000" points="885.5,-1584.5 885.5,-1614.5 1198.5,-1614.5 1198.5,-1584.5 885.5,-1584.5"/>
<text text-anchor="start" x="892.5" y="-1595.9" font-family="Arial" font-size="14.00" fill="#000000">issue_row    </text>
<text text-anchor="start" x="989.709" y="-1595.9" font-family="Arial" font-size="14.00" fill="#666666">[INTEGER]</text>
<polygon fill="none" stroke="#000000" points="885.5,-1554.5 885.5,-1584.5 1198.5,-1584.5 1198.5,-1554.5 885.5,-1554.5"/>
<text text-anchor="start" x="892.5" y="-1565.9" font-family="Arial" font-size="14.00" fill="#000000">issue_column    </text>
<text text-anchor="start" x="1012.2742" y="-1565.9" font-family="Arial" font-size="14.00" fill="#666666">[TEXT]</text>
<polygon fill="none" stroke="#000000" points="885.5,-1524.5 885.5,-1554.5 1198.5,-1554.5 1198.5,-1524.5 885.5,-1524.5"/>
<text text-anchor="start" x="892.5" y="-1535.9" font-family="Arial" font-size="14.00" fill="#000000">invalid_value    </text>
<text text-anchor="start" x="1007.6094" y="-1535.9" font-family="Arial" font-size="14.00" fill="#666666">[TEXT]</text>
<polygon fill="none" stroke="#000000" points="885.5,-1494.5 885.5,-1524.5 1198.5,-1524.5 1198.5,-1494.5 885.5,-1494.5"/>
<text text-anchor="start" x="892.5" y="-1505.9" font-family="Arial" font-size="14.00" fill="#000000">remediation    </text>
<text text-anchor="start" x="999.8254" y="-1505.9" font-family="Arial" font-size="14.00" fill="#666666">[TEXT]</text>
<polygon fill="none" stroke="#000000" points="885.5,-1464.5 885.5,-1494.5 1198.5,-1494.5 1198.5,-1464.5 885.5,-1464.5"/>
<text text-anchor="start" x="892.5" y="-1475.9" font-family="Arial" font-size="14.00" fill="#000000">elaboration    </text>
<text text-anchor="start" x="995.9474" y="-1475.9" font-family="Arial" font-size="14.00" fill="#666666">[TEXT]</text>
</g>
<!-- orchestration_session_issue&#45;&gt;orchestration_session_entry -->
<g id="edge6" class="edge">
<title>orchestration_session_issue:session_entry_id&#45;&gt;orchestration_session_entry:orchestration_session_entry_id</title>
<path fill="none" stroke="#000000" d="M875.5142,-1687.7572C813.407,-1664.4625 861.5689,-1414.4059 832.5,-1347 802.9629,-1278.5086 804.0889,-1214.5 729.5,-1214.5"/>
<polygon fill="#000000" stroke="#000000" points="875.6489,-1687.7806 884.7263,-1693.933 880.5745,-1688.6403 885.5,-1689.5 885.5,-1689.5 885.5,-1689.5 880.5745,-1688.6403 886.2737,-1685.067 875.6489,-1687.7806 875.6489,-1687.7806"/>
</g>
<!-- orchestration_session_issue&#45;&gt;orchestration_session -->
<g id="edge8" class="edge">
<title>orchestration_session_issue:session_id&#45;&gt;orchestration_session:orchestration_session_id</title>
<path fill="none" stroke="#000000" d="M875.8169,-1715.8664C804.0422,-1657.0717 914.7383,-904.5 827.5,-904.5"/>
<polygon fill="#000000" stroke="#000000" points="876.1375,-1715.9866 883.919,-1723.7131 880.8187,-1717.7433 885.5,-1719.5 885.5,-1719.5 885.5,-1719.5 880.8187,-1717.7433 887.081,-1715.2869 876.1375,-1715.9866 876.1375,-1715.9866"/>
</g>
<!-- orchestration_session_issue_relation -->
<g id="node6" class="node">
<title>orchestration_session_issue_relation</title>
<polygon fill="#efefef" stroke="transparent" points="851.5,-2146.5 851.5,-2181.5 1233.5,-2181.5 1233.5,-2146.5 851.5,-2146.5"/>
<polygon fill="none" stroke="#000000" points="851.5,-2146.5 851.5,-2181.5 1233.5,-2181.5 1233.5,-2146.5 851.5,-2146.5"/>
<text text-anchor="start" x="858.3016" y="-2159.3" font-family="Arial Bold" font-size="18.00" fill="#000000">orchestration_session_issue_relation</text>
<text text-anchor="start" x="1154.3674" y="-2159.3" font-family="Arial" font-size="14.00" fill="#000000">    </text>
<text text-anchor="start" x="1188.5722" y="-2159.3" font-family="Arial" font-size="14.00" fill="#666666">[table]</text>
<polygon fill="none" stroke="#000000" points="851.5,-2116.5 851.5,-2146.5 1233.5,-2146.5 1233.5,-2116.5 851.5,-2116.5"/>
<text text-anchor="start" x="858.5" y="-2127.9" font-family="Arial" font-size="14.00" fill="#000000">orchestration_session_issue_relation_id    </text>
<text text-anchor="start" x="1141.65" y="-2127.9" font-family="Arial" font-size="14.00" fill="#666666">[UUID]</text>
<polygon fill="none" stroke="#000000" points="851.5,-2086.5 851.5,-2116.5 1233.5,-2116.5 1233.5,-2086.5 851.5,-2086.5"/>
<text text-anchor="start" x="858.5" y="-2097.9" font-family="Arial" font-size="14.00" fill="#000000">issue_id_prime    </text>
<text text-anchor="start" x="986.824" y="-2097.9" font-family="Arial" font-size="14.00" fill="#666666">[UUID]</text>
<polygon fill="none" stroke="#000000" points="851.5,-2056.5 851.5,-2086.5 1233.5,-2086.5 1233.5,-2056.5 851.5,-2056.5"/>
<text text-anchor="start" x="858.5" y="-2067.9" font-family="Arial" font-size="14.00" fill="#000000">issue_id_rel    </text>
<text text-anchor="start" x="967.3808" y="-2067.9" font-family="Arial" font-size="14.00" fill="#666666">[TEXT]</text>
<polygon fill="none" stroke="#000000" points="851.5,-2026.5 851.5,-2056.5 1233.5,-2056.5 1233.5,-2026.5 851.5,-2026.5"/>
<text text-anchor="start" x="858.5" y="-2037.9" font-family="Arial" font-size="14.00" fill="#000000">relationship_nature    </text>
<text text-anchor="start" x="1011.7356" y="-2037.9" font-family="Arial" font-size="14.00" fill="#666666">[TEXT]</text>
<polygon fill="none" stroke="#000000" points="851.5,-1996.5 851.5,-2026.5 1233.5,-2026.5 1233.5,-1996.5 851.5,-1996.5"/>
<text text-anchor="start" x="858.5" y="-2007.9" font-family="Arial" font-size="14.00" fill="#000000">elaboration    </text>
<text text-anchor="start" x="961.9474" y="-2007.9" font-family="Arial" font-size="14.00" fill="#666666">[TEXT]</text>
</g>
<!-- orchestration_session_issue_relation&#45;&gt;orchestration_session_issue -->
<g id="edge7" class="edge">
<title>orchestration_session_issue_relation:issue_id_prime&#45;&gt;orchestration_session_issue:orchestration_session_issue_id</title>
<path fill="none" stroke="#000000" d="M841.2359,-2100.6147C789.0297,-2090.9225 815.0359,-2003.9486 851.5,-1954 946.973,-1823.2209 1103.027,-1973.7791 1198.5,-1843 1223.0023,-1809.4366 1240.0556,-1749.5 1198.5,-1749.5"/>
<polygon fill="#000000" stroke="#000000" points="841.537,-2100.6406 851.1133,-2105.9834 846.5185,-2101.0703 851.5,-2101.5 851.5,-2101.5 851.5,-2101.5 846.5185,-2101.0703 851.8867,-2097.0166 841.537,-2100.6406 841.537,-2100.6406"/>
</g>
</g>
</svg>
