<?xml version="1.0" encoding="UTF-8" standalone="no"?>
<!DOCTYPE svg PUBLIC "-//W3C//DTD SVG 1.1//EN"
 "http://www.w3.org/Graphics/SVG/1.1/DTD/svg11.dtd">
<!-- Generated by graphviz version 12.1.2 (20240928.0832)
 -->
<!-- Title: orchestration_session_log Pages: 1 -->
<svg width="371pt" height="477pt"
 viewBox="0.00 0.00 370.62 477.20" xmlns="http://www.w3.org/2000/svg" xmlns:xlink="http://www.w3.org/1999/xlink">
<g id="graph0" class="graph" transform="scale(1 1) rotate(0) translate(4 473.2)">
<title>orchestration_session_log</title>
<polygon fill="white" stroke="none" points="-4,4 -4,-473.2 366.62,-473.2 366.62,4 -4,4"/>
<!-- orchestration_session_log -->
<g id="node1" class="node">
<title>orchestration_session_log</title>
<polygon fill="#efefef" stroke="none" points="46.2,-231 46.2,-266.6 316.42,-266.6 316.42,-231 46.2,-231"/>
<polygon fill="none" stroke="black" points="46.2,-231 46.2,-266.6 316.42,-266.6 316.42,-231 46.2,-231"/>
<text text-anchor="start" x="53.2" y="-244.4" font-family="Arial Bold" font-size="18.00">orchestration_session_log</text>
<text text-anchor="start" x="240.17" y="-244.4" font-family="Arial" font-size="14.00">    </text>
<text text-anchor="start" x="271.29" y="-244.4" font-family="Arial" font-size="14.00" fill="#666666">[table]</text>
<polygon fill="none" stroke="black" points="46.2,-200.2 46.2,-231 316.42,-231 316.42,-200.2 46.2,-200.2"/>
<text text-anchor="start" x="53.2" y="-212.4" font-family="Arial" font-size="14.00">orchestration_session_log_id </text>
<text text-anchor="start" x="238.43" y="-212.4" font-family="Arial" font-size="14.00" fill="#666666">[UUID]</text>
<polygon fill="none" stroke="black" points="46.2,-169.4 46.2,-200.2 316.42,-200.2 316.42,-169.4 46.2,-169.4"/>
<text text-anchor="start" x="53.2" y="-181.6" font-family="Arial" font-size="14.00">category </text>
<text text-anchor="start" x="110.79" y="-181.6" font-family="Arial" font-size="14.00" fill="#666666">[TEXT]</text>
<polygon fill="none" stroke="black" points="46.2,-138.6 46.2,-169.4 316.42,-169.4 316.42,-138.6 46.2,-138.6"/>
<text text-anchor="start" x="53.2" y="-150.8" font-family="Arial" font-size="14.00">parent_exec_id </text>
<text text-anchor="start" x="152.83" y="-150.8" font-family="Arial" font-size="14.00" fill="#666666">[UUID]</text>
<polygon fill="none" stroke="black" points="46.2,-107.8 46.2,-138.6 316.42,-138.6 316.42,-107.8 46.2,-107.8"/>
<text text-anchor="start" x="53.2" y="-120" font-family="Arial" font-size="14.00">content </text>
<text text-anchor="start" x="103.01" y="-120" font-family="Arial" font-size="14.00" fill="#666666">[TEXT]</text>
<polygon fill="none" stroke="black" points="46.2,-77 46.2,-107.8 316.42,-107.8 316.42,-77 46.2,-77"/>
<text text-anchor="start" x="53.2" y="-89.2" font-family="Arial" font-size="14.00">sibling_order </text>
<text text-anchor="start" x="137.25" y="-89.2" font-family="Arial" font-size="14.00" fill="#666666">[INTEGER]</text>
<polygon fill="none" stroke="black" points="46.2,-46.2 46.2,-77 316.42,-77 316.42,-46.2 46.2,-46.2"/>
<text text-anchor="start" x="53.2" y="-58.4" font-family="Arial" font-size="14.00">elaboration </text>
<text text-anchor="start" x="126.37" y="-58.4" font-family="Arial" font-size="14.00" fill="#666666">[TEXT]</text>
<polygon fill="none" stroke="black" stroke-width="3" points="44.7,-44.7 44.7,-268.1 317.92,-268.1 317.92,-44.7 44.7,-44.7"/>
</g>
<!-- orchestration_session_log&#45;&gt;orchestration_session_log -->
<g id="edge1" class="edge">
<title>orchestration_session_log:parent_exec_id&#45;&gt;orchestration_session_log:orchestration_session_log_id</title>
<path fill="none" stroke="black" d="M183.22,-179.72C190.26,-289.37 189.62,-469.2 181.31,-469.2 172.74,-469.2 172.33,-333.82 180.08,-230.86"/>
<polygon fill="black" stroke="black" points="183.22,-179.64 187.03,-169.36 182.86,-174.32 182.56,-170 182.56,-170 182.56,-170 182.86,-174.32 178.05,-169.97 183.22,-179.64"/>
</g>
</g>
</svg>
