<?xml version="1.0" encoding="UTF-8" standalone="no"?>
<!DOCTYPE svg PUBLIC "-//W3C//DTD SVG 1.1//EN"
 "http://www.w3.org/Graphics/SVG/1.1/DTD/svg11.dtd">
<!-- Generated by graphviz version 12.1.2 (20240928.0832)
 -->
<!-- Title: organization_role Pages: 1 -->
<svg width="1609pt" height="1678pt"
 viewBox="0.00 0.00 1609.31 1678.00" xmlns="http://www.w3.org/2000/svg" xmlns:xlink="http://www.w3.org/1999/xlink">
<g id="graph0" class="graph" transform="scale(1 1) rotate(0) translate(4 1674)">
<title>organization_role</title>
<polygon fill="white" stroke="none" points="-4,4 -4,-1674 1605.31,-1674 1605.31,4 -4,4"/>
<!-- organization_role -->
<g id="node1" class="node">
<title>organization_role</title>
<polygon fill="#efefef" stroke="none" points="1322.91,-1483.4 1322.91,-1519 1543.12,-1519 1543.12,-1483.4 1322.91,-1483.4"/>
<polygon fill="none" stroke="black" points="1322.91,-1483.4 1322.91,-1519 1543.12,-1519 1543.12,-1483.4 1322.91,-1483.4"/>
<text text-anchor="start" x="1334.91" y="-1496.8" font-family="Arial Bold" font-size="18.00">organization_role</text>
<text text-anchor="start" x="1461.86" y="-1496.8" font-family="Arial" font-size="14.00">    </text>
<text text-anchor="start" x="1492.98" y="-1496.8" font-family="Arial" font-size="14.00" fill="#666666">[table]</text>
<polygon fill="none" stroke="black" points="1322.91,-1452.6 1322.91,-1483.4 1543.12,-1483.4 1543.12,-1452.6 1322.91,-1452.6"/>
<text text-anchor="start" x="1329.91" y="-1464.8" font-family="Arial" font-size="14.00">organization_role_id </text>
<text text-anchor="start" x="1459.89" y="-1464.8" font-family="Arial" font-size="14.00" fill="#666666">[VARCHAR]</text>
<polygon fill="none" stroke="black" points="1322.91,-1421.8 1322.91,-1452.6 1543.12,-1452.6 1543.12,-1421.8 1322.91,-1421.8"/>
<text text-anchor="start" x="1329.91" y="-1434" font-family="Arial" font-size="14.00">person_id </text>
<text text-anchor="start" x="1395.29" y="-1434" font-family="Arial" font-size="14.00" fill="#666666">[VARCHAR]</text>
<polygon fill="none" stroke="black" points="1322.91,-1391 1322.91,-1421.8 1543.12,-1421.8 1543.12,-1391 1322.91,-1391"/>
<text text-anchor="start" x="1329.91" y="-1403.2" font-family="Arial" font-size="14.00">organization_id </text>
<text text-anchor="start" x="1428.76" y="-1403.2" font-family="Arial" font-size="14.00" fill="#666666">[VARCHAR]</text>
<polygon fill="none" stroke="black" points="1322.91,-1360.2 1322.91,-1391 1543.12,-1391 1543.12,-1360.2 1322.91,-1360.2"/>
<text text-anchor="start" x="1329.91" y="-1372.4" font-family="Arial" font-size="14.00">organization_role_type_id </text>
<text text-anchor="start" x="1494.14" y="-1372.4" font-family="Arial" font-size="14.00" fill="#666666">[ULID]</text>
<polygon fill="none" stroke="black" points="1322.91,-1329.4 1322.91,-1360.2 1543.12,-1360.2 1543.12,-1329.4 1322.91,-1329.4"/>
<text text-anchor="start" x="1329.91" y="-1341.6" font-family="Arial" font-size="14.00">elaboration </text>
<text text-anchor="start" x="1403.08" y="-1341.6" font-family="Arial" font-size="14.00" fill="#666666">[TEXT]</text>
<polygon fill="none" stroke="black" points="1322.91,-1298.6 1322.91,-1329.4 1543.12,-1329.4 1543.12,-1298.6 1322.91,-1298.6"/>
<text text-anchor="start" x="1329.91" y="-1310.8" font-family="Arial" font-size="14.00">created_at </text>
<text text-anchor="start" x="1399.96" y="-1310.8" font-family="Arial" font-size="14.00" fill="#666666">[TIMESTAMPTZ]</text>
<polygon fill="none" stroke="black" points="1322.91,-1267.8 1322.91,-1298.6 1543.12,-1298.6 1543.12,-1267.8 1322.91,-1267.8"/>
<text text-anchor="start" x="1329.91" y="-1280" font-family="Arial" font-size="14.00">created_by </text>
<text text-anchor="start" x="1403.07" y="-1280" font-family="Arial" font-size="14.00" fill="#666666">[TEXT]</text>
<polygon fill="none" stroke="black" points="1322.91,-1237 1322.91,-1267.8 1543.12,-1267.8 1543.12,-1237 1322.91,-1237"/>
<text text-anchor="start" x="1329.91" y="-1249.2" font-family="Arial" font-size="14.00">updated_at </text>
<text text-anchor="start" x="1403.87" y="-1249.2" font-family="Arial" font-size="14.00" fill="#666666">[TIMESTAMPTZ]</text>
<polygon fill="none" stroke="black" points="1322.91,-1206.2 1322.91,-1237 1543.12,-1237 1543.12,-1206.2 1322.91,-1206.2"/>
<text text-anchor="start" x="1329.91" y="-1218.4" font-family="Arial" font-size="14.00">updated_by </text>
<text text-anchor="start" x="1406.98" y="-1218.4" font-family="Arial" font-size="14.00" fill="#666666">[TEXT]</text>
<polygon fill="none" stroke="black" points="1322.91,-1175.4 1322.91,-1206.2 1543.12,-1206.2 1543.12,-1175.4 1322.91,-1175.4"/>
<text text-anchor="start" x="1329.91" y="-1187.6" font-family="Arial" font-size="14.00">deleted_at </text>
<text text-anchor="start" x="1399.19" y="-1187.6" font-family="Arial" font-size="14.00" fill="#666666">[TIMESTAMPTZ]</text>
<polygon fill="none" stroke="black" points="1322.91,-1144.6 1322.91,-1175.4 1543.12,-1175.4 1543.12,-1144.6 1322.91,-1144.6"/>
<text text-anchor="start" x="1329.91" y="-1156.8" font-family="Arial" font-size="14.00">deleted_by </text>
<text text-anchor="start" x="1402.3" y="-1156.8" font-family="Arial" font-size="14.00" fill="#666666">[TEXT]</text>
<polygon fill="none" stroke="black" points="1322.91,-1113.8 1322.91,-1144.6 1543.12,-1144.6 1543.12,-1113.8 1322.91,-1113.8"/>
<text text-anchor="start" x="1329.91" y="-1126" font-family="Arial" font-size="14.00">activity_log </text>
<text text-anchor="start" x="1403.05" y="-1126" font-family="Arial" font-size="14.00" fill="#666666">[TEXT]</text>
<polygon fill="none" stroke="black" stroke-width="3" points="1321.41,-1112.3 1321.41,-1520.5 1544.62,-1520.5 1544.62,-1112.3 1321.41,-1112.3"/>
</g>
<!-- party -->
<g id="node2" class="node">
<title>party</title>
<polygon fill="#efefef" stroke="none" points="645.76,-848 645.76,-883.6 840.27,-883.6 840.27,-848 645.76,-848"/>
<polygon fill="none" stroke="black" points="645.76,-848 645.76,-883.6 840.27,-883.6 840.27,-848 645.76,-848"/>
<text text-anchor="start" x="689.9" y="-861.4" font-family="Arial Bold" font-size="18.00">party</text>
<text text-anchor="start" x="726.88" y="-861.4" font-family="Arial" font-size="14.00">    </text>
<text text-anchor="start" x="758" y="-861.4" font-family="Arial" font-size="14.00" fill="#666666">[table]</text>
<polygon fill="none" stroke="black" points="645.76,-817.2 645.76,-848 840.27,-848 840.27,-817.2 645.76,-817.2"/>
<text text-anchor="start" x="652.76" y="-829.4" font-family="Arial" font-size="14.00">party_id </text>
<text text-anchor="start" x="706.46" y="-829.4" font-family="Arial" font-size="14.00" fill="#666666">[VARCHAR]</text>
<polygon fill="none" stroke="black" points="645.76,-786.4 645.76,-817.2 840.27,-817.2 840.27,-786.4 645.76,-786.4"/>
<text text-anchor="start" x="652.76" y="-798.6" font-family="Arial" font-size="14.00">party_type_id </text>
<text text-anchor="start" x="740.71" y="-798.6" font-family="Arial" font-size="14.00" fill="#666666">[ULID]</text>
<polygon fill="none" stroke="black" points="645.76,-755.6 645.76,-786.4 840.27,-786.4 840.27,-755.6 645.76,-755.6"/>
<text text-anchor="start" x="652.76" y="-767.8" font-family="Arial" font-size="14.00">party_name </text>
<text text-anchor="start" x="730.58" y="-767.8" font-family="Arial" font-size="14.00" fill="#666666">[TEXT]</text>
<polygon fill="none" stroke="black" points="645.76,-724.8 645.76,-755.6 840.27,-755.6 840.27,-724.8 645.76,-724.8"/>
<text text-anchor="start" x="652.76" y="-737" font-family="Arial" font-size="14.00">elaboration </text>
<text text-anchor="start" x="725.93" y="-737" font-family="Arial" font-size="14.00" fill="#666666">[TEXT]</text>
<polygon fill="none" stroke="black" points="645.76,-694 645.76,-724.8 840.27,-724.8 840.27,-694 645.76,-694"/>
<text text-anchor="start" x="652.76" y="-706.2" font-family="Arial" font-size="14.00">created_at </text>
<text text-anchor="start" x="722.81" y="-706.2" font-family="Arial" font-size="14.00" fill="#666666">[TIMESTAMPTZ]</text>
<polygon fill="none" stroke="black" points="645.76,-663.2 645.76,-694 840.27,-694 840.27,-663.2 645.76,-663.2"/>
<text text-anchor="start" x="652.76" y="-675.4" font-family="Arial" font-size="14.00">created_by </text>
<text text-anchor="start" x="725.92" y="-675.4" font-family="Arial" font-size="14.00" fill="#666666">[TEXT]</text>
<polygon fill="none" stroke="black" points="645.76,-632.4 645.76,-663.2 840.27,-663.2 840.27,-632.4 645.76,-632.4"/>
<text text-anchor="start" x="652.76" y="-644.6" font-family="Arial" font-size="14.00">updated_at </text>
<text text-anchor="start" x="726.72" y="-644.6" font-family="Arial" font-size="14.00" fill="#666666">[TIMESTAMPTZ]</text>
<polygon fill="none" stroke="black" points="645.76,-601.6 645.76,-632.4 840.27,-632.4 840.27,-601.6 645.76,-601.6"/>
<text text-anchor="start" x="652.76" y="-613.8" font-family="Arial" font-size="14.00">updated_by </text>
<text text-anchor="start" x="729.83" y="-613.8" font-family="Arial" font-size="14.00" fill="#666666">[TEXT]</text>
<polygon fill="none" stroke="black" points="645.76,-570.8 645.76,-601.6 840.27,-601.6 840.27,-570.8 645.76,-570.8"/>
<text text-anchor="start" x="652.76" y="-583" font-family="Arial" font-size="14.00">deleted_at </text>
<text text-anchor="start" x="722.04" y="-583" font-family="Arial" font-size="14.00" fill="#666666">[TIMESTAMPTZ]</text>
<polygon fill="none" stroke="black" points="645.76,-540 645.76,-570.8 840.27,-570.8 840.27,-540 645.76,-540"/>
<text text-anchor="start" x="652.76" y="-552.2" font-family="Arial" font-size="14.00">deleted_by </text>
<text text-anchor="start" x="725.15" y="-552.2" font-family="Arial" font-size="14.00" fill="#666666">[TEXT]</text>
<polygon fill="none" stroke="black" points="645.76,-509.2 645.76,-540 840.27,-540 840.27,-509.2 645.76,-509.2"/>
<text text-anchor="start" x="652.76" y="-521.4" font-family="Arial" font-size="14.00">activity_log </text>
<text text-anchor="start" x="725.91" y="-521.4" font-family="Arial" font-size="14.00" fill="#666666">[TEXT]</text>
</g>
<!-- organization_role&#45;&gt;party -->
<g id="edge1" class="edge">
<title>organization_role:person_id&#45;&gt;party:party_id</title>
<path fill="none" stroke="black" d="M1311.81,-1435.85C1223.8,-1410.71 1333.55,-1041.58 1268.02,-962.8 1204.61,-886.58 940.42,-832.6 841.27,-832.6"/>
<polygon fill="black" stroke="black" points="1311.67,-1435.83 1320.98,-1441.62 1316.95,-1436.54 1321.25,-1437.11 1321.25,-1437.11 1321.25,-1437.11 1316.95,-1436.54 1322.17,-1432.7 1311.67,-1435.83"/>
</g>
<!-- organization_role&#45;&gt;party -->
<g id="edge6" class="edge">
<title>organization_role:organization_id&#45;&gt;party:party_id</title>
<path fill="none" stroke="black" d="M1311.7,-1404.92C1230.48,-1379.53 1329.45,-1036.07 1268.02,-962.8 1204.31,-886.83 940.42,-832.6 841.27,-832.6"/>
<polygon fill="black" stroke="black" points="1311.68,-1404.91 1320.93,-1410.81 1316.96,-1405.68 1321.25,-1406.3 1321.25,-1406.3 1321.25,-1406.3 1316.96,-1405.68 1322.23,-1401.9 1311.68,-1404.91"/>
</g>
<!-- organization_role_type -->
<g id="node8" class="node">
<title>organization_role_type</title>
<polygon fill="#efefef" stroke="none" points="1307.92,-832.6 1307.92,-868.2 1558.11,-868.2 1558.11,-832.6 1307.92,-832.6"/>
<polygon fill="none" stroke="black" points="1307.92,-832.6 1307.92,-868.2 1558.11,-868.2 1558.11,-832.6 1307.92,-832.6"/>
<text text-anchor="start" x="1314.92" y="-846" font-family="Arial Bold" font-size="18.00">organization_role_type</text>
<text text-anchor="start" x="1481.86" y="-846" font-family="Arial" font-size="14.00">    </text>
<text text-anchor="start" x="1512.98" y="-846" font-family="Arial" font-size="14.00" fill="#666666">[table]</text>
<polygon fill="none" stroke="black" points="1307.92,-801.8 1307.92,-832.6 1558.11,-832.6 1558.11,-801.8 1307.92,-801.8"/>
<text text-anchor="start" x="1314.92" y="-814" font-family="Arial" font-size="14.00">organization_role_type_id </text>
<text text-anchor="start" x="1479.15" y="-814" font-family="Arial" font-size="14.00" fill="#666666">[ULID]</text>
<polygon fill="none" stroke="black" points="1307.92,-771 1307.92,-801.8 1558.11,-801.8 1558.11,-771 1307.92,-771"/>
<text text-anchor="start" x="1314.92" y="-783.2" font-family="Arial" font-size="14.00">code </text>
<text text-anchor="start" x="1349.17" y="-783.2" font-family="Arial" font-size="14.00" fill="#666666">[TEXT]</text>
<polygon fill="none" stroke="black" points="1307.92,-740.2 1307.92,-771 1558.11,-771 1558.11,-740.2 1307.92,-740.2"/>
<text text-anchor="start" x="1314.92" y="-752.4" font-family="Arial" font-size="14.00">value </text>
<text text-anchor="start" x="1352.28" y="-752.4" font-family="Arial" font-size="14.00" fill="#666666">[TEXT]</text>
<polygon fill="none" stroke="black" points="1307.92,-709.4 1307.92,-740.2 1558.11,-740.2 1558.11,-709.4 1307.92,-709.4"/>
<text text-anchor="start" x="1314.92" y="-721.6" font-family="Arial" font-size="14.00">created_at </text>
<text text-anchor="start" x="1384.97" y="-721.6" font-family="Arial" font-size="14.00" fill="#666666">[TIMESTAMPTZ]</text>
<polygon fill="none" stroke="black" points="1307.92,-678.6 1307.92,-709.4 1558.11,-709.4 1558.11,-678.6 1307.92,-678.6"/>
<text text-anchor="start" x="1314.92" y="-690.8" font-family="Arial" font-size="14.00">created_by </text>
<text text-anchor="start" x="1388.08" y="-690.8" font-family="Arial" font-size="14.00" fill="#666666">[TEXT]</text>
<polygon fill="none" stroke="black" points="1307.92,-647.8 1307.92,-678.6 1558.11,-678.6 1558.11,-647.8 1307.92,-647.8"/>
<text text-anchor="start" x="1314.92" y="-660" font-family="Arial" font-size="14.00">updated_at </text>
<text text-anchor="start" x="1388.88" y="-660" font-family="Arial" font-size="14.00" fill="#666666">[TIMESTAMPTZ]</text>
<polygon fill="none" stroke="black" points="1307.92,-617 1307.92,-647.8 1558.11,-647.8 1558.11,-617 1307.92,-617"/>
<text text-anchor="start" x="1314.92" y="-629.2" font-family="Arial" font-size="14.00">updated_by </text>
<text text-anchor="start" x="1391.99" y="-629.2" font-family="Arial" font-size="14.00" fill="#666666">[TEXT]</text>
<polygon fill="none" stroke="black" points="1307.92,-586.2 1307.92,-617 1558.11,-617 1558.11,-586.2 1307.92,-586.2"/>
<text text-anchor="start" x="1314.92" y="-598.4" font-family="Arial" font-size="14.00">deleted_at </text>
<text text-anchor="start" x="1384.2" y="-598.4" font-family="Arial" font-size="14.00" fill="#666666">[TIMESTAMPTZ]</text>
<polygon fill="none" stroke="black" points="1307.92,-555.4 1307.92,-586.2 1558.11,-586.2 1558.11,-555.4 1307.92,-555.4"/>
<text text-anchor="start" x="1314.92" y="-567.6" font-family="Arial" font-size="14.00">deleted_by </text>
<text text-anchor="start" x="1387.31" y="-567.6" font-family="Arial" font-size="14.00" fill="#666666">[TEXT]</text>
<polygon fill="none" stroke="black" points="1307.92,-524.6 1307.92,-555.4 1558.11,-555.4 1558.11,-524.6 1307.92,-524.6"/>
<text text-anchor="start" x="1314.92" y="-536.8" font-family="Arial" font-size="14.00">activity_log </text>
<text text-anchor="start" x="1388.06" y="-536.8" font-family="Arial" font-size="14.00" fill="#666666">[TEXT]</text>
</g>
<!-- organization_role&#45;&gt;organization_role_type -->
<g id="edge9" class="edge">
<title>organization_role:organization_role_type_id&#45;&gt;organization_role_type:organization_role_type_id</title>
<path fill="none" stroke="black" d="M1553.55,-1371.11C1607.56,-1318.26 1617.91,-817.2 1559.11,-817.2"/>
<polygon fill="black" stroke="black" points="1553.45,-1371.15 1542.49,-1371.39 1548.64,-1373.45 1544.73,-1375.31 1544.73,-1375.31 1544.73,-1375.31 1548.64,-1373.45 1546.36,-1379.52 1553.45,-1371.15"/>
</g>
<!-- party_type -->
<g id="node7" class="node">
<title>party_type</title>
<polygon fill="#efefef" stroke="none" points="645.76,-351.2 645.76,-386.8 840.27,-386.8 840.27,-351.2 645.76,-351.2"/>
<polygon fill="none" stroke="black" points="645.76,-351.2 645.76,-386.8 840.27,-386.8 840.27,-351.2 645.76,-351.2"/>
<text text-anchor="start" x="669.9" y="-364.6" font-family="Arial Bold" font-size="18.00">party_type</text>
<text text-anchor="start" x="746.88" y="-364.6" font-family="Arial" font-size="14.00">    </text>
<text text-anchor="start" x="777.99" y="-364.6" font-family="Arial" font-size="14.00" fill="#666666">[table]</text>
<polygon fill="none" stroke="black" points="645.76,-320.4 645.76,-351.2 840.27,-351.2 840.27,-320.4 645.76,-320.4"/>
<text text-anchor="start" x="652.76" y="-332.6" font-family="Arial" font-size="14.00">party_type_id </text>
<text text-anchor="start" x="740.71" y="-332.6" font-family="Arial" font-size="14.00" fill="#666666">[ULID]</text>
<polygon fill="none" stroke="black" points="645.76,-289.6 645.76,-320.4 840.27,-320.4 840.27,-289.6 645.76,-289.6"/>
<text text-anchor="start" x="652.76" y="-301.8" font-family="Arial" font-size="14.00">code </text>
<text text-anchor="start" x="687.01" y="-301.8" font-family="Arial" font-size="14.00" fill="#666666">[TEXT]</text>
<polygon fill="none" stroke="black" points="645.76,-258.8 645.76,-289.6 840.27,-289.6 840.27,-258.8 645.76,-258.8"/>
<text text-anchor="start" x="652.76" y="-271" font-family="Arial" font-size="14.00">value </text>
<text text-anchor="start" x="690.12" y="-271" font-family="Arial" font-size="14.00" fill="#666666">[TEXT]</text>
<polygon fill="none" stroke="black" points="645.76,-228 645.76,-258.8 840.27,-258.8 840.27,-228 645.76,-228"/>
<text text-anchor="start" x="652.76" y="-240.2" font-family="Arial" font-size="14.00">created_at </text>
<text text-anchor="start" x="722.81" y="-240.2" font-family="Arial" font-size="14.00" fill="#666666">[TIMESTAMPTZ]</text>
<polygon fill="none" stroke="black" points="645.76,-197.2 645.76,-228 840.27,-228 840.27,-197.2 645.76,-197.2"/>
<text text-anchor="start" x="652.76" y="-209.4" font-family="Arial" font-size="14.00">created_by </text>
<text text-anchor="start" x="725.92" y="-209.4" font-family="Arial" font-size="14.00" fill="#666666">[TEXT]</text>
<polygon fill="none" stroke="black" points="645.76,-166.4 645.76,-197.2 840.27,-197.2 840.27,-166.4 645.76,-166.4"/>
<text text-anchor="start" x="652.76" y="-178.6" font-family="Arial" font-size="14.00">updated_at </text>
<text text-anchor="start" x="726.72" y="-178.6" font-family="Arial" font-size="14.00" fill="#666666">[TIMESTAMPTZ]</text>
<polygon fill="none" stroke="black" points="645.76,-135.6 645.76,-166.4 840.27,-166.4 840.27,-135.6 645.76,-135.6"/>
<text text-anchor="start" x="652.76" y="-147.8" font-family="Arial" font-size="14.00">updated_by </text>
<text text-anchor="start" x="729.83" y="-147.8" font-family="Arial" font-size="14.00" fill="#666666">[TEXT]</text>
<polygon fill="none" stroke="black" points="645.76,-104.8 645.76,-135.6 840.27,-135.6 840.27,-104.8 645.76,-104.8"/>
<text text-anchor="start" x="652.76" y="-117" font-family="Arial" font-size="14.00">deleted_at </text>
<text text-anchor="start" x="722.04" y="-117" font-family="Arial" font-size="14.00" fill="#666666">[TIMESTAMPTZ]</text>
<polygon fill="none" stroke="black" points="645.76,-74 645.76,-104.8 840.27,-104.8 840.27,-74 645.76,-74"/>
<text text-anchor="start" x="652.76" y="-86.2" font-family="Arial" font-size="14.00">deleted_by </text>
<text text-anchor="start" x="725.15" y="-86.2" font-family="Arial" font-size="14.00" fill="#666666">[TEXT]</text>
<polygon fill="none" stroke="black" points="645.76,-43.2 645.76,-74 840.27,-74 840.27,-43.2 645.76,-43.2"/>
<text text-anchor="start" x="652.76" y="-55.4" font-family="Arial" font-size="14.00">activity_log </text>
<text text-anchor="start" x="725.91" y="-55.4" font-family="Arial" font-size="14.00" fill="#666666">[TEXT]</text>
</g>
<!-- party&#45;&gt;party_type -->
<g id="edge8" class="edge">
<title>party:party_type_id&#45;&gt;party_type:party_type_id</title>
<path fill="none" stroke="black" d="M851.42,-801.42C1048.33,-786.46 1044.94,-335.8 841.27,-335.8"/>
<polygon fill="black" stroke="black" points="851.6,-801.41 841.44,-797.29 846.27,-801.61 841.94,-801.77 841.94,-801.77 841.94,-801.77 846.27,-801.61 841.77,-806.28 851.6,-801.41"/>
</g>
<!-- party_relation -->
<g id="node3" class="node">
<title>party_relation</title>
<polygon fill="#efefef" stroke="none" points="43.2,-1483.4 43.2,-1519 240.83,-1519 240.83,-1483.4 43.2,-1483.4"/>
<polygon fill="none" stroke="black" points="43.2,-1483.4 43.2,-1519 240.83,-1519 240.83,-1483.4 43.2,-1483.4"/>
<text text-anchor="start" x="56.91" y="-1496.8" font-family="Arial Bold" font-size="18.00">party_relation</text>
<text text-anchor="start" x="157.87" y="-1496.8" font-family="Arial" font-size="14.00">    </text>
<text text-anchor="start" x="188.99" y="-1496.8" font-family="Arial" font-size="14.00" fill="#666666">[table]</text>
<polygon fill="none" stroke="black" points="43.2,-1452.6 43.2,-1483.4 240.83,-1483.4 240.83,-1452.6 43.2,-1452.6"/>
<text text-anchor="start" x="50.2" y="-1464.8" font-family="Arial" font-size="14.00">party_relation_id </text>
<text text-anchor="start" x="157.6" y="-1464.8" font-family="Arial" font-size="14.00" fill="#666666">[VARCHAR]</text>
<polygon fill="none" stroke="black" points="43.2,-1421.8 43.2,-1452.6 240.83,-1452.6 240.83,-1421.8 43.2,-1421.8"/>
<text text-anchor="start" x="50.2" y="-1434" font-family="Arial" font-size="14.00">party_id </text>
<text text-anchor="start" x="103.9" y="-1434" font-family="Arial" font-size="14.00" fill="#666666">[VARCHAR]</text>
<polygon fill="none" stroke="black" points="43.2,-1391 43.2,-1421.8 240.83,-1421.8 240.83,-1391 43.2,-1391"/>
<text text-anchor="start" x="50.2" y="-1403.2" font-family="Arial" font-size="14.00">related_party_id </text>
<text text-anchor="start" x="154.49" y="-1403.2" font-family="Arial" font-size="14.00" fill="#666666">[VARCHAR]</text>
<polygon fill="none" stroke="black" points="43.2,-1360.2 43.2,-1391 240.83,-1391 240.83,-1360.2 43.2,-1360.2"/>
<text text-anchor="start" x="50.2" y="-1372.4" font-family="Arial" font-size="14.00">relation_type_id </text>
<text text-anchor="start" x="152.94" y="-1372.4" font-family="Arial" font-size="14.00" fill="#666666">[ULID]</text>
<polygon fill="none" stroke="black" points="43.2,-1329.4 43.2,-1360.2 240.83,-1360.2 240.83,-1329.4 43.2,-1329.4"/>
<text text-anchor="start" x="50.2" y="-1341.6" font-family="Arial" font-size="14.00">elaboration </text>
<text text-anchor="start" x="123.37" y="-1341.6" font-family="Arial" font-size="14.00" fill="#666666">[TEXT]</text>
<polygon fill="none" stroke="black" points="43.2,-1298.6 43.2,-1329.4 240.83,-1329.4 240.83,-1298.6 43.2,-1298.6"/>
<text text-anchor="start" x="50.2" y="-1310.8" font-family="Arial" font-size="14.00">created_at </text>
<text text-anchor="start" x="120.25" y="-1310.8" font-family="Arial" font-size="14.00" fill="#666666">[TIMESTAMPTZ]</text>
<polygon fill="none" stroke="black" points="43.2,-1267.8 43.2,-1298.6 240.83,-1298.6 240.83,-1267.8 43.2,-1267.8"/>
<text text-anchor="start" x="50.2" y="-1280" font-family="Arial" font-size="14.00">created_by </text>
<text text-anchor="start" x="123.36" y="-1280" font-family="Arial" font-size="14.00" fill="#666666">[TEXT]</text>
<polygon fill="none" stroke="black" points="43.2,-1237 43.2,-1267.8 240.83,-1267.8 240.83,-1237 43.2,-1237"/>
<text text-anchor="start" x="50.2" y="-1249.2" font-family="Arial" font-size="14.00">updated_at </text>
<text text-anchor="start" x="124.16" y="-1249.2" font-family="Arial" font-size="14.00" fill="#666666">[TIMESTAMPTZ]</text>
<polygon fill="none" stroke="black" points="43.2,-1206.2 43.2,-1237 240.83,-1237 240.83,-1206.2 43.2,-1206.2"/>
<text text-anchor="start" x="50.2" y="-1218.4" font-family="Arial" font-size="14.00">updated_by </text>
<text text-anchor="start" x="127.27" y="-1218.4" font-family="Arial" font-size="14.00" fill="#666666">[TEXT]</text>
<polygon fill="none" stroke="black" points="43.2,-1175.4 43.2,-1206.2 240.83,-1206.2 240.83,-1175.4 43.2,-1175.4"/>
<text text-anchor="start" x="50.2" y="-1187.6" font-family="Arial" font-size="14.00">deleted_at </text>
<text text-anchor="start" x="119.48" y="-1187.6" font-family="Arial" font-size="14.00" fill="#666666">[TIMESTAMPTZ]</text>
<polygon fill="none" stroke="black" points="43.2,-1144.6 43.2,-1175.4 240.83,-1175.4 240.83,-1144.6 43.2,-1144.6"/>
<text text-anchor="start" x="50.2" y="-1156.8" font-family="Arial" font-size="14.00">deleted_by </text>
<text text-anchor="start" x="122.59" y="-1156.8" font-family="Arial" font-size="14.00" fill="#666666">[TEXT]</text>
<polygon fill="none" stroke="black" points="43.2,-1113.8 43.2,-1144.6 240.83,-1144.6 240.83,-1113.8 43.2,-1113.8"/>
<text text-anchor="start" x="50.2" y="-1126" font-family="Arial" font-size="14.00">activity_log </text>
<text text-anchor="start" x="123.34" y="-1126" font-family="Arial" font-size="14.00" fill="#666666">[TEXT]</text>
</g>
<!-- party_relation&#45;&gt;party -->
<g id="edge2" class="edge">
<title>party_relation:related_party_id&#45;&gt;party:party_id</title>
<path fill="none" stroke="black" d="M252.04,-1404.92C333.19,-1379.67 234.01,-1037.96 293.02,-962.8 344.49,-897.24 561.41,-832.6 644.76,-832.6"/>
<polygon fill="black" stroke="black" points="252.06,-1404.92 241.52,-1401.9 246.78,-1405.68 242.5,-1406.3 242.5,-1406.3 242.5,-1406.3 246.78,-1405.68 242.81,-1410.81 252.06,-1404.92"/>
</g>
<!-- party_relation&#45;&gt;party -->
<g id="edge3" class="edge">
<title>party_relation:party_id&#45;&gt;party:party_id</title>
<path fill="none" stroke="black" d="M251.93,-1435.86C339.88,-1410.85 230.08,-1043.58 293.02,-962.8 344.24,-897.05 561.41,-832.6 644.76,-832.6"/>
<polygon fill="black" stroke="black" points="252.08,-1435.84 241.57,-1432.7 246.79,-1436.54 242.5,-1437.11 242.5,-1437.11 242.5,-1437.11 246.79,-1436.54 242.76,-1441.62 252.08,-1435.84"/>
</g>
<!-- person -->
<g id="node4" class="node">
<title>person</title>
<polygon fill="#efefef" stroke="none" points="344.97,-1591.2 344.97,-1626.8 541.06,-1626.8 541.06,-1591.2 344.97,-1591.2"/>
<polygon fill="none" stroke="black" points="344.97,-1591.2 344.97,-1626.8 541.06,-1626.8 541.06,-1591.2 344.97,-1591.2"/>
<text text-anchor="start" x="384.4" y="-1604.6" font-family="Arial Bold" font-size="18.00">person</text>
<text text-anchor="start" x="432.38" y="-1604.6" font-family="Arial" font-size="14.00">    </text>
<text text-anchor="start" x="463.5" y="-1604.6" font-family="Arial" font-size="14.00" fill="#666666">[table]</text>
<polygon fill="none" stroke="black" points="344.97,-1560.4 344.97,-1591.2 541.06,-1591.2 541.06,-1560.4 344.97,-1560.4"/>
<text text-anchor="start" x="351.97" y="-1572.6" font-family="Arial" font-size="14.00">person_id </text>
<text text-anchor="start" x="417.35" y="-1572.6" font-family="Arial" font-size="14.00" fill="#666666">[ULID]</text>
<polygon fill="none" stroke="black" points="344.97,-1529.6 344.97,-1560.4 541.06,-1560.4 541.06,-1529.6 344.97,-1529.6"/>
<text text-anchor="start" x="351.97" y="-1541.8" font-family="Arial" font-size="14.00">party_id </text>
<text text-anchor="start" x="405.67" y="-1541.8" font-family="Arial" font-size="14.00" fill="#666666">[VARCHAR]</text>
<polygon fill="none" stroke="black" points="344.97,-1498.8 344.97,-1529.6 541.06,-1529.6 541.06,-1498.8 344.97,-1498.8"/>
<text text-anchor="start" x="351.97" y="-1511" font-family="Arial" font-size="14.00">person_type_id </text>
<text text-anchor="start" x="451.6" y="-1511" font-family="Arial" font-size="14.00" fill="#666666">[ULID]</text>
<polygon fill="none" stroke="black" points="344.97,-1468 344.97,-1498.8 541.06,-1498.8 541.06,-1468 344.97,-1468"/>
<text text-anchor="start" x="351.97" y="-1480.2" font-family="Arial" font-size="14.00">person_first_name </text>
<text text-anchor="start" x="471.81" y="-1480.2" font-family="Arial" font-size="14.00" fill="#666666">[TEXT]</text>
<polygon fill="none" stroke="black" points="344.97,-1437.2 344.97,-1468 541.06,-1468 541.06,-1437.2 344.97,-1437.2"/>
<text text-anchor="start" x="351.97" y="-1449.4" font-family="Arial" font-size="14.00">person_middle_name </text>
<text text-anchor="start" x="490.5" y="-1449.4" font-family="Arial" font-size="14.00" fill="#666666">[TEXT]</text>
<polygon fill="none" stroke="black" points="344.97,-1406.4 344.97,-1437.2 541.06,-1437.2 541.06,-1406.4 344.97,-1406.4"/>
<text text-anchor="start" x="351.97" y="-1418.6" font-family="Arial" font-size="14.00">person_last_name </text>
<text text-anchor="start" x="471.05" y="-1418.6" font-family="Arial" font-size="14.00" fill="#666666">[TEXT]</text>
<polygon fill="none" stroke="black" points="344.97,-1375.6 344.97,-1406.4 541.06,-1406.4 541.06,-1375.6 344.97,-1375.6"/>
<text text-anchor="start" x="351.97" y="-1387.8" font-family="Arial" font-size="14.00">previous_name </text>
<text text-anchor="start" x="451.59" y="-1387.8" font-family="Arial" font-size="14.00" fill="#666666">[TEXT]</text>
<polygon fill="none" stroke="black" points="344.97,-1344.8 344.97,-1375.6 541.06,-1375.6 541.06,-1344.8 344.97,-1344.8"/>
<text text-anchor="start" x="351.97" y="-1357" font-family="Arial" font-size="14.00">honorific_prefix </text>
<text text-anchor="start" x="450.8" y="-1357" font-family="Arial" font-size="14.00" fill="#666666">[TEXT]</text>
<polygon fill="none" stroke="black" points="344.97,-1314 344.97,-1344.8 541.06,-1344.8 541.06,-1314 344.97,-1314"/>
<text text-anchor="start" x="351.97" y="-1326.2" font-family="Arial" font-size="14.00">honorific_suffix </text>
<text text-anchor="start" x="449.24" y="-1326.2" font-family="Arial" font-size="14.00" fill="#666666">[TEXT]</text>
<polygon fill="none" stroke="black" points="344.97,-1283.2 344.97,-1314 541.06,-1314 541.06,-1283.2 344.97,-1283.2"/>
<text text-anchor="start" x="351.97" y="-1295.4" font-family="Arial" font-size="14.00">gender_id </text>
<text text-anchor="start" x="418.14" y="-1295.4" font-family="Arial" font-size="14.00" fill="#666666">[ULID]</text>
<polygon fill="none" stroke="black" points="344.97,-1252.4 344.97,-1283.2 541.06,-1283.2 541.06,-1252.4 344.97,-1252.4"/>
<text text-anchor="start" x="351.97" y="-1264.6" font-family="Arial" font-size="14.00">sex_id </text>
<text text-anchor="start" x="396.33" y="-1264.6" font-family="Arial" font-size="14.00" fill="#666666">[ULID]</text>
<polygon fill="none" stroke="black" points="344.97,-1221.6 344.97,-1252.4 541.06,-1252.4 541.06,-1221.6 344.97,-1221.6"/>
<text text-anchor="start" x="351.97" y="-1233.8" font-family="Arial" font-size="14.00">elaboration </text>
<text text-anchor="start" x="425.14" y="-1233.8" font-family="Arial" font-size="14.00" fill="#666666">[TEXT]</text>
<polygon fill="none" stroke="black" points="344.97,-1190.8 344.97,-1221.6 541.06,-1221.6 541.06,-1190.8 344.97,-1190.8"/>
<text text-anchor="start" x="351.97" y="-1203" font-family="Arial" font-size="14.00">created_at </text>
<text text-anchor="start" x="422.02" y="-1203" font-family="Arial" font-size="14.00" fill="#666666">[TIMESTAMPTZ]</text>
<polygon fill="none" stroke="black" points="344.97,-1160 344.97,-1190.8 541.06,-1190.8 541.06,-1160 344.97,-1160"/>
<text text-anchor="start" x="351.97" y="-1172.2" font-family="Arial" font-size="14.00">created_by </text>
<text text-anchor="start" x="425.13" y="-1172.2" font-family="Arial" font-size="14.00" fill="#666666">[TEXT]</text>
<polygon fill="none" stroke="black" points="344.97,-1129.2 344.97,-1160 541.06,-1160 541.06,-1129.2 344.97,-1129.2"/>
<text text-anchor="start" x="351.97" y="-1141.4" font-family="Arial" font-size="14.00">updated_at </text>
<text text-anchor="start" x="425.93" y="-1141.4" font-family="Arial" font-size="14.00" fill="#666666">[TIMESTAMPTZ]</text>
<polygon fill="none" stroke="black" points="344.97,-1098.4 344.97,-1129.2 541.06,-1129.2 541.06,-1098.4 344.97,-1098.4"/>
<text text-anchor="start" x="351.97" y="-1110.6" font-family="Arial" font-size="14.00">updated_by </text>
<text text-anchor="start" x="429.04" y="-1110.6" font-family="Arial" font-size="14.00" fill="#666666">[TEXT]</text>
<polygon fill="none" stroke="black" points="344.97,-1067.6 344.97,-1098.4 541.06,-1098.4 541.06,-1067.6 344.97,-1067.6"/>
<text text-anchor="start" x="351.97" y="-1079.8" font-family="Arial" font-size="14.00">deleted_at </text>
<text text-anchor="start" x="421.25" y="-1079.8" font-family="Arial" font-size="14.00" fill="#666666">[TIMESTAMPTZ]</text>
<polygon fill="none" stroke="black" points="344.97,-1036.8 344.97,-1067.6 541.06,-1067.6 541.06,-1036.8 344.97,-1036.8"/>
<text text-anchor="start" x="351.97" y="-1049" font-family="Arial" font-size="14.00">deleted_by </text>
<text text-anchor="start" x="424.37" y="-1049" font-family="Arial" font-size="14.00" fill="#666666">[TEXT]</text>
<polygon fill="none" stroke="black" points="344.97,-1006 344.97,-1036.8 541.06,-1036.8 541.06,-1006 344.97,-1006"/>
<text text-anchor="start" x="351.97" y="-1018.2" font-family="Arial" font-size="14.00">activity_log </text>
<text text-anchor="start" x="425.12" y="-1018.2" font-family="Arial" font-size="14.00" fill="#666666">[TEXT]</text>
</g>
<!-- person&#45;&gt;party -->
<g id="edge4" class="edge">
<title>person:party_id&#45;&gt;party:party_id</title>
<path fill="none" stroke="black" d="M551.58,-1540.81C604.19,-1491.53 579.97,-1022.7 594.02,-962.8 608.2,-902.33 582.66,-832.6 644.76,-832.6"/>
<polygon fill="black" stroke="black" points="551.52,-1540.84 540.56,-1540.75 546.64,-1542.99 542.67,-1544.73 542.67,-1544.73 542.67,-1544.73 546.64,-1542.99 544.18,-1548.98 551.52,-1540.84"/>
</g>
<!-- organization -->
<g id="node5" class="node">
<title>organization</title>
<polygon fill="#efefef" stroke="none" points="645.76,-1545 645.76,-1580.6 840.27,-1580.6 840.27,-1545 645.76,-1545"/>
<polygon fill="none" stroke="black" points="645.76,-1545 645.76,-1580.6 840.27,-1580.6 840.27,-1545 645.76,-1545"/>
<text text-anchor="start" x="663.41" y="-1558.4" font-family="Arial Bold" font-size="18.00">organization</text>
<text text-anchor="start" x="753.37" y="-1558.4" font-family="Arial" font-size="14.00">    </text>
<text text-anchor="start" x="784.49" y="-1558.4" font-family="Arial" font-size="14.00" fill="#666666">[table]</text>
<polygon fill="none" stroke="black" points="645.76,-1514.2 645.76,-1545 840.27,-1545 840.27,-1514.2 645.76,-1514.2"/>
<text text-anchor="start" x="652.76" y="-1526.4" font-family="Arial" font-size="14.00">organization_id </text>
<text text-anchor="start" x="751.61" y="-1526.4" font-family="Arial" font-size="14.00" fill="#666666">[ULID]</text>
<polygon fill="none" stroke="black" points="645.76,-1483.4 645.76,-1514.2 840.27,-1514.2 840.27,-1483.4 645.76,-1483.4"/>
<text text-anchor="start" x="652.76" y="-1495.6" font-family="Arial" font-size="14.00">party_id </text>
<text text-anchor="start" x="706.46" y="-1495.6" font-family="Arial" font-size="14.00" fill="#666666">[VARCHAR]</text>
<polygon fill="none" stroke="black" points="645.76,-1452.6 645.76,-1483.4 840.27,-1483.4 840.27,-1452.6 645.76,-1452.6"/>
<text text-anchor="start" x="652.76" y="-1464.8" font-family="Arial" font-size="14.00">name </text>
<text text-anchor="start" x="691.67" y="-1464.8" font-family="Arial" font-size="14.00" fill="#666666">[TEXT]</text>
<polygon fill="none" stroke="black" points="645.76,-1421.8 645.76,-1452.6 840.27,-1452.6 840.27,-1421.8 645.76,-1421.8"/>
<text text-anchor="start" x="652.76" y="-1434" font-family="Arial" font-size="14.00">alias </text>
<text text-anchor="start" x="685.44" y="-1434" font-family="Arial" font-size="14.00" fill="#666666">[TEXT]</text>
<polygon fill="none" stroke="black" points="645.76,-1391 645.76,-1421.8 840.27,-1421.8 840.27,-1391 645.76,-1391"/>
<text text-anchor="start" x="652.76" y="-1403.2" font-family="Arial" font-size="14.00">description </text>
<text text-anchor="start" x="724.35" y="-1403.2" font-family="Arial" font-size="14.00" fill="#666666">[TEXT]</text>
<polygon fill="none" stroke="black" points="645.76,-1360.2 645.76,-1391 840.27,-1391 840.27,-1360.2 645.76,-1360.2"/>
<text text-anchor="start" x="652.76" y="-1372.4" font-family="Arial" font-size="14.00">license </text>
<text text-anchor="start" x="700.23" y="-1372.4" font-family="Arial" font-size="14.00" fill="#666666">[TEXT]</text>
<polygon fill="none" stroke="black" points="645.76,-1329.4 645.76,-1360.2 840.27,-1360.2 840.27,-1329.4 645.76,-1329.4"/>
<text text-anchor="start" x="652.76" y="-1341.6" font-family="Arial" font-size="14.00">federal_tax_id_num </text>
<text text-anchor="start" x="779.62" y="-1341.6" font-family="Arial" font-size="14.00" fill="#666666">[TEXT]</text>
<polygon fill="none" stroke="black" points="645.76,-1298.6 645.76,-1329.4 840.27,-1329.4 840.27,-1298.6 645.76,-1298.6"/>
<text text-anchor="start" x="652.76" y="-1310.8" font-family="Arial" font-size="14.00">registration_date </text>
<text text-anchor="start" x="760.94" y="-1310.8" font-family="Arial" font-size="14.00" fill="#666666">[DATE]</text>
<polygon fill="none" stroke="black" points="645.76,-1267.8 645.76,-1298.6 840.27,-1298.6 840.27,-1267.8 645.76,-1267.8"/>
<text text-anchor="start" x="652.76" y="-1280" font-family="Arial" font-size="14.00">elaboration </text>
<text text-anchor="start" x="725.93" y="-1280" font-family="Arial" font-size="14.00" fill="#666666">[TEXT]</text>
<polygon fill="none" stroke="black" points="645.76,-1237 645.76,-1267.8 840.27,-1267.8 840.27,-1237 645.76,-1237"/>
<text text-anchor="start" x="652.76" y="-1249.2" font-family="Arial" font-size="14.00">created_at </text>
<text text-anchor="start" x="722.81" y="-1249.2" font-family="Arial" font-size="14.00" fill="#666666">[TIMESTAMPTZ]</text>
<polygon fill="none" stroke="black" points="645.76,-1206.2 645.76,-1237 840.27,-1237 840.27,-1206.2 645.76,-1206.2"/>
<text text-anchor="start" x="652.76" y="-1218.4" font-family="Arial" font-size="14.00">created_by </text>
<text text-anchor="start" x="725.92" y="-1218.4" font-family="Arial" font-size="14.00" fill="#666666">[TEXT]</text>
<polygon fill="none" stroke="black" points="645.76,-1175.4 645.76,-1206.2 840.27,-1206.2 840.27,-1175.4 645.76,-1175.4"/>
<text text-anchor="start" x="652.76" y="-1187.6" font-family="Arial" font-size="14.00">updated_at </text>
<text text-anchor="start" x="726.72" y="-1187.6" font-family="Arial" font-size="14.00" fill="#666666">[TIMESTAMPTZ]</text>
<polygon fill="none" stroke="black" points="645.76,-1144.6 645.76,-1175.4 840.27,-1175.4 840.27,-1144.6 645.76,-1144.6"/>
<text text-anchor="start" x="652.76" y="-1156.8" font-family="Arial" font-size="14.00">updated_by </text>
<text text-anchor="start" x="729.83" y="-1156.8" font-family="Arial" font-size="14.00" fill="#666666">[TEXT]</text>
<polygon fill="none" stroke="black" points="645.76,-1113.8 645.76,-1144.6 840.27,-1144.6 840.27,-1113.8 645.76,-1113.8"/>
<text text-anchor="start" x="652.76" y="-1126" font-family="Arial" font-size="14.00">deleted_at </text>
<text text-anchor="start" x="722.04" y="-1126" font-family="Arial" font-size="14.00" fill="#666666">[TIMESTAMPTZ]</text>
<polygon fill="none" stroke="black" points="645.76,-1083 645.76,-1113.8 840.27,-1113.8 840.27,-1083 645.76,-1083"/>
<text text-anchor="start" x="652.76" y="-1095.2" font-family="Arial" font-size="14.00">deleted_by </text>
<text text-anchor="start" x="725.15" y="-1095.2" font-family="Arial" font-size="14.00" fill="#666666">[TEXT]</text>
<polygon fill="none" stroke="black" points="645.76,-1052.2 645.76,-1083 840.27,-1083 840.27,-1052.2 645.76,-1052.2"/>
<text text-anchor="start" x="652.76" y="-1064.4" font-family="Arial" font-size="14.00">activity_log </text>
<text text-anchor="start" x="725.91" y="-1064.4" font-family="Arial" font-size="14.00" fill="#666666">[TEXT]</text>
</g>
<!-- organization&#45;&gt;party -->
<g id="edge5" class="edge">
<title>organization:party_id&#45;&gt;party:party_id</title>
<path fill="none" stroke="black" d="M847.97,-1490.85C878.13,-1415.69 875.9,-832.6 841.27,-832.6"/>
<polygon fill="black" stroke="black" points="847.93,-1490.9 838.05,-1495.64 844.49,-1494.98 841.7,-1498.29 841.7,-1498.29 841.7,-1498.29 844.49,-1494.98 844.93,-1501.44 847.93,-1490.9"/>
</g>
<!-- device_party_relationship -->
<g id="node6" class="node">
<title>device_party_relationship</title>
<polygon fill="#efefef" stroke="none" points="944.23,-1468 944.23,-1503.6 1215.8,-1503.6 1215.8,-1468 944.23,-1468"/>
<polygon fill="none" stroke="black" points="944.23,-1468 944.23,-1503.6 1215.8,-1503.6 1215.8,-1468 944.23,-1468"/>
<text text-anchor="start" x="951.92" y="-1481.4" font-family="Arial Bold" font-size="18.00">device_party_relationship</text>
<text text-anchor="start" x="1138.86" y="-1481.4" font-family="Arial" font-size="14.00">    </text>
<text text-anchor="start" x="1169.97" y="-1481.4" font-family="Arial" font-size="14.00" fill="#666666">[table]</text>
<polygon fill="none" stroke="black" points="944.23,-1437.2 944.23,-1468 1215.8,-1468 1215.8,-1437.2 944.23,-1437.2"/>
<text text-anchor="start" x="951.23" y="-1449.4" font-family="Arial" font-size="14.00">device_party_relationship_id </text>
<text text-anchor="start" x="1132.57" y="-1449.4" font-family="Arial" font-size="14.00" fill="#666666">[VARCHAR]</text>
<polygon fill="none" stroke="black" points="944.23,-1406.4 944.23,-1437.2 1215.8,-1437.2 1215.8,-1406.4 944.23,-1406.4"/>
<text text-anchor="start" x="951.23" y="-1418.6" font-family="Arial" font-size="14.00">device_id </text>
<text text-anchor="start" x="1014.27" y="-1418.6" font-family="Arial" font-size="14.00" fill="#666666">[VARCHAR]</text>
<polygon fill="none" stroke="black" points="944.23,-1375.6 944.23,-1406.4 1215.8,-1406.4 1215.8,-1375.6 944.23,-1375.6"/>
<text text-anchor="start" x="951.23" y="-1387.8" font-family="Arial" font-size="14.00">party_id </text>
<text text-anchor="start" x="1004.93" y="-1387.8" font-family="Arial" font-size="14.00" fill="#666666">[VARCHAR]</text>
<polygon fill="none" stroke="black" points="944.23,-1344.8 944.23,-1375.6 1215.8,-1375.6 1215.8,-1344.8 944.23,-1344.8"/>
<text text-anchor="start" x="951.23" y="-1357" font-family="Arial" font-size="14.00">elaboration </text>
<text text-anchor="start" x="1024.4" y="-1357" font-family="Arial" font-size="14.00" fill="#666666">[TEXT]</text>
<polygon fill="none" stroke="black" points="944.23,-1314 944.23,-1344.8 1215.8,-1344.8 1215.8,-1314 944.23,-1314"/>
<text text-anchor="start" x="951.23" y="-1326.2" font-family="Arial" font-size="14.00">created_at </text>
<text text-anchor="start" x="1021.28" y="-1326.2" font-family="Arial" font-size="14.00" fill="#666666">[TIMESTAMPTZ]</text>
<polygon fill="none" stroke="black" points="944.23,-1283.2 944.23,-1314 1215.8,-1314 1215.8,-1283.2 944.23,-1283.2"/>
<text text-anchor="start" x="951.23" y="-1295.4" font-family="Arial" font-size="14.00">created_by </text>
<text text-anchor="start" x="1024.39" y="-1295.4" font-family="Arial" font-size="14.00" fill="#666666">[TEXT]</text>
<polygon fill="none" stroke="black" points="944.23,-1252.4 944.23,-1283.2 1215.8,-1283.2 1215.8,-1252.4 944.23,-1252.4"/>
<text text-anchor="start" x="951.23" y="-1264.6" font-family="Arial" font-size="14.00">updated_at </text>
<text text-anchor="start" x="1025.19" y="-1264.6" font-family="Arial" font-size="14.00" fill="#666666">[TIMESTAMPTZ]</text>
<polygon fill="none" stroke="black" points="944.23,-1221.6 944.23,-1252.4 1215.8,-1252.4 1215.8,-1221.6 944.23,-1221.6"/>
<text text-anchor="start" x="951.23" y="-1233.8" font-family="Arial" font-size="14.00">updated_by </text>
<text text-anchor="start" x="1028.3" y="-1233.8" font-family="Arial" font-size="14.00" fill="#666666">[TEXT]</text>
<polygon fill="none" stroke="black" points="944.23,-1190.8 944.23,-1221.6 1215.8,-1221.6 1215.8,-1190.8 944.23,-1190.8"/>
<text text-anchor="start" x="951.23" y="-1203" font-family="Arial" font-size="14.00">deleted_at </text>
<text text-anchor="start" x="1020.51" y="-1203" font-family="Arial" font-size="14.00" fill="#666666">[TIMESTAMPTZ]</text>
<polygon fill="none" stroke="black" points="944.23,-1160 944.23,-1190.8 1215.8,-1190.8 1215.8,-1160 944.23,-1160"/>
<text text-anchor="start" x="951.23" y="-1172.2" font-family="Arial" font-size="14.00">deleted_by </text>
<text text-anchor="start" x="1023.62" y="-1172.2" font-family="Arial" font-size="14.00" fill="#666666">[TEXT]</text>
<polygon fill="none" stroke="black" points="944.23,-1129.2 944.23,-1160 1215.8,-1160 1215.8,-1129.2 944.23,-1129.2"/>
<text text-anchor="start" x="951.23" y="-1141.4" font-family="Arial" font-size="14.00">activity_log </text>
<text text-anchor="start" x="1024.38" y="-1141.4" font-family="Arial" font-size="14.00" fill="#666666">[TEXT]</text>
</g>
<!-- device_party_relationship&#45;&gt;party -->
<g id="edge7" class="edge">
<title>device_party_relationship:party_id&#45;&gt;party:party_id</title>
<path fill="none" stroke="black" d="M934.17,-1385.88C896.36,-1340.38 902.86,-1006.1 892.02,-962.8 876.93,-902.55 903.38,-832.6 841.27,-832.6"/>
<polygon fill="black" stroke="black" points="934.23,-1385.91 940.73,-1394.75 938.88,-1388.54 942.65,-1390.67 942.65,-1390.67 942.65,-1390.67 938.88,-1388.54 945.15,-1386.92 934.23,-1385.91"/>
</g>
</g>
</svg>
