<?xml version="1.0" encoding="UTF-8" standalone="no"?>
<!DOCTYPE svg PUBLIC "-//W3C//DTD SVG 1.1//EN"
 "http://www.w3.org/Graphics/SVG/1.1/DTD/svg11.dtd">
<!-- Generated by graphviz version 2.40.1 (20161225.0304)
 -->
<!-- Title: organization Pages: 1 -->
<svg width="1752pt" height="1319pt"
 viewBox="0.00 0.00 1751.50 1319.00" xmlns="http://www.w3.org/2000/svg" xmlns:xlink="http://www.w3.org/1999/xlink">
<g id="graph0" class="graph" transform="scale(1 1) rotate(0) translate(4 1315)">
<title>organization</title>
<polygon fill="#ffffff" stroke="transparent" points="-4,4 -4,-1315 1747.5,-1315 1747.5,4 -4,4"/>
<!-- organization -->
<g id="node1" class="node">
<title>organization</title>
<polygon fill="#efefef" stroke="transparent" points="46,-1229.5 46,-1264.5 274,-1264.5 274,-1229.5 46,-1229.5"/>
<polygon fill="none" stroke="#000000" points="46,-1229.5 46,-1264.5 274,-1264.5 274,-1229.5 46,-1229.5"/>
<text text-anchor="start" x="74.8214" y="-1242.3" font-family="Arial Bold" font-size="18.00" fill="#000000">organization</text>
<text text-anchor="start" x="172.8476" y="-1242.3" font-family="Arial" font-size="14.00" fill="#000000">    </text>
<text text-anchor="start" x="207.0524" y="-1242.3" font-family="Arial" font-size="14.00" fill="#666666">[table]</text>
<polygon fill="none" stroke="#000000" points="46,-1199.5 46,-1229.5 274,-1229.5 274,-1199.5 46,-1199.5"/>
<text text-anchor="start" x="53" y="-1210.9" font-family="Arial" font-size="14.00" fill="#000000">organization_id </text>
<text text-anchor="start" x="151.805" y="-1210.9" font-family="Arial" font-size="14.00" fill="#666666">[VARCHAR]</text>
<polygon fill="none" stroke="#000000" points="46,-1169.5 46,-1199.5 274,-1199.5 274,-1169.5 46,-1169.5"/>
<text text-anchor="start" x="53" y="-1180.9" font-family="Arial" font-size="14.00" fill="#000000">name </text>
<text text-anchor="start" x="91.899" y="-1180.9" font-family="Arial" font-size="14.00" fill="#666666">[TEXT]</text>
<polygon fill="none" stroke="#000000" points="46,-1139.5 46,-1169.5 274,-1169.5 274,-1139.5 46,-1139.5"/>
<text text-anchor="start" x="53" y="-1150.9" font-family="Arial" font-size="14.00" fill="#000000">alias </text>
<text text-anchor="start" x="85.669" y="-1150.9" font-family="Arial" font-size="14.00" fill="#666666">[TEXT]</text>
<polygon fill="none" stroke="#000000" points="46,-1109.5 46,-1139.5 274,-1139.5 274,-1109.5 46,-1109.5"/>
<text text-anchor="start" x="53" y="-1120.9" font-family="Arial" font-size="14.00" fill="#000000">description </text>
<text text-anchor="start" x="124.568" y="-1120.9" font-family="Arial" font-size="14.00" fill="#666666">[TEXT]</text>
<polygon fill="none" stroke="#000000" points="46,-1079.5 46,-1109.5 274,-1109.5 274,-1079.5 46,-1079.5"/>
<text text-anchor="start" x="53" y="-1090.9" font-family="Arial" font-size="14.00" fill="#000000">license </text>
<text text-anchor="start" x="100.4516" y="-1090.9" font-family="Arial" font-size="14.00" fill="#666666">[TEXT]</text>
<polygon fill="none" stroke="#000000" points="46,-1049.5 46,-1079.5 274,-1079.5 274,-1049.5 46,-1049.5"/>
<text text-anchor="start" x="53" y="-1060.9" font-family="Arial" font-size="14.00" fill="#000000">federal_tax_id_num </text>
<text text-anchor="start" x="179.8148" y="-1060.9" font-family="Arial" font-size="14.00" fill="#666666">[TEXT]</text>
<polygon fill="none" stroke="#000000" points="46,-1019.5 46,-1049.5 274,-1049.5 274,-1019.5 46,-1019.5"/>
<text text-anchor="start" x="52.655" y="-1030.9" font-family="Arial" font-size="14.00" fill="#000000">registration_date </text>
<text text-anchor="start" x="160.7952" y="-1030.9" font-family="Arial" font-size="14.00" fill="#666666">[TIMESTAMPTZ]</text>
<polygon fill="none" stroke="#000000" points="46,-989.5 46,-1019.5 274,-1019.5 274,-989.5 46,-989.5"/>
<text text-anchor="start" x="53" y="-1000.9" font-family="Arial" font-size="14.00" fill="#000000">elaboration </text>
<text text-anchor="start" x="126.1332" y="-1000.9" font-family="Arial" font-size="14.00" fill="#666666">[TEXT]</text>
<polygon fill="none" stroke="#000000" points="46,-959.5 46,-989.5 274,-989.5 274,-959.5 46,-959.5"/>
<text text-anchor="start" x="53" y="-970.9" font-family="Arial" font-size="14.00" fill="#000000">created_at </text>
<text text-anchor="start" x="123.028" y="-970.9" font-family="Arial" font-size="14.00" fill="#666666">[TIMESTAMPTZ]</text>
<polygon fill="none" stroke="#000000" points="46,-929.5 46,-959.5 274,-959.5 274,-929.5 46,-929.5"/>
<text text-anchor="start" x="53" y="-940.9" font-family="Arial" font-size="14.00" fill="#000000">created_by </text>
<text text-anchor="start" x="126.1374" y="-940.9" font-family="Arial" font-size="14.00" fill="#666666">[TEXT]</text>
<polygon fill="none" stroke="#000000" points="46,-899.5 46,-929.5 274,-929.5 274,-899.5 46,-899.5"/>
<text text-anchor="start" x="53" y="-910.9" font-family="Arial" font-size="14.00" fill="#000000">updated_at </text>
<text text-anchor="start" x="126.9326" y="-910.9" font-family="Arial" font-size="14.00" fill="#666666">[TIMESTAMPTZ]</text>
<polygon fill="none" stroke="#000000" points="46,-869.5 46,-899.5 274,-899.5 274,-869.5 46,-869.5"/>
<text text-anchor="start" x="53" y="-880.9" font-family="Arial" font-size="14.00" fill="#000000">updated_by </text>
<text text-anchor="start" x="130.042" y="-880.9" font-family="Arial" font-size="14.00" fill="#666666">[TEXT]</text>
<polygon fill="none" stroke="#000000" points="46,-839.5 46,-869.5 274,-869.5 274,-839.5 46,-839.5"/>
<text text-anchor="start" x="53" y="-850.9" font-family="Arial" font-size="14.00" fill="#000000">deleted_at </text>
<text text-anchor="start" x="122.2566" y="-850.9" font-family="Arial" font-size="14.00" fill="#666666">[TIMESTAMPTZ]</text>
<polygon fill="none" stroke="#000000" points="46,-809.5 46,-839.5 274,-839.5 274,-809.5 46,-809.5"/>
<text text-anchor="start" x="53" y="-820.9" font-family="Arial" font-size="14.00" fill="#000000">deleted_by </text>
<text text-anchor="start" x="125.366" y="-820.9" font-family="Arial" font-size="14.00" fill="#666666">[TEXT]</text>
<polygon fill="none" stroke="#000000" points="46,-779.5 46,-809.5 274,-809.5 274,-779.5 46,-779.5"/>
<text text-anchor="start" x="53" y="-790.9" font-family="Arial" font-size="14.00" fill="#000000">activity_log </text>
<text text-anchor="start" x="126.122" y="-790.9" font-family="Arial" font-size="14.00" fill="#666666">[TEXT]</text>
<polygon fill="none" stroke="#000000" stroke-width="3" points="44.5,-778.5 44.5,-1266.5 275.5,-1266.5 275.5,-778.5 44.5,-778.5"/>
</g>
<!-- party -->
<g id="node2" class="node">
<title>party</title>
<polygon fill="#efefef" stroke="transparent" points="714,-619.5 714,-654.5 938,-654.5 938,-619.5 714,-619.5"/>
<polygon fill="none" stroke="#000000" points="714,-619.5 714,-654.5 938,-654.5 938,-619.5 714,-619.5"/>
<text text-anchor="start" x="769.8311" y="-632.3" font-family="Arial Bold" font-size="18.00" fill="#000000">party</text>
<text text-anchor="start" x="809.8379" y="-632.3" font-family="Arial" font-size="14.00" fill="#000000">    </text>
<text text-anchor="start" x="844.0427" y="-632.3" font-family="Arial" font-size="14.00" fill="#666666">[table]</text>
<polygon fill="none" stroke="#000000" points="714,-589.5 714,-619.5 938,-619.5 938,-589.5 714,-589.5"/>
<text text-anchor="start" x="721" y="-600.9" font-family="Arial" font-size="14.00" fill="#000000">party_id    </text>
<text text-anchor="start" x="804.993" y="-600.9" font-family="Arial" font-size="14.00" fill="#666666">[VARCHAR]</text>
<polygon fill="none" stroke="#000000" points="714,-559.5 714,-589.5 938,-589.5 938,-559.5 714,-559.5"/>
<text text-anchor="start" x="721" y="-570.9" font-family="Arial" font-size="14.00" fill="#000000">party_type_id    </text>
<text text-anchor="start" x="839.2314" y="-570.9" font-family="Arial" font-size="14.00" fill="#666666">[TEXT]</text>
<polygon fill="none" stroke="#000000" points="714,-529.5 714,-559.5 938,-559.5 938,-529.5 714,-529.5"/>
<text text-anchor="start" x="721" y="-540.9" font-family="Arial" font-size="14.00" fill="#000000">party_name    </text>
<text text-anchor="start" x="829.1122" y="-540.9" font-family="Arial" font-size="14.00" fill="#666666">[TEXT]</text>
<polygon fill="none" stroke="#000000" points="714,-499.5 714,-529.5 938,-529.5 938,-499.5 714,-499.5"/>
<text text-anchor="start" x="721" y="-510.9" font-family="Arial" font-size="14.00" fill="#000000">elaboration    </text>
<text text-anchor="start" x="824.4474" y="-510.9" font-family="Arial" font-size="14.00" fill="#666666">[TEXT]</text>
<polygon fill="none" stroke="#000000" points="714,-469.5 714,-499.5 938,-499.5 938,-469.5 714,-469.5"/>
<text text-anchor="start" x="721" y="-480.9" font-family="Arial" font-size="14.00" fill="#000000">created_at    </text>
<text text-anchor="start" x="821.3422" y="-480.9" font-family="Arial" font-size="14.00" fill="#666666">[TIMESTAMPTZ]</text>
<polygon fill="none" stroke="#000000" points="714,-439.5 714,-469.5 938,-469.5 938,-439.5 714,-439.5"/>
<text text-anchor="start" x="721" y="-450.9" font-family="Arial" font-size="14.00" fill="#000000">created_by    </text>
<text text-anchor="start" x="824.4516" y="-450.9" font-family="Arial" font-size="14.00" fill="#666666">[TEXT]</text>
<polygon fill="none" stroke="#000000" points="714,-409.5 714,-439.5 938,-439.5 938,-409.5 714,-409.5"/>
<text text-anchor="start" x="720.6017" y="-420.9" font-family="Arial" font-size="14.00" fill="#000000">updated_at    </text>
<text text-anchor="start" x="824.8485" y="-420.9" font-family="Arial" font-size="14.00" fill="#666666">[TIMESTAMPTZ]</text>
<polygon fill="none" stroke="#000000" points="714,-379.5 714,-409.5 938,-409.5 938,-379.5 714,-379.5"/>
<text text-anchor="start" x="721" y="-390.9" font-family="Arial" font-size="14.00" fill="#000000">updated_by    </text>
<text text-anchor="start" x="828.3562" y="-390.9" font-family="Arial" font-size="14.00" fill="#666666">[TEXT]</text>
<polygon fill="none" stroke="#000000" points="714,-349.5 714,-379.5 938,-379.5 938,-349.5 714,-349.5"/>
<text text-anchor="start" x="721" y="-360.9" font-family="Arial" font-size="14.00" fill="#000000">deleted_at    </text>
<text text-anchor="start" x="820.5708" y="-360.9" font-family="Arial" font-size="14.00" fill="#666666">[TIMESTAMPTZ]</text>
<polygon fill="none" stroke="#000000" points="714,-319.5 714,-349.5 938,-349.5 938,-319.5 714,-319.5"/>
<text text-anchor="start" x="721" y="-330.9" font-family="Arial" font-size="14.00" fill="#000000">deleted_by    </text>
<text text-anchor="start" x="823.6802" y="-330.9" font-family="Arial" font-size="14.00" fill="#666666">[TEXT]</text>
<polygon fill="none" stroke="#000000" points="714,-289.5 714,-319.5 938,-319.5 938,-289.5 714,-289.5"/>
<text text-anchor="start" x="721" y="-300.9" font-family="Arial" font-size="14.00" fill="#000000">activity_log    </text>
<text text-anchor="start" x="824.4362" y="-300.9" font-family="Arial" font-size="14.00" fill="#666666">[TEXT]</text>
</g>
<!-- organization&#45;&gt;party -->
<g id="edge1" class="edge">
<title>organization:organization_id&#45;&gt;party:party_id</title>
<path fill="none" stroke="#000000" d="M283.9682,-1213.2132C373.7087,-1188.4862 263.6526,-814.7854 329,-734 385.7686,-663.82 623.7342,-604.5 714,-604.5"/>
<polygon fill="#000000" stroke="#000000" points="283.9177,-1213.2196 273.4238,-1210.037 278.9589,-1213.8598 274,-1214.5 274,-1214.5 274,-1214.5 278.9589,-1213.8598 274.5762,-1218.963 283.9177,-1213.2196 283.9177,-1213.2196"/>
</g>
<!-- party_type -->
<g id="node7" class="node">
<title>party_type</title>
<polygon fill="#efefef" stroke="transparent" points="716,-132.5 716,-167.5 936,-167.5 936,-132.5 716,-132.5"/>
<polygon fill="none" stroke="#000000" points="716,-132.5 716,-167.5 936,-167.5 936,-132.5 716,-132.5"/>
<text text-anchor="start" x="747.8207" y="-145.3" font-family="Arial Bold" font-size="18.00" fill="#000000">party_type</text>
<text text-anchor="start" x="831.8483" y="-145.3" font-family="Arial" font-size="14.00" fill="#000000">    </text>
<text text-anchor="start" x="866.0531" y="-145.3" font-family="Arial" font-size="14.00" fill="#666666">[table]</text>
<polygon fill="none" stroke="#000000" points="716,-102.5 716,-132.5 936,-132.5 936,-102.5 716,-102.5"/>
<text text-anchor="start" x="723" y="-113.9" font-family="Arial" font-size="14.00" fill="#000000">code    </text>
<text text-anchor="start" x="787.5526" y="-113.9" font-family="Arial" font-size="14.00" fill="#666666">[TEXT]</text>
<polygon fill="none" stroke="#000000" points="716,-72.5 716,-102.5 936,-102.5 936,-72.5 716,-72.5"/>
<text text-anchor="start" x="723" y="-83.9" font-family="Arial" font-size="14.00" fill="#000000">value    </text>
<text text-anchor="start" x="790.6592" y="-83.9" font-family="Arial" font-size="14.00" fill="#666666">[TEXT]</text>
<polygon fill="none" stroke="#000000" points="716,-42.5 716,-72.5 936,-72.5 936,-42.5 716,-42.5"/>
<text text-anchor="start" x="722.554" y="-53.9" font-family="Arial" font-size="14.00" fill="#000000">created_at    </text>
<text text-anchor="start" x="822.8962" y="-53.9" font-family="Arial" font-size="14.00" fill="#666666">[TIMESTAMPTZ]</text>
</g>
<!-- party&#45;&gt;party_type -->
<g id="edge8" class="edge">
<title>party:party_type_id&#45;&gt;party_type:code</title>
<path fill="none" stroke="#000000" d="M948.2338,-574.1041C1140.986,-559.0134 1135.6419,-117.5 936,-117.5"/>
<polygon fill="#000000" stroke="#000000" points="947.9925,-574.1134 937.826,-570.0034 942.9963,-574.3067 938,-574.5 938,-574.5 938,-574.5 942.9963,-574.3067 938.174,-578.9966 947.9925,-574.1134 947.9925,-574.1134"/>
</g>
<!-- party_relation -->
<g id="node3" class="node">
<title>party_relation</title>
<polygon fill="#efefef" stroke="transparent" points="382,-1184.5 382,-1219.5 609,-1219.5 609,-1184.5 382,-1184.5"/>
<polygon fill="none" stroke="#000000" points="382,-1184.5 382,-1219.5 609,-1219.5 609,-1184.5 382,-1184.5"/>
<text text-anchor="start" x="404.8242" y="-1197.3" font-family="Arial Bold" font-size="18.00" fill="#000000">party_relation</text>
<text text-anchor="start" x="513.8448" y="-1197.3" font-family="Arial" font-size="14.00" fill="#000000">    </text>
<text text-anchor="start" x="548.0496" y="-1197.3" font-family="Arial" font-size="14.00" fill="#666666">[table]</text>
<polygon fill="none" stroke="#000000" points="382,-1154.5 382,-1184.5 609,-1184.5 609,-1154.5 382,-1154.5"/>
<text text-anchor="start" x="388.5561" y="-1165.9" font-family="Arial" font-size="14.00" fill="#000000">party_relation_id    </text>
<text text-anchor="start" x="526.2265" y="-1165.9" font-family="Arial" font-size="14.00" fill="#666666">[VARCHAR]</text>
<polygon fill="none" stroke="#000000" points="382,-1124.5 382,-1154.5 609,-1154.5 609,-1124.5 382,-1124.5"/>
<text text-anchor="start" x="389" y="-1135.9" font-family="Arial" font-size="14.00" fill="#000000">party_id    </text>
<text text-anchor="start" x="472.993" y="-1135.9" font-family="Arial" font-size="14.00" fill="#666666">[VARCHAR]</text>
<polygon fill="none" stroke="#000000" points="382,-1094.5 382,-1124.5 609,-1124.5 609,-1094.5 382,-1094.5"/>
<text text-anchor="start" x="389" y="-1105.9" font-family="Arial" font-size="14.00" fill="#000000">related_party_id    </text>
<text text-anchor="start" x="523.5638" y="-1105.9" font-family="Arial" font-size="14.00" fill="#666666">[VARCHAR]</text>
<polygon fill="none" stroke="#000000" points="382,-1064.5 382,-1094.5 609,-1094.5 609,-1064.5 382,-1064.5"/>
<text text-anchor="start" x="389" y="-1075.9" font-family="Arial" font-size="14.00" fill="#000000">relation_type_id    </text>
<text text-anchor="start" x="522.0098" y="-1075.9" font-family="Arial" font-size="14.00" fill="#666666">[TEXT]</text>
<polygon fill="none" stroke="#000000" points="382,-1034.5 382,-1064.5 609,-1064.5 609,-1034.5 382,-1034.5"/>
<text text-anchor="start" x="389" y="-1045.9" font-family="Arial" font-size="14.00" fill="#000000">elaboration    </text>
<text text-anchor="start" x="492.4474" y="-1045.9" font-family="Arial" font-size="14.00" fill="#666666">[TEXT]</text>
<polygon fill="none" stroke="#000000" points="382,-1004.5 382,-1034.5 609,-1034.5 609,-1004.5 382,-1004.5"/>
<text text-anchor="start" x="389" y="-1015.9" font-family="Arial" font-size="14.00" fill="#000000">created_at    </text>
<text text-anchor="start" x="489.3422" y="-1015.9" font-family="Arial" font-size="14.00" fill="#666666">[TIMESTAMPTZ]</text>
<polygon fill="none" stroke="#000000" points="382,-974.5 382,-1004.5 609,-1004.5 609,-974.5 382,-974.5"/>
<text text-anchor="start" x="389" y="-985.9" font-family="Arial" font-size="14.00" fill="#000000">created_by    </text>
<text text-anchor="start" x="492.4516" y="-985.9" font-family="Arial" font-size="14.00" fill="#666666">[TEXT]</text>
<polygon fill="none" stroke="#000000" points="382,-944.5 382,-974.5 609,-974.5 609,-944.5 382,-944.5"/>
<text text-anchor="start" x="389" y="-955.9" font-family="Arial" font-size="14.00" fill="#000000">updated_at    </text>
<text text-anchor="start" x="493.2468" y="-955.9" font-family="Arial" font-size="14.00" fill="#666666">[TIMESTAMPTZ]</text>
<polygon fill="none" stroke="#000000" points="382,-914.5 382,-944.5 609,-944.5 609,-914.5 382,-914.5"/>
<text text-anchor="start" x="389" y="-925.9" font-family="Arial" font-size="14.00" fill="#000000">updated_by    </text>
<text text-anchor="start" x="496.3562" y="-925.9" font-family="Arial" font-size="14.00" fill="#666666">[TEXT]</text>
<polygon fill="none" stroke="#000000" points="382,-884.5 382,-914.5 609,-914.5 609,-884.5 382,-884.5"/>
<text text-anchor="start" x="389" y="-895.9" font-family="Arial" font-size="14.00" fill="#000000">deleted_at    </text>
<text text-anchor="start" x="488.5708" y="-895.9" font-family="Arial" font-size="14.00" fill="#666666">[TIMESTAMPTZ]</text>
<polygon fill="none" stroke="#000000" points="382,-854.5 382,-884.5 609,-884.5 609,-854.5 382,-854.5"/>
<text text-anchor="start" x="389" y="-865.9" font-family="Arial" font-size="14.00" fill="#000000">deleted_by    </text>
<text text-anchor="start" x="491.6802" y="-865.9" font-family="Arial" font-size="14.00" fill="#666666">[TEXT]</text>
<polygon fill="none" stroke="#000000" points="382,-824.5 382,-854.5 609,-854.5 609,-824.5 382,-824.5"/>
<text text-anchor="start" x="389" y="-835.9" font-family="Arial" font-size="14.00" fill="#000000">activity_log    </text>
<text text-anchor="start" x="492.4362" y="-835.9" font-family="Arial" font-size="14.00" fill="#666666">[TEXT]</text>
</g>
<!-- party_relation&#45;&gt;party -->
<g id="edge2" class="edge">
<title>party_relation:related_party_id&#45;&gt;party:party_id</title>
<path fill="none" stroke="#000000" d="M619.1097,-1107.9109C688.7281,-1084.6138 640.0373,-811.848 661,-734 677.1702,-673.9498 651.8107,-604.5 714,-604.5"/>
<polygon fill="#000000" stroke="#000000" points="618.8787,-1107.9471 608.3012,-1105.0546 613.9394,-1108.7236 609,-1109.5 609,-1109.5 609,-1109.5 613.9394,-1108.7236 609.6988,-1113.9454 618.8787,-1107.9471 618.8787,-1107.9471"/>
</g>
<!-- party_relation&#45;&gt;party -->
<g id="edge3" class="edge">
<title>party_relation:party_id&#45;&gt;party:party_id</title>
<path fill="none" stroke="#000000" d="M618.9607,-1138.0785C695.133,-1115.0336 638.7252,-818.4107 661,-734 676.8677,-673.8691 651.8107,-604.5 714,-604.5"/>
<polygon fill="#000000" stroke="#000000" points="618.8997,-1138.0871 608.3642,-1135.0451 613.9499,-1138.7936 609,-1139.5 609,-1139.5 609,-1139.5 613.9499,-1138.7936 609.6358,-1143.9549 618.8997,-1138.0871 618.8997,-1138.0871"/>
</g>
<!-- person -->
<g id="node4" class="node">
<title>person</title>
<polygon fill="#efefef" stroke="transparent" points="713,-1229.5 713,-1264.5 939,-1264.5 939,-1229.5 713,-1229.5"/>
<polygon fill="none" stroke="#000000" points="713,-1229.5 713,-1264.5 939,-1264.5 939,-1229.5 713,-1229.5"/>
<text text-anchor="start" x="762.326" y="-1242.3" font-family="Arial Bold" font-size="18.00" fill="#000000">person</text>
<text text-anchor="start" x="817.343" y="-1242.3" font-family="Arial" font-size="14.00" fill="#000000">    </text>
<text text-anchor="start" x="851.5478" y="-1242.3" font-family="Arial" font-size="14.00" fill="#666666">[table]</text>
<polygon fill="none" stroke="#000000" points="713,-1199.5 713,-1229.5 939,-1229.5 939,-1199.5 713,-1199.5"/>
<text text-anchor="start" x="720" y="-1210.9" font-family="Arial" font-size="14.00" fill="#000000">person_id    </text>
<text text-anchor="start" x="815.6676" y="-1210.9" font-family="Arial" font-size="14.00" fill="#666666">[VARCHAR]</text>
<polygon fill="none" stroke="#000000" points="713,-1169.5 713,-1199.5 939,-1199.5 939,-1169.5 713,-1169.5"/>
<text text-anchor="start" x="720" y="-1180.9" font-family="Arial" font-size="14.00" fill="#000000">person_first_name    </text>
<text text-anchor="start" x="870.1178" y="-1180.9" font-family="Arial" font-size="14.00" fill="#666666">[TEXT]</text>
<polygon fill="none" stroke="#000000" points="713,-1139.5 713,-1169.5 939,-1169.5 939,-1139.5 713,-1139.5"/>
<text text-anchor="start" x="719.8247" y="-1150.9" font-family="Arial" font-size="14.00" fill="#000000">person_middle_name    </text>
<text text-anchor="start" x="888.6157" y="-1150.9" font-family="Arial" font-size="14.00" fill="#666666">[TEXT]</text>
<polygon fill="none" stroke="#000000" points="713,-1109.5 713,-1139.5 939,-1139.5 939,-1109.5 713,-1109.5"/>
<text text-anchor="start" x="720" y="-1120.9" font-family="Arial" font-size="14.00" fill="#000000">person_last_name    </text>
<text text-anchor="start" x="869.3492" y="-1120.9" font-family="Arial" font-size="14.00" fill="#666666">[TEXT]</text>
<polygon fill="none" stroke="#000000" points="713,-1079.5 713,-1109.5 939,-1109.5 939,-1079.5 713,-1079.5"/>
<text text-anchor="start" x="720" y="-1090.9" font-family="Arial" font-size="14.00" fill="#000000">honorific_prefix    </text>
<text text-anchor="start" x="849.1052" y="-1090.9" font-family="Arial" font-size="14.00" fill="#666666">[TEXT]</text>
<polygon fill="none" stroke="#000000" points="713,-1049.5 713,-1079.5 939,-1079.5 939,-1049.5 713,-1049.5"/>
<text text-anchor="start" x="720" y="-1060.9" font-family="Arial" font-size="14.00" fill="#000000">honorific_suffix    </text>
<text text-anchor="start" x="847.5526" y="-1060.9" font-family="Arial" font-size="14.00" fill="#666666">[TEXT]</text>
<polygon fill="none" stroke="#000000" points="713,-1019.5 713,-1049.5 939,-1049.5 939,-1019.5 713,-1019.5"/>
<text text-anchor="start" x="720" y="-1030.9" font-family="Arial" font-size="14.00" fill="#000000">gender_id    </text>
<text text-anchor="start" x="816.4502" y="-1030.9" font-family="Arial" font-size="14.00" fill="#666666">[TEXT]</text>
<polygon fill="none" stroke="#000000" points="713,-989.5 713,-1019.5 939,-1019.5 939,-989.5 713,-989.5"/>
<text text-anchor="start" x="720" y="-1000.9" font-family="Arial" font-size="14.00" fill="#000000">elaboration    </text>
<text text-anchor="start" x="823.4474" y="-1000.9" font-family="Arial" font-size="14.00" fill="#666666">[TEXT]</text>
<polygon fill="none" stroke="#000000" points="713,-959.5 713,-989.5 939,-989.5 939,-959.5 713,-959.5"/>
<text text-anchor="start" x="720" y="-970.9" font-family="Arial" font-size="14.00" fill="#000000">created_at    </text>
<text text-anchor="start" x="820.3422" y="-970.9" font-family="Arial" font-size="14.00" fill="#666666">[TIMESTAMPTZ]</text>
<polygon fill="none" stroke="#000000" points="713,-929.5 713,-959.5 939,-959.5 939,-929.5 713,-929.5"/>
<text text-anchor="start" x="720" y="-940.9" font-family="Arial" font-size="14.00" fill="#000000">created_by    </text>
<text text-anchor="start" x="823.4516" y="-940.9" font-family="Arial" font-size="14.00" fill="#666666">[TEXT]</text>
<polygon fill="none" stroke="#000000" points="713,-899.5 713,-929.5 939,-929.5 939,-899.5 713,-899.5"/>
<text text-anchor="start" x="720" y="-910.9" font-family="Arial" font-size="14.00" fill="#000000">updated_at    </text>
<text text-anchor="start" x="824.2468" y="-910.9" font-family="Arial" font-size="14.00" fill="#666666">[TIMESTAMPTZ]</text>
<polygon fill="none" stroke="#000000" points="713,-869.5 713,-899.5 939,-899.5 939,-869.5 713,-869.5"/>
<text text-anchor="start" x="720" y="-880.9" font-family="Arial" font-size="14.00" fill="#000000">updated_by    </text>
<text text-anchor="start" x="827.3562" y="-880.9" font-family="Arial" font-size="14.00" fill="#666666">[TEXT]</text>
<polygon fill="none" stroke="#000000" points="713,-839.5 713,-869.5 939,-869.5 939,-839.5 713,-839.5"/>
<text text-anchor="start" x="720" y="-850.9" font-family="Arial" font-size="14.00" fill="#000000">deleted_at    </text>
<text text-anchor="start" x="819.5708" y="-850.9" font-family="Arial" font-size="14.00" fill="#666666">[TIMESTAMPTZ]</text>
<polygon fill="none" stroke="#000000" points="713,-809.5 713,-839.5 939,-839.5 939,-809.5 713,-809.5"/>
<text text-anchor="start" x="720" y="-820.9" font-family="Arial" font-size="14.00" fill="#000000">deleted_by    </text>
<text text-anchor="start" x="822.6802" y="-820.9" font-family="Arial" font-size="14.00" fill="#666666">[TEXT]</text>
<polygon fill="none" stroke="#000000" points="713,-779.5 713,-809.5 939,-809.5 939,-779.5 713,-779.5"/>
<text text-anchor="start" x="720" y="-790.9" font-family="Arial" font-size="14.00" fill="#000000">activity_log    </text>
<text text-anchor="start" x="823.4362" y="-790.9" font-family="Arial" font-size="14.00" fill="#666666">[TEXT]</text>
</g>
<!-- person&#45;&gt;party -->
<g id="edge4" class="edge">
<title>person:person_id&#45;&gt;party:party_id</title>
<path fill="none" stroke="#000000" d="M948.4367,-1210.279C1006.521,-1156.384 1002.4684,-604.5 938,-604.5"/>
<polygon fill="#000000" stroke="#000000" points="948.1284,-1210.4168 937.1626,-1210.3922 943.5642,-1212.4584 939,-1214.5 939,-1214.5 939,-1214.5 943.5642,-1212.4584 940.8374,-1218.6078 948.1284,-1210.4168 948.1284,-1210.4168"/>
</g>
<!-- organization_role -->
<g id="node5" class="node">
<title>organization_role</title>
<polygon fill="#efefef" stroke="transparent" points="1043,-1184.5 1043,-1219.5 1295,-1219.5 1295,-1184.5 1043,-1184.5"/>
<polygon fill="none" stroke="#000000" points="1043,-1184.5 1043,-1219.5 1295,-1219.5 1295,-1184.5 1043,-1184.5"/>
<text text-anchor="start" x="1063.8189" y="-1197.3" font-family="Arial Bold" font-size="18.00" fill="#000000">organization_role</text>
<text text-anchor="start" x="1201.8501" y="-1197.3" font-family="Arial" font-size="14.00" fill="#000000">    </text>
<text text-anchor="start" x="1236.0549" y="-1197.3" font-family="Arial" font-size="14.00" fill="#666666">[table]</text>
<polygon fill="none" stroke="#000000" points="1043,-1154.5 1043,-1184.5 1295,-1184.5 1295,-1154.5 1043,-1154.5"/>
<text text-anchor="start" x="1050" y="-1165.9" font-family="Arial" font-size="14.00" fill="#000000">organization_role_id    </text>
<text text-anchor="start" x="1210.2342" y="-1165.9" font-family="Arial" font-size="14.00" fill="#666666">[VARCHAR]</text>
<polygon fill="none" stroke="#000000" points="1043,-1124.5 1043,-1154.5 1295,-1154.5 1295,-1124.5 1043,-1124.5"/>
<text text-anchor="start" x="1050" y="-1135.9" font-family="Arial" font-size="14.00" fill="#000000">person_id    </text>
<text text-anchor="start" x="1145.6676" y="-1135.9" font-family="Arial" font-size="14.00" fill="#666666">[VARCHAR]</text>
<polygon fill="none" stroke="#000000" points="1043,-1094.5 1043,-1124.5 1295,-1124.5 1295,-1094.5 1043,-1094.5"/>
<text text-anchor="start" x="1050" y="-1105.9" font-family="Arial" font-size="14.00" fill="#000000">organization_id    </text>
<text text-anchor="start" x="1179.1192" y="-1105.9" font-family="Arial" font-size="14.00" fill="#666666">[VARCHAR]</text>
<polygon fill="none" stroke="#000000" points="1043,-1064.5 1043,-1094.5 1295,-1094.5 1295,-1064.5 1043,-1064.5"/>
<text text-anchor="start" x="1049.9839" y="-1075.9" font-family="Arial" font-size="14.00" fill="#000000">organization_role_type_id    </text>
<text text-anchor="start" x="1244.4565" y="-1075.9" font-family="Arial" font-size="14.00" fill="#666666">[TEXT]</text>
<polygon fill="none" stroke="#000000" points="1043,-1034.5 1043,-1064.5 1295,-1064.5 1295,-1034.5 1043,-1034.5"/>
<text text-anchor="start" x="1050" y="-1045.9" font-family="Arial" font-size="14.00" fill="#000000">elaboration    </text>
<text text-anchor="start" x="1153.4474" y="-1045.9" font-family="Arial" font-size="14.00" fill="#666666">[TEXT]</text>
<polygon fill="none" stroke="#000000" points="1043,-1004.5 1043,-1034.5 1295,-1034.5 1295,-1004.5 1043,-1004.5"/>
<text text-anchor="start" x="1050" y="-1015.9" font-family="Arial" font-size="14.00" fill="#000000">created_at    </text>
<text text-anchor="start" x="1150.3422" y="-1015.9" font-family="Arial" font-size="14.00" fill="#666666">[TIMESTAMPTZ]</text>
<polygon fill="none" stroke="#000000" points="1043,-974.5 1043,-1004.5 1295,-1004.5 1295,-974.5 1043,-974.5"/>
<text text-anchor="start" x="1050" y="-985.9" font-family="Arial" font-size="14.00" fill="#000000">created_by    </text>
<text text-anchor="start" x="1153.4516" y="-985.9" font-family="Arial" font-size="14.00" fill="#666666">[TEXT]</text>
<polygon fill="none" stroke="#000000" points="1043,-944.5 1043,-974.5 1295,-974.5 1295,-944.5 1043,-944.5"/>
<text text-anchor="start" x="1050" y="-955.9" font-family="Arial" font-size="14.00" fill="#000000">updated_at    </text>
<text text-anchor="start" x="1154.2468" y="-955.9" font-family="Arial" font-size="14.00" fill="#666666">[TIMESTAMPTZ]</text>
<polygon fill="none" stroke="#000000" points="1043,-914.5 1043,-944.5 1295,-944.5 1295,-914.5 1043,-914.5"/>
<text text-anchor="start" x="1050" y="-925.9" font-family="Arial" font-size="14.00" fill="#000000">updated_by    </text>
<text text-anchor="start" x="1157.3562" y="-925.9" font-family="Arial" font-size="14.00" fill="#666666">[TEXT]</text>
<polygon fill="none" stroke="#000000" points="1043,-884.5 1043,-914.5 1295,-914.5 1295,-884.5 1043,-884.5"/>
<text text-anchor="start" x="1050" y="-895.9" font-family="Arial" font-size="14.00" fill="#000000">deleted_at    </text>
<text text-anchor="start" x="1149.5708" y="-895.9" font-family="Arial" font-size="14.00" fill="#666666">[TIMESTAMPTZ]</text>
<polygon fill="none" stroke="#000000" points="1043,-854.5 1043,-884.5 1295,-884.5 1295,-854.5 1043,-854.5"/>
<text text-anchor="start" x="1050" y="-865.9" font-family="Arial" font-size="14.00" fill="#000000">deleted_by    </text>
<text text-anchor="start" x="1152.6802" y="-865.9" font-family="Arial" font-size="14.00" fill="#666666">[TEXT]</text>
<polygon fill="none" stroke="#000000" points="1043,-824.5 1043,-854.5 1295,-854.5 1295,-824.5 1043,-824.5"/>
<text text-anchor="start" x="1050" y="-835.9" font-family="Arial" font-size="14.00" fill="#000000">activity_log    </text>
<text text-anchor="start" x="1153.4362" y="-835.9" font-family="Arial" font-size="14.00" fill="#666666">[TEXT]</text>
</g>
<!-- organization_role&#45;&gt;party -->
<g id="edge5" class="edge">
<title>organization_role:organization_id&#45;&gt;party:party_id</title>
<path fill="none" stroke="#000000" d="M1032.8903,-1107.9109C963.2719,-1084.6138 1011.9627,-811.848 991,-734 974.8298,-673.9498 1000.1893,-604.5 938,-604.5"/>
<polygon fill="#000000" stroke="#000000" points="1033.1213,-1107.9471 1042.3012,-1113.9454 1038.0606,-1108.7236 1043,-1109.5 1043,-1109.5 1043,-1109.5 1038.0606,-1108.7236 1043.6988,-1105.0546 1033.1213,-1107.9471 1033.1213,-1107.9471"/>
</g>
<!-- organization_role&#45;&gt;party -->
<g id="edge6" class="edge">
<title>organization_role:person_id&#45;&gt;party:party_id</title>
<path fill="none" stroke="#000000" d="M1033.0393,-1138.0785C956.867,-1115.0336 1013.2748,-818.4107 991,-734 975.1323,-673.8691 1000.1893,-604.5 938,-604.5"/>
<polygon fill="#000000" stroke="#000000" points="1033.1003,-1138.0871 1042.3642,-1143.9549 1038.0501,-1138.7936 1043,-1139.5 1043,-1139.5 1043,-1139.5 1038.0501,-1138.7936 1043.6358,-1135.0451 1033.1003,-1138.0871 1033.1003,-1138.0871"/>
</g>
<!-- device_party_relationship -->
<g id="node6" class="node">
<title>device_party_relationship</title>
<polygon fill="#efefef" stroke="transparent" points="1400,-1169.5 1400,-1204.5 1701,-1204.5 1701,-1169.5 1400,-1169.5"/>
<polygon fill="none" stroke="#000000" points="1400,-1169.5 1400,-1204.5 1701,-1204.5 1701,-1169.5 1400,-1169.5"/>
<text text-anchor="start" x="1412.3114" y="-1182.3" font-family="Arial Bold" font-size="18.00" fill="#000000">device_party_relationship</text>
<text text-anchor="start" x="1616.3576" y="-1182.3" font-family="Arial" font-size="14.00" fill="#000000">    </text>
<text text-anchor="start" x="1650.5624" y="-1182.3" font-family="Arial" font-size="14.00" fill="#666666">[table]</text>
<polygon fill="none" stroke="#000000" points="1400,-1139.5 1400,-1169.5 1701,-1169.5 1701,-1139.5 1400,-1139.5"/>
<text text-anchor="start" x="1406.6017" y="-1150.9" font-family="Arial" font-size="14.00" fill="#000000">device_party_relationship_id    </text>
<text text-anchor="start" x="1618.1809" y="-1150.9" font-family="Arial" font-size="14.00" fill="#666666">[VARCHAR]</text>
<polygon fill="none" stroke="#000000" points="1400,-1109.5 1400,-1139.5 1701,-1139.5 1701,-1109.5 1400,-1109.5"/>
<text text-anchor="start" x="1407" y="-1120.9" font-family="Arial" font-size="14.00" fill="#000000">device_id    </text>
<text text-anchor="start" x="1500.331" y="-1120.9" font-family="Arial" font-size="14.00" fill="#666666">[VARCHAR]</text>
<polygon fill="none" stroke="#000000" points="1400,-1079.5 1400,-1109.5 1701,-1109.5 1701,-1079.5 1400,-1079.5"/>
<text text-anchor="start" x="1407" y="-1090.9" font-family="Arial" font-size="14.00" fill="#000000">party_id    </text>
<text text-anchor="start" x="1490.993" y="-1090.9" font-family="Arial" font-size="14.00" fill="#666666">[VARCHAR]</text>
<polygon fill="none" stroke="#000000" points="1400,-1049.5 1400,-1079.5 1701,-1079.5 1701,-1049.5 1400,-1049.5"/>
<text text-anchor="start" x="1407" y="-1060.9" font-family="Arial" font-size="14.00" fill="#000000">elaboration    </text>
<text text-anchor="start" x="1510.4474" y="-1060.9" font-family="Arial" font-size="14.00" fill="#666666">[TEXT]</text>
<polygon fill="none" stroke="#000000" points="1400,-1019.5 1400,-1049.5 1701,-1049.5 1701,-1019.5 1400,-1019.5"/>
<text text-anchor="start" x="1407" y="-1030.9" font-family="Arial" font-size="14.00" fill="#000000">created_at    </text>
<text text-anchor="start" x="1507.3422" y="-1030.9" font-family="Arial" font-size="14.00" fill="#666666">[TIMESTAMPTZ]</text>
<polygon fill="none" stroke="#000000" points="1400,-989.5 1400,-1019.5 1701,-1019.5 1701,-989.5 1400,-989.5"/>
<text text-anchor="start" x="1407" y="-1000.9" font-family="Arial" font-size="14.00" fill="#000000">created_by    </text>
<text text-anchor="start" x="1510.4516" y="-1000.9" font-family="Arial" font-size="14.00" fill="#666666">[TEXT]</text>
<polygon fill="none" stroke="#000000" points="1400,-959.5 1400,-989.5 1701,-989.5 1701,-959.5 1400,-959.5"/>
<text text-anchor="start" x="1407" y="-970.9" font-family="Arial" font-size="14.00" fill="#000000">updated_at    </text>
<text text-anchor="start" x="1511.2468" y="-970.9" font-family="Arial" font-size="14.00" fill="#666666">[TIMESTAMPTZ]</text>
<polygon fill="none" stroke="#000000" points="1400,-929.5 1400,-959.5 1701,-959.5 1701,-929.5 1400,-929.5"/>
<text text-anchor="start" x="1407" y="-940.9" font-family="Arial" font-size="14.00" fill="#000000">updated_by    </text>
<text text-anchor="start" x="1514.3562" y="-940.9" font-family="Arial" font-size="14.00" fill="#666666">[TEXT]</text>
<polygon fill="none" stroke="#000000" points="1400,-899.5 1400,-929.5 1701,-929.5 1701,-899.5 1400,-899.5"/>
<text text-anchor="start" x="1407" y="-910.9" font-family="Arial" font-size="14.00" fill="#000000">deleted_at    </text>
<text text-anchor="start" x="1506.5708" y="-910.9" font-family="Arial" font-size="14.00" fill="#666666">[TIMESTAMPTZ]</text>
<polygon fill="none" stroke="#000000" points="1400,-869.5 1400,-899.5 1701,-899.5 1701,-869.5 1400,-869.5"/>
<text text-anchor="start" x="1407" y="-880.9" font-family="Arial" font-size="14.00" fill="#000000">deleted_by    </text>
<text text-anchor="start" x="1509.6802" y="-880.9" font-family="Arial" font-size="14.00" fill="#666666">[TEXT]</text>
<polygon fill="none" stroke="#000000" points="1400,-839.5 1400,-869.5 1701,-869.5 1701,-839.5 1400,-839.5"/>
<text text-anchor="start" x="1407" y="-850.9" font-family="Arial" font-size="14.00" fill="#000000">activity_log    </text>
<text text-anchor="start" x="1510.4362" y="-850.9" font-family="Arial" font-size="14.00" fill="#666666">[TEXT]</text>
</g>
<!-- device_party_relationship&#45;&gt;party -->
<g id="edge7" class="edge">
<title>device_party_relationship:party_id&#45;&gt;party:party_id</title>
<path fill="none" stroke="#000000" d="M1390.0383,-1092.7395C1325.9873,-1068.1302 1397.1194,-792.8959 1347,-734 1285.2144,-661.395 1033.336,-604.5 938,-604.5"/>
<polygon fill="#000000" stroke="#000000" points="1390.1526,-1092.7596 1399.2168,-1098.9313 1395.0763,-1093.6298 1400,-1094.5 1400,-1094.5 1400,-1094.5 1395.0763,-1093.6298 1400.7832,-1090.0687 1390.1526,-1092.7596 1390.1526,-1092.7596"/>
</g>
</g>
</svg>
