<?xml version="1.0" encoding="UTF-8" standalone="no"?>
<!DOCTYPE svg PUBLIC "-//W3C//DTD SVG 1.1//EN"
 "http://www.w3.org/Graphics/SVG/1.1/DTD/svg11.dtd">
<!-- Generated by graphviz version 12.1.2 (20240928.0832)
 -->
<!-- Title: organization_role_type Pages: 1 -->
<svg width="692pt" height="996pt"
 viewBox="0.00 0.00 692.46 996.40" xmlns="http://www.w3.org/2000/svg" xmlns:xlink="http://www.w3.org/1999/xlink">
<g id="graph0" class="graph" transform="scale(1 1) rotate(0) translate(4 992.4)">
<title>organization_role_type</title>
<polygon fill="white" stroke="none" points="-4,4 -4,-992.4 688.46,-992.4 688.46,4 -4,4"/>
<!-- organization_role_type -->
<g id="node1" class="node">
<title>organization_role_type</title>
<polygon fill="#efefef" stroke="none" points="46.2,-366.6 46.2,-402.2 296.39,-402.2 296.39,-366.6 46.2,-366.6"/>
<polygon fill="none" stroke="black" points="46.2,-366.6 46.2,-402.2 296.39,-402.2 296.39,-366.6 46.2,-366.6"/>
<text text-anchor="start" x="53.2" y="-380" font-family="Arial Bold" font-size="18.00">organization_role_type</text>
<text text-anchor="start" x="220.14" y="-380" font-family="Arial" font-size="14.00">    </text>
<text text-anchor="start" x="251.26" y="-380" font-family="Arial" font-size="14.00" fill="#666666">[table]</text>
<polygon fill="none" stroke="black" points="46.2,-335.8 46.2,-366.6 296.39,-366.6 296.39,-335.8 46.2,-335.8"/>
<text text-anchor="start" x="53.2" y="-348" font-family="Arial" font-size="14.00">organization_role_type_id </text>
<text text-anchor="start" x="217.43" y="-348" font-family="Arial" font-size="14.00" fill="#666666">[ULID]</text>
<polygon fill="none" stroke="black" points="46.2,-305 46.2,-335.8 296.39,-335.8 296.39,-305 46.2,-305"/>
<text text-anchor="start" x="53.2" y="-317.2" font-family="Arial" font-size="14.00">code </text>
<text text-anchor="start" x="87.45" y="-317.2" font-family="Arial" font-size="14.00" fill="#666666">[TEXT]</text>
<polygon fill="none" stroke="black" points="46.2,-274.2 46.2,-305 296.39,-305 296.39,-274.2 46.2,-274.2"/>
<text text-anchor="start" x="53.2" y="-286.4" font-family="Arial" font-size="14.00">value </text>
<text text-anchor="start" x="90.56" y="-286.4" font-family="Arial" font-size="14.00" fill="#666666">[TEXT]</text>
<polygon fill="none" stroke="black" points="46.2,-243.4 46.2,-274.2 296.39,-274.2 296.39,-243.4 46.2,-243.4"/>
<text text-anchor="start" x="53.2" y="-255.6" font-family="Arial" font-size="14.00">created_at </text>
<text text-anchor="start" x="123.25" y="-255.6" font-family="Arial" font-size="14.00" fill="#666666">[TIMESTAMPTZ]</text>
<polygon fill="none" stroke="black" points="46.2,-212.6 46.2,-243.4 296.39,-243.4 296.39,-212.6 46.2,-212.6"/>
<text text-anchor="start" x="53.2" y="-224.8" font-family="Arial" font-size="14.00">created_by </text>
<text text-anchor="start" x="126.36" y="-224.8" font-family="Arial" font-size="14.00" fill="#666666">[TEXT]</text>
<polygon fill="none" stroke="black" points="46.2,-181.8 46.2,-212.6 296.39,-212.6 296.39,-181.8 46.2,-181.8"/>
<text text-anchor="start" x="53.2" y="-194" font-family="Arial" font-size="14.00">updated_at </text>
<text text-anchor="start" x="127.16" y="-194" font-family="Arial" font-size="14.00" fill="#666666">[TIMESTAMPTZ]</text>
<polygon fill="none" stroke="black" points="46.2,-151 46.2,-181.8 296.39,-181.8 296.39,-151 46.2,-151"/>
<text text-anchor="start" x="53.2" y="-163.2" font-family="Arial" font-size="14.00">updated_by </text>
<text text-anchor="start" x="130.27" y="-163.2" font-family="Arial" font-size="14.00" fill="#666666">[TEXT]</text>
<polygon fill="none" stroke="black" points="46.2,-120.2 46.2,-151 296.39,-151 296.39,-120.2 46.2,-120.2"/>
<text text-anchor="start" x="53.2" y="-132.4" font-family="Arial" font-size="14.00">deleted_at </text>
<text text-anchor="start" x="122.48" y="-132.4" font-family="Arial" font-size="14.00" fill="#666666">[TIMESTAMPTZ]</text>
<polygon fill="none" stroke="black" points="46.2,-89.4 46.2,-120.2 296.39,-120.2 296.39,-89.4 46.2,-89.4"/>
<text text-anchor="start" x="53.2" y="-101.6" font-family="Arial" font-size="14.00">deleted_by </text>
<text text-anchor="start" x="125.59" y="-101.6" font-family="Arial" font-size="14.00" fill="#666666">[TEXT]</text>
<polygon fill="none" stroke="black" points="46.2,-58.6 46.2,-89.4 296.39,-89.4 296.39,-58.6 46.2,-58.6"/>
<text text-anchor="start" x="53.2" y="-70.8" font-family="Arial" font-size="14.00">activity_log </text>
<text text-anchor="start" x="126.34" y="-70.8" font-family="Arial" font-size="14.00" fill="#666666">[TEXT]</text>
<polygon fill="none" stroke="black" stroke-width="3" points="44.7,-57.1 44.7,-403.7 297.89,-403.7 297.89,-57.1 44.7,-57.1"/>
</g>
<!-- organization_role -->
<g id="node2" class="node">
<title>organization_role</title>
<polygon fill="#efefef" stroke="none" points="391.19,-909.6 391.19,-945.2 611.4,-945.2 611.4,-909.6 391.19,-909.6"/>
<polygon fill="none" stroke="black" points="391.19,-909.6 391.19,-945.2 611.4,-945.2 611.4,-909.6 391.19,-909.6"/>
<text text-anchor="start" x="403.2" y="-923" font-family="Arial Bold" font-size="18.00">organization_role</text>
<text text-anchor="start" x="530.14" y="-923" font-family="Arial" font-size="14.00">    </text>
<text text-anchor="start" x="561.26" y="-923" font-family="Arial" font-size="14.00" fill="#666666">[table]</text>
<polygon fill="none" stroke="black" points="391.19,-878.8 391.19,-909.6 611.4,-909.6 611.4,-878.8 391.19,-878.8"/>
<text text-anchor="start" x="398.19" y="-891" font-family="Arial" font-size="14.00">organization_role_id </text>
<text text-anchor="start" x="528.17" y="-891" font-family="Arial" font-size="14.00" fill="#666666">[VARCHAR]</text>
<polygon fill="none" stroke="black" points="391.19,-848 391.19,-878.8 611.4,-878.8 611.4,-848 391.19,-848"/>
<text text-anchor="start" x="398.19" y="-860.2" font-family="Arial" font-size="14.00">person_id </text>
<text text-anchor="start" x="463.57" y="-860.2" font-family="Arial" font-size="14.00" fill="#666666">[VARCHAR]</text>
<polygon fill="none" stroke="black" points="391.19,-817.2 391.19,-848 611.4,-848 611.4,-817.2 391.19,-817.2"/>
<text text-anchor="start" x="398.19" y="-829.4" font-family="Arial" font-size="14.00">organization_id </text>
<text text-anchor="start" x="497.04" y="-829.4" font-family="Arial" font-size="14.00" fill="#666666">[VARCHAR]</text>
<polygon fill="none" stroke="black" points="391.19,-786.4 391.19,-817.2 611.4,-817.2 611.4,-786.4 391.19,-786.4"/>
<text text-anchor="start" x="398.19" y="-798.6" font-family="Arial" font-size="14.00">organization_role_type_id </text>
<text text-anchor="start" x="562.42" y="-798.6" font-family="Arial" font-size="14.00" fill="#666666">[ULID]</text>
<polygon fill="none" stroke="black" points="391.19,-755.6 391.19,-786.4 611.4,-786.4 611.4,-755.6 391.19,-755.6"/>
<text text-anchor="start" x="398.19" y="-767.8" font-family="Arial" font-size="14.00">elaboration </text>
<text text-anchor="start" x="471.36" y="-767.8" font-family="Arial" font-size="14.00" fill="#666666">[TEXT]</text>
<polygon fill="none" stroke="black" points="391.19,-724.8 391.19,-755.6 611.4,-755.6 611.4,-724.8 391.19,-724.8"/>
<text text-anchor="start" x="398.19" y="-737" font-family="Arial" font-size="14.00">created_at </text>
<text text-anchor="start" x="468.24" y="-737" font-family="Arial" font-size="14.00" fill="#666666">[TIMESTAMPTZ]</text>
<polygon fill="none" stroke="black" points="391.19,-694 391.19,-724.8 611.4,-724.8 611.4,-694 391.19,-694"/>
<text text-anchor="start" x="398.19" y="-706.2" font-family="Arial" font-size="14.00">created_by </text>
<text text-anchor="start" x="471.35" y="-706.2" font-family="Arial" font-size="14.00" fill="#666666">[TEXT]</text>
<polygon fill="none" stroke="black" points="391.19,-663.2 391.19,-694 611.4,-694 611.4,-663.2 391.19,-663.2"/>
<text text-anchor="start" x="398.19" y="-675.4" font-family="Arial" font-size="14.00">updated_at </text>
<text text-anchor="start" x="472.15" y="-675.4" font-family="Arial" font-size="14.00" fill="#666666">[TIMESTAMPTZ]</text>
<polygon fill="none" stroke="black" points="391.19,-632.4 391.19,-663.2 611.4,-663.2 611.4,-632.4 391.19,-632.4"/>
<text text-anchor="start" x="398.19" y="-644.6" font-family="Arial" font-size="14.00">updated_by </text>
<text text-anchor="start" x="475.26" y="-644.6" font-family="Arial" font-size="14.00" fill="#666666">[TEXT]</text>
<polygon fill="none" stroke="black" points="391.19,-601.6 391.19,-632.4 611.4,-632.4 611.4,-601.6 391.19,-601.6"/>
<text text-anchor="start" x="398.19" y="-613.8" font-family="Arial" font-size="14.00">deleted_at </text>
<text text-anchor="start" x="467.47" y="-613.8" font-family="Arial" font-size="14.00" fill="#666666">[TIMESTAMPTZ]</text>
<polygon fill="none" stroke="black" points="391.19,-570.8 391.19,-601.6 611.4,-601.6 611.4,-570.8 391.19,-570.8"/>
<text text-anchor="start" x="398.19" y="-583" font-family="Arial" font-size="14.00">deleted_by </text>
<text text-anchor="start" x="470.58" y="-583" font-family="Arial" font-size="14.00" fill="#666666">[TEXT]</text>
<polygon fill="none" stroke="black" points="391.19,-540 391.19,-570.8 611.4,-570.8 611.4,-540 391.19,-540"/>
<text text-anchor="start" x="398.19" y="-552.2" font-family="Arial" font-size="14.00">activity_log </text>
<text text-anchor="start" x="471.34" y="-552.2" font-family="Arial" font-size="14.00" fill="#666666">[TEXT]</text>
</g>
<!-- organization_role&#45;&gt;organization_role_type -->
<g id="edge1" class="edge">
<title>organization_role:organization_role_type_id&#45;&gt;organization_role_type:organization_role_type_id</title>
<path fill="none" stroke="black" d="M379.93,-800.08C295.75,-769.83 395.93,-351.2 297.39,-351.2"/>
<polygon fill="black" stroke="black" points="380,-800.09 389.12,-806.18 385.26,-800.97 389.53,-801.69 389.53,-801.69 389.53,-801.69 385.26,-800.97 390.61,-797.31 380,-800.09"/>
</g>
<!-- party -->
<g id="node3" class="node">
<title>party</title>
<polygon fill="#efefef" stroke="none" points="404.04,-382 404.04,-417.6 598.55,-417.6 598.55,-382 404.04,-382"/>
<polygon fill="none" stroke="black" points="404.04,-382 404.04,-417.6 598.55,-417.6 598.55,-382 404.04,-382"/>
<text text-anchor="start" x="448.18" y="-395.4" font-family="Arial Bold" font-size="18.00">party</text>
<text text-anchor="start" x="485.16" y="-395.4" font-family="Arial" font-size="14.00">    </text>
<text text-anchor="start" x="516.28" y="-395.4" font-family="Arial" font-size="14.00" fill="#666666">[table]</text>
<polygon fill="none" stroke="black" points="404.04,-351.2 404.04,-382 598.55,-382 598.55,-351.2 404.04,-351.2"/>
<text text-anchor="start" x="411.04" y="-363.4" font-family="Arial" font-size="14.00">party_id </text>
<text text-anchor="start" x="464.74" y="-363.4" font-family="Arial" font-size="14.00" fill="#666666">[VARCHAR]</text>
<polygon fill="none" stroke="black" points="404.04,-320.4 404.04,-351.2 598.55,-351.2 598.55,-320.4 404.04,-320.4"/>
<text text-anchor="start" x="411.04" y="-332.6" font-family="Arial" font-size="14.00">party_type_id </text>
<text text-anchor="start" x="498.99" y="-332.6" font-family="Arial" font-size="14.00" fill="#666666">[ULID]</text>
<polygon fill="none" stroke="black" points="404.04,-289.6 404.04,-320.4 598.55,-320.4 598.55,-289.6 404.04,-289.6"/>
<text text-anchor="start" x="411.04" y="-301.8" font-family="Arial" font-size="14.00">party_name </text>
<text text-anchor="start" x="488.86" y="-301.8" font-family="Arial" font-size="14.00" fill="#666666">[TEXT]</text>
<polygon fill="none" stroke="black" points="404.04,-258.8 404.04,-289.6 598.55,-289.6 598.55,-258.8 404.04,-258.8"/>
<text text-anchor="start" x="411.04" y="-271" font-family="Arial" font-size="14.00">elaboration </text>
<text text-anchor="start" x="484.21" y="-271" font-family="Arial" font-size="14.00" fill="#666666">[TEXT]</text>
<polygon fill="none" stroke="black" points="404.04,-228 404.04,-258.8 598.55,-258.8 598.55,-228 404.04,-228"/>
<text text-anchor="start" x="411.04" y="-240.2" font-family="Arial" font-size="14.00">created_at </text>
<text text-anchor="start" x="481.09" y="-240.2" font-family="Arial" font-size="14.00" fill="#666666">[TIMESTAMPTZ]</text>
<polygon fill="none" stroke="black" points="404.04,-197.2 404.04,-228 598.55,-228 598.55,-197.2 404.04,-197.2"/>
<text text-anchor="start" x="411.04" y="-209.4" font-family="Arial" font-size="14.00">created_by </text>
<text text-anchor="start" x="484.2" y="-209.4" font-family="Arial" font-size="14.00" fill="#666666">[TEXT]</text>
<polygon fill="none" stroke="black" points="404.04,-166.4 404.04,-197.2 598.55,-197.2 598.55,-166.4 404.04,-166.4"/>
<text text-anchor="start" x="411.04" y="-178.6" font-family="Arial" font-size="14.00">updated_at </text>
<text text-anchor="start" x="485" y="-178.6" font-family="Arial" font-size="14.00" fill="#666666">[TIMESTAMPTZ]</text>
<polygon fill="none" stroke="black" points="404.04,-135.6 404.04,-166.4 598.55,-166.4 598.55,-135.6 404.04,-135.6"/>
<text text-anchor="start" x="411.04" y="-147.8" font-family="Arial" font-size="14.00">updated_by </text>
<text text-anchor="start" x="488.11" y="-147.8" font-family="Arial" font-size="14.00" fill="#666666">[TEXT]</text>
<polygon fill="none" stroke="black" points="404.04,-104.8 404.04,-135.6 598.55,-135.6 598.55,-104.8 404.04,-104.8"/>
<text text-anchor="start" x="411.04" y="-117" font-family="Arial" font-size="14.00">deleted_at </text>
<text text-anchor="start" x="480.32" y="-117" font-family="Arial" font-size="14.00" fill="#666666">[TIMESTAMPTZ]</text>
<polygon fill="none" stroke="black" points="404.04,-74 404.04,-104.8 598.55,-104.8 598.55,-74 404.04,-74"/>
<text text-anchor="start" x="411.04" y="-86.2" font-family="Arial" font-size="14.00">deleted_by </text>
<text text-anchor="start" x="483.43" y="-86.2" font-family="Arial" font-size="14.00" fill="#666666">[TEXT]</text>
<polygon fill="none" stroke="black" points="404.04,-43.2 404.04,-74 598.55,-74 598.55,-43.2 404.04,-43.2"/>
<text text-anchor="start" x="411.04" y="-55.4" font-family="Arial" font-size="14.00">activity_log </text>
<text text-anchor="start" x="484.19" y="-55.4" font-family="Arial" font-size="14.00" fill="#666666">[TEXT]</text>
</g>
<!-- organization_role&#45;&gt;party -->
<g id="edge2" class="edge">
<title>organization_role:person_id&#45;&gt;party:party_id</title>
<path fill="none" stroke="black" d="M621.41,-858.48C665.97,-806.89 651.54,-366.6 599.55,-366.6"/>
<polygon fill="black" stroke="black" points="621.48,-858.45 610.54,-859.29 616.79,-861 612.99,-863.08 612.99,-863.08 612.99,-863.08 616.79,-861 614.85,-867.19 621.48,-858.45"/>
</g>
<!-- organization_role&#45;&gt;party -->
<g id="edge3" class="edge">
<title>organization_role:organization_id&#45;&gt;party:party_id</title>
<path fill="none" stroke="black" d="M622.62,-831C715.01,-801.29 699.61,-366.6 599.55,-366.6"/>
<polygon fill="black" stroke="black" points="622.61,-831 612.04,-828.1 617.34,-831.83 613.06,-832.5 613.06,-832.5 613.06,-832.5 617.34,-831.83 613.43,-836.99 622.61,-831"/>
</g>
</g>
</svg>
