<?xml version="1.0" encoding="UTF-8" standalone="no"?>
<!DOCTYPE svg PUBLIC "-//W3C//DTD SVG 1.1//EN"
 "http://www.w3.org/Graphics/SVG/1.1/DTD/svg11.dtd">
<!-- Generated by graphviz version 2.40.1 (20161225.0304)
 -->
<!-- Title: organization_role_type Pages: 1 -->
<svg width="742pt" height="976pt"
 viewBox="0.00 0.00 742.05 976.00" xmlns="http://www.w3.org/2000/svg" xmlns:xlink="http://www.w3.org/1999/xlink">
<g id="graph0" class="graph" transform="scale(1 1) rotate(0) translate(4 972)">
<title>organization_role_type</title>
<polygon fill="#ffffff" stroke="transparent" points="-4,4 -4,-972 738.0456,-972 738.0456,4 -4,4"/>
<!-- organization_role_type -->
<g id="node1" class="node">
<title>organization_role_type</title>
<polygon fill="#efefef" stroke="transparent" points="46,-252.5 46,-287.5 314,-287.5 314,-252.5 46,-252.5"/>
<polygon fill="none" stroke="#000000" points="46,-252.5 46,-287.5 314,-287.5 314,-252.5 46,-252.5"/>
<text text-anchor="start" x="52.8085" y="-265.3" font-family="Arial Bold" font-size="18.00" fill="#000000">organization_role_type</text>
<text text-anchor="start" x="234.8605" y="-265.3" font-family="Arial" font-size="14.00" fill="#000000">    </text>
<text text-anchor="start" x="269.0653" y="-265.3" font-family="Arial" font-size="14.00" fill="#666666">[table]</text>
<polygon fill="none" stroke="#000000" points="46,-222.5 46,-252.5 314,-252.5 314,-222.5 46,-222.5"/>
<text text-anchor="start" x="53" y="-233.9" font-family="Arial" font-size="14.00" fill="#000000">code </text>
<text text-anchor="start" x="87.2384" y="-233.9" font-family="Arial" font-size="14.00" fill="#666666">[TEXT]</text>
<polygon fill="none" stroke="#000000" points="46,-192.5 46,-222.5 314,-222.5 314,-192.5 46,-192.5"/>
<text text-anchor="start" x="53" y="-203.9" font-family="Arial" font-size="14.00" fill="#000000">value </text>
<text text-anchor="start" x="90.345" y="-203.9" font-family="Arial" font-size="14.00" fill="#666666">[TEXT]</text>
<polygon fill="none" stroke="#000000" points="46,-162.5 46,-192.5 314,-192.5 314,-162.5 46,-162.5"/>
<text text-anchor="start" x="53" y="-173.9" font-family="Arial" font-size="14.00" fill="#000000">created_at </text>
<text text-anchor="start" x="123.028" y="-173.9" font-family="Arial" font-size="14.00" fill="#666666">[TIMESTAMPTZ]</text>
<polygon fill="none" stroke="#000000" stroke-width="3" points="44.5,-161.5 44.5,-289.5 315.5,-289.5 315.5,-161.5 44.5,-161.5"/>
</g>
<!-- organization_role -->
<g id="node2" class="node">
<title>organization_role</title>
<polygon fill="#efefef" stroke="transparent" points="407,-889.5 407,-924.5 659,-924.5 659,-889.5 407,-889.5"/>
<polygon fill="none" stroke="#000000" points="407,-889.5 407,-924.5 659,-924.5 659,-889.5 407,-889.5"/>
<text text-anchor="start" x="427.8189" y="-902.3" font-family="Arial Bold" font-size="18.00" fill="#000000">organization_role</text>
<text text-anchor="start" x="565.8501" y="-902.3" font-family="Arial" font-size="14.00" fill="#000000">    </text>
<text text-anchor="start" x="600.0549" y="-902.3" font-family="Arial" font-size="14.00" fill="#666666">[table]</text>
<polygon fill="none" stroke="#000000" points="407,-859.5 407,-889.5 659,-889.5 659,-859.5 407,-859.5"/>
<text text-anchor="start" x="414" y="-870.9" font-family="Arial" font-size="14.00" fill="#000000">organization_role_id    </text>
<text text-anchor="start" x="574.2342" y="-870.9" font-family="Arial" font-size="14.00" fill="#666666">[VARCHAR]</text>
<polygon fill="none" stroke="#000000" points="407,-829.5 407,-859.5 659,-859.5 659,-829.5 407,-829.5"/>
<text text-anchor="start" x="414" y="-840.9" font-family="Arial" font-size="14.00" fill="#000000">person_id    </text>
<text text-anchor="start" x="509.6676" y="-840.9" font-family="Arial" font-size="14.00" fill="#666666">[VARCHAR]</text>
<polygon fill="none" stroke="#000000" points="407,-799.5 407,-829.5 659,-829.5 659,-799.5 407,-799.5"/>
<text text-anchor="start" x="414" y="-810.9" font-family="Arial" font-size="14.00" fill="#000000">organization_id    </text>
<text text-anchor="start" x="543.1192" y="-810.9" font-family="Arial" font-size="14.00" fill="#666666">[VARCHAR]</text>
<polygon fill="none" stroke="#000000" points="407,-769.5 407,-799.5 659,-799.5 659,-769.5 407,-769.5"/>
<text text-anchor="start" x="413.9839" y="-780.9" font-family="Arial" font-size="14.00" fill="#000000">organization_role_type_id    </text>
<text text-anchor="start" x="608.4565" y="-780.9" font-family="Arial" font-size="14.00" fill="#666666">[TEXT]</text>
<polygon fill="none" stroke="#000000" points="407,-739.5 407,-769.5 659,-769.5 659,-739.5 407,-739.5"/>
<text text-anchor="start" x="414" y="-750.9" font-family="Arial" font-size="14.00" fill="#000000">elaboration    </text>
<text text-anchor="start" x="517.4474" y="-750.9" font-family="Arial" font-size="14.00" fill="#666666">[TEXT]</text>
<polygon fill="none" stroke="#000000" points="407,-709.5 407,-739.5 659,-739.5 659,-709.5 407,-709.5"/>
<text text-anchor="start" x="414" y="-720.9" font-family="Arial" font-size="14.00" fill="#000000">created_at    </text>
<text text-anchor="start" x="514.3422" y="-720.9" font-family="Arial" font-size="14.00" fill="#666666">[TIMESTAMPTZ]</text>
<polygon fill="none" stroke="#000000" points="407,-679.5 407,-709.5 659,-709.5 659,-679.5 407,-679.5"/>
<text text-anchor="start" x="414" y="-690.9" font-family="Arial" font-size="14.00" fill="#000000">created_by    </text>
<text text-anchor="start" x="517.4516" y="-690.9" font-family="Arial" font-size="14.00" fill="#666666">[TEXT]</text>
<polygon fill="none" stroke="#000000" points="407,-649.5 407,-679.5 659,-679.5 659,-649.5 407,-649.5"/>
<text text-anchor="start" x="414" y="-660.9" font-family="Arial" font-size="14.00" fill="#000000">updated_at    </text>
<text text-anchor="start" x="518.2468" y="-660.9" font-family="Arial" font-size="14.00" fill="#666666">[TIMESTAMPTZ]</text>
<polygon fill="none" stroke="#000000" points="407,-619.5 407,-649.5 659,-649.5 659,-619.5 407,-619.5"/>
<text text-anchor="start" x="414" y="-630.9" font-family="Arial" font-size="14.00" fill="#000000">updated_by    </text>
<text text-anchor="start" x="521.3562" y="-630.9" font-family="Arial" font-size="14.00" fill="#666666">[TEXT]</text>
<polygon fill="none" stroke="#000000" points="407,-589.5 407,-619.5 659,-619.5 659,-589.5 407,-589.5"/>
<text text-anchor="start" x="414" y="-600.9" font-family="Arial" font-size="14.00" fill="#000000">deleted_at    </text>
<text text-anchor="start" x="513.5708" y="-600.9" font-family="Arial" font-size="14.00" fill="#666666">[TIMESTAMPTZ]</text>
<polygon fill="none" stroke="#000000" points="407,-559.5 407,-589.5 659,-589.5 659,-559.5 407,-559.5"/>
<text text-anchor="start" x="414" y="-570.9" font-family="Arial" font-size="14.00" fill="#000000">deleted_by    </text>
<text text-anchor="start" x="516.6802" y="-570.9" font-family="Arial" font-size="14.00" fill="#666666">[TEXT]</text>
<polygon fill="none" stroke="#000000" points="407,-529.5 407,-559.5 659,-559.5 659,-529.5 407,-529.5"/>
<text text-anchor="start" x="414" y="-540.9" font-family="Arial" font-size="14.00" fill="#000000">activity_log    </text>
<text text-anchor="start" x="517.4362" y="-540.9" font-family="Arial" font-size="14.00" fill="#666666">[TEXT]</text>
</g>
<!-- organization_role&#45;&gt;organization_role_type -->
<g id="edge1" class="edge">
<title>organization_role:organization_role_type_id&#45;&gt;organization_role_type:code</title>
<path fill="none" stroke="#000000" d="M396.8622,-783.119C292.4624,-752.9187 433.6876,-237.5 314,-237.5"/>
<polygon fill="#000000" stroke="#000000" points="397.0915,-783.1502 406.3926,-788.9588 402.0458,-783.8251 407,-784.5 407,-784.5 407,-784.5 402.0458,-783.8251 407.6074,-780.0412 397.0915,-783.1502 397.0915,-783.1502"/>
</g>
<!-- party -->
<g id="node3" class="node">
<title>party</title>
<polygon fill="#efefef" stroke="transparent" points="421,-372.5 421,-407.5 645,-407.5 645,-372.5 421,-372.5"/>
<polygon fill="none" stroke="#000000" points="421,-372.5 421,-407.5 645,-407.5 645,-372.5 421,-372.5"/>
<text text-anchor="start" x="476.8311" y="-385.3" font-family="Arial Bold" font-size="18.00" fill="#000000">party</text>
<text text-anchor="start" x="516.8379" y="-385.3" font-family="Arial" font-size="14.00" fill="#000000">    </text>
<text text-anchor="start" x="551.0427" y="-385.3" font-family="Arial" font-size="14.00" fill="#666666">[table]</text>
<polygon fill="none" stroke="#000000" points="421,-342.5 421,-372.5 645,-372.5 645,-342.5 421,-342.5"/>
<text text-anchor="start" x="428" y="-353.9" font-family="Arial" font-size="14.00" fill="#000000">party_id    </text>
<text text-anchor="start" x="511.993" y="-353.9" font-family="Arial" font-size="14.00" fill="#666666">[VARCHAR]</text>
<polygon fill="none" stroke="#000000" points="421,-312.5 421,-342.5 645,-342.5 645,-312.5 421,-312.5"/>
<text text-anchor="start" x="428" y="-323.9" font-family="Arial" font-size="14.00" fill="#000000">party_type_id    </text>
<text text-anchor="start" x="546.2314" y="-323.9" font-family="Arial" font-size="14.00" fill="#666666">[TEXT]</text>
<polygon fill="none" stroke="#000000" points="421,-282.5 421,-312.5 645,-312.5 645,-282.5 421,-282.5"/>
<text text-anchor="start" x="428" y="-293.9" font-family="Arial" font-size="14.00" fill="#000000">party_name    </text>
<text text-anchor="start" x="536.1122" y="-293.9" font-family="Arial" font-size="14.00" fill="#666666">[TEXT]</text>
<polygon fill="none" stroke="#000000" points="421,-252.5 421,-282.5 645,-282.5 645,-252.5 421,-252.5"/>
<text text-anchor="start" x="428" y="-263.9" font-family="Arial" font-size="14.00" fill="#000000">elaboration    </text>
<text text-anchor="start" x="531.4474" y="-263.9" font-family="Arial" font-size="14.00" fill="#666666">[TEXT]</text>
<polygon fill="none" stroke="#000000" points="421,-222.5 421,-252.5 645,-252.5 645,-222.5 421,-222.5"/>
<text text-anchor="start" x="428" y="-233.9" font-family="Arial" font-size="14.00" fill="#000000">created_at    </text>
<text text-anchor="start" x="528.3422" y="-233.9" font-family="Arial" font-size="14.00" fill="#666666">[TIMESTAMPTZ]</text>
<polygon fill="none" stroke="#000000" points="421,-192.5 421,-222.5 645,-222.5 645,-192.5 421,-192.5"/>
<text text-anchor="start" x="428" y="-203.9" font-family="Arial" font-size="14.00" fill="#000000">created_by    </text>
<text text-anchor="start" x="531.4516" y="-203.9" font-family="Arial" font-size="14.00" fill="#666666">[TEXT]</text>
<polygon fill="none" stroke="#000000" points="421,-162.5 421,-192.5 645,-192.5 645,-162.5 421,-162.5"/>
<text text-anchor="start" x="427.6017" y="-173.9" font-family="Arial" font-size="14.00" fill="#000000">updated_at    </text>
<text text-anchor="start" x="531.8485" y="-173.9" font-family="Arial" font-size="14.00" fill="#666666">[TIMESTAMPTZ]</text>
<polygon fill="none" stroke="#000000" points="421,-132.5 421,-162.5 645,-162.5 645,-132.5 421,-132.5"/>
<text text-anchor="start" x="428" y="-143.9" font-family="Arial" font-size="14.00" fill="#000000">updated_by    </text>
<text text-anchor="start" x="535.3562" y="-143.9" font-family="Arial" font-size="14.00" fill="#666666">[TEXT]</text>
<polygon fill="none" stroke="#000000" points="421,-102.5 421,-132.5 645,-132.5 645,-102.5 421,-102.5"/>
<text text-anchor="start" x="428" y="-113.9" font-family="Arial" font-size="14.00" fill="#000000">deleted_at    </text>
<text text-anchor="start" x="527.5708" y="-113.9" font-family="Arial" font-size="14.00" fill="#666666">[TIMESTAMPTZ]</text>
<polygon fill="none" stroke="#000000" points="421,-72.5 421,-102.5 645,-102.5 645,-72.5 421,-72.5"/>
<text text-anchor="start" x="428" y="-83.9" font-family="Arial" font-size="14.00" fill="#000000">deleted_by    </text>
<text text-anchor="start" x="530.6802" y="-83.9" font-family="Arial" font-size="14.00" fill="#666666">[TEXT]</text>
<polygon fill="none" stroke="#000000" points="421,-42.5 421,-72.5 645,-72.5 645,-42.5 421,-42.5"/>
<text text-anchor="start" x="428" y="-53.9" font-family="Arial" font-size="14.00" fill="#000000">activity_log    </text>
<text text-anchor="start" x="531.4362" y="-53.9" font-family="Arial" font-size="14.00" fill="#666666">[TEXT]</text>
</g>
<!-- organization_role&#45;&gt;party -->
<g id="edge2" class="edge">
<title>organization_role:person_id&#45;&gt;party:party_id</title>
<path fill="none" stroke="#000000" d="M669.0872,-843.0153C766.2667,-813.6171 749.7779,-357.5 645,-357.5"/>
<polygon fill="#000000" stroke="#000000" points="668.8934,-843.0437 658.3447,-840.048 663.9467,-843.7719 659,-844.5 659,-844.5 659,-844.5 663.9467,-843.7719 659.6553,-848.952 668.8934,-843.0437 668.8934,-843.0437"/>
</g>
<!-- organization_role&#45;&gt;party -->
<g id="edge3" class="edge">
<title>organization_role:organization_id&#45;&gt;party:party_id</title>
<path fill="none" stroke="#000000" d="M669.0143,-812.9348C759.5438,-783.7937 743.1304,-357.5 645,-357.5"/>
<polygon fill="#000000" stroke="#000000" points="668.8801,-812.9557 658.3051,-810.054 663.94,-813.7279 659,-814.5 659,-814.5 659,-814.5 663.94,-813.7279 659.6949,-818.946 668.8801,-812.9557 668.8801,-812.9557"/>
</g>
</g>
</svg>
