<?xml version="1.0" encoding="UTF-8" standalone="no"?>
<!DOCTYPE svg PUBLIC "-//W3C//DTD SVG 1.1//EN"
 "http://www.w3.org/Graphics/SVG/1.1/DTD/svg11.dtd">
<!-- Generated by graphviz version 12.1.2 (20240928.0832)
 -->
<!-- Title: organization Pages: 1 -->
<svg width="1597pt" height="1678pt"
 viewBox="0.00 0.00 1597.44 1678.00" xmlns="http://www.w3.org/2000/svg" xmlns:xlink="http://www.w3.org/1999/xlink">
<g id="graph0" class="graph" transform="scale(1 1) rotate(0) translate(4 1674)">
<title>organization</title>
<polygon fill="white" stroke="none" points="-4,4 -4,-1674 1593.44,-1674 1593.44,4 -4,4"/>
<!-- organization -->
<g id="node1" class="node">
<title>organization</title>
<polygon fill="#efefef" stroke="none" points="46.2,-1545 46.2,-1580.6 240.71,-1580.6 240.71,-1545 46.2,-1545"/>
<polygon fill="none" stroke="black" points="46.2,-1545 46.2,-1580.6 240.71,-1580.6 240.71,-1545 46.2,-1545"/>
<text text-anchor="start" x="63.85" y="-1558.4" font-family="Arial Bold" font-size="18.00">organization</text>
<text text-anchor="start" x="153.81" y="-1558.4" font-family="Arial" font-size="14.00">    </text>
<text text-anchor="start" x="184.93" y="-1558.4" font-family="Arial" font-size="14.00" fill="#666666">[table]</text>
<polygon fill="none" stroke="black" points="46.2,-1514.2 46.2,-1545 240.71,-1545 240.71,-1514.2 46.2,-1514.2"/>
<text text-anchor="start" x="53.2" y="-1526.4" font-family="Arial" font-size="14.00">organization_id </text>
<text text-anchor="start" x="152.05" y="-1526.4" font-family="Arial" font-size="14.00" fill="#666666">[ULID]</text>
<polygon fill="none" stroke="black" points="46.2,-1483.4 46.2,-1514.2 240.71,-1514.2 240.71,-1483.4 46.2,-1483.4"/>
<text text-anchor="start" x="53.2" y="-1495.6" font-family="Arial" font-size="14.00">party_id </text>
<text text-anchor="start" x="106.9" y="-1495.6" font-family="Arial" font-size="14.00" fill="#666666">[VARCHAR]</text>
<polygon fill="none" stroke="black" points="46.2,-1452.6 46.2,-1483.4 240.71,-1483.4 240.71,-1452.6 46.2,-1452.6"/>
<text text-anchor="start" x="53.2" y="-1464.8" font-family="Arial" font-size="14.00">name </text>
<text text-anchor="start" x="92.11" y="-1464.8" font-family="Arial" font-size="14.00" fill="#666666">[TEXT]</text>
<polygon fill="none" stroke="black" points="46.2,-1421.8 46.2,-1452.6 240.71,-1452.6 240.71,-1421.8 46.2,-1421.8"/>
<text text-anchor="start" x="53.2" y="-1434" font-family="Arial" font-size="14.00">alias </text>
<text text-anchor="start" x="85.88" y="-1434" font-family="Arial" font-size="14.00" fill="#666666">[TEXT]</text>
<polygon fill="none" stroke="black" points="46.2,-1391 46.2,-1421.8 240.71,-1421.8 240.71,-1391 46.2,-1391"/>
<text text-anchor="start" x="53.2" y="-1403.2" font-family="Arial" font-size="14.00">description </text>
<text text-anchor="start" x="124.79" y="-1403.2" font-family="Arial" font-size="14.00" fill="#666666">[TEXT]</text>
<polygon fill="none" stroke="black" points="46.2,-1360.2 46.2,-1391 240.71,-1391 240.71,-1360.2 46.2,-1360.2"/>
<text text-anchor="start" x="53.2" y="-1372.4" font-family="Arial" font-size="14.00">license </text>
<text text-anchor="start" x="100.67" y="-1372.4" font-family="Arial" font-size="14.00" fill="#666666">[TEXT]</text>
<polygon fill="none" stroke="black" points="46.2,-1329.4 46.2,-1360.2 240.71,-1360.2 240.71,-1329.4 46.2,-1329.4"/>
<text text-anchor="start" x="53.2" y="-1341.6" font-family="Arial" font-size="14.00">federal_tax_id_num </text>
<text text-anchor="start" x="180.06" y="-1341.6" font-family="Arial" font-size="14.00" fill="#666666">[TEXT]</text>
<polygon fill="none" stroke="black" points="46.2,-1298.6 46.2,-1329.4 240.71,-1329.4 240.71,-1298.6 46.2,-1298.6"/>
<text text-anchor="start" x="53.2" y="-1310.8" font-family="Arial" font-size="14.00">registration_date </text>
<text text-anchor="start" x="161.38" y="-1310.8" font-family="Arial" font-size="14.00" fill="#666666">[DATE]</text>
<polygon fill="none" stroke="black" points="46.2,-1267.8 46.2,-1298.6 240.71,-1298.6 240.71,-1267.8 46.2,-1267.8"/>
<text text-anchor="start" x="53.2" y="-1280" font-family="Arial" font-size="14.00">elaboration </text>
<text text-anchor="start" x="126.37" y="-1280" font-family="Arial" font-size="14.00" fill="#666666">[TEXT]</text>
<polygon fill="none" stroke="black" points="46.2,-1237 46.2,-1267.8 240.71,-1267.8 240.71,-1237 46.2,-1237"/>
<text text-anchor="start" x="53.2" y="-1249.2" font-family="Arial" font-size="14.00">created_at </text>
<text text-anchor="start" x="123.25" y="-1249.2" font-family="Arial" font-size="14.00" fill="#666666">[TIMESTAMPTZ]</text>
<polygon fill="none" stroke="black" points="46.2,-1206.2 46.2,-1237 240.71,-1237 240.71,-1206.2 46.2,-1206.2"/>
<text text-anchor="start" x="53.2" y="-1218.4" font-family="Arial" font-size="14.00">created_by </text>
<text text-anchor="start" x="126.36" y="-1218.4" font-family="Arial" font-size="14.00" fill="#666666">[TEXT]</text>
<polygon fill="none" stroke="black" points="46.2,-1175.4 46.2,-1206.2 240.71,-1206.2 240.71,-1175.4 46.2,-1175.4"/>
<text text-anchor="start" x="53.2" y="-1187.6" font-family="Arial" font-size="14.00">updated_at </text>
<text text-anchor="start" x="127.16" y="-1187.6" font-family="Arial" font-size="14.00" fill="#666666">[TIMESTAMPTZ]</text>
<polygon fill="none" stroke="black" points="46.2,-1144.6 46.2,-1175.4 240.71,-1175.4 240.71,-1144.6 46.2,-1144.6"/>
<text text-anchor="start" x="53.2" y="-1156.8" font-family="Arial" font-size="14.00">updated_by </text>
<text text-anchor="start" x="130.27" y="-1156.8" font-family="Arial" font-size="14.00" fill="#666666">[TEXT]</text>
<polygon fill="none" stroke="black" points="46.2,-1113.8 46.2,-1144.6 240.71,-1144.6 240.71,-1113.8 46.2,-1113.8"/>
<text text-anchor="start" x="53.2" y="-1126" font-family="Arial" font-size="14.00">deleted_at </text>
<text text-anchor="start" x="122.48" y="-1126" font-family="Arial" font-size="14.00" fill="#666666">[TIMESTAMPTZ]</text>
<polygon fill="none" stroke="black" points="46.2,-1083 46.2,-1113.8 240.71,-1113.8 240.71,-1083 46.2,-1083"/>
<text text-anchor="start" x="53.2" y="-1095.2" font-family="Arial" font-size="14.00">deleted_by </text>
<text text-anchor="start" x="125.59" y="-1095.2" font-family="Arial" font-size="14.00" fill="#666666">[TEXT]</text>
<polygon fill="none" stroke="black" points="46.2,-1052.2 46.2,-1083 240.71,-1083 240.71,-1052.2 46.2,-1052.2"/>
<text text-anchor="start" x="53.2" y="-1064.4" font-family="Arial" font-size="14.00">activity_log </text>
<text text-anchor="start" x="126.34" y="-1064.4" font-family="Arial" font-size="14.00" fill="#666666">[TEXT]</text>
<polygon fill="none" stroke="black" stroke-width="3" points="44.7,-1050.7 44.7,-1582.1 242.21,-1582.1 242.21,-1050.7 44.7,-1050.7"/>
</g>
<!-- party -->
<g id="node2" class="node">
<title>party</title>
<polygon fill="#efefef" stroke="none" points="650.2,-848 650.2,-883.6 844.71,-883.6 844.71,-848 650.2,-848"/>
<polygon fill="none" stroke="black" points="650.2,-848 650.2,-883.6 844.71,-883.6 844.71,-848 650.2,-848"/>
<text text-anchor="start" x="694.34" y="-861.4" font-family="Arial Bold" font-size="18.00">party</text>
<text text-anchor="start" x="731.32" y="-861.4" font-family="Arial" font-size="14.00">    </text>
<text text-anchor="start" x="762.44" y="-861.4" font-family="Arial" font-size="14.00" fill="#666666">[table]</text>
<polygon fill="none" stroke="black" points="650.2,-817.2 650.2,-848 844.71,-848 844.71,-817.2 650.2,-817.2"/>
<text text-anchor="start" x="657.2" y="-829.4" font-family="Arial" font-size="14.00">party_id </text>
<text text-anchor="start" x="710.9" y="-829.4" font-family="Arial" font-size="14.00" fill="#666666">[VARCHAR]</text>
<polygon fill="none" stroke="black" points="650.2,-786.4 650.2,-817.2 844.71,-817.2 844.71,-786.4 650.2,-786.4"/>
<text text-anchor="start" x="657.2" y="-798.6" font-family="Arial" font-size="14.00">party_type_id </text>
<text text-anchor="start" x="745.14" y="-798.6" font-family="Arial" font-size="14.00" fill="#666666">[ULID]</text>
<polygon fill="none" stroke="black" points="650.2,-755.6 650.2,-786.4 844.71,-786.4 844.71,-755.6 650.2,-755.6"/>
<text text-anchor="start" x="657.2" y="-767.8" font-family="Arial" font-size="14.00">party_name </text>
<text text-anchor="start" x="735.02" y="-767.8" font-family="Arial" font-size="14.00" fill="#666666">[TEXT]</text>
<polygon fill="none" stroke="black" points="650.2,-724.8 650.2,-755.6 844.71,-755.6 844.71,-724.8 650.2,-724.8"/>
<text text-anchor="start" x="657.2" y="-737" font-family="Arial" font-size="14.00">elaboration </text>
<text text-anchor="start" x="730.37" y="-737" font-family="Arial" font-size="14.00" fill="#666666">[TEXT]</text>
<polygon fill="none" stroke="black" points="650.2,-694 650.2,-724.8 844.71,-724.8 844.71,-694 650.2,-694"/>
<text text-anchor="start" x="657.2" y="-706.2" font-family="Arial" font-size="14.00">created_at </text>
<text text-anchor="start" x="727.25" y="-706.2" font-family="Arial" font-size="14.00" fill="#666666">[TIMESTAMPTZ]</text>
<polygon fill="none" stroke="black" points="650.2,-663.2 650.2,-694 844.71,-694 844.71,-663.2 650.2,-663.2"/>
<text text-anchor="start" x="657.2" y="-675.4" font-family="Arial" font-size="14.00">created_by </text>
<text text-anchor="start" x="730.36" y="-675.4" font-family="Arial" font-size="14.00" fill="#666666">[TEXT]</text>
<polygon fill="none" stroke="black" points="650.2,-632.4 650.2,-663.2 844.71,-663.2 844.71,-632.4 650.2,-632.4"/>
<text text-anchor="start" x="657.2" y="-644.6" font-family="Arial" font-size="14.00">updated_at </text>
<text text-anchor="start" x="731.16" y="-644.6" font-family="Arial" font-size="14.00" fill="#666666">[TIMESTAMPTZ]</text>
<polygon fill="none" stroke="black" points="650.2,-601.6 650.2,-632.4 844.71,-632.4 844.71,-601.6 650.2,-601.6"/>
<text text-anchor="start" x="657.2" y="-613.8" font-family="Arial" font-size="14.00">updated_by </text>
<text text-anchor="start" x="734.27" y="-613.8" font-family="Arial" font-size="14.00" fill="#666666">[TEXT]</text>
<polygon fill="none" stroke="black" points="650.2,-570.8 650.2,-601.6 844.71,-601.6 844.71,-570.8 650.2,-570.8"/>
<text text-anchor="start" x="657.2" y="-583" font-family="Arial" font-size="14.00">deleted_at </text>
<text text-anchor="start" x="726.48" y="-583" font-family="Arial" font-size="14.00" fill="#666666">[TIMESTAMPTZ]</text>
<polygon fill="none" stroke="black" points="650.2,-540 650.2,-570.8 844.71,-570.8 844.71,-540 650.2,-540"/>
<text text-anchor="start" x="657.2" y="-552.2" font-family="Arial" font-size="14.00">deleted_by </text>
<text text-anchor="start" x="729.59" y="-552.2" font-family="Arial" font-size="14.00" fill="#666666">[TEXT]</text>
<polygon fill="none" stroke="black" points="650.2,-509.2 650.2,-540 844.71,-540 844.71,-509.2 650.2,-509.2"/>
<text text-anchor="start" x="657.2" y="-521.4" font-family="Arial" font-size="14.00">activity_log </text>
<text text-anchor="start" x="730.34" y="-521.4" font-family="Arial" font-size="14.00" fill="#666666">[TEXT]</text>
</g>
<!-- organization&#45;&gt;party -->
<g id="edge1" class="edge">
<title>organization:party_id&#45;&gt;party:party_id</title>
<path fill="none" stroke="black" d="M251.88,-1497.61C353.18,-1472.39 224.37,-1054.57 295.45,-962.8 346.75,-896.58 565.43,-832.6 649.2,-832.6"/>
<polygon fill="black" stroke="black" points="251.97,-1497.6 241.52,-1494.29 246.68,-1498.22 242.37,-1498.72 242.37,-1498.72 242.37,-1498.72 246.68,-1498.22 242.57,-1503.23 251.97,-1497.6"/>
</g>
<!-- party_type -->
<g id="node7" class="node">
<title>party_type</title>
<polygon fill="#efefef" stroke="none" points="650.2,-351.2 650.2,-386.8 844.71,-386.8 844.71,-351.2 650.2,-351.2"/>
<polygon fill="none" stroke="black" points="650.2,-351.2 650.2,-386.8 844.71,-386.8 844.71,-351.2 650.2,-351.2"/>
<text text-anchor="start" x="674.34" y="-364.6" font-family="Arial Bold" font-size="18.00">party_type</text>
<text text-anchor="start" x="751.31" y="-364.6" font-family="Arial" font-size="14.00">    </text>
<text text-anchor="start" x="782.43" y="-364.6" font-family="Arial" font-size="14.00" fill="#666666">[table]</text>
<polygon fill="none" stroke="black" points="650.2,-320.4 650.2,-351.2 844.71,-351.2 844.71,-320.4 650.2,-320.4"/>
<text text-anchor="start" x="657.2" y="-332.6" font-family="Arial" font-size="14.00">party_type_id </text>
<text text-anchor="start" x="745.14" y="-332.6" font-family="Arial" font-size="14.00" fill="#666666">[ULID]</text>
<polygon fill="none" stroke="black" points="650.2,-289.6 650.2,-320.4 844.71,-320.4 844.71,-289.6 650.2,-289.6"/>
<text text-anchor="start" x="657.2" y="-301.8" font-family="Arial" font-size="14.00">code </text>
<text text-anchor="start" x="691.45" y="-301.8" font-family="Arial" font-size="14.00" fill="#666666">[TEXT]</text>
<polygon fill="none" stroke="black" points="650.2,-258.8 650.2,-289.6 844.71,-289.6 844.71,-258.8 650.2,-258.8"/>
<text text-anchor="start" x="657.2" y="-271" font-family="Arial" font-size="14.00">value </text>
<text text-anchor="start" x="694.56" y="-271" font-family="Arial" font-size="14.00" fill="#666666">[TEXT]</text>
<polygon fill="none" stroke="black" points="650.2,-228 650.2,-258.8 844.71,-258.8 844.71,-228 650.2,-228"/>
<text text-anchor="start" x="657.2" y="-240.2" font-family="Arial" font-size="14.00">created_at </text>
<text text-anchor="start" x="727.25" y="-240.2" font-family="Arial" font-size="14.00" fill="#666666">[TIMESTAMPTZ]</text>
<polygon fill="none" stroke="black" points="650.2,-197.2 650.2,-228 844.71,-228 844.71,-197.2 650.2,-197.2"/>
<text text-anchor="start" x="657.2" y="-209.4" font-family="Arial" font-size="14.00">created_by </text>
<text text-anchor="start" x="730.36" y="-209.4" font-family="Arial" font-size="14.00" fill="#666666">[TEXT]</text>
<polygon fill="none" stroke="black" points="650.2,-166.4 650.2,-197.2 844.71,-197.2 844.71,-166.4 650.2,-166.4"/>
<text text-anchor="start" x="657.2" y="-178.6" font-family="Arial" font-size="14.00">updated_at </text>
<text text-anchor="start" x="731.16" y="-178.6" font-family="Arial" font-size="14.00" fill="#666666">[TIMESTAMPTZ]</text>
<polygon fill="none" stroke="black" points="650.2,-135.6 650.2,-166.4 844.71,-166.4 844.71,-135.6 650.2,-135.6"/>
<text text-anchor="start" x="657.2" y="-147.8" font-family="Arial" font-size="14.00">updated_by </text>
<text text-anchor="start" x="734.27" y="-147.8" font-family="Arial" font-size="14.00" fill="#666666">[TEXT]</text>
<polygon fill="none" stroke="black" points="650.2,-104.8 650.2,-135.6 844.71,-135.6 844.71,-104.8 650.2,-104.8"/>
<text text-anchor="start" x="657.2" y="-117" font-family="Arial" font-size="14.00">deleted_at </text>
<text text-anchor="start" x="726.48" y="-117" font-family="Arial" font-size="14.00" fill="#666666">[TIMESTAMPTZ]</text>
<polygon fill="none" stroke="black" points="650.2,-74 650.2,-104.8 844.71,-104.8 844.71,-74 650.2,-74"/>
<text text-anchor="start" x="657.2" y="-86.2" font-family="Arial" font-size="14.00">deleted_by </text>
<text text-anchor="start" x="729.59" y="-86.2" font-family="Arial" font-size="14.00" fill="#666666">[TEXT]</text>
<polygon fill="none" stroke="black" points="650.2,-43.2 650.2,-74 844.71,-74 844.71,-43.2 650.2,-43.2"/>
<text text-anchor="start" x="657.2" y="-55.4" font-family="Arial" font-size="14.00">activity_log </text>
<text text-anchor="start" x="730.34" y="-55.4" font-family="Arial" font-size="14.00" fill="#666666">[TEXT]</text>
</g>
<!-- party&#45;&gt;party_type -->
<g id="edge8" class="edge">
<title>party:party_type_id&#45;&gt;party_type:party_type_id</title>
<path fill="none" stroke="black" d="M855.85,-801.42C1052.76,-786.46 1049.38,-335.8 845.71,-335.8"/>
<polygon fill="black" stroke="black" points="856.04,-801.41 845.88,-797.29 850.71,-801.61 846.38,-801.77 846.38,-801.77 846.38,-801.77 850.71,-801.61 846.21,-806.28 856.04,-801.41"/>
</g>
<!-- party_relation -->
<g id="node3" class="node">
<title>party_relation</title>
<polygon fill="#efefef" stroke="none" points="347.64,-1483.4 347.64,-1519 545.27,-1519 545.27,-1483.4 347.64,-1483.4"/>
<polygon fill="none" stroke="black" points="347.64,-1483.4 347.64,-1519 545.27,-1519 545.27,-1483.4 347.64,-1483.4"/>
<text text-anchor="start" x="361.35" y="-1496.8" font-family="Arial Bold" font-size="18.00">party_relation</text>
<text text-anchor="start" x="462.31" y="-1496.8" font-family="Arial" font-size="14.00">    </text>
<text text-anchor="start" x="493.42" y="-1496.8" font-family="Arial" font-size="14.00" fill="#666666">[table]</text>
<polygon fill="none" stroke="black" points="347.64,-1452.6 347.64,-1483.4 545.27,-1483.4 545.27,-1452.6 347.64,-1452.6"/>
<text text-anchor="start" x="354.64" y="-1464.8" font-family="Arial" font-size="14.00">party_relation_id </text>
<text text-anchor="start" x="462.04" y="-1464.8" font-family="Arial" font-size="14.00" fill="#666666">[VARCHAR]</text>
<polygon fill="none" stroke="black" points="347.64,-1421.8 347.64,-1452.6 545.27,-1452.6 545.27,-1421.8 347.64,-1421.8"/>
<text text-anchor="start" x="354.64" y="-1434" font-family="Arial" font-size="14.00">party_id </text>
<text text-anchor="start" x="408.33" y="-1434" font-family="Arial" font-size="14.00" fill="#666666">[VARCHAR]</text>
<polygon fill="none" stroke="black" points="347.64,-1391 347.64,-1421.8 545.27,-1421.8 545.27,-1391 347.64,-1391"/>
<text text-anchor="start" x="354.64" y="-1403.2" font-family="Arial" font-size="14.00">related_party_id </text>
<text text-anchor="start" x="458.93" y="-1403.2" font-family="Arial" font-size="14.00" fill="#666666">[VARCHAR]</text>
<polygon fill="none" stroke="black" points="347.64,-1360.2 347.64,-1391 545.27,-1391 545.27,-1360.2 347.64,-1360.2"/>
<text text-anchor="start" x="354.64" y="-1372.4" font-family="Arial" font-size="14.00">relation_type_id </text>
<text text-anchor="start" x="457.38" y="-1372.4" font-family="Arial" font-size="14.00" fill="#666666">[ULID]</text>
<polygon fill="none" stroke="black" points="347.64,-1329.4 347.64,-1360.2 545.27,-1360.2 545.27,-1329.4 347.64,-1329.4"/>
<text text-anchor="start" x="354.64" y="-1341.6" font-family="Arial" font-size="14.00">elaboration </text>
<text text-anchor="start" x="427.8" y="-1341.6" font-family="Arial" font-size="14.00" fill="#666666">[TEXT]</text>
<polygon fill="none" stroke="black" points="347.64,-1298.6 347.64,-1329.4 545.27,-1329.4 545.27,-1298.6 347.64,-1298.6"/>
<text text-anchor="start" x="354.64" y="-1310.8" font-family="Arial" font-size="14.00">created_at </text>
<text text-anchor="start" x="424.69" y="-1310.8" font-family="Arial" font-size="14.00" fill="#666666">[TIMESTAMPTZ]</text>
<polygon fill="none" stroke="black" points="347.64,-1267.8 347.64,-1298.6 545.27,-1298.6 545.27,-1267.8 347.64,-1267.8"/>
<text text-anchor="start" x="354.64" y="-1280" font-family="Arial" font-size="14.00">created_by </text>
<text text-anchor="start" x="427.8" y="-1280" font-family="Arial" font-size="14.00" fill="#666666">[TEXT]</text>
<polygon fill="none" stroke="black" points="347.64,-1237 347.64,-1267.8 545.27,-1267.8 545.27,-1237 347.64,-1237"/>
<text text-anchor="start" x="354.64" y="-1249.2" font-family="Arial" font-size="14.00">updated_at </text>
<text text-anchor="start" x="428.6" y="-1249.2" font-family="Arial" font-size="14.00" fill="#666666">[TIMESTAMPTZ]</text>
<polygon fill="none" stroke="black" points="347.64,-1206.2 347.64,-1237 545.27,-1237 545.27,-1206.2 347.64,-1206.2"/>
<text text-anchor="start" x="354.64" y="-1218.4" font-family="Arial" font-size="14.00">updated_by </text>
<text text-anchor="start" x="431.71" y="-1218.4" font-family="Arial" font-size="14.00" fill="#666666">[TEXT]</text>
<polygon fill="none" stroke="black" points="347.64,-1175.4 347.64,-1206.2 545.27,-1206.2 545.27,-1175.4 347.64,-1175.4"/>
<text text-anchor="start" x="354.64" y="-1187.6" font-family="Arial" font-size="14.00">deleted_at </text>
<text text-anchor="start" x="423.92" y="-1187.6" font-family="Arial" font-size="14.00" fill="#666666">[TIMESTAMPTZ]</text>
<polygon fill="none" stroke="black" points="347.64,-1144.6 347.64,-1175.4 545.27,-1175.4 545.27,-1144.6 347.64,-1144.6"/>
<text text-anchor="start" x="354.64" y="-1156.8" font-family="Arial" font-size="14.00">deleted_by </text>
<text text-anchor="start" x="427.03" y="-1156.8" font-family="Arial" font-size="14.00" fill="#666666">[TEXT]</text>
<polygon fill="none" stroke="black" points="347.64,-1113.8 347.64,-1144.6 545.27,-1144.6 545.27,-1113.8 347.64,-1113.8"/>
<text text-anchor="start" x="354.64" y="-1126" font-family="Arial" font-size="14.00">activity_log </text>
<text text-anchor="start" x="427.78" y="-1126" font-family="Arial" font-size="14.00" fill="#666666">[TEXT]</text>
</g>
<!-- party_relation&#45;&gt;party -->
<g id="edge2" class="edge">
<title>party_relation:related_party_id&#45;&gt;party:party_id</title>
<path fill="none" stroke="black" d="M555.38,-1401.39C594.59,-1355.41 586.15,-1007.72 597.45,-962.8 612.65,-902.41 586.93,-832.6 649.2,-832.6"/>
<polygon fill="black" stroke="black" points="555.33,-1401.42 544.4,-1402.3 550.65,-1403.99 546.86,-1406.08 546.86,-1406.08 546.86,-1406.08 550.65,-1403.99 548.73,-1410.18 555.33,-1401.42"/>
</g>
<!-- party_relation&#45;&gt;party -->
<g id="edge3" class="edge">
<title>party_relation:party_id&#45;&gt;party:party_id</title>
<path fill="none" stroke="black" d="M555.44,-1432.44C597.57,-1385.78 585.5,-1011.04 597.45,-962.8 612.43,-902.36 586.93,-832.6 649.2,-832.6"/>
<polygon fill="black" stroke="black" points="555.44,-1432.44 544.49,-1433.05 550.71,-1434.9 546.87,-1436.89 546.87,-1436.89 546.87,-1436.89 550.71,-1434.9 548.64,-1441.04 555.44,-1432.44"/>
</g>
<!-- person -->
<g id="node4" class="node">
<title>person</title>
<polygon fill="#efefef" stroke="none" points="649.41,-1591.2 649.41,-1626.8 845.5,-1626.8 845.5,-1591.2 649.41,-1591.2"/>
<polygon fill="none" stroke="black" points="649.41,-1591.2 649.41,-1626.8 845.5,-1626.8 845.5,-1591.2 649.41,-1591.2"/>
<text text-anchor="start" x="688.83" y="-1604.6" font-family="Arial Bold" font-size="18.00">person</text>
<text text-anchor="start" x="736.82" y="-1604.6" font-family="Arial" font-size="14.00">    </text>
<text text-anchor="start" x="767.94" y="-1604.6" font-family="Arial" font-size="14.00" fill="#666666">[table]</text>
<polygon fill="none" stroke="black" points="649.41,-1560.4 649.41,-1591.2 845.5,-1591.2 845.5,-1560.4 649.41,-1560.4"/>
<text text-anchor="start" x="656.41" y="-1572.6" font-family="Arial" font-size="14.00">person_id </text>
<text text-anchor="start" x="721.79" y="-1572.6" font-family="Arial" font-size="14.00" fill="#666666">[ULID]</text>
<polygon fill="none" stroke="black" points="649.41,-1529.6 649.41,-1560.4 845.5,-1560.4 845.5,-1529.6 649.41,-1529.6"/>
<text text-anchor="start" x="656.41" y="-1541.8" font-family="Arial" font-size="14.00">party_id </text>
<text text-anchor="start" x="710.11" y="-1541.8" font-family="Arial" font-size="14.00" fill="#666666">[VARCHAR]</text>
<polygon fill="none" stroke="black" points="649.41,-1498.8 649.41,-1529.6 845.5,-1529.6 845.5,-1498.8 649.41,-1498.8"/>
<text text-anchor="start" x="656.41" y="-1511" font-family="Arial" font-size="14.00">person_type_id </text>
<text text-anchor="start" x="756.04" y="-1511" font-family="Arial" font-size="14.00" fill="#666666">[ULID]</text>
<polygon fill="none" stroke="black" points="649.41,-1468 649.41,-1498.8 845.5,-1498.8 845.5,-1468 649.41,-1468"/>
<text text-anchor="start" x="656.41" y="-1480.2" font-family="Arial" font-size="14.00">person_first_name </text>
<text text-anchor="start" x="776.25" y="-1480.2" font-family="Arial" font-size="14.00" fill="#666666">[TEXT]</text>
<polygon fill="none" stroke="black" points="649.41,-1437.2 649.41,-1468 845.5,-1468 845.5,-1437.2 649.41,-1437.2"/>
<text text-anchor="start" x="656.41" y="-1449.4" font-family="Arial" font-size="14.00">person_middle_name </text>
<text text-anchor="start" x="794.94" y="-1449.4" font-family="Arial" font-size="14.00" fill="#666666">[TEXT]</text>
<polygon fill="none" stroke="black" points="649.41,-1406.4 649.41,-1437.2 845.5,-1437.2 845.5,-1406.4 649.41,-1406.4"/>
<text text-anchor="start" x="656.41" y="-1418.6" font-family="Arial" font-size="14.00">person_last_name </text>
<text text-anchor="start" x="775.49" y="-1418.6" font-family="Arial" font-size="14.00" fill="#666666">[TEXT]</text>
<polygon fill="none" stroke="black" points="649.41,-1375.6 649.41,-1406.4 845.5,-1406.4 845.5,-1375.6 649.41,-1375.6"/>
<text text-anchor="start" x="656.41" y="-1387.8" font-family="Arial" font-size="14.00">previous_name </text>
<text text-anchor="start" x="756.02" y="-1387.8" font-family="Arial" font-size="14.00" fill="#666666">[TEXT]</text>
<polygon fill="none" stroke="black" points="649.41,-1344.8 649.41,-1375.6 845.5,-1375.6 845.5,-1344.8 649.41,-1344.8"/>
<text text-anchor="start" x="656.41" y="-1357" font-family="Arial" font-size="14.00">honorific_prefix </text>
<text text-anchor="start" x="755.24" y="-1357" font-family="Arial" font-size="14.00" fill="#666666">[TEXT]</text>
<polygon fill="none" stroke="black" points="649.41,-1314 649.41,-1344.8 845.5,-1344.8 845.5,-1314 649.41,-1314"/>
<text text-anchor="start" x="656.41" y="-1326.2" font-family="Arial" font-size="14.00">honorific_suffix </text>
<text text-anchor="start" x="753.68" y="-1326.2" font-family="Arial" font-size="14.00" fill="#666666">[TEXT]</text>
<polygon fill="none" stroke="black" points="649.41,-1283.2 649.41,-1314 845.5,-1314 845.5,-1283.2 649.41,-1283.2"/>
<text text-anchor="start" x="656.41" y="-1295.4" font-family="Arial" font-size="14.00">gender_id </text>
<text text-anchor="start" x="722.58" y="-1295.4" font-family="Arial" font-size="14.00" fill="#666666">[ULID]</text>
<polygon fill="none" stroke="black" points="649.41,-1252.4 649.41,-1283.2 845.5,-1283.2 845.5,-1252.4 649.41,-1252.4"/>
<text text-anchor="start" x="656.41" y="-1264.6" font-family="Arial" font-size="14.00">sex_id </text>
<text text-anchor="start" x="700.77" y="-1264.6" font-family="Arial" font-size="14.00" fill="#666666">[ULID]</text>
<polygon fill="none" stroke="black" points="649.41,-1221.6 649.41,-1252.4 845.5,-1252.4 845.5,-1221.6 649.41,-1221.6"/>
<text text-anchor="start" x="656.41" y="-1233.8" font-family="Arial" font-size="14.00">elaboration </text>
<text text-anchor="start" x="729.58" y="-1233.8" font-family="Arial" font-size="14.00" fill="#666666">[TEXT]</text>
<polygon fill="none" stroke="black" points="649.41,-1190.8 649.41,-1221.6 845.5,-1221.6 845.5,-1190.8 649.41,-1190.8"/>
<text text-anchor="start" x="656.41" y="-1203" font-family="Arial" font-size="14.00">created_at </text>
<text text-anchor="start" x="726.46" y="-1203" font-family="Arial" font-size="14.00" fill="#666666">[TIMESTAMPTZ]</text>
<polygon fill="none" stroke="black" points="649.41,-1160 649.41,-1190.8 845.5,-1190.8 845.5,-1160 649.41,-1160"/>
<text text-anchor="start" x="656.41" y="-1172.2" font-family="Arial" font-size="14.00">created_by </text>
<text text-anchor="start" x="729.57" y="-1172.2" font-family="Arial" font-size="14.00" fill="#666666">[TEXT]</text>
<polygon fill="none" stroke="black" points="649.41,-1129.2 649.41,-1160 845.5,-1160 845.5,-1129.2 649.41,-1129.2"/>
<text text-anchor="start" x="656.41" y="-1141.4" font-family="Arial" font-size="14.00">updated_at </text>
<text text-anchor="start" x="730.37" y="-1141.4" font-family="Arial" font-size="14.00" fill="#666666">[TIMESTAMPTZ]</text>
<polygon fill="none" stroke="black" points="649.41,-1098.4 649.41,-1129.2 845.5,-1129.2 845.5,-1098.4 649.41,-1098.4"/>
<text text-anchor="start" x="656.41" y="-1110.6" font-family="Arial" font-size="14.00">updated_by </text>
<text text-anchor="start" x="733.48" y="-1110.6" font-family="Arial" font-size="14.00" fill="#666666">[TEXT]</text>
<polygon fill="none" stroke="black" points="649.41,-1067.6 649.41,-1098.4 845.5,-1098.4 845.5,-1067.6 649.41,-1067.6"/>
<text text-anchor="start" x="656.41" y="-1079.8" font-family="Arial" font-size="14.00">deleted_at </text>
<text text-anchor="start" x="725.69" y="-1079.8" font-family="Arial" font-size="14.00" fill="#666666">[TIMESTAMPTZ]</text>
<polygon fill="none" stroke="black" points="649.41,-1036.8 649.41,-1067.6 845.5,-1067.6 845.5,-1036.8 649.41,-1036.8"/>
<text text-anchor="start" x="656.41" y="-1049" font-family="Arial" font-size="14.00">deleted_by </text>
<text text-anchor="start" x="728.8" y="-1049" font-family="Arial" font-size="14.00" fill="#666666">[TEXT]</text>
<polygon fill="none" stroke="black" points="649.41,-1006 649.41,-1036.8 845.5,-1036.8 845.5,-1006 649.41,-1006"/>
<text text-anchor="start" x="656.41" y="-1018.2" font-family="Arial" font-size="14.00">activity_log </text>
<text text-anchor="start" x="729.55" y="-1018.2" font-family="Arial" font-size="14.00" fill="#666666">[TEXT]</text>
</g>
<!-- person&#45;&gt;party -->
<g id="edge4" class="edge">
<title>person:party_id&#45;&gt;party:party_id</title>
<path fill="none" stroke="black" d="M853.24,-1537.48C885.84,-1461.34 882.89,-832.6 845.71,-832.6"/>
<polygon fill="black" stroke="black" points="853.4,-1537.31 843.37,-1541.75 849.84,-1541.28 846.95,-1544.5 846.95,-1544.5 846.95,-1544.5 849.84,-1541.28 850.07,-1547.76 853.4,-1537.31"/>
</g>
<!-- organization_role -->
<g id="node5" class="node">
<title>organization_role</title>
<polygon fill="#efefef" stroke="none" points="950.35,-1483.4 950.35,-1519 1170.56,-1519 1170.56,-1483.4 950.35,-1483.4"/>
<polygon fill="none" stroke="black" points="950.35,-1483.4 950.35,-1519 1170.56,-1519 1170.56,-1483.4 950.35,-1483.4"/>
<text text-anchor="start" x="962.35" y="-1496.8" font-family="Arial Bold" font-size="18.00">organization_role</text>
<text text-anchor="start" x="1089.3" y="-1496.8" font-family="Arial" font-size="14.00">    </text>
<text text-anchor="start" x="1120.42" y="-1496.8" font-family="Arial" font-size="14.00" fill="#666666">[table]</text>
<polygon fill="none" stroke="black" points="950.35,-1452.6 950.35,-1483.4 1170.56,-1483.4 1170.56,-1452.6 950.35,-1452.6"/>
<text text-anchor="start" x="957.35" y="-1464.8" font-family="Arial" font-size="14.00">organization_role_id </text>
<text text-anchor="start" x="1087.33" y="-1464.8" font-family="Arial" font-size="14.00" fill="#666666">[VARCHAR]</text>
<polygon fill="none" stroke="black" points="950.35,-1421.8 950.35,-1452.6 1170.56,-1452.6 1170.56,-1421.8 950.35,-1421.8"/>
<text text-anchor="start" x="957.35" y="-1434" font-family="Arial" font-size="14.00">person_id </text>
<text text-anchor="start" x="1022.73" y="-1434" font-family="Arial" font-size="14.00" fill="#666666">[VARCHAR]</text>
<polygon fill="none" stroke="black" points="950.35,-1391 950.35,-1421.8 1170.56,-1421.8 1170.56,-1391 950.35,-1391"/>
<text text-anchor="start" x="957.35" y="-1403.2" font-family="Arial" font-size="14.00">organization_id </text>
<text text-anchor="start" x="1056.2" y="-1403.2" font-family="Arial" font-size="14.00" fill="#666666">[VARCHAR]</text>
<polygon fill="none" stroke="black" points="950.35,-1360.2 950.35,-1391 1170.56,-1391 1170.56,-1360.2 950.35,-1360.2"/>
<text text-anchor="start" x="957.35" y="-1372.4" font-family="Arial" font-size="14.00">organization_role_type_id </text>
<text text-anchor="start" x="1121.58" y="-1372.4" font-family="Arial" font-size="14.00" fill="#666666">[ULID]</text>
<polygon fill="none" stroke="black" points="950.35,-1329.4 950.35,-1360.2 1170.56,-1360.2 1170.56,-1329.4 950.35,-1329.4"/>
<text text-anchor="start" x="957.35" y="-1341.6" font-family="Arial" font-size="14.00">elaboration </text>
<text text-anchor="start" x="1030.51" y="-1341.6" font-family="Arial" font-size="14.00" fill="#666666">[TEXT]</text>
<polygon fill="none" stroke="black" points="950.35,-1298.6 950.35,-1329.4 1170.56,-1329.4 1170.56,-1298.6 950.35,-1298.6"/>
<text text-anchor="start" x="957.35" y="-1310.8" font-family="Arial" font-size="14.00">created_at </text>
<text text-anchor="start" x="1027.4" y="-1310.8" font-family="Arial" font-size="14.00" fill="#666666">[TIMESTAMPTZ]</text>
<polygon fill="none" stroke="black" points="950.35,-1267.8 950.35,-1298.6 1170.56,-1298.6 1170.56,-1267.8 950.35,-1267.8"/>
<text text-anchor="start" x="957.35" y="-1280" font-family="Arial" font-size="14.00">created_by </text>
<text text-anchor="start" x="1030.51" y="-1280" font-family="Arial" font-size="14.00" fill="#666666">[TEXT]</text>
<polygon fill="none" stroke="black" points="950.35,-1237 950.35,-1267.8 1170.56,-1267.8 1170.56,-1237 950.35,-1237"/>
<text text-anchor="start" x="957.35" y="-1249.2" font-family="Arial" font-size="14.00">updated_at </text>
<text text-anchor="start" x="1031.31" y="-1249.2" font-family="Arial" font-size="14.00" fill="#666666">[TIMESTAMPTZ]</text>
<polygon fill="none" stroke="black" points="950.35,-1206.2 950.35,-1237 1170.56,-1237 1170.56,-1206.2 950.35,-1206.2"/>
<text text-anchor="start" x="957.35" y="-1218.4" font-family="Arial" font-size="14.00">updated_by </text>
<text text-anchor="start" x="1034.42" y="-1218.4" font-family="Arial" font-size="14.00" fill="#666666">[TEXT]</text>
<polygon fill="none" stroke="black" points="950.35,-1175.4 950.35,-1206.2 1170.56,-1206.2 1170.56,-1175.4 950.35,-1175.4"/>
<text text-anchor="start" x="957.35" y="-1187.6" font-family="Arial" font-size="14.00">deleted_at </text>
<text text-anchor="start" x="1026.63" y="-1187.6" font-family="Arial" font-size="14.00" fill="#666666">[TIMESTAMPTZ]</text>
<polygon fill="none" stroke="black" points="950.35,-1144.6 950.35,-1175.4 1170.56,-1175.4 1170.56,-1144.6 950.35,-1144.6"/>
<text text-anchor="start" x="957.35" y="-1156.8" font-family="Arial" font-size="14.00">deleted_by </text>
<text text-anchor="start" x="1029.74" y="-1156.8" font-family="Arial" font-size="14.00" fill="#666666">[TEXT]</text>
<polygon fill="none" stroke="black" points="950.35,-1113.8 950.35,-1144.6 1170.56,-1144.6 1170.56,-1113.8 950.35,-1113.8"/>
<text text-anchor="start" x="957.35" y="-1126" font-family="Arial" font-size="14.00">activity_log </text>
<text text-anchor="start" x="1030.49" y="-1126" font-family="Arial" font-size="14.00" fill="#666666">[TEXT]</text>
</g>
<!-- organization_role&#45;&gt;party -->
<g id="edge5" class="edge">
<title>organization_role:organization_id&#45;&gt;party:party_id</title>
<path fill="none" stroke="black" d="M940.23,-1401.39C900.94,-1355.41 908.8,-1007.72 897.45,-962.8 882.21,-902.43 907.98,-832.6 845.71,-832.6"/>
<polygon fill="black" stroke="black" points="940.29,-1401.42 946.89,-1410.18 944.97,-1403.99 948.76,-1406.08 948.76,-1406.08 948.76,-1406.08 944.97,-1403.99 951.22,-1402.3 940.29,-1401.42"/>
</g>
<!-- organization_role&#45;&gt;party -->
<g id="edge6" class="edge">
<title>organization_role:person_id&#45;&gt;party:party_id</title>
<path fill="none" stroke="black" d="M940.17,-1432.44C897.96,-1385.78 909.45,-1011.04 897.45,-962.8 882.43,-902.37 907.98,-832.6 845.71,-832.6"/>
<polygon fill="black" stroke="black" points="940.17,-1432.44 946.98,-1441.04 944.91,-1434.9 948.75,-1436.89 948.75,-1436.89 948.75,-1436.89 944.91,-1434.9 951.12,-1433.05 940.17,-1432.44"/>
</g>
<!-- device_party_relationship -->
<g id="node6" class="node">
<title>device_party_relationship</title>
<polygon fill="#efefef" stroke="none" points="1274.67,-1468 1274.67,-1503.6 1546.24,-1503.6 1546.24,-1468 1274.67,-1468"/>
<polygon fill="none" stroke="black" points="1274.67,-1468 1274.67,-1503.6 1546.24,-1503.6 1546.24,-1468 1274.67,-1468"/>
<text text-anchor="start" x="1282.36" y="-1481.4" font-family="Arial Bold" font-size="18.00">device_party_relationship</text>
<text text-anchor="start" x="1469.29" y="-1481.4" font-family="Arial" font-size="14.00">    </text>
<text text-anchor="start" x="1500.41" y="-1481.4" font-family="Arial" font-size="14.00" fill="#666666">[table]</text>
<polygon fill="none" stroke="black" points="1274.67,-1437.2 1274.67,-1468 1546.24,-1468 1546.24,-1437.2 1274.67,-1437.2"/>
<text text-anchor="start" x="1281.67" y="-1449.4" font-family="Arial" font-size="14.00">device_party_relationship_id </text>
<text text-anchor="start" x="1463.01" y="-1449.4" font-family="Arial" font-size="14.00" fill="#666666">[VARCHAR]</text>
<polygon fill="none" stroke="black" points="1274.67,-1406.4 1274.67,-1437.2 1546.24,-1437.2 1546.24,-1406.4 1274.67,-1406.4"/>
<text text-anchor="start" x="1281.67" y="-1418.6" font-family="Arial" font-size="14.00">device_id </text>
<text text-anchor="start" x="1344.71" y="-1418.6" font-family="Arial" font-size="14.00" fill="#666666">[VARCHAR]</text>
<polygon fill="none" stroke="black" points="1274.67,-1375.6 1274.67,-1406.4 1546.24,-1406.4 1546.24,-1375.6 1274.67,-1375.6"/>
<text text-anchor="start" x="1281.67" y="-1387.8" font-family="Arial" font-size="14.00">party_id </text>
<text text-anchor="start" x="1335.37" y="-1387.8" font-family="Arial" font-size="14.00" fill="#666666">[VARCHAR]</text>
<polygon fill="none" stroke="black" points="1274.67,-1344.8 1274.67,-1375.6 1546.24,-1375.6 1546.24,-1344.8 1274.67,-1344.8"/>
<text text-anchor="start" x="1281.67" y="-1357" font-family="Arial" font-size="14.00">elaboration </text>
<text text-anchor="start" x="1354.83" y="-1357" font-family="Arial" font-size="14.00" fill="#666666">[TEXT]</text>
<polygon fill="none" stroke="black" points="1274.67,-1314 1274.67,-1344.8 1546.24,-1344.8 1546.24,-1314 1274.67,-1314"/>
<text text-anchor="start" x="1281.67" y="-1326.2" font-family="Arial" font-size="14.00">created_at </text>
<text text-anchor="start" x="1351.72" y="-1326.2" font-family="Arial" font-size="14.00" fill="#666666">[TIMESTAMPTZ]</text>
<polygon fill="none" stroke="black" points="1274.67,-1283.2 1274.67,-1314 1546.24,-1314 1546.24,-1283.2 1274.67,-1283.2"/>
<text text-anchor="start" x="1281.67" y="-1295.4" font-family="Arial" font-size="14.00">created_by </text>
<text text-anchor="start" x="1354.83" y="-1295.4" font-family="Arial" font-size="14.00" fill="#666666">[TEXT]</text>
<polygon fill="none" stroke="black" points="1274.67,-1252.4 1274.67,-1283.2 1546.24,-1283.2 1546.24,-1252.4 1274.67,-1252.4"/>
<text text-anchor="start" x="1281.67" y="-1264.6" font-family="Arial" font-size="14.00">updated_at </text>
<text text-anchor="start" x="1355.63" y="-1264.6" font-family="Arial" font-size="14.00" fill="#666666">[TIMESTAMPTZ]</text>
<polygon fill="none" stroke="black" points="1274.67,-1221.6 1274.67,-1252.4 1546.24,-1252.4 1546.24,-1221.6 1274.67,-1221.6"/>
<text text-anchor="start" x="1281.67" y="-1233.8" font-family="Arial" font-size="14.00">updated_by </text>
<text text-anchor="start" x="1358.74" y="-1233.8" font-family="Arial" font-size="14.00" fill="#666666">[TEXT]</text>
<polygon fill="none" stroke="black" points="1274.67,-1190.8 1274.67,-1221.6 1546.24,-1221.6 1546.24,-1190.8 1274.67,-1190.8"/>
<text text-anchor="start" x="1281.67" y="-1203" font-family="Arial" font-size="14.00">deleted_at </text>
<text text-anchor="start" x="1350.95" y="-1203" font-family="Arial" font-size="14.00" fill="#666666">[TIMESTAMPTZ]</text>
<polygon fill="none" stroke="black" points="1274.67,-1160 1274.67,-1190.8 1546.24,-1190.8 1546.24,-1160 1274.67,-1160"/>
<text text-anchor="start" x="1281.67" y="-1172.2" font-family="Arial" font-size="14.00">deleted_by </text>
<text text-anchor="start" x="1354.06" y="-1172.2" font-family="Arial" font-size="14.00" fill="#666666">[TEXT]</text>
<polygon fill="none" stroke="black" points="1274.67,-1129.2 1274.67,-1160 1546.24,-1160 1546.24,-1129.2 1274.67,-1129.2"/>
<text text-anchor="start" x="1281.67" y="-1141.4" font-family="Arial" font-size="14.00">activity_log </text>
<text text-anchor="start" x="1354.81" y="-1141.4" font-family="Arial" font-size="14.00" fill="#666666">[TEXT]</text>
</g>
<!-- device_party_relationship&#45;&gt;party -->
<g id="edge7" class="edge">
<title>device_party_relationship:party_id&#45;&gt;party:party_id</title>
<path fill="none" stroke="black" d="M1263.81,-1389.57C1185.38,-1365.14 1280.37,-1034.64 1222.45,-962.8 1166.86,-893.84 934.29,-832.6 845.71,-832.6"/>
<polygon fill="black" stroke="black" points="1263.44,-1389.52 1272.69,-1395.41 1268.72,-1390.28 1273.01,-1390.9 1273.01,-1390.9 1273.01,-1390.9 1268.72,-1390.28 1273.98,-1386.5 1263.44,-1389.52"/>
</g>
</g>
</svg>
