<?xml version="1.0" encoding="UTF-8" standalone="no"?>
<!DOCTYPE svg PUBLIC "-//W3C//DTD SVG 1.1//EN"
 "http://www.w3.org/Graphics/SVG/1.1/DTD/svg11.dtd">
<!-- Generated by graphviz version 12.1.2 (20240928.0832)
 -->
<!-- Title: party_type Pages: 1 -->
<svg width="1592pt" height="1684pt"
 viewBox="0.00 0.00 1592.00 1684.00" xmlns="http://www.w3.org/2000/svg" xmlns:xlink="http://www.w3.org/1999/xlink">
<g id="graph0" class="graph" transform="scale(1 1) rotate(0) translate(4 1680)">
<title>party_type</title>
<polygon fill="white" stroke="none" points="-4,4 -4,-1680 1588,-1680 1588,4 -4,4"/>
<!-- party_type -->
<g id="node1" class="node">
<title>party_type</title>
<polygon fill="#efefef" stroke="none" points="645.76,-354.2 645.76,-389.8 840.27,-389.8 840.27,-354.2 645.76,-354.2"/>
<polygon fill="none" stroke="black" points="645.76,-354.2 645.76,-389.8 840.27,-389.8 840.27,-354.2 645.76,-354.2"/>
<text text-anchor="start" x="669.9" y="-367.6" font-family="Arial Bold" font-size="18.00">party_type</text>
<text text-anchor="start" x="746.88" y="-367.6" font-family="Arial" font-size="14.00">    </text>
<text text-anchor="start" x="777.99" y="-367.6" font-family="Arial" font-size="14.00" fill="#666666">[table]</text>
<polygon fill="none" stroke="black" points="645.76,-323.4 645.76,-354.2 840.27,-354.2 840.27,-323.4 645.76,-323.4"/>
<text text-anchor="start" x="652.76" y="-335.6" font-family="Arial" font-size="14.00">party_type_id </text>
<text text-anchor="start" x="740.71" y="-335.6" font-family="Arial" font-size="14.00" fill="#666666">[ULID]</text>
<polygon fill="none" stroke="black" points="645.76,-292.6 645.76,-323.4 840.27,-323.4 840.27,-292.6 645.76,-292.6"/>
<text text-anchor="start" x="652.76" y="-304.8" font-family="Arial" font-size="14.00">code </text>
<text text-anchor="start" x="687.01" y="-304.8" font-family="Arial" font-size="14.00" fill="#666666">[TEXT]</text>
<polygon fill="none" stroke="black" points="645.76,-261.8 645.76,-292.6 840.27,-292.6 840.27,-261.8 645.76,-261.8"/>
<text text-anchor="start" x="652.76" y="-274" font-family="Arial" font-size="14.00">value </text>
<text text-anchor="start" x="690.12" y="-274" font-family="Arial" font-size="14.00" fill="#666666">[TEXT]</text>
<polygon fill="none" stroke="black" points="645.76,-231 645.76,-261.8 840.27,-261.8 840.27,-231 645.76,-231"/>
<text text-anchor="start" x="652.76" y="-243.2" font-family="Arial" font-size="14.00">created_at </text>
<text text-anchor="start" x="722.81" y="-243.2" font-family="Arial" font-size="14.00" fill="#666666">[TIMESTAMPTZ]</text>
<polygon fill="none" stroke="black" points="645.76,-200.2 645.76,-231 840.27,-231 840.27,-200.2 645.76,-200.2"/>
<text text-anchor="start" x="652.76" y="-212.4" font-family="Arial" font-size="14.00">created_by </text>
<text text-anchor="start" x="725.92" y="-212.4" font-family="Arial" font-size="14.00" fill="#666666">[TEXT]</text>
<polygon fill="none" stroke="black" points="645.76,-169.4 645.76,-200.2 840.27,-200.2 840.27,-169.4 645.76,-169.4"/>
<text text-anchor="start" x="652.76" y="-181.6" font-family="Arial" font-size="14.00">updated_at </text>
<text text-anchor="start" x="726.72" y="-181.6" font-family="Arial" font-size="14.00" fill="#666666">[TIMESTAMPTZ]</text>
<polygon fill="none" stroke="black" points="645.76,-138.6 645.76,-169.4 840.27,-169.4 840.27,-138.6 645.76,-138.6"/>
<text text-anchor="start" x="652.76" y="-150.8" font-family="Arial" font-size="14.00">updated_by </text>
<text text-anchor="start" x="729.83" y="-150.8" font-family="Arial" font-size="14.00" fill="#666666">[TEXT]</text>
<polygon fill="none" stroke="black" points="645.76,-107.8 645.76,-138.6 840.27,-138.6 840.27,-107.8 645.76,-107.8"/>
<text text-anchor="start" x="652.76" y="-120" font-family="Arial" font-size="14.00">deleted_at </text>
<text text-anchor="start" x="722.04" y="-120" font-family="Arial" font-size="14.00" fill="#666666">[TIMESTAMPTZ]</text>
<polygon fill="none" stroke="black" points="645.76,-77 645.76,-107.8 840.27,-107.8 840.27,-77 645.76,-77"/>
<text text-anchor="start" x="652.76" y="-89.2" font-family="Arial" font-size="14.00">deleted_by </text>
<text text-anchor="start" x="725.15" y="-89.2" font-family="Arial" font-size="14.00" fill="#666666">[TEXT]</text>
<polygon fill="none" stroke="black" points="645.76,-46.2 645.76,-77 840.27,-77 840.27,-46.2 645.76,-46.2"/>
<text text-anchor="start" x="652.76" y="-58.4" font-family="Arial" font-size="14.00">activity_log </text>
<text text-anchor="start" x="725.91" y="-58.4" font-family="Arial" font-size="14.00" fill="#666666">[TEXT]</text>
<polygon fill="none" stroke="black" stroke-width="3" points="644.26,-44.7 644.26,-391.3 841.77,-391.3 841.77,-44.7 644.26,-44.7"/>
</g>
<!-- party -->
<g id="node2" class="node">
<title>party</title>
<polygon fill="#efefef" stroke="none" points="645.76,-854 645.76,-889.6 840.27,-889.6 840.27,-854 645.76,-854"/>
<polygon fill="none" stroke="black" points="645.76,-854 645.76,-889.6 840.27,-889.6 840.27,-854 645.76,-854"/>
<text text-anchor="start" x="689.9" y="-867.4" font-family="Arial Bold" font-size="18.00">party</text>
<text text-anchor="start" x="726.88" y="-867.4" font-family="Arial" font-size="14.00">    </text>
<text text-anchor="start" x="758" y="-867.4" font-family="Arial" font-size="14.00" fill="#666666">[table]</text>
<polygon fill="none" stroke="black" points="645.76,-823.2 645.76,-854 840.27,-854 840.27,-823.2 645.76,-823.2"/>
<text text-anchor="start" x="652.76" y="-835.4" font-family="Arial" font-size="14.00">party_id </text>
<text text-anchor="start" x="706.46" y="-835.4" font-family="Arial" font-size="14.00" fill="#666666">[VARCHAR]</text>
<polygon fill="none" stroke="black" points="645.76,-792.4 645.76,-823.2 840.27,-823.2 840.27,-792.4 645.76,-792.4"/>
<text text-anchor="start" x="652.76" y="-804.6" font-family="Arial" font-size="14.00">party_type_id </text>
<text text-anchor="start" x="740.71" y="-804.6" font-family="Arial" font-size="14.00" fill="#666666">[ULID]</text>
<polygon fill="none" stroke="black" points="645.76,-761.6 645.76,-792.4 840.27,-792.4 840.27,-761.6 645.76,-761.6"/>
<text text-anchor="start" x="652.76" y="-773.8" font-family="Arial" font-size="14.00">party_name </text>
<text text-anchor="start" x="730.58" y="-773.8" font-family="Arial" font-size="14.00" fill="#666666">[TEXT]</text>
<polygon fill="none" stroke="black" points="645.76,-730.8 645.76,-761.6 840.27,-761.6 840.27,-730.8 645.76,-730.8"/>
<text text-anchor="start" x="652.76" y="-743" font-family="Arial" font-size="14.00">elaboration </text>
<text text-anchor="start" x="725.93" y="-743" font-family="Arial" font-size="14.00" fill="#666666">[TEXT]</text>
<polygon fill="none" stroke="black" points="645.76,-700 645.76,-730.8 840.27,-730.8 840.27,-700 645.76,-700"/>
<text text-anchor="start" x="652.76" y="-712.2" font-family="Arial" font-size="14.00">created_at </text>
<text text-anchor="start" x="722.81" y="-712.2" font-family="Arial" font-size="14.00" fill="#666666">[TIMESTAMPTZ]</text>
<polygon fill="none" stroke="black" points="645.76,-669.2 645.76,-700 840.27,-700 840.27,-669.2 645.76,-669.2"/>
<text text-anchor="start" x="652.76" y="-681.4" font-family="Arial" font-size="14.00">created_by </text>
<text text-anchor="start" x="725.92" y="-681.4" font-family="Arial" font-size="14.00" fill="#666666">[TEXT]</text>
<polygon fill="none" stroke="black" points="645.76,-638.4 645.76,-669.2 840.27,-669.2 840.27,-638.4 645.76,-638.4"/>
<text text-anchor="start" x="652.76" y="-650.6" font-family="Arial" font-size="14.00">updated_at </text>
<text text-anchor="start" x="726.72" y="-650.6" font-family="Arial" font-size="14.00" fill="#666666">[TIMESTAMPTZ]</text>
<polygon fill="none" stroke="black" points="645.76,-607.6 645.76,-638.4 840.27,-638.4 840.27,-607.6 645.76,-607.6"/>
<text text-anchor="start" x="652.76" y="-619.8" font-family="Arial" font-size="14.00">updated_by </text>
<text text-anchor="start" x="729.83" y="-619.8" font-family="Arial" font-size="14.00" fill="#666666">[TEXT]</text>
<polygon fill="none" stroke="black" points="645.76,-576.8 645.76,-607.6 840.27,-607.6 840.27,-576.8 645.76,-576.8"/>
<text text-anchor="start" x="652.76" y="-589" font-family="Arial" font-size="14.00">deleted_at </text>
<text text-anchor="start" x="722.04" y="-589" font-family="Arial" font-size="14.00" fill="#666666">[TIMESTAMPTZ]</text>
<polygon fill="none" stroke="black" points="645.76,-546 645.76,-576.8 840.27,-576.8 840.27,-546 645.76,-546"/>
<text text-anchor="start" x="652.76" y="-558.2" font-family="Arial" font-size="14.00">deleted_by </text>
<text text-anchor="start" x="725.15" y="-558.2" font-family="Arial" font-size="14.00" fill="#666666">[TEXT]</text>
<polygon fill="none" stroke="black" points="645.76,-515.2 645.76,-546 840.27,-546 840.27,-515.2 645.76,-515.2"/>
<text text-anchor="start" x="652.76" y="-527.4" font-family="Arial" font-size="14.00">activity_log </text>
<text text-anchor="start" x="725.91" y="-527.4" font-family="Arial" font-size="14.00" fill="#666666">[TEXT]</text>
</g>
<!-- party&#45;&gt;party_type -->
<g id="edge1" class="edge">
<title>party:party_type_id&#45;&gt;party_type:party_type_id</title>
<path fill="none" stroke="black" d="M851.48,-807.42C1049.66,-792.36 1046.26,-338.8 841.27,-338.8"/>
<polygon fill="black" stroke="black" points="851.6,-807.41 841.44,-803.29 846.27,-807.61 841.94,-807.77 841.94,-807.77 841.94,-807.77 846.27,-807.61 841.77,-812.28 851.6,-807.41"/>
</g>
<!-- party_relation -->
<g id="node3" class="node">
<title>party_relation</title>
<polygon fill="#efefef" stroke="none" points="43.2,-1489.4 43.2,-1525 240.83,-1525 240.83,-1489.4 43.2,-1489.4"/>
<polygon fill="none" stroke="black" points="43.2,-1489.4 43.2,-1525 240.83,-1525 240.83,-1489.4 43.2,-1489.4"/>
<text text-anchor="start" x="56.91" y="-1502.8" font-family="Arial Bold" font-size="18.00">party_relation</text>
<text text-anchor="start" x="157.87" y="-1502.8" font-family="Arial" font-size="14.00">    </text>
<text text-anchor="start" x="188.99" y="-1502.8" font-family="Arial" font-size="14.00" fill="#666666">[table]</text>
<polygon fill="none" stroke="black" points="43.2,-1458.6 43.2,-1489.4 240.83,-1489.4 240.83,-1458.6 43.2,-1458.6"/>
<text text-anchor="start" x="50.2" y="-1470.8" font-family="Arial" font-size="14.00">party_relation_id </text>
<text text-anchor="start" x="157.6" y="-1470.8" font-family="Arial" font-size="14.00" fill="#666666">[VARCHAR]</text>
<polygon fill="none" stroke="black" points="43.2,-1427.8 43.2,-1458.6 240.83,-1458.6 240.83,-1427.8 43.2,-1427.8"/>
<text text-anchor="start" x="50.2" y="-1440" font-family="Arial" font-size="14.00">party_id </text>
<text text-anchor="start" x="103.9" y="-1440" font-family="Arial" font-size="14.00" fill="#666666">[VARCHAR]</text>
<polygon fill="none" stroke="black" points="43.2,-1397 43.2,-1427.8 240.83,-1427.8 240.83,-1397 43.2,-1397"/>
<text text-anchor="start" x="50.2" y="-1409.2" font-family="Arial" font-size="14.00">related_party_id </text>
<text text-anchor="start" x="154.49" y="-1409.2" font-family="Arial" font-size="14.00" fill="#666666">[VARCHAR]</text>
<polygon fill="none" stroke="black" points="43.2,-1366.2 43.2,-1397 240.83,-1397 240.83,-1366.2 43.2,-1366.2"/>
<text text-anchor="start" x="50.2" y="-1378.4" font-family="Arial" font-size="14.00">relation_type_id </text>
<text text-anchor="start" x="152.94" y="-1378.4" font-family="Arial" font-size="14.00" fill="#666666">[ULID]</text>
<polygon fill="none" stroke="black" points="43.2,-1335.4 43.2,-1366.2 240.83,-1366.2 240.83,-1335.4 43.2,-1335.4"/>
<text text-anchor="start" x="50.2" y="-1347.6" font-family="Arial" font-size="14.00">elaboration </text>
<text text-anchor="start" x="123.37" y="-1347.6" font-family="Arial" font-size="14.00" fill="#666666">[TEXT]</text>
<polygon fill="none" stroke="black" points="43.2,-1304.6 43.2,-1335.4 240.83,-1335.4 240.83,-1304.6 43.2,-1304.6"/>
<text text-anchor="start" x="50.2" y="-1316.8" font-family="Arial" font-size="14.00">created_at </text>
<text text-anchor="start" x="120.25" y="-1316.8" font-family="Arial" font-size="14.00" fill="#666666">[TIMESTAMPTZ]</text>
<polygon fill="none" stroke="black" points="43.2,-1273.8 43.2,-1304.6 240.83,-1304.6 240.83,-1273.8 43.2,-1273.8"/>
<text text-anchor="start" x="50.2" y="-1286" font-family="Arial" font-size="14.00">created_by </text>
<text text-anchor="start" x="123.36" y="-1286" font-family="Arial" font-size="14.00" fill="#666666">[TEXT]</text>
<polygon fill="none" stroke="black" points="43.2,-1243 43.2,-1273.8 240.83,-1273.8 240.83,-1243 43.2,-1243"/>
<text text-anchor="start" x="50.2" y="-1255.2" font-family="Arial" font-size="14.00">updated_at </text>
<text text-anchor="start" x="124.16" y="-1255.2" font-family="Arial" font-size="14.00" fill="#666666">[TIMESTAMPTZ]</text>
<polygon fill="none" stroke="black" points="43.2,-1212.2 43.2,-1243 240.83,-1243 240.83,-1212.2 43.2,-1212.2"/>
<text text-anchor="start" x="50.2" y="-1224.4" font-family="Arial" font-size="14.00">updated_by </text>
<text text-anchor="start" x="127.27" y="-1224.4" font-family="Arial" font-size="14.00" fill="#666666">[TEXT]</text>
<polygon fill="none" stroke="black" points="43.2,-1181.4 43.2,-1212.2 240.83,-1212.2 240.83,-1181.4 43.2,-1181.4"/>
<text text-anchor="start" x="50.2" y="-1193.6" font-family="Arial" font-size="14.00">deleted_at </text>
<text text-anchor="start" x="119.48" y="-1193.6" font-family="Arial" font-size="14.00" fill="#666666">[TIMESTAMPTZ]</text>
<polygon fill="none" stroke="black" points="43.2,-1150.6 43.2,-1181.4 240.83,-1181.4 240.83,-1150.6 43.2,-1150.6"/>
<text text-anchor="start" x="50.2" y="-1162.8" font-family="Arial" font-size="14.00">deleted_by </text>
<text text-anchor="start" x="122.59" y="-1162.8" font-family="Arial" font-size="14.00" fill="#666666">[TEXT]</text>
<polygon fill="none" stroke="black" points="43.2,-1119.8 43.2,-1150.6 240.83,-1150.6 240.83,-1119.8 43.2,-1119.8"/>
<text text-anchor="start" x="50.2" y="-1132" font-family="Arial" font-size="14.00">activity_log </text>
<text text-anchor="start" x="123.34" y="-1132" font-family="Arial" font-size="14.00" fill="#666666">[TEXT]</text>
</g>
<!-- party_relation&#45;&gt;party -->
<g id="edge2" class="edge">
<title>party_relation:related_party_id&#45;&gt;party:party_id</title>
<path fill="none" stroke="black" d="M252.04,-1410.92C333.19,-1385.67 234.01,-1043.96 293.02,-968.8 344.49,-903.24 561.41,-838.6 644.76,-838.6"/>
<polygon fill="black" stroke="black" points="252.06,-1410.92 241.52,-1407.9 246.78,-1411.68 242.5,-1412.3 242.5,-1412.3 242.5,-1412.3 246.78,-1411.68 242.81,-1416.81 252.06,-1410.92"/>
</g>
<!-- party_relation&#45;&gt;party -->
<g id="edge3" class="edge">
<title>party_relation:party_id&#45;&gt;party:party_id</title>
<path fill="none" stroke="black" d="M251.93,-1441.86C339.88,-1416.85 230.08,-1049.58 293.02,-968.8 344.24,-903.05 561.41,-838.6 644.76,-838.6"/>
<polygon fill="black" stroke="black" points="252.08,-1441.84 241.57,-1438.7 246.79,-1442.54 242.5,-1443.11 242.5,-1443.11 242.5,-1443.11 246.79,-1442.54 242.76,-1447.62 252.08,-1441.84"/>
</g>
<!-- person -->
<g id="node4" class="node">
<title>person</title>
<polygon fill="#efefef" stroke="none" points="344.97,-1597.2 344.97,-1632.8 541.06,-1632.8 541.06,-1597.2 344.97,-1597.2"/>
<polygon fill="none" stroke="black" points="344.97,-1597.2 344.97,-1632.8 541.06,-1632.8 541.06,-1597.2 344.97,-1597.2"/>
<text text-anchor="start" x="384.4" y="-1610.6" font-family="Arial Bold" font-size="18.00">person</text>
<text text-anchor="start" x="432.38" y="-1610.6" font-family="Arial" font-size="14.00">    </text>
<text text-anchor="start" x="463.5" y="-1610.6" font-family="Arial" font-size="14.00" fill="#666666">[table]</text>
<polygon fill="none" stroke="black" points="344.97,-1566.4 344.97,-1597.2 541.06,-1597.2 541.06,-1566.4 344.97,-1566.4"/>
<text text-anchor="start" x="351.97" y="-1578.6" font-family="Arial" font-size="14.00">person_id </text>
<text text-anchor="start" x="417.35" y="-1578.6" font-family="Arial" font-size="14.00" fill="#666666">[ULID]</text>
<polygon fill="none" stroke="black" points="344.97,-1535.6 344.97,-1566.4 541.06,-1566.4 541.06,-1535.6 344.97,-1535.6"/>
<text text-anchor="start" x="351.97" y="-1547.8" font-family="Arial" font-size="14.00">party_id </text>
<text text-anchor="start" x="405.67" y="-1547.8" font-family="Arial" font-size="14.00" fill="#666666">[VARCHAR]</text>
<polygon fill="none" stroke="black" points="344.97,-1504.8 344.97,-1535.6 541.06,-1535.6 541.06,-1504.8 344.97,-1504.8"/>
<text text-anchor="start" x="351.97" y="-1517" font-family="Arial" font-size="14.00">person_type_id </text>
<text text-anchor="start" x="451.6" y="-1517" font-family="Arial" font-size="14.00" fill="#666666">[ULID]</text>
<polygon fill="none" stroke="black" points="344.97,-1474 344.97,-1504.8 541.06,-1504.8 541.06,-1474 344.97,-1474"/>
<text text-anchor="start" x="351.97" y="-1486.2" font-family="Arial" font-size="14.00">person_first_name </text>
<text text-anchor="start" x="471.81" y="-1486.2" font-family="Arial" font-size="14.00" fill="#666666">[TEXT]</text>
<polygon fill="none" stroke="black" points="344.97,-1443.2 344.97,-1474 541.06,-1474 541.06,-1443.2 344.97,-1443.2"/>
<text text-anchor="start" x="351.97" y="-1455.4" font-family="Arial" font-size="14.00">person_middle_name </text>
<text text-anchor="start" x="490.5" y="-1455.4" font-family="Arial" font-size="14.00" fill="#666666">[TEXT]</text>
<polygon fill="none" stroke="black" points="344.97,-1412.4 344.97,-1443.2 541.06,-1443.2 541.06,-1412.4 344.97,-1412.4"/>
<text text-anchor="start" x="351.97" y="-1424.6" font-family="Arial" font-size="14.00">person_last_name </text>
<text text-anchor="start" x="471.05" y="-1424.6" font-family="Arial" font-size="14.00" fill="#666666">[TEXT]</text>
<polygon fill="none" stroke="black" points="344.97,-1381.6 344.97,-1412.4 541.06,-1412.4 541.06,-1381.6 344.97,-1381.6"/>
<text text-anchor="start" x="351.97" y="-1393.8" font-family="Arial" font-size="14.00">previous_name </text>
<text text-anchor="start" x="451.59" y="-1393.8" font-family="Arial" font-size="14.00" fill="#666666">[TEXT]</text>
<polygon fill="none" stroke="black" points="344.97,-1350.8 344.97,-1381.6 541.06,-1381.6 541.06,-1350.8 344.97,-1350.8"/>
<text text-anchor="start" x="351.97" y="-1363" font-family="Arial" font-size="14.00">honorific_prefix </text>
<text text-anchor="start" x="450.8" y="-1363" font-family="Arial" font-size="14.00" fill="#666666">[TEXT]</text>
<polygon fill="none" stroke="black" points="344.97,-1320 344.97,-1350.8 541.06,-1350.8 541.06,-1320 344.97,-1320"/>
<text text-anchor="start" x="351.97" y="-1332.2" font-family="Arial" font-size="14.00">honorific_suffix </text>
<text text-anchor="start" x="449.24" y="-1332.2" font-family="Arial" font-size="14.00" fill="#666666">[TEXT]</text>
<polygon fill="none" stroke="black" points="344.97,-1289.2 344.97,-1320 541.06,-1320 541.06,-1289.2 344.97,-1289.2"/>
<text text-anchor="start" x="351.97" y="-1301.4" font-family="Arial" font-size="14.00">gender_id </text>
<text text-anchor="start" x="418.14" y="-1301.4" font-family="Arial" font-size="14.00" fill="#666666">[ULID]</text>
<polygon fill="none" stroke="black" points="344.97,-1258.4 344.97,-1289.2 541.06,-1289.2 541.06,-1258.4 344.97,-1258.4"/>
<text text-anchor="start" x="351.97" y="-1270.6" font-family="Arial" font-size="14.00">sex_id </text>
<text text-anchor="start" x="396.33" y="-1270.6" font-family="Arial" font-size="14.00" fill="#666666">[ULID]</text>
<polygon fill="none" stroke="black" points="344.97,-1227.6 344.97,-1258.4 541.06,-1258.4 541.06,-1227.6 344.97,-1227.6"/>
<text text-anchor="start" x="351.97" y="-1239.8" font-family="Arial" font-size="14.00">elaboration </text>
<text text-anchor="start" x="425.14" y="-1239.8" font-family="Arial" font-size="14.00" fill="#666666">[TEXT]</text>
<polygon fill="none" stroke="black" points="344.97,-1196.8 344.97,-1227.6 541.06,-1227.6 541.06,-1196.8 344.97,-1196.8"/>
<text text-anchor="start" x="351.97" y="-1209" font-family="Arial" font-size="14.00">created_at </text>
<text text-anchor="start" x="422.02" y="-1209" font-family="Arial" font-size="14.00" fill="#666666">[TIMESTAMPTZ]</text>
<polygon fill="none" stroke="black" points="344.97,-1166 344.97,-1196.8 541.06,-1196.8 541.06,-1166 344.97,-1166"/>
<text text-anchor="start" x="351.97" y="-1178.2" font-family="Arial" font-size="14.00">created_by </text>
<text text-anchor="start" x="425.13" y="-1178.2" font-family="Arial" font-size="14.00" fill="#666666">[TEXT]</text>
<polygon fill="none" stroke="black" points="344.97,-1135.2 344.97,-1166 541.06,-1166 541.06,-1135.2 344.97,-1135.2"/>
<text text-anchor="start" x="351.97" y="-1147.4" font-family="Arial" font-size="14.00">updated_at </text>
<text text-anchor="start" x="425.93" y="-1147.4" font-family="Arial" font-size="14.00" fill="#666666">[TIMESTAMPTZ]</text>
<polygon fill="none" stroke="black" points="344.97,-1104.4 344.97,-1135.2 541.06,-1135.2 541.06,-1104.4 344.97,-1104.4"/>
<text text-anchor="start" x="351.97" y="-1116.6" font-family="Arial" font-size="14.00">updated_by </text>
<text text-anchor="start" x="429.04" y="-1116.6" font-family="Arial" font-size="14.00" fill="#666666">[TEXT]</text>
<polygon fill="none" stroke="black" points="344.97,-1073.6 344.97,-1104.4 541.06,-1104.4 541.06,-1073.6 344.97,-1073.6"/>
<text text-anchor="start" x="351.97" y="-1085.8" font-family="Arial" font-size="14.00">deleted_at </text>
<text text-anchor="start" x="421.25" y="-1085.8" font-family="Arial" font-size="14.00" fill="#666666">[TIMESTAMPTZ]</text>
<polygon fill="none" stroke="black" points="344.97,-1042.8 344.97,-1073.6 541.06,-1073.6 541.06,-1042.8 344.97,-1042.8"/>
<text text-anchor="start" x="351.97" y="-1055" font-family="Arial" font-size="14.00">deleted_by </text>
<text text-anchor="start" x="424.37" y="-1055" font-family="Arial" font-size="14.00" fill="#666666">[TEXT]</text>
<polygon fill="none" stroke="black" points="344.97,-1012 344.97,-1042.8 541.06,-1042.8 541.06,-1012 344.97,-1012"/>
<text text-anchor="start" x="351.97" y="-1024.2" font-family="Arial" font-size="14.00">activity_log </text>
<text text-anchor="start" x="425.12" y="-1024.2" font-family="Arial" font-size="14.00" fill="#666666">[TEXT]</text>
</g>
<!-- person&#45;&gt;party -->
<g id="edge4" class="edge">
<title>person:party_id&#45;&gt;party:party_id</title>
<path fill="none" stroke="black" d="M551.58,-1546.81C604.19,-1497.53 579.97,-1028.7 594.02,-968.8 608.2,-908.33 582.66,-838.6 644.76,-838.6"/>
<polygon fill="black" stroke="black" points="551.52,-1546.84 540.56,-1546.75 546.64,-1548.99 542.67,-1550.73 542.67,-1550.73 542.67,-1550.73 546.64,-1548.99 544.18,-1554.98 551.52,-1546.84"/>
</g>
<!-- organization -->
<g id="node5" class="node">
<title>organization</title>
<polygon fill="#efefef" stroke="none" points="645.76,-1551 645.76,-1586.6 840.27,-1586.6 840.27,-1551 645.76,-1551"/>
<polygon fill="none" stroke="black" points="645.76,-1551 645.76,-1586.6 840.27,-1586.6 840.27,-1551 645.76,-1551"/>
<text text-anchor="start" x="663.41" y="-1564.4" font-family="Arial Bold" font-size="18.00">organization</text>
<text text-anchor="start" x="753.37" y="-1564.4" font-family="Arial" font-size="14.00">    </text>
<text text-anchor="start" x="784.49" y="-1564.4" font-family="Arial" font-size="14.00" fill="#666666">[table]</text>
<polygon fill="none" stroke="black" points="645.76,-1520.2 645.76,-1551 840.27,-1551 840.27,-1520.2 645.76,-1520.2"/>
<text text-anchor="start" x="652.76" y="-1532.4" font-family="Arial" font-size="14.00">organization_id </text>
<text text-anchor="start" x="751.61" y="-1532.4" font-family="Arial" font-size="14.00" fill="#666666">[ULID]</text>
<polygon fill="none" stroke="black" points="645.76,-1489.4 645.76,-1520.2 840.27,-1520.2 840.27,-1489.4 645.76,-1489.4"/>
<text text-anchor="start" x="652.76" y="-1501.6" font-family="Arial" font-size="14.00">party_id </text>
<text text-anchor="start" x="706.46" y="-1501.6" font-family="Arial" font-size="14.00" fill="#666666">[VARCHAR]</text>
<polygon fill="none" stroke="black" points="645.76,-1458.6 645.76,-1489.4 840.27,-1489.4 840.27,-1458.6 645.76,-1458.6"/>
<text text-anchor="start" x="652.76" y="-1470.8" font-family="Arial" font-size="14.00">name </text>
<text text-anchor="start" x="691.67" y="-1470.8" font-family="Arial" font-size="14.00" fill="#666666">[TEXT]</text>
<polygon fill="none" stroke="black" points="645.76,-1427.8 645.76,-1458.6 840.27,-1458.6 840.27,-1427.8 645.76,-1427.8"/>
<text text-anchor="start" x="652.76" y="-1440" font-family="Arial" font-size="14.00">alias </text>
<text text-anchor="start" x="685.44" y="-1440" font-family="Arial" font-size="14.00" fill="#666666">[TEXT]</text>
<polygon fill="none" stroke="black" points="645.76,-1397 645.76,-1427.8 840.27,-1427.8 840.27,-1397 645.76,-1397"/>
<text text-anchor="start" x="652.76" y="-1409.2" font-family="Arial" font-size="14.00">description </text>
<text text-anchor="start" x="724.35" y="-1409.2" font-family="Arial" font-size="14.00" fill="#666666">[TEXT]</text>
<polygon fill="none" stroke="black" points="645.76,-1366.2 645.76,-1397 840.27,-1397 840.27,-1366.2 645.76,-1366.2"/>
<text text-anchor="start" x="652.76" y="-1378.4" font-family="Arial" font-size="14.00">license </text>
<text text-anchor="start" x="700.23" y="-1378.4" font-family="Arial" font-size="14.00" fill="#666666">[TEXT]</text>
<polygon fill="none" stroke="black" points="645.76,-1335.4 645.76,-1366.2 840.27,-1366.2 840.27,-1335.4 645.76,-1335.4"/>
<text text-anchor="start" x="652.76" y="-1347.6" font-family="Arial" font-size="14.00">federal_tax_id_num </text>
<text text-anchor="start" x="779.62" y="-1347.6" font-family="Arial" font-size="14.00" fill="#666666">[TEXT]</text>
<polygon fill="none" stroke="black" points="645.76,-1304.6 645.76,-1335.4 840.27,-1335.4 840.27,-1304.6 645.76,-1304.6"/>
<text text-anchor="start" x="652.76" y="-1316.8" font-family="Arial" font-size="14.00">registration_date </text>
<text text-anchor="start" x="760.94" y="-1316.8" font-family="Arial" font-size="14.00" fill="#666666">[DATE]</text>
<polygon fill="none" stroke="black" points="645.76,-1273.8 645.76,-1304.6 840.27,-1304.6 840.27,-1273.8 645.76,-1273.8"/>
<text text-anchor="start" x="652.76" y="-1286" font-family="Arial" font-size="14.00">elaboration </text>
<text text-anchor="start" x="725.93" y="-1286" font-family="Arial" font-size="14.00" fill="#666666">[TEXT]</text>
<polygon fill="none" stroke="black" points="645.76,-1243 645.76,-1273.8 840.27,-1273.8 840.27,-1243 645.76,-1243"/>
<text text-anchor="start" x="652.76" y="-1255.2" font-family="Arial" font-size="14.00">created_at </text>
<text text-anchor="start" x="722.81" y="-1255.2" font-family="Arial" font-size="14.00" fill="#666666">[TIMESTAMPTZ]</text>
<polygon fill="none" stroke="black" points="645.76,-1212.2 645.76,-1243 840.27,-1243 840.27,-1212.2 645.76,-1212.2"/>
<text text-anchor="start" x="652.76" y="-1224.4" font-family="Arial" font-size="14.00">created_by </text>
<text text-anchor="start" x="725.92" y="-1224.4" font-family="Arial" font-size="14.00" fill="#666666">[TEXT]</text>
<polygon fill="none" stroke="black" points="645.76,-1181.4 645.76,-1212.2 840.27,-1212.2 840.27,-1181.4 645.76,-1181.4"/>
<text text-anchor="start" x="652.76" y="-1193.6" font-family="Arial" font-size="14.00">updated_at </text>
<text text-anchor="start" x="726.72" y="-1193.6" font-family="Arial" font-size="14.00" fill="#666666">[TIMESTAMPTZ]</text>
<polygon fill="none" stroke="black" points="645.76,-1150.6 645.76,-1181.4 840.27,-1181.4 840.27,-1150.6 645.76,-1150.6"/>
<text text-anchor="start" x="652.76" y="-1162.8" font-family="Arial" font-size="14.00">updated_by </text>
<text text-anchor="start" x="729.83" y="-1162.8" font-family="Arial" font-size="14.00" fill="#666666">[TEXT]</text>
<polygon fill="none" stroke="black" points="645.76,-1119.8 645.76,-1150.6 840.27,-1150.6 840.27,-1119.8 645.76,-1119.8"/>
<text text-anchor="start" x="652.76" y="-1132" font-family="Arial" font-size="14.00">deleted_at </text>
<text text-anchor="start" x="722.04" y="-1132" font-family="Arial" font-size="14.00" fill="#666666">[TIMESTAMPTZ]</text>
<polygon fill="none" stroke="black" points="645.76,-1089 645.76,-1119.8 840.27,-1119.8 840.27,-1089 645.76,-1089"/>
<text text-anchor="start" x="652.76" y="-1101.2" font-family="Arial" font-size="14.00">deleted_by </text>
<text text-anchor="start" x="725.15" y="-1101.2" font-family="Arial" font-size="14.00" fill="#666666">[TEXT]</text>
<polygon fill="none" stroke="black" points="645.76,-1058.2 645.76,-1089 840.27,-1089 840.27,-1058.2 645.76,-1058.2"/>
<text text-anchor="start" x="652.76" y="-1070.4" font-family="Arial" font-size="14.00">activity_log </text>
<text text-anchor="start" x="725.91" y="-1070.4" font-family="Arial" font-size="14.00" fill="#666666">[TEXT]</text>
</g>
<!-- organization&#45;&gt;party -->
<g id="edge5" class="edge">
<title>organization:party_id&#45;&gt;party:party_id</title>
<path fill="none" stroke="black" d="M847.97,-1496.85C878.13,-1421.69 875.9,-838.6 841.27,-838.6"/>
<polygon fill="black" stroke="black" points="847.93,-1496.9 838.05,-1501.64 844.49,-1500.98 841.7,-1504.29 841.7,-1504.29 841.7,-1504.29 844.49,-1500.98 844.93,-1507.44 847.93,-1496.9"/>
</g>
<!-- organization_role -->
<g id="node6" class="node">
<title>organization_role</title>
<polygon fill="#efefef" stroke="none" points="944.91,-1489.4 944.91,-1525 1165.12,-1525 1165.12,-1489.4 944.91,-1489.4"/>
<polygon fill="none" stroke="black" points="944.91,-1489.4 944.91,-1525 1165.12,-1525 1165.12,-1489.4 944.91,-1489.4"/>
<text text-anchor="start" x="956.91" y="-1502.8" font-family="Arial Bold" font-size="18.00">organization_role</text>
<text text-anchor="start" x="1083.86" y="-1502.8" font-family="Arial" font-size="14.00">    </text>
<text text-anchor="start" x="1114.98" y="-1502.8" font-family="Arial" font-size="14.00" fill="#666666">[table]</text>
<polygon fill="none" stroke="black" points="944.91,-1458.6 944.91,-1489.4 1165.12,-1489.4 1165.12,-1458.6 944.91,-1458.6"/>
<text text-anchor="start" x="951.91" y="-1470.8" font-family="Arial" font-size="14.00">organization_role_id </text>
<text text-anchor="start" x="1081.89" y="-1470.8" font-family="Arial" font-size="14.00" fill="#666666">[VARCHAR]</text>
<polygon fill="none" stroke="black" points="944.91,-1427.8 944.91,-1458.6 1165.12,-1458.6 1165.12,-1427.8 944.91,-1427.8"/>
<text text-anchor="start" x="951.91" y="-1440" font-family="Arial" font-size="14.00">person_id </text>
<text text-anchor="start" x="1017.29" y="-1440" font-family="Arial" font-size="14.00" fill="#666666">[VARCHAR]</text>
<polygon fill="none" stroke="black" points="944.91,-1397 944.91,-1427.8 1165.12,-1427.8 1165.12,-1397 944.91,-1397"/>
<text text-anchor="start" x="951.91" y="-1409.2" font-family="Arial" font-size="14.00">organization_id </text>
<text text-anchor="start" x="1050.76" y="-1409.2" font-family="Arial" font-size="14.00" fill="#666666">[VARCHAR]</text>
<polygon fill="none" stroke="black" points="944.91,-1366.2 944.91,-1397 1165.12,-1397 1165.12,-1366.2 944.91,-1366.2"/>
<text text-anchor="start" x="951.91" y="-1378.4" font-family="Arial" font-size="14.00">organization_role_type_id </text>
<text text-anchor="start" x="1116.14" y="-1378.4" font-family="Arial" font-size="14.00" fill="#666666">[ULID]</text>
<polygon fill="none" stroke="black" points="944.91,-1335.4 944.91,-1366.2 1165.12,-1366.2 1165.12,-1335.4 944.91,-1335.4"/>
<text text-anchor="start" x="951.91" y="-1347.6" font-family="Arial" font-size="14.00">elaboration </text>
<text text-anchor="start" x="1025.08" y="-1347.6" font-family="Arial" font-size="14.00" fill="#666666">[TEXT]</text>
<polygon fill="none" stroke="black" points="944.91,-1304.6 944.91,-1335.4 1165.12,-1335.4 1165.12,-1304.6 944.91,-1304.6"/>
<text text-anchor="start" x="951.91" y="-1316.8" font-family="Arial" font-size="14.00">created_at </text>
<text text-anchor="start" x="1021.96" y="-1316.8" font-family="Arial" font-size="14.00" fill="#666666">[TIMESTAMPTZ]</text>
<polygon fill="none" stroke="black" points="944.91,-1273.8 944.91,-1304.6 1165.12,-1304.6 1165.12,-1273.8 944.91,-1273.8"/>
<text text-anchor="start" x="951.91" y="-1286" font-family="Arial" font-size="14.00">created_by </text>
<text text-anchor="start" x="1025.07" y="-1286" font-family="Arial" font-size="14.00" fill="#666666">[TEXT]</text>
<polygon fill="none" stroke="black" points="944.91,-1243 944.91,-1273.8 1165.12,-1273.8 1165.12,-1243 944.91,-1243"/>
<text text-anchor="start" x="951.91" y="-1255.2" font-family="Arial" font-size="14.00">updated_at </text>
<text text-anchor="start" x="1025.87" y="-1255.2" font-family="Arial" font-size="14.00" fill="#666666">[TIMESTAMPTZ]</text>
<polygon fill="none" stroke="black" points="944.91,-1212.2 944.91,-1243 1165.12,-1243 1165.12,-1212.2 944.91,-1212.2"/>
<text text-anchor="start" x="951.91" y="-1224.4" font-family="Arial" font-size="14.00">updated_by </text>
<text text-anchor="start" x="1028.98" y="-1224.4" font-family="Arial" font-size="14.00" fill="#666666">[TEXT]</text>
<polygon fill="none" stroke="black" points="944.91,-1181.4 944.91,-1212.2 1165.12,-1212.2 1165.12,-1181.4 944.91,-1181.4"/>
<text text-anchor="start" x="951.91" y="-1193.6" font-family="Arial" font-size="14.00">deleted_at </text>
<text text-anchor="start" x="1021.19" y="-1193.6" font-family="Arial" font-size="14.00" fill="#666666">[TIMESTAMPTZ]</text>
<polygon fill="none" stroke="black" points="944.91,-1150.6 944.91,-1181.4 1165.12,-1181.4 1165.12,-1150.6 944.91,-1150.6"/>
<text text-anchor="start" x="951.91" y="-1162.8" font-family="Arial" font-size="14.00">deleted_by </text>
<text text-anchor="start" x="1024.3" y="-1162.8" font-family="Arial" font-size="14.00" fill="#666666">[TEXT]</text>
<polygon fill="none" stroke="black" points="944.91,-1119.8 944.91,-1150.6 1165.12,-1150.6 1165.12,-1119.8 944.91,-1119.8"/>
<text text-anchor="start" x="951.91" y="-1132" font-family="Arial" font-size="14.00">activity_log </text>
<text text-anchor="start" x="1025.05" y="-1132" font-family="Arial" font-size="14.00" fill="#666666">[TEXT]</text>
</g>
<!-- organization_role&#45;&gt;party -->
<g id="edge6" class="edge">
<title>organization_role:organization_id&#45;&gt;party:party_id</title>
<path fill="none" stroke="black" d="M934.79,-1407.39C895.48,-1361.41 903.21,-1013.76 892.02,-968.8 877.01,-908.53 903.38,-838.6 841.27,-838.6"/>
<polygon fill="black" stroke="black" points="934.85,-1407.42 941.45,-1416.18 939.53,-1409.99 943.32,-1412.08 943.32,-1412.08 943.32,-1412.08 939.53,-1409.99 945.78,-1408.3 934.85,-1407.42"/>
</g>
<!-- organization_role&#45;&gt;party -->
<g id="edge7" class="edge">
<title>organization_role:person_id&#45;&gt;party:party_id</title>
<path fill="none" stroke="black" d="M934.73,-1438.44C892.5,-1391.79 903.85,-1017.08 892.02,-968.8 877.24,-908.48 903.38,-838.6 841.27,-838.6"/>
<polygon fill="black" stroke="black" points="934.74,-1438.44 941.54,-1447.04 939.47,-1440.9 943.32,-1442.89 943.32,-1442.89 943.32,-1442.89 939.47,-1440.9 945.69,-1439.05 934.74,-1438.44"/>
</g>
<!-- device_party_relationship -->
<g id="node7" class="node">
<title>device_party_relationship</title>
<polygon fill="#efefef" stroke="none" points="1269.23,-1474 1269.23,-1509.6 1540.8,-1509.6 1540.8,-1474 1269.23,-1474"/>
<polygon fill="none" stroke="black" points="1269.23,-1474 1269.23,-1509.6 1540.8,-1509.6 1540.8,-1474 1269.23,-1474"/>
<text text-anchor="start" x="1276.92" y="-1487.4" font-family="Arial Bold" font-size="18.00">device_party_relationship</text>
<text text-anchor="start" x="1463.86" y="-1487.4" font-family="Arial" font-size="14.00">    </text>
<text text-anchor="start" x="1494.97" y="-1487.4" font-family="Arial" font-size="14.00" fill="#666666">[table]</text>
<polygon fill="none" stroke="black" points="1269.23,-1443.2 1269.23,-1474 1540.8,-1474 1540.8,-1443.2 1269.23,-1443.2"/>
<text text-anchor="start" x="1276.23" y="-1455.4" font-family="Arial" font-size="14.00">device_party_relationship_id </text>
<text text-anchor="start" x="1457.57" y="-1455.4" font-family="Arial" font-size="14.00" fill="#666666">[VARCHAR]</text>
<polygon fill="none" stroke="black" points="1269.23,-1412.4 1269.23,-1443.2 1540.8,-1443.2 1540.8,-1412.4 1269.23,-1412.4"/>
<text text-anchor="start" x="1276.23" y="-1424.6" font-family="Arial" font-size="14.00">device_id </text>
<text text-anchor="start" x="1339.27" y="-1424.6" font-family="Arial" font-size="14.00" fill="#666666">[VARCHAR]</text>
<polygon fill="none" stroke="black" points="1269.23,-1381.6 1269.23,-1412.4 1540.8,-1412.4 1540.8,-1381.6 1269.23,-1381.6"/>
<text text-anchor="start" x="1276.23" y="-1393.8" font-family="Arial" font-size="14.00">party_id </text>
<text text-anchor="start" x="1329.93" y="-1393.8" font-family="Arial" font-size="14.00" fill="#666666">[VARCHAR]</text>
<polygon fill="none" stroke="black" points="1269.23,-1350.8 1269.23,-1381.6 1540.8,-1381.6 1540.8,-1350.8 1269.23,-1350.8"/>
<text text-anchor="start" x="1276.23" y="-1363" font-family="Arial" font-size="14.00">elaboration </text>
<text text-anchor="start" x="1349.4" y="-1363" font-family="Arial" font-size="14.00" fill="#666666">[TEXT]</text>
<polygon fill="none" stroke="black" points="1269.23,-1320 1269.23,-1350.8 1540.8,-1350.8 1540.8,-1320 1269.23,-1320"/>
<text text-anchor="start" x="1276.23" y="-1332.2" font-family="Arial" font-size="14.00">created_at </text>
<text text-anchor="start" x="1346.28" y="-1332.2" font-family="Arial" font-size="14.00" fill="#666666">[TIMESTAMPTZ]</text>
<polygon fill="none" stroke="black" points="1269.23,-1289.2 1269.23,-1320 1540.8,-1320 1540.8,-1289.2 1269.23,-1289.2"/>
<text text-anchor="start" x="1276.23" y="-1301.4" font-family="Arial" font-size="14.00">created_by </text>
<text text-anchor="start" x="1349.39" y="-1301.4" font-family="Arial" font-size="14.00" fill="#666666">[TEXT]</text>
<polygon fill="none" stroke="black" points="1269.23,-1258.4 1269.23,-1289.2 1540.8,-1289.2 1540.8,-1258.4 1269.23,-1258.4"/>
<text text-anchor="start" x="1276.23" y="-1270.6" font-family="Arial" font-size="14.00">updated_at </text>
<text text-anchor="start" x="1350.19" y="-1270.6" font-family="Arial" font-size="14.00" fill="#666666">[TIMESTAMPTZ]</text>
<polygon fill="none" stroke="black" points="1269.23,-1227.6 1269.23,-1258.4 1540.8,-1258.4 1540.8,-1227.6 1269.23,-1227.6"/>
<text text-anchor="start" x="1276.23" y="-1239.8" font-family="Arial" font-size="14.00">updated_by </text>
<text text-anchor="start" x="1353.3" y="-1239.8" font-family="Arial" font-size="14.00" fill="#666666">[TEXT]</text>
<polygon fill="none" stroke="black" points="1269.23,-1196.8 1269.23,-1227.6 1540.8,-1227.6 1540.8,-1196.8 1269.23,-1196.8"/>
<text text-anchor="start" x="1276.23" y="-1209" font-family="Arial" font-size="14.00">deleted_at </text>
<text text-anchor="start" x="1345.51" y="-1209" font-family="Arial" font-size="14.00" fill="#666666">[TIMESTAMPTZ]</text>
<polygon fill="none" stroke="black" points="1269.23,-1166 1269.23,-1196.8 1540.8,-1196.8 1540.8,-1166 1269.23,-1166"/>
<text text-anchor="start" x="1276.23" y="-1178.2" font-family="Arial" font-size="14.00">deleted_by </text>
<text text-anchor="start" x="1348.62" y="-1178.2" font-family="Arial" font-size="14.00" fill="#666666">[TEXT]</text>
<polygon fill="none" stroke="black" points="1269.23,-1135.2 1269.23,-1166 1540.8,-1166 1540.8,-1135.2 1269.23,-1135.2"/>
<text text-anchor="start" x="1276.23" y="-1147.4" font-family="Arial" font-size="14.00">activity_log </text>
<text text-anchor="start" x="1349.38" y="-1147.4" font-family="Arial" font-size="14.00" fill="#666666">[TEXT]</text>
</g>
<!-- device_party_relationship&#45;&gt;party -->
<g id="edge8" class="edge">
<title>device_party_relationship:party_id&#45;&gt;party:party_id</title>
<path fill="none" stroke="black" d="M1258.37,-1395.57C1179.94,-1371.14 1274.91,-1040.66 1217.02,-968.8 1161.58,-899.98 929.64,-838.6 841.27,-838.6"/>
<polygon fill="black" stroke="black" points="1258,-1395.52 1267.25,-1401.41 1263.28,-1396.28 1267.57,-1396.9 1267.57,-1396.9 1267.57,-1396.9 1263.28,-1396.28 1268.55,-1392.5 1258,-1395.52"/>
</g>
</g>
</svg>
