<?xml version="1.0" encoding="UTF-8" standalone="no"?>
<!DOCTYPE svg PUBLIC "-//W3C//DTD SVG 1.1//EN"
 "http://www.w3.org/Graphics/SVG/1.1/DTD/svg11.dtd">
<!-- Generated by graphviz version 2.40.1 (20161225.0304)
 -->
<!-- Title: party_relation Pages: 1 -->
<svg width="1771pt" height="1313pt"
 viewBox="0.00 0.00 1770.50 1313.00" xmlns="http://www.w3.org/2000/svg" xmlns:xlink="http://www.w3.org/1999/xlink">
<g id="graph0" class="graph" transform="scale(1 1) rotate(0) translate(4 1309)">
<title>party_relation</title>
<polygon fill="#ffffff" stroke="transparent" points="-4,4 -4,-1309 1766.5,-1309 1766.5,4 -4,4"/>
<!-- party_relation -->
<g id="node1" class="node">
<title>party_relation</title>
<polygon fill="#efefef" stroke="transparent" points="1502,-1181.5 1502,-1216.5 1699,-1216.5 1699,-1181.5 1502,-1181.5"/>
<polygon fill="none" stroke="#000000" points="1502,-1181.5 1502,-1216.5 1699,-1216.5 1699,-1181.5 1502,-1181.5"/>
<text text-anchor="start" x="1509.8242" y="-1194.3" font-family="Arial Bold" font-size="18.00" fill="#000000">party_relation</text>
<text text-anchor="start" x="1618.8448" y="-1194.3" font-family="Arial" font-size="14.00" fill="#000000">    </text>
<text text-anchor="start" x="1653.0496" y="-1194.3" font-family="Arial" font-size="14.00" fill="#666666">[table]</text>
<polygon fill="none" stroke="#000000" points="1502,-1151.5 1502,-1181.5 1699,-1181.5 1699,-1151.5 1502,-1151.5"/>
<text text-anchor="start" x="1508.7132" y="-1162.9" font-family="Arial" font-size="14.00" fill="#000000">party_relation_id </text>
<text text-anchor="start" x="1616.0694" y="-1162.9" font-family="Arial" font-size="14.00" fill="#666666">[VARCHAR]</text>
<polygon fill="none" stroke="#000000" points="1502,-1121.5 1502,-1151.5 1699,-1151.5 1699,-1121.5 1502,-1121.5"/>
<text text-anchor="start" x="1509" y="-1132.9" font-family="Arial" font-size="14.00" fill="#000000">party_id </text>
<text text-anchor="start" x="1562.6788" y="-1132.9" font-family="Arial" font-size="14.00" fill="#666666">[VARCHAR]</text>
<polygon fill="none" stroke="#000000" points="1502,-1091.5 1502,-1121.5 1699,-1121.5 1699,-1091.5 1502,-1091.5"/>
<text text-anchor="start" x="1509" y="-1102.9" font-family="Arial" font-size="14.00" fill="#000000">related_party_id </text>
<text text-anchor="start" x="1613.2496" y="-1102.9" font-family="Arial" font-size="14.00" fill="#666666">[VARCHAR]</text>
<polygon fill="none" stroke="#000000" points="1502,-1061.5 1502,-1091.5 1699,-1091.5 1699,-1061.5 1502,-1061.5"/>
<text text-anchor="start" x="1509" y="-1072.9" font-family="Arial" font-size="14.00" fill="#000000">relation_type_id </text>
<text text-anchor="start" x="1611.6956" y="-1072.9" font-family="Arial" font-size="14.00" fill="#666666">[TEXT]</text>
<polygon fill="none" stroke="#000000" points="1502,-1031.5 1502,-1061.5 1699,-1061.5 1699,-1031.5 1502,-1031.5"/>
<text text-anchor="start" x="1509" y="-1042.9" font-family="Arial" font-size="14.00" fill="#000000">elaboration </text>
<text text-anchor="start" x="1582.1332" y="-1042.9" font-family="Arial" font-size="14.00" fill="#666666">[TEXT]</text>
<polygon fill="none" stroke="#000000" points="1502,-1001.5 1502,-1031.5 1699,-1031.5 1699,-1001.5 1502,-1001.5"/>
<text text-anchor="start" x="1509" y="-1012.9" font-family="Arial" font-size="14.00" fill="#000000">created_at </text>
<text text-anchor="start" x="1579.028" y="-1012.9" font-family="Arial" font-size="14.00" fill="#666666">[TIMESTAMPTZ]</text>
<polygon fill="none" stroke="#000000" points="1502,-971.5 1502,-1001.5 1699,-1001.5 1699,-971.5 1502,-971.5"/>
<text text-anchor="start" x="1509" y="-982.9" font-family="Arial" font-size="14.00" fill="#000000">created_by </text>
<text text-anchor="start" x="1582.1374" y="-982.9" font-family="Arial" font-size="14.00" fill="#666666">[TEXT]</text>
<polygon fill="none" stroke="#000000" points="1502,-941.5 1502,-971.5 1699,-971.5 1699,-941.5 1502,-941.5"/>
<text text-anchor="start" x="1509" y="-952.9" font-family="Arial" font-size="14.00" fill="#000000">updated_at </text>
<text text-anchor="start" x="1582.9326" y="-952.9" font-family="Arial" font-size="14.00" fill="#666666">[TIMESTAMPTZ]</text>
<polygon fill="none" stroke="#000000" points="1502,-911.5 1502,-941.5 1699,-941.5 1699,-911.5 1502,-911.5"/>
<text text-anchor="start" x="1509" y="-922.9" font-family="Arial" font-size="14.00" fill="#000000">updated_by </text>
<text text-anchor="start" x="1586.042" y="-922.9" font-family="Arial" font-size="14.00" fill="#666666">[TEXT]</text>
<polygon fill="none" stroke="#000000" points="1502,-881.5 1502,-911.5 1699,-911.5 1699,-881.5 1502,-881.5"/>
<text text-anchor="start" x="1509" y="-892.9" font-family="Arial" font-size="14.00" fill="#000000">deleted_at </text>
<text text-anchor="start" x="1578.2566" y="-892.9" font-family="Arial" font-size="14.00" fill="#666666">[TIMESTAMPTZ]</text>
<polygon fill="none" stroke="#000000" points="1502,-851.5 1502,-881.5 1699,-881.5 1699,-851.5 1502,-851.5"/>
<text text-anchor="start" x="1509" y="-862.9" font-family="Arial" font-size="14.00" fill="#000000">deleted_by </text>
<text text-anchor="start" x="1581.366" y="-862.9" font-family="Arial" font-size="14.00" fill="#666666">[TEXT]</text>
<polygon fill="none" stroke="#000000" points="1502,-821.5 1502,-851.5 1699,-851.5 1699,-821.5 1502,-821.5"/>
<text text-anchor="start" x="1509" y="-832.9" font-family="Arial" font-size="14.00" fill="#000000">activity_log </text>
<text text-anchor="start" x="1582.122" y="-832.9" font-family="Arial" font-size="14.00" fill="#666666">[TEXT]</text>
<polygon fill="none" stroke="#000000" stroke-width="3" points="1500,-820.5 1500,-1218.5 1700,-1218.5 1700,-820.5 1500,-820.5"/>
</g>
<!-- party -->
<g id="node2" class="node">
<title>party</title>
<polygon fill="#efefef" stroke="transparent" points="751,-619.5 751,-654.5 975,-654.5 975,-619.5 751,-619.5"/>
<polygon fill="none" stroke="#000000" points="751,-619.5 751,-654.5 975,-654.5 975,-619.5 751,-619.5"/>
<text text-anchor="start" x="806.8311" y="-632.3" font-family="Arial Bold" font-size="18.00" fill="#000000">party</text>
<text text-anchor="start" x="846.8379" y="-632.3" font-family="Arial" font-size="14.00" fill="#000000">    </text>
<text text-anchor="start" x="881.0427" y="-632.3" font-family="Arial" font-size="14.00" fill="#666666">[table]</text>
<polygon fill="none" stroke="#000000" points="751,-589.5 751,-619.5 975,-619.5 975,-589.5 751,-589.5"/>
<text text-anchor="start" x="758" y="-600.9" font-family="Arial" font-size="14.00" fill="#000000">party_id    </text>
<text text-anchor="start" x="841.993" y="-600.9" font-family="Arial" font-size="14.00" fill="#666666">[VARCHAR]</text>
<polygon fill="none" stroke="#000000" points="751,-559.5 751,-589.5 975,-589.5 975,-559.5 751,-559.5"/>
<text text-anchor="start" x="758" y="-570.9" font-family="Arial" font-size="14.00" fill="#000000">party_type_id    </text>
<text text-anchor="start" x="876.2314" y="-570.9" font-family="Arial" font-size="14.00" fill="#666666">[TEXT]</text>
<polygon fill="none" stroke="#000000" points="751,-529.5 751,-559.5 975,-559.5 975,-529.5 751,-529.5"/>
<text text-anchor="start" x="758" y="-540.9" font-family="Arial" font-size="14.00" fill="#000000">party_name    </text>
<text text-anchor="start" x="866.1122" y="-540.9" font-family="Arial" font-size="14.00" fill="#666666">[TEXT]</text>
<polygon fill="none" stroke="#000000" points="751,-499.5 751,-529.5 975,-529.5 975,-499.5 751,-499.5"/>
<text text-anchor="start" x="758" y="-510.9" font-family="Arial" font-size="14.00" fill="#000000">elaboration    </text>
<text text-anchor="start" x="861.4474" y="-510.9" font-family="Arial" font-size="14.00" fill="#666666">[TEXT]</text>
<polygon fill="none" stroke="#000000" points="751,-469.5 751,-499.5 975,-499.5 975,-469.5 751,-469.5"/>
<text text-anchor="start" x="758" y="-480.9" font-family="Arial" font-size="14.00" fill="#000000">created_at    </text>
<text text-anchor="start" x="858.3422" y="-480.9" font-family="Arial" font-size="14.00" fill="#666666">[TIMESTAMPTZ]</text>
<polygon fill="none" stroke="#000000" points="751,-439.5 751,-469.5 975,-469.5 975,-439.5 751,-439.5"/>
<text text-anchor="start" x="758" y="-450.9" font-family="Arial" font-size="14.00" fill="#000000">created_by    </text>
<text text-anchor="start" x="861.4516" y="-450.9" font-family="Arial" font-size="14.00" fill="#666666">[TEXT]</text>
<polygon fill="none" stroke="#000000" points="751,-409.5 751,-439.5 975,-439.5 975,-409.5 751,-409.5"/>
<text text-anchor="start" x="757.6017" y="-420.9" font-family="Arial" font-size="14.00" fill="#000000">updated_at    </text>
<text text-anchor="start" x="861.8485" y="-420.9" font-family="Arial" font-size="14.00" fill="#666666">[TIMESTAMPTZ]</text>
<polygon fill="none" stroke="#000000" points="751,-379.5 751,-409.5 975,-409.5 975,-379.5 751,-379.5"/>
<text text-anchor="start" x="758" y="-390.9" font-family="Arial" font-size="14.00" fill="#000000">updated_by    </text>
<text text-anchor="start" x="865.3562" y="-390.9" font-family="Arial" font-size="14.00" fill="#666666">[TEXT]</text>
<polygon fill="none" stroke="#000000" points="751,-349.5 751,-379.5 975,-379.5 975,-349.5 751,-349.5"/>
<text text-anchor="start" x="758" y="-360.9" font-family="Arial" font-size="14.00" fill="#000000">deleted_at    </text>
<text text-anchor="start" x="857.5708" y="-360.9" font-family="Arial" font-size="14.00" fill="#666666">[TIMESTAMPTZ]</text>
<polygon fill="none" stroke="#000000" points="751,-319.5 751,-349.5 975,-349.5 975,-319.5 751,-319.5"/>
<text text-anchor="start" x="758" y="-330.9" font-family="Arial" font-size="14.00" fill="#000000">deleted_by    </text>
<text text-anchor="start" x="860.6802" y="-330.9" font-family="Arial" font-size="14.00" fill="#666666">[TEXT]</text>
<polygon fill="none" stroke="#000000" points="751,-289.5 751,-319.5 975,-319.5 975,-289.5 751,-289.5"/>
<text text-anchor="start" x="758" y="-300.9" font-family="Arial" font-size="14.00" fill="#000000">activity_log    </text>
<text text-anchor="start" x="861.4362" y="-300.9" font-family="Arial" font-size="14.00" fill="#666666">[TEXT]</text>
</g>
<!-- party_relation&#45;&gt;party -->
<g id="edge1" class="edge">
<title>party_relation:party_id&#45;&gt;party:party_id</title>
<path fill="none" stroke="#000000" d="M1491.8023,-1134.8528C1419.2383,-1109.5014 1504.0466,-799.1195 1447,-734 1375.33,-652.1877 1083.7651,-604.5 975,-604.5"/>
<polygon fill="#000000" stroke="#000000" points="1492.1279,-1134.9054 1501.2824,-1140.9424 1497.064,-1135.7027 1502,-1136.5 1502,-1136.5 1502,-1136.5 1497.064,-1135.7027 1502.7176,-1132.0576 1492.1279,-1134.9054 1492.1279,-1134.9054"/>
</g>
<!-- party_relation&#45;&gt;party -->
<g id="edge2" class="edge">
<title>party_relation:related_party_id&#45;&gt;party:party_id</title>
<path fill="none" stroke="#000000" d="M1492.1189,-1104.8279C1425.2987,-1080.328 1500.0922,-793.95 1447,-734 1374.8898,-652.5755 1083.7651,-604.5 975,-604.5"/>
<polygon fill="#000000" stroke="#000000" points="1492.1402,-1104.8314 1501.2491,-1110.9369 1497.0701,-1105.6657 1502,-1106.5 1502,-1106.5 1502,-1106.5 1497.0701,-1105.6657 1502.7509,-1102.0631 1492.1402,-1104.8314 1492.1402,-1104.8314"/>
</g>
<!-- party_relation_type -->
<g id="node8" class="node">
<title>party_relation_type</title>
<polygon fill="#efefef" stroke="transparent" points="1481,-499.5 1481,-534.5 1720,-534.5 1720,-499.5 1481,-499.5"/>
<polygon fill="none" stroke="#000000" points="1481,-499.5 1481,-534.5 1720,-534.5 1720,-499.5 1481,-499.5"/>
<text text-anchor="start" x="1487.8138" y="-512.3" font-family="Arial Bold" font-size="18.00" fill="#000000">party_relation_type</text>
<text text-anchor="start" x="1640.8552" y="-512.3" font-family="Arial" font-size="14.00" fill="#000000">    </text>
<text text-anchor="start" x="1675.06" y="-512.3" font-family="Arial" font-size="14.00" fill="#666666">[table]</text>
<polygon fill="none" stroke="#000000" points="1481,-469.5 1481,-499.5 1720,-499.5 1720,-469.5 1481,-469.5"/>
<text text-anchor="start" x="1488" y="-480.9" font-family="Arial" font-size="14.00" fill="#000000">code    </text>
<text text-anchor="start" x="1552.5526" y="-480.9" font-family="Arial" font-size="14.00" fill="#666666">[TEXT]</text>
<polygon fill="none" stroke="#000000" points="1481,-439.5 1481,-469.5 1720,-469.5 1720,-439.5 1481,-439.5"/>
<text text-anchor="start" x="1488" y="-450.9" font-family="Arial" font-size="14.00" fill="#000000">value    </text>
<text text-anchor="start" x="1555.6592" y="-450.9" font-family="Arial" font-size="14.00" fill="#666666">[TEXT]</text>
<polygon fill="none" stroke="#000000" points="1481,-409.5 1481,-439.5 1720,-439.5 1720,-409.5 1481,-409.5"/>
<text text-anchor="start" x="1488" y="-420.9" font-family="Arial" font-size="14.00" fill="#000000">created_at    </text>
<text text-anchor="start" x="1588.3422" y="-420.9" font-family="Arial" font-size="14.00" fill="#666666">[TIMESTAMPTZ]</text>
</g>
<!-- party_relation&#45;&gt;party_relation_type -->
<g id="edge9" class="edge">
<title>party_relation:relation_type_id&#45;&gt;party_relation_type:code</title>
<path fill="none" stroke="#000000" d="M1495.4313,-1068.579C1466.4713,-998.3289 1450.3401,-484.5 1481,-484.5"/>
<polygon fill="#000000" stroke="#000000" points="1495.6166,-1068.8024 1498.5361,-1079.3725 1498.8083,-1072.6512 1502,-1076.5 1502,-1076.5 1502,-1076.5 1498.8083,-1072.6512 1505.4639,-1073.6275 1495.6166,-1068.8024 1495.6166,-1068.8024"/>
</g>
<!-- party_type -->
<g id="node7" class="node">
<title>party_type</title>
<polygon fill="#efefef" stroke="transparent" points="753,-132.5 753,-167.5 973,-167.5 973,-132.5 753,-132.5"/>
<polygon fill="none" stroke="#000000" points="753,-132.5 753,-167.5 973,-167.5 973,-132.5 753,-132.5"/>
<text text-anchor="start" x="784.8207" y="-145.3" font-family="Arial Bold" font-size="18.00" fill="#000000">party_type</text>
<text text-anchor="start" x="868.8483" y="-145.3" font-family="Arial" font-size="14.00" fill="#000000">    </text>
<text text-anchor="start" x="903.0531" y="-145.3" font-family="Arial" font-size="14.00" fill="#666666">[table]</text>
<polygon fill="none" stroke="#000000" points="753,-102.5 753,-132.5 973,-132.5 973,-102.5 753,-102.5"/>
<text text-anchor="start" x="760" y="-113.9" font-family="Arial" font-size="14.00" fill="#000000">code    </text>
<text text-anchor="start" x="824.5526" y="-113.9" font-family="Arial" font-size="14.00" fill="#666666">[TEXT]</text>
<polygon fill="none" stroke="#000000" points="753,-72.5 753,-102.5 973,-102.5 973,-72.5 753,-72.5"/>
<text text-anchor="start" x="760" y="-83.9" font-family="Arial" font-size="14.00" fill="#000000">value    </text>
<text text-anchor="start" x="827.6592" y="-83.9" font-family="Arial" font-size="14.00" fill="#666666">[TEXT]</text>
<polygon fill="none" stroke="#000000" points="753,-42.5 753,-72.5 973,-72.5 973,-42.5 753,-42.5"/>
<text text-anchor="start" x="759.554" y="-53.9" font-family="Arial" font-size="14.00" fill="#000000">created_at    </text>
<text text-anchor="start" x="859.8962" y="-53.9" font-family="Arial" font-size="14.00" fill="#666666">[TIMESTAMPTZ]</text>
</g>
<!-- party&#45;&gt;party_type -->
<g id="edge8" class="edge">
<title>party:party_type_id&#45;&gt;party_type:code</title>
<path fill="none" stroke="#000000" d="M985.2338,-574.1041C1177.986,-559.0134 1172.6419,-117.5 973,-117.5"/>
<polygon fill="#000000" stroke="#000000" points="984.9925,-574.1134 974.826,-570.0034 979.9963,-574.3067 975,-574.5 975,-574.5 975,-574.5 979.9963,-574.3067 975.174,-578.9966 984.9925,-574.1134 984.9925,-574.1134"/>
</g>
<!-- person -->
<g id="node3" class="node">
<title>person</title>
<polygon fill="#efefef" stroke="transparent" points="43,-1226.5 43,-1261.5 269,-1261.5 269,-1226.5 43,-1226.5"/>
<polygon fill="none" stroke="#000000" points="43,-1226.5 43,-1261.5 269,-1261.5 269,-1226.5 43,-1226.5"/>
<text text-anchor="start" x="92.326" y="-1239.3" font-family="Arial Bold" font-size="18.00" fill="#000000">person</text>
<text text-anchor="start" x="147.343" y="-1239.3" font-family="Arial" font-size="14.00" fill="#000000">    </text>
<text text-anchor="start" x="181.5478" y="-1239.3" font-family="Arial" font-size="14.00" fill="#666666">[table]</text>
<polygon fill="none" stroke="#000000" points="43,-1196.5 43,-1226.5 269,-1226.5 269,-1196.5 43,-1196.5"/>
<text text-anchor="start" x="50" y="-1207.9" font-family="Arial" font-size="14.00" fill="#000000">person_id    </text>
<text text-anchor="start" x="145.6676" y="-1207.9" font-family="Arial" font-size="14.00" fill="#666666">[VARCHAR]</text>
<polygon fill="none" stroke="#000000" points="43,-1166.5 43,-1196.5 269,-1196.5 269,-1166.5 43,-1166.5"/>
<text text-anchor="start" x="50" y="-1177.9" font-family="Arial" font-size="14.00" fill="#000000">person_first_name    </text>
<text text-anchor="start" x="200.1178" y="-1177.9" font-family="Arial" font-size="14.00" fill="#666666">[TEXT]</text>
<polygon fill="none" stroke="#000000" points="43,-1136.5 43,-1166.5 269,-1166.5 269,-1136.5 43,-1136.5"/>
<text text-anchor="start" x="49.8247" y="-1147.9" font-family="Arial" font-size="14.00" fill="#000000">person_middle_name    </text>
<text text-anchor="start" x="218.6157" y="-1147.9" font-family="Arial" font-size="14.00" fill="#666666">[TEXT]</text>
<polygon fill="none" stroke="#000000" points="43,-1106.5 43,-1136.5 269,-1136.5 269,-1106.5 43,-1106.5"/>
<text text-anchor="start" x="50" y="-1117.9" font-family="Arial" font-size="14.00" fill="#000000">person_last_name    </text>
<text text-anchor="start" x="199.3492" y="-1117.9" font-family="Arial" font-size="14.00" fill="#666666">[TEXT]</text>
<polygon fill="none" stroke="#000000" points="43,-1076.5 43,-1106.5 269,-1106.5 269,-1076.5 43,-1076.5"/>
<text text-anchor="start" x="50" y="-1087.9" font-family="Arial" font-size="14.00" fill="#000000">honorific_prefix    </text>
<text text-anchor="start" x="179.1052" y="-1087.9" font-family="Arial" font-size="14.00" fill="#666666">[TEXT]</text>
<polygon fill="none" stroke="#000000" points="43,-1046.5 43,-1076.5 269,-1076.5 269,-1046.5 43,-1046.5"/>
<text text-anchor="start" x="50" y="-1057.9" font-family="Arial" font-size="14.00" fill="#000000">honorific_suffix    </text>
<text text-anchor="start" x="177.5526" y="-1057.9" font-family="Arial" font-size="14.00" fill="#666666">[TEXT]</text>
<polygon fill="none" stroke="#000000" points="43,-1016.5 43,-1046.5 269,-1046.5 269,-1016.5 43,-1016.5"/>
<text text-anchor="start" x="50" y="-1027.9" font-family="Arial" font-size="14.00" fill="#000000">gender_id    </text>
<text text-anchor="start" x="146.4502" y="-1027.9" font-family="Arial" font-size="14.00" fill="#666666">[TEXT]</text>
<polygon fill="none" stroke="#000000" points="43,-986.5 43,-1016.5 269,-1016.5 269,-986.5 43,-986.5"/>
<text text-anchor="start" x="50" y="-997.9" font-family="Arial" font-size="14.00" fill="#000000">elaboration    </text>
<text text-anchor="start" x="153.4474" y="-997.9" font-family="Arial" font-size="14.00" fill="#666666">[TEXT]</text>
<polygon fill="none" stroke="#000000" points="43,-956.5 43,-986.5 269,-986.5 269,-956.5 43,-956.5"/>
<text text-anchor="start" x="50" y="-967.9" font-family="Arial" font-size="14.00" fill="#000000">created_at    </text>
<text text-anchor="start" x="150.3422" y="-967.9" font-family="Arial" font-size="14.00" fill="#666666">[TIMESTAMPTZ]</text>
<polygon fill="none" stroke="#000000" points="43,-926.5 43,-956.5 269,-956.5 269,-926.5 43,-926.5"/>
<text text-anchor="start" x="50" y="-937.9" font-family="Arial" font-size="14.00" fill="#000000">created_by    </text>
<text text-anchor="start" x="153.4516" y="-937.9" font-family="Arial" font-size="14.00" fill="#666666">[TEXT]</text>
<polygon fill="none" stroke="#000000" points="43,-896.5 43,-926.5 269,-926.5 269,-896.5 43,-896.5"/>
<text text-anchor="start" x="50" y="-907.9" font-family="Arial" font-size="14.00" fill="#000000">updated_at    </text>
<text text-anchor="start" x="154.2468" y="-907.9" font-family="Arial" font-size="14.00" fill="#666666">[TIMESTAMPTZ]</text>
<polygon fill="none" stroke="#000000" points="43,-866.5 43,-896.5 269,-896.5 269,-866.5 43,-866.5"/>
<text text-anchor="start" x="50" y="-877.9" font-family="Arial" font-size="14.00" fill="#000000">updated_by    </text>
<text text-anchor="start" x="157.3562" y="-877.9" font-family="Arial" font-size="14.00" fill="#666666">[TEXT]</text>
<polygon fill="none" stroke="#000000" points="43,-836.5 43,-866.5 269,-866.5 269,-836.5 43,-836.5"/>
<text text-anchor="start" x="50" y="-847.9" font-family="Arial" font-size="14.00" fill="#000000">deleted_at    </text>
<text text-anchor="start" x="149.5708" y="-847.9" font-family="Arial" font-size="14.00" fill="#666666">[TIMESTAMPTZ]</text>
<polygon fill="none" stroke="#000000" points="43,-806.5 43,-836.5 269,-836.5 269,-806.5 43,-806.5"/>
<text text-anchor="start" x="50" y="-817.9" font-family="Arial" font-size="14.00" fill="#000000">deleted_by    </text>
<text text-anchor="start" x="152.6802" y="-817.9" font-family="Arial" font-size="14.00" fill="#666666">[TEXT]</text>
<polygon fill="none" stroke="#000000" points="43,-776.5 43,-806.5 269,-806.5 269,-776.5 43,-776.5"/>
<text text-anchor="start" x="50" y="-787.9" font-family="Arial" font-size="14.00" fill="#000000">activity_log    </text>
<text text-anchor="start" x="153.4362" y="-787.9" font-family="Arial" font-size="14.00" fill="#666666">[TEXT]</text>
</g>
<!-- person&#45;&gt;party -->
<g id="edge3" class="edge">
<title>person:person_id&#45;&gt;party:party_id</title>
<path fill="none" stroke="#000000" d="M279.1566,-1210.1425C367.5564,-1184.8362 255.1115,-813.2861 321,-734 384.7824,-657.2483 651.2051,-604.5 751,-604.5"/>
<polygon fill="#000000" stroke="#000000" points="278.9119,-1210.1751 268.4038,-1207.0397 273.9559,-1210.8376 269,-1211.5 269,-1211.5 269,-1211.5 273.9559,-1210.8376 269.5962,-1215.9603 278.9119,-1210.1751 278.9119,-1210.1751"/>
</g>
<!-- organization -->
<g id="node4" class="node">
<title>organization</title>
<polygon fill="#efefef" stroke="transparent" points="374,-1226.5 374,-1261.5 633,-1261.5 633,-1226.5 374,-1226.5"/>
<polygon fill="none" stroke="#000000" points="374,-1226.5 374,-1261.5 633,-1261.5 633,-1226.5 374,-1226.5"/>
<text text-anchor="start" x="418.3214" y="-1239.3" font-family="Arial Bold" font-size="18.00" fill="#000000">organization</text>
<text text-anchor="start" x="516.3476" y="-1239.3" font-family="Arial" font-size="14.00" fill="#000000">    </text>
<text text-anchor="start" x="550.5524" y="-1239.3" font-family="Arial" font-size="14.00" fill="#666666">[table]</text>
<polygon fill="none" stroke="#000000" points="374,-1196.5 374,-1226.5 633,-1226.5 633,-1196.5 374,-1196.5"/>
<text text-anchor="start" x="381" y="-1207.9" font-family="Arial" font-size="14.00" fill="#000000">organization_id    </text>
<text text-anchor="start" x="510.1192" y="-1207.9" font-family="Arial" font-size="14.00" fill="#666666">[VARCHAR]</text>
<polygon fill="none" stroke="#000000" points="374,-1166.5 374,-1196.5 633,-1196.5 633,-1166.5 374,-1166.5"/>
<text text-anchor="start" x="381" y="-1177.9" font-family="Arial" font-size="14.00" fill="#000000">name    </text>
<text text-anchor="start" x="450.2132" y="-1177.9" font-family="Arial" font-size="14.00" fill="#666666">[TEXT]</text>
<polygon fill="none" stroke="#000000" points="374,-1136.5 374,-1166.5 633,-1166.5 633,-1136.5 374,-1136.5"/>
<text text-anchor="start" x="381" y="-1147.9" font-family="Arial" font-size="14.00" fill="#000000">alias    </text>
<text text-anchor="start" x="443.9832" y="-1147.9" font-family="Arial" font-size="14.00" fill="#666666">[TEXT]</text>
<polygon fill="none" stroke="#000000" points="374,-1106.5 374,-1136.5 633,-1136.5 633,-1106.5 374,-1106.5"/>
<text text-anchor="start" x="381" y="-1117.9" font-family="Arial" font-size="14.00" fill="#000000">description    </text>
<text text-anchor="start" x="482.8822" y="-1117.9" font-family="Arial" font-size="14.00" fill="#666666">[TEXT]</text>
<polygon fill="none" stroke="#000000" points="374,-1076.5 374,-1106.5 633,-1106.5 633,-1076.5 374,-1076.5"/>
<text text-anchor="start" x="381" y="-1087.9" font-family="Arial" font-size="14.00" fill="#000000">license    </text>
<text text-anchor="start" x="458.7658" y="-1087.9" font-family="Arial" font-size="14.00" fill="#666666">[TEXT]</text>
<polygon fill="none" stroke="#000000" points="374,-1046.5 374,-1076.5 633,-1076.5 633,-1046.5 374,-1046.5"/>
<text text-anchor="start" x="381" y="-1057.9" font-family="Arial" font-size="14.00" fill="#000000">federal_tax_id_num    </text>
<text text-anchor="start" x="538.129" y="-1057.9" font-family="Arial" font-size="14.00" fill="#666666">[TEXT]</text>
<polygon fill="none" stroke="#000000" points="374,-1016.5 374,-1046.5 633,-1046.5 633,-1016.5 374,-1016.5"/>
<text text-anchor="start" x="380.9979" y="-1027.9" font-family="Arial" font-size="14.00" fill="#000000">registration_date    </text>
<text text-anchor="start" x="519.4523" y="-1027.9" font-family="Arial" font-size="14.00" fill="#666666">[TIMESTAMPTZ]</text>
<polygon fill="none" stroke="#000000" points="374,-986.5 374,-1016.5 633,-1016.5 633,-986.5 374,-986.5"/>
<text text-anchor="start" x="381" y="-997.9" font-family="Arial" font-size="14.00" fill="#000000">elaboration    </text>
<text text-anchor="start" x="484.4474" y="-997.9" font-family="Arial" font-size="14.00" fill="#666666">[TEXT]</text>
<polygon fill="none" stroke="#000000" points="374,-956.5 374,-986.5 633,-986.5 633,-956.5 374,-956.5"/>
<text text-anchor="start" x="381" y="-967.9" font-family="Arial" font-size="14.00" fill="#000000">created_at    </text>
<text text-anchor="start" x="481.3422" y="-967.9" font-family="Arial" font-size="14.00" fill="#666666">[TIMESTAMPTZ]</text>
<polygon fill="none" stroke="#000000" points="374,-926.5 374,-956.5 633,-956.5 633,-926.5 374,-926.5"/>
<text text-anchor="start" x="381" y="-937.9" font-family="Arial" font-size="14.00" fill="#000000">created_by    </text>
<text text-anchor="start" x="484.4516" y="-937.9" font-family="Arial" font-size="14.00" fill="#666666">[TEXT]</text>
<polygon fill="none" stroke="#000000" points="374,-896.5 374,-926.5 633,-926.5 633,-896.5 374,-896.5"/>
<text text-anchor="start" x="381" y="-907.9" font-family="Arial" font-size="14.00" fill="#000000">updated_at    </text>
<text text-anchor="start" x="485.2468" y="-907.9" font-family="Arial" font-size="14.00" fill="#666666">[TIMESTAMPTZ]</text>
<polygon fill="none" stroke="#000000" points="374,-866.5 374,-896.5 633,-896.5 633,-866.5 374,-866.5"/>
<text text-anchor="start" x="381" y="-877.9" font-family="Arial" font-size="14.00" fill="#000000">updated_by    </text>
<text text-anchor="start" x="488.3562" y="-877.9" font-family="Arial" font-size="14.00" fill="#666666">[TEXT]</text>
<polygon fill="none" stroke="#000000" points="374,-836.5 374,-866.5 633,-866.5 633,-836.5 374,-836.5"/>
<text text-anchor="start" x="381" y="-847.9" font-family="Arial" font-size="14.00" fill="#000000">deleted_at    </text>
<text text-anchor="start" x="480.5708" y="-847.9" font-family="Arial" font-size="14.00" fill="#666666">[TIMESTAMPTZ]</text>
<polygon fill="none" stroke="#000000" points="374,-806.5 374,-836.5 633,-836.5 633,-806.5 374,-806.5"/>
<text text-anchor="start" x="381" y="-817.9" font-family="Arial" font-size="14.00" fill="#000000">deleted_by    </text>
<text text-anchor="start" x="483.6802" y="-817.9" font-family="Arial" font-size="14.00" fill="#666666">[TEXT]</text>
<polygon fill="none" stroke="#000000" points="374,-776.5 374,-806.5 633,-806.5 633,-776.5 374,-776.5"/>
<text text-anchor="start" x="381" y="-787.9" font-family="Arial" font-size="14.00" fill="#000000">activity_log    </text>
<text text-anchor="start" x="484.4362" y="-787.9" font-family="Arial" font-size="14.00" fill="#666666">[TEXT]</text>
</g>
<!-- organization&#45;&gt;party -->
<g id="edge4" class="edge">
<title>organization:organization_id&#45;&gt;party:party_id</title>
<path fill="none" stroke="#000000" d="M641.9468,-1206.9889C684.4729,-1161.2462 670.6675,-782.0457 685,-734 703.4666,-672.0963 686.4006,-604.5 751,-604.5"/>
<polygon fill="#000000" stroke="#000000" points="641.9292,-1206.9978 630.974,-1207.4819 637.4646,-1209.2489 633,-1211.5 633,-1211.5 633,-1211.5 637.4646,-1209.2489 635.026,-1215.5181 641.9292,-1206.9978 641.9292,-1206.9978"/>
</g>
<!-- organization_role -->
<g id="node5" class="node">
<title>organization_role</title>
<polygon fill="#efefef" stroke="transparent" points="737,-1181.5 737,-1216.5 989,-1216.5 989,-1181.5 737,-1181.5"/>
<polygon fill="none" stroke="#000000" points="737,-1181.5 737,-1216.5 989,-1216.5 989,-1181.5 737,-1181.5"/>
<text text-anchor="start" x="757.8189" y="-1194.3" font-family="Arial Bold" font-size="18.00" fill="#000000">organization_role</text>
<text text-anchor="start" x="895.8501" y="-1194.3" font-family="Arial" font-size="14.00" fill="#000000">    </text>
<text text-anchor="start" x="930.0549" y="-1194.3" font-family="Arial" font-size="14.00" fill="#666666">[table]</text>
<polygon fill="none" stroke="#000000" points="737,-1151.5 737,-1181.5 989,-1181.5 989,-1151.5 737,-1151.5"/>
<text text-anchor="start" x="744" y="-1162.9" font-family="Arial" font-size="14.00" fill="#000000">organization_role_id    </text>
<text text-anchor="start" x="904.2342" y="-1162.9" font-family="Arial" font-size="14.00" fill="#666666">[VARCHAR]</text>
<polygon fill="none" stroke="#000000" points="737,-1121.5 737,-1151.5 989,-1151.5 989,-1121.5 737,-1121.5"/>
<text text-anchor="start" x="744" y="-1132.9" font-family="Arial" font-size="14.00" fill="#000000">person_id    </text>
<text text-anchor="start" x="839.6676" y="-1132.9" font-family="Arial" font-size="14.00" fill="#666666">[VARCHAR]</text>
<polygon fill="none" stroke="#000000" points="737,-1091.5 737,-1121.5 989,-1121.5 989,-1091.5 737,-1091.5"/>
<text text-anchor="start" x="744" y="-1102.9" font-family="Arial" font-size="14.00" fill="#000000">organization_id    </text>
<text text-anchor="start" x="873.1192" y="-1102.9" font-family="Arial" font-size="14.00" fill="#666666">[VARCHAR]</text>
<polygon fill="none" stroke="#000000" points="737,-1061.5 737,-1091.5 989,-1091.5 989,-1061.5 737,-1061.5"/>
<text text-anchor="start" x="743.9839" y="-1072.9" font-family="Arial" font-size="14.00" fill="#000000">organization_role_type_id    </text>
<text text-anchor="start" x="938.4565" y="-1072.9" font-family="Arial" font-size="14.00" fill="#666666">[TEXT]</text>
<polygon fill="none" stroke="#000000" points="737,-1031.5 737,-1061.5 989,-1061.5 989,-1031.5 737,-1031.5"/>
<text text-anchor="start" x="744" y="-1042.9" font-family="Arial" font-size="14.00" fill="#000000">elaboration    </text>
<text text-anchor="start" x="847.4474" y="-1042.9" font-family="Arial" font-size="14.00" fill="#666666">[TEXT]</text>
<polygon fill="none" stroke="#000000" points="737,-1001.5 737,-1031.5 989,-1031.5 989,-1001.5 737,-1001.5"/>
<text text-anchor="start" x="744" y="-1012.9" font-family="Arial" font-size="14.00" fill="#000000">created_at    </text>
<text text-anchor="start" x="844.3422" y="-1012.9" font-family="Arial" font-size="14.00" fill="#666666">[TIMESTAMPTZ]</text>
<polygon fill="none" stroke="#000000" points="737,-971.5 737,-1001.5 989,-1001.5 989,-971.5 737,-971.5"/>
<text text-anchor="start" x="744" y="-982.9" font-family="Arial" font-size="14.00" fill="#000000">created_by    </text>
<text text-anchor="start" x="847.4516" y="-982.9" font-family="Arial" font-size="14.00" fill="#666666">[TEXT]</text>
<polygon fill="none" stroke="#000000" points="737,-941.5 737,-971.5 989,-971.5 989,-941.5 737,-941.5"/>
<text text-anchor="start" x="744" y="-952.9" font-family="Arial" font-size="14.00" fill="#000000">updated_at    </text>
<text text-anchor="start" x="848.2468" y="-952.9" font-family="Arial" font-size="14.00" fill="#666666">[TIMESTAMPTZ]</text>
<polygon fill="none" stroke="#000000" points="737,-911.5 737,-941.5 989,-941.5 989,-911.5 737,-911.5"/>
<text text-anchor="start" x="744" y="-922.9" font-family="Arial" font-size="14.00" fill="#000000">updated_by    </text>
<text text-anchor="start" x="851.3562" y="-922.9" font-family="Arial" font-size="14.00" fill="#666666">[TEXT]</text>
<polygon fill="none" stroke="#000000" points="737,-881.5 737,-911.5 989,-911.5 989,-881.5 737,-881.5"/>
<text text-anchor="start" x="744" y="-892.9" font-family="Arial" font-size="14.00" fill="#000000">deleted_at    </text>
<text text-anchor="start" x="843.5708" y="-892.9" font-family="Arial" font-size="14.00" fill="#666666">[TIMESTAMPTZ]</text>
<polygon fill="none" stroke="#000000" points="737,-851.5 737,-881.5 989,-881.5 989,-851.5 737,-851.5"/>
<text text-anchor="start" x="744" y="-862.9" font-family="Arial" font-size="14.00" fill="#000000">deleted_by    </text>
<text text-anchor="start" x="846.6802" y="-862.9" font-family="Arial" font-size="14.00" fill="#666666">[TEXT]</text>
<polygon fill="none" stroke="#000000" points="737,-821.5 737,-851.5 989,-851.5 989,-821.5 737,-821.5"/>
<text text-anchor="start" x="744" y="-832.9" font-family="Arial" font-size="14.00" fill="#000000">activity_log    </text>
<text text-anchor="start" x="847.4362" y="-832.9" font-family="Arial" font-size="14.00" fill="#666666">[TEXT]</text>
</g>
<!-- organization_role&#45;&gt;party -->
<g id="edge5" class="edge">
<title>organization_role:organization_id&#45;&gt;party:party_id</title>
<path fill="none" stroke="#000000" d="M998.0952,-1101.5315C1043.0153,-1049.3954 1027.53,-604.5 975,-604.5"/>
<polygon fill="#000000" stroke="#000000" points="997.7759,-1101.7059 986.8427,-1102.5508 993.388,-1104.1029 989,-1106.5 989,-1106.5 989,-1106.5 993.388,-1104.1029 991.1573,-1110.4492 997.7759,-1101.7059 997.7759,-1101.7059"/>
</g>
<!-- organization_role&#45;&gt;party -->
<g id="edge6" class="edge">
<title>organization_role:person_id&#45;&gt;party:party_id</title>
<path fill="none" stroke="#000000" d="M998.0497,-1131.9008C1046.4653,-1079.9036 1030.8978,-604.5 975,-604.5"/>
<polygon fill="#000000" stroke="#000000" points="997.9148,-1131.9693 986.9612,-1132.4883 993.4574,-1134.2347 989,-1136.5 989,-1136.5 989,-1136.5 993.4574,-1134.2347 991.0388,-1140.5117 997.9148,-1131.9693 997.9148,-1131.9693"/>
</g>
<!-- device_party_relationship -->
<g id="node6" class="node">
<title>device_party_relationship</title>
<polygon fill="#efefef" stroke="transparent" points="1094,-1166.5 1094,-1201.5 1395,-1201.5 1395,-1166.5 1094,-1166.5"/>
<polygon fill="none" stroke="#000000" points="1094,-1166.5 1094,-1201.5 1395,-1201.5 1395,-1166.5 1094,-1166.5"/>
<text text-anchor="start" x="1106.3114" y="-1179.3" font-family="Arial Bold" font-size="18.00" fill="#000000">device_party_relationship</text>
<text text-anchor="start" x="1310.3576" y="-1179.3" font-family="Arial" font-size="14.00" fill="#000000">    </text>
<text text-anchor="start" x="1344.5624" y="-1179.3" font-family="Arial" font-size="14.00" fill="#666666">[table]</text>
<polygon fill="none" stroke="#000000" points="1094,-1136.5 1094,-1166.5 1395,-1166.5 1395,-1136.5 1094,-1136.5"/>
<text text-anchor="start" x="1100.6017" y="-1147.9" font-family="Arial" font-size="14.00" fill="#000000">device_party_relationship_id    </text>
<text text-anchor="start" x="1312.1809" y="-1147.9" font-family="Arial" font-size="14.00" fill="#666666">[VARCHAR]</text>
<polygon fill="none" stroke="#000000" points="1094,-1106.5 1094,-1136.5 1395,-1136.5 1395,-1106.5 1094,-1106.5"/>
<text text-anchor="start" x="1101" y="-1117.9" font-family="Arial" font-size="14.00" fill="#000000">device_id    </text>
<text text-anchor="start" x="1194.331" y="-1117.9" font-family="Arial" font-size="14.00" fill="#666666">[VARCHAR]</text>
<polygon fill="none" stroke="#000000" points="1094,-1076.5 1094,-1106.5 1395,-1106.5 1395,-1076.5 1094,-1076.5"/>
<text text-anchor="start" x="1101" y="-1087.9" font-family="Arial" font-size="14.00" fill="#000000">party_id    </text>
<text text-anchor="start" x="1184.993" y="-1087.9" font-family="Arial" font-size="14.00" fill="#666666">[VARCHAR]</text>
<polygon fill="none" stroke="#000000" points="1094,-1046.5 1094,-1076.5 1395,-1076.5 1395,-1046.5 1094,-1046.5"/>
<text text-anchor="start" x="1101" y="-1057.9" font-family="Arial" font-size="14.00" fill="#000000">elaboration    </text>
<text text-anchor="start" x="1204.4474" y="-1057.9" font-family="Arial" font-size="14.00" fill="#666666">[TEXT]</text>
<polygon fill="none" stroke="#000000" points="1094,-1016.5 1094,-1046.5 1395,-1046.5 1395,-1016.5 1094,-1016.5"/>
<text text-anchor="start" x="1101" y="-1027.9" font-family="Arial" font-size="14.00" fill="#000000">created_at    </text>
<text text-anchor="start" x="1201.3422" y="-1027.9" font-family="Arial" font-size="14.00" fill="#666666">[TIMESTAMPTZ]</text>
<polygon fill="none" stroke="#000000" points="1094,-986.5 1094,-1016.5 1395,-1016.5 1395,-986.5 1094,-986.5"/>
<text text-anchor="start" x="1101" y="-997.9" font-family="Arial" font-size="14.00" fill="#000000">created_by    </text>
<text text-anchor="start" x="1204.4516" y="-997.9" font-family="Arial" font-size="14.00" fill="#666666">[TEXT]</text>
<polygon fill="none" stroke="#000000" points="1094,-956.5 1094,-986.5 1395,-986.5 1395,-956.5 1094,-956.5"/>
<text text-anchor="start" x="1101" y="-967.9" font-family="Arial" font-size="14.00" fill="#000000">updated_at    </text>
<text text-anchor="start" x="1205.2468" y="-967.9" font-family="Arial" font-size="14.00" fill="#666666">[TIMESTAMPTZ]</text>
<polygon fill="none" stroke="#000000" points="1094,-926.5 1094,-956.5 1395,-956.5 1395,-926.5 1094,-926.5"/>
<text text-anchor="start" x="1101" y="-937.9" font-family="Arial" font-size="14.00" fill="#000000">updated_by    </text>
<text text-anchor="start" x="1208.3562" y="-937.9" font-family="Arial" font-size="14.00" fill="#666666">[TEXT]</text>
<polygon fill="none" stroke="#000000" points="1094,-896.5 1094,-926.5 1395,-926.5 1395,-896.5 1094,-896.5"/>
<text text-anchor="start" x="1101" y="-907.9" font-family="Arial" font-size="14.00" fill="#000000">deleted_at    </text>
<text text-anchor="start" x="1200.5708" y="-907.9" font-family="Arial" font-size="14.00" fill="#666666">[TIMESTAMPTZ]</text>
<polygon fill="none" stroke="#000000" points="1094,-866.5 1094,-896.5 1395,-896.5 1395,-866.5 1094,-866.5"/>
<text text-anchor="start" x="1101" y="-877.9" font-family="Arial" font-size="14.00" fill="#000000">deleted_by    </text>
<text text-anchor="start" x="1203.6802" y="-877.9" font-family="Arial" font-size="14.00" fill="#666666">[TEXT]</text>
<polygon fill="none" stroke="#000000" points="1094,-836.5 1094,-866.5 1395,-866.5 1395,-836.5 1094,-836.5"/>
<text text-anchor="start" x="1101" y="-847.9" font-family="Arial" font-size="14.00" fill="#000000">activity_log    </text>
<text text-anchor="start" x="1204.4362" y="-847.9" font-family="Arial" font-size="14.00" fill="#666666">[TEXT]</text>
</g>
<!-- device_party_relationship&#45;&gt;party -->
<g id="edge7" class="edge">
<title>device_party_relationship:party_id&#45;&gt;party:party_id</title>
<path fill="none" stroke="#000000" d="M1083.9573,-1089.8429C1018.1835,-1066.6668 1064.3454,-807.066 1041,-734 1021.3389,-672.4652 1039.5994,-604.5 975,-604.5"/>
<polygon fill="#000000" stroke="#000000" points="1084.1334,-1089.8719 1093.2673,-1095.94 1089.0667,-1090.6859 1094,-1091.5 1094,-1091.5 1094,-1091.5 1089.0667,-1090.6859 1094.7327,-1087.06 1084.1334,-1089.8719 1084.1334,-1089.8719"/>
</g>
</g>
</svg>
