<?xml version="1.0" encoding="UTF-8" standalone="no"?>
<!DOCTYPE svg PUBLIC "-//W3C//DTD SVG 1.1//EN"
 "http://www.w3.org/Graphics/SVG/1.1/DTD/svg11.dtd">
<!-- Generated by graphviz version 12.1.2 (20240928.0832)
 -->
<!-- Title: party_relation Pages: 1 -->
<svg width="1609pt" height="1678pt"
 viewBox="0.00 0.00 1608.55 1678.00" xmlns="http://www.w3.org/2000/svg" xmlns:xlink="http://www.w3.org/1999/xlink">
<g id="graph0" class="graph" transform="scale(1 1) rotate(0) translate(4 1674)">
<title>party_relation</title>
<polygon fill="white" stroke="none" points="-4,4 -4,-1674 1604.55,-1674 1604.55,4 -4,4"/>
<!-- party_relation -->
<g id="node1" class="node">
<title>party_relation</title>
<polygon fill="#efefef" stroke="none" points="1346.43,-1483.4 1346.43,-1519 1544.06,-1519 1544.06,-1483.4 1346.43,-1483.4"/>
<polygon fill="none" stroke="black" points="1346.43,-1483.4 1346.43,-1519 1544.06,-1519 1544.06,-1483.4 1346.43,-1483.4"/>
<text text-anchor="start" x="1360.14" y="-1496.8" font-family="Arial Bold" font-size="18.00">party_relation</text>
<text text-anchor="start" x="1461.1" y="-1496.8" font-family="Arial" font-size="14.00">    </text>
<text text-anchor="start" x="1492.21" y="-1496.8" font-family="Arial" font-size="14.00" fill="#666666">[table]</text>
<polygon fill="none" stroke="black" points="1346.43,-1452.6 1346.43,-1483.4 1544.06,-1483.4 1544.06,-1452.6 1346.43,-1452.6"/>
<text text-anchor="start" x="1353.43" y="-1464.8" font-family="Arial" font-size="14.00">party_relation_id </text>
<text text-anchor="start" x="1460.83" y="-1464.8" font-family="Arial" font-size="14.00" fill="#666666">[VARCHAR]</text>
<polygon fill="none" stroke="black" points="1346.43,-1421.8 1346.43,-1452.6 1544.06,-1452.6 1544.06,-1421.8 1346.43,-1421.8"/>
<text text-anchor="start" x="1353.43" y="-1434" font-family="Arial" font-size="14.00">party_id </text>
<text text-anchor="start" x="1407.12" y="-1434" font-family="Arial" font-size="14.00" fill="#666666">[VARCHAR]</text>
<polygon fill="none" stroke="black" points="1346.43,-1391 1346.43,-1421.8 1544.06,-1421.8 1544.06,-1391 1346.43,-1391"/>
<text text-anchor="start" x="1353.43" y="-1403.2" font-family="Arial" font-size="14.00">related_party_id </text>
<text text-anchor="start" x="1457.72" y="-1403.2" font-family="Arial" font-size="14.00" fill="#666666">[VARCHAR]</text>
<polygon fill="none" stroke="black" points="1346.43,-1360.2 1346.43,-1391 1544.06,-1391 1544.06,-1360.2 1346.43,-1360.2"/>
<text text-anchor="start" x="1353.43" y="-1372.4" font-family="Arial" font-size="14.00">relation_type_id </text>
<text text-anchor="start" x="1456.16" y="-1372.4" font-family="Arial" font-size="14.00" fill="#666666">[ULID]</text>
<polygon fill="none" stroke="black" points="1346.43,-1329.4 1346.43,-1360.2 1544.06,-1360.2 1544.06,-1329.4 1346.43,-1329.4"/>
<text text-anchor="start" x="1353.43" y="-1341.6" font-family="Arial" font-size="14.00">elaboration </text>
<text text-anchor="start" x="1426.59" y="-1341.6" font-family="Arial" font-size="14.00" fill="#666666">[TEXT]</text>
<polygon fill="none" stroke="black" points="1346.43,-1298.6 1346.43,-1329.4 1544.06,-1329.4 1544.06,-1298.6 1346.43,-1298.6"/>
<text text-anchor="start" x="1353.43" y="-1310.8" font-family="Arial" font-size="14.00">created_at </text>
<text text-anchor="start" x="1423.48" y="-1310.8" font-family="Arial" font-size="14.00" fill="#666666">[TIMESTAMPTZ]</text>
<polygon fill="none" stroke="black" points="1346.43,-1267.8 1346.43,-1298.6 1544.06,-1298.6 1544.06,-1267.8 1346.43,-1267.8"/>
<text text-anchor="start" x="1353.43" y="-1280" font-family="Arial" font-size="14.00">created_by </text>
<text text-anchor="start" x="1426.59" y="-1280" font-family="Arial" font-size="14.00" fill="#666666">[TEXT]</text>
<polygon fill="none" stroke="black" points="1346.43,-1237 1346.43,-1267.8 1544.06,-1267.8 1544.06,-1237 1346.43,-1237"/>
<text text-anchor="start" x="1353.43" y="-1249.2" font-family="Arial" font-size="14.00">updated_at </text>
<text text-anchor="start" x="1427.39" y="-1249.2" font-family="Arial" font-size="14.00" fill="#666666">[TIMESTAMPTZ]</text>
<polygon fill="none" stroke="black" points="1346.43,-1206.2 1346.43,-1237 1544.06,-1237 1544.06,-1206.2 1346.43,-1206.2"/>
<text text-anchor="start" x="1353.43" y="-1218.4" font-family="Arial" font-size="14.00">updated_by </text>
<text text-anchor="start" x="1430.5" y="-1218.4" font-family="Arial" font-size="14.00" fill="#666666">[TEXT]</text>
<polygon fill="none" stroke="black" points="1346.43,-1175.4 1346.43,-1206.2 1544.06,-1206.2 1544.06,-1175.4 1346.43,-1175.4"/>
<text text-anchor="start" x="1353.43" y="-1187.6" font-family="Arial" font-size="14.00">deleted_at </text>
<text text-anchor="start" x="1422.71" y="-1187.6" font-family="Arial" font-size="14.00" fill="#666666">[TIMESTAMPTZ]</text>
<polygon fill="none" stroke="black" points="1346.43,-1144.6 1346.43,-1175.4 1544.06,-1175.4 1544.06,-1144.6 1346.43,-1144.6"/>
<text text-anchor="start" x="1353.43" y="-1156.8" font-family="Arial" font-size="14.00">deleted_by </text>
<text text-anchor="start" x="1425.82" y="-1156.8" font-family="Arial" font-size="14.00" fill="#666666">[TEXT]</text>
<polygon fill="none" stroke="black" points="1346.43,-1113.8 1346.43,-1144.6 1544.06,-1144.6 1544.06,-1113.8 1346.43,-1113.8"/>
<text text-anchor="start" x="1353.43" y="-1126" font-family="Arial" font-size="14.00">activity_log </text>
<text text-anchor="start" x="1426.57" y="-1126" font-family="Arial" font-size="14.00" fill="#666666">[TEXT]</text>
<polygon fill="none" stroke="black" stroke-width="3" points="1344.93,-1112.3 1344.93,-1520.5 1545.56,-1520.5 1545.56,-1112.3 1344.93,-1112.3"/>
</g>
<!-- party -->
<g id="node2" class="node">
<title>party</title>
<polygon fill="#efefef" stroke="none" points="655.99,-848 655.99,-883.6 850.5,-883.6 850.5,-848 655.99,-848"/>
<polygon fill="none" stroke="black" points="655.99,-848 655.99,-883.6 850.5,-883.6 850.5,-848 655.99,-848"/>
<text text-anchor="start" x="700.12" y="-861.4" font-family="Arial Bold" font-size="18.00">party</text>
<text text-anchor="start" x="737.11" y="-861.4" font-family="Arial" font-size="14.00">    </text>
<text text-anchor="start" x="768.23" y="-861.4" font-family="Arial" font-size="14.00" fill="#666666">[table]</text>
<polygon fill="none" stroke="black" points="655.99,-817.2 655.99,-848 850.5,-848 850.5,-817.2 655.99,-817.2"/>
<text text-anchor="start" x="662.99" y="-829.4" font-family="Arial" font-size="14.00">party_id </text>
<text text-anchor="start" x="716.69" y="-829.4" font-family="Arial" font-size="14.00" fill="#666666">[VARCHAR]</text>
<polygon fill="none" stroke="black" points="655.99,-786.4 655.99,-817.2 850.5,-817.2 850.5,-786.4 655.99,-786.4"/>
<text text-anchor="start" x="662.99" y="-798.6" font-family="Arial" font-size="14.00">party_type_id </text>
<text text-anchor="start" x="750.93" y="-798.6" font-family="Arial" font-size="14.00" fill="#666666">[ULID]</text>
<polygon fill="none" stroke="black" points="655.99,-755.6 655.99,-786.4 850.5,-786.4 850.5,-755.6 655.99,-755.6"/>
<text text-anchor="start" x="662.99" y="-767.8" font-family="Arial" font-size="14.00">party_name </text>
<text text-anchor="start" x="740.81" y="-767.8" font-family="Arial" font-size="14.00" fill="#666666">[TEXT]</text>
<polygon fill="none" stroke="black" points="655.99,-724.8 655.99,-755.6 850.5,-755.6 850.5,-724.8 655.99,-724.8"/>
<text text-anchor="start" x="662.99" y="-737" font-family="Arial" font-size="14.00">elaboration </text>
<text text-anchor="start" x="736.15" y="-737" font-family="Arial" font-size="14.00" fill="#666666">[TEXT]</text>
<polygon fill="none" stroke="black" points="655.99,-694 655.99,-724.8 850.5,-724.8 850.5,-694 655.99,-694"/>
<text text-anchor="start" x="662.99" y="-706.2" font-family="Arial" font-size="14.00">created_at </text>
<text text-anchor="start" x="733.04" y="-706.2" font-family="Arial" font-size="14.00" fill="#666666">[TIMESTAMPTZ]</text>
<polygon fill="none" stroke="black" points="655.99,-663.2 655.99,-694 850.5,-694 850.5,-663.2 655.99,-663.2"/>
<text text-anchor="start" x="662.99" y="-675.4" font-family="Arial" font-size="14.00">created_by </text>
<text text-anchor="start" x="736.15" y="-675.4" font-family="Arial" font-size="14.00" fill="#666666">[TEXT]</text>
<polygon fill="none" stroke="black" points="655.99,-632.4 655.99,-663.2 850.5,-663.2 850.5,-632.4 655.99,-632.4"/>
<text text-anchor="start" x="662.99" y="-644.6" font-family="Arial" font-size="14.00">updated_at </text>
<text text-anchor="start" x="736.95" y="-644.6" font-family="Arial" font-size="14.00" fill="#666666">[TIMESTAMPTZ]</text>
<polygon fill="none" stroke="black" points="655.99,-601.6 655.99,-632.4 850.5,-632.4 850.5,-601.6 655.99,-601.6"/>
<text text-anchor="start" x="662.99" y="-613.8" font-family="Arial" font-size="14.00">updated_by </text>
<text text-anchor="start" x="740.06" y="-613.8" font-family="Arial" font-size="14.00" fill="#666666">[TEXT]</text>
<polygon fill="none" stroke="black" points="655.99,-570.8 655.99,-601.6 850.5,-601.6 850.5,-570.8 655.99,-570.8"/>
<text text-anchor="start" x="662.99" y="-583" font-family="Arial" font-size="14.00">deleted_at </text>
<text text-anchor="start" x="732.27" y="-583" font-family="Arial" font-size="14.00" fill="#666666">[TIMESTAMPTZ]</text>
<polygon fill="none" stroke="black" points="655.99,-540 655.99,-570.8 850.5,-570.8 850.5,-540 655.99,-540"/>
<text text-anchor="start" x="662.99" y="-552.2" font-family="Arial" font-size="14.00">deleted_by </text>
<text text-anchor="start" x="735.38" y="-552.2" font-family="Arial" font-size="14.00" fill="#666666">[TEXT]</text>
<polygon fill="none" stroke="black" points="655.99,-509.2 655.99,-540 850.5,-540 850.5,-509.2 655.99,-509.2"/>
<text text-anchor="start" x="662.99" y="-521.4" font-family="Arial" font-size="14.00">activity_log </text>
<text text-anchor="start" x="736.13" y="-521.4" font-family="Arial" font-size="14.00" fill="#666666">[TEXT]</text>
</g>
<!-- party_relation&#45;&gt;party -->
<g id="edge1" class="edge">
<title>party_relation:party_id&#45;&gt;party:party_id</title>
<path fill="none" stroke="black" d="M1335.32,-1435.85C1247.31,-1410.69 1357.13,-1041.29 1291.24,-962.8 1225.72,-884.74 953.41,-832.6 851.5,-832.6"/>
<polygon fill="black" stroke="black" points="1335.18,-1435.83 1344.5,-1441.62 1340.47,-1436.54 1344.76,-1437.11 1344.76,-1437.11 1344.76,-1437.11 1340.47,-1436.54 1345.69,-1432.7 1335.18,-1435.83"/>
</g>
<!-- party_relation&#45;&gt;party -->
<g id="edge2" class="edge">
<title>party_relation:related_party_id&#45;&gt;party:party_id</title>
<path fill="none" stroke="black" d="M1335.21,-1404.91C1253.99,-1379.51 1353.01,-1035.8 1291.24,-962.8 1225.41,-885 953.41,-832.6 851.5,-832.6"/>
<polygon fill="black" stroke="black" points="1335.2,-1404.91 1344.45,-1410.8 1340.48,-1405.68 1344.77,-1406.3 1344.77,-1406.3 1344.77,-1406.3 1340.48,-1405.68 1345.74,-1401.9 1335.2,-1404.91"/>
</g>
<!-- party_relation_type -->
<g id="node8" class="node">
<title>party_relation_type</title>
<polygon fill="#efefef" stroke="none" points="1333.14,-832.6 1333.14,-868.2 1557.35,-868.2 1557.35,-832.6 1333.14,-832.6"/>
<polygon fill="none" stroke="black" points="1333.14,-832.6 1333.14,-868.2 1557.35,-868.2 1557.35,-832.6 1333.14,-832.6"/>
<text text-anchor="start" x="1340.14" y="-846" font-family="Arial Bold" font-size="18.00">party_relation_type</text>
<text text-anchor="start" x="1481.09" y="-846" font-family="Arial" font-size="14.00">    </text>
<text text-anchor="start" x="1512.21" y="-846" font-family="Arial" font-size="14.00" fill="#666666">[table]</text>
<polygon fill="none" stroke="black" points="1333.14,-801.8 1333.14,-832.6 1557.35,-832.6 1557.35,-801.8 1333.14,-801.8"/>
<text text-anchor="start" x="1340.14" y="-814" font-family="Arial" font-size="14.00">party_relation_type_id </text>
<text text-anchor="start" x="1481.79" y="-814" font-family="Arial" font-size="14.00" fill="#666666">[ULID]</text>
<polygon fill="none" stroke="black" points="1333.14,-771 1333.14,-801.8 1557.35,-801.8 1557.35,-771 1333.14,-771"/>
<text text-anchor="start" x="1340.14" y="-783.2" font-family="Arial" font-size="14.00">code </text>
<text text-anchor="start" x="1374.39" y="-783.2" font-family="Arial" font-size="14.00" fill="#666666">[TEXT]</text>
<polygon fill="none" stroke="black" points="1333.14,-740.2 1333.14,-771 1557.35,-771 1557.35,-740.2 1333.14,-740.2"/>
<text text-anchor="start" x="1340.14" y="-752.4" font-family="Arial" font-size="14.00">value </text>
<text text-anchor="start" x="1377.5" y="-752.4" font-family="Arial" font-size="14.00" fill="#666666">[TEXT]</text>
<polygon fill="none" stroke="black" points="1333.14,-709.4 1333.14,-740.2 1557.35,-740.2 1557.35,-709.4 1333.14,-709.4"/>
<text text-anchor="start" x="1340.14" y="-721.6" font-family="Arial" font-size="14.00">created_at </text>
<text text-anchor="start" x="1410.19" y="-721.6" font-family="Arial" font-size="14.00" fill="#666666">[TIMESTAMPTZ]</text>
<polygon fill="none" stroke="black" points="1333.14,-678.6 1333.14,-709.4 1557.35,-709.4 1557.35,-678.6 1333.14,-678.6"/>
<text text-anchor="start" x="1340.14" y="-690.8" font-family="Arial" font-size="14.00">created_by </text>
<text text-anchor="start" x="1413.3" y="-690.8" font-family="Arial" font-size="14.00" fill="#666666">[TEXT]</text>
<polygon fill="none" stroke="black" points="1333.14,-647.8 1333.14,-678.6 1557.35,-678.6 1557.35,-647.8 1333.14,-647.8"/>
<text text-anchor="start" x="1340.14" y="-660" font-family="Arial" font-size="14.00">updated_at </text>
<text text-anchor="start" x="1414.1" y="-660" font-family="Arial" font-size="14.00" fill="#666666">[TIMESTAMPTZ]</text>
<polygon fill="none" stroke="black" points="1333.14,-617 1333.14,-647.8 1557.35,-647.8 1557.35,-617 1333.14,-617"/>
<text text-anchor="start" x="1340.14" y="-629.2" font-family="Arial" font-size="14.00">updated_by </text>
<text text-anchor="start" x="1417.21" y="-629.2" font-family="Arial" font-size="14.00" fill="#666666">[TEXT]</text>
<polygon fill="none" stroke="black" points="1333.14,-586.2 1333.14,-617 1557.35,-617 1557.35,-586.2 1333.14,-586.2"/>
<text text-anchor="start" x="1340.14" y="-598.4" font-family="Arial" font-size="14.00">deleted_at </text>
<text text-anchor="start" x="1409.42" y="-598.4" font-family="Arial" font-size="14.00" fill="#666666">[TIMESTAMPTZ]</text>
<polygon fill="none" stroke="black" points="1333.14,-555.4 1333.14,-586.2 1557.35,-586.2 1557.35,-555.4 1333.14,-555.4"/>
<text text-anchor="start" x="1340.14" y="-567.6" font-family="Arial" font-size="14.00">deleted_by </text>
<text text-anchor="start" x="1412.53" y="-567.6" font-family="Arial" font-size="14.00" fill="#666666">[TEXT]</text>
<polygon fill="none" stroke="black" points="1333.14,-524.6 1333.14,-555.4 1557.35,-555.4 1557.35,-524.6 1333.14,-524.6"/>
<text text-anchor="start" x="1340.14" y="-536.8" font-family="Arial" font-size="14.00">activity_log </text>
<text text-anchor="start" x="1413.29" y="-536.8" font-family="Arial" font-size="14.00" fill="#666666">[TEXT]</text>
</g>
<!-- party_relation&#45;&gt;party_relation_type -->
<g id="edge9" class="edge">
<title>party_relation:relation_type_id&#45;&gt;party_relation_type:party_relation_type_id</title>
<path fill="none" stroke="black" d="M1554.47,-1371.11C1608.32,-1318.26 1617.14,-817.2 1558.35,-817.2"/>
<polygon fill="black" stroke="black" points="1554.39,-1371.14 1543.42,-1371.4 1549.57,-1373.44 1545.66,-1375.31 1545.66,-1375.31 1545.66,-1375.31 1549.57,-1373.44 1547.3,-1379.52 1554.39,-1371.14"/>
</g>
<!-- party_type -->
<g id="node7" class="node">
<title>party_type</title>
<polygon fill="#efefef" stroke="none" points="655.99,-351.2 655.99,-386.8 850.5,-386.8 850.5,-351.2 655.99,-351.2"/>
<polygon fill="none" stroke="black" points="655.99,-351.2 655.99,-386.8 850.5,-386.8 850.5,-351.2 655.99,-351.2"/>
<text text-anchor="start" x="680.13" y="-364.6" font-family="Arial Bold" font-size="18.00">party_type</text>
<text text-anchor="start" x="757.1" y="-364.6" font-family="Arial" font-size="14.00">    </text>
<text text-anchor="start" x="788.22" y="-364.6" font-family="Arial" font-size="14.00" fill="#666666">[table]</text>
<polygon fill="none" stroke="black" points="655.99,-320.4 655.99,-351.2 850.5,-351.2 850.5,-320.4 655.99,-320.4"/>
<text text-anchor="start" x="662.99" y="-332.6" font-family="Arial" font-size="14.00">party_type_id </text>
<text text-anchor="start" x="750.93" y="-332.6" font-family="Arial" font-size="14.00" fill="#666666">[ULID]</text>
<polygon fill="none" stroke="black" points="655.99,-289.6 655.99,-320.4 850.5,-320.4 850.5,-289.6 655.99,-289.6"/>
<text text-anchor="start" x="662.99" y="-301.8" font-family="Arial" font-size="14.00">code </text>
<text text-anchor="start" x="697.24" y="-301.8" font-family="Arial" font-size="14.00" fill="#666666">[TEXT]</text>
<polygon fill="none" stroke="black" points="655.99,-258.8 655.99,-289.6 850.5,-289.6 850.5,-258.8 655.99,-258.8"/>
<text text-anchor="start" x="662.99" y="-271" font-family="Arial" font-size="14.00">value </text>
<text text-anchor="start" x="700.35" y="-271" font-family="Arial" font-size="14.00" fill="#666666">[TEXT]</text>
<polygon fill="none" stroke="black" points="655.99,-228 655.99,-258.8 850.5,-258.8 850.5,-228 655.99,-228"/>
<text text-anchor="start" x="662.99" y="-240.2" font-family="Arial" font-size="14.00">created_at </text>
<text text-anchor="start" x="733.04" y="-240.2" font-family="Arial" font-size="14.00" fill="#666666">[TIMESTAMPTZ]</text>
<polygon fill="none" stroke="black" points="655.99,-197.2 655.99,-228 850.5,-228 850.5,-197.2 655.99,-197.2"/>
<text text-anchor="start" x="662.99" y="-209.4" font-family="Arial" font-size="14.00">created_by </text>
<text text-anchor="start" x="736.15" y="-209.4" font-family="Arial" font-size="14.00" fill="#666666">[TEXT]</text>
<polygon fill="none" stroke="black" points="655.99,-166.4 655.99,-197.2 850.5,-197.2 850.5,-166.4 655.99,-166.4"/>
<text text-anchor="start" x="662.99" y="-178.6" font-family="Arial" font-size="14.00">updated_at </text>
<text text-anchor="start" x="736.95" y="-178.6" font-family="Arial" font-size="14.00" fill="#666666">[TIMESTAMPTZ]</text>
<polygon fill="none" stroke="black" points="655.99,-135.6 655.99,-166.4 850.5,-166.4 850.5,-135.6 655.99,-135.6"/>
<text text-anchor="start" x="662.99" y="-147.8" font-family="Arial" font-size="14.00">updated_by </text>
<text text-anchor="start" x="740.06" y="-147.8" font-family="Arial" font-size="14.00" fill="#666666">[TEXT]</text>
<polygon fill="none" stroke="black" points="655.99,-104.8 655.99,-135.6 850.5,-135.6 850.5,-104.8 655.99,-104.8"/>
<text text-anchor="start" x="662.99" y="-117" font-family="Arial" font-size="14.00">deleted_at </text>
<text text-anchor="start" x="732.27" y="-117" font-family="Arial" font-size="14.00" fill="#666666">[TIMESTAMPTZ]</text>
<polygon fill="none" stroke="black" points="655.99,-74 655.99,-104.8 850.5,-104.8 850.5,-74 655.99,-74"/>
<text text-anchor="start" x="662.99" y="-86.2" font-family="Arial" font-size="14.00">deleted_by </text>
<text text-anchor="start" x="735.38" y="-86.2" font-family="Arial" font-size="14.00" fill="#666666">[TEXT]</text>
<polygon fill="none" stroke="black" points="655.99,-43.2 655.99,-74 850.5,-74 850.5,-43.2 655.99,-43.2"/>
<text text-anchor="start" x="662.99" y="-55.4" font-family="Arial" font-size="14.00">activity_log </text>
<text text-anchor="start" x="736.13" y="-55.4" font-family="Arial" font-size="14.00" fill="#666666">[TEXT]</text>
</g>
<!-- party&#45;&gt;party_type -->
<g id="edge8" class="edge">
<title>party:party_type_id&#45;&gt;party_type:party_type_id</title>
<path fill="none" stroke="black" d="M861.64,-801.42C1058.55,-786.46 1055.17,-335.8 851.5,-335.8"/>
<polygon fill="black" stroke="black" points="861.83,-801.41 851.66,-797.29 856.5,-801.61 852.17,-801.77 852.17,-801.77 852.17,-801.77 856.5,-801.61 852,-806.28 861.83,-801.41"/>
</g>
<!-- person -->
<g id="node3" class="node">
<title>person</title>
<polygon fill="#efefef" stroke="none" points="43.2,-1591.2 43.2,-1626.8 239.29,-1626.8 239.29,-1591.2 43.2,-1591.2"/>
<polygon fill="none" stroke="black" points="43.2,-1591.2 43.2,-1626.8 239.29,-1626.8 239.29,-1591.2 43.2,-1591.2"/>
<text text-anchor="start" x="82.62" y="-1604.6" font-family="Arial Bold" font-size="18.00">person</text>
<text text-anchor="start" x="130.61" y="-1604.6" font-family="Arial" font-size="14.00">    </text>
<text text-anchor="start" x="161.73" y="-1604.6" font-family="Arial" font-size="14.00" fill="#666666">[table]</text>
<polygon fill="none" stroke="black" points="43.2,-1560.4 43.2,-1591.2 239.29,-1591.2 239.29,-1560.4 43.2,-1560.4"/>
<text text-anchor="start" x="50.2" y="-1572.6" font-family="Arial" font-size="14.00">person_id </text>
<text text-anchor="start" x="115.58" y="-1572.6" font-family="Arial" font-size="14.00" fill="#666666">[ULID]</text>
<polygon fill="none" stroke="black" points="43.2,-1529.6 43.2,-1560.4 239.29,-1560.4 239.29,-1529.6 43.2,-1529.6"/>
<text text-anchor="start" x="50.2" y="-1541.8" font-family="Arial" font-size="14.00">party_id </text>
<text text-anchor="start" x="103.9" y="-1541.8" font-family="Arial" font-size="14.00" fill="#666666">[VARCHAR]</text>
<polygon fill="none" stroke="black" points="43.2,-1498.8 43.2,-1529.6 239.29,-1529.6 239.29,-1498.8 43.2,-1498.8"/>
<text text-anchor="start" x="50.2" y="-1511" font-family="Arial" font-size="14.00">person_type_id </text>
<text text-anchor="start" x="149.83" y="-1511" font-family="Arial" font-size="14.00" fill="#666666">[ULID]</text>
<polygon fill="none" stroke="black" points="43.2,-1468 43.2,-1498.8 239.29,-1498.8 239.29,-1468 43.2,-1468"/>
<text text-anchor="start" x="50.2" y="-1480.2" font-family="Arial" font-size="14.00">person_first_name </text>
<text text-anchor="start" x="170.04" y="-1480.2" font-family="Arial" font-size="14.00" fill="#666666">[TEXT]</text>
<polygon fill="none" stroke="black" points="43.2,-1437.2 43.2,-1468 239.29,-1468 239.29,-1437.2 43.2,-1437.2"/>
<text text-anchor="start" x="50.2" y="-1449.4" font-family="Arial" font-size="14.00">person_middle_name </text>
<text text-anchor="start" x="188.73" y="-1449.4" font-family="Arial" font-size="14.00" fill="#666666">[TEXT]</text>
<polygon fill="none" stroke="black" points="43.2,-1406.4 43.2,-1437.2 239.29,-1437.2 239.29,-1406.4 43.2,-1406.4"/>
<text text-anchor="start" x="50.2" y="-1418.6" font-family="Arial" font-size="14.00">person_last_name </text>
<text text-anchor="start" x="169.28" y="-1418.6" font-family="Arial" font-size="14.00" fill="#666666">[TEXT]</text>
<polygon fill="none" stroke="black" points="43.2,-1375.6 43.2,-1406.4 239.29,-1406.4 239.29,-1375.6 43.2,-1375.6"/>
<text text-anchor="start" x="50.2" y="-1387.8" font-family="Arial" font-size="14.00">previous_name </text>
<text text-anchor="start" x="149.81" y="-1387.8" font-family="Arial" font-size="14.00" fill="#666666">[TEXT]</text>
<polygon fill="none" stroke="black" points="43.2,-1344.8 43.2,-1375.6 239.29,-1375.6 239.29,-1344.8 43.2,-1344.8"/>
<text text-anchor="start" x="50.2" y="-1357" font-family="Arial" font-size="14.00">honorific_prefix </text>
<text text-anchor="start" x="149.03" y="-1357" font-family="Arial" font-size="14.00" fill="#666666">[TEXT]</text>
<polygon fill="none" stroke="black" points="43.2,-1314 43.2,-1344.8 239.29,-1344.8 239.29,-1314 43.2,-1314"/>
<text text-anchor="start" x="50.2" y="-1326.2" font-family="Arial" font-size="14.00">honorific_suffix </text>
<text text-anchor="start" x="147.47" y="-1326.2" font-family="Arial" font-size="14.00" fill="#666666">[TEXT]</text>
<polygon fill="none" stroke="black" points="43.2,-1283.2 43.2,-1314 239.29,-1314 239.29,-1283.2 43.2,-1283.2"/>
<text text-anchor="start" x="50.2" y="-1295.4" font-family="Arial" font-size="14.00">gender_id </text>
<text text-anchor="start" x="116.37" y="-1295.4" font-family="Arial" font-size="14.00" fill="#666666">[ULID]</text>
<polygon fill="none" stroke="black" points="43.2,-1252.4 43.2,-1283.2 239.29,-1283.2 239.29,-1252.4 43.2,-1252.4"/>
<text text-anchor="start" x="50.2" y="-1264.6" font-family="Arial" font-size="14.00">sex_id </text>
<text text-anchor="start" x="94.56" y="-1264.6" font-family="Arial" font-size="14.00" fill="#666666">[ULID]</text>
<polygon fill="none" stroke="black" points="43.2,-1221.6 43.2,-1252.4 239.29,-1252.4 239.29,-1221.6 43.2,-1221.6"/>
<text text-anchor="start" x="50.2" y="-1233.8" font-family="Arial" font-size="14.00">elaboration </text>
<text text-anchor="start" x="123.37" y="-1233.8" font-family="Arial" font-size="14.00" fill="#666666">[TEXT]</text>
<polygon fill="none" stroke="black" points="43.2,-1190.8 43.2,-1221.6 239.29,-1221.6 239.29,-1190.8 43.2,-1190.8"/>
<text text-anchor="start" x="50.2" y="-1203" font-family="Arial" font-size="14.00">created_at </text>
<text text-anchor="start" x="120.25" y="-1203" font-family="Arial" font-size="14.00" fill="#666666">[TIMESTAMPTZ]</text>
<polygon fill="none" stroke="black" points="43.2,-1160 43.2,-1190.8 239.29,-1190.8 239.29,-1160 43.2,-1160"/>
<text text-anchor="start" x="50.2" y="-1172.2" font-family="Arial" font-size="14.00">created_by </text>
<text text-anchor="start" x="123.36" y="-1172.2" font-family="Arial" font-size="14.00" fill="#666666">[TEXT]</text>
<polygon fill="none" stroke="black" points="43.2,-1129.2 43.2,-1160 239.29,-1160 239.29,-1129.2 43.2,-1129.2"/>
<text text-anchor="start" x="50.2" y="-1141.4" font-family="Arial" font-size="14.00">updated_at </text>
<text text-anchor="start" x="124.16" y="-1141.4" font-family="Arial" font-size="14.00" fill="#666666">[TIMESTAMPTZ]</text>
<polygon fill="none" stroke="black" points="43.2,-1098.4 43.2,-1129.2 239.29,-1129.2 239.29,-1098.4 43.2,-1098.4"/>
<text text-anchor="start" x="50.2" y="-1110.6" font-family="Arial" font-size="14.00">updated_by </text>
<text text-anchor="start" x="127.27" y="-1110.6" font-family="Arial" font-size="14.00" fill="#666666">[TEXT]</text>
<polygon fill="none" stroke="black" points="43.2,-1067.6 43.2,-1098.4 239.29,-1098.4 239.29,-1067.6 43.2,-1067.6"/>
<text text-anchor="start" x="50.2" y="-1079.8" font-family="Arial" font-size="14.00">deleted_at </text>
<text text-anchor="start" x="119.48" y="-1079.8" font-family="Arial" font-size="14.00" fill="#666666">[TIMESTAMPTZ]</text>
<polygon fill="none" stroke="black" points="43.2,-1036.8 43.2,-1067.6 239.29,-1067.6 239.29,-1036.8 43.2,-1036.8"/>
<text text-anchor="start" x="50.2" y="-1049" font-family="Arial" font-size="14.00">deleted_by </text>
<text text-anchor="start" x="122.59" y="-1049" font-family="Arial" font-size="14.00" fill="#666666">[TEXT]</text>
<polygon fill="none" stroke="black" points="43.2,-1006 43.2,-1036.8 239.29,-1036.8 239.29,-1006 43.2,-1006"/>
<text text-anchor="start" x="50.2" y="-1018.2" font-family="Arial" font-size="14.00">activity_log </text>
<text text-anchor="start" x="123.34" y="-1018.2" font-family="Arial" font-size="14.00" fill="#666666">[TEXT]</text>
</g>
<!-- person&#45;&gt;party -->
<g id="edge3" class="edge">
<title>person:party_id&#45;&gt;party:party_id</title>
<path fill="none" stroke="black" d="M249.61,-1540.72C299.93,-1490.35 254.64,-1011.49 292.24,-962.8 344.59,-895.01 569.34,-832.6 654.99,-832.6"/>
<polygon fill="black" stroke="black" points="249.68,-1540.69 238.72,-1540.77 244.83,-1542.91 240.9,-1544.72 240.9,-1544.72 240.9,-1544.72 244.83,-1542.91 242.47,-1548.95 249.68,-1540.69"/>
</g>
<!-- organization -->
<g id="node4" class="node">
<title>organization</title>
<polygon fill="#efefef" stroke="none" points="343.99,-1545 343.99,-1580.6 538.5,-1580.6 538.5,-1545 343.99,-1545"/>
<polygon fill="none" stroke="black" points="343.99,-1545 343.99,-1580.6 538.5,-1580.6 538.5,-1545 343.99,-1545"/>
<text text-anchor="start" x="361.63" y="-1558.4" font-family="Arial Bold" font-size="18.00">organization</text>
<text text-anchor="start" x="451.6" y="-1558.4" font-family="Arial" font-size="14.00">    </text>
<text text-anchor="start" x="482.72" y="-1558.4" font-family="Arial" font-size="14.00" fill="#666666">[table]</text>
<polygon fill="none" stroke="black" points="343.99,-1514.2 343.99,-1545 538.5,-1545 538.5,-1514.2 343.99,-1514.2"/>
<text text-anchor="start" x="350.99" y="-1526.4" font-family="Arial" font-size="14.00">organization_id </text>
<text text-anchor="start" x="449.84" y="-1526.4" font-family="Arial" font-size="14.00" fill="#666666">[ULID]</text>
<polygon fill="none" stroke="black" points="343.99,-1483.4 343.99,-1514.2 538.5,-1514.2 538.5,-1483.4 343.99,-1483.4"/>
<text text-anchor="start" x="350.99" y="-1495.6" font-family="Arial" font-size="14.00">party_id </text>
<text text-anchor="start" x="404.69" y="-1495.6" font-family="Arial" font-size="14.00" fill="#666666">[VARCHAR]</text>
<polygon fill="none" stroke="black" points="343.99,-1452.6 343.99,-1483.4 538.5,-1483.4 538.5,-1452.6 343.99,-1452.6"/>
<text text-anchor="start" x="350.99" y="-1464.8" font-family="Arial" font-size="14.00">name </text>
<text text-anchor="start" x="389.9" y="-1464.8" font-family="Arial" font-size="14.00" fill="#666666">[TEXT]</text>
<polygon fill="none" stroke="black" points="343.99,-1421.8 343.99,-1452.6 538.5,-1452.6 538.5,-1421.8 343.99,-1421.8"/>
<text text-anchor="start" x="350.99" y="-1434" font-family="Arial" font-size="14.00">alias </text>
<text text-anchor="start" x="383.67" y="-1434" font-family="Arial" font-size="14.00" fill="#666666">[TEXT]</text>
<polygon fill="none" stroke="black" points="343.99,-1391 343.99,-1421.8 538.5,-1421.8 538.5,-1391 343.99,-1391"/>
<text text-anchor="start" x="350.99" y="-1403.2" font-family="Arial" font-size="14.00">description </text>
<text text-anchor="start" x="422.58" y="-1403.2" font-family="Arial" font-size="14.00" fill="#666666">[TEXT]</text>
<polygon fill="none" stroke="black" points="343.99,-1360.2 343.99,-1391 538.5,-1391 538.5,-1360.2 343.99,-1360.2"/>
<text text-anchor="start" x="350.99" y="-1372.4" font-family="Arial" font-size="14.00">license </text>
<text text-anchor="start" x="398.46" y="-1372.4" font-family="Arial" font-size="14.00" fill="#666666">[TEXT]</text>
<polygon fill="none" stroke="black" points="343.99,-1329.4 343.99,-1360.2 538.5,-1360.2 538.5,-1329.4 343.99,-1329.4"/>
<text text-anchor="start" x="350.99" y="-1341.6" font-family="Arial" font-size="14.00">federal_tax_id_num </text>
<text text-anchor="start" x="477.85" y="-1341.6" font-family="Arial" font-size="14.00" fill="#666666">[TEXT]</text>
<polygon fill="none" stroke="black" points="343.99,-1298.6 343.99,-1329.4 538.5,-1329.4 538.5,-1298.6 343.99,-1298.6"/>
<text text-anchor="start" x="350.99" y="-1310.8" font-family="Arial" font-size="14.00">registration_date </text>
<text text-anchor="start" x="459.17" y="-1310.8" font-family="Arial" font-size="14.00" fill="#666666">[DATE]</text>
<polygon fill="none" stroke="black" points="343.99,-1267.8 343.99,-1298.6 538.5,-1298.6 538.5,-1267.8 343.99,-1267.8"/>
<text text-anchor="start" x="350.99" y="-1280" font-family="Arial" font-size="14.00">elaboration </text>
<text text-anchor="start" x="424.15" y="-1280" font-family="Arial" font-size="14.00" fill="#666666">[TEXT]</text>
<polygon fill="none" stroke="black" points="343.99,-1237 343.99,-1267.8 538.5,-1267.8 538.5,-1237 343.99,-1237"/>
<text text-anchor="start" x="350.99" y="-1249.2" font-family="Arial" font-size="14.00">created_at </text>
<text text-anchor="start" x="421.04" y="-1249.2" font-family="Arial" font-size="14.00" fill="#666666">[TIMESTAMPTZ]</text>
<polygon fill="none" stroke="black" points="343.99,-1206.2 343.99,-1237 538.5,-1237 538.5,-1206.2 343.99,-1206.2"/>
<text text-anchor="start" x="350.99" y="-1218.4" font-family="Arial" font-size="14.00">created_by </text>
<text text-anchor="start" x="424.15" y="-1218.4" font-family="Arial" font-size="14.00" fill="#666666">[TEXT]</text>
<polygon fill="none" stroke="black" points="343.99,-1175.4 343.99,-1206.2 538.5,-1206.2 538.5,-1175.4 343.99,-1175.4"/>
<text text-anchor="start" x="350.99" y="-1187.6" font-family="Arial" font-size="14.00">updated_at </text>
<text text-anchor="start" x="424.95" y="-1187.6" font-family="Arial" font-size="14.00" fill="#666666">[TIMESTAMPTZ]</text>
<polygon fill="none" stroke="black" points="343.99,-1144.6 343.99,-1175.4 538.5,-1175.4 538.5,-1144.6 343.99,-1144.6"/>
<text text-anchor="start" x="350.99" y="-1156.8" font-family="Arial" font-size="14.00">updated_by </text>
<text text-anchor="start" x="428.06" y="-1156.8" font-family="Arial" font-size="14.00" fill="#666666">[TEXT]</text>
<polygon fill="none" stroke="black" points="343.99,-1113.8 343.99,-1144.6 538.5,-1144.6 538.5,-1113.8 343.99,-1113.8"/>
<text text-anchor="start" x="350.99" y="-1126" font-family="Arial" font-size="14.00">deleted_at </text>
<text text-anchor="start" x="420.27" y="-1126" font-family="Arial" font-size="14.00" fill="#666666">[TIMESTAMPTZ]</text>
<polygon fill="none" stroke="black" points="343.99,-1083 343.99,-1113.8 538.5,-1113.8 538.5,-1083 343.99,-1083"/>
<text text-anchor="start" x="350.99" y="-1095.2" font-family="Arial" font-size="14.00">deleted_by </text>
<text text-anchor="start" x="423.38" y="-1095.2" font-family="Arial" font-size="14.00" fill="#666666">[TEXT]</text>
<polygon fill="none" stroke="black" points="343.99,-1052.2 343.99,-1083 538.5,-1083 538.5,-1052.2 343.99,-1052.2"/>
<text text-anchor="start" x="350.99" y="-1064.4" font-family="Arial" font-size="14.00">activity_log </text>
<text text-anchor="start" x="424.13" y="-1064.4" font-family="Arial" font-size="14.00" fill="#666666">[TEXT]</text>
</g>
<!-- organization&#45;&gt;party -->
<g id="edge4" class="edge">
<title>organization:party_id&#45;&gt;party:party_id</title>
<path fill="none" stroke="black" d="M548.88,-1494.36C596.7,-1445.95 575.88,-1017.11 591.24,-962.8 608.79,-900.8 590.56,-832.6 654.99,-832.6"/>
<polygon fill="black" stroke="black" points="548.84,-1494.38 537.88,-1494.59 544.02,-1496.66 540.1,-1498.51 540.1,-1498.51 540.1,-1498.51 544.02,-1496.66 541.73,-1502.72 548.84,-1494.38"/>
</g>
<!-- organization_role -->
<g id="node5" class="node">
<title>organization_role</title>
<polygon fill="#efefef" stroke="none" points="643.14,-1483.4 643.14,-1519 863.35,-1519 863.35,-1483.4 643.14,-1483.4"/>
<polygon fill="none" stroke="black" points="643.14,-1483.4 643.14,-1519 863.35,-1519 863.35,-1483.4 643.14,-1483.4"/>
<text text-anchor="start" x="655.14" y="-1496.8" font-family="Arial Bold" font-size="18.00">organization_role</text>
<text text-anchor="start" x="782.09" y="-1496.8" font-family="Arial" font-size="14.00">    </text>
<text text-anchor="start" x="813.21" y="-1496.8" font-family="Arial" font-size="14.00" fill="#666666">[table]</text>
<polygon fill="none" stroke="black" points="643.14,-1452.6 643.14,-1483.4 863.35,-1483.4 863.35,-1452.6 643.14,-1452.6"/>
<text text-anchor="start" x="650.14" y="-1464.8" font-family="Arial" font-size="14.00">organization_role_id </text>
<text text-anchor="start" x="780.12" y="-1464.8" font-family="Arial" font-size="14.00" fill="#666666">[VARCHAR]</text>
<polygon fill="none" stroke="black" points="643.14,-1421.8 643.14,-1452.6 863.35,-1452.6 863.35,-1421.8 643.14,-1421.8"/>
<text text-anchor="start" x="650.14" y="-1434" font-family="Arial" font-size="14.00">person_id </text>
<text text-anchor="start" x="715.52" y="-1434" font-family="Arial" font-size="14.00" fill="#666666">[VARCHAR]</text>
<polygon fill="none" stroke="black" points="643.14,-1391 643.14,-1421.8 863.35,-1421.8 863.35,-1391 643.14,-1391"/>
<text text-anchor="start" x="650.14" y="-1403.2" font-family="Arial" font-size="14.00">organization_id </text>
<text text-anchor="start" x="748.99" y="-1403.2" font-family="Arial" font-size="14.00" fill="#666666">[VARCHAR]</text>
<polygon fill="none" stroke="black" points="643.14,-1360.2 643.14,-1391 863.35,-1391 863.35,-1360.2 643.14,-1360.2"/>
<text text-anchor="start" x="650.14" y="-1372.4" font-family="Arial" font-size="14.00">organization_role_type_id </text>
<text text-anchor="start" x="814.36" y="-1372.4" font-family="Arial" font-size="14.00" fill="#666666">[ULID]</text>
<polygon fill="none" stroke="black" points="643.14,-1329.4 643.14,-1360.2 863.35,-1360.2 863.35,-1329.4 643.14,-1329.4"/>
<text text-anchor="start" x="650.14" y="-1341.6" font-family="Arial" font-size="14.00">elaboration </text>
<text text-anchor="start" x="723.3" y="-1341.6" font-family="Arial" font-size="14.00" fill="#666666">[TEXT]</text>
<polygon fill="none" stroke="black" points="643.14,-1298.6 643.14,-1329.4 863.35,-1329.4 863.35,-1298.6 643.14,-1298.6"/>
<text text-anchor="start" x="650.14" y="-1310.8" font-family="Arial" font-size="14.00">created_at </text>
<text text-anchor="start" x="720.19" y="-1310.8" font-family="Arial" font-size="14.00" fill="#666666">[TIMESTAMPTZ]</text>
<polygon fill="none" stroke="black" points="643.14,-1267.8 643.14,-1298.6 863.35,-1298.6 863.35,-1267.8 643.14,-1267.8"/>
<text text-anchor="start" x="650.14" y="-1280" font-family="Arial" font-size="14.00">created_by </text>
<text text-anchor="start" x="723.3" y="-1280" font-family="Arial" font-size="14.00" fill="#666666">[TEXT]</text>
<polygon fill="none" stroke="black" points="643.14,-1237 643.14,-1267.8 863.35,-1267.8 863.35,-1237 643.14,-1237"/>
<text text-anchor="start" x="650.14" y="-1249.2" font-family="Arial" font-size="14.00">updated_at </text>
<text text-anchor="start" x="724.1" y="-1249.2" font-family="Arial" font-size="14.00" fill="#666666">[TIMESTAMPTZ]</text>
<polygon fill="none" stroke="black" points="643.14,-1206.2 643.14,-1237 863.35,-1237 863.35,-1206.2 643.14,-1206.2"/>
<text text-anchor="start" x="650.14" y="-1218.4" font-family="Arial" font-size="14.00">updated_by </text>
<text text-anchor="start" x="727.21" y="-1218.4" font-family="Arial" font-size="14.00" fill="#666666">[TEXT]</text>
<polygon fill="none" stroke="black" points="643.14,-1175.4 643.14,-1206.2 863.35,-1206.2 863.35,-1175.4 643.14,-1175.4"/>
<text text-anchor="start" x="650.14" y="-1187.6" font-family="Arial" font-size="14.00">deleted_at </text>
<text text-anchor="start" x="719.42" y="-1187.6" font-family="Arial" font-size="14.00" fill="#666666">[TIMESTAMPTZ]</text>
<polygon fill="none" stroke="black" points="643.14,-1144.6 643.14,-1175.4 863.35,-1175.4 863.35,-1144.6 643.14,-1144.6"/>
<text text-anchor="start" x="650.14" y="-1156.8" font-family="Arial" font-size="14.00">deleted_by </text>
<text text-anchor="start" x="722.53" y="-1156.8" font-family="Arial" font-size="14.00" fill="#666666">[TEXT]</text>
<polygon fill="none" stroke="black" points="643.14,-1113.8 643.14,-1144.6 863.35,-1144.6 863.35,-1113.8 643.14,-1113.8"/>
<text text-anchor="start" x="650.14" y="-1126" font-family="Arial" font-size="14.00">activity_log </text>
<text text-anchor="start" x="723.28" y="-1126" font-family="Arial" font-size="14.00" fill="#666666">[TEXT]</text>
</g>
<!-- organization_role&#45;&gt;party -->
<g id="edge5" class="edge">
<title>organization_role:organization_id&#45;&gt;party:party_id</title>
<path fill="none" stroke="black" d="M873.48,-1402.11C926.69,-1349.6 912.03,-832.6 851.5,-832.6"/>
<polygon fill="black" stroke="black" points="873.7,-1402 862.74,-1402.19 868.88,-1404.27 864.96,-1406.12 864.96,-1406.12 864.96,-1406.12 868.88,-1404.27 866.57,-1410.33 873.7,-1402"/>
</g>
<!-- organization_role&#45;&gt;party -->
<g id="edge6" class="edge">
<title>organization_role:person_id&#45;&gt;party:party_id</title>
<path fill="none" stroke="black" d="M873.62,-1433.02C930.16,-1379.6 915.41,-832.6 851.5,-832.6"/>
<polygon fill="black" stroke="black" points="873.77,-1432.95 862.81,-1432.96 868.91,-1435.14 864.96,-1436.92 864.96,-1436.92 864.96,-1436.92 868.91,-1435.14 866.51,-1441.16 873.77,-1432.95"/>
</g>
<!-- device_party_relationship -->
<g id="node6" class="node">
<title>device_party_relationship</title>
<polygon fill="#efefef" stroke="none" points="967.46,-1468 967.46,-1503.6 1239.03,-1503.6 1239.03,-1468 967.46,-1468"/>
<polygon fill="none" stroke="black" points="967.46,-1468 967.46,-1503.6 1239.03,-1503.6 1239.03,-1468 967.46,-1468"/>
<text text-anchor="start" x="975.15" y="-1481.4" font-family="Arial Bold" font-size="18.00">device_party_relationship</text>
<text text-anchor="start" x="1162.08" y="-1481.4" font-family="Arial" font-size="14.00">    </text>
<text text-anchor="start" x="1193.2" y="-1481.4" font-family="Arial" font-size="14.00" fill="#666666">[table]</text>
<polygon fill="none" stroke="black" points="967.46,-1437.2 967.46,-1468 1239.03,-1468 1239.03,-1437.2 967.46,-1437.2"/>
<text text-anchor="start" x="974.46" y="-1449.4" font-family="Arial" font-size="14.00">device_party_relationship_id </text>
<text text-anchor="start" x="1155.8" y="-1449.4" font-family="Arial" font-size="14.00" fill="#666666">[VARCHAR]</text>
<polygon fill="none" stroke="black" points="967.46,-1406.4 967.46,-1437.2 1239.03,-1437.2 1239.03,-1406.4 967.46,-1406.4"/>
<text text-anchor="start" x="974.46" y="-1418.6" font-family="Arial" font-size="14.00">device_id </text>
<text text-anchor="start" x="1037.5" y="-1418.6" font-family="Arial" font-size="14.00" fill="#666666">[VARCHAR]</text>
<polygon fill="none" stroke="black" points="967.46,-1375.6 967.46,-1406.4 1239.03,-1406.4 1239.03,-1375.6 967.46,-1375.6"/>
<text text-anchor="start" x="974.46" y="-1387.8" font-family="Arial" font-size="14.00">party_id </text>
<text text-anchor="start" x="1028.16" y="-1387.8" font-family="Arial" font-size="14.00" fill="#666666">[VARCHAR]</text>
<polygon fill="none" stroke="black" points="967.46,-1344.8 967.46,-1375.6 1239.03,-1375.6 1239.03,-1344.8 967.46,-1344.8"/>
<text text-anchor="start" x="974.46" y="-1357" font-family="Arial" font-size="14.00">elaboration </text>
<text text-anchor="start" x="1047.62" y="-1357" font-family="Arial" font-size="14.00" fill="#666666">[TEXT]</text>
<polygon fill="none" stroke="black" points="967.46,-1314 967.46,-1344.8 1239.03,-1344.8 1239.03,-1314 967.46,-1314"/>
<text text-anchor="start" x="974.46" y="-1326.2" font-family="Arial" font-size="14.00">created_at </text>
<text text-anchor="start" x="1044.51" y="-1326.2" font-family="Arial" font-size="14.00" fill="#666666">[TIMESTAMPTZ]</text>
<polygon fill="none" stroke="black" points="967.46,-1283.2 967.46,-1314 1239.03,-1314 1239.03,-1283.2 967.46,-1283.2"/>
<text text-anchor="start" x="974.46" y="-1295.4" font-family="Arial" font-size="14.00">created_by </text>
<text text-anchor="start" x="1047.62" y="-1295.4" font-family="Arial" font-size="14.00" fill="#666666">[TEXT]</text>
<polygon fill="none" stroke="black" points="967.46,-1252.4 967.46,-1283.2 1239.03,-1283.2 1239.03,-1252.4 967.46,-1252.4"/>
<text text-anchor="start" x="974.46" y="-1264.6" font-family="Arial" font-size="14.00">updated_at </text>
<text text-anchor="start" x="1048.42" y="-1264.6" font-family="Arial" font-size="14.00" fill="#666666">[TIMESTAMPTZ]</text>
<polygon fill="none" stroke="black" points="967.46,-1221.6 967.46,-1252.4 1239.03,-1252.4 1239.03,-1221.6 967.46,-1221.6"/>
<text text-anchor="start" x="974.46" y="-1233.8" font-family="Arial" font-size="14.00">updated_by </text>
<text text-anchor="start" x="1051.53" y="-1233.8" font-family="Arial" font-size="14.00" fill="#666666">[TEXT]</text>
<polygon fill="none" stroke="black" points="967.46,-1190.8 967.46,-1221.6 1239.03,-1221.6 1239.03,-1190.8 967.46,-1190.8"/>
<text text-anchor="start" x="974.46" y="-1203" font-family="Arial" font-size="14.00">deleted_at </text>
<text text-anchor="start" x="1043.74" y="-1203" font-family="Arial" font-size="14.00" fill="#666666">[TIMESTAMPTZ]</text>
<polygon fill="none" stroke="black" points="967.46,-1160 967.46,-1190.8 1239.03,-1190.8 1239.03,-1160 967.46,-1160"/>
<text text-anchor="start" x="974.46" y="-1172.2" font-family="Arial" font-size="14.00">deleted_by </text>
<text text-anchor="start" x="1046.85" y="-1172.2" font-family="Arial" font-size="14.00" fill="#666666">[TEXT]</text>
<polygon fill="none" stroke="black" points="967.46,-1129.2 967.46,-1160 1239.03,-1160 1239.03,-1129.2 967.46,-1129.2"/>
<text text-anchor="start" x="974.46" y="-1141.4" font-family="Arial" font-size="14.00">activity_log </text>
<text text-anchor="start" x="1047.6" y="-1141.4" font-family="Arial" font-size="14.00" fill="#666666">[TEXT]</text>
</g>
<!-- device_party_relationship&#45;&gt;party -->
<g id="edge7" class="edge">
<title>device_party_relationship:party_id&#45;&gt;party:party_id</title>
<path fill="none" stroke="black" d="M957.42,-1385.87C919.84,-1340.31 927.89,-1005.61 915.24,-962.8 897,-901.01 915.93,-832.6 851.5,-832.6"/>
<polygon fill="black" stroke="black" points="957.47,-1385.9 963.95,-1394.75 962.11,-1388.53 965.88,-1390.67 965.88,-1390.67 965.88,-1390.67 962.11,-1388.53 968.39,-1386.92 957.47,-1385.9"/>
</g>
</g>
</svg>
