<?xml version="1.0" encoding="UTF-8" standalone="no"?>
<!DOCTYPE svg PUBLIC "-//W3C//DTD SVG 1.1//EN"
 "http://www.w3.org/Graphics/SVG/1.1/DTD/svg11.dtd">
<!-- Generated by graphviz version 2.40.1 (20161225.0304)
 -->
<!-- Title: person Pages: 1 -->
<svg width="1762pt" height="1319pt"
 viewBox="0.00 0.00 1761.50 1319.00" xmlns="http://www.w3.org/2000/svg" xmlns:xlink="http://www.w3.org/1999/xlink">
<g id="graph0" class="graph" transform="scale(1 1) rotate(0) translate(4 1315)">
<title>person</title>
<polygon fill="#ffffff" stroke="transparent" points="-4,4 -4,-1315 1757.5,-1315 1757.5,4 -4,4"/>
<!-- person -->
<g id="node1" class="node">
<title>person</title>
<polygon fill="#efefef" stroke="transparent" points="1502.5,-1229.5 1502.5,-1264.5 1698.5,-1264.5 1698.5,-1229.5 1502.5,-1229.5"/>
<polygon fill="none" stroke="#000000" points="1502.5,-1229.5 1502.5,-1264.5 1698.5,-1264.5 1698.5,-1229.5 1502.5,-1229.5"/>
<text text-anchor="start" x="1536.826" y="-1242.3" font-family="Arial Bold" font-size="18.00" fill="#000000">person</text>
<text text-anchor="start" x="1591.843" y="-1242.3" font-family="Arial" font-size="14.00" fill="#000000">    </text>
<text text-anchor="start" x="1626.0478" y="-1242.3" font-family="Arial" font-size="14.00" fill="#666666">[table]</text>
<polygon fill="none" stroke="#000000" points="1502.5,-1199.5 1502.5,-1229.5 1698.5,-1229.5 1698.5,-1199.5 1502.5,-1199.5"/>
<text text-anchor="start" x="1509.5" y="-1210.9" font-family="Arial" font-size="14.00" fill="#000000">person_id </text>
<text text-anchor="start" x="1574.8534" y="-1210.9" font-family="Arial" font-size="14.00" fill="#666666">[VARCHAR]</text>
<polygon fill="none" stroke="#000000" points="1502.5,-1169.5 1502.5,-1199.5 1698.5,-1199.5 1698.5,-1169.5 1502.5,-1169.5"/>
<text text-anchor="start" x="1509.5" y="-1180.9" font-family="Arial" font-size="14.00" fill="#000000">person_first_name </text>
<text text-anchor="start" x="1629.3036" y="-1180.9" font-family="Arial" font-size="14.00" fill="#666666">[TEXT]</text>
<polygon fill="none" stroke="#000000" points="1502.5,-1139.5 1502.5,-1169.5 1698.5,-1169.5 1698.5,-1139.5 1502.5,-1139.5"/>
<text text-anchor="start" x="1509.4818" y="-1150.9" font-family="Arial" font-size="14.00" fill="#000000">person_middle_name </text>
<text text-anchor="start" x="1647.9586" y="-1150.9" font-family="Arial" font-size="14.00" fill="#666666">[TEXT]</text>
<polygon fill="none" stroke="#000000" points="1502.5,-1109.5 1502.5,-1139.5 1698.5,-1139.5 1698.5,-1109.5 1502.5,-1109.5"/>
<text text-anchor="start" x="1509.5" y="-1120.9" font-family="Arial" font-size="14.00" fill="#000000">person_last_name </text>
<text text-anchor="start" x="1628.535" y="-1120.9" font-family="Arial" font-size="14.00" fill="#666666">[TEXT]</text>
<polygon fill="none" stroke="#000000" points="1502.5,-1079.5 1502.5,-1109.5 1698.5,-1109.5 1698.5,-1079.5 1502.5,-1079.5"/>
<text text-anchor="start" x="1509.5" y="-1090.9" font-family="Arial" font-size="14.00" fill="#000000">honorific_prefix </text>
<text text-anchor="start" x="1608.291" y="-1090.9" font-family="Arial" font-size="14.00" fill="#666666">[TEXT]</text>
<polygon fill="none" stroke="#000000" points="1502.5,-1049.5 1502.5,-1079.5 1698.5,-1079.5 1698.5,-1049.5 1502.5,-1049.5"/>
<text text-anchor="start" x="1509.5" y="-1060.9" font-family="Arial" font-size="14.00" fill="#000000">honorific_suffix </text>
<text text-anchor="start" x="1606.7384" y="-1060.9" font-family="Arial" font-size="14.00" fill="#666666">[TEXT]</text>
<polygon fill="none" stroke="#000000" points="1502.5,-1019.5 1502.5,-1049.5 1698.5,-1049.5 1698.5,-1019.5 1502.5,-1019.5"/>
<text text-anchor="start" x="1509.5" y="-1030.9" font-family="Arial" font-size="14.00" fill="#000000">gender_id </text>
<text text-anchor="start" x="1575.636" y="-1030.9" font-family="Arial" font-size="14.00" fill="#666666">[TEXT]</text>
<polygon fill="none" stroke="#000000" points="1502.5,-989.5 1502.5,-1019.5 1698.5,-1019.5 1698.5,-989.5 1502.5,-989.5"/>
<text text-anchor="start" x="1509.5" y="-1000.9" font-family="Arial" font-size="14.00" fill="#000000">elaboration </text>
<text text-anchor="start" x="1582.6332" y="-1000.9" font-family="Arial" font-size="14.00" fill="#666666">[TEXT]</text>
<polygon fill="none" stroke="#000000" points="1502.5,-959.5 1502.5,-989.5 1698.5,-989.5 1698.5,-959.5 1502.5,-959.5"/>
<text text-anchor="start" x="1509.5" y="-970.9" font-family="Arial" font-size="14.00" fill="#000000">created_at </text>
<text text-anchor="start" x="1579.528" y="-970.9" font-family="Arial" font-size="14.00" fill="#666666">[TIMESTAMPTZ]</text>
<polygon fill="none" stroke="#000000" points="1502.5,-929.5 1502.5,-959.5 1698.5,-959.5 1698.5,-929.5 1502.5,-929.5"/>
<text text-anchor="start" x="1509.5" y="-940.9" font-family="Arial" font-size="14.00" fill="#000000">created_by </text>
<text text-anchor="start" x="1582.6374" y="-940.9" font-family="Arial" font-size="14.00" fill="#666666">[TEXT]</text>
<polygon fill="none" stroke="#000000" points="1502.5,-899.5 1502.5,-929.5 1698.5,-929.5 1698.5,-899.5 1502.5,-899.5"/>
<text text-anchor="start" x="1509.5" y="-910.9" font-family="Arial" font-size="14.00" fill="#000000">updated_at </text>
<text text-anchor="start" x="1583.4326" y="-910.9" font-family="Arial" font-size="14.00" fill="#666666">[TIMESTAMPTZ]</text>
<polygon fill="none" stroke="#000000" points="1502.5,-869.5 1502.5,-899.5 1698.5,-899.5 1698.5,-869.5 1502.5,-869.5"/>
<text text-anchor="start" x="1509.5" y="-880.9" font-family="Arial" font-size="14.00" fill="#000000">updated_by </text>
<text text-anchor="start" x="1586.542" y="-880.9" font-family="Arial" font-size="14.00" fill="#666666">[TEXT]</text>
<polygon fill="none" stroke="#000000" points="1502.5,-839.5 1502.5,-869.5 1698.5,-869.5 1698.5,-839.5 1502.5,-839.5"/>
<text text-anchor="start" x="1509.5" y="-850.9" font-family="Arial" font-size="14.00" fill="#000000">deleted_at </text>
<text text-anchor="start" x="1578.7566" y="-850.9" font-family="Arial" font-size="14.00" fill="#666666">[TIMESTAMPTZ]</text>
<polygon fill="none" stroke="#000000" points="1502.5,-809.5 1502.5,-839.5 1698.5,-839.5 1698.5,-809.5 1502.5,-809.5"/>
<text text-anchor="start" x="1509.5" y="-820.9" font-family="Arial" font-size="14.00" fill="#000000">deleted_by </text>
<text text-anchor="start" x="1581.866" y="-820.9" font-family="Arial" font-size="14.00" fill="#666666">[TEXT]</text>
<polygon fill="none" stroke="#000000" points="1502.5,-779.5 1502.5,-809.5 1698.5,-809.5 1698.5,-779.5 1502.5,-779.5"/>
<text text-anchor="start" x="1509.5" y="-790.9" font-family="Arial" font-size="14.00" fill="#000000">activity_log </text>
<text text-anchor="start" x="1582.622" y="-790.9" font-family="Arial" font-size="14.00" fill="#666666">[TEXT]</text>
<polygon fill="none" stroke="#000000" stroke-width="3" points="1501,-778.5 1501,-1266.5 1700,-1266.5 1700,-778.5 1501,-778.5"/>
</g>
<!-- party -->
<g id="node2" class="node">
<title>party</title>
<polygon fill="#efefef" stroke="transparent" points="751.5,-619.5 751.5,-654.5 975.5,-654.5 975.5,-619.5 751.5,-619.5"/>
<polygon fill="none" stroke="#000000" points="751.5,-619.5 751.5,-654.5 975.5,-654.5 975.5,-619.5 751.5,-619.5"/>
<text text-anchor="start" x="807.3311" y="-632.3" font-family="Arial Bold" font-size="18.00" fill="#000000">party</text>
<text text-anchor="start" x="847.3379" y="-632.3" font-family="Arial" font-size="14.00" fill="#000000">    </text>
<text text-anchor="start" x="881.5427" y="-632.3" font-family="Arial" font-size="14.00" fill="#666666">[table]</text>
<polygon fill="none" stroke="#000000" points="751.5,-589.5 751.5,-619.5 975.5,-619.5 975.5,-589.5 751.5,-589.5"/>
<text text-anchor="start" x="758.5" y="-600.9" font-family="Arial" font-size="14.00" fill="#000000">party_id    </text>
<text text-anchor="start" x="842.493" y="-600.9" font-family="Arial" font-size="14.00" fill="#666666">[VARCHAR]</text>
<polygon fill="none" stroke="#000000" points="751.5,-559.5 751.5,-589.5 975.5,-589.5 975.5,-559.5 751.5,-559.5"/>
<text text-anchor="start" x="758.5" y="-570.9" font-family="Arial" font-size="14.00" fill="#000000">party_type_id    </text>
<text text-anchor="start" x="876.7314" y="-570.9" font-family="Arial" font-size="14.00" fill="#666666">[TEXT]</text>
<polygon fill="none" stroke="#000000" points="751.5,-529.5 751.5,-559.5 975.5,-559.5 975.5,-529.5 751.5,-529.5"/>
<text text-anchor="start" x="758.5" y="-540.9" font-family="Arial" font-size="14.00" fill="#000000">party_name    </text>
<text text-anchor="start" x="866.6122" y="-540.9" font-family="Arial" font-size="14.00" fill="#666666">[TEXT]</text>
<polygon fill="none" stroke="#000000" points="751.5,-499.5 751.5,-529.5 975.5,-529.5 975.5,-499.5 751.5,-499.5"/>
<text text-anchor="start" x="758.5" y="-510.9" font-family="Arial" font-size="14.00" fill="#000000">elaboration    </text>
<text text-anchor="start" x="861.9474" y="-510.9" font-family="Arial" font-size="14.00" fill="#666666">[TEXT]</text>
<polygon fill="none" stroke="#000000" points="751.5,-469.5 751.5,-499.5 975.5,-499.5 975.5,-469.5 751.5,-469.5"/>
<text text-anchor="start" x="758.5" y="-480.9" font-family="Arial" font-size="14.00" fill="#000000">created_at    </text>
<text text-anchor="start" x="858.8422" y="-480.9" font-family="Arial" font-size="14.00" fill="#666666">[TIMESTAMPTZ]</text>
<polygon fill="none" stroke="#000000" points="751.5,-439.5 751.5,-469.5 975.5,-469.5 975.5,-439.5 751.5,-439.5"/>
<text text-anchor="start" x="758.5" y="-450.9" font-family="Arial" font-size="14.00" fill="#000000">created_by    </text>
<text text-anchor="start" x="861.9516" y="-450.9" font-family="Arial" font-size="14.00" fill="#666666">[TEXT]</text>
<polygon fill="none" stroke="#000000" points="751.5,-409.5 751.5,-439.5 975.5,-439.5 975.5,-409.5 751.5,-409.5"/>
<text text-anchor="start" x="758.1017" y="-420.9" font-family="Arial" font-size="14.00" fill="#000000">updated_at    </text>
<text text-anchor="start" x="862.3485" y="-420.9" font-family="Arial" font-size="14.00" fill="#666666">[TIMESTAMPTZ]</text>
<polygon fill="none" stroke="#000000" points="751.5,-379.5 751.5,-409.5 975.5,-409.5 975.5,-379.5 751.5,-379.5"/>
<text text-anchor="start" x="758.5" y="-390.9" font-family="Arial" font-size="14.00" fill="#000000">updated_by    </text>
<text text-anchor="start" x="865.8562" y="-390.9" font-family="Arial" font-size="14.00" fill="#666666">[TEXT]</text>
<polygon fill="none" stroke="#000000" points="751.5,-349.5 751.5,-379.5 975.5,-379.5 975.5,-349.5 751.5,-349.5"/>
<text text-anchor="start" x="758.5" y="-360.9" font-family="Arial" font-size="14.00" fill="#000000">deleted_at    </text>
<text text-anchor="start" x="858.0708" y="-360.9" font-family="Arial" font-size="14.00" fill="#666666">[TIMESTAMPTZ]</text>
<polygon fill="none" stroke="#000000" points="751.5,-319.5 751.5,-349.5 975.5,-349.5 975.5,-319.5 751.5,-319.5"/>
<text text-anchor="start" x="758.5" y="-330.9" font-family="Arial" font-size="14.00" fill="#000000">deleted_by    </text>
<text text-anchor="start" x="861.1802" y="-330.9" font-family="Arial" font-size="14.00" fill="#666666">[TEXT]</text>
<polygon fill="none" stroke="#000000" points="751.5,-289.5 751.5,-319.5 975.5,-319.5 975.5,-289.5 751.5,-289.5"/>
<text text-anchor="start" x="758.5" y="-300.9" font-family="Arial" font-size="14.00" fill="#000000">activity_log    </text>
<text text-anchor="start" x="861.9362" y="-300.9" font-family="Arial" font-size="14.00" fill="#666666">[TEXT]</text>
</g>
<!-- person&#45;&gt;party -->
<g id="edge1" class="edge">
<title>person:person_id&#45;&gt;party:party_id</title>
<path fill="none" stroke="#000000" d="M1492.5393,-1213.207C1402.9416,-1188.361 1515.1111,-812.9006 1447.5,-734 1376.7275,-651.4101 1084.2651,-604.5 975.5,-604.5"/>
<polygon fill="#000000" stroke="#000000" points="1492.5832,-1213.2126 1501.9207,-1218.9626 1497.5416,-1213.8563 1502.5,-1214.5 1502.5,-1214.5 1502.5,-1214.5 1497.5416,-1213.8563 1503.0793,-1210.0374 1492.5832,-1213.2126 1492.5832,-1213.2126"/>
</g>
<!-- gender_type -->
<g id="node8" class="node">
<title>gender_type</title>
<polygon fill="#efefef" stroke="transparent" points="1490.5,-499.5 1490.5,-534.5 1710.5,-534.5 1710.5,-499.5 1490.5,-499.5"/>
<polygon fill="none" stroke="#000000" points="1490.5,-499.5 1490.5,-534.5 1710.5,-534.5 1710.5,-499.5 1490.5,-499.5"/>
<text text-anchor="start" x="1514.3125" y="-512.3" font-family="Arial Bold" font-size="18.00" fill="#000000">gender_type</text>
<text text-anchor="start" x="1614.3565" y="-512.3" font-family="Arial" font-size="14.00" fill="#000000">    </text>
<text text-anchor="start" x="1648.5613" y="-512.3" font-family="Arial" font-size="14.00" fill="#666666">[table]</text>
<polygon fill="none" stroke="#000000" points="1490.5,-469.5 1490.5,-499.5 1710.5,-499.5 1710.5,-469.5 1490.5,-469.5"/>
<text text-anchor="start" x="1497.5" y="-480.9" font-family="Arial" font-size="14.00" fill="#000000">code    </text>
<text text-anchor="start" x="1562.0526" y="-480.9" font-family="Arial" font-size="14.00" fill="#666666">[TEXT]</text>
<polygon fill="none" stroke="#000000" points="1490.5,-439.5 1490.5,-469.5 1710.5,-469.5 1710.5,-439.5 1490.5,-439.5"/>
<text text-anchor="start" x="1497.5" y="-450.9" font-family="Arial" font-size="14.00" fill="#000000">value    </text>
<text text-anchor="start" x="1565.1592" y="-450.9" font-family="Arial" font-size="14.00" fill="#666666">[TEXT]</text>
<polygon fill="none" stroke="#000000" points="1490.5,-409.5 1490.5,-439.5 1710.5,-439.5 1710.5,-409.5 1490.5,-409.5"/>
<text text-anchor="start" x="1497.054" y="-420.9" font-family="Arial" font-size="14.00" fill="#000000">created_at    </text>
<text text-anchor="start" x="1597.3962" y="-420.9" font-family="Arial" font-size="14.00" fill="#666666">[TIMESTAMPTZ]</text>
</g>
<!-- person&#45;&gt;gender_type -->
<g id="edge9" class="edge">
<title>person:gender_id&#45;&gt;gender_type:code</title>
<path fill="none" stroke="#000000" d="M1707.7569,-1030.0728C1760.6879,-978.0217 1768.4022,-484.5 1710.5,-484.5"/>
<polygon fill="#000000" stroke="#000000" points="1707.5214,-1030.1854 1696.5584,-1030.4404 1703.0107,-1032.3427 1698.5,-1034.5 1698.5,-1034.5 1698.5,-1034.5 1703.0107,-1032.3427 1700.4416,-1038.5596 1707.5214,-1030.1854 1707.5214,-1030.1854"/>
</g>
<!-- party_type -->
<g id="node7" class="node">
<title>party_type</title>
<polygon fill="#efefef" stroke="transparent" points="753.5,-132.5 753.5,-167.5 973.5,-167.5 973.5,-132.5 753.5,-132.5"/>
<polygon fill="none" stroke="#000000" points="753.5,-132.5 753.5,-167.5 973.5,-167.5 973.5,-132.5 753.5,-132.5"/>
<text text-anchor="start" x="785.3207" y="-145.3" font-family="Arial Bold" font-size="18.00" fill="#000000">party_type</text>
<text text-anchor="start" x="869.3483" y="-145.3" font-family="Arial" font-size="14.00" fill="#000000">    </text>
<text text-anchor="start" x="903.5531" y="-145.3" font-family="Arial" font-size="14.00" fill="#666666">[table]</text>
<polygon fill="none" stroke="#000000" points="753.5,-102.5 753.5,-132.5 973.5,-132.5 973.5,-102.5 753.5,-102.5"/>
<text text-anchor="start" x="760.5" y="-113.9" font-family="Arial" font-size="14.00" fill="#000000">code    </text>
<text text-anchor="start" x="825.0526" y="-113.9" font-family="Arial" font-size="14.00" fill="#666666">[TEXT]</text>
<polygon fill="none" stroke="#000000" points="753.5,-72.5 753.5,-102.5 973.5,-102.5 973.5,-72.5 753.5,-72.5"/>
<text text-anchor="start" x="760.5" y="-83.9" font-family="Arial" font-size="14.00" fill="#000000">value    </text>
<text text-anchor="start" x="828.1592" y="-83.9" font-family="Arial" font-size="14.00" fill="#666666">[TEXT]</text>
<polygon fill="none" stroke="#000000" points="753.5,-42.5 753.5,-72.5 973.5,-72.5 973.5,-42.5 753.5,-42.5"/>
<text text-anchor="start" x="760.054" y="-53.9" font-family="Arial" font-size="14.00" fill="#000000">created_at    </text>
<text text-anchor="start" x="860.3962" y="-53.9" font-family="Arial" font-size="14.00" fill="#666666">[TIMESTAMPTZ]</text>
</g>
<!-- party&#45;&gt;party_type -->
<g id="edge8" class="edge">
<title>party:party_type_id&#45;&gt;party_type:code</title>
<path fill="none" stroke="#000000" d="M985.7338,-574.1041C1178.486,-559.0134 1173.1419,-117.5 973.5,-117.5"/>
<polygon fill="#000000" stroke="#000000" points="985.4925,-574.1134 975.326,-570.0034 980.4963,-574.3067 975.5,-574.5 975.5,-574.5 975.5,-574.5 980.4963,-574.3067 975.674,-578.9966 985.4925,-574.1134 985.4925,-574.1134"/>
</g>
<!-- party_relation -->
<g id="node3" class="node">
<title>party_relation</title>
<polygon fill="#efefef" stroke="transparent" points="43.5,-1184.5 43.5,-1219.5 270.5,-1219.5 270.5,-1184.5 43.5,-1184.5"/>
<polygon fill="none" stroke="#000000" points="43.5,-1184.5 43.5,-1219.5 270.5,-1219.5 270.5,-1184.5 43.5,-1184.5"/>
<text text-anchor="start" x="66.3242" y="-1197.3" font-family="Arial Bold" font-size="18.00" fill="#000000">party_relation</text>
<text text-anchor="start" x="175.3448" y="-1197.3" font-family="Arial" font-size="14.00" fill="#000000">    </text>
<text text-anchor="start" x="209.5496" y="-1197.3" font-family="Arial" font-size="14.00" fill="#666666">[table]</text>
<polygon fill="none" stroke="#000000" points="43.5,-1154.5 43.5,-1184.5 270.5,-1184.5 270.5,-1154.5 43.5,-1154.5"/>
<text text-anchor="start" x="50.0561" y="-1165.9" font-family="Arial" font-size="14.00" fill="#000000">party_relation_id    </text>
<text text-anchor="start" x="187.7265" y="-1165.9" font-family="Arial" font-size="14.00" fill="#666666">[VARCHAR]</text>
<polygon fill="none" stroke="#000000" points="43.5,-1124.5 43.5,-1154.5 270.5,-1154.5 270.5,-1124.5 43.5,-1124.5"/>
<text text-anchor="start" x="50.5" y="-1135.9" font-family="Arial" font-size="14.00" fill="#000000">party_id    </text>
<text text-anchor="start" x="134.493" y="-1135.9" font-family="Arial" font-size="14.00" fill="#666666">[VARCHAR]</text>
<polygon fill="none" stroke="#000000" points="43.5,-1094.5 43.5,-1124.5 270.5,-1124.5 270.5,-1094.5 43.5,-1094.5"/>
<text text-anchor="start" x="50.5" y="-1105.9" font-family="Arial" font-size="14.00" fill="#000000">related_party_id    </text>
<text text-anchor="start" x="185.0638" y="-1105.9" font-family="Arial" font-size="14.00" fill="#666666">[VARCHAR]</text>
<polygon fill="none" stroke="#000000" points="43.5,-1064.5 43.5,-1094.5 270.5,-1094.5 270.5,-1064.5 43.5,-1064.5"/>
<text text-anchor="start" x="50.5" y="-1075.9" font-family="Arial" font-size="14.00" fill="#000000">relation_type_id    </text>
<text text-anchor="start" x="183.5098" y="-1075.9" font-family="Arial" font-size="14.00" fill="#666666">[TEXT]</text>
<polygon fill="none" stroke="#000000" points="43.5,-1034.5 43.5,-1064.5 270.5,-1064.5 270.5,-1034.5 43.5,-1034.5"/>
<text text-anchor="start" x="50.5" y="-1045.9" font-family="Arial" font-size="14.00" fill="#000000">elaboration    </text>
<text text-anchor="start" x="153.9474" y="-1045.9" font-family="Arial" font-size="14.00" fill="#666666">[TEXT]</text>
<polygon fill="none" stroke="#000000" points="43.5,-1004.5 43.5,-1034.5 270.5,-1034.5 270.5,-1004.5 43.5,-1004.5"/>
<text text-anchor="start" x="50.5" y="-1015.9" font-family="Arial" font-size="14.00" fill="#000000">created_at    </text>
<text text-anchor="start" x="150.8422" y="-1015.9" font-family="Arial" font-size="14.00" fill="#666666">[TIMESTAMPTZ]</text>
<polygon fill="none" stroke="#000000" points="43.5,-974.5 43.5,-1004.5 270.5,-1004.5 270.5,-974.5 43.5,-974.5"/>
<text text-anchor="start" x="50.5" y="-985.9" font-family="Arial" font-size="14.00" fill="#000000">created_by    </text>
<text text-anchor="start" x="153.9516" y="-985.9" font-family="Arial" font-size="14.00" fill="#666666">[TEXT]</text>
<polygon fill="none" stroke="#000000" points="43.5,-944.5 43.5,-974.5 270.5,-974.5 270.5,-944.5 43.5,-944.5"/>
<text text-anchor="start" x="50.5" y="-955.9" font-family="Arial" font-size="14.00" fill="#000000">updated_at    </text>
<text text-anchor="start" x="154.7468" y="-955.9" font-family="Arial" font-size="14.00" fill="#666666">[TIMESTAMPTZ]</text>
<polygon fill="none" stroke="#000000" points="43.5,-914.5 43.5,-944.5 270.5,-944.5 270.5,-914.5 43.5,-914.5"/>
<text text-anchor="start" x="50.5" y="-925.9" font-family="Arial" font-size="14.00" fill="#000000">updated_by    </text>
<text text-anchor="start" x="157.8562" y="-925.9" font-family="Arial" font-size="14.00" fill="#666666">[TEXT]</text>
<polygon fill="none" stroke="#000000" points="43.5,-884.5 43.5,-914.5 270.5,-914.5 270.5,-884.5 43.5,-884.5"/>
<text text-anchor="start" x="50.5" y="-895.9" font-family="Arial" font-size="14.00" fill="#000000">deleted_at    </text>
<text text-anchor="start" x="150.0708" y="-895.9" font-family="Arial" font-size="14.00" fill="#666666">[TIMESTAMPTZ]</text>
<polygon fill="none" stroke="#000000" points="43.5,-854.5 43.5,-884.5 270.5,-884.5 270.5,-854.5 43.5,-854.5"/>
<text text-anchor="start" x="50.5" y="-865.9" font-family="Arial" font-size="14.00" fill="#000000">deleted_by    </text>
<text text-anchor="start" x="153.1802" y="-865.9" font-family="Arial" font-size="14.00" fill="#666666">[TEXT]</text>
<polygon fill="none" stroke="#000000" points="43.5,-824.5 43.5,-854.5 270.5,-854.5 270.5,-824.5 43.5,-824.5"/>
<text text-anchor="start" x="50.5" y="-835.9" font-family="Arial" font-size="14.00" fill="#000000">activity_log    </text>
<text text-anchor="start" x="153.9362" y="-835.9" font-family="Arial" font-size="14.00" fill="#666666">[TEXT]</text>
</g>
<!-- party_relation&#45;&gt;party -->
<g id="edge2" class="edge">
<title>party_relation:related_party_id&#45;&gt;party:party_id</title>
<path fill="none" stroke="#000000" d="M280.427,-1107.8192C347.421,-1083.1913 269.1734,-795.2945 321.5,-734 386.2945,-658.1007 651.7051,-604.5 751.5,-604.5"/>
<polygon fill="#000000" stroke="#000000" points="280.3597,-1107.8305 269.7487,-1105.0631 275.4298,-1108.6653 270.5,-1109.5 270.5,-1109.5 270.5,-1109.5 275.4298,-1108.6653 271.2513,-1113.9369 280.3597,-1107.8305 280.3597,-1107.8305"/>
</g>
<!-- party_relation&#45;&gt;party -->
<g id="edge3" class="edge">
<title>party_relation:party_id&#45;&gt;party:party_id</title>
<path fill="none" stroke="#000000" d="M280.7439,-1137.8452C353.5095,-1112.3752 265.2785,-800.5195 321.5,-734 385.9188,-657.7816 651.7051,-604.5 751.5,-604.5"/>
<polygon fill="#000000" stroke="#000000" points="280.372,-1137.9052 269.7823,-1135.0576 275.436,-1138.7026 270.5,-1139.5 270.5,-1139.5 270.5,-1139.5 275.436,-1138.7026 271.2177,-1143.9424 280.372,-1137.9052 280.372,-1137.9052"/>
</g>
<!-- organization -->
<g id="node4" class="node">
<title>organization</title>
<polygon fill="#efefef" stroke="transparent" points="374.5,-1229.5 374.5,-1264.5 633.5,-1264.5 633.5,-1229.5 374.5,-1229.5"/>
<polygon fill="none" stroke="#000000" points="374.5,-1229.5 374.5,-1264.5 633.5,-1264.5 633.5,-1229.5 374.5,-1229.5"/>
<text text-anchor="start" x="418.8214" y="-1242.3" font-family="Arial Bold" font-size="18.00" fill="#000000">organization</text>
<text text-anchor="start" x="516.8476" y="-1242.3" font-family="Arial" font-size="14.00" fill="#000000">    </text>
<text text-anchor="start" x="551.0524" y="-1242.3" font-family="Arial" font-size="14.00" fill="#666666">[table]</text>
<polygon fill="none" stroke="#000000" points="374.5,-1199.5 374.5,-1229.5 633.5,-1229.5 633.5,-1199.5 374.5,-1199.5"/>
<text text-anchor="start" x="381.5" y="-1210.9" font-family="Arial" font-size="14.00" fill="#000000">organization_id    </text>
<text text-anchor="start" x="510.6192" y="-1210.9" font-family="Arial" font-size="14.00" fill="#666666">[VARCHAR]</text>
<polygon fill="none" stroke="#000000" points="374.5,-1169.5 374.5,-1199.5 633.5,-1199.5 633.5,-1169.5 374.5,-1169.5"/>
<text text-anchor="start" x="381.5" y="-1180.9" font-family="Arial" font-size="14.00" fill="#000000">name    </text>
<text text-anchor="start" x="450.7132" y="-1180.9" font-family="Arial" font-size="14.00" fill="#666666">[TEXT]</text>
<polygon fill="none" stroke="#000000" points="374.5,-1139.5 374.5,-1169.5 633.5,-1169.5 633.5,-1139.5 374.5,-1139.5"/>
<text text-anchor="start" x="381.5" y="-1150.9" font-family="Arial" font-size="14.00" fill="#000000">alias    </text>
<text text-anchor="start" x="444.4832" y="-1150.9" font-family="Arial" font-size="14.00" fill="#666666">[TEXT]</text>
<polygon fill="none" stroke="#000000" points="374.5,-1109.5 374.5,-1139.5 633.5,-1139.5 633.5,-1109.5 374.5,-1109.5"/>
<text text-anchor="start" x="381.5" y="-1120.9" font-family="Arial" font-size="14.00" fill="#000000">description    </text>
<text text-anchor="start" x="483.3822" y="-1120.9" font-family="Arial" font-size="14.00" fill="#666666">[TEXT]</text>
<polygon fill="none" stroke="#000000" points="374.5,-1079.5 374.5,-1109.5 633.5,-1109.5 633.5,-1079.5 374.5,-1079.5"/>
<text text-anchor="start" x="381.5" y="-1090.9" font-family="Arial" font-size="14.00" fill="#000000">license    </text>
<text text-anchor="start" x="459.2658" y="-1090.9" font-family="Arial" font-size="14.00" fill="#666666">[TEXT]</text>
<polygon fill="none" stroke="#000000" points="374.5,-1049.5 374.5,-1079.5 633.5,-1079.5 633.5,-1049.5 374.5,-1049.5"/>
<text text-anchor="start" x="381.5" y="-1060.9" font-family="Arial" font-size="14.00" fill="#000000">federal_tax_id_num    </text>
<text text-anchor="start" x="538.629" y="-1060.9" font-family="Arial" font-size="14.00" fill="#666666">[TEXT]</text>
<polygon fill="none" stroke="#000000" points="374.5,-1019.5 374.5,-1049.5 633.5,-1049.5 633.5,-1019.5 374.5,-1019.5"/>
<text text-anchor="start" x="381.4979" y="-1030.9" font-family="Arial" font-size="14.00" fill="#000000">registration_date    </text>
<text text-anchor="start" x="519.9523" y="-1030.9" font-family="Arial" font-size="14.00" fill="#666666">[TIMESTAMPTZ]</text>
<polygon fill="none" stroke="#000000" points="374.5,-989.5 374.5,-1019.5 633.5,-1019.5 633.5,-989.5 374.5,-989.5"/>
<text text-anchor="start" x="381.5" y="-1000.9" font-family="Arial" font-size="14.00" fill="#000000">elaboration    </text>
<text text-anchor="start" x="484.9474" y="-1000.9" font-family="Arial" font-size="14.00" fill="#666666">[TEXT]</text>
<polygon fill="none" stroke="#000000" points="374.5,-959.5 374.5,-989.5 633.5,-989.5 633.5,-959.5 374.5,-959.5"/>
<text text-anchor="start" x="381.5" y="-970.9" font-family="Arial" font-size="14.00" fill="#000000">created_at    </text>
<text text-anchor="start" x="481.8422" y="-970.9" font-family="Arial" font-size="14.00" fill="#666666">[TIMESTAMPTZ]</text>
<polygon fill="none" stroke="#000000" points="374.5,-929.5 374.5,-959.5 633.5,-959.5 633.5,-929.5 374.5,-929.5"/>
<text text-anchor="start" x="381.5" y="-940.9" font-family="Arial" font-size="14.00" fill="#000000">created_by    </text>
<text text-anchor="start" x="484.9516" y="-940.9" font-family="Arial" font-size="14.00" fill="#666666">[TEXT]</text>
<polygon fill="none" stroke="#000000" points="374.5,-899.5 374.5,-929.5 633.5,-929.5 633.5,-899.5 374.5,-899.5"/>
<text text-anchor="start" x="381.5" y="-910.9" font-family="Arial" font-size="14.00" fill="#000000">updated_at    </text>
<text text-anchor="start" x="485.7468" y="-910.9" font-family="Arial" font-size="14.00" fill="#666666">[TIMESTAMPTZ]</text>
<polygon fill="none" stroke="#000000" points="374.5,-869.5 374.5,-899.5 633.5,-899.5 633.5,-869.5 374.5,-869.5"/>
<text text-anchor="start" x="381.5" y="-880.9" font-family="Arial" font-size="14.00" fill="#000000">updated_by    </text>
<text text-anchor="start" x="488.8562" y="-880.9" font-family="Arial" font-size="14.00" fill="#666666">[TEXT]</text>
<polygon fill="none" stroke="#000000" points="374.5,-839.5 374.5,-869.5 633.5,-869.5 633.5,-839.5 374.5,-839.5"/>
<text text-anchor="start" x="381.5" y="-850.9" font-family="Arial" font-size="14.00" fill="#000000">deleted_at    </text>
<text text-anchor="start" x="481.0708" y="-850.9" font-family="Arial" font-size="14.00" fill="#666666">[TIMESTAMPTZ]</text>
<polygon fill="none" stroke="#000000" points="374.5,-809.5 374.5,-839.5 633.5,-839.5 633.5,-809.5 374.5,-809.5"/>
<text text-anchor="start" x="381.5" y="-820.9" font-family="Arial" font-size="14.00" fill="#000000">deleted_by    </text>
<text text-anchor="start" x="484.1802" y="-820.9" font-family="Arial" font-size="14.00" fill="#666666">[TEXT]</text>
<polygon fill="none" stroke="#000000" points="374.5,-779.5 374.5,-809.5 633.5,-809.5 633.5,-779.5 374.5,-779.5"/>
<text text-anchor="start" x="381.5" y="-790.9" font-family="Arial" font-size="14.00" fill="#000000">activity_log    </text>
<text text-anchor="start" x="484.9362" y="-790.9" font-family="Arial" font-size="14.00" fill="#666666">[TEXT]</text>
</g>
<!-- organization&#45;&gt;party -->
<g id="edge4" class="edge">
<title>organization:organization_id&#45;&gt;party:party_id</title>
<path fill="none" stroke="#000000" d="M642.4992,-1209.9606C685.2565,-1163.9307 671.0947,-782.3488 685.5,-734 703.9458,-672.0901 686.9006,-604.5 751.5,-604.5"/>
<polygon fill="#000000" stroke="#000000" points="642.4284,-1209.9962 631.4733,-1210.4822 637.9642,-1212.2481 633.5,-1214.5 633.5,-1214.5 633.5,-1214.5 637.9642,-1212.2481 635.5267,-1218.5178 642.4284,-1209.9962 642.4284,-1209.9962"/>
</g>
<!-- organization_role -->
<g id="node5" class="node">
<title>organization_role</title>
<polygon fill="#efefef" stroke="transparent" points="737.5,-1184.5 737.5,-1219.5 989.5,-1219.5 989.5,-1184.5 737.5,-1184.5"/>
<polygon fill="none" stroke="#000000" points="737.5,-1184.5 737.5,-1219.5 989.5,-1219.5 989.5,-1184.5 737.5,-1184.5"/>
<text text-anchor="start" x="758.3189" y="-1197.3" font-family="Arial Bold" font-size="18.00" fill="#000000">organization_role</text>
<text text-anchor="start" x="896.3501" y="-1197.3" font-family="Arial" font-size="14.00" fill="#000000">    </text>
<text text-anchor="start" x="930.5549" y="-1197.3" font-family="Arial" font-size="14.00" fill="#666666">[table]</text>
<polygon fill="none" stroke="#000000" points="737.5,-1154.5 737.5,-1184.5 989.5,-1184.5 989.5,-1154.5 737.5,-1154.5"/>
<text text-anchor="start" x="744.5" y="-1165.9" font-family="Arial" font-size="14.00" fill="#000000">organization_role_id    </text>
<text text-anchor="start" x="904.7342" y="-1165.9" font-family="Arial" font-size="14.00" fill="#666666">[VARCHAR]</text>
<polygon fill="none" stroke="#000000" points="737.5,-1124.5 737.5,-1154.5 989.5,-1154.5 989.5,-1124.5 737.5,-1124.5"/>
<text text-anchor="start" x="744.5" y="-1135.9" font-family="Arial" font-size="14.00" fill="#000000">person_id    </text>
<text text-anchor="start" x="840.1676" y="-1135.9" font-family="Arial" font-size="14.00" fill="#666666">[VARCHAR]</text>
<polygon fill="none" stroke="#000000" points="737.5,-1094.5 737.5,-1124.5 989.5,-1124.5 989.5,-1094.5 737.5,-1094.5"/>
<text text-anchor="start" x="744.5" y="-1105.9" font-family="Arial" font-size="14.00" fill="#000000">organization_id    </text>
<text text-anchor="start" x="873.6192" y="-1105.9" font-family="Arial" font-size="14.00" fill="#666666">[VARCHAR]</text>
<polygon fill="none" stroke="#000000" points="737.5,-1064.5 737.5,-1094.5 989.5,-1094.5 989.5,-1064.5 737.5,-1064.5"/>
<text text-anchor="start" x="744.4839" y="-1075.9" font-family="Arial" font-size="14.00" fill="#000000">organization_role_type_id    </text>
<text text-anchor="start" x="938.9565" y="-1075.9" font-family="Arial" font-size="14.00" fill="#666666">[TEXT]</text>
<polygon fill="none" stroke="#000000" points="737.5,-1034.5 737.5,-1064.5 989.5,-1064.5 989.5,-1034.5 737.5,-1034.5"/>
<text text-anchor="start" x="744.5" y="-1045.9" font-family="Arial" font-size="14.00" fill="#000000">elaboration    </text>
<text text-anchor="start" x="847.9474" y="-1045.9" font-family="Arial" font-size="14.00" fill="#666666">[TEXT]</text>
<polygon fill="none" stroke="#000000" points="737.5,-1004.5 737.5,-1034.5 989.5,-1034.5 989.5,-1004.5 737.5,-1004.5"/>
<text text-anchor="start" x="744.5" y="-1015.9" font-family="Arial" font-size="14.00" fill="#000000">created_at    </text>
<text text-anchor="start" x="844.8422" y="-1015.9" font-family="Arial" font-size="14.00" fill="#666666">[TIMESTAMPTZ]</text>
<polygon fill="none" stroke="#000000" points="737.5,-974.5 737.5,-1004.5 989.5,-1004.5 989.5,-974.5 737.5,-974.5"/>
<text text-anchor="start" x="744.5" y="-985.9" font-family="Arial" font-size="14.00" fill="#000000">created_by    </text>
<text text-anchor="start" x="847.9516" y="-985.9" font-family="Arial" font-size="14.00" fill="#666666">[TEXT]</text>
<polygon fill="none" stroke="#000000" points="737.5,-944.5 737.5,-974.5 989.5,-974.5 989.5,-944.5 737.5,-944.5"/>
<text text-anchor="start" x="744.5" y="-955.9" font-family="Arial" font-size="14.00" fill="#000000">updated_at    </text>
<text text-anchor="start" x="848.7468" y="-955.9" font-family="Arial" font-size="14.00" fill="#666666">[TIMESTAMPTZ]</text>
<polygon fill="none" stroke="#000000" points="737.5,-914.5 737.5,-944.5 989.5,-944.5 989.5,-914.5 737.5,-914.5"/>
<text text-anchor="start" x="744.5" y="-925.9" font-family="Arial" font-size="14.00" fill="#000000">updated_by    </text>
<text text-anchor="start" x="851.8562" y="-925.9" font-family="Arial" font-size="14.00" fill="#666666">[TEXT]</text>
<polygon fill="none" stroke="#000000" points="737.5,-884.5 737.5,-914.5 989.5,-914.5 989.5,-884.5 737.5,-884.5"/>
<text text-anchor="start" x="744.5" y="-895.9" font-family="Arial" font-size="14.00" fill="#000000">deleted_at    </text>
<text text-anchor="start" x="844.0708" y="-895.9" font-family="Arial" font-size="14.00" fill="#666666">[TIMESTAMPTZ]</text>
<polygon fill="none" stroke="#000000" points="737.5,-854.5 737.5,-884.5 989.5,-884.5 989.5,-854.5 737.5,-854.5"/>
<text text-anchor="start" x="744.5" y="-865.9" font-family="Arial" font-size="14.00" fill="#000000">deleted_by    </text>
<text text-anchor="start" x="847.1802" y="-865.9" font-family="Arial" font-size="14.00" fill="#666666">[TEXT]</text>
<polygon fill="none" stroke="#000000" points="737.5,-824.5 737.5,-854.5 989.5,-854.5 989.5,-824.5 737.5,-824.5"/>
<text text-anchor="start" x="744.5" y="-835.9" font-family="Arial" font-size="14.00" fill="#000000">activity_log    </text>
<text text-anchor="start" x="847.9362" y="-835.9" font-family="Arial" font-size="14.00" fill="#666666">[TEXT]</text>
</g>
<!-- organization_role&#45;&gt;party -->
<g id="edge5" class="edge">
<title>organization_role:organization_id&#45;&gt;party:party_id</title>
<path fill="none" stroke="#000000" d="M998.3683,-1104.8232C1043.9116,-1053.9131 1028.4533,-604.5 975.5,-604.5"/>
<polygon fill="#000000" stroke="#000000" points="998.3454,-1104.8352 987.4008,-1105.5196 993.9227,-1107.1676 989.5,-1109.5 989.5,-1109.5 989.5,-1109.5 993.9227,-1107.1676 991.5992,-1113.4804 998.3454,-1104.8352 998.3454,-1104.8352"/>
</g>
<!-- organization_role&#45;&gt;party -->
<g id="edge6" class="edge">
<title>organization_role:person_id&#45;&gt;party:party_id</title>
<path fill="none" stroke="#000000" d="M998.6014,-1134.8749C1047.2976,-1082.5844 1031.7128,-604.5 975.5,-604.5"/>
<polygon fill="#000000" stroke="#000000" points="998.4149,-1134.9696 987.4613,-1135.4883 993.9575,-1137.2348 989.5,-1139.5 989.5,-1139.5 989.5,-1139.5 993.9575,-1137.2348 991.5387,-1143.5117 998.4149,-1134.9696 998.4149,-1134.9696"/>
</g>
<!-- device_party_relationship -->
<g id="node6" class="node">
<title>device_party_relationship</title>
<polygon fill="#efefef" stroke="transparent" points="1094.5,-1169.5 1094.5,-1204.5 1395.5,-1204.5 1395.5,-1169.5 1094.5,-1169.5"/>
<polygon fill="none" stroke="#000000" points="1094.5,-1169.5 1094.5,-1204.5 1395.5,-1204.5 1395.5,-1169.5 1094.5,-1169.5"/>
<text text-anchor="start" x="1106.8114" y="-1182.3" font-family="Arial Bold" font-size="18.00" fill="#000000">device_party_relationship</text>
<text text-anchor="start" x="1310.8576" y="-1182.3" font-family="Arial" font-size="14.00" fill="#000000">    </text>
<text text-anchor="start" x="1345.0624" y="-1182.3" font-family="Arial" font-size="14.00" fill="#666666">[table]</text>
<polygon fill="none" stroke="#000000" points="1094.5,-1139.5 1094.5,-1169.5 1395.5,-1169.5 1395.5,-1139.5 1094.5,-1139.5"/>
<text text-anchor="start" x="1101.1017" y="-1150.9" font-family="Arial" font-size="14.00" fill="#000000">device_party_relationship_id    </text>
<text text-anchor="start" x="1312.6809" y="-1150.9" font-family="Arial" font-size="14.00" fill="#666666">[VARCHAR]</text>
<polygon fill="none" stroke="#000000" points="1094.5,-1109.5 1094.5,-1139.5 1395.5,-1139.5 1395.5,-1109.5 1094.5,-1109.5"/>
<text text-anchor="start" x="1101.5" y="-1120.9" font-family="Arial" font-size="14.00" fill="#000000">device_id    </text>
<text text-anchor="start" x="1194.831" y="-1120.9" font-family="Arial" font-size="14.00" fill="#666666">[VARCHAR]</text>
<polygon fill="none" stroke="#000000" points="1094.5,-1079.5 1094.5,-1109.5 1395.5,-1109.5 1395.5,-1079.5 1094.5,-1079.5"/>
<text text-anchor="start" x="1101.5" y="-1090.9" font-family="Arial" font-size="14.00" fill="#000000">party_id    </text>
<text text-anchor="start" x="1185.493" y="-1090.9" font-family="Arial" font-size="14.00" fill="#666666">[VARCHAR]</text>
<polygon fill="none" stroke="#000000" points="1094.5,-1049.5 1094.5,-1079.5 1395.5,-1079.5 1395.5,-1049.5 1094.5,-1049.5"/>
<text text-anchor="start" x="1101.5" y="-1060.9" font-family="Arial" font-size="14.00" fill="#000000">elaboration    </text>
<text text-anchor="start" x="1204.9474" y="-1060.9" font-family="Arial" font-size="14.00" fill="#666666">[TEXT]</text>
<polygon fill="none" stroke="#000000" points="1094.5,-1019.5 1094.5,-1049.5 1395.5,-1049.5 1395.5,-1019.5 1094.5,-1019.5"/>
<text text-anchor="start" x="1101.5" y="-1030.9" font-family="Arial" font-size="14.00" fill="#000000">created_at    </text>
<text text-anchor="start" x="1201.8422" y="-1030.9" font-family="Arial" font-size="14.00" fill="#666666">[TIMESTAMPTZ]</text>
<polygon fill="none" stroke="#000000" points="1094.5,-989.5 1094.5,-1019.5 1395.5,-1019.5 1395.5,-989.5 1094.5,-989.5"/>
<text text-anchor="start" x="1101.5" y="-1000.9" font-family="Arial" font-size="14.00" fill="#000000">created_by    </text>
<text text-anchor="start" x="1204.9516" y="-1000.9" font-family="Arial" font-size="14.00" fill="#666666">[TEXT]</text>
<polygon fill="none" stroke="#000000" points="1094.5,-959.5 1094.5,-989.5 1395.5,-989.5 1395.5,-959.5 1094.5,-959.5"/>
<text text-anchor="start" x="1101.5" y="-970.9" font-family="Arial" font-size="14.00" fill="#000000">updated_at    </text>
<text text-anchor="start" x="1205.7468" y="-970.9" font-family="Arial" font-size="14.00" fill="#666666">[TIMESTAMPTZ]</text>
<polygon fill="none" stroke="#000000" points="1094.5,-929.5 1094.5,-959.5 1395.5,-959.5 1395.5,-929.5 1094.5,-929.5"/>
<text text-anchor="start" x="1101.5" y="-940.9" font-family="Arial" font-size="14.00" fill="#000000">updated_by    </text>
<text text-anchor="start" x="1208.8562" y="-940.9" font-family="Arial" font-size="14.00" fill="#666666">[TEXT]</text>
<polygon fill="none" stroke="#000000" points="1094.5,-899.5 1094.5,-929.5 1395.5,-929.5 1395.5,-899.5 1094.5,-899.5"/>
<text text-anchor="start" x="1101.5" y="-910.9" font-family="Arial" font-size="14.00" fill="#000000">deleted_at    </text>
<text text-anchor="start" x="1201.0708" y="-910.9" font-family="Arial" font-size="14.00" fill="#666666">[TIMESTAMPTZ]</text>
<polygon fill="none" stroke="#000000" points="1094.5,-869.5 1094.5,-899.5 1395.5,-899.5 1395.5,-869.5 1094.5,-869.5"/>
<text text-anchor="start" x="1101.5" y="-880.9" font-family="Arial" font-size="14.00" fill="#000000">deleted_by    </text>
<text text-anchor="start" x="1204.1802" y="-880.9" font-family="Arial" font-size="14.00" fill="#666666">[TEXT]</text>
<polygon fill="none" stroke="#000000" points="1094.5,-839.5 1094.5,-869.5 1395.5,-869.5 1395.5,-839.5 1094.5,-839.5"/>
<text text-anchor="start" x="1101.5" y="-850.9" font-family="Arial" font-size="14.00" fill="#000000">activity_log    </text>
<text text-anchor="start" x="1204.9362" y="-850.9" font-family="Arial" font-size="14.00" fill="#666666">[TEXT]</text>
</g>
<!-- device_party_relationship&#45;&gt;party -->
<g id="edge7" class="edge">
<title>device_party_relationship:party_id&#45;&gt;party:party_id</title>
<path fill="none" stroke="#000000" d="M1084.3771,-1092.829C1018.0951,-1069.4585 1064.9927,-807.6802 1041.5,-734 1021.8761,-672.4534 1040.0994,-604.5 975.5,-604.5"/>
<polygon fill="#000000" stroke="#000000" points="1084.6335,-1092.8712 1093.7671,-1098.9399 1089.5668,-1093.6856 1094.5,-1094.5 1094.5,-1094.5 1094.5,-1094.5 1089.5668,-1093.6856 1095.2329,-1090.0601 1084.6335,-1092.8712 1084.6335,-1092.8712"/>
</g>
</g>
</svg>
