<?xml version="1.0" encoding="UTF-8" standalone="no"?>
<!DOCTYPE svg PUBLIC "-//W3C//DTD SVG 1.1//EN"
 "http://www.w3.org/Graphics/SVG/1.1/DTD/svg11.dtd">
<!-- Generated by graphviz version 2.40.1 (20161225.0304)
 -->
<!-- Title: gender_type Pages: 1 -->
<svg width="618pt" height="1066pt"
 viewBox="0.00 0.00 618.00 1066.00" xmlns="http://www.w3.org/2000/svg" xmlns:xlink="http://www.w3.org/1999/xlink">
<g id="graph0" class="graph" transform="scale(1 1) rotate(0) translate(4 1062)">
<title>gender_type</title>
<polygon fill="#ffffff" stroke="transparent" points="-4,4 -4,-1062 614,-1062 614,4 -4,4"/>
<!-- gender_type -->
<g id="node1" class="node">
<title>gender_type</title>
<polygon fill="#efefef" stroke="transparent" points="46,-252.5 46,-287.5 236,-287.5 236,-252.5 46,-252.5"/>
<polygon fill="none" stroke="#000000" points="46,-252.5 46,-287.5 236,-287.5 236,-252.5 46,-252.5"/>
<text text-anchor="start" x="54.8125" y="-265.3" font-family="Arial Bold" font-size="18.00" fill="#000000">gender_type</text>
<text text-anchor="start" x="154.8565" y="-265.3" font-family="Arial" font-size="14.00" fill="#000000">    </text>
<text text-anchor="start" x="189.0613" y="-265.3" font-family="Arial" font-size="14.00" fill="#666666">[table]</text>
<polygon fill="none" stroke="#000000" points="46,-222.5 46,-252.5 236,-252.5 236,-222.5 46,-222.5"/>
<text text-anchor="start" x="53" y="-233.9" font-family="Arial" font-size="14.00" fill="#000000">code </text>
<text text-anchor="start" x="87.2384" y="-233.9" font-family="Arial" font-size="14.00" fill="#666666">[TEXT]</text>
<polygon fill="none" stroke="#000000" points="46,-192.5 46,-222.5 236,-222.5 236,-192.5 46,-192.5"/>
<text text-anchor="start" x="53" y="-203.9" font-family="Arial" font-size="14.00" fill="#000000">value </text>
<text text-anchor="start" x="90.345" y="-203.9" font-family="Arial" font-size="14.00" fill="#666666">[TEXT]</text>
<polygon fill="none" stroke="#000000" points="46,-162.5 46,-192.5 236,-192.5 236,-162.5 46,-162.5"/>
<text text-anchor="start" x="52.7111" y="-173.9" font-family="Arial" font-size="14.00" fill="#000000">created_at </text>
<text text-anchor="start" x="122.7391" y="-173.9" font-family="Arial" font-size="14.00" fill="#666666">[TIMESTAMPTZ]</text>
<polygon fill="none" stroke="#000000" stroke-width="3" points="44.5,-161.5 44.5,-289.5 237.5,-289.5 237.5,-161.5 44.5,-161.5"/>
</g>
<!-- person -->
<g id="node2" class="node">
<title>person</title>
<polygon fill="#efefef" stroke="transparent" points="185,-979.5 185,-1014.5 411,-1014.5 411,-979.5 185,-979.5"/>
<polygon fill="none" stroke="#000000" points="185,-979.5 185,-1014.5 411,-1014.5 411,-979.5 185,-979.5"/>
<text text-anchor="start" x="234.326" y="-992.3" font-family="Arial Bold" font-size="18.00" fill="#000000">person</text>
<text text-anchor="start" x="289.343" y="-992.3" font-family="Arial" font-size="14.00" fill="#000000">    </text>
<text text-anchor="start" x="323.5478" y="-992.3" font-family="Arial" font-size="14.00" fill="#666666">[table]</text>
<polygon fill="none" stroke="#000000" points="185,-949.5 185,-979.5 411,-979.5 411,-949.5 185,-949.5"/>
<text text-anchor="start" x="192" y="-960.9" font-family="Arial" font-size="14.00" fill="#000000">person_id    </text>
<text text-anchor="start" x="287.6676" y="-960.9" font-family="Arial" font-size="14.00" fill="#666666">[VARCHAR]</text>
<polygon fill="none" stroke="#000000" points="185,-919.5 185,-949.5 411,-949.5 411,-919.5 185,-919.5"/>
<text text-anchor="start" x="192" y="-930.9" font-family="Arial" font-size="14.00" fill="#000000">person_first_name    </text>
<text text-anchor="start" x="342.1178" y="-930.9" font-family="Arial" font-size="14.00" fill="#666666">[TEXT]</text>
<polygon fill="none" stroke="#000000" points="185,-889.5 185,-919.5 411,-919.5 411,-889.5 185,-889.5"/>
<text text-anchor="start" x="191.8247" y="-900.9" font-family="Arial" font-size="14.00" fill="#000000">person_middle_name    </text>
<text text-anchor="start" x="360.6157" y="-900.9" font-family="Arial" font-size="14.00" fill="#666666">[TEXT]</text>
<polygon fill="none" stroke="#000000" points="185,-859.5 185,-889.5 411,-889.5 411,-859.5 185,-859.5"/>
<text text-anchor="start" x="192" y="-870.9" font-family="Arial" font-size="14.00" fill="#000000">person_last_name    </text>
<text text-anchor="start" x="341.3492" y="-870.9" font-family="Arial" font-size="14.00" fill="#666666">[TEXT]</text>
<polygon fill="none" stroke="#000000" points="185,-829.5 185,-859.5 411,-859.5 411,-829.5 185,-829.5"/>
<text text-anchor="start" x="192" y="-840.9" font-family="Arial" font-size="14.00" fill="#000000">honorific_prefix    </text>
<text text-anchor="start" x="321.1052" y="-840.9" font-family="Arial" font-size="14.00" fill="#666666">[TEXT]</text>
<polygon fill="none" stroke="#000000" points="185,-799.5 185,-829.5 411,-829.5 411,-799.5 185,-799.5"/>
<text text-anchor="start" x="192" y="-810.9" font-family="Arial" font-size="14.00" fill="#000000">honorific_suffix    </text>
<text text-anchor="start" x="319.5526" y="-810.9" font-family="Arial" font-size="14.00" fill="#666666">[TEXT]</text>
<polygon fill="none" stroke="#000000" points="185,-769.5 185,-799.5 411,-799.5 411,-769.5 185,-769.5"/>
<text text-anchor="start" x="192" y="-780.9" font-family="Arial" font-size="14.00" fill="#000000">gender_id    </text>
<text text-anchor="start" x="288.4502" y="-780.9" font-family="Arial" font-size="14.00" fill="#666666">[TEXT]</text>
<polygon fill="none" stroke="#000000" points="185,-739.5 185,-769.5 411,-769.5 411,-739.5 185,-739.5"/>
<text text-anchor="start" x="192" y="-750.9" font-family="Arial" font-size="14.00" fill="#000000">elaboration    </text>
<text text-anchor="start" x="295.4474" y="-750.9" font-family="Arial" font-size="14.00" fill="#666666">[TEXT]</text>
<polygon fill="none" stroke="#000000" points="185,-709.5 185,-739.5 411,-739.5 411,-709.5 185,-709.5"/>
<text text-anchor="start" x="192" y="-720.9" font-family="Arial" font-size="14.00" fill="#000000">created_at    </text>
<text text-anchor="start" x="292.3422" y="-720.9" font-family="Arial" font-size="14.00" fill="#666666">[TIMESTAMPTZ]</text>
<polygon fill="none" stroke="#000000" points="185,-679.5 185,-709.5 411,-709.5 411,-679.5 185,-679.5"/>
<text text-anchor="start" x="192" y="-690.9" font-family="Arial" font-size="14.00" fill="#000000">created_by    </text>
<text text-anchor="start" x="295.4516" y="-690.9" font-family="Arial" font-size="14.00" fill="#666666">[TEXT]</text>
<polygon fill="none" stroke="#000000" points="185,-649.5 185,-679.5 411,-679.5 411,-649.5 185,-649.5"/>
<text text-anchor="start" x="192" y="-660.9" font-family="Arial" font-size="14.00" fill="#000000">updated_at    </text>
<text text-anchor="start" x="296.2468" y="-660.9" font-family="Arial" font-size="14.00" fill="#666666">[TIMESTAMPTZ]</text>
<polygon fill="none" stroke="#000000" points="185,-619.5 185,-649.5 411,-649.5 411,-619.5 185,-619.5"/>
<text text-anchor="start" x="192" y="-630.9" font-family="Arial" font-size="14.00" fill="#000000">updated_by    </text>
<text text-anchor="start" x="299.3562" y="-630.9" font-family="Arial" font-size="14.00" fill="#666666">[TEXT]</text>
<polygon fill="none" stroke="#000000" points="185,-589.5 185,-619.5 411,-619.5 411,-589.5 185,-589.5"/>
<text text-anchor="start" x="192" y="-600.9" font-family="Arial" font-size="14.00" fill="#000000">deleted_at    </text>
<text text-anchor="start" x="291.5708" y="-600.9" font-family="Arial" font-size="14.00" fill="#666666">[TIMESTAMPTZ]</text>
<polygon fill="none" stroke="#000000" points="185,-559.5 185,-589.5 411,-589.5 411,-559.5 185,-559.5"/>
<text text-anchor="start" x="192" y="-570.9" font-family="Arial" font-size="14.00" fill="#000000">deleted_by    </text>
<text text-anchor="start" x="294.6802" y="-570.9" font-family="Arial" font-size="14.00" fill="#666666">[TEXT]</text>
<polygon fill="none" stroke="#000000" points="185,-529.5 185,-559.5 411,-559.5 411,-529.5 185,-529.5"/>
<text text-anchor="start" x="192" y="-540.9" font-family="Arial" font-size="14.00" fill="#000000">activity_log    </text>
<text text-anchor="start" x="295.4362" y="-540.9" font-family="Arial" font-size="14.00" fill="#666666">[TEXT]</text>
</g>
<!-- person&#45;&gt;gender_type -->
<g id="edge1" class="edge">
<title>person:gender_id&#45;&gt;gender_type:code</title>
<path fill="none" stroke="#000000" d="M174.6925,-784.1296C58.7832,-775.3953 164.3995,-613.9461 185,-487 196.4816,-416.2473 224.5184,-404.7527 236,-334 242.87,-291.6649 278.8889,-237.5 236,-237.5"/>
<polygon fill="#000000" stroke="#000000" points="175.0065,-784.1408 184.8384,-788.9971 180.0032,-784.3204 185,-784.5 185,-784.5 185,-784.5 180.0032,-784.3204 185.1616,-780.0029 175.0065,-784.1408 175.0065,-784.1408"/>
</g>
<!-- party -->
<g id="node3" class="node">
<title>party</title>
<polygon fill="#efefef" stroke="transparent" points="343,-372.5 343,-407.5 567,-407.5 567,-372.5 343,-372.5"/>
<polygon fill="none" stroke="#000000" points="343,-372.5 343,-407.5 567,-407.5 567,-372.5 343,-372.5"/>
<text text-anchor="start" x="398.8311" y="-385.3" font-family="Arial Bold" font-size="18.00" fill="#000000">party</text>
<text text-anchor="start" x="438.8379" y="-385.3" font-family="Arial" font-size="14.00" fill="#000000">    </text>
<text text-anchor="start" x="473.0427" y="-385.3" font-family="Arial" font-size="14.00" fill="#666666">[table]</text>
<polygon fill="none" stroke="#000000" points="343,-342.5 343,-372.5 567,-372.5 567,-342.5 343,-342.5"/>
<text text-anchor="start" x="350" y="-353.9" font-family="Arial" font-size="14.00" fill="#000000">party_id    </text>
<text text-anchor="start" x="433.993" y="-353.9" font-family="Arial" font-size="14.00" fill="#666666">[VARCHAR]</text>
<polygon fill="none" stroke="#000000" points="343,-312.5 343,-342.5 567,-342.5 567,-312.5 343,-312.5"/>
<text text-anchor="start" x="350" y="-323.9" font-family="Arial" font-size="14.00" fill="#000000">party_type_id    </text>
<text text-anchor="start" x="468.2314" y="-323.9" font-family="Arial" font-size="14.00" fill="#666666">[TEXT]</text>
<polygon fill="none" stroke="#000000" points="343,-282.5 343,-312.5 567,-312.5 567,-282.5 343,-282.5"/>
<text text-anchor="start" x="350" y="-293.9" font-family="Arial" font-size="14.00" fill="#000000">party_name    </text>
<text text-anchor="start" x="458.1122" y="-293.9" font-family="Arial" font-size="14.00" fill="#666666">[TEXT]</text>
<polygon fill="none" stroke="#000000" points="343,-252.5 343,-282.5 567,-282.5 567,-252.5 343,-252.5"/>
<text text-anchor="start" x="350" y="-263.9" font-family="Arial" font-size="14.00" fill="#000000">elaboration    </text>
<text text-anchor="start" x="453.4474" y="-263.9" font-family="Arial" font-size="14.00" fill="#666666">[TEXT]</text>
<polygon fill="none" stroke="#000000" points="343,-222.5 343,-252.5 567,-252.5 567,-222.5 343,-222.5"/>
<text text-anchor="start" x="350" y="-233.9" font-family="Arial" font-size="14.00" fill="#000000">created_at    </text>
<text text-anchor="start" x="450.3422" y="-233.9" font-family="Arial" font-size="14.00" fill="#666666">[TIMESTAMPTZ]</text>
<polygon fill="none" stroke="#000000" points="343,-192.5 343,-222.5 567,-222.5 567,-192.5 343,-192.5"/>
<text text-anchor="start" x="350" y="-203.9" font-family="Arial" font-size="14.00" fill="#000000">created_by    </text>
<text text-anchor="start" x="453.4516" y="-203.9" font-family="Arial" font-size="14.00" fill="#666666">[TEXT]</text>
<polygon fill="none" stroke="#000000" points="343,-162.5 343,-192.5 567,-192.5 567,-162.5 343,-162.5"/>
<text text-anchor="start" x="349.6017" y="-173.9" font-family="Arial" font-size="14.00" fill="#000000">updated_at    </text>
<text text-anchor="start" x="453.8485" y="-173.9" font-family="Arial" font-size="14.00" fill="#666666">[TIMESTAMPTZ]</text>
<polygon fill="none" stroke="#000000" points="343,-132.5 343,-162.5 567,-162.5 567,-132.5 343,-132.5"/>
<text text-anchor="start" x="350" y="-143.9" font-family="Arial" font-size="14.00" fill="#000000">updated_by    </text>
<text text-anchor="start" x="457.3562" y="-143.9" font-family="Arial" font-size="14.00" fill="#666666">[TEXT]</text>
<polygon fill="none" stroke="#000000" points="343,-102.5 343,-132.5 567,-132.5 567,-102.5 343,-102.5"/>
<text text-anchor="start" x="350" y="-113.9" font-family="Arial" font-size="14.00" fill="#000000">deleted_at    </text>
<text text-anchor="start" x="449.5708" y="-113.9" font-family="Arial" font-size="14.00" fill="#666666">[TIMESTAMPTZ]</text>
<polygon fill="none" stroke="#000000" points="343,-72.5 343,-102.5 567,-102.5 567,-72.5 343,-72.5"/>
<text text-anchor="start" x="350" y="-83.9" font-family="Arial" font-size="14.00" fill="#000000">deleted_by    </text>
<text text-anchor="start" x="452.6802" y="-83.9" font-family="Arial" font-size="14.00" fill="#666666">[TEXT]</text>
<polygon fill="none" stroke="#000000" points="343,-42.5 343,-72.5 567,-72.5 567,-42.5 343,-42.5"/>
<text text-anchor="start" x="350" y="-53.9" font-family="Arial" font-size="14.00" fill="#000000">activity_log    </text>
<text text-anchor="start" x="453.4362" y="-53.9" font-family="Arial" font-size="14.00" fill="#666666">[TEXT]</text>
</g>
<!-- person&#45;&gt;party -->
<g id="edge2" class="edge">
<title>person:person_id&#45;&gt;party:party_id</title>
<path fill="none" stroke="#000000" d="M421.0147,-964.2714C619.909,-955.0006 518.7017,-665.8823 411,-487 393.3614,-457.7039 360.6386,-480.2961 343,-451 321.5654,-415.3991 301.4444,-357.5 343,-357.5"/>
<polygon fill="#000000" stroke="#000000" points="420.9974,-964.2717 410.8973,-960.0012 415.9987,-964.3858 411,-964.5 411,-964.5 411,-964.5 415.9987,-964.3858 411.1027,-968.9988 420.9974,-964.2717 420.9974,-964.2717"/>
</g>
</g>
</svg>
