<?xml version="1.0" encoding="UTF-8" standalone="no"?>
<!DOCTYPE svg PUBLIC "-//W3C//DTD SVG 1.1//EN"
 "http://www.w3.org/Graphics/SVG/1.1/DTD/svg11.dtd">
<!-- Generated by graphviz version 12.1.2 (20240928.0832)
 -->
<!-- Title: orchestration_session_issue Pages: 1 -->
<svg width="1195pt" height="2271pt"
 viewBox="0.00 0.00 1195.17 2271.20" xmlns="http://www.w3.org/2000/svg" xmlns:xlink="http://www.w3.org/1999/xlink">
<g id="graph0" class="graph" transform="scale(1 1) rotate(0) translate(4 2267.2)">
<title>orchestration_session_issue</title>
<polygon fill="white" stroke="none" points="-4,4 -4,-2267.2 1191.17,-2267.2 1191.17,4 -4,4"/>
<!-- orchestration_session_issue -->
<g id="node1" class="node">
<title>orchestration_session_issue</title>
<polygon fill="#efefef" stroke="none" points="75.19,-1795.4 75.19,-1831 358.41,-1831 358.41,-1795.4 75.19,-1795.4"/>
<polygon fill="none" stroke="black" points="75.19,-1795.4 75.19,-1831 358.41,-1831 358.41,-1795.4 75.19,-1795.4"/>
<text text-anchor="start" x="82.19" y="-1808.8" font-family="Arial Bold" font-size="18.00">orchestration_session_issue</text>
<text text-anchor="start" x="282.16" y="-1808.8" font-family="Arial" font-size="14.00">    </text>
<text text-anchor="start" x="313.27" y="-1808.8" font-family="Arial" font-size="14.00" fill="#666666">[table]</text>
<polygon fill="none" stroke="black" points="75.19,-1764.6 75.19,-1795.4 358.41,-1795.4 358.41,-1764.6 75.19,-1764.6"/>
<text text-anchor="start" x="82.19" y="-1776.8" font-family="Arial" font-size="14.00">orchestration_session_issue_id </text>
<text text-anchor="start" x="281.41" y="-1776.8" font-family="Arial" font-size="14.00" fill="#666666">[UUID]</text>
<polygon fill="none" stroke="black" points="75.19,-1733.8 75.19,-1764.6 358.41,-1764.6 358.41,-1733.8 75.19,-1733.8"/>
<text text-anchor="start" x="82.19" y="-1746" font-family="Arial" font-size="14.00">session_id </text>
<text text-anchor="start" x="152.23" y="-1746" font-family="Arial" font-size="14.00" fill="#666666">[VARCHAR]</text>
<polygon fill="none" stroke="black" points="75.19,-1703 75.19,-1733.8 358.41,-1733.8 358.41,-1703 75.19,-1703"/>
<text text-anchor="start" x="82.19" y="-1715.2" font-family="Arial" font-size="14.00">session_entry_id </text>
<text text-anchor="start" x="191.14" y="-1715.2" font-family="Arial" font-size="14.00" fill="#666666">[VARCHAR]</text>
<polygon fill="none" stroke="black" points="75.19,-1672.2 75.19,-1703 358.41,-1703 358.41,-1672.2 75.19,-1672.2"/>
<text text-anchor="start" x="82.19" y="-1684.4" font-family="Arial" font-size="14.00">issue_type </text>
<text text-anchor="start" x="153.01" y="-1684.4" font-family="Arial" font-size="14.00" fill="#666666">[TEXT]</text>
<polygon fill="none" stroke="black" points="75.19,-1641.4 75.19,-1672.2 358.41,-1672.2 358.41,-1641.4 75.19,-1641.4"/>
<text text-anchor="start" x="82.19" y="-1653.6" font-family="Arial" font-size="14.00">issue_message </text>
<text text-anchor="start" x="183.35" y="-1653.6" font-family="Arial" font-size="14.00" fill="#666666">[TEXT]</text>
<polygon fill="none" stroke="black" points="75.19,-1610.6 75.19,-1641.4 358.41,-1641.4 358.41,-1610.6 75.19,-1610.6"/>
<text text-anchor="start" x="82.19" y="-1622.8" font-family="Arial" font-size="14.00">issue_row </text>
<text text-anchor="start" x="149.1" y="-1622.8" font-family="Arial" font-size="14.00" fill="#666666">[INTEGER]</text>
<polygon fill="none" stroke="black" points="75.19,-1579.8 75.19,-1610.6 358.41,-1610.6 358.41,-1579.8 75.19,-1579.8"/>
<text text-anchor="start" x="82.19" y="-1592" font-family="Arial" font-size="14.00">issue_column </text>
<text text-anchor="start" x="171.68" y="-1592" font-family="Arial" font-size="14.00" fill="#666666">[TEXT]</text>
<polygon fill="none" stroke="black" points="75.19,-1549 75.19,-1579.8 358.41,-1579.8 358.41,-1549 75.19,-1549"/>
<text text-anchor="start" x="82.19" y="-1561.2" font-family="Arial" font-size="14.00">invalid_value </text>
<text text-anchor="start" x="167.02" y="-1561.2" font-family="Arial" font-size="14.00" fill="#666666">[TEXT]</text>
<polygon fill="none" stroke="black" points="75.19,-1518.2 75.19,-1549 358.41,-1549 358.41,-1518.2 75.19,-1518.2"/>
<text text-anchor="start" x="82.19" y="-1530.4" font-family="Arial" font-size="14.00">remediation </text>
<text text-anchor="start" x="159.23" y="-1530.4" font-family="Arial" font-size="14.00" fill="#666666">[TEXT]</text>
<polygon fill="none" stroke="black" points="75.19,-1487.4 75.19,-1518.2 358.41,-1518.2 358.41,-1487.4 75.19,-1487.4"/>
<text text-anchor="start" x="82.19" y="-1499.6" font-family="Arial" font-size="14.00">elaboration </text>
<text text-anchor="start" x="155.35" y="-1499.6" font-family="Arial" font-size="14.00" fill="#666666">[TEXT]</text>
<polygon fill="none" stroke="black" stroke-width="3" points="73.69,-1485.9 73.69,-1832.5 359.91,-1832.5 359.91,-1485.9 73.69,-1485.9"/>
</g>
<!-- orchestration_session -->
<g id="node3" class="node">
<title>orchestration_session</title>
<polygon fill="#efefef" stroke="none" points="547.3,-940.4 547.3,-976 796.3,-976 796.3,-940.4 547.3,-940.4"/>
<polygon fill="none" stroke="black" points="547.3,-940.4 547.3,-976 796.3,-976 796.3,-940.4 547.3,-940.4"/>
<text text-anchor="start" x="559.69" y="-953.8" font-family="Arial Bold" font-size="18.00">orchestration_session</text>
<text text-anchor="start" x="714.66" y="-953.8" font-family="Arial" font-size="14.00">    </text>
<text text-anchor="start" x="745.77" y="-953.8" font-family="Arial" font-size="14.00" fill="#666666">[table]</text>
<polygon fill="none" stroke="black" points="547.3,-909.6 547.3,-940.4 796.3,-940.4 796.3,-909.6 547.3,-909.6"/>
<text text-anchor="start" x="554.3" y="-921.8" font-family="Arial" font-size="14.00">orchestration_session_id </text>
<text text-anchor="start" x="713.06" y="-921.8" font-family="Arial" font-size="14.00" fill="#666666">[VARCHAR]</text>
<polygon fill="none" stroke="black" points="547.3,-878.8 547.3,-909.6 796.3,-909.6 796.3,-878.8 547.3,-878.8"/>
<text text-anchor="start" x="554.3" y="-891" font-family="Arial" font-size="14.00">device_id </text>
<text text-anchor="start" x="617.34" y="-891" font-family="Arial" font-size="14.00" fill="#666666">[VARCHAR]</text>
<polygon fill="none" stroke="black" points="547.3,-848 547.3,-878.8 796.3,-878.8 796.3,-848 547.3,-848"/>
<text text-anchor="start" x="554.3" y="-860.2" font-family="Arial" font-size="14.00">orchestration_nature_id </text>
<text text-anchor="start" x="705.29" y="-860.2" font-family="Arial" font-size="14.00" fill="#666666">[TEXT]</text>
<polygon fill="none" stroke="black" points="547.3,-817.2 547.3,-848 796.3,-848 796.3,-817.2 547.3,-817.2"/>
<text text-anchor="start" x="554.3" y="-829.4" font-family="Arial" font-size="14.00">version </text>
<text text-anchor="start" x="603.32" y="-829.4" font-family="Arial" font-size="14.00" fill="#666666">[TEXT]</text>
<polygon fill="none" stroke="black" points="547.3,-786.4 547.3,-817.2 796.3,-817.2 796.3,-786.4 547.3,-786.4"/>
<text text-anchor="start" x="554.3" y="-798.6" font-family="Arial" font-size="14.00">orch_started_at </text>
<text text-anchor="start" x="655.48" y="-798.6" font-family="Arial" font-size="14.00" fill="#666666">[TIMESTAMPTZ]</text>
<polygon fill="none" stroke="black" points="547.3,-755.6 547.3,-786.4 796.3,-786.4 796.3,-755.6 547.3,-755.6"/>
<text text-anchor="start" x="554.3" y="-767.8" font-family="Arial" font-size="14.00">orch_finished_at </text>
<text text-anchor="start" x="660.93" y="-767.8" font-family="Arial" font-size="14.00" fill="#666666">[TIMESTAMPTZ]</text>
<polygon fill="none" stroke="black" points="547.3,-724.8 547.3,-755.6 796.3,-755.6 796.3,-724.8 547.3,-724.8"/>
<text text-anchor="start" x="554.3" y="-737" font-family="Arial" font-size="14.00">elaboration </text>
<text text-anchor="start" x="627.47" y="-737" font-family="Arial" font-size="14.00" fill="#666666">[TEXT]</text>
<polygon fill="none" stroke="black" points="547.3,-694 547.3,-724.8 796.3,-724.8 796.3,-694 547.3,-694"/>
<text text-anchor="start" x="554.3" y="-706.2" font-family="Arial" font-size="14.00">args_json </text>
<text text-anchor="start" x="618.9" y="-706.2" font-family="Arial" font-size="14.00" fill="#666666">[TEXT]</text>
<polygon fill="none" stroke="black" points="547.3,-663.2 547.3,-694 796.3,-694 796.3,-663.2 547.3,-663.2"/>
<text text-anchor="start" x="554.3" y="-675.4" font-family="Arial" font-size="14.00">diagnostics_json </text>
<text text-anchor="start" x="661.7" y="-675.4" font-family="Arial" font-size="14.00" fill="#666666">[TEXT]</text>
<polygon fill="none" stroke="black" points="547.3,-632.4 547.3,-663.2 796.3,-663.2 796.3,-632.4 547.3,-632.4"/>
<text text-anchor="start" x="554.3" y="-644.6" font-family="Arial" font-size="14.00">diagnostics_md </text>
<text text-anchor="start" x="655.47" y="-644.6" font-family="Arial" font-size="14.00" fill="#666666">[TEXT]</text>
</g>
<!-- orchestration_session_issue&#45;&gt;orchestration_session -->
<g id="edge2" class="edge">
<title>orchestration_session_issue:session_id&#45;&gt;orchestration_session:orchestration_session_id</title>
<path fill="none" stroke="black" d="M362.94,-1739.63C376.19,-1657.28 360.59,-1071.13 368.8,-1055.2 413.61,-968.23 448.47,-925 546.3,-925"/>
<polygon fill="black" stroke="black" points="362.98,-1739.5 355.3,-1747.33 361.14,-1744.51 359.64,-1748.57 359.64,-1748.57 359.64,-1748.57 361.14,-1744.51 363.75,-1750.44 362.98,-1739.5"/>
</g>
<!-- orchestration_session_entry -->
<g id="node4" class="node">
<title>orchestration_session_entry</title>
<polygon fill="#efefef" stroke="none" points="420.85,-1252.4 420.85,-1288 708.75,-1288 708.75,-1252.4 420.85,-1252.4"/>
<polygon fill="none" stroke="black" points="420.85,-1252.4 420.85,-1288 708.75,-1288 708.75,-1252.4 420.85,-1252.4"/>
<text text-anchor="start" x="429.7" y="-1265.8" font-family="Arial Bold" font-size="18.00">orchestration_session_entry</text>
<text text-anchor="start" x="630.65" y="-1265.8" font-family="Arial" font-size="14.00">    </text>
<text text-anchor="start" x="661.77" y="-1265.8" font-family="Arial" font-size="14.00" fill="#666666">[table]</text>
<polygon fill="none" stroke="black" points="420.85,-1221.6 420.85,-1252.4 708.75,-1252.4 708.75,-1221.6 420.85,-1221.6"/>
<text text-anchor="start" x="427.85" y="-1233.8" font-family="Arial" font-size="14.00">orchestration_session_entry_id </text>
<text text-anchor="start" x="625.52" y="-1233.8" font-family="Arial" font-size="14.00" fill="#666666">[VARCHAR]</text>
<polygon fill="none" stroke="black" points="420.85,-1190.8 420.85,-1221.6 708.75,-1221.6 708.75,-1190.8 420.85,-1190.8"/>
<text text-anchor="start" x="427.85" y="-1203" font-family="Arial" font-size="14.00">session_id </text>
<text text-anchor="start" x="497.89" y="-1203" font-family="Arial" font-size="14.00" fill="#666666">[VARCHAR]</text>
<polygon fill="none" stroke="black" points="420.85,-1160 420.85,-1190.8 708.75,-1190.8 708.75,-1160 420.85,-1160"/>
<text text-anchor="start" x="427.85" y="-1172.2" font-family="Arial" font-size="14.00">ingest_src </text>
<text text-anchor="start" x="495.54" y="-1172.2" font-family="Arial" font-size="14.00" fill="#666666">[TEXT]</text>
<polygon fill="none" stroke="black" points="420.85,-1129.2 420.85,-1160 708.75,-1160 708.75,-1129.2 420.85,-1129.2"/>
<text text-anchor="start" x="427.85" y="-1141.4" font-family="Arial" font-size="14.00">ingest_table_name </text>
<text text-anchor="start" x="550.05" y="-1141.4" font-family="Arial" font-size="14.00" fill="#666666">[TEXT]</text>
<polygon fill="none" stroke="black" points="420.85,-1098.4 420.85,-1129.2 708.75,-1129.2 708.75,-1098.4 420.85,-1098.4"/>
<text text-anchor="start" x="427.85" y="-1110.6" font-family="Arial" font-size="14.00">elaboration </text>
<text text-anchor="start" x="501.01" y="-1110.6" font-family="Arial" font-size="14.00" fill="#666666">[TEXT]</text>
</g>
<!-- orchestration_session_issue&#45;&gt;orchestration_session_entry -->
<g id="edge8" class="edge">
<title>orchestration_session_issue:session_entry_id&#45;&gt;orchestration_session_entry:orchestration_session_entry_id</title>
<path fill="none" stroke="black" d="M369.57,-1716.75C456.93,-1686.05 315.72,-1237 419.85,-1237"/>
<polygon fill="black" stroke="black" points="369.61,-1716.74 359.02,-1713.9 364.35,-1717.6 360.07,-1718.29 360.07,-1718.29 360.07,-1718.29 364.35,-1717.6 360.46,-1722.79 369.61,-1716.74"/>
</g>
<!-- orchestration_session_issue_relation -->
<g id="node2" class="node">
<title>orchestration_session_issue_relation</title>
<polygon fill="#efefef" stroke="none" points="43.2,-2184.4 43.2,-2220 390.4,-2220 390.4,-2184.4 43.2,-2184.4"/>
<polygon fill="none" stroke="black" points="43.2,-2184.4 43.2,-2220 390.4,-2220 390.4,-2184.4 43.2,-2184.4"/>
<text text-anchor="start" x="50.2" y="-2197.8" font-family="Arial Bold" font-size="18.00">orchestration_session_issue_relation</text>
<text text-anchor="start" x="314.14" y="-2197.8" font-family="Arial" font-size="14.00">    </text>
<text text-anchor="start" x="345.26" y="-2197.8" font-family="Arial" font-size="14.00" fill="#666666">[table]</text>
<polygon fill="none" stroke="black" points="43.2,-2153.6 43.2,-2184.4 390.4,-2184.4 390.4,-2153.6 43.2,-2153.6"/>
<text text-anchor="start" x="50.2" y="-2165.8" font-family="Arial" font-size="14.00">orchestration_session_issue_relation_id </text>
<text text-anchor="start" x="303.13" y="-2165.8" font-family="Arial" font-size="14.00" fill="#666666">[UUID]</text>
<polygon fill="none" stroke="black" points="43.2,-2122.8 43.2,-2153.6 390.4,-2153.6 390.4,-2122.8 43.2,-2122.8"/>
<text text-anchor="start" x="50.2" y="-2135" font-family="Arial" font-size="14.00">issue_id_prime </text>
<text text-anchor="start" x="148.25" y="-2135" font-family="Arial" font-size="14.00" fill="#666666">[UUID]</text>
<polygon fill="none" stroke="black" points="43.2,-2092 43.2,-2122.8 390.4,-2122.8 390.4,-2092 43.2,-2092"/>
<text text-anchor="start" x="50.2" y="-2104.2" font-family="Arial" font-size="14.00">issue_id_rel </text>
<text text-anchor="start" x="128.8" y="-2104.2" font-family="Arial" font-size="14.00" fill="#666666">[TEXT]</text>
<polygon fill="none" stroke="black" points="43.2,-2061.2 43.2,-2092 390.4,-2092 390.4,-2061.2 43.2,-2061.2"/>
<text text-anchor="start" x="50.2" y="-2073.4" font-family="Arial" font-size="14.00">relationship_nature </text>
<text text-anchor="start" x="173.17" y="-2073.4" font-family="Arial" font-size="14.00" fill="#666666">[TEXT]</text>
<polygon fill="none" stroke="black" points="43.2,-2030.4 43.2,-2061.2 390.4,-2061.2 390.4,-2030.4 43.2,-2030.4"/>
<text text-anchor="start" x="50.2" y="-2042.6" font-family="Arial" font-size="14.00">elaboration </text>
<text text-anchor="start" x="123.37" y="-2042.6" font-family="Arial" font-size="14.00" fill="#666666">[TEXT]</text>
</g>
<!-- orchestration_session_issue_relation&#45;&gt;orchestration_session_issue -->
<g id="edge1" class="edge">
<title>orchestration_session_issue_relation:issue_id_prime&#45;&gt;orchestration_session_issue:orchestration_session_issue_id</title>
<path fill="none" stroke="black" d="M399.48,-2131.98C426.31,-2084.42 396.25,-1780 359.41,-1780"/>
<polygon fill="black" stroke="black" points="399.59,-2131.9 388.92,-2134.43 395.36,-2135.15 391.93,-2137.79 391.93,-2137.79 391.93,-2137.79 395.36,-2135.15 394.41,-2141.56 399.59,-2131.9"/>
</g>
<!-- device -->
<g id="node7" class="node">
<title>device</title>
<polygon fill="#efefef" stroke="none" points="416.54,-474.4 416.54,-510 611.05,-510 611.05,-474.4 416.54,-474.4"/>
<polygon fill="none" stroke="black" points="416.54,-474.4 416.54,-510 611.05,-510 611.05,-474.4 416.54,-474.4"/>
<text text-anchor="start" x="455.69" y="-487.8" font-family="Arial Bold" font-size="18.00">device</text>
<text text-anchor="start" x="502.66" y="-487.8" font-family="Arial" font-size="14.00">    </text>
<text text-anchor="start" x="533.77" y="-487.8" font-family="Arial" font-size="14.00" fill="#666666">[table]</text>
<polygon fill="none" stroke="black" points="416.54,-443.6 416.54,-474.4 611.05,-474.4 611.05,-443.6 416.54,-443.6"/>
<text text-anchor="start" x="423.54" y="-455.8" font-family="Arial" font-size="14.00">device_id </text>
<text text-anchor="start" x="486.59" y="-455.8" font-family="Arial" font-size="14.00" fill="#666666">[VARCHAR]</text>
<polygon fill="none" stroke="black" points="416.54,-412.8 416.54,-443.6 611.05,-443.6 611.05,-412.8 416.54,-412.8"/>
<text text-anchor="start" x="423.54" y="-425" font-family="Arial" font-size="14.00">name </text>
<text text-anchor="start" x="462.45" y="-425" font-family="Arial" font-size="14.00" fill="#666666">[TEXT]</text>
<polygon fill="none" stroke="black" points="416.54,-382 416.54,-412.8 611.05,-412.8 611.05,-382 416.54,-382"/>
<text text-anchor="start" x="423.54" y="-394.2" font-family="Arial" font-size="14.00">state </text>
<text text-anchor="start" x="457.79" y="-394.2" font-family="Arial" font-size="14.00" fill="#666666">[TEXT]</text>
<polygon fill="none" stroke="black" points="416.54,-351.2 416.54,-382 611.05,-382 611.05,-351.2 416.54,-351.2"/>
<text text-anchor="start" x="423.54" y="-363.4" font-family="Arial" font-size="14.00">boundary </text>
<text text-anchor="start" x="485.81" y="-363.4" font-family="Arial" font-size="14.00" fill="#666666">[TEXT]</text>
<polygon fill="none" stroke="black" points="416.54,-320.4 416.54,-351.2 611.05,-351.2 611.05,-320.4 416.54,-320.4"/>
<text text-anchor="start" x="423.54" y="-332.6" font-family="Arial" font-size="14.00">segmentation </text>
<text text-anchor="start" x="511.49" y="-332.6" font-family="Arial" font-size="14.00" fill="#666666">[TEXT]</text>
<polygon fill="none" stroke="black" points="416.54,-289.6 416.54,-320.4 611.05,-320.4 611.05,-289.6 416.54,-289.6"/>
<text text-anchor="start" x="423.54" y="-301.8" font-family="Arial" font-size="14.00">state_sysinfo </text>
<text text-anchor="start" x="509.14" y="-301.8" font-family="Arial" font-size="14.00" fill="#666666">[TEXT]</text>
<polygon fill="none" stroke="black" points="416.54,-258.8 416.54,-289.6 611.05,-289.6 611.05,-258.8 416.54,-258.8"/>
<text text-anchor="start" x="423.54" y="-271" font-family="Arial" font-size="14.00">elaboration </text>
<text text-anchor="start" x="496.71" y="-271" font-family="Arial" font-size="14.00" fill="#666666">[TEXT]</text>
<polygon fill="none" stroke="black" points="416.54,-228 416.54,-258.8 611.05,-258.8 611.05,-228 416.54,-228"/>
<text text-anchor="start" x="423.54" y="-240.2" font-family="Arial" font-size="14.00">created_at </text>
<text text-anchor="start" x="493.59" y="-240.2" font-family="Arial" font-size="14.00" fill="#666666">[TIMESTAMPTZ]</text>
<polygon fill="none" stroke="black" points="416.54,-197.2 416.54,-228 611.05,-228 611.05,-197.2 416.54,-197.2"/>
<text text-anchor="start" x="423.54" y="-209.4" font-family="Arial" font-size="14.00">created_by </text>
<text text-anchor="start" x="496.7" y="-209.4" font-family="Arial" font-size="14.00" fill="#666666">[TEXT]</text>
<polygon fill="none" stroke="black" points="416.54,-166.4 416.54,-197.2 611.05,-197.2 611.05,-166.4 416.54,-166.4"/>
<text text-anchor="start" x="423.54" y="-178.6" font-family="Arial" font-size="14.00">updated_at </text>
<text text-anchor="start" x="497.5" y="-178.6" font-family="Arial" font-size="14.00" fill="#666666">[TIMESTAMPTZ]</text>
<polygon fill="none" stroke="black" points="416.54,-135.6 416.54,-166.4 611.05,-166.4 611.05,-135.6 416.54,-135.6"/>
<text text-anchor="start" x="423.54" y="-147.8" font-family="Arial" font-size="14.00">updated_by </text>
<text text-anchor="start" x="500.61" y="-147.8" font-family="Arial" font-size="14.00" fill="#666666">[TEXT]</text>
<polygon fill="none" stroke="black" points="416.54,-104.8 416.54,-135.6 611.05,-135.6 611.05,-104.8 416.54,-104.8"/>
<text text-anchor="start" x="423.54" y="-117" font-family="Arial" font-size="14.00">deleted_at </text>
<text text-anchor="start" x="492.83" y="-117" font-family="Arial" font-size="14.00" fill="#666666">[TIMESTAMPTZ]</text>
<polygon fill="none" stroke="black" points="416.54,-74 416.54,-104.8 611.05,-104.8 611.05,-74 416.54,-74"/>
<text text-anchor="start" x="423.54" y="-86.2" font-family="Arial" font-size="14.00">deleted_by </text>
<text text-anchor="start" x="495.94" y="-86.2" font-family="Arial" font-size="14.00" fill="#666666">[TEXT]</text>
<polygon fill="none" stroke="black" points="416.54,-43.2 416.54,-74 611.05,-74 611.05,-43.2 416.54,-43.2"/>
<text text-anchor="start" x="423.54" y="-55.4" font-family="Arial" font-size="14.00">activity_log </text>
<text text-anchor="start" x="496.69" y="-55.4" font-family="Arial" font-size="14.00" fill="#666666">[TEXT]</text>
</g>
<!-- orchestration_session&#45;&gt;device -->
<g id="edge6" class="edge">
<title>orchestration_session:device_id&#45;&gt;device:device_id</title>
<path fill="none" stroke="black" d="M536,-893.81C414.33,-884.33 480.58,-703.07 547.3,-589.2 563.75,-561.13 594.5,-581.21 611.05,-553.2 632.35,-517.15 653.92,-459 612.05,-459"/>
<polygon fill="black" stroke="black" points="535.98,-893.81 545.8,-898.68 541.31,-894.01 545.64,-894.17 545.64,-894.17 545.64,-894.17 541.31,-894.01 546.14,-889.69 535.98,-893.81"/>
</g>
<!-- orchestration_nature -->
<g id="node8" class="node">
<title>orchestration_nature</title>
<polygon fill="#efefef" stroke="none" points="715.2,-412.8 715.2,-448.4 946.4,-448.4 946.4,-412.8 715.2,-412.8"/>
<polygon fill="none" stroke="black" points="715.2,-412.8 715.2,-448.4 946.4,-448.4 946.4,-412.8 715.2,-412.8"/>
<text text-anchor="start" x="722.2" y="-426.2" font-family="Arial Bold" font-size="18.00">orchestration_nature</text>
<text text-anchor="start" x="870.14" y="-426.2" font-family="Arial" font-size="14.00">    </text>
<text text-anchor="start" x="901.26" y="-426.2" font-family="Arial" font-size="14.00" fill="#666666">[table]</text>
<polygon fill="none" stroke="black" points="715.2,-382 715.2,-412.8 946.4,-412.8 946.4,-382 715.2,-382"/>
<text text-anchor="start" x="722.2" y="-394.2" font-family="Arial" font-size="14.00">orchestration_nature_id </text>
<text text-anchor="start" x="873.19" y="-394.2" font-family="Arial" font-size="14.00" fill="#666666">[TEXT]</text>
<polygon fill="none" stroke="black" points="715.2,-351.2 715.2,-382 946.4,-382 946.4,-351.2 715.2,-351.2"/>
<text text-anchor="start" x="722.2" y="-363.4" font-family="Arial" font-size="14.00">nature </text>
<text text-anchor="start" x="765.79" y="-363.4" font-family="Arial" font-size="14.00" fill="#666666">[TEXT]</text>
<polygon fill="none" stroke="black" points="715.2,-320.4 715.2,-351.2 946.4,-351.2 946.4,-320.4 715.2,-320.4"/>
<text text-anchor="start" x="722.2" y="-332.6" font-family="Arial" font-size="14.00">elaboration </text>
<text text-anchor="start" x="795.37" y="-332.6" font-family="Arial" font-size="14.00" fill="#666666">[TEXT]</text>
<polygon fill="none" stroke="black" points="715.2,-289.6 715.2,-320.4 946.4,-320.4 946.4,-289.6 715.2,-289.6"/>
<text text-anchor="start" x="722.2" y="-301.8" font-family="Arial" font-size="14.00">created_at </text>
<text text-anchor="start" x="792.25" y="-301.8" font-family="Arial" font-size="14.00" fill="#666666">[TIMESTAMPTZ]</text>
<polygon fill="none" stroke="black" points="715.2,-258.8 715.2,-289.6 946.4,-289.6 946.4,-258.8 715.2,-258.8"/>
<text text-anchor="start" x="722.2" y="-271" font-family="Arial" font-size="14.00">created_by </text>
<text text-anchor="start" x="795.36" y="-271" font-family="Arial" font-size="14.00" fill="#666666">[TEXT]</text>
<polygon fill="none" stroke="black" points="715.2,-228 715.2,-258.8 946.4,-258.8 946.4,-228 715.2,-228"/>
<text text-anchor="start" x="722.2" y="-240.2" font-family="Arial" font-size="14.00">updated_at </text>
<text text-anchor="start" x="796.16" y="-240.2" font-family="Arial" font-size="14.00" fill="#666666">[TIMESTAMPTZ]</text>
<polygon fill="none" stroke="black" points="715.2,-197.2 715.2,-228 946.4,-228 946.4,-197.2 715.2,-197.2"/>
<text text-anchor="start" x="722.2" y="-209.4" font-family="Arial" font-size="14.00">updated_by </text>
<text text-anchor="start" x="799.27" y="-209.4" font-family="Arial" font-size="14.00" fill="#666666">[TEXT]</text>
<polygon fill="none" stroke="black" points="715.2,-166.4 715.2,-197.2 946.4,-197.2 946.4,-166.4 715.2,-166.4"/>
<text text-anchor="start" x="722.2" y="-178.6" font-family="Arial" font-size="14.00">deleted_at </text>
<text text-anchor="start" x="791.49" y="-178.6" font-family="Arial" font-size="14.00" fill="#666666">[TIMESTAMPTZ]</text>
<polygon fill="none" stroke="black" points="715.2,-135.6 715.2,-166.4 946.4,-166.4 946.4,-135.6 715.2,-135.6"/>
<text text-anchor="start" x="722.2" y="-147.8" font-family="Arial" font-size="14.00">deleted_by </text>
<text text-anchor="start" x="794.6" y="-147.8" font-family="Arial" font-size="14.00" fill="#666666">[TEXT]</text>
<polygon fill="none" stroke="black" points="715.2,-104.8 715.2,-135.6 946.4,-135.6 946.4,-104.8 715.2,-104.8"/>
<text text-anchor="start" x="722.2" y="-117" font-family="Arial" font-size="14.00">activity_log </text>
<text text-anchor="start" x="795.35" y="-117" font-family="Arial" font-size="14.00" fill="#666666">[TEXT]</text>
</g>
<!-- orchestration_session&#45;&gt;orchestration_nature -->
<g id="edge7" class="edge">
<title>orchestration_session:orchestration_nature_id&#45;&gt;orchestration_nature:orchestration_nature_id</title>
<path fill="none" stroke="black" d="M807.49,-862.99C914.44,-854.08 836.69,-700.39 796.3,-589.2 777.04,-536.19 734.64,-544.54 715.2,-491.6 700.77,-452.3 672.33,-397.4 714.2,-397.4"/>
<polygon fill="black" stroke="black" points="807.62,-862.99 797.45,-858.89 802.29,-863.2 797.96,-863.37 797.96,-863.37 797.96,-863.37 802.29,-863.2 797.81,-867.88 807.62,-862.99"/>
</g>
<!-- orchestration_session_entry&#45;&gt;orchestration_session -->
<g id="edge3" class="edge">
<title>orchestration_session_entry:session_id&#45;&gt;orchestration_session:orchestration_session_id</title>
<path fill="none" stroke="black" d="M719.94,-1205.34C773.98,-1195.54 748.59,-1104.57 708.75,-1055.2 662.58,-997.99 593.59,-1076.32 547.3,-1019.2 520.94,-986.67 504.43,-925 546.3,-925"/>
<polygon fill="black" stroke="black" points="720.05,-1205.33 709.7,-1201.69 714.73,-1205.78 710.42,-1206.14 710.42,-1206.14 710.42,-1206.14 714.73,-1205.78 710.46,-1210.66 720.05,-1205.33"/>
</g>
<!-- orchestration_session_state -->
<g id="node5" class="node">
<title>orchestration_session_state</title>
<polygon fill="#efefef" stroke="none" points="466.23,-1780 466.23,-1815.6 753.36,-1815.6 753.36,-1780 466.23,-1780"/>
<polygon fill="none" stroke="black" points="466.23,-1780 466.23,-1815.6 753.36,-1815.6 753.36,-1780 466.23,-1780"/>
<text text-anchor="start" x="476.7" y="-1793.4" font-family="Arial Bold" font-size="18.00">orchestration_session_state</text>
<text text-anchor="start" x="673.65" y="-1793.4" font-family="Arial" font-size="14.00">    </text>
<text text-anchor="start" x="704.77" y="-1793.4" font-family="Arial" font-size="14.00" fill="#666666">[table]</text>
<polygon fill="none" stroke="black" points="466.23,-1749.2 466.23,-1780 753.36,-1780 753.36,-1749.2 466.23,-1749.2"/>
<text text-anchor="start" x="473.23" y="-1761.4" font-family="Arial" font-size="14.00">orchestration_session_state_id </text>
<text text-anchor="start" x="670.13" y="-1761.4" font-family="Arial" font-size="14.00" fill="#666666">[VARCHAR]</text>
<polygon fill="none" stroke="black" points="466.23,-1718.4 466.23,-1749.2 753.36,-1749.2 753.36,-1718.4 466.23,-1718.4"/>
<text text-anchor="start" x="473.23" y="-1730.6" font-family="Arial" font-size="14.00">session_id </text>
<text text-anchor="start" x="543.28" y="-1730.6" font-family="Arial" font-size="14.00" fill="#666666">[VARCHAR]</text>
<polygon fill="none" stroke="black" points="466.23,-1687.6 466.23,-1718.4 753.36,-1718.4 753.36,-1687.6 466.23,-1687.6"/>
<text text-anchor="start" x="473.23" y="-1699.8" font-family="Arial" font-size="14.00">session_entry_id </text>
<text text-anchor="start" x="582.19" y="-1699.8" font-family="Arial" font-size="14.00" fill="#666666">[VARCHAR]</text>
<polygon fill="none" stroke="black" points="466.23,-1656.8 466.23,-1687.6 753.36,-1687.6 753.36,-1656.8 466.23,-1656.8"/>
<text text-anchor="start" x="473.23" y="-1669" font-family="Arial" font-size="14.00">from_state </text>
<text text-anchor="start" x="543.26" y="-1669" font-family="Arial" font-size="14.00" fill="#666666">[TEXT]</text>
<polygon fill="none" stroke="black" points="466.23,-1626 466.23,-1656.8 753.36,-1656.8 753.36,-1626 466.23,-1626"/>
<text text-anchor="start" x="473.23" y="-1638.2" font-family="Arial" font-size="14.00">to_state </text>
<text text-anchor="start" x="526.94" y="-1638.2" font-family="Arial" font-size="14.00" fill="#666666">[TEXT]</text>
<polygon fill="none" stroke="black" points="466.23,-1595.2 466.23,-1626 753.36,-1626 753.36,-1595.2 466.23,-1595.2"/>
<text text-anchor="start" x="473.23" y="-1607.4" font-family="Arial" font-size="14.00">transition_result </text>
<text text-anchor="start" x="575.95" y="-1607.4" font-family="Arial" font-size="14.00" fill="#666666">[TEXT]</text>
<polygon fill="none" stroke="black" points="466.23,-1564.4 466.23,-1595.2 753.36,-1595.2 753.36,-1564.4 466.23,-1564.4"/>
<text text-anchor="start" x="473.23" y="-1576.6" font-family="Arial" font-size="14.00">transition_reason </text>
<text text-anchor="start" x="584.52" y="-1576.6" font-family="Arial" font-size="14.00" fill="#666666">[TEXT]</text>
<polygon fill="none" stroke="black" points="466.23,-1533.6 466.23,-1564.4 753.36,-1564.4 753.36,-1533.6 466.23,-1533.6"/>
<text text-anchor="start" x="473.23" y="-1545.8" font-family="Arial" font-size="14.00">transitioned_at </text>
<text text-anchor="start" x="568.97" y="-1545.8" font-family="Arial" font-size="14.00" fill="#666666">[TIMESTAMPTZ]</text>
<polygon fill="none" stroke="black" points="466.23,-1502.8 466.23,-1533.6 753.36,-1533.6 753.36,-1502.8 466.23,-1502.8"/>
<text text-anchor="start" x="473.23" y="-1515" font-family="Arial" font-size="14.00">elaboration </text>
<text text-anchor="start" x="546.4" y="-1515" font-family="Arial" font-size="14.00" fill="#666666">[TEXT]</text>
</g>
<!-- orchestration_session_state&#45;&gt;orchestration_session -->
<g id="edge4" class="edge">
<title>orchestration_session_state:session_id&#45;&gt;orchestration_session:orchestration_session_id</title>
<path fill="none" stroke="black" d="M758.87,-1724.44C782.05,-1634.38 818.37,-925 797.3,-925"/>
<polygon fill="black" stroke="black" points="758.85,-1724.49 750.46,-1731.55 756.53,-1729.3 754.65,-1733.2 754.65,-1733.2 754.65,-1733.2 756.53,-1729.3 758.56,-1735.45 758.85,-1724.49"/>
</g>
<!-- orchestration_session_state&#45;&gt;orchestration_session_entry -->
<g id="edge9" class="edge">
<title>orchestration_session_state:session_entry_id&#45;&gt;orchestration_session_entry:orchestration_session_entry_id</title>
<path fill="none" stroke="black" d="M455.25,-1700.35C414.85,-1676.76 440.15,-1502.72 466.23,-1459.6 529.36,-1355.24 645.29,-1435.35 708.75,-1331.2 730.54,-1295.45 751.62,-1237 709.75,-1237"/>
<polygon fill="black" stroke="black" points="455.25,-1700.35 463.76,-1707.26 460.4,-1701.72 464.59,-1702.83 464.59,-1702.83 464.59,-1702.83 460.4,-1701.72 466.07,-1698.57 455.25,-1700.35"/>
</g>
<!-- orchestration_session_exec -->
<g id="node6" class="node">
<title>orchestration_session_exec</title>
<polygon fill="#efefef" stroke="none" points="857.62,-1872.4 857.62,-1908 1143.97,-1908 1143.97,-1872.4 857.62,-1872.4"/>
<polygon fill="none" stroke="black" points="857.62,-1872.4 857.62,-1908 1143.97,-1908 1143.97,-1872.4 857.62,-1872.4"/>
<text text-anchor="start" x="867.7" y="-1885.8" font-family="Arial Bold" font-size="18.00">orchestration_session_exec</text>
<text text-anchor="start" x="1064.64" y="-1885.8" font-family="Arial" font-size="14.00">    </text>
<text text-anchor="start" x="1095.76" y="-1885.8" font-family="Arial" font-size="14.00" fill="#666666">[table]</text>
<polygon fill="none" stroke="black" points="857.62,-1841.6 857.62,-1872.4 1143.97,-1872.4 1143.97,-1841.6 857.62,-1841.6"/>
<text text-anchor="start" x="864.62" y="-1853.8" font-family="Arial" font-size="14.00">orchestration_session_exec_id </text>
<text text-anchor="start" x="1060.74" y="-1853.8" font-family="Arial" font-size="14.00" fill="#666666">[VARCHAR]</text>
<polygon fill="none" stroke="black" points="857.62,-1810.8 857.62,-1841.6 1143.97,-1841.6 1143.97,-1810.8 857.62,-1810.8"/>
<text text-anchor="start" x="864.62" y="-1823" font-family="Arial" font-size="14.00">exec_nature </text>
<text text-anchor="start" x="945.57" y="-1823" font-family="Arial" font-size="14.00" fill="#666666">[TEXT]</text>
<polygon fill="none" stroke="black" points="857.62,-1780 857.62,-1810.8 1143.97,-1810.8 1143.97,-1780 857.62,-1780"/>
<text text-anchor="start" x="864.62" y="-1792.2" font-family="Arial" font-size="14.00">session_id </text>
<text text-anchor="start" x="934.67" y="-1792.2" font-family="Arial" font-size="14.00" fill="#666666">[VARCHAR]</text>
<polygon fill="none" stroke="black" points="857.62,-1749.2 857.62,-1780 1143.97,-1780 1143.97,-1749.2 857.62,-1749.2"/>
<text text-anchor="start" x="864.62" y="-1761.4" font-family="Arial" font-size="14.00">session_entry_id </text>
<text text-anchor="start" x="973.58" y="-1761.4" font-family="Arial" font-size="14.00" fill="#666666">[VARCHAR]</text>
<polygon fill="none" stroke="black" points="857.62,-1718.4 857.62,-1749.2 1143.97,-1749.2 1143.97,-1718.4 857.62,-1718.4"/>
<text text-anchor="start" x="864.62" y="-1730.6" font-family="Arial" font-size="14.00">parent_exec_id </text>
<text text-anchor="start" x="964.25" y="-1730.6" font-family="Arial" font-size="14.00" fill="#666666">[VARCHAR]</text>
<polygon fill="none" stroke="black" points="857.62,-1687.6 857.62,-1718.4 1143.97,-1718.4 1143.97,-1687.6 857.62,-1687.6"/>
<text text-anchor="start" x="864.62" y="-1699.8" font-family="Arial" font-size="14.00">namespace </text>
<text text-anchor="start" x="940.89" y="-1699.8" font-family="Arial" font-size="14.00" fill="#666666">[TEXT]</text>
<polygon fill="none" stroke="black" points="857.62,-1656.8 857.62,-1687.6 1143.97,-1687.6 1143.97,-1656.8 857.62,-1656.8"/>
<text text-anchor="start" x="864.62" y="-1669" font-family="Arial" font-size="14.00">exec_identity </text>
<text text-anchor="start" x="950.23" y="-1669" font-family="Arial" font-size="14.00" fill="#666666">[TEXT]</text>
<polygon fill="none" stroke="black" points="857.62,-1626 857.62,-1656.8 1143.97,-1656.8 1143.97,-1626 857.62,-1626"/>
<text text-anchor="start" x="864.62" y="-1638.2" font-family="Arial" font-size="14.00">exec_code </text>
<text text-anchor="start" x="936.23" y="-1638.2" font-family="Arial" font-size="14.00" fill="#666666">[TEXT]</text>
<polygon fill="none" stroke="black" points="857.62,-1595.2 857.62,-1626 1143.97,-1626 1143.97,-1595.2 857.62,-1595.2"/>
<text text-anchor="start" x="864.62" y="-1607.4" font-family="Arial" font-size="14.00">exec_status </text>
<text text-anchor="start" x="943.22" y="-1607.4" font-family="Arial" font-size="14.00" fill="#666666">[INTEGER]</text>
<polygon fill="none" stroke="black" points="857.62,-1564.4 857.62,-1595.2 1143.97,-1595.2 1143.97,-1564.4 857.62,-1564.4"/>
<text text-anchor="start" x="864.62" y="-1576.6" font-family="Arial" font-size="14.00">input_text </text>
<text text-anchor="start" x="929.22" y="-1576.6" font-family="Arial" font-size="14.00" fill="#666666">[TEXT]</text>
<polygon fill="none" stroke="black" points="857.62,-1533.6 857.62,-1564.4 1143.97,-1564.4 1143.97,-1533.6 857.62,-1533.6"/>
<text text-anchor="start" x="864.62" y="-1545.8" font-family="Arial" font-size="14.00">exec_error_text </text>
<text text-anchor="start" x="965.78" y="-1545.8" font-family="Arial" font-size="14.00" fill="#666666">[TEXT]</text>
<polygon fill="none" stroke="black" points="857.62,-1502.8 857.62,-1533.6 1143.97,-1533.6 1143.97,-1502.8 857.62,-1502.8"/>
<text text-anchor="start" x="864.62" y="-1515" font-family="Arial" font-size="14.00">output_text </text>
<text text-anchor="start" x="937.79" y="-1515" font-family="Arial" font-size="14.00" fill="#666666">[TEXT]</text>
<polygon fill="none" stroke="black" points="857.62,-1472 857.62,-1502.8 1143.97,-1502.8 1143.97,-1472 857.62,-1472"/>
<text text-anchor="start" x="864.62" y="-1484.2" font-family="Arial" font-size="14.00">output_nature </text>
<text text-anchor="start" x="954.92" y="-1484.2" font-family="Arial" font-size="14.00" fill="#666666">[TEXT]</text>
<polygon fill="none" stroke="black" points="857.62,-1441.2 857.62,-1472 1143.97,-1472 1143.97,-1441.2 857.62,-1441.2"/>
<text text-anchor="start" x="864.62" y="-1453.4" font-family="Arial" font-size="14.00">narrative_md </text>
<text text-anchor="start" x="950.22" y="-1453.4" font-family="Arial" font-size="14.00" fill="#666666">[TEXT]</text>
<polygon fill="none" stroke="black" points="857.62,-1410.4 857.62,-1441.2 1143.97,-1441.2 1143.97,-1410.4 857.62,-1410.4"/>
<text text-anchor="start" x="864.62" y="-1422.6" font-family="Arial" font-size="14.00">elaboration </text>
<text text-anchor="start" x="937.79" y="-1422.6" font-family="Arial" font-size="14.00" fill="#666666">[TEXT]</text>
</g>
<!-- orchestration_session_exec&#45;&gt;orchestration_session -->
<g id="edge5" class="edge">
<title>orchestration_session_exec:session_id&#45;&gt;orchestration_session:orchestration_session_id</title>
<path fill="none" stroke="black" d="M847.24,-1792.25C768.86,-1735.28 890.82,-925 797.3,-925"/>
<polygon fill="black" stroke="black" points="846.83,-1792.11 854.87,-1799.56 851.88,-1793.81 855.99,-1795.19 855.99,-1795.19 855.99,-1795.19 851.88,-1793.81 857.74,-1791.03 846.83,-1792.11"/>
</g>
<!-- orchestration_session_exec&#45;&gt;orchestration_session_entry -->
<g id="edge10" class="edge">
<title>orchestration_session_exec:session_entry_id&#45;&gt;orchestration_session_entry:orchestration_session_entry_id</title>
<path fill="none" stroke="black" d="M846.46,-1763.05C773.27,-1739.17 837.58,-1446.44 805.8,-1367.2 779.03,-1300.46 781.66,-1237 709.75,-1237"/>
<polygon fill="black" stroke="black" points="846.41,-1763.04 855.61,-1769 851.68,-1763.85 855.96,-1764.5 855.96,-1764.5 855.96,-1764.5 851.68,-1763.85 856.97,-1760.1 846.41,-1763.04"/>
</g>
</g>
</svg>
