<?xml version="1.0" encoding="UTF-8" standalone="no"?>
<!DOCTYPE svg PUBLIC "-//W3C//DTD SVG 1.1//EN"
 "http://www.w3.org/Graphics/SVG/1.1/DTD/svg11.dtd">
<!-- Generated by graphviz version 12.1.2 (20240928.0832)
 -->
<!-- Title: orchestration_session_entry Pages: 1 -->
<svg width="1254pt" height="2277pt"
 viewBox="0.00 0.00 1254.46 2277.20" xmlns="http://www.w3.org/2000/svg" xmlns:xlink="http://www.w3.org/1999/xlink">
<g id="graph0" class="graph" transform="scale(1 1) rotate(0) translate(4 2273.2)">
<title>orchestration_session_entry</title>
<polygon fill="white" stroke="none" points="-4,4 -4,-2273.2 1250.46,-2273.2 1250.46,4 -4,4"/>
<!-- orchestration_session_entry -->
<g id="node1" class="node">
<title>orchestration_session_entry</title>
<polygon fill="#efefef" stroke="none" points="374.81,-1255.4 374.81,-1291 662.72,-1291 662.72,-1255.4 374.81,-1255.4"/>
<polygon fill="none" stroke="black" points="374.81,-1255.4 374.81,-1291 662.72,-1291 662.72,-1255.4 374.81,-1255.4"/>
<text text-anchor="start" x="383.66" y="-1268.8" font-family="Arial Bold" font-size="18.00">orchestration_session_entry</text>
<text text-anchor="start" x="584.61" y="-1268.8" font-family="Arial" font-size="14.00">    </text>
<text text-anchor="start" x="615.73" y="-1268.8" font-family="Arial" font-size="14.00" fill="#666666">[table]</text>
<polygon fill="none" stroke="black" points="374.81,-1224.6 374.81,-1255.4 662.72,-1255.4 662.72,-1224.6 374.81,-1224.6"/>
<text text-anchor="start" x="381.81" y="-1236.8" font-family="Arial" font-size="14.00">orchestration_session_entry_id </text>
<text text-anchor="start" x="579.48" y="-1236.8" font-family="Arial" font-size="14.00" fill="#666666">[VARCHAR]</text>
<polygon fill="none" stroke="black" points="374.81,-1193.8 374.81,-1224.6 662.72,-1224.6 662.72,-1193.8 374.81,-1193.8"/>
<text text-anchor="start" x="381.81" y="-1206" font-family="Arial" font-size="14.00">session_id </text>
<text text-anchor="start" x="451.85" y="-1206" font-family="Arial" font-size="14.00" fill="#666666">[VARCHAR]</text>
<polygon fill="none" stroke="black" points="374.81,-1163 374.81,-1193.8 662.72,-1193.8 662.72,-1163 374.81,-1163"/>
<text text-anchor="start" x="381.81" y="-1175.2" font-family="Arial" font-size="14.00">ingest_src </text>
<text text-anchor="start" x="449.51" y="-1175.2" font-family="Arial" font-size="14.00" fill="#666666">[TEXT]</text>
<polygon fill="none" stroke="black" points="374.81,-1132.2 374.81,-1163 662.72,-1163 662.72,-1132.2 374.81,-1132.2"/>
<text text-anchor="start" x="381.81" y="-1144.4" font-family="Arial" font-size="14.00">ingest_table_name </text>
<text text-anchor="start" x="504.01" y="-1144.4" font-family="Arial" font-size="14.00" fill="#666666">[TEXT]</text>
<polygon fill="none" stroke="black" points="374.81,-1101.4 374.81,-1132.2 662.72,-1132.2 662.72,-1101.4 374.81,-1101.4"/>
<text text-anchor="start" x="381.81" y="-1113.6" font-family="Arial" font-size="14.00">elaboration </text>
<text text-anchor="start" x="454.98" y="-1113.6" font-family="Arial" font-size="14.00" fill="#666666">[TEXT]</text>
<polygon fill="none" stroke="black" stroke-width="3" points="373.31,-1099.9 373.31,-1292.5 664.22,-1292.5 664.22,-1099.9 373.31,-1099.9"/>
</g>
<!-- orchestration_session -->
<g id="node3" class="node">
<title>orchestration_session</title>
<polygon fill="#efefef" stroke="none" points="503.27,-940.4 503.27,-976 752.26,-976 752.26,-940.4 503.27,-940.4"/>
<polygon fill="none" stroke="black" points="503.27,-940.4 503.27,-976 752.26,-976 752.26,-940.4 503.27,-940.4"/>
<text text-anchor="start" x="515.65" y="-953.8" font-family="Arial Bold" font-size="18.00">orchestration_session</text>
<text text-anchor="start" x="670.62" y="-953.8" font-family="Arial" font-size="14.00">    </text>
<text text-anchor="start" x="701.74" y="-953.8" font-family="Arial" font-size="14.00" fill="#666666">[table]</text>
<polygon fill="none" stroke="black" points="503.27,-909.6 503.27,-940.4 752.26,-940.4 752.26,-909.6 503.27,-909.6"/>
<text text-anchor="start" x="510.27" y="-921.8" font-family="Arial" font-size="14.00">orchestration_session_id </text>
<text text-anchor="start" x="669.03" y="-921.8" font-family="Arial" font-size="14.00" fill="#666666">[VARCHAR]</text>
<polygon fill="none" stroke="black" points="503.27,-878.8 503.27,-909.6 752.26,-909.6 752.26,-878.8 503.27,-878.8"/>
<text text-anchor="start" x="510.27" y="-891" font-family="Arial" font-size="14.00">device_id </text>
<text text-anchor="start" x="573.31" y="-891" font-family="Arial" font-size="14.00" fill="#666666">[VARCHAR]</text>
<polygon fill="none" stroke="black" points="503.27,-848 503.27,-878.8 752.26,-878.8 752.26,-848 503.27,-848"/>
<text text-anchor="start" x="510.27" y="-860.2" font-family="Arial" font-size="14.00">orchestration_nature_id </text>
<text text-anchor="start" x="661.25" y="-860.2" font-family="Arial" font-size="14.00" fill="#666666">[TEXT]</text>
<polygon fill="none" stroke="black" points="503.27,-817.2 503.27,-848 752.26,-848 752.26,-817.2 503.27,-817.2"/>
<text text-anchor="start" x="510.27" y="-829.4" font-family="Arial" font-size="14.00">version </text>
<text text-anchor="start" x="559.29" y="-829.4" font-family="Arial" font-size="14.00" fill="#666666">[TEXT]</text>
<polygon fill="none" stroke="black" points="503.27,-786.4 503.27,-817.2 752.26,-817.2 752.26,-786.4 503.27,-786.4"/>
<text text-anchor="start" x="510.27" y="-798.6" font-family="Arial" font-size="14.00">orch_started_at </text>
<text text-anchor="start" x="611.44" y="-798.6" font-family="Arial" font-size="14.00" fill="#666666">[TIMESTAMPTZ]</text>
<polygon fill="none" stroke="black" points="503.27,-755.6 503.27,-786.4 752.26,-786.4 752.26,-755.6 503.27,-755.6"/>
<text text-anchor="start" x="510.27" y="-767.8" font-family="Arial" font-size="14.00">orch_finished_at </text>
<text text-anchor="start" x="616.9" y="-767.8" font-family="Arial" font-size="14.00" fill="#666666">[TIMESTAMPTZ]</text>
<polygon fill="none" stroke="black" points="503.27,-724.8 503.27,-755.6 752.26,-755.6 752.26,-724.8 503.27,-724.8"/>
<text text-anchor="start" x="510.27" y="-737" font-family="Arial" font-size="14.00">elaboration </text>
<text text-anchor="start" x="583.43" y="-737" font-family="Arial" font-size="14.00" fill="#666666">[TEXT]</text>
<polygon fill="none" stroke="black" points="503.27,-694 503.27,-724.8 752.26,-724.8 752.26,-694 503.27,-694"/>
<text text-anchor="start" x="510.27" y="-706.2" font-family="Arial" font-size="14.00">args_json </text>
<text text-anchor="start" x="574.86" y="-706.2" font-family="Arial" font-size="14.00" fill="#666666">[TEXT]</text>
<polygon fill="none" stroke="black" points="503.27,-663.2 503.27,-694 752.26,-694 752.26,-663.2 503.27,-663.2"/>
<text text-anchor="start" x="510.27" y="-675.4" font-family="Arial" font-size="14.00">diagnostics_json </text>
<text text-anchor="start" x="617.67" y="-675.4" font-family="Arial" font-size="14.00" fill="#666666">[TEXT]</text>
<polygon fill="none" stroke="black" points="503.27,-632.4 503.27,-663.2 752.26,-663.2 752.26,-632.4 503.27,-632.4"/>
<text text-anchor="start" x="510.27" y="-644.6" font-family="Arial" font-size="14.00">diagnostics_md </text>
<text text-anchor="start" x="611.43" y="-644.6" font-family="Arial" font-size="14.00" fill="#666666">[TEXT]</text>
</g>
<!-- orchestration_session_entry&#45;&gt;orchestration_session -->
<g id="edge9" class="edge">
<title>orchestration_session_entry:session_id&#45;&gt;orchestration_session:orchestration_session_id</title>
<path fill="none" stroke="black" d="M674.11,-1208.32C729.21,-1198.33 703.28,-1105.61 662.72,-1055.2 617.17,-998.6 548.93,-1075.7 503.27,-1019.2 476.95,-986.64 460.4,-925 502.27,-925"/>
<polygon fill="black" stroke="black" points="674.01,-1208.33 663.67,-1204.69 668.7,-1208.78 664.38,-1209.14 664.38,-1209.14 664.38,-1209.14 668.7,-1208.78 664.43,-1213.66 674.01,-1208.33"/>
</g>
<!-- orchestration_session_state -->
<g id="node2" class="node">
<title>orchestration_session_state</title>
<polygon fill="#efefef" stroke="none" points="43.2,-1786 43.2,-1821.6 330.33,-1821.6 330.33,-1786 43.2,-1786"/>
<polygon fill="none" stroke="black" points="43.2,-1786 43.2,-1821.6 330.33,-1821.6 330.33,-1786 43.2,-1786"/>
<text text-anchor="start" x="53.66" y="-1799.4" font-family="Arial Bold" font-size="18.00">orchestration_session_state</text>
<text text-anchor="start" x="250.61" y="-1799.4" font-family="Arial" font-size="14.00">    </text>
<text text-anchor="start" x="281.73" y="-1799.4" font-family="Arial" font-size="14.00" fill="#666666">[table]</text>
<polygon fill="none" stroke="black" points="43.2,-1755.2 43.2,-1786 330.33,-1786 330.33,-1755.2 43.2,-1755.2"/>
<text text-anchor="start" x="50.2" y="-1767.4" font-family="Arial" font-size="14.00">orchestration_session_state_id </text>
<text text-anchor="start" x="247.1" y="-1767.4" font-family="Arial" font-size="14.00" fill="#666666">[VARCHAR]</text>
<polygon fill="none" stroke="black" points="43.2,-1724.4 43.2,-1755.2 330.33,-1755.2 330.33,-1724.4 43.2,-1724.4"/>
<text text-anchor="start" x="50.2" y="-1736.6" font-family="Arial" font-size="14.00">session_id </text>
<text text-anchor="start" x="120.24" y="-1736.6" font-family="Arial" font-size="14.00" fill="#666666">[VARCHAR]</text>
<polygon fill="none" stroke="black" points="43.2,-1693.6 43.2,-1724.4 330.33,-1724.4 330.33,-1693.6 43.2,-1693.6"/>
<text text-anchor="start" x="50.2" y="-1705.8" font-family="Arial" font-size="14.00">session_entry_id </text>
<text text-anchor="start" x="159.15" y="-1705.8" font-family="Arial" font-size="14.00" fill="#666666">[VARCHAR]</text>
<polygon fill="none" stroke="black" points="43.2,-1662.8 43.2,-1693.6 330.33,-1693.6 330.33,-1662.8 43.2,-1662.8"/>
<text text-anchor="start" x="50.2" y="-1675" font-family="Arial" font-size="14.00">from_state </text>
<text text-anchor="start" x="120.23" y="-1675" font-family="Arial" font-size="14.00" fill="#666666">[TEXT]</text>
<polygon fill="none" stroke="black" points="43.2,-1632 43.2,-1662.8 330.33,-1662.8 330.33,-1632 43.2,-1632"/>
<text text-anchor="start" x="50.2" y="-1644.2" font-family="Arial" font-size="14.00">to_state </text>
<text text-anchor="start" x="103.9" y="-1644.2" font-family="Arial" font-size="14.00" fill="#666666">[TEXT]</text>
<polygon fill="none" stroke="black" points="43.2,-1601.2 43.2,-1632 330.33,-1632 330.33,-1601.2 43.2,-1601.2"/>
<text text-anchor="start" x="50.2" y="-1613.4" font-family="Arial" font-size="14.00">transition_result </text>
<text text-anchor="start" x="152.92" y="-1613.4" font-family="Arial" font-size="14.00" fill="#666666">[TEXT]</text>
<polygon fill="none" stroke="black" points="43.2,-1570.4 43.2,-1601.2 330.33,-1601.2 330.33,-1570.4 43.2,-1570.4"/>
<text text-anchor="start" x="50.2" y="-1582.6" font-family="Arial" font-size="14.00">transition_reason </text>
<text text-anchor="start" x="161.49" y="-1582.6" font-family="Arial" font-size="14.00" fill="#666666">[TEXT]</text>
<polygon fill="none" stroke="black" points="43.2,-1539.6 43.2,-1570.4 330.33,-1570.4 330.33,-1539.6 43.2,-1539.6"/>
<text text-anchor="start" x="50.2" y="-1551.8" font-family="Arial" font-size="14.00">transitioned_at </text>
<text text-anchor="start" x="145.93" y="-1551.8" font-family="Arial" font-size="14.00" fill="#666666">[TIMESTAMPTZ]</text>
<polygon fill="none" stroke="black" points="43.2,-1508.8 43.2,-1539.6 330.33,-1539.6 330.33,-1508.8 43.2,-1508.8"/>
<text text-anchor="start" x="50.2" y="-1521" font-family="Arial" font-size="14.00">elaboration </text>
<text text-anchor="start" x="123.37" y="-1521" font-family="Arial" font-size="14.00" fill="#666666">[TEXT]</text>
</g>
<!-- orchestration_session_state&#45;&gt;orchestration_session_entry -->
<g id="edge1" class="edge">
<title>orchestration_session_state:session_entry_id&#45;&gt;orchestration_session_entry:orchestration_session_entry_id</title>
<path fill="none" stroke="black" d="M341.38,-1707.3C424.59,-1676.6 272.84,-1240 373.81,-1240"/>
<polygon fill="black" stroke="black" points="341.52,-1707.28 330.91,-1704.51 336.26,-1708.17 331.99,-1708.89 331.99,-1708.89 331.99,-1708.89 336.26,-1708.17 332.41,-1713.38 341.52,-1707.28"/>
</g>
<!-- orchestration_session_state&#45;&gt;orchestration_session -->
<g id="edge2" class="edge">
<title>orchestration_session_state:session_id&#45;&gt;orchestration_session:orchestration_session_id</title>
<path fill="none" stroke="black" d="M341.39,-1737.39C385.07,-1713.73 332.78,-1522.67 330.33,-1465.6 322.51,-1283.31 236.23,-1217.41 319.76,-1055.2 365.38,-966.62 402.63,-925 502.27,-925"/>
<polygon fill="black" stroke="black" points="341.38,-1737.39 330.61,-1735.35 336.19,-1738.63 331.98,-1739.64 331.98,-1739.64 331.98,-1739.64 336.19,-1738.63 332.7,-1744.1 341.38,-1737.39"/>
</g>
<!-- device -->
<g id="node7" class="node">
<title>device</title>
<polygon fill="#efefef" stroke="none" points="372.51,-474.4 372.51,-510 567.02,-510 567.02,-474.4 372.51,-474.4"/>
<polygon fill="none" stroke="black" points="372.51,-474.4 372.51,-510 567.02,-510 567.02,-474.4 372.51,-474.4"/>
<text text-anchor="start" x="411.65" y="-487.8" font-family="Arial Bold" font-size="18.00">device</text>
<text text-anchor="start" x="458.62" y="-487.8" font-family="Arial" font-size="14.00">    </text>
<text text-anchor="start" x="489.74" y="-487.8" font-family="Arial" font-size="14.00" fill="#666666">[table]</text>
<polygon fill="none" stroke="black" points="372.51,-443.6 372.51,-474.4 567.02,-474.4 567.02,-443.6 372.51,-443.6"/>
<text text-anchor="start" x="379.51" y="-455.8" font-family="Arial" font-size="14.00">device_id </text>
<text text-anchor="start" x="442.55" y="-455.8" font-family="Arial" font-size="14.00" fill="#666666">[VARCHAR]</text>
<polygon fill="none" stroke="black" points="372.51,-412.8 372.51,-443.6 567.02,-443.6 567.02,-412.8 372.51,-412.8"/>
<text text-anchor="start" x="379.51" y="-425" font-family="Arial" font-size="14.00">name </text>
<text text-anchor="start" x="418.42" y="-425" font-family="Arial" font-size="14.00" fill="#666666">[TEXT]</text>
<polygon fill="none" stroke="black" points="372.51,-382 372.51,-412.8 567.02,-412.8 567.02,-382 372.51,-382"/>
<text text-anchor="start" x="379.51" y="-394.2" font-family="Arial" font-size="14.00">state </text>
<text text-anchor="start" x="413.75" y="-394.2" font-family="Arial" font-size="14.00" fill="#666666">[TEXT]</text>
<polygon fill="none" stroke="black" points="372.51,-351.2 372.51,-382 567.02,-382 567.02,-351.2 372.51,-351.2"/>
<text text-anchor="start" x="379.51" y="-363.4" font-family="Arial" font-size="14.00">boundary </text>
<text text-anchor="start" x="441.78" y="-363.4" font-family="Arial" font-size="14.00" fill="#666666">[TEXT]</text>
<polygon fill="none" stroke="black" points="372.51,-320.4 372.51,-351.2 567.02,-351.2 567.02,-320.4 372.51,-320.4"/>
<text text-anchor="start" x="379.51" y="-332.6" font-family="Arial" font-size="14.00">segmentation </text>
<text text-anchor="start" x="467.45" y="-332.6" font-family="Arial" font-size="14.00" fill="#666666">[TEXT]</text>
<polygon fill="none" stroke="black" points="372.51,-289.6 372.51,-320.4 567.02,-320.4 567.02,-289.6 372.51,-289.6"/>
<text text-anchor="start" x="379.51" y="-301.8" font-family="Arial" font-size="14.00">state_sysinfo </text>
<text text-anchor="start" x="465.11" y="-301.8" font-family="Arial" font-size="14.00" fill="#666666">[TEXT]</text>
<polygon fill="none" stroke="black" points="372.51,-258.8 372.51,-289.6 567.02,-289.6 567.02,-258.8 372.51,-258.8"/>
<text text-anchor="start" x="379.51" y="-271" font-family="Arial" font-size="14.00">elaboration </text>
<text text-anchor="start" x="452.68" y="-271" font-family="Arial" font-size="14.00" fill="#666666">[TEXT]</text>
<polygon fill="none" stroke="black" points="372.51,-228 372.51,-258.8 567.02,-258.8 567.02,-228 372.51,-228"/>
<text text-anchor="start" x="379.51" y="-240.2" font-family="Arial" font-size="14.00">created_at </text>
<text text-anchor="start" x="449.56" y="-240.2" font-family="Arial" font-size="14.00" fill="#666666">[TIMESTAMPTZ]</text>
<polygon fill="none" stroke="black" points="372.51,-197.2 372.51,-228 567.02,-228 567.02,-197.2 372.51,-197.2"/>
<text text-anchor="start" x="379.51" y="-209.4" font-family="Arial" font-size="14.00">created_by </text>
<text text-anchor="start" x="452.67" y="-209.4" font-family="Arial" font-size="14.00" fill="#666666">[TEXT]</text>
<polygon fill="none" stroke="black" points="372.51,-166.4 372.51,-197.2 567.02,-197.2 567.02,-166.4 372.51,-166.4"/>
<text text-anchor="start" x="379.51" y="-178.6" font-family="Arial" font-size="14.00">updated_at </text>
<text text-anchor="start" x="453.47" y="-178.6" font-family="Arial" font-size="14.00" fill="#666666">[TIMESTAMPTZ]</text>
<polygon fill="none" stroke="black" points="372.51,-135.6 372.51,-166.4 567.02,-166.4 567.02,-135.6 372.51,-135.6"/>
<text text-anchor="start" x="379.51" y="-147.8" font-family="Arial" font-size="14.00">updated_by </text>
<text text-anchor="start" x="456.58" y="-147.8" font-family="Arial" font-size="14.00" fill="#666666">[TEXT]</text>
<polygon fill="none" stroke="black" points="372.51,-104.8 372.51,-135.6 567.02,-135.6 567.02,-104.8 372.51,-104.8"/>
<text text-anchor="start" x="379.51" y="-117" font-family="Arial" font-size="14.00">deleted_at </text>
<text text-anchor="start" x="448.79" y="-117" font-family="Arial" font-size="14.00" fill="#666666">[TIMESTAMPTZ]</text>
<polygon fill="none" stroke="black" points="372.51,-74 372.51,-104.8 567.02,-104.8 567.02,-74 372.51,-74"/>
<text text-anchor="start" x="379.51" y="-86.2" font-family="Arial" font-size="14.00">deleted_by </text>
<text text-anchor="start" x="451.9" y="-86.2" font-family="Arial" font-size="14.00" fill="#666666">[TEXT]</text>
<polygon fill="none" stroke="black" points="372.51,-43.2 372.51,-74 567.02,-74 567.02,-43.2 372.51,-43.2"/>
<text text-anchor="start" x="379.51" y="-55.4" font-family="Arial" font-size="14.00">activity_log </text>
<text text-anchor="start" x="452.65" y="-55.4" font-family="Arial" font-size="14.00" fill="#666666">[TEXT]</text>
</g>
<!-- orchestration_session&#45;&gt;device -->
<g id="edge10" class="edge">
<title>orchestration_session:device_id&#45;&gt;device:device_id</title>
<path fill="none" stroke="black" d="M491.97,-893.81C370.3,-884.33 436.55,-703.07 503.27,-589.2 519.72,-561.13 550.47,-581.21 567.02,-553.2 588.32,-517.15 609.89,-459 568.02,-459"/>
<polygon fill="black" stroke="black" points="491.94,-893.81 501.77,-898.68 497.27,-894.01 501.6,-894.17 501.6,-894.17 501.6,-894.17 497.27,-894.01 502.1,-889.69 491.94,-893.81"/>
</g>
<!-- orchestration_nature -->
<g id="node8" class="node">
<title>orchestration_nature</title>
<polygon fill="#efefef" stroke="none" points="671.17,-412.8 671.17,-448.4 902.36,-448.4 902.36,-412.8 671.17,-412.8"/>
<polygon fill="none" stroke="black" points="671.17,-412.8 671.17,-448.4 902.36,-448.4 902.36,-412.8 671.17,-412.8"/>
<text text-anchor="start" x="678.17" y="-426.2" font-family="Arial Bold" font-size="18.00">orchestration_nature</text>
<text text-anchor="start" x="826.11" y="-426.2" font-family="Arial" font-size="14.00">    </text>
<text text-anchor="start" x="857.22" y="-426.2" font-family="Arial" font-size="14.00" fill="#666666">[table]</text>
<polygon fill="none" stroke="black" points="671.17,-382 671.17,-412.8 902.36,-412.8 902.36,-382 671.17,-382"/>
<text text-anchor="start" x="678.17" y="-394.2" font-family="Arial" font-size="14.00">orchestration_nature_id </text>
<text text-anchor="start" x="829.15" y="-394.2" font-family="Arial" font-size="14.00" fill="#666666">[TEXT]</text>
<polygon fill="none" stroke="black" points="671.17,-351.2 671.17,-382 902.36,-382 902.36,-351.2 671.17,-351.2"/>
<text text-anchor="start" x="678.17" y="-363.4" font-family="Arial" font-size="14.00">nature </text>
<text text-anchor="start" x="721.75" y="-363.4" font-family="Arial" font-size="14.00" fill="#666666">[TEXT]</text>
<polygon fill="none" stroke="black" points="671.17,-320.4 671.17,-351.2 902.36,-351.2 902.36,-320.4 671.17,-320.4"/>
<text text-anchor="start" x="678.17" y="-332.6" font-family="Arial" font-size="14.00">elaboration </text>
<text text-anchor="start" x="751.33" y="-332.6" font-family="Arial" font-size="14.00" fill="#666666">[TEXT]</text>
<polygon fill="none" stroke="black" points="671.17,-289.6 671.17,-320.4 902.36,-320.4 902.36,-289.6 671.17,-289.6"/>
<text text-anchor="start" x="678.17" y="-301.8" font-family="Arial" font-size="14.00">created_at </text>
<text text-anchor="start" x="748.22" y="-301.8" font-family="Arial" font-size="14.00" fill="#666666">[TIMESTAMPTZ]</text>
<polygon fill="none" stroke="black" points="671.17,-258.8 671.17,-289.6 902.36,-289.6 902.36,-258.8 671.17,-258.8"/>
<text text-anchor="start" x="678.17" y="-271" font-family="Arial" font-size="14.00">created_by </text>
<text text-anchor="start" x="751.33" y="-271" font-family="Arial" font-size="14.00" fill="#666666">[TEXT]</text>
<polygon fill="none" stroke="black" points="671.17,-228 671.17,-258.8 902.36,-258.8 902.36,-228 671.17,-228"/>
<text text-anchor="start" x="678.17" y="-240.2" font-family="Arial" font-size="14.00">updated_at </text>
<text text-anchor="start" x="752.13" y="-240.2" font-family="Arial" font-size="14.00" fill="#666666">[TIMESTAMPTZ]</text>
<polygon fill="none" stroke="black" points="671.17,-197.2 671.17,-228 902.36,-228 902.36,-197.2 671.17,-197.2"/>
<text text-anchor="start" x="678.17" y="-209.4" font-family="Arial" font-size="14.00">updated_by </text>
<text text-anchor="start" x="755.24" y="-209.4" font-family="Arial" font-size="14.00" fill="#666666">[TEXT]</text>
<polygon fill="none" stroke="black" points="671.17,-166.4 671.17,-197.2 902.36,-197.2 902.36,-166.4 671.17,-166.4"/>
<text text-anchor="start" x="678.17" y="-178.6" font-family="Arial" font-size="14.00">deleted_at </text>
<text text-anchor="start" x="747.45" y="-178.6" font-family="Arial" font-size="14.00" fill="#666666">[TIMESTAMPTZ]</text>
<polygon fill="none" stroke="black" points="671.17,-135.6 671.17,-166.4 902.36,-166.4 902.36,-135.6 671.17,-135.6"/>
<text text-anchor="start" x="678.17" y="-147.8" font-family="Arial" font-size="14.00">deleted_by </text>
<text text-anchor="start" x="750.56" y="-147.8" font-family="Arial" font-size="14.00" fill="#666666">[TEXT]</text>
<polygon fill="none" stroke="black" points="671.17,-104.8 671.17,-135.6 902.36,-135.6 902.36,-104.8 671.17,-104.8"/>
<text text-anchor="start" x="678.17" y="-117" font-family="Arial" font-size="14.00">activity_log </text>
<text text-anchor="start" x="751.31" y="-117" font-family="Arial" font-size="14.00" fill="#666666">[TEXT]</text>
</g>
<!-- orchestration_session&#45;&gt;orchestration_nature -->
<g id="edge11" class="edge">
<title>orchestration_session:orchestration_nature_id&#45;&gt;orchestration_nature:orchestration_nature_id</title>
<path fill="none" stroke="black" d="M763.46,-862.99C870.4,-854.08 792.65,-700.39 752.26,-589.2 733,-536.19 690.61,-544.54 671.17,-491.6 656.74,-452.3 628.3,-397.4 670.17,-397.4"/>
<polygon fill="black" stroke="black" points="763.59,-862.99 753.42,-858.89 758.26,-863.2 753.93,-863.37 753.93,-863.37 753.93,-863.37 758.26,-863.2 753.77,-867.88 763.59,-862.99"/>
</g>
<!-- orchestration_session_exec -->
<g id="node4" class="node">
<title>orchestration_session_exec</title>
<polygon fill="#efefef" stroke="none" points="434.59,-1878.4 434.59,-1914 720.94,-1914 720.94,-1878.4 434.59,-1878.4"/>
<polygon fill="none" stroke="black" points="434.59,-1878.4 434.59,-1914 720.94,-1914 720.94,-1878.4 434.59,-1878.4"/>
<text text-anchor="start" x="444.67" y="-1891.8" font-family="Arial Bold" font-size="18.00">orchestration_session_exec</text>
<text text-anchor="start" x="641.61" y="-1891.8" font-family="Arial" font-size="14.00">    </text>
<text text-anchor="start" x="672.72" y="-1891.8" font-family="Arial" font-size="14.00" fill="#666666">[table]</text>
<polygon fill="none" stroke="black" points="434.59,-1847.6 434.59,-1878.4 720.94,-1878.4 720.94,-1847.6 434.59,-1847.6"/>
<text text-anchor="start" x="441.59" y="-1859.8" font-family="Arial" font-size="14.00">orchestration_session_exec_id </text>
<text text-anchor="start" x="637.71" y="-1859.8" font-family="Arial" font-size="14.00" fill="#666666">[VARCHAR]</text>
<polygon fill="none" stroke="black" points="434.59,-1816.8 434.59,-1847.6 720.94,-1847.6 720.94,-1816.8 434.59,-1816.8"/>
<text text-anchor="start" x="441.59" y="-1829" font-family="Arial" font-size="14.00">exec_nature </text>
<text text-anchor="start" x="522.53" y="-1829" font-family="Arial" font-size="14.00" fill="#666666">[TEXT]</text>
<polygon fill="none" stroke="black" points="434.59,-1786 434.59,-1816.8 720.94,-1816.8 720.94,-1786 434.59,-1786"/>
<text text-anchor="start" x="441.59" y="-1798.2" font-family="Arial" font-size="14.00">session_id </text>
<text text-anchor="start" x="511.63" y="-1798.2" font-family="Arial" font-size="14.00" fill="#666666">[VARCHAR]</text>
<polygon fill="none" stroke="black" points="434.59,-1755.2 434.59,-1786 720.94,-1786 720.94,-1755.2 434.59,-1755.2"/>
<text text-anchor="start" x="441.59" y="-1767.4" font-family="Arial" font-size="14.00">session_entry_id </text>
<text text-anchor="start" x="550.54" y="-1767.4" font-family="Arial" font-size="14.00" fill="#666666">[VARCHAR]</text>
<polygon fill="none" stroke="black" points="434.59,-1724.4 434.59,-1755.2 720.94,-1755.2 720.94,-1724.4 434.59,-1724.4"/>
<text text-anchor="start" x="441.59" y="-1736.6" font-family="Arial" font-size="14.00">parent_exec_id </text>
<text text-anchor="start" x="541.22" y="-1736.6" font-family="Arial" font-size="14.00" fill="#666666">[VARCHAR]</text>
<polygon fill="none" stroke="black" points="434.59,-1693.6 434.59,-1724.4 720.94,-1724.4 720.94,-1693.6 434.59,-1693.6"/>
<text text-anchor="start" x="441.59" y="-1705.8" font-family="Arial" font-size="14.00">namespace </text>
<text text-anchor="start" x="517.86" y="-1705.8" font-family="Arial" font-size="14.00" fill="#666666">[TEXT]</text>
<polygon fill="none" stroke="black" points="434.59,-1662.8 434.59,-1693.6 720.94,-1693.6 720.94,-1662.8 434.59,-1662.8"/>
<text text-anchor="start" x="441.59" y="-1675" font-family="Arial" font-size="14.00">exec_identity </text>
<text text-anchor="start" x="527.2" y="-1675" font-family="Arial" font-size="14.00" fill="#666666">[TEXT]</text>
<polygon fill="none" stroke="black" points="434.59,-1632 434.59,-1662.8 720.94,-1662.8 720.94,-1632 434.59,-1632"/>
<text text-anchor="start" x="441.59" y="-1644.2" font-family="Arial" font-size="14.00">exec_code </text>
<text text-anchor="start" x="513.2" y="-1644.2" font-family="Arial" font-size="14.00" fill="#666666">[TEXT]</text>
<polygon fill="none" stroke="black" points="434.59,-1601.2 434.59,-1632 720.94,-1632 720.94,-1601.2 434.59,-1601.2"/>
<text text-anchor="start" x="441.59" y="-1613.4" font-family="Arial" font-size="14.00">exec_status </text>
<text text-anchor="start" x="520.19" y="-1613.4" font-family="Arial" font-size="14.00" fill="#666666">[INTEGER]</text>
<polygon fill="none" stroke="black" points="434.59,-1570.4 434.59,-1601.2 720.94,-1601.2 720.94,-1570.4 434.59,-1570.4"/>
<text text-anchor="start" x="441.59" y="-1582.6" font-family="Arial" font-size="14.00">input_text </text>
<text text-anchor="start" x="506.19" y="-1582.6" font-family="Arial" font-size="14.00" fill="#666666">[TEXT]</text>
<polygon fill="none" stroke="black" points="434.59,-1539.6 434.59,-1570.4 720.94,-1570.4 720.94,-1539.6 434.59,-1539.6"/>
<text text-anchor="start" x="441.59" y="-1551.8" font-family="Arial" font-size="14.00">exec_error_text </text>
<text text-anchor="start" x="542.75" y="-1551.8" font-family="Arial" font-size="14.00" fill="#666666">[TEXT]</text>
<polygon fill="none" stroke="black" points="434.59,-1508.8 434.59,-1539.6 720.94,-1539.6 720.94,-1508.8 434.59,-1508.8"/>
<text text-anchor="start" x="441.59" y="-1521" font-family="Arial" font-size="14.00">output_text </text>
<text text-anchor="start" x="514.75" y="-1521" font-family="Arial" font-size="14.00" fill="#666666">[TEXT]</text>
<polygon fill="none" stroke="black" points="434.59,-1478 434.59,-1508.8 720.94,-1508.8 720.94,-1478 434.59,-1478"/>
<text text-anchor="start" x="441.59" y="-1490.2" font-family="Arial" font-size="14.00">output_nature </text>
<text text-anchor="start" x="531.89" y="-1490.2" font-family="Arial" font-size="14.00" fill="#666666">[TEXT]</text>
<polygon fill="none" stroke="black" points="434.59,-1447.2 434.59,-1478 720.94,-1478 720.94,-1447.2 434.59,-1447.2"/>
<text text-anchor="start" x="441.59" y="-1459.4" font-family="Arial" font-size="14.00">narrative_md </text>
<text text-anchor="start" x="527.18" y="-1459.4" font-family="Arial" font-size="14.00" fill="#666666">[TEXT]</text>
<polygon fill="none" stroke="black" points="434.59,-1416.4 434.59,-1447.2 720.94,-1447.2 720.94,-1416.4 434.59,-1416.4"/>
<text text-anchor="start" x="441.59" y="-1428.6" font-family="Arial" font-size="14.00">elaboration </text>
<text text-anchor="start" x="514.75" y="-1428.6" font-family="Arial" font-size="14.00" fill="#666666">[TEXT]</text>
</g>
<!-- orchestration_session_exec&#45;&gt;orchestration_session_entry -->
<g id="edge3" class="edge">
<title>orchestration_session_exec:session_entry_id&#45;&gt;orchestration_session_entry:orchestration_session_entry_id</title>
<path fill="none" stroke="black" d="M424.95,-1765.16C391.87,-1719.73 407.94,-1404.31 434.59,-1373.2 501.37,-1295.25 595.63,-1414.89 662.72,-1337.2 690.95,-1304.5 706.92,-1240 663.72,-1240"/>
<polygon fill="black" stroke="black" points="424.84,-1765.1 430.91,-1774.23 429.36,-1767.94 433.02,-1770.24 433.02,-1770.24 433.02,-1770.24 429.36,-1767.94 435.7,-1766.61 424.84,-1765.1"/>
</g>
<!-- orchestration_session_exec&#45;&gt;orchestration_session -->
<g id="edge5" class="edge">
<title>orchestration_session_exec:session_id&#45;&gt;orchestration_session:orchestration_session_id</title>
<path fill="none" stroke="black" d="M726.43,-1792.15C749.89,-1698.49 776.15,-925 753.26,-925"/>
<polygon fill="black" stroke="black" points="726.45,-1792.1 718.04,-1799.13 724.12,-1796.9 722.23,-1800.8 722.23,-1800.8 722.23,-1800.8 724.12,-1796.9 726.13,-1803.06 726.45,-1792.1"/>
</g>
<!-- orchestration_session_exec&#45;&gt;orchestration_session_exec -->
<g id="edge4" class="edge">
<title>orchestration_session_exec:parent_exec_id&#45;&gt;orchestration_session_exec:orchestration_session_exec_id</title>
<path fill="none" stroke="black" d="M578.99,-1765.53C586.74,-1940.49 586.33,-2190.2 577.76,-2190.2 569.03,-2190.2 568.77,-2043.98 576.98,-1878.31"/>
<polygon fill="black" stroke="black" points="578.99,-1765.49 583.03,-1755.29 578.75,-1760.16 578.55,-1755.83 578.55,-1755.83 578.55,-1755.83 578.75,-1760.16 574.04,-1755.7 578.99,-1765.49"/>
</g>
<!-- orchestration_session_issue -->
<g id="node5" class="node">
<title>orchestration_session_issue</title>
<polygon fill="#efefef" stroke="none" points="825.15,-1801.4 825.15,-1837 1108.38,-1837 1108.38,-1801.4 825.15,-1801.4"/>
<polygon fill="none" stroke="black" points="825.15,-1801.4 825.15,-1837 1108.38,-1837 1108.38,-1801.4 825.15,-1801.4"/>
<text text-anchor="start" x="832.15" y="-1814.8" font-family="Arial Bold" font-size="18.00">orchestration_session_issue</text>
<text text-anchor="start" x="1032.12" y="-1814.8" font-family="Arial" font-size="14.00">    </text>
<text text-anchor="start" x="1063.24" y="-1814.8" font-family="Arial" font-size="14.00" fill="#666666">[table]</text>
<polygon fill="none" stroke="black" points="825.15,-1770.6 825.15,-1801.4 1108.38,-1801.4 1108.38,-1770.6 825.15,-1770.6"/>
<text text-anchor="start" x="832.15" y="-1782.8" font-family="Arial" font-size="14.00">orchestration_session_issue_id </text>
<text text-anchor="start" x="1031.38" y="-1782.8" font-family="Arial" font-size="14.00" fill="#666666">[UUID]</text>
<polygon fill="none" stroke="black" points="825.15,-1739.8 825.15,-1770.6 1108.38,-1770.6 1108.38,-1739.8 825.15,-1739.8"/>
<text text-anchor="start" x="832.15" y="-1752" font-family="Arial" font-size="14.00">session_id </text>
<text text-anchor="start" x="902.19" y="-1752" font-family="Arial" font-size="14.00" fill="#666666">[VARCHAR]</text>
<polygon fill="none" stroke="black" points="825.15,-1709 825.15,-1739.8 1108.38,-1739.8 1108.38,-1709 825.15,-1709"/>
<text text-anchor="start" x="832.15" y="-1721.2" font-family="Arial" font-size="14.00">session_entry_id </text>
<text text-anchor="start" x="941.1" y="-1721.2" font-family="Arial" font-size="14.00" fill="#666666">[VARCHAR]</text>
<polygon fill="none" stroke="black" points="825.15,-1678.2 825.15,-1709 1108.38,-1709 1108.38,-1678.2 825.15,-1678.2"/>
<text text-anchor="start" x="832.15" y="-1690.4" font-family="Arial" font-size="14.00">issue_type </text>
<text text-anchor="start" x="902.97" y="-1690.4" font-family="Arial" font-size="14.00" fill="#666666">[TEXT]</text>
<polygon fill="none" stroke="black" points="825.15,-1647.4 825.15,-1678.2 1108.38,-1678.2 1108.38,-1647.4 825.15,-1647.4"/>
<text text-anchor="start" x="832.15" y="-1659.6" font-family="Arial" font-size="14.00">issue_message </text>
<text text-anchor="start" x="933.32" y="-1659.6" font-family="Arial" font-size="14.00" fill="#666666">[TEXT]</text>
<polygon fill="none" stroke="black" points="825.15,-1616.6 825.15,-1647.4 1108.38,-1647.4 1108.38,-1616.6 825.15,-1616.6"/>
<text text-anchor="start" x="832.15" y="-1628.8" font-family="Arial" font-size="14.00">issue_row </text>
<text text-anchor="start" x="899.07" y="-1628.8" font-family="Arial" font-size="14.00" fill="#666666">[INTEGER]</text>
<polygon fill="none" stroke="black" points="825.15,-1585.8 825.15,-1616.6 1108.38,-1616.6 1108.38,-1585.8 825.15,-1585.8"/>
<text text-anchor="start" x="832.15" y="-1598" font-family="Arial" font-size="14.00">issue_column </text>
<text text-anchor="start" x="921.64" y="-1598" font-family="Arial" font-size="14.00" fill="#666666">[TEXT]</text>
<polygon fill="none" stroke="black" points="825.15,-1555 825.15,-1585.8 1108.38,-1585.8 1108.38,-1555 825.15,-1555"/>
<text text-anchor="start" x="832.15" y="-1567.2" font-family="Arial" font-size="14.00">invalid_value </text>
<text text-anchor="start" x="916.99" y="-1567.2" font-family="Arial" font-size="14.00" fill="#666666">[TEXT]</text>
<polygon fill="none" stroke="black" points="825.15,-1524.2 825.15,-1555 1108.38,-1555 1108.38,-1524.2 825.15,-1524.2"/>
<text text-anchor="start" x="832.15" y="-1536.4" font-family="Arial" font-size="14.00">remediation </text>
<text text-anchor="start" x="909.19" y="-1536.4" font-family="Arial" font-size="14.00" fill="#666666">[TEXT]</text>
<polygon fill="none" stroke="black" points="825.15,-1493.4 825.15,-1524.2 1108.38,-1524.2 1108.38,-1493.4 825.15,-1493.4"/>
<text text-anchor="start" x="832.15" y="-1505.6" font-family="Arial" font-size="14.00">elaboration </text>
<text text-anchor="start" x="905.32" y="-1505.6" font-family="Arial" font-size="14.00" fill="#666666">[TEXT]</text>
</g>
<!-- orchestration_session_issue&#45;&gt;orchestration_session_entry -->
<g id="edge6" class="edge">
<title>orchestration_session_issue:session_entry_id&#45;&gt;orchestration_session_entry:orchestration_session_entry_id</title>
<path fill="none" stroke="black" d="M813.95,-1722.61C750.64,-1698.69 803.12,-1441.98 772.76,-1373.2 741.87,-1303.21 740.22,-1240 663.72,-1240"/>
<polygon fill="black" stroke="black" points="813.97,-1722.62 823.05,-1728.77 819.23,-1723.54 823.49,-1724.28 823.49,-1724.28 823.49,-1724.28 819.23,-1723.54 824.6,-1719.91 813.97,-1722.62"/>
</g>
<!-- orchestration_session_issue&#45;&gt;orchestration_session -->
<g id="edge8" class="edge">
<title>orchestration_session_issue:session_id&#45;&gt;orchestration_session:orchestration_session_id</title>
<path fill="none" stroke="black" d="M814.68,-1751.86C739.77,-1694.73 842.41,-925 753.26,-925"/>
<polygon fill="black" stroke="black" points="814.41,-1751.76 822.34,-1759.33 819.44,-1753.54 823.52,-1754.98 823.52,-1754.98 823.52,-1754.98 819.44,-1753.54 825.34,-1750.85 814.41,-1751.76"/>
</g>
<!-- orchestration_session_issue_relation -->
<g id="node6" class="node">
<title>orchestration_session_issue_relation</title>
<polygon fill="#efefef" stroke="none" points="793.17,-2190.4 793.17,-2226 1140.36,-2226 1140.36,-2190.4 793.17,-2190.4"/>
<polygon fill="none" stroke="black" points="793.17,-2190.4 793.17,-2226 1140.36,-2226 1140.36,-2190.4 793.17,-2190.4"/>
<text text-anchor="start" x="800.17" y="-2203.8" font-family="Arial Bold" font-size="18.00">orchestration_session_issue_relation</text>
<text text-anchor="start" x="1064.11" y="-2203.8" font-family="Arial" font-size="14.00">    </text>
<text text-anchor="start" x="1095.23" y="-2203.8" font-family="Arial" font-size="14.00" fill="#666666">[table]</text>
<polygon fill="none" stroke="black" points="793.17,-2159.6 793.17,-2190.4 1140.36,-2190.4 1140.36,-2159.6 793.17,-2159.6"/>
<text text-anchor="start" x="800.17" y="-2171.8" font-family="Arial" font-size="14.00">orchestration_session_issue_relation_id </text>
<text text-anchor="start" x="1053.1" y="-2171.8" font-family="Arial" font-size="14.00" fill="#666666">[UUID]</text>
<polygon fill="none" stroke="black" points="793.17,-2128.8 793.17,-2159.6 1140.36,-2159.6 1140.36,-2128.8 793.17,-2128.8"/>
<text text-anchor="start" x="800.17" y="-2141" font-family="Arial" font-size="14.00">issue_id_prime </text>
<text text-anchor="start" x="898.21" y="-2141" font-family="Arial" font-size="14.00" fill="#666666">[UUID]</text>
<polygon fill="none" stroke="black" points="793.17,-2098 793.17,-2128.8 1140.36,-2128.8 1140.36,-2098 793.17,-2098"/>
<text text-anchor="start" x="800.17" y="-2110.2" font-family="Arial" font-size="14.00">issue_id_rel </text>
<text text-anchor="start" x="878.76" y="-2110.2" font-family="Arial" font-size="14.00" fill="#666666">[TEXT]</text>
<polygon fill="none" stroke="black" points="793.17,-2067.2 793.17,-2098 1140.36,-2098 1140.36,-2067.2 793.17,-2067.2"/>
<text text-anchor="start" x="800.17" y="-2079.4" font-family="Arial" font-size="14.00">relationship_nature </text>
<text text-anchor="start" x="923.14" y="-2079.4" font-family="Arial" font-size="14.00" fill="#666666">[TEXT]</text>
<polygon fill="none" stroke="black" points="793.17,-2036.4 793.17,-2067.2 1140.36,-2067.2 1140.36,-2036.4 793.17,-2036.4"/>
<text text-anchor="start" x="800.17" y="-2048.6" font-family="Arial" font-size="14.00">elaboration </text>
<text text-anchor="start" x="873.33" y="-2048.6" font-family="Arial" font-size="14.00" fill="#666666">[TEXT]</text>
</g>
<!-- orchestration_session_issue_relation&#45;&gt;orchestration_session_issue -->
<g id="edge7" class="edge">
<title>orchestration_session_issue_relation:issue_id_prime&#45;&gt;orchestration_session_issue:orchestration_session_issue_id</title>
<path fill="none" stroke="black" d="M1151.4,-2143.71C1299.76,-2128.97 1265.78,-1786 1109.38,-1786"/>
<polygon fill="black" stroke="black" points="1151.69,-2143.7 1141.48,-2139.69 1146.36,-2143.96 1142.03,-2144.17 1142.03,-2144.17 1142.03,-2144.17 1146.36,-2143.96 1141.92,-2148.68 1151.69,-2143.7"/>
</g>
</g>
</svg>
