<?xml version="1.0" encoding="UTF-8" standalone="no"?>
<!DOCTYPE svg PUBLIC "-//W3C//DTD SVG 1.1//EN"
 "http://www.w3.org/Graphics/SVG/1.1/DTD/svg11.dtd">
<!-- Generated by graphviz version 2.40.1 (20161225.0304)
 -->
<!-- Title: orchestration_nature Pages: 1 -->
<svg width="1672pt" height="1613pt"
 viewBox="0.00 0.00 1671.50 1613.00" xmlns="http://www.w3.org/2000/svg" xmlns:xlink="http://www.w3.org/1999/xlink">
<g id="graph0" class="graph" transform="scale(1 1) rotate(0) translate(4 1609)">
<title>orchestration_nature</title>
<polygon fill="#ffffff" stroke="transparent" points="-4,4 -4,-1609 1667.5,-1609 1667.5,4 -4,4"/>
<!-- orchestration_nature -->
<g id="node1" class="node">
<title>orchestration_nature</title>
<polygon fill="#efefef" stroke="transparent" points="537,-402.5 537,-437.5 788,-437.5 788,-402.5 537,-402.5"/>
<polygon fill="none" stroke="#000000" points="537,-402.5 537,-437.5 788,-437.5 788,-402.5 537,-402.5"/>
<text text-anchor="start" x="543.8117" y="-415.3" font-family="Arial Bold" font-size="18.00" fill="#000000">orchestration_nature</text>
<text text-anchor="start" x="708.8573" y="-415.3" font-family="Arial" font-size="14.00" fill="#000000">    </text>
<text text-anchor="start" x="743.0621" y="-415.3" font-family="Arial" font-size="14.00" fill="#666666">[table]</text>
<polygon fill="none" stroke="#000000" points="537,-372.5 537,-402.5 788,-402.5 788,-372.5 537,-372.5"/>
<text text-anchor="start" x="544" y="-383.9" font-family="Arial" font-size="14.00" fill="#000000">orchestration_nature_id </text>
<text text-anchor="start" x="694.9312" y="-383.9" font-family="Arial" font-size="14.00" fill="#666666">[TEXT]</text>
<polygon fill="none" stroke="#000000" points="537,-342.5 537,-372.5 788,-372.5 788,-342.5 537,-342.5"/>
<text text-anchor="start" x="544" y="-353.9" font-family="Arial" font-size="14.00" fill="#000000">nature </text>
<text text-anchor="start" x="587.5722" y="-353.9" font-family="Arial" font-size="14.00" fill="#666666">[TEXT]</text>
<polygon fill="none" stroke="#000000" points="537,-312.5 537,-342.5 788,-342.5 788,-312.5 537,-312.5"/>
<text text-anchor="start" x="544" y="-323.9" font-family="Arial" font-size="14.00" fill="#000000">elaboration </text>
<text text-anchor="start" x="617.1332" y="-323.9" font-family="Arial" font-size="14.00" fill="#666666">[TEXT]</text>
<polygon fill="none" stroke="#000000" points="537,-282.5 537,-312.5 788,-312.5 788,-282.5 537,-282.5"/>
<text text-anchor="start" x="544" y="-293.9" font-family="Arial" font-size="14.00" fill="#000000">created_at </text>
<text text-anchor="start" x="614.028" y="-293.9" font-family="Arial" font-size="14.00" fill="#666666">[TIMESTAMPTZ]</text>
<polygon fill="none" stroke="#000000" points="537,-252.5 537,-282.5 788,-282.5 788,-252.5 537,-252.5"/>
<text text-anchor="start" x="544" y="-263.9" font-family="Arial" font-size="14.00" fill="#000000">created_by </text>
<text text-anchor="start" x="617.1374" y="-263.9" font-family="Arial" font-size="14.00" fill="#666666">[TEXT]</text>
<polygon fill="none" stroke="#000000" points="537,-222.5 537,-252.5 788,-252.5 788,-222.5 537,-222.5"/>
<text text-anchor="start" x="544" y="-233.9" font-family="Arial" font-size="14.00" fill="#000000">updated_at </text>
<text text-anchor="start" x="617.9326" y="-233.9" font-family="Arial" font-size="14.00" fill="#666666">[TIMESTAMPTZ]</text>
<polygon fill="none" stroke="#000000" points="537,-192.5 537,-222.5 788,-222.5 788,-192.5 537,-192.5"/>
<text text-anchor="start" x="544" y="-203.9" font-family="Arial" font-size="14.00" fill="#000000">updated_by </text>
<text text-anchor="start" x="621.042" y="-203.9" font-family="Arial" font-size="14.00" fill="#666666">[TEXT]</text>
<polygon fill="none" stroke="#000000" points="537,-162.5 537,-192.5 788,-192.5 788,-162.5 537,-162.5"/>
<text text-anchor="start" x="544" y="-173.9" font-family="Arial" font-size="14.00" fill="#000000">deleted_at </text>
<text text-anchor="start" x="613.2566" y="-173.9" font-family="Arial" font-size="14.00" fill="#666666">[TIMESTAMPTZ]</text>
<polygon fill="none" stroke="#000000" points="537,-132.5 537,-162.5 788,-162.5 788,-132.5 537,-132.5"/>
<text text-anchor="start" x="544" y="-143.9" font-family="Arial" font-size="14.00" fill="#000000">deleted_by </text>
<text text-anchor="start" x="616.366" y="-143.9" font-family="Arial" font-size="14.00" fill="#666666">[TEXT]</text>
<polygon fill="none" stroke="#000000" points="537,-102.5 537,-132.5 788,-132.5 788,-102.5 537,-102.5"/>
<text text-anchor="start" x="544" y="-113.9" font-family="Arial" font-size="14.00" fill="#000000">activity_log </text>
<text text-anchor="start" x="617.122" y="-113.9" font-family="Arial" font-size="14.00" fill="#666666">[TEXT]</text>
<polygon fill="none" stroke="#000000" stroke-width="3" points="535,-101.5 535,-439.5 789,-439.5 789,-101.5 535,-101.5"/>
</g>
<!-- orchestration_session -->
<g id="node2" class="node">
<title>orchestration_session</title>
<polygon fill="#efefef" stroke="transparent" points="695,-919.5 695,-954.5 974,-954.5 974,-919.5 695,-919.5"/>
<polygon fill="none" stroke="#000000" points="695,-919.5 695,-954.5 974,-954.5 974,-919.5 695,-919.5"/>
<text text-anchor="start" x="710.8149" y="-932.3" font-family="Arial Bold" font-size="18.00" fill="#000000">orchestration_session</text>
<text text-anchor="start" x="885.8541" y="-932.3" font-family="Arial" font-size="14.00" fill="#000000">    </text>
<text text-anchor="start" x="920.0589" y="-932.3" font-family="Arial" font-size="14.00" fill="#666666">[table]</text>
<polygon fill="none" stroke="#000000" points="695,-889.5 695,-919.5 974,-919.5 974,-889.5 695,-889.5"/>
<text text-anchor="start" x="701.8822" y="-900.9" font-family="Arial" font-size="14.00" fill="#000000">orchestration_session_id    </text>
<text text-anchor="start" x="890.9004" y="-900.9" font-family="Arial" font-size="14.00" fill="#666666">[VARCHAR]</text>
<polygon fill="none" stroke="#000000" points="695,-859.5 695,-889.5 974,-889.5 974,-859.5 695,-859.5"/>
<text text-anchor="start" x="702" y="-870.9" font-family="Arial" font-size="14.00" fill="#000000">device_id    </text>
<text text-anchor="start" x="795.331" y="-870.9" font-family="Arial" font-size="14.00" fill="#666666">[VARCHAR]</text>
<polygon fill="none" stroke="#000000" points="695,-829.5 695,-859.5 974,-859.5 974,-829.5 695,-829.5"/>
<text text-anchor="start" x="702" y="-840.9" font-family="Arial" font-size="14.00" fill="#000000">orchestration_nature_id    </text>
<text text-anchor="start" x="883.2454" y="-840.9" font-family="Arial" font-size="14.00" fill="#666666">[TEXT]</text>
<polygon fill="none" stroke="#000000" points="695,-799.5 695,-829.5 974,-829.5 974,-799.5 695,-799.5"/>
<text text-anchor="start" x="702" y="-810.9" font-family="Arial" font-size="14.00" fill="#000000">version    </text>
<text text-anchor="start" x="781.3198" y="-810.9" font-family="Arial" font-size="14.00" fill="#666666">[TEXT]</text>
<polygon fill="none" stroke="#000000" points="695,-769.5 695,-799.5 974,-799.5 974,-769.5 695,-769.5"/>
<text text-anchor="start" x="702" y="-780.9" font-family="Arial" font-size="14.00" fill="#000000">orch_started_at    </text>
<text text-anchor="start" x="833.4586" y="-780.9" font-family="Arial" font-size="14.00" fill="#666666">[TIMESTAMPTZ]</text>
<polygon fill="none" stroke="#000000" points="695,-739.5 695,-769.5 974,-769.5 974,-739.5 695,-739.5"/>
<text text-anchor="start" x="702" y="-750.9" font-family="Arial" font-size="14.00" fill="#000000">orch_finished_at    </text>
<text text-anchor="start" x="838.9032" y="-750.9" font-family="Arial" font-size="14.00" fill="#666666">[TIMESTAMPTZ]</text>
<polygon fill="none" stroke="#000000" points="695,-709.5 695,-739.5 974,-739.5 974,-709.5 695,-709.5"/>
<text text-anchor="start" x="702" y="-720.9" font-family="Arial" font-size="14.00" fill="#000000">elaboration    </text>
<text text-anchor="start" x="805.4474" y="-720.9" font-family="Arial" font-size="14.00" fill="#666666">[TEXT]</text>
<polygon fill="none" stroke="#000000" points="695,-679.5 695,-709.5 974,-709.5 974,-679.5 695,-679.5"/>
<text text-anchor="start" x="702" y="-690.9" font-family="Arial" font-size="14.00" fill="#000000">args_json    </text>
<text text-anchor="start" x="796.885" y="-690.9" font-family="Arial" font-size="14.00" fill="#666666">[TEXT]</text>
<polygon fill="none" stroke="#000000" points="695,-649.5 695,-679.5 974,-679.5 974,-649.5 695,-649.5"/>
<text text-anchor="start" x="702" y="-660.9" font-family="Arial" font-size="14.00" fill="#000000">diagnostics_json    </text>
<text text-anchor="start" x="839.676" y="-660.9" font-family="Arial" font-size="14.00" fill="#666666">[TEXT]</text>
<polygon fill="none" stroke="#000000" points="695,-619.5 695,-649.5 974,-649.5 974,-619.5 695,-619.5"/>
<text text-anchor="start" x="702" y="-630.9" font-family="Arial" font-size="14.00" fill="#000000">diagnostics_md    </text>
<text text-anchor="start" x="833.4474" y="-630.9" font-family="Arial" font-size="14.00" fill="#666666">[TEXT]</text>
</g>
<!-- orchestration_session&#45;&gt;orchestration_nature -->
<g id="edge1" class="edge">
<title>orchestration_session:orchestration_nature_id&#45;&gt;orchestration_nature:orchestration_nature_id</title>
<path fill="none" stroke="#000000" d="M684.725,-844.0722C580.5292,-834.9979 650.8805,-683.5138 695,-577 717.3694,-522.9954 765.6306,-538.0046 788,-484 804.4129,-444.3758 830.8889,-387.5 788,-387.5"/>
<polygon fill="#000000" stroke="#000000" points="685.0087,-844.0839 694.8128,-848.9961 690.0043,-844.292 695,-844.5 695,-844.5 695,-844.5 690.0043,-844.292 695.1872,-840.0039 685.0087,-844.0839 685.0087,-844.0839"/>
</g>
<!-- device -->
<g id="node7" class="node">
<title>device</title>
<polygon fill="#efefef" stroke="transparent" points="895,-462.5 895,-497.5 1119,-497.5 1119,-462.5 895,-462.5"/>
<polygon fill="none" stroke="#000000" points="895,-462.5 895,-497.5 1119,-497.5 1119,-462.5 895,-462.5"/>
<text text-anchor="start" x="944.8281" y="-475.3" font-family="Arial Bold" font-size="18.00" fill="#000000">device</text>
<text text-anchor="start" x="996.8409" y="-475.3" font-family="Arial" font-size="14.00" fill="#000000">    </text>
<text text-anchor="start" x="1031.0457" y="-475.3" font-family="Arial" font-size="14.00" fill="#666666">[table]</text>
<polygon fill="none" stroke="#000000" points="895,-432.5 895,-462.5 1119,-462.5 1119,-432.5 895,-432.5"/>
<text text-anchor="start" x="902" y="-443.9" font-family="Arial" font-size="14.00" fill="#000000">device_id    </text>
<text text-anchor="start" x="995.331" y="-443.9" font-family="Arial" font-size="14.00" fill="#666666">[VARCHAR]</text>
<polygon fill="none" stroke="#000000" points="895,-402.5 895,-432.5 1119,-432.5 1119,-402.5 895,-402.5"/>
<text text-anchor="start" x="902" y="-413.9" font-family="Arial" font-size="14.00" fill="#000000">name    </text>
<text text-anchor="start" x="971.2132" y="-413.9" font-family="Arial" font-size="14.00" fill="#666666">[TEXT]</text>
<polygon fill="none" stroke="#000000" points="895,-372.5 895,-402.5 1119,-402.5 1119,-372.5 895,-372.5"/>
<text text-anchor="start" x="902" y="-383.9" font-family="Arial" font-size="14.00" fill="#000000">state    </text>
<text text-anchor="start" x="966.5512" y="-383.9" font-family="Arial" font-size="14.00" fill="#666666">[TEXT]</text>
<polygon fill="none" stroke="#000000" points="895,-342.5 895,-372.5 1119,-372.5 1119,-342.5 895,-342.5"/>
<text text-anchor="start" x="902" y="-353.9" font-family="Arial" font-size="14.00" fill="#000000">boundary    </text>
<text text-anchor="start" x="994.561" y="-353.9" font-family="Arial" font-size="14.00" fill="#666666">[TEXT]</text>
<polygon fill="none" stroke="#000000" points="895,-312.5 895,-342.5 1119,-342.5 1119,-312.5 895,-312.5"/>
<text text-anchor="start" x="902" y="-323.9" font-family="Arial" font-size="14.00" fill="#000000">segmentation    </text>
<text text-anchor="start" x="1020.2314" y="-323.9" font-family="Arial" font-size="14.00" fill="#666666">[TEXT]</text>
<polygon fill="none" stroke="#000000" points="895,-282.5 895,-312.5 1119,-312.5 1119,-282.5 895,-282.5"/>
<text text-anchor="start" x="902" y="-293.9" font-family="Arial" font-size="14.00" fill="#000000">state_sysinfo    </text>
<text text-anchor="start" x="1017.8962" y="-293.9" font-family="Arial" font-size="14.00" fill="#666666">[TEXT]</text>
<polygon fill="none" stroke="#000000" points="895,-252.5 895,-282.5 1119,-282.5 1119,-252.5 895,-252.5"/>
<text text-anchor="start" x="902" y="-263.9" font-family="Arial" font-size="14.00" fill="#000000">elaboration    </text>
<text text-anchor="start" x="1005.4474" y="-263.9" font-family="Arial" font-size="14.00" fill="#666666">[TEXT]</text>
<polygon fill="none" stroke="#000000" points="895,-222.5 895,-252.5 1119,-252.5 1119,-222.5 895,-222.5"/>
<text text-anchor="start" x="902" y="-233.9" font-family="Arial" font-size="14.00" fill="#000000">created_at    </text>
<text text-anchor="start" x="1002.3422" y="-233.9" font-family="Arial" font-size="14.00" fill="#666666">[TIMESTAMPTZ]</text>
<polygon fill="none" stroke="#000000" points="895,-192.5 895,-222.5 1119,-222.5 1119,-192.5 895,-192.5"/>
<text text-anchor="start" x="902" y="-203.9" font-family="Arial" font-size="14.00" fill="#000000">created_by    </text>
<text text-anchor="start" x="1005.4516" y="-203.9" font-family="Arial" font-size="14.00" fill="#666666">[TEXT]</text>
<polygon fill="none" stroke="#000000" points="895,-162.5 895,-192.5 1119,-192.5 1119,-162.5 895,-162.5"/>
<text text-anchor="start" x="901.6017" y="-173.9" font-family="Arial" font-size="14.00" fill="#000000">updated_at    </text>
<text text-anchor="start" x="1005.8485" y="-173.9" font-family="Arial" font-size="14.00" fill="#666666">[TIMESTAMPTZ]</text>
<polygon fill="none" stroke="#000000" points="895,-132.5 895,-162.5 1119,-162.5 1119,-132.5 895,-132.5"/>
<text text-anchor="start" x="902" y="-143.9" font-family="Arial" font-size="14.00" fill="#000000">updated_by    </text>
<text text-anchor="start" x="1009.3562" y="-143.9" font-family="Arial" font-size="14.00" fill="#666666">[TEXT]</text>
<polygon fill="none" stroke="#000000" points="895,-102.5 895,-132.5 1119,-132.5 1119,-102.5 895,-102.5"/>
<text text-anchor="start" x="902" y="-113.9" font-family="Arial" font-size="14.00" fill="#000000">deleted_at    </text>
<text text-anchor="start" x="1001.5708" y="-113.9" font-family="Arial" font-size="14.00" fill="#666666">[TIMESTAMPTZ]</text>
<polygon fill="none" stroke="#000000" points="895,-72.5 895,-102.5 1119,-102.5 1119,-72.5 895,-72.5"/>
<text text-anchor="start" x="902" y="-83.9" font-family="Arial" font-size="14.00" fill="#000000">deleted_by    </text>
<text text-anchor="start" x="1004.6802" y="-83.9" font-family="Arial" font-size="14.00" fill="#666666">[TEXT]</text>
<polygon fill="none" stroke="#000000" points="895,-42.5 895,-72.5 1119,-72.5 1119,-42.5 895,-42.5"/>
<text text-anchor="start" x="902" y="-53.9" font-family="Arial" font-size="14.00" fill="#000000">activity_log    </text>
<text text-anchor="start" x="1005.4362" y="-53.9" font-family="Arial" font-size="14.00" fill="#666666">[TEXT]</text>
</g>
<!-- orchestration_session&#45;&gt;device -->
<g id="edge6" class="edge">
<title>orchestration_session:device_id&#45;&gt;device:device_id</title>
<path fill="none" stroke="#000000" d="M984.06,-874.1162C1103.0141,-864.728 1043.6442,-685.271 974,-577 953.1262,-544.5489 915.8738,-573.4511 895,-541 872.5191,-506.0504 853.4444,-447.5 895,-447.5"/>
<polygon fill="#000000" stroke="#000000" points="983.9927,-874.1187 973.8284,-870.0033 978.9964,-874.3094 974,-874.5 974,-874.5 974,-874.5 978.9964,-874.3094 974.1716,-878.9967 983.9927,-874.1187 983.9927,-874.1187"/>
</g>
<!-- orchestration_session_entry -->
<g id="node3" class="node">
<title>orchestration_session_entry</title>
<polygon fill="#efefef" stroke="transparent" points="43,-1376.5 43,-1411.5 361,-1411.5 361,-1376.5 43,-1376.5"/>
<polygon fill="none" stroke="#000000" points="43,-1376.5 43,-1411.5 361,-1411.5 361,-1376.5 43,-1376.5"/>
<text text-anchor="start" x="53.3084" y="-1389.3" font-family="Arial Bold" font-size="18.00" fill="#000000">orchestration_session_entry</text>
<text text-anchor="start" x="278.3606" y="-1389.3" font-family="Arial" font-size="14.00" fill="#000000">    </text>
<text text-anchor="start" x="312.5654" y="-1389.3" font-family="Arial" font-size="14.00" fill="#666666">[table]</text>
<polygon fill="none" stroke="#000000" points="43,-1346.5 43,-1376.5 361,-1376.5 361,-1346.5 43,-1346.5"/>
<text text-anchor="start" x="49.9327" y="-1357.9" font-family="Arial" font-size="14.00" fill="#000000">orchestration_session_entry_id    </text>
<text text-anchor="start" x="277.8499" y="-1357.9" font-family="Arial" font-size="14.00" fill="#666666">[VARCHAR]</text>
<polygon fill="none" stroke="#000000" points="43,-1316.5 43,-1346.5 361,-1346.5 361,-1316.5 43,-1316.5"/>
<text text-anchor="start" x="50" y="-1327.9" font-family="Arial" font-size="14.00" fill="#000000">session_id    </text>
<text text-anchor="start" x="150.331" y="-1327.9" font-family="Arial" font-size="14.00" fill="#666666">[VARCHAR]</text>
<polygon fill="none" stroke="#000000" points="43,-1286.5 43,-1316.5 361,-1316.5 361,-1286.5 43,-1286.5"/>
<text text-anchor="start" x="50" y="-1297.9" font-family="Arial" font-size="14.00" fill="#000000">ingest_src    </text>
<text text-anchor="start" x="147.993" y="-1297.9" font-family="Arial" font-size="14.00" fill="#666666">[TEXT]</text>
<polygon fill="none" stroke="#000000" points="43,-1256.5 43,-1286.5 361,-1286.5 361,-1256.5 43,-1256.5"/>
<text text-anchor="start" x="50" y="-1267.9" font-family="Arial" font-size="14.00" fill="#000000">ingest_table_name    </text>
<text text-anchor="start" x="202.4684" y="-1267.9" font-family="Arial" font-size="14.00" fill="#666666">[TEXT]</text>
<polygon fill="none" stroke="#000000" points="43,-1226.5 43,-1256.5 361,-1256.5 361,-1226.5 43,-1226.5"/>
<text text-anchor="start" x="50" y="-1237.9" font-family="Arial" font-size="14.00" fill="#000000">elaboration    </text>
<text text-anchor="start" x="153.4474" y="-1237.9" font-family="Arial" font-size="14.00" fill="#666666">[TEXT]</text>
</g>
<!-- orchestration_session_entry&#45;&gt;orchestration_session -->
<g id="edge2" class="edge">
<title>orchestration_session_entry:session_id&#45;&gt;orchestration_session:orchestration_session_id</title>
<path fill="none" stroke="#000000" d="M370.9415,-1329.3789C422.2694,-1305.3466 374.269,-1084.2488 413,-1034 497.1961,-924.7658 557.083,-904.5 695,-904.5"/>
<polygon fill="#000000" stroke="#000000" points="370.7799,-1329.4133 360.061,-1327.0991 365.8899,-1330.4567 361,-1331.5 361,-1331.5 361,-1331.5 365.8899,-1330.4567 361.939,-1335.9009 370.7799,-1329.4133 370.7799,-1329.4133"/>
</g>
<!-- orchestration_session_state -->
<g id="node4" class="node">
<title>orchestration_session_state</title>
<polygon fill="#efefef" stroke="transparent" points="466,-1436.5 466,-1471.5 783,-1471.5 783,-1436.5 466,-1436.5"/>
<polygon fill="none" stroke="#000000" points="466,-1436.5 466,-1471.5 783,-1471.5 783,-1436.5 466,-1436.5"/>
<text text-anchor="start" x="476.3034" y="-1449.3" font-family="Arial Bold" font-size="18.00" fill="#000000">orchestration_session_state</text>
<text text-anchor="start" x="700.3656" y="-1449.3" font-family="Arial" font-size="14.00" fill="#000000">    </text>
<text text-anchor="start" x="734.5704" y="-1449.3" font-family="Arial" font-size="14.00" fill="#666666">[table]</text>
<polygon fill="none" stroke="#000000" points="466,-1406.5 466,-1436.5 783,-1436.5 783,-1406.5 466,-1406.5"/>
<text text-anchor="start" x="472.8177" y="-1417.9" font-family="Arial" font-size="14.00" fill="#000000">orchestration_session_state_id    </text>
<text text-anchor="start" x="699.9649" y="-1417.9" font-family="Arial" font-size="14.00" fill="#666666">[VARCHAR]</text>
<polygon fill="none" stroke="#000000" points="466,-1376.5 466,-1406.5 783,-1406.5 783,-1376.5 466,-1376.5"/>
<text text-anchor="start" x="473" y="-1387.9" font-family="Arial" font-size="14.00" fill="#000000">session_id    </text>
<text text-anchor="start" x="573.331" y="-1387.9" font-family="Arial" font-size="14.00" fill="#666666">[VARCHAR]</text>
<polygon fill="none" stroke="#000000" points="466,-1346.5 466,-1376.5 783,-1376.5 783,-1346.5 466,-1346.5"/>
<text text-anchor="start" x="473" y="-1357.9" font-family="Arial" font-size="14.00" fill="#000000">session_entry_id    </text>
<text text-anchor="start" x="612.23" y="-1357.9" font-family="Arial" font-size="14.00" fill="#666666">[VARCHAR]</text>
<polygon fill="none" stroke="#000000" points="466,-1316.5 466,-1346.5 783,-1346.5 783,-1316.5 466,-1316.5"/>
<text text-anchor="start" x="473" y="-1327.9" font-family="Arial" font-size="14.00" fill="#000000">from_state    </text>
<text text-anchor="start" x="573.3282" y="-1327.9" font-family="Arial" font-size="14.00" fill="#666666">[TEXT]</text>
<polygon fill="none" stroke="#000000" points="466,-1286.5 466,-1316.5 783,-1316.5 783,-1286.5 466,-1286.5"/>
<text text-anchor="start" x="473" y="-1297.9" font-family="Arial" font-size="14.00" fill="#000000">to_state    </text>
<text text-anchor="start" x="557.007" y="-1297.9" font-family="Arial" font-size="14.00" fill="#666666">[TEXT]</text>
<polygon fill="none" stroke="#000000" points="466,-1256.5 466,-1286.5 783,-1286.5 783,-1256.5 466,-1256.5"/>
<text text-anchor="start" x="473" y="-1267.9" font-family="Arial" font-size="14.00" fill="#000000">transition_result    </text>
<text text-anchor="start" x="605.9958" y="-1267.9" font-family="Arial" font-size="14.00" fill="#666666">[TEXT]</text>
<polygon fill="none" stroke="#000000" points="466,-1226.5 466,-1256.5 783,-1256.5 783,-1226.5 466,-1226.5"/>
<text text-anchor="start" x="473" y="-1237.9" font-family="Arial" font-size="14.00" fill="#000000">transition_reason    </text>
<text text-anchor="start" x="614.5638" y="-1237.9" font-family="Arial" font-size="14.00" fill="#666666">[TEXT]</text>
<polygon fill="none" stroke="#000000" points="466,-1196.5 466,-1226.5 783,-1226.5 783,-1196.5 466,-1196.5"/>
<text text-anchor="start" x="473" y="-1207.9" font-family="Arial" font-size="14.00" fill="#000000">transitioned_at    </text>
<text text-anchor="start" x="599.0112" y="-1207.9" font-family="Arial" font-size="14.00" fill="#666666">[TIMESTAMPTZ]</text>
<polygon fill="none" stroke="#000000" points="466,-1166.5 466,-1196.5 783,-1196.5 783,-1166.5 466,-1166.5"/>
<text text-anchor="start" x="473" y="-1177.9" font-family="Arial" font-size="14.00" fill="#000000">elaboration    </text>
<text text-anchor="start" x="576.4474" y="-1177.9" font-family="Arial" font-size="14.00" fill="#666666">[TEXT]</text>
</g>
<!-- orchestration_session_state&#45;&gt;orchestration_session -->
<g id="edge3" class="edge">
<title>orchestration_session_state:session_id&#45;&gt;orchestration_session:orchestration_session_id</title>
<path fill="none" stroke="#000000" d="M792.9922,-1389.1188C837.3368,-1365.7524 799.726,-1177.1599 783,-1124 762.4993,-1058.8433 715.5007,-1063.1567 695,-998 682.5279,-958.3602 653.4444,-904.5 695,-904.5"/>
<polygon fill="#000000" stroke="#000000" points="792.7276,-1389.1818 781.9568,-1387.1226 787.8638,-1390.3409 783,-1391.5 783,-1391.5 783,-1391.5 787.8638,-1390.3409 784.0432,-1395.8774 792.7276,-1389.1818 792.7276,-1389.1818"/>
</g>
<!-- orchestration_session_exec -->
<g id="node5" class="node">
<title>orchestration_session_exec</title>
<polygon fill="#efefef" stroke="transparent" points="887,-1526.5 887,-1561.5 1203,-1561.5 1203,-1526.5 887,-1526.5"/>
<polygon fill="none" stroke="#000000" points="887,-1526.5 887,-1561.5 1203,-1561.5 1203,-1526.5 887,-1526.5"/>
<text text-anchor="start" x="897.3056" y="-1539.3" font-family="Arial Bold" font-size="18.00" fill="#000000">orchestration_session_exec</text>
<text text-anchor="start" x="1120.3634" y="-1539.3" font-family="Arial" font-size="14.00" fill="#000000">    </text>
<text text-anchor="start" x="1154.5682" y="-1539.3" font-family="Arial" font-size="14.00" fill="#666666">[table]</text>
<polygon fill="none" stroke="#000000" points="887,-1496.5 887,-1526.5 1203,-1526.5 1203,-1496.5 887,-1496.5"/>
<text text-anchor="start" x="893.7083" y="-1507.9" font-family="Arial" font-size="14.00" fill="#000000">orchestration_session_exec_id    </text>
<text text-anchor="start" x="1120.0743" y="-1507.9" font-family="Arial" font-size="14.00" fill="#666666">[VARCHAR]</text>
<polygon fill="none" stroke="#000000" points="887,-1466.5 887,-1496.5 1203,-1496.5 1203,-1466.5 887,-1466.5"/>
<text text-anchor="start" x="894" y="-1477.9" font-family="Arial" font-size="14.00" fill="#000000">exec_nature    </text>
<text text-anchor="start" x="1005.2342" y="-1477.9" font-family="Arial" font-size="14.00" fill="#666666">[TEXT]</text>
<polygon fill="none" stroke="#000000" points="887,-1436.5 887,-1466.5 1203,-1466.5 1203,-1436.5 887,-1436.5"/>
<text text-anchor="start" x="894" y="-1447.9" font-family="Arial" font-size="14.00" fill="#000000">session_id    </text>
<text text-anchor="start" x="994.331" y="-1447.9" font-family="Arial" font-size="14.00" fill="#666666">[VARCHAR]</text>
<polygon fill="none" stroke="#000000" points="887,-1406.5 887,-1436.5 1203,-1436.5 1203,-1406.5 887,-1406.5"/>
<text text-anchor="start" x="894" y="-1417.9" font-family="Arial" font-size="14.00" fill="#000000">session_entry_id    </text>
<text text-anchor="start" x="1033.23" y="-1417.9" font-family="Arial" font-size="14.00" fill="#666666">[VARCHAR]</text>
<polygon fill="none" stroke="#000000" points="887,-1376.5 887,-1406.5 1203,-1406.5 1203,-1376.5 887,-1376.5"/>
<text text-anchor="start" x="894" y="-1387.9" font-family="Arial" font-size="14.00" fill="#000000">parent_exec_id    </text>
<text text-anchor="start" x="1023.906" y="-1387.9" font-family="Arial" font-size="14.00" fill="#666666">[VARCHAR]</text>
<polygon fill="none" stroke="#000000" points="887,-1346.5 887,-1376.5 1203,-1376.5 1203,-1346.5 887,-1346.5"/>
<text text-anchor="start" x="894" y="-1357.9" font-family="Arial" font-size="14.00" fill="#000000">namespace    </text>
<text text-anchor="start" x="1000.561" y="-1357.9" font-family="Arial" font-size="14.00" fill="#666666">[TEXT]</text>
<polygon fill="none" stroke="#000000" points="887,-1316.5 887,-1346.5 1203,-1346.5 1203,-1316.5 887,-1316.5"/>
<text text-anchor="start" x="894" y="-1327.9" font-family="Arial" font-size="14.00" fill="#000000">exec_identity    </text>
<text text-anchor="start" x="1009.8948" y="-1327.9" font-family="Arial" font-size="14.00" fill="#666666">[TEXT]</text>
<polygon fill="none" stroke="#000000" points="887,-1286.5 887,-1316.5 1203,-1316.5 1203,-1286.5 887,-1286.5"/>
<text text-anchor="start" x="894" y="-1297.9" font-family="Arial" font-size="14.00" fill="#000000">exec_code    </text>
<text text-anchor="start" x="995.9004" y="-1297.9" font-family="Arial" font-size="14.00" fill="#666666">[TEXT]</text>
<polygon fill="none" stroke="#000000" points="887,-1256.5 887,-1286.5 1203,-1286.5 1203,-1256.5 887,-1256.5"/>
<text text-anchor="start" x="894" y="-1267.9" font-family="Arial" font-size="14.00" fill="#000000">exec_status    </text>
<text text-anchor="start" x="1002.899" y="-1267.9" font-family="Arial" font-size="14.00" fill="#666666">[INTEGER]</text>
<polygon fill="none" stroke="#000000" points="887,-1226.5 887,-1256.5 1203,-1256.5 1203,-1226.5 887,-1226.5"/>
<text text-anchor="start" x="894" y="-1237.9" font-family="Arial" font-size="14.00" fill="#000000">input_text    </text>
<text text-anchor="start" x="988.8962" y="-1237.9" font-family="Arial" font-size="14.00" fill="#666666">[TEXT]</text>
<polygon fill="none" stroke="#000000" points="887,-1196.5 887,-1226.5 1203,-1226.5 1203,-1196.5 887,-1196.5"/>
<text text-anchor="start" x="894" y="-1207.9" font-family="Arial" font-size="14.00" fill="#000000">exec_error_text    </text>
<text text-anchor="start" x="1025.446" y="-1207.9" font-family="Arial" font-size="14.00" fill="#666666">[TEXT]</text>
<polygon fill="none" stroke="#000000" points="887,-1166.5 887,-1196.5 1203,-1196.5 1203,-1166.5 887,-1166.5"/>
<text text-anchor="start" x="894" y="-1177.9" font-family="Arial" font-size="14.00" fill="#000000">output_text    </text>
<text text-anchor="start" x="997.4628" y="-1177.9" font-family="Arial" font-size="14.00" fill="#666666">[TEXT]</text>
<polygon fill="none" stroke="#000000" points="887,-1136.5 887,-1166.5 1203,-1166.5 1203,-1136.5 887,-1136.5"/>
<text text-anchor="start" x="894" y="-1147.9" font-family="Arial" font-size="14.00" fill="#000000">output_nature    </text>
<text text-anchor="start" x="1014.5806" y="-1147.9" font-family="Arial" font-size="14.00" fill="#666666">[TEXT]</text>
<polygon fill="none" stroke="#000000" points="887,-1106.5 887,-1136.5 1203,-1136.5 1203,-1106.5 887,-1106.5"/>
<text text-anchor="start" x="894" y="-1117.9" font-family="Arial" font-size="14.00" fill="#000000">narrative_md    </text>
<text text-anchor="start" x="1009.8794" y="-1117.9" font-family="Arial" font-size="14.00" fill="#666666">[TEXT]</text>
<polygon fill="none" stroke="#000000" points="887,-1076.5 887,-1106.5 1203,-1106.5 1203,-1076.5 887,-1076.5"/>
<text text-anchor="start" x="894" y="-1087.9" font-family="Arial" font-size="14.00" fill="#000000">elaboration    </text>
<text text-anchor="start" x="997.4474" y="-1087.9" font-family="Arial" font-size="14.00" fill="#666666">[TEXT]</text>
</g>
<!-- orchestration_session_exec&#45;&gt;orchestration_session -->
<g id="edge4" class="edge">
<title>orchestration_session_exec:session_id&#45;&gt;orchestration_session:orchestration_session_id</title>
<path fill="none" stroke="#000000" d="M878.187,-1446.1299C843.5349,-1399.8952 863.0334,-1069.8546 887,-1034 910.2548,-999.2103 950.7452,-1032.7897 974,-998 997.0932,-963.452 1015.5556,-904.5 974,-904.5"/>
<polygon fill="#000000" stroke="#000000" points="878.4605,-1446.2964 884.6584,-1455.3428 882.7302,-1448.8982 887,-1451.5 887,-1451.5 887,-1451.5 882.7302,-1448.8982 889.3416,-1447.6572 878.4605,-1446.2964 878.4605,-1446.2964"/>
</g>
<!-- orchestration_session_issue -->
<g id="node6" class="node">
<title>orchestration_session_issue</title>
<polygon fill="#efefef" stroke="transparent" points="1308,-1451.5 1308,-1486.5 1621,-1486.5 1621,-1451.5 1308,-1451.5"/>
<polygon fill="none" stroke="#000000" points="1308,-1451.5 1308,-1486.5 1621,-1486.5 1621,-1451.5 1308,-1451.5"/>
<text text-anchor="start" x="1314.8085" y="-1464.3" font-family="Arial Bold" font-size="18.00" fill="#000000">orchestration_session_issue</text>
<text text-anchor="start" x="1541.8605" y="-1464.3" font-family="Arial" font-size="14.00" fill="#000000">    </text>
<text text-anchor="start" x="1576.0653" y="-1464.3" font-family="Arial" font-size="14.00" fill="#666666">[table]</text>
<polygon fill="none" stroke="#000000" points="1308,-1421.5 1308,-1451.5 1621,-1451.5 1621,-1421.5 1308,-1421.5"/>
<text text-anchor="start" x="1315" y="-1432.9" font-family="Arial" font-size="14.00" fill="#000000">orchestration_session_issue_id    </text>
<text text-anchor="start" x="1544.4726" y="-1432.9" font-family="Arial" font-size="14.00" fill="#666666">[UUID]</text>
<polygon fill="none" stroke="#000000" points="1308,-1391.5 1308,-1421.5 1621,-1421.5 1621,-1391.5 1308,-1391.5"/>
<text text-anchor="start" x="1315" y="-1402.9" font-family="Arial" font-size="14.00" fill="#000000">session_id    </text>
<text text-anchor="start" x="1415.331" y="-1402.9" font-family="Arial" font-size="14.00" fill="#666666">[VARCHAR]</text>
<polygon fill="none" stroke="#000000" points="1308,-1361.5 1308,-1391.5 1621,-1391.5 1621,-1361.5 1308,-1361.5"/>
<text text-anchor="start" x="1315" y="-1372.9" font-family="Arial" font-size="14.00" fill="#000000">session_entry_id    </text>
<text text-anchor="start" x="1454.23" y="-1372.9" font-family="Arial" font-size="14.00" fill="#666666">[VARCHAR]</text>
<polygon fill="none" stroke="#000000" points="1308,-1331.5 1308,-1361.5 1621,-1361.5 1621,-1331.5 1308,-1331.5"/>
<text text-anchor="start" x="1315" y="-1342.9" font-family="Arial" font-size="14.00" fill="#000000">issue_type    </text>
<text text-anchor="start" x="1416.115" y="-1342.9" font-family="Arial" font-size="14.00" fill="#666666">[TEXT]</text>
<polygon fill="none" stroke="#000000" points="1308,-1301.5 1308,-1331.5 1621,-1331.5 1621,-1301.5 1308,-1301.5"/>
<text text-anchor="start" x="1315" y="-1312.9" font-family="Arial" font-size="14.00" fill="#000000">issue_message    </text>
<text text-anchor="start" x="1446.4502" y="-1312.9" font-family="Arial" font-size="14.00" fill="#666666">[TEXT]</text>
<polygon fill="none" stroke="#000000" points="1308,-1271.5 1308,-1301.5 1621,-1301.5 1621,-1271.5 1308,-1271.5"/>
<text text-anchor="start" x="1315" y="-1282.9" font-family="Arial" font-size="14.00" fill="#000000">issue_row    </text>
<text text-anchor="start" x="1412.209" y="-1282.9" font-family="Arial" font-size="14.00" fill="#666666">[INTEGER]</text>
<polygon fill="none" stroke="#000000" points="1308,-1241.5 1308,-1271.5 1621,-1271.5 1621,-1241.5 1308,-1241.5"/>
<text text-anchor="start" x="1315" y="-1252.9" font-family="Arial" font-size="14.00" fill="#000000">issue_column    </text>
<text text-anchor="start" x="1434.7742" y="-1252.9" font-family="Arial" font-size="14.00" fill="#666666">[TEXT]</text>
<polygon fill="none" stroke="#000000" points="1308,-1211.5 1308,-1241.5 1621,-1241.5 1621,-1211.5 1308,-1211.5"/>
<text text-anchor="start" x="1315" y="-1222.9" font-family="Arial" font-size="14.00" fill="#000000">invalid_value    </text>
<text text-anchor="start" x="1430.1094" y="-1222.9" font-family="Arial" font-size="14.00" fill="#666666">[TEXT]</text>
<polygon fill="none" stroke="#000000" points="1308,-1181.5 1308,-1211.5 1621,-1211.5 1621,-1181.5 1308,-1181.5"/>
<text text-anchor="start" x="1315" y="-1192.9" font-family="Arial" font-size="14.00" fill="#000000">remediation    </text>
<text text-anchor="start" x="1422.3254" y="-1192.9" font-family="Arial" font-size="14.00" fill="#666666">[TEXT]</text>
<polygon fill="none" stroke="#000000" points="1308,-1151.5 1308,-1181.5 1621,-1181.5 1621,-1151.5 1308,-1151.5"/>
<text text-anchor="start" x="1315" y="-1162.9" font-family="Arial" font-size="14.00" fill="#000000">elaboration    </text>
<text text-anchor="start" x="1418.4474" y="-1162.9" font-family="Arial" font-size="14.00" fill="#666666">[TEXT]</text>
</g>
<!-- orchestration_session_issue&#45;&gt;orchestration_session -->
<g id="edge5" class="edge">
<title>orchestration_session_issue:session_id&#45;&gt;orchestration_session:orchestration_session_id</title>
<path fill="none" stroke="#000000" d="M1298.1079,-1404.8513C1231.0702,-1380.6911 1302.796,-1098.1759 1255,-1034 1172.862,-923.713 1111.5132,-904.5 974,-904.5"/>
<polygon fill="#000000" stroke="#000000" points="1298.1361,-1404.8559 1307.2602,-1410.9388 1303.068,-1405.678 1308,-1406.5 1308,-1406.5 1308,-1406.5 1303.068,-1405.678 1308.7398,-1402.0612 1298.1361,-1404.8559 1298.1361,-1404.8559"/>
</g>
</g>
</svg>
