<?xml version="1.0" encoding="UTF-8" standalone="no"?>
<!DOCTYPE svg PUBLIC "-//W3C//DTD SVG 1.1//EN"
 "http://www.w3.org/Graphics/SVG/1.1/DTD/svg11.dtd">
<!-- Generated by graphviz version 2.40.1 (20161225.0304)
 -->
<!-- Title: organization_role Pages: 1 -->
<svg width="1774pt" height="1313pt"
 viewBox="0.00 0.00 1773.50 1313.00" xmlns="http://www.w3.org/2000/svg" xmlns:xlink="http://www.w3.org/1999/xlink">
<g id="graph0" class="graph" transform="scale(1 1) rotate(0) translate(4 1309)">
<title>organization_role</title>
<polygon fill="#ffffff" stroke="transparent" points="-4,4 -4,-1309 1769.5,-1309 1769.5,4 -4,4"/>
<!-- organization_role -->
<g id="node1" class="node">
<title>organization_role</title>
<polygon fill="#efefef" stroke="transparent" points="1476.5,-1181.5 1476.5,-1216.5 1700.5,-1216.5 1700.5,-1181.5 1476.5,-1181.5"/>
<polygon fill="none" stroke="#000000" points="1476.5,-1181.5 1476.5,-1216.5 1700.5,-1216.5 1700.5,-1181.5 1476.5,-1181.5"/>
<text text-anchor="start" x="1483.3189" y="-1194.3" font-family="Arial Bold" font-size="18.00" fill="#000000">organization_role</text>
<text text-anchor="start" x="1621.3501" y="-1194.3" font-family="Arial" font-size="14.00" fill="#000000">    </text>
<text text-anchor="start" x="1655.5549" y="-1194.3" font-family="Arial" font-size="14.00" fill="#666666">[table]</text>
<polygon fill="none" stroke="#000000" points="1476.5,-1151.5 1476.5,-1181.5 1700.5,-1181.5 1700.5,-1151.5 1476.5,-1151.5"/>
<text text-anchor="start" x="1483.5" y="-1162.9" font-family="Arial" font-size="14.00" fill="#000000">organization_role_id </text>
<text text-anchor="start" x="1613.42" y="-1162.9" font-family="Arial" font-size="14.00" fill="#666666">[VARCHAR]</text>
<polygon fill="none" stroke="#000000" points="1476.5,-1121.5 1476.5,-1151.5 1700.5,-1151.5 1700.5,-1121.5 1476.5,-1121.5"/>
<text text-anchor="start" x="1483.5" y="-1132.9" font-family="Arial" font-size="14.00" fill="#000000">person_id </text>
<text text-anchor="start" x="1548.8534" y="-1132.9" font-family="Arial" font-size="14.00" fill="#666666">[VARCHAR]</text>
<polygon fill="none" stroke="#000000" points="1476.5,-1091.5 1476.5,-1121.5 1700.5,-1121.5 1700.5,-1091.5 1476.5,-1091.5"/>
<text text-anchor="start" x="1483.5" y="-1102.9" font-family="Arial" font-size="14.00" fill="#000000">organization_id </text>
<text text-anchor="start" x="1582.305" y="-1102.9" font-family="Arial" font-size="14.00" fill="#666666">[VARCHAR]</text>
<polygon fill="none" stroke="#000000" points="1476.5,-1061.5 1476.5,-1091.5 1700.5,-1091.5 1700.5,-1061.5 1476.5,-1061.5"/>
<text text-anchor="start" x="1483.5" y="-1072.9" font-family="Arial" font-size="14.00" fill="#000000">organization_role_type_id </text>
<text text-anchor="start" x="1647.6584" y="-1072.9" font-family="Arial" font-size="14.00" fill="#666666">[TEXT]</text>
<polygon fill="none" stroke="#000000" points="1476.5,-1031.5 1476.5,-1061.5 1700.5,-1061.5 1700.5,-1031.5 1476.5,-1031.5"/>
<text text-anchor="start" x="1483.5" y="-1042.9" font-family="Arial" font-size="14.00" fill="#000000">elaboration </text>
<text text-anchor="start" x="1556.6332" y="-1042.9" font-family="Arial" font-size="14.00" fill="#666666">[TEXT]</text>
<polygon fill="none" stroke="#000000" points="1476.5,-1001.5 1476.5,-1031.5 1700.5,-1031.5 1700.5,-1001.5 1476.5,-1001.5"/>
<text text-anchor="start" x="1483.5" y="-1012.9" font-family="Arial" font-size="14.00" fill="#000000">created_at </text>
<text text-anchor="start" x="1553.528" y="-1012.9" font-family="Arial" font-size="14.00" fill="#666666">[TIMESTAMPTZ]</text>
<polygon fill="none" stroke="#000000" points="1476.5,-971.5 1476.5,-1001.5 1700.5,-1001.5 1700.5,-971.5 1476.5,-971.5"/>
<text text-anchor="start" x="1483.5" y="-982.9" font-family="Arial" font-size="14.00" fill="#000000">created_by </text>
<text text-anchor="start" x="1556.6374" y="-982.9" font-family="Arial" font-size="14.00" fill="#666666">[TEXT]</text>
<polygon fill="none" stroke="#000000" points="1476.5,-941.5 1476.5,-971.5 1700.5,-971.5 1700.5,-941.5 1476.5,-941.5"/>
<text text-anchor="start" x="1483.5" y="-952.9" font-family="Arial" font-size="14.00" fill="#000000">updated_at </text>
<text text-anchor="start" x="1557.4326" y="-952.9" font-family="Arial" font-size="14.00" fill="#666666">[TIMESTAMPTZ]</text>
<polygon fill="none" stroke="#000000" points="1476.5,-911.5 1476.5,-941.5 1700.5,-941.5 1700.5,-911.5 1476.5,-911.5"/>
<text text-anchor="start" x="1483.5" y="-922.9" font-family="Arial" font-size="14.00" fill="#000000">updated_by </text>
<text text-anchor="start" x="1560.542" y="-922.9" font-family="Arial" font-size="14.00" fill="#666666">[TEXT]</text>
<polygon fill="none" stroke="#000000" points="1476.5,-881.5 1476.5,-911.5 1700.5,-911.5 1700.5,-881.5 1476.5,-881.5"/>
<text text-anchor="start" x="1483.5" y="-892.9" font-family="Arial" font-size="14.00" fill="#000000">deleted_at </text>
<text text-anchor="start" x="1552.7566" y="-892.9" font-family="Arial" font-size="14.00" fill="#666666">[TIMESTAMPTZ]</text>
<polygon fill="none" stroke="#000000" points="1476.5,-851.5 1476.5,-881.5 1700.5,-881.5 1700.5,-851.5 1476.5,-851.5"/>
<text text-anchor="start" x="1483.5" y="-862.9" font-family="Arial" font-size="14.00" fill="#000000">deleted_by </text>
<text text-anchor="start" x="1555.866" y="-862.9" font-family="Arial" font-size="14.00" fill="#666666">[TEXT]</text>
<polygon fill="none" stroke="#000000" points="1476.5,-821.5 1476.5,-851.5 1700.5,-851.5 1700.5,-821.5 1476.5,-821.5"/>
<text text-anchor="start" x="1483.5" y="-832.9" font-family="Arial" font-size="14.00" fill="#000000">activity_log </text>
<text text-anchor="start" x="1556.622" y="-832.9" font-family="Arial" font-size="14.00" fill="#666666">[TEXT]</text>
<polygon fill="none" stroke="#000000" stroke-width="3" points="1475,-820.5 1475,-1218.5 1702,-1218.5 1702,-820.5 1475,-820.5"/>
</g>
<!-- party -->
<g id="node2" class="node">
<title>party</title>
<polygon fill="#efefef" stroke="transparent" points="723.5,-619.5 723.5,-654.5 947.5,-654.5 947.5,-619.5 723.5,-619.5"/>
<polygon fill="none" stroke="#000000" points="723.5,-619.5 723.5,-654.5 947.5,-654.5 947.5,-619.5 723.5,-619.5"/>
<text text-anchor="start" x="779.3311" y="-632.3" font-family="Arial Bold" font-size="18.00" fill="#000000">party</text>
<text text-anchor="start" x="819.3379" y="-632.3" font-family="Arial" font-size="14.00" fill="#000000">    </text>
<text text-anchor="start" x="853.5427" y="-632.3" font-family="Arial" font-size="14.00" fill="#666666">[table]</text>
<polygon fill="none" stroke="#000000" points="723.5,-589.5 723.5,-619.5 947.5,-619.5 947.5,-589.5 723.5,-589.5"/>
<text text-anchor="start" x="730.5" y="-600.9" font-family="Arial" font-size="14.00" fill="#000000">party_id    </text>
<text text-anchor="start" x="814.493" y="-600.9" font-family="Arial" font-size="14.00" fill="#666666">[VARCHAR]</text>
<polygon fill="none" stroke="#000000" points="723.5,-559.5 723.5,-589.5 947.5,-589.5 947.5,-559.5 723.5,-559.5"/>
<text text-anchor="start" x="730.5" y="-570.9" font-family="Arial" font-size="14.00" fill="#000000">party_type_id    </text>
<text text-anchor="start" x="848.7314" y="-570.9" font-family="Arial" font-size="14.00" fill="#666666">[TEXT]</text>
<polygon fill="none" stroke="#000000" points="723.5,-529.5 723.5,-559.5 947.5,-559.5 947.5,-529.5 723.5,-529.5"/>
<text text-anchor="start" x="730.5" y="-540.9" font-family="Arial" font-size="14.00" fill="#000000">party_name    </text>
<text text-anchor="start" x="838.6122" y="-540.9" font-family="Arial" font-size="14.00" fill="#666666">[TEXT]</text>
<polygon fill="none" stroke="#000000" points="723.5,-499.5 723.5,-529.5 947.5,-529.5 947.5,-499.5 723.5,-499.5"/>
<text text-anchor="start" x="730.5" y="-510.9" font-family="Arial" font-size="14.00" fill="#000000">elaboration    </text>
<text text-anchor="start" x="833.9474" y="-510.9" font-family="Arial" font-size="14.00" fill="#666666">[TEXT]</text>
<polygon fill="none" stroke="#000000" points="723.5,-469.5 723.5,-499.5 947.5,-499.5 947.5,-469.5 723.5,-469.5"/>
<text text-anchor="start" x="730.5" y="-480.9" font-family="Arial" font-size="14.00" fill="#000000">created_at    </text>
<text text-anchor="start" x="830.8422" y="-480.9" font-family="Arial" font-size="14.00" fill="#666666">[TIMESTAMPTZ]</text>
<polygon fill="none" stroke="#000000" points="723.5,-439.5 723.5,-469.5 947.5,-469.5 947.5,-439.5 723.5,-439.5"/>
<text text-anchor="start" x="730.5" y="-450.9" font-family="Arial" font-size="14.00" fill="#000000">created_by    </text>
<text text-anchor="start" x="833.9516" y="-450.9" font-family="Arial" font-size="14.00" fill="#666666">[TEXT]</text>
<polygon fill="none" stroke="#000000" points="723.5,-409.5 723.5,-439.5 947.5,-439.5 947.5,-409.5 723.5,-409.5"/>
<text text-anchor="start" x="730.1017" y="-420.9" font-family="Arial" font-size="14.00" fill="#000000">updated_at    </text>
<text text-anchor="start" x="834.3485" y="-420.9" font-family="Arial" font-size="14.00" fill="#666666">[TIMESTAMPTZ]</text>
<polygon fill="none" stroke="#000000" points="723.5,-379.5 723.5,-409.5 947.5,-409.5 947.5,-379.5 723.5,-379.5"/>
<text text-anchor="start" x="730.5" y="-390.9" font-family="Arial" font-size="14.00" fill="#000000">updated_by    </text>
<text text-anchor="start" x="837.8562" y="-390.9" font-family="Arial" font-size="14.00" fill="#666666">[TEXT]</text>
<polygon fill="none" stroke="#000000" points="723.5,-349.5 723.5,-379.5 947.5,-379.5 947.5,-349.5 723.5,-349.5"/>
<text text-anchor="start" x="730.5" y="-360.9" font-family="Arial" font-size="14.00" fill="#000000">deleted_at    </text>
<text text-anchor="start" x="830.0708" y="-360.9" font-family="Arial" font-size="14.00" fill="#666666">[TIMESTAMPTZ]</text>
<polygon fill="none" stroke="#000000" points="723.5,-319.5 723.5,-349.5 947.5,-349.5 947.5,-319.5 723.5,-319.5"/>
<text text-anchor="start" x="730.5" y="-330.9" font-family="Arial" font-size="14.00" fill="#000000">deleted_by    </text>
<text text-anchor="start" x="833.1802" y="-330.9" font-family="Arial" font-size="14.00" fill="#666666">[TEXT]</text>
<polygon fill="none" stroke="#000000" points="723.5,-289.5 723.5,-319.5 947.5,-319.5 947.5,-289.5 723.5,-289.5"/>
<text text-anchor="start" x="730.5" y="-300.9" font-family="Arial" font-size="14.00" fill="#000000">activity_log    </text>
<text text-anchor="start" x="833.9362" y="-300.9" font-family="Arial" font-size="14.00" fill="#666666">[TEXT]</text>
</g>
<!-- organization_role&#45;&gt;party -->
<g id="edge1" class="edge">
<title>organization_role:person_id&#45;&gt;party:party_id</title>
<path fill="none" stroke="#000000" d="M1466.3025,-1134.8527C1393.7412,-1109.4989 1478.5817,-799.0888 1421.5,-734 1349.5033,-651.904 1056.6937,-604.5 947.5,-604.5"/>
<polygon fill="#000000" stroke="#000000" points="1466.628,-1134.9052 1475.7823,-1140.9424 1471.564,-1135.7026 1476.5,-1136.5 1476.5,-1136.5 1476.5,-1136.5 1471.564,-1135.7026 1477.2177,-1132.0576 1466.628,-1134.9052 1466.628,-1134.9052"/>
</g>
<!-- organization_role&#45;&gt;party -->
<g id="edge6" class="edge">
<title>organization_role:organization_id&#45;&gt;party:party_id</title>
<path fill="none" stroke="#000000" d="M1466.6191,-1104.8277C1399.8015,-1080.3255 1474.6244,-793.9214 1421.5,-734 1349.0616,-652.2935 1056.6937,-604.5 947.5,-604.5"/>
<polygon fill="#000000" stroke="#000000" points="1466.6402,-1104.8312 1475.7491,-1110.9369 1471.5701,-1105.6656 1476.5,-1106.5 1476.5,-1106.5 1476.5,-1106.5 1471.5701,-1105.6656 1477.2509,-1102.0631 1466.6402,-1104.8312 1466.6402,-1104.8312"/>
</g>
<!-- organization_role_type -->
<g id="node8" class="node">
<title>organization_role_type</title>
<polygon fill="#efefef" stroke="transparent" points="1454.5,-499.5 1454.5,-534.5 1722.5,-534.5 1722.5,-499.5 1454.5,-499.5"/>
<polygon fill="none" stroke="#000000" points="1454.5,-499.5 1454.5,-534.5 1722.5,-534.5 1722.5,-499.5 1454.5,-499.5"/>
<text text-anchor="start" x="1461.3085" y="-512.3" font-family="Arial Bold" font-size="18.00" fill="#000000">organization_role_type</text>
<text text-anchor="start" x="1643.3605" y="-512.3" font-family="Arial" font-size="14.00" fill="#000000">    </text>
<text text-anchor="start" x="1677.5653" y="-512.3" font-family="Arial" font-size="14.00" fill="#666666">[table]</text>
<polygon fill="none" stroke="#000000" points="1454.5,-469.5 1454.5,-499.5 1722.5,-499.5 1722.5,-469.5 1454.5,-469.5"/>
<text text-anchor="start" x="1461.5" y="-480.9" font-family="Arial" font-size="14.00" fill="#000000">code    </text>
<text text-anchor="start" x="1526.0526" y="-480.9" font-family="Arial" font-size="14.00" fill="#666666">[TEXT]</text>
<polygon fill="none" stroke="#000000" points="1454.5,-439.5 1454.5,-469.5 1722.5,-469.5 1722.5,-439.5 1454.5,-439.5"/>
<text text-anchor="start" x="1461.5" y="-450.9" font-family="Arial" font-size="14.00" fill="#000000">value    </text>
<text text-anchor="start" x="1529.1592" y="-450.9" font-family="Arial" font-size="14.00" fill="#666666">[TEXT]</text>
<polygon fill="none" stroke="#000000" points="1454.5,-409.5 1454.5,-439.5 1722.5,-439.5 1722.5,-409.5 1454.5,-409.5"/>
<text text-anchor="start" x="1461.5" y="-420.9" font-family="Arial" font-size="14.00" fill="#000000">created_at    </text>
<text text-anchor="start" x="1561.8422" y="-420.9" font-family="Arial" font-size="14.00" fill="#666666">[TIMESTAMPTZ]</text>
</g>
<!-- organization_role&#45;&gt;organization_role_type -->
<g id="edge9" class="edge">
<title>organization_role:organization_role_type_id&#45;&gt;organization_role_type:code</title>
<path fill="none" stroke="#000000" d="M1709.8235,-1072.4035C1768.2622,-1020.0989 1785.1092,-484.5 1722.5,-484.5"/>
<polygon fill="#000000" stroke="#000000" points="1709.6553,-1072.4774 1698.6898,-1072.3801 1705.0776,-1074.4887 1700.5,-1076.5 1700.5,-1076.5 1700.5,-1076.5 1705.0776,-1074.4887 1702.3102,-1080.6199 1709.6553,-1072.4774 1709.6553,-1072.4774"/>
</g>
<!-- party_type -->
<g id="node7" class="node">
<title>party_type</title>
<polygon fill="#efefef" stroke="transparent" points="725.5,-132.5 725.5,-167.5 945.5,-167.5 945.5,-132.5 725.5,-132.5"/>
<polygon fill="none" stroke="#000000" points="725.5,-132.5 725.5,-167.5 945.5,-167.5 945.5,-132.5 725.5,-132.5"/>
<text text-anchor="start" x="757.3207" y="-145.3" font-family="Arial Bold" font-size="18.00" fill="#000000">party_type</text>
<text text-anchor="start" x="841.3483" y="-145.3" font-family="Arial" font-size="14.00" fill="#000000">    </text>
<text text-anchor="start" x="875.5531" y="-145.3" font-family="Arial" font-size="14.00" fill="#666666">[table]</text>
<polygon fill="none" stroke="#000000" points="725.5,-102.5 725.5,-132.5 945.5,-132.5 945.5,-102.5 725.5,-102.5"/>
<text text-anchor="start" x="732.5" y="-113.9" font-family="Arial" font-size="14.00" fill="#000000">code    </text>
<text text-anchor="start" x="797.0526" y="-113.9" font-family="Arial" font-size="14.00" fill="#666666">[TEXT]</text>
<polygon fill="none" stroke="#000000" points="725.5,-72.5 725.5,-102.5 945.5,-102.5 945.5,-72.5 725.5,-72.5"/>
<text text-anchor="start" x="732.5" y="-83.9" font-family="Arial" font-size="14.00" fill="#000000">value    </text>
<text text-anchor="start" x="800.1592" y="-83.9" font-family="Arial" font-size="14.00" fill="#666666">[TEXT]</text>
<polygon fill="none" stroke="#000000" points="725.5,-42.5 725.5,-72.5 945.5,-72.5 945.5,-42.5 725.5,-42.5"/>
<text text-anchor="start" x="732.054" y="-53.9" font-family="Arial" font-size="14.00" fill="#000000">created_at    </text>
<text text-anchor="start" x="832.3962" y="-53.9" font-family="Arial" font-size="14.00" fill="#666666">[TIMESTAMPTZ]</text>
</g>
<!-- party&#45;&gt;party_type -->
<g id="edge8" class="edge">
<title>party:party_type_id&#45;&gt;party_type:code</title>
<path fill="none" stroke="#000000" d="M957.7338,-574.1041C1150.486,-559.0134 1145.1419,-117.5 945.5,-117.5"/>
<polygon fill="#000000" stroke="#000000" points="957.4925,-574.1134 947.326,-570.0034 952.4963,-574.3067 947.5,-574.5 947.5,-574.5 947.5,-574.5 952.4963,-574.3067 947.674,-578.9966 957.4925,-574.1134 957.4925,-574.1134"/>
</g>
<!-- party_relation -->
<g id="node3" class="node">
<title>party_relation</title>
<polygon fill="#efefef" stroke="transparent" points="43.5,-1181.5 43.5,-1216.5 270.5,-1216.5 270.5,-1181.5 43.5,-1181.5"/>
<polygon fill="none" stroke="#000000" points="43.5,-1181.5 43.5,-1216.5 270.5,-1216.5 270.5,-1181.5 43.5,-1181.5"/>
<text text-anchor="start" x="66.3242" y="-1194.3" font-family="Arial Bold" font-size="18.00" fill="#000000">party_relation</text>
<text text-anchor="start" x="175.3448" y="-1194.3" font-family="Arial" font-size="14.00" fill="#000000">    </text>
<text text-anchor="start" x="209.5496" y="-1194.3" font-family="Arial" font-size="14.00" fill="#666666">[table]</text>
<polygon fill="none" stroke="#000000" points="43.5,-1151.5 43.5,-1181.5 270.5,-1181.5 270.5,-1151.5 43.5,-1151.5"/>
<text text-anchor="start" x="50.0561" y="-1162.9" font-family="Arial" font-size="14.00" fill="#000000">party_relation_id    </text>
<text text-anchor="start" x="187.7265" y="-1162.9" font-family="Arial" font-size="14.00" fill="#666666">[VARCHAR]</text>
<polygon fill="none" stroke="#000000" points="43.5,-1121.5 43.5,-1151.5 270.5,-1151.5 270.5,-1121.5 43.5,-1121.5"/>
<text text-anchor="start" x="50.5" y="-1132.9" font-family="Arial" font-size="14.00" fill="#000000">party_id    </text>
<text text-anchor="start" x="134.493" y="-1132.9" font-family="Arial" font-size="14.00" fill="#666666">[VARCHAR]</text>
<polygon fill="none" stroke="#000000" points="43.5,-1091.5 43.5,-1121.5 270.5,-1121.5 270.5,-1091.5 43.5,-1091.5"/>
<text text-anchor="start" x="50.5" y="-1102.9" font-family="Arial" font-size="14.00" fill="#000000">related_party_id    </text>
<text text-anchor="start" x="185.0638" y="-1102.9" font-family="Arial" font-size="14.00" fill="#666666">[VARCHAR]</text>
<polygon fill="none" stroke="#000000" points="43.5,-1061.5 43.5,-1091.5 270.5,-1091.5 270.5,-1061.5 43.5,-1061.5"/>
<text text-anchor="start" x="50.5" y="-1072.9" font-family="Arial" font-size="14.00" fill="#000000">relation_type_id    </text>
<text text-anchor="start" x="183.5098" y="-1072.9" font-family="Arial" font-size="14.00" fill="#666666">[TEXT]</text>
<polygon fill="none" stroke="#000000" points="43.5,-1031.5 43.5,-1061.5 270.5,-1061.5 270.5,-1031.5 43.5,-1031.5"/>
<text text-anchor="start" x="50.5" y="-1042.9" font-family="Arial" font-size="14.00" fill="#000000">elaboration    </text>
<text text-anchor="start" x="153.9474" y="-1042.9" font-family="Arial" font-size="14.00" fill="#666666">[TEXT]</text>
<polygon fill="none" stroke="#000000" points="43.5,-1001.5 43.5,-1031.5 270.5,-1031.5 270.5,-1001.5 43.5,-1001.5"/>
<text text-anchor="start" x="50.5" y="-1012.9" font-family="Arial" font-size="14.00" fill="#000000">created_at    </text>
<text text-anchor="start" x="150.8422" y="-1012.9" font-family="Arial" font-size="14.00" fill="#666666">[TIMESTAMPTZ]</text>
<polygon fill="none" stroke="#000000" points="43.5,-971.5 43.5,-1001.5 270.5,-1001.5 270.5,-971.5 43.5,-971.5"/>
<text text-anchor="start" x="50.5" y="-982.9" font-family="Arial" font-size="14.00" fill="#000000">created_by    </text>
<text text-anchor="start" x="153.9516" y="-982.9" font-family="Arial" font-size="14.00" fill="#666666">[TEXT]</text>
<polygon fill="none" stroke="#000000" points="43.5,-941.5 43.5,-971.5 270.5,-971.5 270.5,-941.5 43.5,-941.5"/>
<text text-anchor="start" x="50.5" y="-952.9" font-family="Arial" font-size="14.00" fill="#000000">updated_at    </text>
<text text-anchor="start" x="154.7468" y="-952.9" font-family="Arial" font-size="14.00" fill="#666666">[TIMESTAMPTZ]</text>
<polygon fill="none" stroke="#000000" points="43.5,-911.5 43.5,-941.5 270.5,-941.5 270.5,-911.5 43.5,-911.5"/>
<text text-anchor="start" x="50.5" y="-922.9" font-family="Arial" font-size="14.00" fill="#000000">updated_by    </text>
<text text-anchor="start" x="157.8562" y="-922.9" font-family="Arial" font-size="14.00" fill="#666666">[TEXT]</text>
<polygon fill="none" stroke="#000000" points="43.5,-881.5 43.5,-911.5 270.5,-911.5 270.5,-881.5 43.5,-881.5"/>
<text text-anchor="start" x="50.5" y="-892.9" font-family="Arial" font-size="14.00" fill="#000000">deleted_at    </text>
<text text-anchor="start" x="150.0708" y="-892.9" font-family="Arial" font-size="14.00" fill="#666666">[TIMESTAMPTZ]</text>
<polygon fill="none" stroke="#000000" points="43.5,-851.5 43.5,-881.5 270.5,-881.5 270.5,-851.5 43.5,-851.5"/>
<text text-anchor="start" x="50.5" y="-862.9" font-family="Arial" font-size="14.00" fill="#000000">deleted_by    </text>
<text text-anchor="start" x="153.1802" y="-862.9" font-family="Arial" font-size="14.00" fill="#666666">[TEXT]</text>
<polygon fill="none" stroke="#000000" points="43.5,-821.5 43.5,-851.5 270.5,-851.5 270.5,-821.5 43.5,-821.5"/>
<text text-anchor="start" x="50.5" y="-832.9" font-family="Arial" font-size="14.00" fill="#000000">activity_log    </text>
<text text-anchor="start" x="153.9362" y="-832.9" font-family="Arial" font-size="14.00" fill="#666666">[TEXT]</text>
</g>
<!-- party_relation&#45;&gt;party -->
<g id="edge2" class="edge">
<title>party_relation:related_party_id&#45;&gt;party:party_id</title>
<path fill="none" stroke="#000000" d="M280.3629,-1104.8351C347.004,-1080.44 271.0575,-795.253 322.5,-734 382.7233,-662.2916 629.8573,-604.5 723.5,-604.5"/>
<polygon fill="#000000" stroke="#000000" points="280.3605,-1104.8354 269.7509,-1102.0628 275.4303,-1105.6677 270.5,-1106.5 270.5,-1106.5 270.5,-1106.5 275.4303,-1105.6677 271.2491,-1110.9372 280.3605,-1104.8354 280.3605,-1104.8354"/>
</g>
<!-- party_relation&#45;&gt;party -->
<g id="edge3" class="edge">
<title>party_relation:party_id&#45;&gt;party:party_id</title>
<path fill="none" stroke="#000000" d="M280.6819,-1134.8599C353.0845,-1109.6157 267.2167,-800.5135 322.5,-734 382.3561,-661.9848 629.8573,-604.5 723.5,-604.5"/>
<polygon fill="#000000" stroke="#000000" points="280.3727,-1134.9096 269.7843,-1132.0573 275.4364,-1135.7048 270.5,-1136.5 270.5,-1136.5 270.5,-1136.5 275.4364,-1135.7048 271.2157,-1140.9427 280.3727,-1134.9096 280.3727,-1134.9096"/>
</g>
<!-- person -->
<g id="node4" class="node">
<title>person</title>
<polygon fill="#efefef" stroke="transparent" points="374.5,-1226.5 374.5,-1261.5 600.5,-1261.5 600.5,-1226.5 374.5,-1226.5"/>
<polygon fill="none" stroke="#000000" points="374.5,-1226.5 374.5,-1261.5 600.5,-1261.5 600.5,-1226.5 374.5,-1226.5"/>
<text text-anchor="start" x="423.826" y="-1239.3" font-family="Arial Bold" font-size="18.00" fill="#000000">person</text>
<text text-anchor="start" x="478.843" y="-1239.3" font-family="Arial" font-size="14.00" fill="#000000">    </text>
<text text-anchor="start" x="513.0478" y="-1239.3" font-family="Arial" font-size="14.00" fill="#666666">[table]</text>
<polygon fill="none" stroke="#000000" points="374.5,-1196.5 374.5,-1226.5 600.5,-1226.5 600.5,-1196.5 374.5,-1196.5"/>
<text text-anchor="start" x="381.5" y="-1207.9" font-family="Arial" font-size="14.00" fill="#000000">person_id    </text>
<text text-anchor="start" x="477.1676" y="-1207.9" font-family="Arial" font-size="14.00" fill="#666666">[VARCHAR]</text>
<polygon fill="none" stroke="#000000" points="374.5,-1166.5 374.5,-1196.5 600.5,-1196.5 600.5,-1166.5 374.5,-1166.5"/>
<text text-anchor="start" x="381.5" y="-1177.9" font-family="Arial" font-size="14.00" fill="#000000">person_first_name    </text>
<text text-anchor="start" x="531.6178" y="-1177.9" font-family="Arial" font-size="14.00" fill="#666666">[TEXT]</text>
<polygon fill="none" stroke="#000000" points="374.5,-1136.5 374.5,-1166.5 600.5,-1166.5 600.5,-1136.5 374.5,-1136.5"/>
<text text-anchor="start" x="381.3247" y="-1147.9" font-family="Arial" font-size="14.00" fill="#000000">person_middle_name    </text>
<text text-anchor="start" x="550.1157" y="-1147.9" font-family="Arial" font-size="14.00" fill="#666666">[TEXT]</text>
<polygon fill="none" stroke="#000000" points="374.5,-1106.5 374.5,-1136.5 600.5,-1136.5 600.5,-1106.5 374.5,-1106.5"/>
<text text-anchor="start" x="381.5" y="-1117.9" font-family="Arial" font-size="14.00" fill="#000000">person_last_name    </text>
<text text-anchor="start" x="530.8492" y="-1117.9" font-family="Arial" font-size="14.00" fill="#666666">[TEXT]</text>
<polygon fill="none" stroke="#000000" points="374.5,-1076.5 374.5,-1106.5 600.5,-1106.5 600.5,-1076.5 374.5,-1076.5"/>
<text text-anchor="start" x="381.5" y="-1087.9" font-family="Arial" font-size="14.00" fill="#000000">honorific_prefix    </text>
<text text-anchor="start" x="510.6052" y="-1087.9" font-family="Arial" font-size="14.00" fill="#666666">[TEXT]</text>
<polygon fill="none" stroke="#000000" points="374.5,-1046.5 374.5,-1076.5 600.5,-1076.5 600.5,-1046.5 374.5,-1046.5"/>
<text text-anchor="start" x="381.5" y="-1057.9" font-family="Arial" font-size="14.00" fill="#000000">honorific_suffix    </text>
<text text-anchor="start" x="509.0526" y="-1057.9" font-family="Arial" font-size="14.00" fill="#666666">[TEXT]</text>
<polygon fill="none" stroke="#000000" points="374.5,-1016.5 374.5,-1046.5 600.5,-1046.5 600.5,-1016.5 374.5,-1016.5"/>
<text text-anchor="start" x="381.5" y="-1027.9" font-family="Arial" font-size="14.00" fill="#000000">gender_id    </text>
<text text-anchor="start" x="477.9502" y="-1027.9" font-family="Arial" font-size="14.00" fill="#666666">[TEXT]</text>
<polygon fill="none" stroke="#000000" points="374.5,-986.5 374.5,-1016.5 600.5,-1016.5 600.5,-986.5 374.5,-986.5"/>
<text text-anchor="start" x="381.5" y="-997.9" font-family="Arial" font-size="14.00" fill="#000000">elaboration    </text>
<text text-anchor="start" x="484.9474" y="-997.9" font-family="Arial" font-size="14.00" fill="#666666">[TEXT]</text>
<polygon fill="none" stroke="#000000" points="374.5,-956.5 374.5,-986.5 600.5,-986.5 600.5,-956.5 374.5,-956.5"/>
<text text-anchor="start" x="381.5" y="-967.9" font-family="Arial" font-size="14.00" fill="#000000">created_at    </text>
<text text-anchor="start" x="481.8422" y="-967.9" font-family="Arial" font-size="14.00" fill="#666666">[TIMESTAMPTZ]</text>
<polygon fill="none" stroke="#000000" points="374.5,-926.5 374.5,-956.5 600.5,-956.5 600.5,-926.5 374.5,-926.5"/>
<text text-anchor="start" x="381.5" y="-937.9" font-family="Arial" font-size="14.00" fill="#000000">created_by    </text>
<text text-anchor="start" x="484.9516" y="-937.9" font-family="Arial" font-size="14.00" fill="#666666">[TEXT]</text>
<polygon fill="none" stroke="#000000" points="374.5,-896.5 374.5,-926.5 600.5,-926.5 600.5,-896.5 374.5,-896.5"/>
<text text-anchor="start" x="381.5" y="-907.9" font-family="Arial" font-size="14.00" fill="#000000">updated_at    </text>
<text text-anchor="start" x="485.7468" y="-907.9" font-family="Arial" font-size="14.00" fill="#666666">[TIMESTAMPTZ]</text>
<polygon fill="none" stroke="#000000" points="374.5,-866.5 374.5,-896.5 600.5,-896.5 600.5,-866.5 374.5,-866.5"/>
<text text-anchor="start" x="381.5" y="-877.9" font-family="Arial" font-size="14.00" fill="#000000">updated_by    </text>
<text text-anchor="start" x="488.8562" y="-877.9" font-family="Arial" font-size="14.00" fill="#666666">[TEXT]</text>
<polygon fill="none" stroke="#000000" points="374.5,-836.5 374.5,-866.5 600.5,-866.5 600.5,-836.5 374.5,-836.5"/>
<text text-anchor="start" x="381.5" y="-847.9" font-family="Arial" font-size="14.00" fill="#000000">deleted_at    </text>
<text text-anchor="start" x="481.0708" y="-847.9" font-family="Arial" font-size="14.00" fill="#666666">[TIMESTAMPTZ]</text>
<polygon fill="none" stroke="#000000" points="374.5,-806.5 374.5,-836.5 600.5,-836.5 600.5,-806.5 374.5,-806.5"/>
<text text-anchor="start" x="381.5" y="-817.9" font-family="Arial" font-size="14.00" fill="#000000">deleted_by    </text>
<text text-anchor="start" x="484.1802" y="-817.9" font-family="Arial" font-size="14.00" fill="#666666">[TEXT]</text>
<polygon fill="none" stroke="#000000" points="374.5,-776.5 374.5,-806.5 600.5,-806.5 600.5,-776.5 374.5,-776.5"/>
<text text-anchor="start" x="381.5" y="-787.9" font-family="Arial" font-size="14.00" fill="#000000">activity_log    </text>
<text text-anchor="start" x="484.9362" y="-787.9" font-family="Arial" font-size="14.00" fill="#666666">[TEXT]</text>
</g>
<!-- person&#45;&gt;party -->
<g id="edge4" class="edge">
<title>person:person_id&#45;&gt;party:party_id</title>
<path fill="none" stroke="#000000" d="M609.4389,-1206.9865C651.8853,-1161.2194 637.4444,-781.824 652.5,-734 672.2102,-671.3909 657.8616,-604.5 723.5,-604.5"/>
<polygon fill="#000000" stroke="#000000" points="609.4266,-1206.9926 598.4717,-1207.483 604.9633,-1209.2463 600.5,-1211.5 600.5,-1211.5 600.5,-1211.5 604.9633,-1209.2463 602.5283,-1215.517 609.4266,-1206.9926 609.4266,-1206.9926"/>
</g>
<!-- organization -->
<g id="node5" class="node">
<title>organization</title>
<polygon fill="#efefef" stroke="transparent" points="705.5,-1226.5 705.5,-1261.5 964.5,-1261.5 964.5,-1226.5 705.5,-1226.5"/>
<polygon fill="none" stroke="#000000" points="705.5,-1226.5 705.5,-1261.5 964.5,-1261.5 964.5,-1226.5 705.5,-1226.5"/>
<text text-anchor="start" x="749.8214" y="-1239.3" font-family="Arial Bold" font-size="18.00" fill="#000000">organization</text>
<text text-anchor="start" x="847.8476" y="-1239.3" font-family="Arial" font-size="14.00" fill="#000000">    </text>
<text text-anchor="start" x="882.0524" y="-1239.3" font-family="Arial" font-size="14.00" fill="#666666">[table]</text>
<polygon fill="none" stroke="#000000" points="705.5,-1196.5 705.5,-1226.5 964.5,-1226.5 964.5,-1196.5 705.5,-1196.5"/>
<text text-anchor="start" x="712.5" y="-1207.9" font-family="Arial" font-size="14.00" fill="#000000">organization_id    </text>
<text text-anchor="start" x="841.6192" y="-1207.9" font-family="Arial" font-size="14.00" fill="#666666">[VARCHAR]</text>
<polygon fill="none" stroke="#000000" points="705.5,-1166.5 705.5,-1196.5 964.5,-1196.5 964.5,-1166.5 705.5,-1166.5"/>
<text text-anchor="start" x="712.5" y="-1177.9" font-family="Arial" font-size="14.00" fill="#000000">name    </text>
<text text-anchor="start" x="781.7132" y="-1177.9" font-family="Arial" font-size="14.00" fill="#666666">[TEXT]</text>
<polygon fill="none" stroke="#000000" points="705.5,-1136.5 705.5,-1166.5 964.5,-1166.5 964.5,-1136.5 705.5,-1136.5"/>
<text text-anchor="start" x="712.5" y="-1147.9" font-family="Arial" font-size="14.00" fill="#000000">alias    </text>
<text text-anchor="start" x="775.4832" y="-1147.9" font-family="Arial" font-size="14.00" fill="#666666">[TEXT]</text>
<polygon fill="none" stroke="#000000" points="705.5,-1106.5 705.5,-1136.5 964.5,-1136.5 964.5,-1106.5 705.5,-1106.5"/>
<text text-anchor="start" x="712.5" y="-1117.9" font-family="Arial" font-size="14.00" fill="#000000">description    </text>
<text text-anchor="start" x="814.3822" y="-1117.9" font-family="Arial" font-size="14.00" fill="#666666">[TEXT]</text>
<polygon fill="none" stroke="#000000" points="705.5,-1076.5 705.5,-1106.5 964.5,-1106.5 964.5,-1076.5 705.5,-1076.5"/>
<text text-anchor="start" x="712.5" y="-1087.9" font-family="Arial" font-size="14.00" fill="#000000">license    </text>
<text text-anchor="start" x="790.2658" y="-1087.9" font-family="Arial" font-size="14.00" fill="#666666">[TEXT]</text>
<polygon fill="none" stroke="#000000" points="705.5,-1046.5 705.5,-1076.5 964.5,-1076.5 964.5,-1046.5 705.5,-1046.5"/>
<text text-anchor="start" x="712.5" y="-1057.9" font-family="Arial" font-size="14.00" fill="#000000">federal_tax_id_num    </text>
<text text-anchor="start" x="869.629" y="-1057.9" font-family="Arial" font-size="14.00" fill="#666666">[TEXT]</text>
<polygon fill="none" stroke="#000000" points="705.5,-1016.5 705.5,-1046.5 964.5,-1046.5 964.5,-1016.5 705.5,-1016.5"/>
<text text-anchor="start" x="712.4979" y="-1027.9" font-family="Arial" font-size="14.00" fill="#000000">registration_date    </text>
<text text-anchor="start" x="850.9523" y="-1027.9" font-family="Arial" font-size="14.00" fill="#666666">[TIMESTAMPTZ]</text>
<polygon fill="none" stroke="#000000" points="705.5,-986.5 705.5,-1016.5 964.5,-1016.5 964.5,-986.5 705.5,-986.5"/>
<text text-anchor="start" x="712.5" y="-997.9" font-family="Arial" font-size="14.00" fill="#000000">elaboration    </text>
<text text-anchor="start" x="815.9474" y="-997.9" font-family="Arial" font-size="14.00" fill="#666666">[TEXT]</text>
<polygon fill="none" stroke="#000000" points="705.5,-956.5 705.5,-986.5 964.5,-986.5 964.5,-956.5 705.5,-956.5"/>
<text text-anchor="start" x="712.5" y="-967.9" font-family="Arial" font-size="14.00" fill="#000000">created_at    </text>
<text text-anchor="start" x="812.8422" y="-967.9" font-family="Arial" font-size="14.00" fill="#666666">[TIMESTAMPTZ]</text>
<polygon fill="none" stroke="#000000" points="705.5,-926.5 705.5,-956.5 964.5,-956.5 964.5,-926.5 705.5,-926.5"/>
<text text-anchor="start" x="712.5" y="-937.9" font-family="Arial" font-size="14.00" fill="#000000">created_by    </text>
<text text-anchor="start" x="815.9516" y="-937.9" font-family="Arial" font-size="14.00" fill="#666666">[TEXT]</text>
<polygon fill="none" stroke="#000000" points="705.5,-896.5 705.5,-926.5 964.5,-926.5 964.5,-896.5 705.5,-896.5"/>
<text text-anchor="start" x="712.5" y="-907.9" font-family="Arial" font-size="14.00" fill="#000000">updated_at    </text>
<text text-anchor="start" x="816.7468" y="-907.9" font-family="Arial" font-size="14.00" fill="#666666">[TIMESTAMPTZ]</text>
<polygon fill="none" stroke="#000000" points="705.5,-866.5 705.5,-896.5 964.5,-896.5 964.5,-866.5 705.5,-866.5"/>
<text text-anchor="start" x="712.5" y="-877.9" font-family="Arial" font-size="14.00" fill="#000000">updated_by    </text>
<text text-anchor="start" x="819.8562" y="-877.9" font-family="Arial" font-size="14.00" fill="#666666">[TEXT]</text>
<polygon fill="none" stroke="#000000" points="705.5,-836.5 705.5,-866.5 964.5,-866.5 964.5,-836.5 705.5,-836.5"/>
<text text-anchor="start" x="712.5" y="-847.9" font-family="Arial" font-size="14.00" fill="#000000">deleted_at    </text>
<text text-anchor="start" x="812.0708" y="-847.9" font-family="Arial" font-size="14.00" fill="#666666">[TIMESTAMPTZ]</text>
<polygon fill="none" stroke="#000000" points="705.5,-806.5 705.5,-836.5 964.5,-836.5 964.5,-806.5 705.5,-806.5"/>
<text text-anchor="start" x="712.5" y="-817.9" font-family="Arial" font-size="14.00" fill="#000000">deleted_by    </text>
<text text-anchor="start" x="815.1802" y="-817.9" font-family="Arial" font-size="14.00" fill="#666666">[TEXT]</text>
<polygon fill="none" stroke="#000000" points="705.5,-776.5 705.5,-806.5 964.5,-806.5 964.5,-776.5 705.5,-776.5"/>
<text text-anchor="start" x="712.5" y="-787.9" font-family="Arial" font-size="14.00" fill="#000000">activity_log    </text>
<text text-anchor="start" x="815.9362" y="-787.9" font-family="Arial" font-size="14.00" fill="#666666">[TEXT]</text>
</g>
<!-- organization&#45;&gt;party -->
<g id="edge5" class="edge">
<title>organization:organization_id&#45;&gt;party:party_id</title>
<path fill="none" stroke="#000000" d="M973.6238,-1206.579C1015.1895,-1158.3877 996.9694,-771.6798 964.5,-734 893.8035,-651.9586 794.1965,-780.0414 723.5,-698 696.3731,-666.5199 681.9444,-604.5 723.5,-604.5"/>
<polygon fill="#000000" stroke="#000000" points="973.3014,-1206.7528 962.3638,-1207.5394 968.9007,-1209.1264 964.5,-1211.5 964.5,-1211.5 964.5,-1211.5 968.9007,-1209.1264 966.6362,-1215.4606 973.3014,-1206.7528 973.3014,-1206.7528"/>
</g>
<!-- device_party_relationship -->
<g id="node6" class="node">
<title>device_party_relationship</title>
<polygon fill="#efefef" stroke="transparent" points="1068.5,-1166.5 1068.5,-1201.5 1369.5,-1201.5 1369.5,-1166.5 1068.5,-1166.5"/>
<polygon fill="none" stroke="#000000" points="1068.5,-1166.5 1068.5,-1201.5 1369.5,-1201.5 1369.5,-1166.5 1068.5,-1166.5"/>
<text text-anchor="start" x="1080.8114" y="-1179.3" font-family="Arial Bold" font-size="18.00" fill="#000000">device_party_relationship</text>
<text text-anchor="start" x="1284.8576" y="-1179.3" font-family="Arial" font-size="14.00" fill="#000000">    </text>
<text text-anchor="start" x="1319.0624" y="-1179.3" font-family="Arial" font-size="14.00" fill="#666666">[table]</text>
<polygon fill="none" stroke="#000000" points="1068.5,-1136.5 1068.5,-1166.5 1369.5,-1166.5 1369.5,-1136.5 1068.5,-1136.5"/>
<text text-anchor="start" x="1075.1017" y="-1147.9" font-family="Arial" font-size="14.00" fill="#000000">device_party_relationship_id    </text>
<text text-anchor="start" x="1286.6809" y="-1147.9" font-family="Arial" font-size="14.00" fill="#666666">[VARCHAR]</text>
<polygon fill="none" stroke="#000000" points="1068.5,-1106.5 1068.5,-1136.5 1369.5,-1136.5 1369.5,-1106.5 1068.5,-1106.5"/>
<text text-anchor="start" x="1075.5" y="-1117.9" font-family="Arial" font-size="14.00" fill="#000000">device_id    </text>
<text text-anchor="start" x="1168.831" y="-1117.9" font-family="Arial" font-size="14.00" fill="#666666">[VARCHAR]</text>
<polygon fill="none" stroke="#000000" points="1068.5,-1076.5 1068.5,-1106.5 1369.5,-1106.5 1369.5,-1076.5 1068.5,-1076.5"/>
<text text-anchor="start" x="1075.5" y="-1087.9" font-family="Arial" font-size="14.00" fill="#000000">party_id    </text>
<text text-anchor="start" x="1159.493" y="-1087.9" font-family="Arial" font-size="14.00" fill="#666666">[VARCHAR]</text>
<polygon fill="none" stroke="#000000" points="1068.5,-1046.5 1068.5,-1076.5 1369.5,-1076.5 1369.5,-1046.5 1068.5,-1046.5"/>
<text text-anchor="start" x="1075.5" y="-1057.9" font-family="Arial" font-size="14.00" fill="#000000">elaboration    </text>
<text text-anchor="start" x="1178.9474" y="-1057.9" font-family="Arial" font-size="14.00" fill="#666666">[TEXT]</text>
<polygon fill="none" stroke="#000000" points="1068.5,-1016.5 1068.5,-1046.5 1369.5,-1046.5 1369.5,-1016.5 1068.5,-1016.5"/>
<text text-anchor="start" x="1075.5" y="-1027.9" font-family="Arial" font-size="14.00" fill="#000000">created_at    </text>
<text text-anchor="start" x="1175.8422" y="-1027.9" font-family="Arial" font-size="14.00" fill="#666666">[TIMESTAMPTZ]</text>
<polygon fill="none" stroke="#000000" points="1068.5,-986.5 1068.5,-1016.5 1369.5,-1016.5 1369.5,-986.5 1068.5,-986.5"/>
<text text-anchor="start" x="1075.5" y="-997.9" font-family="Arial" font-size="14.00" fill="#000000">created_by    </text>
<text text-anchor="start" x="1178.9516" y="-997.9" font-family="Arial" font-size="14.00" fill="#666666">[TEXT]</text>
<polygon fill="none" stroke="#000000" points="1068.5,-956.5 1068.5,-986.5 1369.5,-986.5 1369.5,-956.5 1068.5,-956.5"/>
<text text-anchor="start" x="1075.5" y="-967.9" font-family="Arial" font-size="14.00" fill="#000000">updated_at    </text>
<text text-anchor="start" x="1179.7468" y="-967.9" font-family="Arial" font-size="14.00" fill="#666666">[TIMESTAMPTZ]</text>
<polygon fill="none" stroke="#000000" points="1068.5,-926.5 1068.5,-956.5 1369.5,-956.5 1369.5,-926.5 1068.5,-926.5"/>
<text text-anchor="start" x="1075.5" y="-937.9" font-family="Arial" font-size="14.00" fill="#000000">updated_by    </text>
<text text-anchor="start" x="1182.8562" y="-937.9" font-family="Arial" font-size="14.00" fill="#666666">[TEXT]</text>
<polygon fill="none" stroke="#000000" points="1068.5,-896.5 1068.5,-926.5 1369.5,-926.5 1369.5,-896.5 1068.5,-896.5"/>
<text text-anchor="start" x="1075.5" y="-907.9" font-family="Arial" font-size="14.00" fill="#000000">deleted_at    </text>
<text text-anchor="start" x="1175.0708" y="-907.9" font-family="Arial" font-size="14.00" fill="#666666">[TIMESTAMPTZ]</text>
<polygon fill="none" stroke="#000000" points="1068.5,-866.5 1068.5,-896.5 1369.5,-896.5 1369.5,-866.5 1068.5,-866.5"/>
<text text-anchor="start" x="1075.5" y="-877.9" font-family="Arial" font-size="14.00" fill="#000000">deleted_by    </text>
<text text-anchor="start" x="1178.1802" y="-877.9" font-family="Arial" font-size="14.00" fill="#666666">[TEXT]</text>
<polygon fill="none" stroke="#000000" points="1068.5,-836.5 1068.5,-866.5 1369.5,-866.5 1369.5,-836.5 1068.5,-836.5"/>
<text text-anchor="start" x="1075.5" y="-847.9" font-family="Arial" font-size="14.00" fill="#000000">activity_log    </text>
<text text-anchor="start" x="1178.9362" y="-847.9" font-family="Arial" font-size="14.00" fill="#666666">[TEXT]</text>
</g>
<!-- device_party_relationship&#45;&gt;party -->
<g id="edge7" class="edge">
<title>device_party_relationship:party_id&#45;&gt;party:party_id</title>
<path fill="none" stroke="#000000" d="M1058.4705,-1089.8416C992.8506,-1066.6477 1040.4006,-806.8538 1016.5,-734 996.1712,-672.0337 1012.7157,-604.5 947.5,-604.5"/>
<polygon fill="#000000" stroke="#000000" points="1058.634,-1089.8685 1067.7658,-1095.9397 1063.567,-1090.6843 1068.5,-1091.5 1068.5,-1091.5 1068.5,-1091.5 1063.567,-1090.6843 1069.2342,-1087.0603 1058.634,-1089.8685 1058.634,-1089.8685"/>
</g>
</g>
</svg>
