<?xml version="1.0" encoding="UTF-8" standalone="no"?>
<!DOCTYPE svg PUBLIC "-//W3C//DTD SVG 1.1//EN"
 "http://www.w3.org/Graphics/SVG/1.1/DTD/svg11.dtd">
<!-- Generated by graphviz version 2.40.1 (20161225.0304)
 -->
<!-- Title: party_type Pages: 1 -->
<svg width="1777pt" height="1319pt"
 viewBox="0.00 0.00 1777.00 1319.00" xmlns="http://www.w3.org/2000/svg" xmlns:xlink="http://www.w3.org/1999/xlink">
<g id="graph0" class="graph" transform="scale(1 1) rotate(0) translate(4 1315)">
<title>party_type</title>
<polygon fill="#ffffff" stroke="transparent" points="-4,4 -4,-1315 1773,-1315 1773,4 -4,4"/>
<!-- party_type -->
<g id="node1" class="node">
<title>party_type</title>
<polygon fill="#efefef" stroke="transparent" points="740.5,-135.5 740.5,-170.5 930.5,-170.5 930.5,-135.5 740.5,-135.5"/>
<polygon fill="none" stroke="#000000" points="740.5,-135.5 740.5,-170.5 930.5,-170.5 930.5,-135.5 740.5,-135.5"/>
<text text-anchor="start" x="757.3207" y="-148.3" font-family="Arial Bold" font-size="18.00" fill="#000000">party_type</text>
<text text-anchor="start" x="841.3483" y="-148.3" font-family="Arial" font-size="14.00" fill="#000000">    </text>
<text text-anchor="start" x="875.5531" y="-148.3" font-family="Arial" font-size="14.00" fill="#666666">[table]</text>
<polygon fill="none" stroke="#000000" points="740.5,-105.5 740.5,-135.5 930.5,-135.5 930.5,-105.5 740.5,-105.5"/>
<text text-anchor="start" x="747.5" y="-116.9" font-family="Arial" font-size="14.00" fill="#000000">code </text>
<text text-anchor="start" x="781.7384" y="-116.9" font-family="Arial" font-size="14.00" fill="#666666">[TEXT]</text>
<polygon fill="none" stroke="#000000" points="740.5,-75.5 740.5,-105.5 930.5,-105.5 930.5,-75.5 740.5,-75.5"/>
<text text-anchor="start" x="747.5" y="-86.9" font-family="Arial" font-size="14.00" fill="#000000">value </text>
<text text-anchor="start" x="784.845" y="-86.9" font-family="Arial" font-size="14.00" fill="#666666">[TEXT]</text>
<polygon fill="none" stroke="#000000" points="740.5,-45.5 740.5,-75.5 930.5,-75.5 930.5,-45.5 740.5,-45.5"/>
<text text-anchor="start" x="747.2111" y="-56.9" font-family="Arial" font-size="14.00" fill="#000000">created_at </text>
<text text-anchor="start" x="817.2391" y="-56.9" font-family="Arial" font-size="14.00" fill="#666666">[TIMESTAMPTZ]</text>
<polygon fill="none" stroke="#000000" stroke-width="3" points="739,-44.5 739,-172.5 932,-172.5 932,-44.5 739,-44.5"/>
</g>
<!-- party -->
<g id="node2" class="node">
<title>party</title>
<polygon fill="#efefef" stroke="transparent" points="723.5,-625.5 723.5,-660.5 947.5,-660.5 947.5,-625.5 723.5,-625.5"/>
<polygon fill="none" stroke="#000000" points="723.5,-625.5 723.5,-660.5 947.5,-660.5 947.5,-625.5 723.5,-625.5"/>
<text text-anchor="start" x="779.3311" y="-638.3" font-family="Arial Bold" font-size="18.00" fill="#000000">party</text>
<text text-anchor="start" x="819.3379" y="-638.3" font-family="Arial" font-size="14.00" fill="#000000">    </text>
<text text-anchor="start" x="853.5427" y="-638.3" font-family="Arial" font-size="14.00" fill="#666666">[table]</text>
<polygon fill="none" stroke="#000000" points="723.5,-595.5 723.5,-625.5 947.5,-625.5 947.5,-595.5 723.5,-595.5"/>
<text text-anchor="start" x="730.5" y="-606.9" font-family="Arial" font-size="14.00" fill="#000000">party_id    </text>
<text text-anchor="start" x="814.493" y="-606.9" font-family="Arial" font-size="14.00" fill="#666666">[VARCHAR]</text>
<polygon fill="none" stroke="#000000" points="723.5,-565.5 723.5,-595.5 947.5,-595.5 947.5,-565.5 723.5,-565.5"/>
<text text-anchor="start" x="730.5" y="-576.9" font-family="Arial" font-size="14.00" fill="#000000">party_type_id    </text>
<text text-anchor="start" x="848.7314" y="-576.9" font-family="Arial" font-size="14.00" fill="#666666">[TEXT]</text>
<polygon fill="none" stroke="#000000" points="723.5,-535.5 723.5,-565.5 947.5,-565.5 947.5,-535.5 723.5,-535.5"/>
<text text-anchor="start" x="730.5" y="-546.9" font-family="Arial" font-size="14.00" fill="#000000">party_name    </text>
<text text-anchor="start" x="838.6122" y="-546.9" font-family="Arial" font-size="14.00" fill="#666666">[TEXT]</text>
<polygon fill="none" stroke="#000000" points="723.5,-505.5 723.5,-535.5 947.5,-535.5 947.5,-505.5 723.5,-505.5"/>
<text text-anchor="start" x="730.5" y="-516.9" font-family="Arial" font-size="14.00" fill="#000000">elaboration    </text>
<text text-anchor="start" x="833.9474" y="-516.9" font-family="Arial" font-size="14.00" fill="#666666">[TEXT]</text>
<polygon fill="none" stroke="#000000" points="723.5,-475.5 723.5,-505.5 947.5,-505.5 947.5,-475.5 723.5,-475.5"/>
<text text-anchor="start" x="730.5" y="-486.9" font-family="Arial" font-size="14.00" fill="#000000">created_at    </text>
<text text-anchor="start" x="830.8422" y="-486.9" font-family="Arial" font-size="14.00" fill="#666666">[TIMESTAMPTZ]</text>
<polygon fill="none" stroke="#000000" points="723.5,-445.5 723.5,-475.5 947.5,-475.5 947.5,-445.5 723.5,-445.5"/>
<text text-anchor="start" x="730.5" y="-456.9" font-family="Arial" font-size="14.00" fill="#000000">created_by    </text>
<text text-anchor="start" x="833.9516" y="-456.9" font-family="Arial" font-size="14.00" fill="#666666">[TEXT]</text>
<polygon fill="none" stroke="#000000" points="723.5,-415.5 723.5,-445.5 947.5,-445.5 947.5,-415.5 723.5,-415.5"/>
<text text-anchor="start" x="730.1017" y="-426.9" font-family="Arial" font-size="14.00" fill="#000000">updated_at    </text>
<text text-anchor="start" x="834.3485" y="-426.9" font-family="Arial" font-size="14.00" fill="#666666">[TIMESTAMPTZ]</text>
<polygon fill="none" stroke="#000000" points="723.5,-385.5 723.5,-415.5 947.5,-415.5 947.5,-385.5 723.5,-385.5"/>
<text text-anchor="start" x="730.5" y="-396.9" font-family="Arial" font-size="14.00" fill="#000000">updated_by    </text>
<text text-anchor="start" x="837.8562" y="-396.9" font-family="Arial" font-size="14.00" fill="#666666">[TEXT]</text>
<polygon fill="none" stroke="#000000" points="723.5,-355.5 723.5,-385.5 947.5,-385.5 947.5,-355.5 723.5,-355.5"/>
<text text-anchor="start" x="730.5" y="-366.9" font-family="Arial" font-size="14.00" fill="#000000">deleted_at    </text>
<text text-anchor="start" x="830.0708" y="-366.9" font-family="Arial" font-size="14.00" fill="#666666">[TIMESTAMPTZ]</text>
<polygon fill="none" stroke="#000000" points="723.5,-325.5 723.5,-355.5 947.5,-355.5 947.5,-325.5 723.5,-325.5"/>
<text text-anchor="start" x="730.5" y="-336.9" font-family="Arial" font-size="14.00" fill="#000000">deleted_by    </text>
<text text-anchor="start" x="833.1802" y="-336.9" font-family="Arial" font-size="14.00" fill="#666666">[TEXT]</text>
<polygon fill="none" stroke="#000000" points="723.5,-295.5 723.5,-325.5 947.5,-325.5 947.5,-295.5 723.5,-295.5"/>
<text text-anchor="start" x="730.5" y="-306.9" font-family="Arial" font-size="14.00" fill="#000000">activity_log    </text>
<text text-anchor="start" x="833.9362" y="-306.9" font-family="Arial" font-size="14.00" fill="#666666">[TEXT]</text>
</g>
<!-- party&#45;&gt;party_type -->
<g id="edge1" class="edge">
<title>party:party_type_id&#45;&gt;party_type:code</title>
<path fill="none" stroke="#000000" d="M957.5062,-580.1239C1151.4679,-565.3533 1131.6876,-120.5 930.5,-120.5"/>
<polygon fill="#000000" stroke="#000000" points="957.4929,-580.1243 947.3309,-576.0032 952.4965,-580.3121 947.5,-580.5 947.5,-580.5 947.5,-580.5 952.4965,-580.3121 947.6691,-584.9968 957.4929,-580.1243 957.4929,-580.1243"/>
</g>
<!-- party_relation -->
<g id="node3" class="node">
<title>party_relation</title>
<polygon fill="#efefef" stroke="transparent" points="43.5,-1187.5 43.5,-1222.5 270.5,-1222.5 270.5,-1187.5 43.5,-1187.5"/>
<polygon fill="none" stroke="#000000" points="43.5,-1187.5 43.5,-1222.5 270.5,-1222.5 270.5,-1187.5 43.5,-1187.5"/>
<text text-anchor="start" x="66.3242" y="-1200.3" font-family="Arial Bold" font-size="18.00" fill="#000000">party_relation</text>
<text text-anchor="start" x="175.3448" y="-1200.3" font-family="Arial" font-size="14.00" fill="#000000">    </text>
<text text-anchor="start" x="209.5496" y="-1200.3" font-family="Arial" font-size="14.00" fill="#666666">[table]</text>
<polygon fill="none" stroke="#000000" points="43.5,-1157.5 43.5,-1187.5 270.5,-1187.5 270.5,-1157.5 43.5,-1157.5"/>
<text text-anchor="start" x="50.0561" y="-1168.9" font-family="Arial" font-size="14.00" fill="#000000">party_relation_id    </text>
<text text-anchor="start" x="187.7265" y="-1168.9" font-family="Arial" font-size="14.00" fill="#666666">[VARCHAR]</text>
<polygon fill="none" stroke="#000000" points="43.5,-1127.5 43.5,-1157.5 270.5,-1157.5 270.5,-1127.5 43.5,-1127.5"/>
<text text-anchor="start" x="50.5" y="-1138.9" font-family="Arial" font-size="14.00" fill="#000000">party_id    </text>
<text text-anchor="start" x="134.493" y="-1138.9" font-family="Arial" font-size="14.00" fill="#666666">[VARCHAR]</text>
<polygon fill="none" stroke="#000000" points="43.5,-1097.5 43.5,-1127.5 270.5,-1127.5 270.5,-1097.5 43.5,-1097.5"/>
<text text-anchor="start" x="50.5" y="-1108.9" font-family="Arial" font-size="14.00" fill="#000000">related_party_id    </text>
<text text-anchor="start" x="185.0638" y="-1108.9" font-family="Arial" font-size="14.00" fill="#666666">[VARCHAR]</text>
<polygon fill="none" stroke="#000000" points="43.5,-1067.5 43.5,-1097.5 270.5,-1097.5 270.5,-1067.5 43.5,-1067.5"/>
<text text-anchor="start" x="50.5" y="-1078.9" font-family="Arial" font-size="14.00" fill="#000000">relation_type_id    </text>
<text text-anchor="start" x="183.5098" y="-1078.9" font-family="Arial" font-size="14.00" fill="#666666">[TEXT]</text>
<polygon fill="none" stroke="#000000" points="43.5,-1037.5 43.5,-1067.5 270.5,-1067.5 270.5,-1037.5 43.5,-1037.5"/>
<text text-anchor="start" x="50.5" y="-1048.9" font-family="Arial" font-size="14.00" fill="#000000">elaboration    </text>
<text text-anchor="start" x="153.9474" y="-1048.9" font-family="Arial" font-size="14.00" fill="#666666">[TEXT]</text>
<polygon fill="none" stroke="#000000" points="43.5,-1007.5 43.5,-1037.5 270.5,-1037.5 270.5,-1007.5 43.5,-1007.5"/>
<text text-anchor="start" x="50.5" y="-1018.9" font-family="Arial" font-size="14.00" fill="#000000">created_at    </text>
<text text-anchor="start" x="150.8422" y="-1018.9" font-family="Arial" font-size="14.00" fill="#666666">[TIMESTAMPTZ]</text>
<polygon fill="none" stroke="#000000" points="43.5,-977.5 43.5,-1007.5 270.5,-1007.5 270.5,-977.5 43.5,-977.5"/>
<text text-anchor="start" x="50.5" y="-988.9" font-family="Arial" font-size="14.00" fill="#000000">created_by    </text>
<text text-anchor="start" x="153.9516" y="-988.9" font-family="Arial" font-size="14.00" fill="#666666">[TEXT]</text>
<polygon fill="none" stroke="#000000" points="43.5,-947.5 43.5,-977.5 270.5,-977.5 270.5,-947.5 43.5,-947.5"/>
<text text-anchor="start" x="50.5" y="-958.9" font-family="Arial" font-size="14.00" fill="#000000">updated_at    </text>
<text text-anchor="start" x="154.7468" y="-958.9" font-family="Arial" font-size="14.00" fill="#666666">[TIMESTAMPTZ]</text>
<polygon fill="none" stroke="#000000" points="43.5,-917.5 43.5,-947.5 270.5,-947.5 270.5,-917.5 43.5,-917.5"/>
<text text-anchor="start" x="50.5" y="-928.9" font-family="Arial" font-size="14.00" fill="#000000">updated_by    </text>
<text text-anchor="start" x="157.8562" y="-928.9" font-family="Arial" font-size="14.00" fill="#666666">[TEXT]</text>
<polygon fill="none" stroke="#000000" points="43.5,-887.5 43.5,-917.5 270.5,-917.5 270.5,-887.5 43.5,-887.5"/>
<text text-anchor="start" x="50.5" y="-898.9" font-family="Arial" font-size="14.00" fill="#000000">deleted_at    </text>
<text text-anchor="start" x="150.0708" y="-898.9" font-family="Arial" font-size="14.00" fill="#666666">[TIMESTAMPTZ]</text>
<polygon fill="none" stroke="#000000" points="43.5,-857.5 43.5,-887.5 270.5,-887.5 270.5,-857.5 43.5,-857.5"/>
<text text-anchor="start" x="50.5" y="-868.9" font-family="Arial" font-size="14.00" fill="#000000">deleted_by    </text>
<text text-anchor="start" x="153.1802" y="-868.9" font-family="Arial" font-size="14.00" fill="#666666">[TEXT]</text>
<polygon fill="none" stroke="#000000" points="43.5,-827.5 43.5,-857.5 270.5,-857.5 270.5,-827.5 43.5,-827.5"/>
<text text-anchor="start" x="50.5" y="-838.9" font-family="Arial" font-size="14.00" fill="#000000">activity_log    </text>
<text text-anchor="start" x="153.9362" y="-838.9" font-family="Arial" font-size="14.00" fill="#666666">[TEXT]</text>
</g>
<!-- party_relation&#45;&gt;party -->
<g id="edge2" class="edge">
<title>party_relation:related_party_id&#45;&gt;party:party_id</title>
<path fill="none" stroke="#000000" d="M280.3629,-1110.8351C347.004,-1086.44 271.0575,-801.253 322.5,-740 382.7233,-668.2916 629.8573,-610.5 723.5,-610.5"/>
<polygon fill="#000000" stroke="#000000" points="280.3605,-1110.8354 269.7509,-1108.0628 275.4303,-1111.6677 270.5,-1112.5 270.5,-1112.5 270.5,-1112.5 275.4303,-1111.6677 271.2491,-1116.9372 280.3605,-1110.8354 280.3605,-1110.8354"/>
</g>
<!-- party_relation&#45;&gt;party -->
<g id="edge3" class="edge">
<title>party_relation:party_id&#45;&gt;party:party_id</title>
<path fill="none" stroke="#000000" d="M280.6819,-1140.8599C353.0845,-1115.6157 267.2167,-806.5135 322.5,-740 382.3561,-667.9848 629.8573,-610.5 723.5,-610.5"/>
<polygon fill="#000000" stroke="#000000" points="280.3727,-1140.9096 269.7843,-1138.0573 275.4364,-1141.7048 270.5,-1142.5 270.5,-1142.5 270.5,-1142.5 275.4364,-1141.7048 271.2157,-1146.9427 280.3727,-1140.9096 280.3727,-1140.9096"/>
</g>
<!-- person -->
<g id="node4" class="node">
<title>person</title>
<polygon fill="#efefef" stroke="transparent" points="374.5,-1232.5 374.5,-1267.5 600.5,-1267.5 600.5,-1232.5 374.5,-1232.5"/>
<polygon fill="none" stroke="#000000" points="374.5,-1232.5 374.5,-1267.5 600.5,-1267.5 600.5,-1232.5 374.5,-1232.5"/>
<text text-anchor="start" x="423.826" y="-1245.3" font-family="Arial Bold" font-size="18.00" fill="#000000">person</text>
<text text-anchor="start" x="478.843" y="-1245.3" font-family="Arial" font-size="14.00" fill="#000000">    </text>
<text text-anchor="start" x="513.0478" y="-1245.3" font-family="Arial" font-size="14.00" fill="#666666">[table]</text>
<polygon fill="none" stroke="#000000" points="374.5,-1202.5 374.5,-1232.5 600.5,-1232.5 600.5,-1202.5 374.5,-1202.5"/>
<text text-anchor="start" x="381.5" y="-1213.9" font-family="Arial" font-size="14.00" fill="#000000">person_id    </text>
<text text-anchor="start" x="477.1676" y="-1213.9" font-family="Arial" font-size="14.00" fill="#666666">[VARCHAR]</text>
<polygon fill="none" stroke="#000000" points="374.5,-1172.5 374.5,-1202.5 600.5,-1202.5 600.5,-1172.5 374.5,-1172.5"/>
<text text-anchor="start" x="381.5" y="-1183.9" font-family="Arial" font-size="14.00" fill="#000000">person_first_name    </text>
<text text-anchor="start" x="531.6178" y="-1183.9" font-family="Arial" font-size="14.00" fill="#666666">[TEXT]</text>
<polygon fill="none" stroke="#000000" points="374.5,-1142.5 374.5,-1172.5 600.5,-1172.5 600.5,-1142.5 374.5,-1142.5"/>
<text text-anchor="start" x="381.3247" y="-1153.9" font-family="Arial" font-size="14.00" fill="#000000">person_middle_name    </text>
<text text-anchor="start" x="550.1157" y="-1153.9" font-family="Arial" font-size="14.00" fill="#666666">[TEXT]</text>
<polygon fill="none" stroke="#000000" points="374.5,-1112.5 374.5,-1142.5 600.5,-1142.5 600.5,-1112.5 374.5,-1112.5"/>
<text text-anchor="start" x="381.5" y="-1123.9" font-family="Arial" font-size="14.00" fill="#000000">person_last_name    </text>
<text text-anchor="start" x="530.8492" y="-1123.9" font-family="Arial" font-size="14.00" fill="#666666">[TEXT]</text>
<polygon fill="none" stroke="#000000" points="374.5,-1082.5 374.5,-1112.5 600.5,-1112.5 600.5,-1082.5 374.5,-1082.5"/>
<text text-anchor="start" x="381.5" y="-1093.9" font-family="Arial" font-size="14.00" fill="#000000">honorific_prefix    </text>
<text text-anchor="start" x="510.6052" y="-1093.9" font-family="Arial" font-size="14.00" fill="#666666">[TEXT]</text>
<polygon fill="none" stroke="#000000" points="374.5,-1052.5 374.5,-1082.5 600.5,-1082.5 600.5,-1052.5 374.5,-1052.5"/>
<text text-anchor="start" x="381.5" y="-1063.9" font-family="Arial" font-size="14.00" fill="#000000">honorific_suffix    </text>
<text text-anchor="start" x="509.0526" y="-1063.9" font-family="Arial" font-size="14.00" fill="#666666">[TEXT]</text>
<polygon fill="none" stroke="#000000" points="374.5,-1022.5 374.5,-1052.5 600.5,-1052.5 600.5,-1022.5 374.5,-1022.5"/>
<text text-anchor="start" x="381.5" y="-1033.9" font-family="Arial" font-size="14.00" fill="#000000">gender_id    </text>
<text text-anchor="start" x="477.9502" y="-1033.9" font-family="Arial" font-size="14.00" fill="#666666">[TEXT]</text>
<polygon fill="none" stroke="#000000" points="374.5,-992.5 374.5,-1022.5 600.5,-1022.5 600.5,-992.5 374.5,-992.5"/>
<text text-anchor="start" x="381.5" y="-1003.9" font-family="Arial" font-size="14.00" fill="#000000">elaboration    </text>
<text text-anchor="start" x="484.9474" y="-1003.9" font-family="Arial" font-size="14.00" fill="#666666">[TEXT]</text>
<polygon fill="none" stroke="#000000" points="374.5,-962.5 374.5,-992.5 600.5,-992.5 600.5,-962.5 374.5,-962.5"/>
<text text-anchor="start" x="381.5" y="-973.9" font-family="Arial" font-size="14.00" fill="#000000">created_at    </text>
<text text-anchor="start" x="481.8422" y="-973.9" font-family="Arial" font-size="14.00" fill="#666666">[TIMESTAMPTZ]</text>
<polygon fill="none" stroke="#000000" points="374.5,-932.5 374.5,-962.5 600.5,-962.5 600.5,-932.5 374.5,-932.5"/>
<text text-anchor="start" x="381.5" y="-943.9" font-family="Arial" font-size="14.00" fill="#000000">created_by    </text>
<text text-anchor="start" x="484.9516" y="-943.9" font-family="Arial" font-size="14.00" fill="#666666">[TEXT]</text>
<polygon fill="none" stroke="#000000" points="374.5,-902.5 374.5,-932.5 600.5,-932.5 600.5,-902.5 374.5,-902.5"/>
<text text-anchor="start" x="381.5" y="-913.9" font-family="Arial" font-size="14.00" fill="#000000">updated_at    </text>
<text text-anchor="start" x="485.7468" y="-913.9" font-family="Arial" font-size="14.00" fill="#666666">[TIMESTAMPTZ]</text>
<polygon fill="none" stroke="#000000" points="374.5,-872.5 374.5,-902.5 600.5,-902.5 600.5,-872.5 374.5,-872.5"/>
<text text-anchor="start" x="381.5" y="-883.9" font-family="Arial" font-size="14.00" fill="#000000">updated_by    </text>
<text text-anchor="start" x="488.8562" y="-883.9" font-family="Arial" font-size="14.00" fill="#666666">[TEXT]</text>
<polygon fill="none" stroke="#000000" points="374.5,-842.5 374.5,-872.5 600.5,-872.5 600.5,-842.5 374.5,-842.5"/>
<text text-anchor="start" x="381.5" y="-853.9" font-family="Arial" font-size="14.00" fill="#000000">deleted_at    </text>
<text text-anchor="start" x="481.0708" y="-853.9" font-family="Arial" font-size="14.00" fill="#666666">[TIMESTAMPTZ]</text>
<polygon fill="none" stroke="#000000" points="374.5,-812.5 374.5,-842.5 600.5,-842.5 600.5,-812.5 374.5,-812.5"/>
<text text-anchor="start" x="381.5" y="-823.9" font-family="Arial" font-size="14.00" fill="#000000">deleted_by    </text>
<text text-anchor="start" x="484.1802" y="-823.9" font-family="Arial" font-size="14.00" fill="#666666">[TEXT]</text>
<polygon fill="none" stroke="#000000" points="374.5,-782.5 374.5,-812.5 600.5,-812.5 600.5,-782.5 374.5,-782.5"/>
<text text-anchor="start" x="381.5" y="-793.9" font-family="Arial" font-size="14.00" fill="#000000">activity_log    </text>
<text text-anchor="start" x="484.9362" y="-793.9" font-family="Arial" font-size="14.00" fill="#666666">[TEXT]</text>
</g>
<!-- person&#45;&gt;party -->
<g id="edge4" class="edge">
<title>person:person_id&#45;&gt;party:party_id</title>
<path fill="none" stroke="#000000" d="M609.4389,-1212.9865C651.8853,-1167.2194 637.4444,-787.824 652.5,-740 672.2102,-677.3909 657.8616,-610.5 723.5,-610.5"/>
<polygon fill="#000000" stroke="#000000" points="609.4266,-1212.9926 598.4717,-1213.483 604.9633,-1215.2463 600.5,-1217.5 600.5,-1217.5 600.5,-1217.5 604.9633,-1215.2463 602.5283,-1221.517 609.4266,-1212.9926 609.4266,-1212.9926"/>
</g>
<!-- organization -->
<g id="node5" class="node">
<title>organization</title>
<polygon fill="#efefef" stroke="transparent" points="705.5,-1232.5 705.5,-1267.5 964.5,-1267.5 964.5,-1232.5 705.5,-1232.5"/>
<polygon fill="none" stroke="#000000" points="705.5,-1232.5 705.5,-1267.5 964.5,-1267.5 964.5,-1232.5 705.5,-1232.5"/>
<text text-anchor="start" x="749.8214" y="-1245.3" font-family="Arial Bold" font-size="18.00" fill="#000000">organization</text>
<text text-anchor="start" x="847.8476" y="-1245.3" font-family="Arial" font-size="14.00" fill="#000000">    </text>
<text text-anchor="start" x="882.0524" y="-1245.3" font-family="Arial" font-size="14.00" fill="#666666">[table]</text>
<polygon fill="none" stroke="#000000" points="705.5,-1202.5 705.5,-1232.5 964.5,-1232.5 964.5,-1202.5 705.5,-1202.5"/>
<text text-anchor="start" x="712.5" y="-1213.9" font-family="Arial" font-size="14.00" fill="#000000">organization_id    </text>
<text text-anchor="start" x="841.6192" y="-1213.9" font-family="Arial" font-size="14.00" fill="#666666">[VARCHAR]</text>
<polygon fill="none" stroke="#000000" points="705.5,-1172.5 705.5,-1202.5 964.5,-1202.5 964.5,-1172.5 705.5,-1172.5"/>
<text text-anchor="start" x="712.5" y="-1183.9" font-family="Arial" font-size="14.00" fill="#000000">name    </text>
<text text-anchor="start" x="781.7132" y="-1183.9" font-family="Arial" font-size="14.00" fill="#666666">[TEXT]</text>
<polygon fill="none" stroke="#000000" points="705.5,-1142.5 705.5,-1172.5 964.5,-1172.5 964.5,-1142.5 705.5,-1142.5"/>
<text text-anchor="start" x="712.5" y="-1153.9" font-family="Arial" font-size="14.00" fill="#000000">alias    </text>
<text text-anchor="start" x="775.4832" y="-1153.9" font-family="Arial" font-size="14.00" fill="#666666">[TEXT]</text>
<polygon fill="none" stroke="#000000" points="705.5,-1112.5 705.5,-1142.5 964.5,-1142.5 964.5,-1112.5 705.5,-1112.5"/>
<text text-anchor="start" x="712.5" y="-1123.9" font-family="Arial" font-size="14.00" fill="#000000">description    </text>
<text text-anchor="start" x="814.3822" y="-1123.9" font-family="Arial" font-size="14.00" fill="#666666">[TEXT]</text>
<polygon fill="none" stroke="#000000" points="705.5,-1082.5 705.5,-1112.5 964.5,-1112.5 964.5,-1082.5 705.5,-1082.5"/>
<text text-anchor="start" x="712.5" y="-1093.9" font-family="Arial" font-size="14.00" fill="#000000">license    </text>
<text text-anchor="start" x="790.2658" y="-1093.9" font-family="Arial" font-size="14.00" fill="#666666">[TEXT]</text>
<polygon fill="none" stroke="#000000" points="705.5,-1052.5 705.5,-1082.5 964.5,-1082.5 964.5,-1052.5 705.5,-1052.5"/>
<text text-anchor="start" x="712.5" y="-1063.9" font-family="Arial" font-size="14.00" fill="#000000">federal_tax_id_num    </text>
<text text-anchor="start" x="869.629" y="-1063.9" font-family="Arial" font-size="14.00" fill="#666666">[TEXT]</text>
<polygon fill="none" stroke="#000000" points="705.5,-1022.5 705.5,-1052.5 964.5,-1052.5 964.5,-1022.5 705.5,-1022.5"/>
<text text-anchor="start" x="712.4979" y="-1033.9" font-family="Arial" font-size="14.00" fill="#000000">registration_date    </text>
<text text-anchor="start" x="850.9523" y="-1033.9" font-family="Arial" font-size="14.00" fill="#666666">[TIMESTAMPTZ]</text>
<polygon fill="none" stroke="#000000" points="705.5,-992.5 705.5,-1022.5 964.5,-1022.5 964.5,-992.5 705.5,-992.5"/>
<text text-anchor="start" x="712.5" y="-1003.9" font-family="Arial" font-size="14.00" fill="#000000">elaboration    </text>
<text text-anchor="start" x="815.9474" y="-1003.9" font-family="Arial" font-size="14.00" fill="#666666">[TEXT]</text>
<polygon fill="none" stroke="#000000" points="705.5,-962.5 705.5,-992.5 964.5,-992.5 964.5,-962.5 705.5,-962.5"/>
<text text-anchor="start" x="712.5" y="-973.9" font-family="Arial" font-size="14.00" fill="#000000">created_at    </text>
<text text-anchor="start" x="812.8422" y="-973.9" font-family="Arial" font-size="14.00" fill="#666666">[TIMESTAMPTZ]</text>
<polygon fill="none" stroke="#000000" points="705.5,-932.5 705.5,-962.5 964.5,-962.5 964.5,-932.5 705.5,-932.5"/>
<text text-anchor="start" x="712.5" y="-943.9" font-family="Arial" font-size="14.00" fill="#000000">created_by    </text>
<text text-anchor="start" x="815.9516" y="-943.9" font-family="Arial" font-size="14.00" fill="#666666">[TEXT]</text>
<polygon fill="none" stroke="#000000" points="705.5,-902.5 705.5,-932.5 964.5,-932.5 964.5,-902.5 705.5,-902.5"/>
<text text-anchor="start" x="712.5" y="-913.9" font-family="Arial" font-size="14.00" fill="#000000">updated_at    </text>
<text text-anchor="start" x="816.7468" y="-913.9" font-family="Arial" font-size="14.00" fill="#666666">[TIMESTAMPTZ]</text>
<polygon fill="none" stroke="#000000" points="705.5,-872.5 705.5,-902.5 964.5,-902.5 964.5,-872.5 705.5,-872.5"/>
<text text-anchor="start" x="712.5" y="-883.9" font-family="Arial" font-size="14.00" fill="#000000">updated_by    </text>
<text text-anchor="start" x="819.8562" y="-883.9" font-family="Arial" font-size="14.00" fill="#666666">[TEXT]</text>
<polygon fill="none" stroke="#000000" points="705.5,-842.5 705.5,-872.5 964.5,-872.5 964.5,-842.5 705.5,-842.5"/>
<text text-anchor="start" x="712.5" y="-853.9" font-family="Arial" font-size="14.00" fill="#000000">deleted_at    </text>
<text text-anchor="start" x="812.0708" y="-853.9" font-family="Arial" font-size="14.00" fill="#666666">[TIMESTAMPTZ]</text>
<polygon fill="none" stroke="#000000" points="705.5,-812.5 705.5,-842.5 964.5,-842.5 964.5,-812.5 705.5,-812.5"/>
<text text-anchor="start" x="712.5" y="-823.9" font-family="Arial" font-size="14.00" fill="#000000">deleted_by    </text>
<text text-anchor="start" x="815.1802" y="-823.9" font-family="Arial" font-size="14.00" fill="#666666">[TEXT]</text>
<polygon fill="none" stroke="#000000" points="705.5,-782.5 705.5,-812.5 964.5,-812.5 964.5,-782.5 705.5,-782.5"/>
<text text-anchor="start" x="712.5" y="-793.9" font-family="Arial" font-size="14.00" fill="#000000">activity_log    </text>
<text text-anchor="start" x="815.9362" y="-793.9" font-family="Arial" font-size="14.00" fill="#666666">[TEXT]</text>
</g>
<!-- organization&#45;&gt;party -->
<g id="edge5" class="edge">
<title>organization:organization_id&#45;&gt;party:party_id</title>
<path fill="none" stroke="#000000" d="M973.6238,-1212.579C1015.1895,-1164.3877 996.9694,-777.6798 964.5,-740 893.8035,-657.9586 794.1965,-786.0414 723.5,-704 696.3731,-672.5199 681.9444,-610.5 723.5,-610.5"/>
<polygon fill="#000000" stroke="#000000" points="973.3014,-1212.7528 962.3638,-1213.5394 968.9007,-1215.1264 964.5,-1217.5 964.5,-1217.5 964.5,-1217.5 968.9007,-1215.1264 966.6362,-1221.4606 973.3014,-1212.7528 973.3014,-1212.7528"/>
</g>
<!-- organization_role -->
<g id="node6" class="node">
<title>organization_role</title>
<polygon fill="#efefef" stroke="transparent" points="1068.5,-1187.5 1068.5,-1222.5 1320.5,-1222.5 1320.5,-1187.5 1068.5,-1187.5"/>
<polygon fill="none" stroke="#000000" points="1068.5,-1187.5 1068.5,-1222.5 1320.5,-1222.5 1320.5,-1187.5 1068.5,-1187.5"/>
<text text-anchor="start" x="1089.3189" y="-1200.3" font-family="Arial Bold" font-size="18.00" fill="#000000">organization_role</text>
<text text-anchor="start" x="1227.3501" y="-1200.3" font-family="Arial" font-size="14.00" fill="#000000">    </text>
<text text-anchor="start" x="1261.5549" y="-1200.3" font-family="Arial" font-size="14.00" fill="#666666">[table]</text>
<polygon fill="none" stroke="#000000" points="1068.5,-1157.5 1068.5,-1187.5 1320.5,-1187.5 1320.5,-1157.5 1068.5,-1157.5"/>
<text text-anchor="start" x="1075.5" y="-1168.9" font-family="Arial" font-size="14.00" fill="#000000">organization_role_id    </text>
<text text-anchor="start" x="1235.7342" y="-1168.9" font-family="Arial" font-size="14.00" fill="#666666">[VARCHAR]</text>
<polygon fill="none" stroke="#000000" points="1068.5,-1127.5 1068.5,-1157.5 1320.5,-1157.5 1320.5,-1127.5 1068.5,-1127.5"/>
<text text-anchor="start" x="1075.5" y="-1138.9" font-family="Arial" font-size="14.00" fill="#000000">person_id    </text>
<text text-anchor="start" x="1171.1676" y="-1138.9" font-family="Arial" font-size="14.00" fill="#666666">[VARCHAR]</text>
<polygon fill="none" stroke="#000000" points="1068.5,-1097.5 1068.5,-1127.5 1320.5,-1127.5 1320.5,-1097.5 1068.5,-1097.5"/>
<text text-anchor="start" x="1075.5" y="-1108.9" font-family="Arial" font-size="14.00" fill="#000000">organization_id    </text>
<text text-anchor="start" x="1204.6192" y="-1108.9" font-family="Arial" font-size="14.00" fill="#666666">[VARCHAR]</text>
<polygon fill="none" stroke="#000000" points="1068.5,-1067.5 1068.5,-1097.5 1320.5,-1097.5 1320.5,-1067.5 1068.5,-1067.5"/>
<text text-anchor="start" x="1075.4839" y="-1078.9" font-family="Arial" font-size="14.00" fill="#000000">organization_role_type_id    </text>
<text text-anchor="start" x="1269.9565" y="-1078.9" font-family="Arial" font-size="14.00" fill="#666666">[TEXT]</text>
<polygon fill="none" stroke="#000000" points="1068.5,-1037.5 1068.5,-1067.5 1320.5,-1067.5 1320.5,-1037.5 1068.5,-1037.5"/>
<text text-anchor="start" x="1075.5" y="-1048.9" font-family="Arial" font-size="14.00" fill="#000000">elaboration    </text>
<text text-anchor="start" x="1178.9474" y="-1048.9" font-family="Arial" font-size="14.00" fill="#666666">[TEXT]</text>
<polygon fill="none" stroke="#000000" points="1068.5,-1007.5 1068.5,-1037.5 1320.5,-1037.5 1320.5,-1007.5 1068.5,-1007.5"/>
<text text-anchor="start" x="1075.5" y="-1018.9" font-family="Arial" font-size="14.00" fill="#000000">created_at    </text>
<text text-anchor="start" x="1175.8422" y="-1018.9" font-family="Arial" font-size="14.00" fill="#666666">[TIMESTAMPTZ]</text>
<polygon fill="none" stroke="#000000" points="1068.5,-977.5 1068.5,-1007.5 1320.5,-1007.5 1320.5,-977.5 1068.5,-977.5"/>
<text text-anchor="start" x="1075.5" y="-988.9" font-family="Arial" font-size="14.00" fill="#000000">created_by    </text>
<text text-anchor="start" x="1178.9516" y="-988.9" font-family="Arial" font-size="14.00" fill="#666666">[TEXT]</text>
<polygon fill="none" stroke="#000000" points="1068.5,-947.5 1068.5,-977.5 1320.5,-977.5 1320.5,-947.5 1068.5,-947.5"/>
<text text-anchor="start" x="1075.5" y="-958.9" font-family="Arial" font-size="14.00" fill="#000000">updated_at    </text>
<text text-anchor="start" x="1179.7468" y="-958.9" font-family="Arial" font-size="14.00" fill="#666666">[TIMESTAMPTZ]</text>
<polygon fill="none" stroke="#000000" points="1068.5,-917.5 1068.5,-947.5 1320.5,-947.5 1320.5,-917.5 1068.5,-917.5"/>
<text text-anchor="start" x="1075.5" y="-928.9" font-family="Arial" font-size="14.00" fill="#000000">updated_by    </text>
<text text-anchor="start" x="1182.8562" y="-928.9" font-family="Arial" font-size="14.00" fill="#666666">[TEXT]</text>
<polygon fill="none" stroke="#000000" points="1068.5,-887.5 1068.5,-917.5 1320.5,-917.5 1320.5,-887.5 1068.5,-887.5"/>
<text text-anchor="start" x="1075.5" y="-898.9" font-family="Arial" font-size="14.00" fill="#000000">deleted_at    </text>
<text text-anchor="start" x="1175.0708" y="-898.9" font-family="Arial" font-size="14.00" fill="#666666">[TIMESTAMPTZ]</text>
<polygon fill="none" stroke="#000000" points="1068.5,-857.5 1068.5,-887.5 1320.5,-887.5 1320.5,-857.5 1068.5,-857.5"/>
<text text-anchor="start" x="1075.5" y="-868.9" font-family="Arial" font-size="14.00" fill="#000000">deleted_by    </text>
<text text-anchor="start" x="1178.1802" y="-868.9" font-family="Arial" font-size="14.00" fill="#666666">[TEXT]</text>
<polygon fill="none" stroke="#000000" points="1068.5,-827.5 1068.5,-857.5 1320.5,-857.5 1320.5,-827.5 1068.5,-827.5"/>
<text text-anchor="start" x="1075.5" y="-838.9" font-family="Arial" font-size="14.00" fill="#000000">activity_log    </text>
<text text-anchor="start" x="1178.9362" y="-838.9" font-family="Arial" font-size="14.00" fill="#666666">[TEXT]</text>
</g>
<!-- organization_role&#45;&gt;party -->
<g id="edge6" class="edge">
<title>organization_role:organization_id&#45;&gt;party:party_id</title>
<path fill="none" stroke="#000000" d="M1058.4891,-1110.9172C989.6992,-1087.7137 1041.2157,-816.0749 1016.5,-740 996.3491,-677.9756 1012.7157,-610.5 947.5,-610.5"/>
<polygon fill="#000000" stroke="#000000" points="1058.6227,-1110.9383 1067.7972,-1116.9448 1063.5613,-1111.7191 1068.5,-1112.5 1068.5,-1112.5 1068.5,-1112.5 1063.5613,-1111.7191 1069.2028,-1108.0552 1058.6227,-1110.9383 1058.6227,-1110.9383"/>
</g>
<!-- organization_role&#45;&gt;party -->
<g id="edge7" class="edge">
<title>organization_role:person_id&#45;&gt;party:party_id</title>
<path fill="none" stroke="#000000" d="M1058.1718,-1140.94C983.5382,-1116.9183 1042.8033,-822.3919 1016.5,-740 996.6663,-677.8734 1012.7157,-610.5 947.5,-610.5"/>
<polygon fill="#000000" stroke="#000000" points="1058.6122,-1141.0064 1067.8279,-1146.9495 1063.5561,-1141.7532 1068.5,-1142.5 1068.5,-1142.5 1068.5,-1142.5 1063.5561,-1141.7532 1069.1721,-1138.0505 1058.6122,-1141.0064 1058.6122,-1141.0064"/>
</g>
<!-- device_party_relationship -->
<g id="node7" class="node">
<title>device_party_relationship</title>
<polygon fill="#efefef" stroke="transparent" points="1425.5,-1172.5 1425.5,-1207.5 1726.5,-1207.5 1726.5,-1172.5 1425.5,-1172.5"/>
<polygon fill="none" stroke="#000000" points="1425.5,-1172.5 1425.5,-1207.5 1726.5,-1207.5 1726.5,-1172.5 1425.5,-1172.5"/>
<text text-anchor="start" x="1437.8114" y="-1185.3" font-family="Arial Bold" font-size="18.00" fill="#000000">device_party_relationship</text>
<text text-anchor="start" x="1641.8576" y="-1185.3" font-family="Arial" font-size="14.00" fill="#000000">    </text>
<text text-anchor="start" x="1676.0624" y="-1185.3" font-family="Arial" font-size="14.00" fill="#666666">[table]</text>
<polygon fill="none" stroke="#000000" points="1425.5,-1142.5 1425.5,-1172.5 1726.5,-1172.5 1726.5,-1142.5 1425.5,-1142.5"/>
<text text-anchor="start" x="1432.1017" y="-1153.9" font-family="Arial" font-size="14.00" fill="#000000">device_party_relationship_id    </text>
<text text-anchor="start" x="1643.6809" y="-1153.9" font-family="Arial" font-size="14.00" fill="#666666">[VARCHAR]</text>
<polygon fill="none" stroke="#000000" points="1425.5,-1112.5 1425.5,-1142.5 1726.5,-1142.5 1726.5,-1112.5 1425.5,-1112.5"/>
<text text-anchor="start" x="1432.5" y="-1123.9" font-family="Arial" font-size="14.00" fill="#000000">device_id    </text>
<text text-anchor="start" x="1525.831" y="-1123.9" font-family="Arial" font-size="14.00" fill="#666666">[VARCHAR]</text>
<polygon fill="none" stroke="#000000" points="1425.5,-1082.5 1425.5,-1112.5 1726.5,-1112.5 1726.5,-1082.5 1425.5,-1082.5"/>
<text text-anchor="start" x="1432.5" y="-1093.9" font-family="Arial" font-size="14.00" fill="#000000">party_id    </text>
<text text-anchor="start" x="1516.493" y="-1093.9" font-family="Arial" font-size="14.00" fill="#666666">[VARCHAR]</text>
<polygon fill="none" stroke="#000000" points="1425.5,-1052.5 1425.5,-1082.5 1726.5,-1082.5 1726.5,-1052.5 1425.5,-1052.5"/>
<text text-anchor="start" x="1432.5" y="-1063.9" font-family="Arial" font-size="14.00" fill="#000000">elaboration    </text>
<text text-anchor="start" x="1535.9474" y="-1063.9" font-family="Arial" font-size="14.00" fill="#666666">[TEXT]</text>
<polygon fill="none" stroke="#000000" points="1425.5,-1022.5 1425.5,-1052.5 1726.5,-1052.5 1726.5,-1022.5 1425.5,-1022.5"/>
<text text-anchor="start" x="1432.5" y="-1033.9" font-family="Arial" font-size="14.00" fill="#000000">created_at    </text>
<text text-anchor="start" x="1532.8422" y="-1033.9" font-family="Arial" font-size="14.00" fill="#666666">[TIMESTAMPTZ]</text>
<polygon fill="none" stroke="#000000" points="1425.5,-992.5 1425.5,-1022.5 1726.5,-1022.5 1726.5,-992.5 1425.5,-992.5"/>
<text text-anchor="start" x="1432.5" y="-1003.9" font-family="Arial" font-size="14.00" fill="#000000">created_by    </text>
<text text-anchor="start" x="1535.9516" y="-1003.9" font-family="Arial" font-size="14.00" fill="#666666">[TEXT]</text>
<polygon fill="none" stroke="#000000" points="1425.5,-962.5 1425.5,-992.5 1726.5,-992.5 1726.5,-962.5 1425.5,-962.5"/>
<text text-anchor="start" x="1432.5" y="-973.9" font-family="Arial" font-size="14.00" fill="#000000">updated_at    </text>
<text text-anchor="start" x="1536.7468" y="-973.9" font-family="Arial" font-size="14.00" fill="#666666">[TIMESTAMPTZ]</text>
<polygon fill="none" stroke="#000000" points="1425.5,-932.5 1425.5,-962.5 1726.5,-962.5 1726.5,-932.5 1425.5,-932.5"/>
<text text-anchor="start" x="1432.5" y="-943.9" font-family="Arial" font-size="14.00" fill="#000000">updated_by    </text>
<text text-anchor="start" x="1539.8562" y="-943.9" font-family="Arial" font-size="14.00" fill="#666666">[TEXT]</text>
<polygon fill="none" stroke="#000000" points="1425.5,-902.5 1425.5,-932.5 1726.5,-932.5 1726.5,-902.5 1425.5,-902.5"/>
<text text-anchor="start" x="1432.5" y="-913.9" font-family="Arial" font-size="14.00" fill="#000000">deleted_at    </text>
<text text-anchor="start" x="1532.0708" y="-913.9" font-family="Arial" font-size="14.00" fill="#666666">[TIMESTAMPTZ]</text>
<polygon fill="none" stroke="#000000" points="1425.5,-872.5 1425.5,-902.5 1726.5,-902.5 1726.5,-872.5 1425.5,-872.5"/>
<text text-anchor="start" x="1432.5" y="-883.9" font-family="Arial" font-size="14.00" fill="#000000">deleted_by    </text>
<text text-anchor="start" x="1535.1802" y="-883.9" font-family="Arial" font-size="14.00" fill="#666666">[TEXT]</text>
<polygon fill="none" stroke="#000000" points="1425.5,-842.5 1425.5,-872.5 1726.5,-872.5 1726.5,-842.5 1425.5,-842.5"/>
<text text-anchor="start" x="1432.5" y="-853.9" font-family="Arial" font-size="14.00" fill="#000000">activity_log    </text>
<text text-anchor="start" x="1535.9362" y="-853.9" font-family="Arial" font-size="14.00" fill="#666666">[TEXT]</text>
</g>
<!-- device_party_relationship&#45;&gt;party -->
<g id="edge8" class="edge">
<title>device_party_relationship:party_id&#45;&gt;party:party_id</title>
<path fill="none" stroke="#000000" d="M1415.619,-1095.7524C1352.0839,-1071.3235 1422.563,-798.1149 1372.5,-740 1308.0609,-665.1969 1046.2315,-610.5 947.5,-610.5"/>
<polygon fill="#000000" stroke="#000000" points="1415.6528,-1095.7583 1424.7162,-1101.9312 1420.5764,-1096.6291 1425.5,-1097.5 1425.5,-1097.5 1425.5,-1097.5 1420.5764,-1096.6291 1426.2838,-1093.0688 1415.6528,-1095.7583 1415.6528,-1095.7583"/>
</g>
</g>
</svg>
