<?xml version="1.0" encoding="UTF-8" standalone="no"?>
<!DOCTYPE svg PUBLIC "-//W3C//DTD SVG 1.1//EN"
 "http://www.w3.org/Graphics/SVG/1.1/DTD/svg11.dtd">
<!-- Generated by graphviz version 12.1.2 (20240928.0832)
 -->
<!-- Title: party_relation_type Pages: 1 -->
<svg width="625pt" height="996pt"
 viewBox="0.00 0.00 625.32 996.40" xmlns="http://www.w3.org/2000/svg" xmlns:xlink="http://www.w3.org/1999/xlink">
<g id="graph0" class="graph" transform="scale(1 1) rotate(0) translate(4 992.4)">
<title>party_relation_type</title>
<polygon fill="white" stroke="none" points="-4,4 -4,-992.4 621.32,-992.4 621.32,4 -4,4"/>
<!-- party_relation_type -->
<g id="node1" class="node">
<title>party_relation_type</title>
<polygon fill="#efefef" stroke="none" points="46.2,-366.6 46.2,-402.2 270.41,-402.2 270.41,-366.6 46.2,-366.6"/>
<polygon fill="none" stroke="black" points="46.2,-366.6 46.2,-402.2 270.41,-402.2 270.41,-366.6 46.2,-366.6"/>
<text text-anchor="start" x="53.2" y="-380" font-family="Arial Bold" font-size="18.00">party_relation_type</text>
<text text-anchor="start" x="194.15" y="-380" font-family="Arial" font-size="14.00">    </text>
<text text-anchor="start" x="225.27" y="-380" font-family="Arial" font-size="14.00" fill="#666666">[table]</text>
<polygon fill="none" stroke="black" points="46.2,-335.8 46.2,-366.6 270.41,-366.6 270.41,-335.8 46.2,-335.8"/>
<text text-anchor="start" x="53.2" y="-348" font-family="Arial" font-size="14.00">party_relation_type_id </text>
<text text-anchor="start" x="194.85" y="-348" font-family="Arial" font-size="14.00" fill="#666666">[ULID]</text>
<polygon fill="none" stroke="black" points="46.2,-305 46.2,-335.8 270.41,-335.8 270.41,-305 46.2,-305"/>
<text text-anchor="start" x="53.2" y="-317.2" font-family="Arial" font-size="14.00">code </text>
<text text-anchor="start" x="87.45" y="-317.2" font-family="Arial" font-size="14.00" fill="#666666">[TEXT]</text>
<polygon fill="none" stroke="black" points="46.2,-274.2 46.2,-305 270.41,-305 270.41,-274.2 46.2,-274.2"/>
<text text-anchor="start" x="53.2" y="-286.4" font-family="Arial" font-size="14.00">value </text>
<text text-anchor="start" x="90.56" y="-286.4" font-family="Arial" font-size="14.00" fill="#666666">[TEXT]</text>
<polygon fill="none" stroke="black" points="46.2,-243.4 46.2,-274.2 270.41,-274.2 270.41,-243.4 46.2,-243.4"/>
<text text-anchor="start" x="53.2" y="-255.6" font-family="Arial" font-size="14.00">created_at </text>
<text text-anchor="start" x="123.25" y="-255.6" font-family="Arial" font-size="14.00" fill="#666666">[TIMESTAMPTZ]</text>
<polygon fill="none" stroke="black" points="46.2,-212.6 46.2,-243.4 270.41,-243.4 270.41,-212.6 46.2,-212.6"/>
<text text-anchor="start" x="53.2" y="-224.8" font-family="Arial" font-size="14.00">created_by </text>
<text text-anchor="start" x="126.36" y="-224.8" font-family="Arial" font-size="14.00" fill="#666666">[TEXT]</text>
<polygon fill="none" stroke="black" points="46.2,-181.8 46.2,-212.6 270.41,-212.6 270.41,-181.8 46.2,-181.8"/>
<text text-anchor="start" x="53.2" y="-194" font-family="Arial" font-size="14.00">updated_at </text>
<text text-anchor="start" x="127.16" y="-194" font-family="Arial" font-size="14.00" fill="#666666">[TIMESTAMPTZ]</text>
<polygon fill="none" stroke="black" points="46.2,-151 46.2,-181.8 270.41,-181.8 270.41,-151 46.2,-151"/>
<text text-anchor="start" x="53.2" y="-163.2" font-family="Arial" font-size="14.00">updated_by </text>
<text text-anchor="start" x="130.27" y="-163.2" font-family="Arial" font-size="14.00" fill="#666666">[TEXT]</text>
<polygon fill="none" stroke="black" points="46.2,-120.2 46.2,-151 270.41,-151 270.41,-120.2 46.2,-120.2"/>
<text text-anchor="start" x="53.2" y="-132.4" font-family="Arial" font-size="14.00">deleted_at </text>
<text text-anchor="start" x="122.48" y="-132.4" font-family="Arial" font-size="14.00" fill="#666666">[TIMESTAMPTZ]</text>
<polygon fill="none" stroke="black" points="46.2,-89.4 46.2,-120.2 270.41,-120.2 270.41,-89.4 46.2,-89.4"/>
<text text-anchor="start" x="53.2" y="-101.6" font-family="Arial" font-size="14.00">deleted_by </text>
<text text-anchor="start" x="125.59" y="-101.6" font-family="Arial" font-size="14.00" fill="#666666">[TEXT]</text>
<polygon fill="none" stroke="black" points="46.2,-58.6 46.2,-89.4 270.41,-89.4 270.41,-58.6 46.2,-58.6"/>
<text text-anchor="start" x="53.2" y="-70.8" font-family="Arial" font-size="14.00">activity_log </text>
<text text-anchor="start" x="126.34" y="-70.8" font-family="Arial" font-size="14.00" fill="#666666">[TEXT]</text>
<polygon fill="none" stroke="black" stroke-width="3" points="44.7,-57.1 44.7,-403.7 271.91,-403.7 271.91,-57.1 44.7,-57.1"/>
</g>
<!-- party_relation -->
<g id="node2" class="node">
<title>party_relation</title>
<polygon fill="#efefef" stroke="none" points="376.49,-909.6 376.49,-945.2 574.12,-945.2 574.12,-909.6 376.49,-909.6"/>
<polygon fill="none" stroke="black" points="376.49,-909.6 376.49,-945.2 574.12,-945.2 574.12,-909.6 376.49,-909.6"/>
<text text-anchor="start" x="390.2" y="-923" font-family="Arial Bold" font-size="18.00">party_relation</text>
<text text-anchor="start" x="491.16" y="-923" font-family="Arial" font-size="14.00">    </text>
<text text-anchor="start" x="522.27" y="-923" font-family="Arial" font-size="14.00" fill="#666666">[table]</text>
<polygon fill="none" stroke="black" points="376.49,-878.8 376.49,-909.6 574.12,-909.6 574.12,-878.8 376.49,-878.8"/>
<text text-anchor="start" x="383.49" y="-891" font-family="Arial" font-size="14.00">party_relation_id </text>
<text text-anchor="start" x="490.89" y="-891" font-family="Arial" font-size="14.00" fill="#666666">[VARCHAR]</text>
<polygon fill="none" stroke="black" points="376.49,-848 376.49,-878.8 574.12,-878.8 574.12,-848 376.49,-848"/>
<text text-anchor="start" x="383.49" y="-860.2" font-family="Arial" font-size="14.00">party_id </text>
<text text-anchor="start" x="437.18" y="-860.2" font-family="Arial" font-size="14.00" fill="#666666">[VARCHAR]</text>
<polygon fill="none" stroke="black" points="376.49,-817.2 376.49,-848 574.12,-848 574.12,-817.2 376.49,-817.2"/>
<text text-anchor="start" x="383.49" y="-829.4" font-family="Arial" font-size="14.00">related_party_id </text>
<text text-anchor="start" x="487.77" y="-829.4" font-family="Arial" font-size="14.00" fill="#666666">[VARCHAR]</text>
<polygon fill="none" stroke="black" points="376.49,-786.4 376.49,-817.2 574.12,-817.2 574.12,-786.4 376.49,-786.4"/>
<text text-anchor="start" x="383.49" y="-798.6" font-family="Arial" font-size="14.00">relation_type_id </text>
<text text-anchor="start" x="486.22" y="-798.6" font-family="Arial" font-size="14.00" fill="#666666">[ULID]</text>
<polygon fill="none" stroke="black" points="376.49,-755.6 376.49,-786.4 574.12,-786.4 574.12,-755.6 376.49,-755.6"/>
<text text-anchor="start" x="383.49" y="-767.8" font-family="Arial" font-size="14.00">elaboration </text>
<text text-anchor="start" x="456.65" y="-767.8" font-family="Arial" font-size="14.00" fill="#666666">[TEXT]</text>
<polygon fill="none" stroke="black" points="376.49,-724.8 376.49,-755.6 574.12,-755.6 574.12,-724.8 376.49,-724.8"/>
<text text-anchor="start" x="383.49" y="-737" font-family="Arial" font-size="14.00">created_at </text>
<text text-anchor="start" x="453.53" y="-737" font-family="Arial" font-size="14.00" fill="#666666">[TIMESTAMPTZ]</text>
<polygon fill="none" stroke="black" points="376.49,-694 376.49,-724.8 574.12,-724.8 574.12,-694 376.49,-694"/>
<text text-anchor="start" x="383.49" y="-706.2" font-family="Arial" font-size="14.00">created_by </text>
<text text-anchor="start" x="456.64" y="-706.2" font-family="Arial" font-size="14.00" fill="#666666">[TEXT]</text>
<polygon fill="none" stroke="black" points="376.49,-663.2 376.49,-694 574.12,-694 574.12,-663.2 376.49,-663.2"/>
<text text-anchor="start" x="383.49" y="-675.4" font-family="Arial" font-size="14.00">updated_at </text>
<text text-anchor="start" x="457.44" y="-675.4" font-family="Arial" font-size="14.00" fill="#666666">[TIMESTAMPTZ]</text>
<polygon fill="none" stroke="black" points="376.49,-632.4 376.49,-663.2 574.12,-663.2 574.12,-632.4 376.49,-632.4"/>
<text text-anchor="start" x="383.49" y="-644.6" font-family="Arial" font-size="14.00">updated_by </text>
<text text-anchor="start" x="460.55" y="-644.6" font-family="Arial" font-size="14.00" fill="#666666">[TEXT]</text>
<polygon fill="none" stroke="black" points="376.49,-601.6 376.49,-632.4 574.12,-632.4 574.12,-601.6 376.49,-601.6"/>
<text text-anchor="start" x="383.49" y="-613.8" font-family="Arial" font-size="14.00">deleted_at </text>
<text text-anchor="start" x="452.77" y="-613.8" font-family="Arial" font-size="14.00" fill="#666666">[TIMESTAMPTZ]</text>
<polygon fill="none" stroke="black" points="376.49,-570.8 376.49,-601.6 574.12,-601.6 574.12,-570.8 376.49,-570.8"/>
<text text-anchor="start" x="383.49" y="-583" font-family="Arial" font-size="14.00">deleted_by </text>
<text text-anchor="start" x="455.88" y="-583" font-family="Arial" font-size="14.00" fill="#666666">[TEXT]</text>
<polygon fill="none" stroke="black" points="376.49,-540 376.49,-570.8 574.12,-570.8 574.12,-540 376.49,-540"/>
<text text-anchor="start" x="383.49" y="-552.2" font-family="Arial" font-size="14.00">activity_log </text>
<text text-anchor="start" x="456.63" y="-552.2" font-family="Arial" font-size="14.00" fill="#666666">[TEXT]</text>
</g>
<!-- party_relation&#45;&gt;party_relation_type -->
<g id="edge1" class="edge">
<title>party_relation:relation_type_id&#45;&gt;party_relation_type:party_relation_type_id</title>
<path fill="none" stroke="black" d="M365.39,-800.17C279.6,-770.67 370.56,-351.2 271.41,-351.2"/>
<polygon fill="black" stroke="black" points="365.28,-800.15 374.44,-806.19 370.55,-801 374.83,-801.69 374.83,-801.69 374.83,-801.69 370.55,-801 375.87,-797.3 365.28,-800.15"/>
</g>
<!-- party -->
<g id="node3" class="node">
<title>party</title>
<polygon fill="#efefef" stroke="none" points="378.05,-382 378.05,-417.6 572.56,-417.6 572.56,-382 378.05,-382"/>
<polygon fill="none" stroke="black" points="378.05,-382 378.05,-417.6 572.56,-417.6 572.56,-382 378.05,-382"/>
<text text-anchor="start" x="422.18" y="-395.4" font-family="Arial Bold" font-size="18.00">party</text>
<text text-anchor="start" x="459.17" y="-395.4" font-family="Arial" font-size="14.00">    </text>
<text text-anchor="start" x="490.28" y="-395.4" font-family="Arial" font-size="14.00" fill="#666666">[table]</text>
<polygon fill="none" stroke="black" points="378.05,-351.2 378.05,-382 572.56,-382 572.56,-351.2 378.05,-351.2"/>
<text text-anchor="start" x="385.05" y="-363.4" font-family="Arial" font-size="14.00">party_id </text>
<text text-anchor="start" x="438.74" y="-363.4" font-family="Arial" font-size="14.00" fill="#666666">[VARCHAR]</text>
<polygon fill="none" stroke="black" points="378.05,-320.4 378.05,-351.2 572.56,-351.2 572.56,-320.4 378.05,-320.4"/>
<text text-anchor="start" x="385.05" y="-332.6" font-family="Arial" font-size="14.00">party_type_id </text>
<text text-anchor="start" x="472.99" y="-332.6" font-family="Arial" font-size="14.00" fill="#666666">[ULID]</text>
<polygon fill="none" stroke="black" points="378.05,-289.6 378.05,-320.4 572.56,-320.4 572.56,-289.6 378.05,-289.6"/>
<text text-anchor="start" x="385.05" y="-301.8" font-family="Arial" font-size="14.00">party_name </text>
<text text-anchor="start" x="462.87" y="-301.8" font-family="Arial" font-size="14.00" fill="#666666">[TEXT]</text>
<polygon fill="none" stroke="black" points="378.05,-258.8 378.05,-289.6 572.56,-289.6 572.56,-258.8 378.05,-258.8"/>
<text text-anchor="start" x="385.05" y="-271" font-family="Arial" font-size="14.00">elaboration </text>
<text text-anchor="start" x="458.21" y="-271" font-family="Arial" font-size="14.00" fill="#666666">[TEXT]</text>
<polygon fill="none" stroke="black" points="378.05,-228 378.05,-258.8 572.56,-258.8 572.56,-228 378.05,-228"/>
<text text-anchor="start" x="385.05" y="-240.2" font-family="Arial" font-size="14.00">created_at </text>
<text text-anchor="start" x="455.1" y="-240.2" font-family="Arial" font-size="14.00" fill="#666666">[TIMESTAMPTZ]</text>
<polygon fill="none" stroke="black" points="378.05,-197.2 378.05,-228 572.56,-228 572.56,-197.2 378.05,-197.2"/>
<text text-anchor="start" x="385.05" y="-209.4" font-family="Arial" font-size="14.00">created_by </text>
<text text-anchor="start" x="458.21" y="-209.4" font-family="Arial" font-size="14.00" fill="#666666">[TEXT]</text>
<polygon fill="none" stroke="black" points="378.05,-166.4 378.05,-197.2 572.56,-197.2 572.56,-166.4 378.05,-166.4"/>
<text text-anchor="start" x="385.05" y="-178.6" font-family="Arial" font-size="14.00">updated_at </text>
<text text-anchor="start" x="459.01" y="-178.6" font-family="Arial" font-size="14.00" fill="#666666">[TIMESTAMPTZ]</text>
<polygon fill="none" stroke="black" points="378.05,-135.6 378.05,-166.4 572.56,-166.4 572.56,-135.6 378.05,-135.6"/>
<text text-anchor="start" x="385.05" y="-147.8" font-family="Arial" font-size="14.00">updated_by </text>
<text text-anchor="start" x="462.12" y="-147.8" font-family="Arial" font-size="14.00" fill="#666666">[TEXT]</text>
<polygon fill="none" stroke="black" points="378.05,-104.8 378.05,-135.6 572.56,-135.6 572.56,-104.8 378.05,-104.8"/>
<text text-anchor="start" x="385.05" y="-117" font-family="Arial" font-size="14.00">deleted_at </text>
<text text-anchor="start" x="454.33" y="-117" font-family="Arial" font-size="14.00" fill="#666666">[TIMESTAMPTZ]</text>
<polygon fill="none" stroke="black" points="378.05,-74 378.05,-104.8 572.56,-104.8 572.56,-74 378.05,-74"/>
<text text-anchor="start" x="385.05" y="-86.2" font-family="Arial" font-size="14.00">deleted_by </text>
<text text-anchor="start" x="457.44" y="-86.2" font-family="Arial" font-size="14.00" fill="#666666">[TEXT]</text>
<polygon fill="none" stroke="black" points="378.05,-43.2 378.05,-74 572.56,-74 572.56,-43.2 378.05,-43.2"/>
<text text-anchor="start" x="385.05" y="-55.4" font-family="Arial" font-size="14.00">activity_log </text>
<text text-anchor="start" x="458.19" y="-55.4" font-family="Arial" font-size="14.00" fill="#666666">[TEXT]</text>
</g>
<!-- party_relation&#45;&gt;party -->
<g id="edge2" class="edge">
<title>party_relation:party_id&#45;&gt;party:party_id</title>
<path fill="none" stroke="black" d="M584.24,-858.48C629.95,-806.89 625.52,-366.6 573.56,-366.6"/>
<polygon fill="black" stroke="black" points="584.22,-858.5 573.28,-859.28 579.52,-861.03 575.71,-863.08 575.71,-863.08 575.71,-863.08 579.52,-861.03 577.55,-867.2 584.22,-858.5"/>
</g>
<!-- party_relation&#45;&gt;party -->
<g id="edge3" class="edge">
<title>party_relation:related_party_id&#45;&gt;party:party_id</title>
<path fill="none" stroke="black" d="M583.94,-827.68C626.52,-777.88 622.2,-366.6 573.56,-366.6"/>
<polygon fill="black" stroke="black" points="584.15,-827.57 573.22,-828.51 579.49,-830.16 575.7,-832.27 575.7,-832.27 575.7,-832.27 579.49,-830.16 577.6,-836.37 584.15,-827.57"/>
</g>
</g>
</svg>
