<?xml version="1.0" encoding="UTF-8" standalone="no"?>
<!DOCTYPE svg PUBLIC "-//W3C//DTD SVG 1.1//EN"
 "http://www.w3.org/Graphics/SVG/1.1/DTD/svg11.dtd">
<!-- Generated by graphviz version 2.40.1 (20161225.0304)
 -->
<!-- Title: party_relation_type Pages: 1 -->
<svg width="676pt" height="976pt"
 viewBox="0.00 0.00 675.50 976.00" xmlns="http://www.w3.org/2000/svg" xmlns:xlink="http://www.w3.org/1999/xlink">
<g id="graph0" class="graph" transform="scale(1 1) rotate(0) translate(4 972)">
<title>party_relation_type</title>
<polygon fill="#ffffff" stroke="transparent" points="-4,4 -4,-972 671.5048,-972 671.5048,4 -4,4"/>
<!-- party_relation_type -->
<g id="node1" class="node">
<title>party_relation_type</title>
<polygon fill="#efefef" stroke="transparent" points="46.5,-252.5 46.5,-287.5 285.5,-287.5 285.5,-252.5 46.5,-252.5"/>
<polygon fill="none" stroke="#000000" points="46.5,-252.5 46.5,-287.5 285.5,-287.5 285.5,-252.5 46.5,-252.5"/>
<text text-anchor="start" x="53.3138" y="-265.3" font-family="Arial Bold" font-size="18.00" fill="#000000">party_relation_type</text>
<text text-anchor="start" x="206.3552" y="-265.3" font-family="Arial" font-size="14.00" fill="#000000">    </text>
<text text-anchor="start" x="240.56" y="-265.3" font-family="Arial" font-size="14.00" fill="#666666">[table]</text>
<polygon fill="none" stroke="#000000" points="46.5,-222.5 46.5,-252.5 285.5,-252.5 285.5,-222.5 46.5,-222.5"/>
<text text-anchor="start" x="53.5" y="-233.9" font-family="Arial" font-size="14.00" fill="#000000">code </text>
<text text-anchor="start" x="87.7384" y="-233.9" font-family="Arial" font-size="14.00" fill="#666666">[TEXT]</text>
<polygon fill="none" stroke="#000000" points="46.5,-192.5 46.5,-222.5 285.5,-222.5 285.5,-192.5 46.5,-192.5"/>
<text text-anchor="start" x="53.5" y="-203.9" font-family="Arial" font-size="14.00" fill="#000000">value </text>
<text text-anchor="start" x="90.845" y="-203.9" font-family="Arial" font-size="14.00" fill="#666666">[TEXT]</text>
<polygon fill="none" stroke="#000000" points="46.5,-162.5 46.5,-192.5 285.5,-192.5 285.5,-162.5 46.5,-162.5"/>
<text text-anchor="start" x="53.5" y="-173.9" font-family="Arial" font-size="14.00" fill="#000000">created_at </text>
<text text-anchor="start" x="123.528" y="-173.9" font-family="Arial" font-size="14.00" fill="#666666">[TIMESTAMPTZ]</text>
<polygon fill="none" stroke="#000000" stroke-width="3" points="44.5,-161.5 44.5,-289.5 286.5,-289.5 286.5,-161.5 44.5,-161.5"/>
</g>
<!-- party_relation -->
<g id="node2" class="node">
<title>party_relation</title>
<polygon fill="#efefef" stroke="transparent" points="390.5,-889.5 390.5,-924.5 617.5,-924.5 617.5,-889.5 390.5,-889.5"/>
<polygon fill="none" stroke="#000000" points="390.5,-889.5 390.5,-924.5 617.5,-924.5 617.5,-889.5 390.5,-889.5"/>
<text text-anchor="start" x="413.3242" y="-902.3" font-family="Arial Bold" font-size="18.00" fill="#000000">party_relation</text>
<text text-anchor="start" x="522.3448" y="-902.3" font-family="Arial" font-size="14.00" fill="#000000">    </text>
<text text-anchor="start" x="556.5496" y="-902.3" font-family="Arial" font-size="14.00" fill="#666666">[table]</text>
<polygon fill="none" stroke="#000000" points="390.5,-859.5 390.5,-889.5 617.5,-889.5 617.5,-859.5 390.5,-859.5"/>
<text text-anchor="start" x="397.0561" y="-870.9" font-family="Arial" font-size="14.00" fill="#000000">party_relation_id    </text>
<text text-anchor="start" x="534.7265" y="-870.9" font-family="Arial" font-size="14.00" fill="#666666">[VARCHAR]</text>
<polygon fill="none" stroke="#000000" points="390.5,-829.5 390.5,-859.5 617.5,-859.5 617.5,-829.5 390.5,-829.5"/>
<text text-anchor="start" x="397.5" y="-840.9" font-family="Arial" font-size="14.00" fill="#000000">party_id    </text>
<text text-anchor="start" x="481.493" y="-840.9" font-family="Arial" font-size="14.00" fill="#666666">[VARCHAR]</text>
<polygon fill="none" stroke="#000000" points="390.5,-799.5 390.5,-829.5 617.5,-829.5 617.5,-799.5 390.5,-799.5"/>
<text text-anchor="start" x="397.5" y="-810.9" font-family="Arial" font-size="14.00" fill="#000000">related_party_id    </text>
<text text-anchor="start" x="532.0638" y="-810.9" font-family="Arial" font-size="14.00" fill="#666666">[VARCHAR]</text>
<polygon fill="none" stroke="#000000" points="390.5,-769.5 390.5,-799.5 617.5,-799.5 617.5,-769.5 390.5,-769.5"/>
<text text-anchor="start" x="397.5" y="-780.9" font-family="Arial" font-size="14.00" fill="#000000">relation_type_id    </text>
<text text-anchor="start" x="530.5098" y="-780.9" font-family="Arial" font-size="14.00" fill="#666666">[TEXT]</text>
<polygon fill="none" stroke="#000000" points="390.5,-739.5 390.5,-769.5 617.5,-769.5 617.5,-739.5 390.5,-739.5"/>
<text text-anchor="start" x="397.5" y="-750.9" font-family="Arial" font-size="14.00" fill="#000000">elaboration    </text>
<text text-anchor="start" x="500.9474" y="-750.9" font-family="Arial" font-size="14.00" fill="#666666">[TEXT]</text>
<polygon fill="none" stroke="#000000" points="390.5,-709.5 390.5,-739.5 617.5,-739.5 617.5,-709.5 390.5,-709.5"/>
<text text-anchor="start" x="397.5" y="-720.9" font-family="Arial" font-size="14.00" fill="#000000">created_at    </text>
<text text-anchor="start" x="497.8422" y="-720.9" font-family="Arial" font-size="14.00" fill="#666666">[TIMESTAMPTZ]</text>
<polygon fill="none" stroke="#000000" points="390.5,-679.5 390.5,-709.5 617.5,-709.5 617.5,-679.5 390.5,-679.5"/>
<text text-anchor="start" x="397.5" y="-690.9" font-family="Arial" font-size="14.00" fill="#000000">created_by    </text>
<text text-anchor="start" x="500.9516" y="-690.9" font-family="Arial" font-size="14.00" fill="#666666">[TEXT]</text>
<polygon fill="none" stroke="#000000" points="390.5,-649.5 390.5,-679.5 617.5,-679.5 617.5,-649.5 390.5,-649.5"/>
<text text-anchor="start" x="397.5" y="-660.9" font-family="Arial" font-size="14.00" fill="#000000">updated_at    </text>
<text text-anchor="start" x="501.7468" y="-660.9" font-family="Arial" font-size="14.00" fill="#666666">[TIMESTAMPTZ]</text>
<polygon fill="none" stroke="#000000" points="390.5,-619.5 390.5,-649.5 617.5,-649.5 617.5,-619.5 390.5,-619.5"/>
<text text-anchor="start" x="397.5" y="-630.9" font-family="Arial" font-size="14.00" fill="#000000">updated_by    </text>
<text text-anchor="start" x="504.8562" y="-630.9" font-family="Arial" font-size="14.00" fill="#666666">[TEXT]</text>
<polygon fill="none" stroke="#000000" points="390.5,-589.5 390.5,-619.5 617.5,-619.5 617.5,-589.5 390.5,-589.5"/>
<text text-anchor="start" x="397.5" y="-600.9" font-family="Arial" font-size="14.00" fill="#000000">deleted_at    </text>
<text text-anchor="start" x="497.0708" y="-600.9" font-family="Arial" font-size="14.00" fill="#666666">[TIMESTAMPTZ]</text>
<polygon fill="none" stroke="#000000" points="390.5,-559.5 390.5,-589.5 617.5,-589.5 617.5,-559.5 390.5,-559.5"/>
<text text-anchor="start" x="397.5" y="-570.9" font-family="Arial" font-size="14.00" fill="#000000">deleted_by    </text>
<text text-anchor="start" x="500.1802" y="-570.9" font-family="Arial" font-size="14.00" fill="#666666">[TEXT]</text>
<polygon fill="none" stroke="#000000" points="390.5,-529.5 390.5,-559.5 617.5,-559.5 617.5,-529.5 390.5,-529.5"/>
<text text-anchor="start" x="397.5" y="-540.9" font-family="Arial" font-size="14.00" fill="#000000">activity_log    </text>
<text text-anchor="start" x="500.9362" y="-540.9" font-family="Arial" font-size="14.00" fill="#666666">[TEXT]</text>
</g>
<!-- party_relation&#45;&gt;party_relation_type -->
<g id="edge1" class="edge">
<title>party_relation:relation_type_id&#45;&gt;party_relation_type:code</title>
<path fill="none" stroke="#000000" d="M380.2937,-783.119C274.8491,-752.9187 405.6486,-237.5 285.5,-237.5"/>
<polygon fill="#000000" stroke="#000000" points="380.5903,-783.1591 389.8966,-788.9594 385.5451,-783.8295 390.5,-784.5 390.5,-784.5 390.5,-784.5 385.5451,-783.8295 391.1034,-780.0406 380.5903,-783.1591 380.5903,-783.1591"/>
</g>
<!-- party -->
<g id="node3" class="node">
<title>party</title>
<polygon fill="#efefef" stroke="transparent" points="392.5,-372.5 392.5,-407.5 616.5,-407.5 616.5,-372.5 392.5,-372.5"/>
<polygon fill="none" stroke="#000000" points="392.5,-372.5 392.5,-407.5 616.5,-407.5 616.5,-372.5 392.5,-372.5"/>
<text text-anchor="start" x="448.3311" y="-385.3" font-family="Arial Bold" font-size="18.00" fill="#000000">party</text>
<text text-anchor="start" x="488.3379" y="-385.3" font-family="Arial" font-size="14.00" fill="#000000">    </text>
<text text-anchor="start" x="522.5427" y="-385.3" font-family="Arial" font-size="14.00" fill="#666666">[table]</text>
<polygon fill="none" stroke="#000000" points="392.5,-342.5 392.5,-372.5 616.5,-372.5 616.5,-342.5 392.5,-342.5"/>
<text text-anchor="start" x="399.5" y="-353.9" font-family="Arial" font-size="14.00" fill="#000000">party_id    </text>
<text text-anchor="start" x="483.493" y="-353.9" font-family="Arial" font-size="14.00" fill="#666666">[VARCHAR]</text>
<polygon fill="none" stroke="#000000" points="392.5,-312.5 392.5,-342.5 616.5,-342.5 616.5,-312.5 392.5,-312.5"/>
<text text-anchor="start" x="399.5" y="-323.9" font-family="Arial" font-size="14.00" fill="#000000">party_type_id    </text>
<text text-anchor="start" x="517.7314" y="-323.9" font-family="Arial" font-size="14.00" fill="#666666">[TEXT]</text>
<polygon fill="none" stroke="#000000" points="392.5,-282.5 392.5,-312.5 616.5,-312.5 616.5,-282.5 392.5,-282.5"/>
<text text-anchor="start" x="399.5" y="-293.9" font-family="Arial" font-size="14.00" fill="#000000">party_name    </text>
<text text-anchor="start" x="507.6122" y="-293.9" font-family="Arial" font-size="14.00" fill="#666666">[TEXT]</text>
<polygon fill="none" stroke="#000000" points="392.5,-252.5 392.5,-282.5 616.5,-282.5 616.5,-252.5 392.5,-252.5"/>
<text text-anchor="start" x="399.5" y="-263.9" font-family="Arial" font-size="14.00" fill="#000000">elaboration    </text>
<text text-anchor="start" x="502.9474" y="-263.9" font-family="Arial" font-size="14.00" fill="#666666">[TEXT]</text>
<polygon fill="none" stroke="#000000" points="392.5,-222.5 392.5,-252.5 616.5,-252.5 616.5,-222.5 392.5,-222.5"/>
<text text-anchor="start" x="399.5" y="-233.9" font-family="Arial" font-size="14.00" fill="#000000">created_at    </text>
<text text-anchor="start" x="499.8422" y="-233.9" font-family="Arial" font-size="14.00" fill="#666666">[TIMESTAMPTZ]</text>
<polygon fill="none" stroke="#000000" points="392.5,-192.5 392.5,-222.5 616.5,-222.5 616.5,-192.5 392.5,-192.5"/>
<text text-anchor="start" x="399.5" y="-203.9" font-family="Arial" font-size="14.00" fill="#000000">created_by    </text>
<text text-anchor="start" x="502.9516" y="-203.9" font-family="Arial" font-size="14.00" fill="#666666">[TEXT]</text>
<polygon fill="none" stroke="#000000" points="392.5,-162.5 392.5,-192.5 616.5,-192.5 616.5,-162.5 392.5,-162.5"/>
<text text-anchor="start" x="399.1017" y="-173.9" font-family="Arial" font-size="14.00" fill="#000000">updated_at    </text>
<text text-anchor="start" x="503.3485" y="-173.9" font-family="Arial" font-size="14.00" fill="#666666">[TIMESTAMPTZ]</text>
<polygon fill="none" stroke="#000000" points="392.5,-132.5 392.5,-162.5 616.5,-162.5 616.5,-132.5 392.5,-132.5"/>
<text text-anchor="start" x="399.5" y="-143.9" font-family="Arial" font-size="14.00" fill="#000000">updated_by    </text>
<text text-anchor="start" x="506.8562" y="-143.9" font-family="Arial" font-size="14.00" fill="#666666">[TEXT]</text>
<polygon fill="none" stroke="#000000" points="392.5,-102.5 392.5,-132.5 616.5,-132.5 616.5,-102.5 392.5,-102.5"/>
<text text-anchor="start" x="399.5" y="-113.9" font-family="Arial" font-size="14.00" fill="#000000">deleted_at    </text>
<text text-anchor="start" x="499.0708" y="-113.9" font-family="Arial" font-size="14.00" fill="#666666">[TIMESTAMPTZ]</text>
<polygon fill="none" stroke="#000000" points="392.5,-72.5 392.5,-102.5 616.5,-102.5 616.5,-72.5 392.5,-72.5"/>
<text text-anchor="start" x="399.5" y="-83.9" font-family="Arial" font-size="14.00" fill="#000000">deleted_by    </text>
<text text-anchor="start" x="502.1802" y="-83.9" font-family="Arial" font-size="14.00" fill="#666666">[TEXT]</text>
<polygon fill="none" stroke="#000000" points="392.5,-42.5 392.5,-72.5 616.5,-72.5 616.5,-42.5 392.5,-42.5"/>
<text text-anchor="start" x="399.5" y="-53.9" font-family="Arial" font-size="14.00" fill="#000000">activity_log    </text>
<text text-anchor="start" x="502.9362" y="-53.9" font-family="Arial" font-size="14.00" fill="#666666">[TEXT]</text>
</g>
<!-- party_relation&#45;&gt;party -->
<g id="edge2" class="edge">
<title>party_relation:party_id&#45;&gt;party:party_id</title>
<path fill="none" stroke="#000000" d="M627.5641,-842.7501C694.3903,-818.2894 666.7318,-544.7351 617.5,-487 551.7898,-409.9404 458.2102,-528.0596 392.5,-451 365.5367,-419.3797 350.9444,-357.5 392.5,-357.5"/>
<polygon fill="#000000" stroke="#000000" points="627.3522,-842.7868 616.7291,-840.0665 622.4261,-843.6434 617.5,-844.5 617.5,-844.5 617.5,-844.5 622.4261,-843.6434 618.2709,-848.9335 627.3522,-842.7868 627.3522,-842.7868"/>
</g>
<!-- party_relation&#45;&gt;party -->
<g id="edge3" class="edge">
<title>party_relation:related_party_id&#45;&gt;party:party_id</title>
<path fill="none" stroke="#000000" d="M627.4664,-812.6105C687.7304,-788.4423 662.416,-539.6739 617.5,-487 551.7898,-409.9404 458.2102,-528.0596 392.5,-451 365.5367,-419.3797 350.9444,-357.5 392.5,-357.5"/>
<polygon fill="#000000" stroke="#000000" points="627.325,-812.6373 616.6618,-810.0788 622.4125,-813.5686 617.5,-814.5 617.5,-814.5 617.5,-814.5 622.4125,-813.5686 618.3382,-818.9212 627.325,-812.6373 627.325,-812.6373"/>
</g>
</g>
</svg>
