<?xml version="1.0" encoding="UTF-8" standalone="no"?>
<!DOCTYPE svg PUBLIC "-//W3C//DTD SVG 1.1//EN"
 "http://www.w3.org/Graphics/SVG/1.1/DTD/svg11.dtd">
<!-- Generated by graphviz version 12.1.2 (20240928.0832)
 -->
<!-- Title: sex_type Pages: 1 -->
<svg width="1192pt" height="1212pt"
 viewBox="0.00 0.00 1191.91 1212.00" xmlns="http://www.w3.org/2000/svg" xmlns:xlink="http://www.w3.org/1999/xlink">
<g id="graph0" class="graph" transform="scale(1 1) rotate(0) translate(4 1208)">
<title>sex_type</title>
<polygon fill="white" stroke="none" points="-4,4 -4,-1208 1187.91,-1208 1187.91,4 -4,4"/>
<!-- sex_type -->
<g id="node1" class="node">
<title>sex_type</title>
<polygon fill="#efefef" stroke="none" points="46.2,-366.6 46.2,-402.2 240.71,-402.2 240.71,-366.6 46.2,-366.6"/>
<polygon fill="none" stroke="black" points="46.2,-366.6 46.2,-402.2 240.71,-402.2 240.71,-366.6 46.2,-366.6"/>
<text text-anchor="start" x="76.84" y="-380" font-family="Arial Bold" font-size="18.00">sex_type</text>
<text text-anchor="start" x="140.82" y="-380" font-family="Arial" font-size="14.00">    </text>
<text text-anchor="start" x="171.94" y="-380" font-family="Arial" font-size="14.00" fill="#666666">[table]</text>
<polygon fill="none" stroke="black" points="46.2,-335.8 46.2,-366.6 240.71,-366.6 240.71,-335.8 46.2,-335.8"/>
<text text-anchor="start" x="53.2" y="-348" font-family="Arial" font-size="14.00">sex_type_id </text>
<text text-anchor="start" x="131.81" y="-348" font-family="Arial" font-size="14.00" fill="#666666">[ULID]</text>
<polygon fill="none" stroke="black" points="46.2,-305 46.2,-335.8 240.71,-335.8 240.71,-305 46.2,-305"/>
<text text-anchor="start" x="53.2" y="-317.2" font-family="Arial" font-size="14.00">code </text>
<text text-anchor="start" x="87.45" y="-317.2" font-family="Arial" font-size="14.00" fill="#666666">[TEXT]</text>
<polygon fill="none" stroke="black" points="46.2,-274.2 46.2,-305 240.71,-305 240.71,-274.2 46.2,-274.2"/>
<text text-anchor="start" x="53.2" y="-286.4" font-family="Arial" font-size="14.00">value </text>
<text text-anchor="start" x="90.56" y="-286.4" font-family="Arial" font-size="14.00" fill="#666666">[TEXT]</text>
<polygon fill="none" stroke="black" points="46.2,-243.4 46.2,-274.2 240.71,-274.2 240.71,-243.4 46.2,-243.4"/>
<text text-anchor="start" x="53.2" y="-255.6" font-family="Arial" font-size="14.00">created_at </text>
<text text-anchor="start" x="123.25" y="-255.6" font-family="Arial" font-size="14.00" fill="#666666">[TIMESTAMPTZ]</text>
<polygon fill="none" stroke="black" points="46.2,-212.6 46.2,-243.4 240.71,-243.4 240.71,-212.6 46.2,-212.6"/>
<text text-anchor="start" x="53.2" y="-224.8" font-family="Arial" font-size="14.00">created_by </text>
<text text-anchor="start" x="126.36" y="-224.8" font-family="Arial" font-size="14.00" fill="#666666">[TEXT]</text>
<polygon fill="none" stroke="black" points="46.2,-181.8 46.2,-212.6 240.71,-212.6 240.71,-181.8 46.2,-181.8"/>
<text text-anchor="start" x="53.2" y="-194" font-family="Arial" font-size="14.00">updated_at </text>
<text text-anchor="start" x="127.16" y="-194" font-family="Arial" font-size="14.00" fill="#666666">[TIMESTAMPTZ]</text>
<polygon fill="none" stroke="black" points="46.2,-151 46.2,-181.8 240.71,-181.8 240.71,-151 46.2,-151"/>
<text text-anchor="start" x="53.2" y="-163.2" font-family="Arial" font-size="14.00">updated_by </text>
<text text-anchor="start" x="130.27" y="-163.2" font-family="Arial" font-size="14.00" fill="#666666">[TEXT]</text>
<polygon fill="none" stroke="black" points="46.2,-120.2 46.2,-151 240.71,-151 240.71,-120.2 46.2,-120.2"/>
<text text-anchor="start" x="53.2" y="-132.4" font-family="Arial" font-size="14.00">deleted_at </text>
<text text-anchor="start" x="122.48" y="-132.4" font-family="Arial" font-size="14.00" fill="#666666">[TIMESTAMPTZ]</text>
<polygon fill="none" stroke="black" points="46.2,-89.4 46.2,-120.2 240.71,-120.2 240.71,-89.4 46.2,-89.4"/>
<text text-anchor="start" x="53.2" y="-101.6" font-family="Arial" font-size="14.00">deleted_by </text>
<text text-anchor="start" x="125.59" y="-101.6" font-family="Arial" font-size="14.00" fill="#666666">[TEXT]</text>
<polygon fill="none" stroke="black" points="46.2,-58.6 46.2,-89.4 240.71,-89.4 240.71,-58.6 46.2,-58.6"/>
<text text-anchor="start" x="53.2" y="-70.8" font-family="Arial" font-size="14.00">activity_log </text>
<text text-anchor="start" x="126.34" y="-70.8" font-family="Arial" font-size="14.00" fill="#666666">[TEXT]</text>
<polygon fill="none" stroke="black" stroke-width="3" points="44.7,-57.1 44.7,-403.7 242.21,-403.7 242.21,-57.1 44.7,-57.1"/>
</g>
<!-- person -->
<g id="node2" class="node">
<title>person</title>
<polygon fill="#efefef" stroke="none" points="496.41,-1125.2 496.41,-1160.8 692.5,-1160.8 692.5,-1125.2 496.41,-1125.2"/>
<polygon fill="none" stroke="black" points="496.41,-1125.2 496.41,-1160.8 692.5,-1160.8 692.5,-1125.2 496.41,-1125.2"/>
<text text-anchor="start" x="535.83" y="-1138.6" font-family="Arial Bold" font-size="18.00">person</text>
<text text-anchor="start" x="583.82" y="-1138.6" font-family="Arial" font-size="14.00">    </text>
<text text-anchor="start" x="614.94" y="-1138.6" font-family="Arial" font-size="14.00" fill="#666666">[table]</text>
<polygon fill="none" stroke="black" points="496.41,-1094.4 496.41,-1125.2 692.5,-1125.2 692.5,-1094.4 496.41,-1094.4"/>
<text text-anchor="start" x="503.41" y="-1106.6" font-family="Arial" font-size="14.00">person_id </text>
<text text-anchor="start" x="568.79" y="-1106.6" font-family="Arial" font-size="14.00" fill="#666666">[ULID]</text>
<polygon fill="none" stroke="black" points="496.41,-1063.6 496.41,-1094.4 692.5,-1094.4 692.5,-1063.6 496.41,-1063.6"/>
<text text-anchor="start" x="503.41" y="-1075.8" font-family="Arial" font-size="14.00">party_id </text>
<text text-anchor="start" x="557.11" y="-1075.8" font-family="Arial" font-size="14.00" fill="#666666">[VARCHAR]</text>
<polygon fill="none" stroke="black" points="496.41,-1032.8 496.41,-1063.6 692.5,-1063.6 692.5,-1032.8 496.41,-1032.8"/>
<text text-anchor="start" x="503.41" y="-1045" font-family="Arial" font-size="14.00">person_type_id </text>
<text text-anchor="start" x="603.04" y="-1045" font-family="Arial" font-size="14.00" fill="#666666">[ULID]</text>
<polygon fill="none" stroke="black" points="496.41,-1002 496.41,-1032.8 692.5,-1032.8 692.5,-1002 496.41,-1002"/>
<text text-anchor="start" x="503.41" y="-1014.2" font-family="Arial" font-size="14.00">person_first_name </text>
<text text-anchor="start" x="623.25" y="-1014.2" font-family="Arial" font-size="14.00" fill="#666666">[TEXT]</text>
<polygon fill="none" stroke="black" points="496.41,-971.2 496.41,-1002 692.5,-1002 692.5,-971.2 496.41,-971.2"/>
<text text-anchor="start" x="503.41" y="-983.4" font-family="Arial" font-size="14.00">person_middle_name </text>
<text text-anchor="start" x="641.94" y="-983.4" font-family="Arial" font-size="14.00" fill="#666666">[TEXT]</text>
<polygon fill="none" stroke="black" points="496.41,-940.4 496.41,-971.2 692.5,-971.2 692.5,-940.4 496.41,-940.4"/>
<text text-anchor="start" x="503.41" y="-952.6" font-family="Arial" font-size="14.00">person_last_name </text>
<text text-anchor="start" x="622.49" y="-952.6" font-family="Arial" font-size="14.00" fill="#666666">[TEXT]</text>
<polygon fill="none" stroke="black" points="496.41,-909.6 496.41,-940.4 692.5,-940.4 692.5,-909.6 496.41,-909.6"/>
<text text-anchor="start" x="503.41" y="-921.8" font-family="Arial" font-size="14.00">previous_name </text>
<text text-anchor="start" x="603.02" y="-921.8" font-family="Arial" font-size="14.00" fill="#666666">[TEXT]</text>
<polygon fill="none" stroke="black" points="496.41,-878.8 496.41,-909.6 692.5,-909.6 692.5,-878.8 496.41,-878.8"/>
<text text-anchor="start" x="503.41" y="-891" font-family="Arial" font-size="14.00">honorific_prefix </text>
<text text-anchor="start" x="602.24" y="-891" font-family="Arial" font-size="14.00" fill="#666666">[TEXT]</text>
<polygon fill="none" stroke="black" points="496.41,-848 496.41,-878.8 692.5,-878.8 692.5,-848 496.41,-848"/>
<text text-anchor="start" x="503.41" y="-860.2" font-family="Arial" font-size="14.00">honorific_suffix </text>
<text text-anchor="start" x="600.68" y="-860.2" font-family="Arial" font-size="14.00" fill="#666666">[TEXT]</text>
<polygon fill="none" stroke="black" points="496.41,-817.2 496.41,-848 692.5,-848 692.5,-817.2 496.41,-817.2"/>
<text text-anchor="start" x="503.41" y="-829.4" font-family="Arial" font-size="14.00">gender_id </text>
<text text-anchor="start" x="569.58" y="-829.4" font-family="Arial" font-size="14.00" fill="#666666">[ULID]</text>
<polygon fill="none" stroke="black" points="496.41,-786.4 496.41,-817.2 692.5,-817.2 692.5,-786.4 496.41,-786.4"/>
<text text-anchor="start" x="503.41" y="-798.6" font-family="Arial" font-size="14.00">sex_id </text>
<text text-anchor="start" x="547.77" y="-798.6" font-family="Arial" font-size="14.00" fill="#666666">[ULID]</text>
<polygon fill="none" stroke="black" points="496.41,-755.6 496.41,-786.4 692.5,-786.4 692.5,-755.6 496.41,-755.6"/>
<text text-anchor="start" x="503.41" y="-767.8" font-family="Arial" font-size="14.00">elaboration </text>
<text text-anchor="start" x="576.58" y="-767.8" font-family="Arial" font-size="14.00" fill="#666666">[TEXT]</text>
<polygon fill="none" stroke="black" points="496.41,-724.8 496.41,-755.6 692.5,-755.6 692.5,-724.8 496.41,-724.8"/>
<text text-anchor="start" x="503.41" y="-737" font-family="Arial" font-size="14.00">created_at </text>
<text text-anchor="start" x="573.46" y="-737" font-family="Arial" font-size="14.00" fill="#666666">[TIMESTAMPTZ]</text>
<polygon fill="none" stroke="black" points="496.41,-694 496.41,-724.8 692.5,-724.8 692.5,-694 496.41,-694"/>
<text text-anchor="start" x="503.41" y="-706.2" font-family="Arial" font-size="14.00">created_by </text>
<text text-anchor="start" x="576.57" y="-706.2" font-family="Arial" font-size="14.00" fill="#666666">[TEXT]</text>
<polygon fill="none" stroke="black" points="496.41,-663.2 496.41,-694 692.5,-694 692.5,-663.2 496.41,-663.2"/>
<text text-anchor="start" x="503.41" y="-675.4" font-family="Arial" font-size="14.00">updated_at </text>
<text text-anchor="start" x="577.37" y="-675.4" font-family="Arial" font-size="14.00" fill="#666666">[TIMESTAMPTZ]</text>
<polygon fill="none" stroke="black" points="496.41,-632.4 496.41,-663.2 692.5,-663.2 692.5,-632.4 496.41,-632.4"/>
<text text-anchor="start" x="503.41" y="-644.6" font-family="Arial" font-size="14.00">updated_by </text>
<text text-anchor="start" x="580.48" y="-644.6" font-family="Arial" font-size="14.00" fill="#666666">[TEXT]</text>
<polygon fill="none" stroke="black" points="496.41,-601.6 496.41,-632.4 692.5,-632.4 692.5,-601.6 496.41,-601.6"/>
<text text-anchor="start" x="503.41" y="-613.8" font-family="Arial" font-size="14.00">deleted_at </text>
<text text-anchor="start" x="572.69" y="-613.8" font-family="Arial" font-size="14.00" fill="#666666">[TIMESTAMPTZ]</text>
<polygon fill="none" stroke="black" points="496.41,-570.8 496.41,-601.6 692.5,-601.6 692.5,-570.8 496.41,-570.8"/>
<text text-anchor="start" x="503.41" y="-583" font-family="Arial" font-size="14.00">deleted_by </text>
<text text-anchor="start" x="575.8" y="-583" font-family="Arial" font-size="14.00" fill="#666666">[TEXT]</text>
<polygon fill="none" stroke="black" points="496.41,-540 496.41,-570.8 692.5,-570.8 692.5,-540 496.41,-540"/>
<text text-anchor="start" x="503.41" y="-552.2" font-family="Arial" font-size="14.00">activity_log </text>
<text text-anchor="start" x="576.55" y="-552.2" font-family="Arial" font-size="14.00" fill="#666666">[TEXT]</text>
</g>
<!-- person&#45;&gt;sex_type -->
<g id="edge1" class="edge">
<title>person:sex_id&#45;&gt;sex_type:sex_type_id</title>
<path fill="none" stroke="black" d="M485.4,-801.59C322.23,-794.52 378.28,-612.13 296.45,-460.8 270.56,-412.9 296.16,-351.2 241.71,-351.2"/>
<polygon fill="black" stroke="black" points="485.08,-801.58 494.98,-806.29 490.41,-801.69 494.74,-801.79 494.74,-801.79 494.74,-801.79 490.41,-801.69 495.17,-797.29 485.08,-801.58"/>
</g>
<!-- party -->
<g id="node3" class="node">
<title>party</title>
<polygon fill="#efefef" stroke="none" points="348.2,-382 348.2,-417.6 542.71,-417.6 542.71,-382 348.2,-382"/>
<polygon fill="none" stroke="black" points="348.2,-382 348.2,-417.6 542.71,-417.6 542.71,-382 348.2,-382"/>
<text text-anchor="start" x="392.34" y="-395.4" font-family="Arial Bold" font-size="18.00">party</text>
<text text-anchor="start" x="429.32" y="-395.4" font-family="Arial" font-size="14.00">    </text>
<text text-anchor="start" x="460.44" y="-395.4" font-family="Arial" font-size="14.00" fill="#666666">[table]</text>
<polygon fill="none" stroke="black" points="348.2,-351.2 348.2,-382 542.71,-382 542.71,-351.2 348.2,-351.2"/>
<text text-anchor="start" x="355.2" y="-363.4" font-family="Arial" font-size="14.00">party_id </text>
<text text-anchor="start" x="408.9" y="-363.4" font-family="Arial" font-size="14.00" fill="#666666">[VARCHAR]</text>
<polygon fill="none" stroke="black" points="348.2,-320.4 348.2,-351.2 542.71,-351.2 542.71,-320.4 348.2,-320.4"/>
<text text-anchor="start" x="355.2" y="-332.6" font-family="Arial" font-size="14.00">party_type_id </text>
<text text-anchor="start" x="443.14" y="-332.6" font-family="Arial" font-size="14.00" fill="#666666">[ULID]</text>
<polygon fill="none" stroke="black" points="348.2,-289.6 348.2,-320.4 542.71,-320.4 542.71,-289.6 348.2,-289.6"/>
<text text-anchor="start" x="355.2" y="-301.8" font-family="Arial" font-size="14.00">party_name </text>
<text text-anchor="start" x="433.02" y="-301.8" font-family="Arial" font-size="14.00" fill="#666666">[TEXT]</text>
<polygon fill="none" stroke="black" points="348.2,-258.8 348.2,-289.6 542.71,-289.6 542.71,-258.8 348.2,-258.8"/>
<text text-anchor="start" x="355.2" y="-271" font-family="Arial" font-size="14.00">elaboration </text>
<text text-anchor="start" x="428.37" y="-271" font-family="Arial" font-size="14.00" fill="#666666">[TEXT]</text>
<polygon fill="none" stroke="black" points="348.2,-228 348.2,-258.8 542.71,-258.8 542.71,-228 348.2,-228"/>
<text text-anchor="start" x="355.2" y="-240.2" font-family="Arial" font-size="14.00">created_at </text>
<text text-anchor="start" x="425.25" y="-240.2" font-family="Arial" font-size="14.00" fill="#666666">[TIMESTAMPTZ]</text>
<polygon fill="none" stroke="black" points="348.2,-197.2 348.2,-228 542.71,-228 542.71,-197.2 348.2,-197.2"/>
<text text-anchor="start" x="355.2" y="-209.4" font-family="Arial" font-size="14.00">created_by </text>
<text text-anchor="start" x="428.36" y="-209.4" font-family="Arial" font-size="14.00" fill="#666666">[TEXT]</text>
<polygon fill="none" stroke="black" points="348.2,-166.4 348.2,-197.2 542.71,-197.2 542.71,-166.4 348.2,-166.4"/>
<text text-anchor="start" x="355.2" y="-178.6" font-family="Arial" font-size="14.00">updated_at </text>
<text text-anchor="start" x="429.16" y="-178.6" font-family="Arial" font-size="14.00" fill="#666666">[TIMESTAMPTZ]</text>
<polygon fill="none" stroke="black" points="348.2,-135.6 348.2,-166.4 542.71,-166.4 542.71,-135.6 348.2,-135.6"/>
<text text-anchor="start" x="355.2" y="-147.8" font-family="Arial" font-size="14.00">updated_by </text>
<text text-anchor="start" x="432.27" y="-147.8" font-family="Arial" font-size="14.00" fill="#666666">[TEXT]</text>
<polygon fill="none" stroke="black" points="348.2,-104.8 348.2,-135.6 542.71,-135.6 542.71,-104.8 348.2,-104.8"/>
<text text-anchor="start" x="355.2" y="-117" font-family="Arial" font-size="14.00">deleted_at </text>
<text text-anchor="start" x="424.48" y="-117" font-family="Arial" font-size="14.00" fill="#666666">[TIMESTAMPTZ]</text>
<polygon fill="none" stroke="black" points="348.2,-74 348.2,-104.8 542.71,-104.8 542.71,-74 348.2,-74"/>
<text text-anchor="start" x="355.2" y="-86.2" font-family="Arial" font-size="14.00">deleted_by </text>
<text text-anchor="start" x="427.59" y="-86.2" font-family="Arial" font-size="14.00" fill="#666666">[TEXT]</text>
<polygon fill="none" stroke="black" points="348.2,-43.2 348.2,-74 542.71,-74 542.71,-43.2 348.2,-43.2"/>
<text text-anchor="start" x="355.2" y="-55.4" font-family="Arial" font-size="14.00">activity_log </text>
<text text-anchor="start" x="428.34" y="-55.4" font-family="Arial" font-size="14.00" fill="#666666">[TEXT]</text>
</g>
<!-- person&#45;&gt;party -->
<g id="edge2" class="edge">
<title>person:party_id&#45;&gt;party:party_id</title>
<path fill="none" stroke="black" d="M485.02,-1078.81C240.64,-1069.46 384.07,-725.96 496.41,-496.8 507.88,-473.4 531.13,-484.15 542.71,-460.8 561.31,-423.29 585.58,-366.6 543.71,-366.6"/>
<polygon fill="black" stroke="black" points="485.08,-1078.81 494.99,-1083.49 490.41,-1078.91 494.74,-1078.99 494.74,-1078.99 494.74,-1078.99 490.41,-1078.91 495.16,-1074.49 485.08,-1078.81"/>
</g>
<!-- person_type -->
<g id="node4" class="node">
<title>person_type</title>
<polygon fill="#efefef" stroke="none" points="647.2,-366.6 647.2,-402.2 841.71,-402.2 841.71,-366.6 647.2,-366.6"/>
<polygon fill="none" stroke="black" points="647.2,-366.6 647.2,-402.2 841.71,-402.2 841.71,-366.6 647.2,-366.6"/>
<text text-anchor="start" x="665.84" y="-380" font-family="Arial Bold" font-size="18.00">person_type</text>
<text text-anchor="start" x="753.82" y="-380" font-family="Arial" font-size="14.00">    </text>
<text text-anchor="start" x="784.93" y="-380" font-family="Arial" font-size="14.00" fill="#666666">[table]</text>
<polygon fill="none" stroke="black" points="647.2,-335.8 647.2,-366.6 841.71,-366.6 841.71,-335.8 647.2,-335.8"/>
<text text-anchor="start" x="654.2" y="-348" font-family="Arial" font-size="14.00">person_type_id </text>
<text text-anchor="start" x="753.83" y="-348" font-family="Arial" font-size="14.00" fill="#666666">[ULID]</text>
<polygon fill="none" stroke="black" points="647.2,-305 647.2,-335.8 841.71,-335.8 841.71,-305 647.2,-305"/>
<text text-anchor="start" x="654.2" y="-317.2" font-family="Arial" font-size="14.00">code </text>
<text text-anchor="start" x="688.45" y="-317.2" font-family="Arial" font-size="14.00" fill="#666666">[TEXT]</text>
<polygon fill="none" stroke="black" points="647.2,-274.2 647.2,-305 841.71,-305 841.71,-274.2 647.2,-274.2"/>
<text text-anchor="start" x="654.2" y="-286.4" font-family="Arial" font-size="14.00">value </text>
<text text-anchor="start" x="691.56" y="-286.4" font-family="Arial" font-size="14.00" fill="#666666">[TEXT]</text>
<polygon fill="none" stroke="black" points="647.2,-243.4 647.2,-274.2 841.71,-274.2 841.71,-243.4 647.2,-243.4"/>
<text text-anchor="start" x="654.2" y="-255.6" font-family="Arial" font-size="14.00">created_at </text>
<text text-anchor="start" x="724.25" y="-255.6" font-family="Arial" font-size="14.00" fill="#666666">[TIMESTAMPTZ]</text>
<polygon fill="none" stroke="black" points="647.2,-212.6 647.2,-243.4 841.71,-243.4 841.71,-212.6 647.2,-212.6"/>
<text text-anchor="start" x="654.2" y="-224.8" font-family="Arial" font-size="14.00">created_by </text>
<text text-anchor="start" x="727.36" y="-224.8" font-family="Arial" font-size="14.00" fill="#666666">[TEXT]</text>
<polygon fill="none" stroke="black" points="647.2,-181.8 647.2,-212.6 841.71,-212.6 841.71,-181.8 647.2,-181.8"/>
<text text-anchor="start" x="654.2" y="-194" font-family="Arial" font-size="14.00">updated_at </text>
<text text-anchor="start" x="728.16" y="-194" font-family="Arial" font-size="14.00" fill="#666666">[TIMESTAMPTZ]</text>
<polygon fill="none" stroke="black" points="647.2,-151 647.2,-181.8 841.71,-181.8 841.71,-151 647.2,-151"/>
<text text-anchor="start" x="654.2" y="-163.2" font-family="Arial" font-size="14.00">updated_by </text>
<text text-anchor="start" x="731.27" y="-163.2" font-family="Arial" font-size="14.00" fill="#666666">[TEXT]</text>
<polygon fill="none" stroke="black" points="647.2,-120.2 647.2,-151 841.71,-151 841.71,-120.2 647.2,-120.2"/>
<text text-anchor="start" x="654.2" y="-132.4" font-family="Arial" font-size="14.00">deleted_at </text>
<text text-anchor="start" x="723.48" y="-132.4" font-family="Arial" font-size="14.00" fill="#666666">[TIMESTAMPTZ]</text>
<polygon fill="none" stroke="black" points="647.2,-89.4 647.2,-120.2 841.71,-120.2 841.71,-89.4 647.2,-89.4"/>
<text text-anchor="start" x="654.2" y="-101.6" font-family="Arial" font-size="14.00">deleted_by </text>
<text text-anchor="start" x="726.59" y="-101.6" font-family="Arial" font-size="14.00" fill="#666666">[TEXT]</text>
<polygon fill="none" stroke="black" points="647.2,-58.6 647.2,-89.4 841.71,-89.4 841.71,-58.6 647.2,-58.6"/>
<text text-anchor="start" x="654.2" y="-70.8" font-family="Arial" font-size="14.00">activity_log </text>
<text text-anchor="start" x="727.34" y="-70.8" font-family="Arial" font-size="14.00" fill="#666666">[TEXT]</text>
</g>
<!-- person&#45;&gt;person_type -->
<g id="edge3" class="edge">
<title>person:person_type_id&#45;&gt;person_type:person_type_id</title>
<path fill="none" stroke="black" d="M703.67,-1048.01C934.07,-1039.09 778.08,-722.73 692.5,-496.8 681.71,-468.32 658.11,-473.83 647.2,-445.4 632.2,-406.31 604.33,-351.2 646.2,-351.2"/>
<polygon fill="black" stroke="black" points="703.83,-1048 693.75,-1043.69 698.5,-1048.11 694.17,-1048.19 694.17,-1048.19 694.17,-1048.19 698.5,-1048.11 693.92,-1052.69 703.83,-1048"/>
</g>
<!-- gender_type -->
<g id="node5" class="node">
<title>gender_type</title>
<polygon fill="#efefef" stroke="none" points="946.2,-366.6 946.2,-402.2 1140.71,-402.2 1140.71,-366.6 946.2,-366.6"/>
<polygon fill="none" stroke="black" points="946.2,-366.6 946.2,-402.2 1140.71,-402.2 1140.71,-366.6 946.2,-366.6"/>
<text text-anchor="start" x="964.35" y="-380" font-family="Arial Bold" font-size="18.00">gender_type</text>
<text text-anchor="start" x="1053.31" y="-380" font-family="Arial" font-size="14.00">    </text>
<text text-anchor="start" x="1084.43" y="-380" font-family="Arial" font-size="14.00" fill="#666666">[table]</text>
<polygon fill="none" stroke="black" points="946.2,-335.8 946.2,-366.6 1140.71,-366.6 1140.71,-335.8 946.2,-335.8"/>
<text text-anchor="start" x="953.2" y="-348" font-family="Arial" font-size="14.00">gender_type_id </text>
<text text-anchor="start" x="1053.61" y="-348" font-family="Arial" font-size="14.00" fill="#666666">[ULID]</text>
<polygon fill="none" stroke="black" points="946.2,-305 946.2,-335.8 1140.71,-335.8 1140.71,-305 946.2,-305"/>
<text text-anchor="start" x="953.2" y="-317.2" font-family="Arial" font-size="14.00">code </text>
<text text-anchor="start" x="987.45" y="-317.2" font-family="Arial" font-size="14.00" fill="#666666">[TEXT]</text>
<polygon fill="none" stroke="black" points="946.2,-274.2 946.2,-305 1140.71,-305 1140.71,-274.2 946.2,-274.2"/>
<text text-anchor="start" x="953.2" y="-286.4" font-family="Arial" font-size="14.00">value </text>
<text text-anchor="start" x="990.56" y="-286.4" font-family="Arial" font-size="14.00" fill="#666666">[TEXT]</text>
<polygon fill="none" stroke="black" points="946.2,-243.4 946.2,-274.2 1140.71,-274.2 1140.71,-243.4 946.2,-243.4"/>
<text text-anchor="start" x="953.2" y="-255.6" font-family="Arial" font-size="14.00">created_at </text>
<text text-anchor="start" x="1023.25" y="-255.6" font-family="Arial" font-size="14.00" fill="#666666">[TIMESTAMPTZ]</text>
<polygon fill="none" stroke="black" points="946.2,-212.6 946.2,-243.4 1140.71,-243.4 1140.71,-212.6 946.2,-212.6"/>
<text text-anchor="start" x="953.2" y="-224.8" font-family="Arial" font-size="14.00">created_by </text>
<text text-anchor="start" x="1026.36" y="-224.8" font-family="Arial" font-size="14.00" fill="#666666">[TEXT]</text>
<polygon fill="none" stroke="black" points="946.2,-181.8 946.2,-212.6 1140.71,-212.6 1140.71,-181.8 946.2,-181.8"/>
<text text-anchor="start" x="953.2" y="-194" font-family="Arial" font-size="14.00">updated_at </text>
<text text-anchor="start" x="1027.16" y="-194" font-family="Arial" font-size="14.00" fill="#666666">[TIMESTAMPTZ]</text>
<polygon fill="none" stroke="black" points="946.2,-151 946.2,-181.8 1140.71,-181.8 1140.71,-151 946.2,-151"/>
<text text-anchor="start" x="953.2" y="-163.2" font-family="Arial" font-size="14.00">updated_by </text>
<text text-anchor="start" x="1030.27" y="-163.2" font-family="Arial" font-size="14.00" fill="#666666">[TEXT]</text>
<polygon fill="none" stroke="black" points="946.2,-120.2 946.2,-151 1140.71,-151 1140.71,-120.2 946.2,-120.2"/>
<text text-anchor="start" x="953.2" y="-132.4" font-family="Arial" font-size="14.00">deleted_at </text>
<text text-anchor="start" x="1022.48" y="-132.4" font-family="Arial" font-size="14.00" fill="#666666">[TIMESTAMPTZ]</text>
<polygon fill="none" stroke="black" points="946.2,-89.4 946.2,-120.2 1140.71,-120.2 1140.71,-89.4 946.2,-89.4"/>
<text text-anchor="start" x="953.2" y="-101.6" font-family="Arial" font-size="14.00">deleted_by </text>
<text text-anchor="start" x="1025.59" y="-101.6" font-family="Arial" font-size="14.00" fill="#666666">[TEXT]</text>
<polygon fill="none" stroke="black" points="946.2,-58.6 946.2,-89.4 1140.71,-89.4 1140.71,-58.6 946.2,-58.6"/>
<text text-anchor="start" x="953.2" y="-70.8" font-family="Arial" font-size="14.00">activity_log </text>
<text text-anchor="start" x="1026.34" y="-70.8" font-family="Arial" font-size="14.00" fill="#666666">[TEXT]</text>
</g>
<!-- person&#45;&gt;gender_type -->
<g id="edge4" class="edge">
<title>person:gender_id&#45;&gt;gender_type:gender_type_id</title>
<path fill="none" stroke="black" d="M703.94,-832.38C878.43,-824.83 810.55,-625.12 893.45,-460.8 917.72,-412.71 891.33,-351.2 945.2,-351.2"/>
<polygon fill="black" stroke="black" points="703.83,-832.38 693.74,-828.09 698.5,-832.49 694.17,-832.59 694.17,-832.59 694.17,-832.59 698.5,-832.49 693.93,-837.09 703.83,-832.38"/>
</g>
</g>
</svg>
