<?xml version="1.0" encoding="UTF-8" standalone="no"?>
<!DOCTYPE svg PUBLIC "-//W3C//DTD SVG 1.1//EN"
 "http://www.w3.org/Graphics/SVG/1.1/DTD/svg11.dtd">
<!-- Generated by graphviz version 12.1.2 (20240928.0832)
 -->
<!-- Title: ur_ingest_session_plm_reaction Pages: 1 -->
<svg width="910pt" height="1736pt"
 viewBox="0.00 0.00 910.11 1735.60" xmlns="http://www.w3.org/2000/svg" xmlns:xlink="http://www.w3.org/1999/xlink">
<g id="graph0" class="graph" transform="scale(1 1) rotate(0) translate(4 1731.6)">
<title>ur_ingest_session_plm_reaction</title>
<polygon fill="white" stroke="none" points="-4,4 -4,-1731.6 906.11,-1731.6 906.11,4 -4,4"/>
<!-- ur_ingest_session_plm_reaction -->
<g id="node1" class="node">
<title>ur_ingest_session_plm_reaction</title>
<polygon fill="#efefef" stroke="none" points="46.2,-751.6 46.2,-787.2 361.42,-787.2 361.42,-751.6 46.2,-751.6"/>
<polygon fill="none" stroke="black" points="46.2,-751.6 46.2,-787.2 361.42,-787.2 361.42,-751.6 46.2,-751.6"/>
<text text-anchor="start" x="53.2" y="-765" font-family="Arial Bold" font-size="18.00">ur_ingest_session_plm_reaction</text>
<text text-anchor="start" x="285.16" y="-765" font-family="Arial" font-size="14.00">    </text>
<text text-anchor="start" x="316.28" y="-765" font-family="Arial" font-size="14.00" fill="#666666">[table]</text>
<polygon fill="none" stroke="black" points="46.2,-720.8 46.2,-751.6 361.42,-751.6 361.42,-720.8 46.2,-720.8"/>
<text text-anchor="start" x="53.2" y="-733" font-family="Arial" font-size="14.00">ur_ingest_session_plm_reaction_id </text>
<text text-anchor="start" x="276.56" y="-733" font-family="Arial" font-size="14.00" fill="#666666">[VARCHAR]</text>
<polygon fill="none" stroke="black" points="46.2,-690 46.2,-720.8 361.42,-720.8 361.42,-690 46.2,-690"/>
<text text-anchor="start" x="53.2" y="-702.2" font-family="Arial" font-size="14.00">reaction_id </text>
<text text-anchor="start" x="125.58" y="-702.2" font-family="Arial" font-size="14.00" fill="#666666">[TEXT]</text>
<polygon fill="none" stroke="black" points="46.2,-659.2 46.2,-690 361.42,-690 361.42,-659.2 46.2,-659.2"/>
<text text-anchor="start" x="53.2" y="-671.4" font-family="Arial" font-size="14.00">reaction_type </text>
<text text-anchor="start" x="141.14" y="-671.4" font-family="Arial" font-size="14.00" fill="#666666">[TEXT]</text>
<polygon fill="none" stroke="black" points="46.2,-628.4 46.2,-659.2 361.42,-659.2 361.42,-628.4 46.2,-628.4"/>
<text text-anchor="start" x="53.2" y="-640.6" font-family="Arial" font-size="14.00">elaboration </text>
<text text-anchor="start" x="126.37" y="-640.6" font-family="Arial" font-size="14.00" fill="#666666">[TEXT]</text>
<polygon fill="none" stroke="black" points="46.2,-597.6 46.2,-628.4 361.42,-628.4 361.42,-597.6 46.2,-597.6"/>
<text text-anchor="start" x="53.2" y="-609.8" font-family="Arial" font-size="14.00">created_at </text>
<text text-anchor="start" x="123.25" y="-609.8" font-family="Arial" font-size="14.00" fill="#666666">[TIMESTAMPTZ]</text>
<polygon fill="none" stroke="black" points="46.2,-566.8 46.2,-597.6 361.42,-597.6 361.42,-566.8 46.2,-566.8"/>
<text text-anchor="start" x="53.2" y="-579" font-family="Arial" font-size="14.00">created_by </text>
<text text-anchor="start" x="126.36" y="-579" font-family="Arial" font-size="14.00" fill="#666666">[TEXT]</text>
<polygon fill="none" stroke="black" points="46.2,-536 46.2,-566.8 361.42,-566.8 361.42,-536 46.2,-536"/>
<text text-anchor="start" x="53.2" y="-548.2" font-family="Arial" font-size="14.00">updated_at </text>
<text text-anchor="start" x="127.16" y="-548.2" font-family="Arial" font-size="14.00" fill="#666666">[TIMESTAMPTZ]</text>
<polygon fill="none" stroke="black" points="46.2,-505.2 46.2,-536 361.42,-536 361.42,-505.2 46.2,-505.2"/>
<text text-anchor="start" x="53.2" y="-517.4" font-family="Arial" font-size="14.00">updated_by </text>
<text text-anchor="start" x="130.27" y="-517.4" font-family="Arial" font-size="14.00" fill="#666666">[TEXT]</text>
<polygon fill="none" stroke="black" points="46.2,-474.4 46.2,-505.2 361.42,-505.2 361.42,-474.4 46.2,-474.4"/>
<text text-anchor="start" x="53.2" y="-486.6" font-family="Arial" font-size="14.00">deleted_at </text>
<text text-anchor="start" x="122.48" y="-486.6" font-family="Arial" font-size="14.00" fill="#666666">[TIMESTAMPTZ]</text>
<polygon fill="none" stroke="black" points="46.2,-443.6 46.2,-474.4 361.42,-474.4 361.42,-443.6 46.2,-443.6"/>
<text text-anchor="start" x="53.2" y="-455.8" font-family="Arial" font-size="14.00">deleted_by </text>
<text text-anchor="start" x="125.59" y="-455.8" font-family="Arial" font-size="14.00" fill="#666666">[TEXT]</text>
<polygon fill="none" stroke="black" points="46.2,-412.8 46.2,-443.6 361.42,-443.6 361.42,-412.8 46.2,-412.8"/>
<text text-anchor="start" x="53.2" y="-425" font-family="Arial" font-size="14.00">activity_log </text>
<text text-anchor="start" x="126.34" y="-425" font-family="Arial" font-size="14.00" fill="#666666">[TEXT]</text>
<polygon fill="none" stroke="black" stroke-width="3" points="44.7,-411.3 44.7,-788.7 362.92,-788.7 362.92,-411.3 44.7,-411.3"/>
</g>
<!-- ur_ingest_session_plm_issue_reaction -->
<g id="node2" class="node">
<title>ur_ingest_session_plm_issue_reaction</title>
<polygon fill="#efefef" stroke="none" points="253.7,-1648.8 253.7,-1684.4 613.92,-1684.4 613.92,-1648.8 253.7,-1648.8"/>
<polygon fill="none" stroke="black" points="253.7,-1648.8 253.7,-1684.4 613.92,-1684.4 613.92,-1648.8 253.7,-1648.8"/>
<text text-anchor="start" x="260.7" y="-1662.2" font-family="Arial Bold" font-size="18.00">ur_ingest_session_plm_issue_reaction</text>
<text text-anchor="start" x="537.66" y="-1662.2" font-family="Arial" font-size="14.00">    </text>
<text text-anchor="start" x="568.78" y="-1662.2" font-family="Arial" font-size="14.00" fill="#666666">[table]</text>
<polygon fill="none" stroke="black" points="253.7,-1618 253.7,-1648.8 613.92,-1648.8 613.92,-1618 253.7,-1618"/>
<text text-anchor="start" x="260.7" y="-1630.2" font-family="Arial" font-size="14.00">ur_ingest_session_plm_issue_reaction_id </text>
<text text-anchor="start" x="524.53" y="-1630.2" font-family="Arial" font-size="14.00" fill="#666666">[VARCHAR]</text>
<polygon fill="none" stroke="black" points="253.7,-1587.2 253.7,-1618 613.92,-1618 613.92,-1587.2 253.7,-1587.2"/>
<text text-anchor="start" x="260.7" y="-1599.4" font-family="Arial" font-size="14.00">ur_ingest_plm_reaction_id </text>
<text text-anchor="start" x="428.8" y="-1599.4" font-family="Arial" font-size="14.00" fill="#666666">[VARCHAR]</text>
<polygon fill="none" stroke="black" points="253.7,-1556.4 253.7,-1587.2 613.92,-1587.2 613.92,-1556.4 253.7,-1556.4"/>
<text text-anchor="start" x="260.7" y="-1568.6" font-family="Arial" font-size="14.00">ur_ingest_plm_issue_id </text>
<text text-anchor="start" x="411.68" y="-1568.6" font-family="Arial" font-size="14.00" fill="#666666">[VARCHAR]</text>
<polygon fill="none" stroke="black" points="253.7,-1525.6 253.7,-1556.4 613.92,-1556.4 613.92,-1525.6 253.7,-1525.6"/>
<text text-anchor="start" x="260.7" y="-1537.8" font-family="Arial" font-size="14.00">count </text>
<text text-anchor="start" x="298.84" y="-1537.8" font-family="Arial" font-size="14.00" fill="#666666">[INTEGER]</text>
<polygon fill="none" stroke="black" points="253.7,-1494.8 253.7,-1525.6 613.92,-1525.6 613.92,-1494.8 253.7,-1494.8"/>
<text text-anchor="start" x="260.7" y="-1507" font-family="Arial" font-size="14.00">elaboration </text>
<text text-anchor="start" x="333.87" y="-1507" font-family="Arial" font-size="14.00" fill="#666666">[TEXT]</text>
<polygon fill="none" stroke="black" points="253.7,-1464 253.7,-1494.8 613.92,-1494.8 613.92,-1464 253.7,-1464"/>
<text text-anchor="start" x="260.7" y="-1476.2" font-family="Arial" font-size="14.00">created_at </text>
<text text-anchor="start" x="330.75" y="-1476.2" font-family="Arial" font-size="14.00" fill="#666666">[TIMESTAMPTZ]</text>
<polygon fill="none" stroke="black" points="253.7,-1433.2 253.7,-1464 613.92,-1464 613.92,-1433.2 253.7,-1433.2"/>
<text text-anchor="start" x="260.7" y="-1445.4" font-family="Arial" font-size="14.00">created_by </text>
<text text-anchor="start" x="333.86" y="-1445.4" font-family="Arial" font-size="14.00" fill="#666666">[TEXT]</text>
<polygon fill="none" stroke="black" points="253.7,-1402.4 253.7,-1433.2 613.92,-1433.2 613.92,-1402.4 253.7,-1402.4"/>
<text text-anchor="start" x="260.7" y="-1414.6" font-family="Arial" font-size="14.00">updated_at </text>
<text text-anchor="start" x="334.66" y="-1414.6" font-family="Arial" font-size="14.00" fill="#666666">[TIMESTAMPTZ]</text>
<polygon fill="none" stroke="black" points="253.7,-1371.6 253.7,-1402.4 613.92,-1402.4 613.92,-1371.6 253.7,-1371.6"/>
<text text-anchor="start" x="260.7" y="-1383.8" font-family="Arial" font-size="14.00">updated_by </text>
<text text-anchor="start" x="337.77" y="-1383.8" font-family="Arial" font-size="14.00" fill="#666666">[TEXT]</text>
<polygon fill="none" stroke="black" points="253.7,-1340.8 253.7,-1371.6 613.92,-1371.6 613.92,-1340.8 253.7,-1340.8"/>
<text text-anchor="start" x="260.7" y="-1353" font-family="Arial" font-size="14.00">deleted_at </text>
<text text-anchor="start" x="329.98" y="-1353" font-family="Arial" font-size="14.00" fill="#666666">[TIMESTAMPTZ]</text>
<polygon fill="none" stroke="black" points="253.7,-1310 253.7,-1340.8 613.92,-1340.8 613.92,-1310 253.7,-1310"/>
<text text-anchor="start" x="260.7" y="-1322.2" font-family="Arial" font-size="14.00">deleted_by </text>
<text text-anchor="start" x="333.09" y="-1322.2" font-family="Arial" font-size="14.00" fill="#666666">[TEXT]</text>
<polygon fill="none" stroke="black" points="253.7,-1279.2 253.7,-1310 613.92,-1310 613.92,-1279.2 253.7,-1279.2"/>
<text text-anchor="start" x="260.7" y="-1291.4" font-family="Arial" font-size="14.00">activity_log </text>
<text text-anchor="start" x="333.84" y="-1291.4" font-family="Arial" font-size="14.00" fill="#666666">[TEXT]</text>
</g>
<!-- ur_ingest_session_plm_issue_reaction&#45;&gt;ur_ingest_session_plm_reaction -->
<g id="edge1" class="edge">
<title>ur_ingest_session_plm_issue_reaction:ur_ingest_plm_reaction_id&#45;&gt;ur_ingest_session_plm_reaction:ur_ingest_session_plm_reaction_id</title>
<path fill="none" stroke="black" d="M242.33,-1601.65C93.94,-1572.93 351.78,-903.9 361.42,-833.4 367.27,-790.6 405.62,-736.2 362.42,-736.2"/>
<polygon fill="black" stroke="black" points="242.41,-1601.65 251.96,-1607.05 247.72,-1602.14 252.03,-1602.54 252.03,-1602.54 252.03,-1602.54 247.72,-1602.14 252.78,-1598.09 242.41,-1601.65"/>
</g>
<!-- ur_ingest_session_plm_acct_project_issue -->
<g id="node3" class="node">
<title>ur_ingest_session_plm_acct_project_issue</title>
<polygon fill="#efefef" stroke="none" points="468.71,-1121.2 468.71,-1156.8 858.91,-1156.8 858.91,-1121.2 468.71,-1121.2"/>
<polygon fill="none" stroke="black" points="468.71,-1121.2 468.71,-1156.8 858.91,-1156.8 858.91,-1121.2 468.71,-1121.2"/>
<text text-anchor="start" x="475.71" y="-1134.6" font-family="Arial Bold" font-size="18.00">ur_ingest_session_plm_acct_project_issue</text>
<text text-anchor="start" x="782.65" y="-1134.6" font-family="Arial" font-size="14.00">    </text>
<text text-anchor="start" x="813.77" y="-1134.6" font-family="Arial" font-size="14.00" fill="#666666">[table]</text>
<polygon fill="none" stroke="black" points="468.71,-1090.4 468.71,-1121.2 858.91,-1121.2 858.91,-1090.4 468.71,-1090.4"/>
<text text-anchor="start" x="475.71" y="-1102.6" font-family="Arial" font-size="14.00">ur_ingest_session_plm_acct_project_issue_id </text>
<text text-anchor="start" x="765.21" y="-1102.6" font-family="Arial" font-size="14.00" fill="#666666">[VARCHAR]</text>
<polygon fill="none" stroke="black" points="468.71,-1059.6 468.71,-1090.4 858.91,-1090.4 858.91,-1059.6 468.71,-1059.6"/>
<text text-anchor="start" x="475.71" y="-1071.8" font-family="Arial" font-size="14.00">ingest_session_id </text>
<text text-anchor="start" x="590.9" y="-1071.8" font-family="Arial" font-size="14.00" fill="#666666">[VARCHAR]</text>
<polygon fill="none" stroke="black" points="468.71,-1028.8 468.71,-1059.6 858.91,-1059.6 858.91,-1028.8 468.71,-1028.8"/>
<text text-anchor="start" x="475.71" y="-1041" font-family="Arial" font-size="14.00">ur_ingest_session_plm_acct_project_id </text>
<text text-anchor="start" x="724.74" y="-1041" font-family="Arial" font-size="14.00" fill="#666666">[VARCHAR]</text>
<polygon fill="none" stroke="black" points="468.71,-998 468.71,-1028.8 858.91,-1028.8 858.91,-998 468.71,-998"/>
<text text-anchor="start" x="475.71" y="-1010.2" font-family="Arial" font-size="14.00">uniform_resource_id </text>
<text text-anchor="start" x="607.22" y="-1010.2" font-family="Arial" font-size="14.00" fill="#666666">[VARCHAR]</text>
<polygon fill="none" stroke="black" points="468.71,-967.2 468.71,-998 858.91,-998 858.91,-967.2 468.71,-967.2"/>
<text text-anchor="start" x="475.71" y="-979.4" font-family="Arial" font-size="14.00">issue_id </text>
<text text-anchor="start" x="530.97" y="-979.4" font-family="Arial" font-size="14.00" fill="#666666">[TEXT]</text>
<polygon fill="none" stroke="black" points="468.71,-936.4 468.71,-967.2 858.91,-967.2 858.91,-936.4 468.71,-936.4"/>
<text text-anchor="start" x="475.71" y="-948.6" font-family="Arial" font-size="14.00">issue_number </text>
<text text-anchor="start" x="567.54" y="-948.6" font-family="Arial" font-size="14.00" fill="#666666">[INTEGER]</text>
<polygon fill="none" stroke="black" points="468.71,-905.6 468.71,-936.4 858.91,-936.4 858.91,-905.6 468.71,-905.6"/>
<text text-anchor="start" x="475.71" y="-917.8" font-family="Arial" font-size="14.00">parent_issue_id </text>
<text text-anchor="start" x="578.45" y="-917.8" font-family="Arial" font-size="14.00" fill="#666666">[TEXT]</text>
<polygon fill="none" stroke="black" points="468.71,-874.8 468.71,-905.6 858.91,-905.6 858.91,-874.8 468.71,-874.8"/>
<text text-anchor="start" x="475.71" y="-887" font-family="Arial" font-size="14.00">title </text>
<text text-anchor="start" x="501.39" y="-887" font-family="Arial" font-size="14.00" fill="#666666">[TEXT]</text>
<polygon fill="none" stroke="black" points="468.71,-844 468.71,-874.8 858.91,-874.8 858.91,-844 468.71,-844"/>
<text text-anchor="start" x="475.71" y="-856.2" font-family="Arial" font-size="14.00">body </text>
<text text-anchor="start" x="509.96" y="-856.2" font-family="Arial" font-size="14.00" fill="#666666">[TEXT]</text>
<polygon fill="none" stroke="black" points="468.71,-813.2 468.71,-844 858.91,-844 858.91,-813.2 468.71,-813.2"/>
<text text-anchor="start" x="475.71" y="-825.4" font-family="Arial" font-size="14.00">body_text </text>
<text text-anchor="start" x="540.31" y="-825.4" font-family="Arial" font-size="14.00" fill="#666666">[TEXT]</text>
<polygon fill="none" stroke="black" points="468.71,-782.4 468.71,-813.2 858.91,-813.2 858.91,-782.4 468.71,-782.4"/>
<text text-anchor="start" x="475.71" y="-794.6" font-family="Arial" font-size="14.00">body_html </text>
<text text-anchor="start" x="544.19" y="-794.6" font-family="Arial" font-size="14.00" fill="#666666">[TEXT]</text>
<polygon fill="none" stroke="black" points="468.71,-751.6 468.71,-782.4 858.91,-782.4 858.91,-751.6 468.71,-751.6"/>
<text text-anchor="start" x="475.71" y="-763.8" font-family="Arial" font-size="14.00">state </text>
<text text-anchor="start" x="509.95" y="-763.8" font-family="Arial" font-size="14.00" fill="#666666">[TEXT]</text>
<polygon fill="none" stroke="black" points="468.71,-720.8 468.71,-751.6 858.91,-751.6 858.91,-720.8 468.71,-720.8"/>
<text text-anchor="start" x="475.71" y="-733" font-family="Arial" font-size="14.00">assigned_to </text>
<text text-anchor="start" x="555.1" y="-733" font-family="Arial" font-size="14.00" fill="#666666">[TEXT]</text>
<polygon fill="none" stroke="black" points="468.71,-690 468.71,-720.8 858.91,-720.8 858.91,-690 468.71,-690"/>
<text text-anchor="start" x="475.71" y="-702.2" font-family="Arial" font-size="14.00">user </text>
<text text-anchor="start" x="506.83" y="-702.2" font-family="Arial" font-size="14.00" fill="#666666">[VARCHAR]</text>
<polygon fill="none" stroke="black" points="468.71,-659.2 468.71,-690 858.91,-690 858.91,-659.2 468.71,-659.2"/>
<text text-anchor="start" x="475.71" y="-671.4" font-family="Arial" font-size="14.00">url </text>
<text text-anchor="start" x="495.16" y="-671.4" font-family="Arial" font-size="14.00" fill="#666666">[TEXT]</text>
<polygon fill="none" stroke="black" points="468.71,-628.4 468.71,-659.2 858.91,-659.2 858.91,-628.4 468.71,-628.4"/>
<text text-anchor="start" x="475.71" y="-640.6" font-family="Arial" font-size="14.00">closed_at </text>
<text text-anchor="start" x="539.53" y="-640.6" font-family="Arial" font-size="14.00" fill="#666666">[TEXT]</text>
<polygon fill="none" stroke="black" points="468.71,-597.6 468.71,-628.4 858.91,-628.4 858.91,-597.6 468.71,-597.6"/>
<text text-anchor="start" x="475.71" y="-609.8" font-family="Arial" font-size="14.00">issue_type_id </text>
<text text-anchor="start" x="565.21" y="-609.8" font-family="Arial" font-size="14.00" fill="#666666">[VARCHAR]</text>
<polygon fill="none" stroke="black" points="468.71,-566.8 468.71,-597.6 858.91,-597.6 858.91,-566.8 468.71,-566.8"/>
<text text-anchor="start" x="475.71" y="-579" font-family="Arial" font-size="14.00">time_estimate </text>
<text text-anchor="start" x="566.74" y="-579" font-family="Arial" font-size="14.00" fill="#666666">[INTEGER]</text>
<polygon fill="none" stroke="black" points="468.71,-536 468.71,-566.8 858.91,-566.8 858.91,-536 468.71,-536"/>
<text text-anchor="start" x="475.71" y="-548.2" font-family="Arial" font-size="14.00">aggregate_time_estimate </text>
<text text-anchor="start" x="637.59" y="-548.2" font-family="Arial" font-size="14.00" fill="#666666">[INTEGER]</text>
<polygon fill="none" stroke="black" points="468.71,-505.2 468.71,-536 858.91,-536 858.91,-505.2 468.71,-505.2"/>
<text text-anchor="start" x="475.71" y="-517.4" font-family="Arial" font-size="14.00">time_original_estimate </text>
<text text-anchor="start" x="619.67" y="-517.4" font-family="Arial" font-size="14.00" fill="#666666">[INTEGER]</text>
<polygon fill="none" stroke="black" points="468.71,-474.4 468.71,-505.2 858.91,-505.2 858.91,-474.4 468.71,-474.4"/>
<text text-anchor="start" x="475.71" y="-486.6" font-family="Arial" font-size="14.00">time_spent </text>
<text text-anchor="start" x="548.08" y="-486.6" font-family="Arial" font-size="14.00" fill="#666666">[INTEGER]</text>
<polygon fill="none" stroke="black" points="468.71,-443.6 468.71,-474.4 858.91,-474.4 858.91,-443.6 468.71,-443.6"/>
<text text-anchor="start" x="475.71" y="-455.8" font-family="Arial" font-size="14.00">aggregate_time_spent </text>
<text text-anchor="start" x="618.92" y="-455.8" font-family="Arial" font-size="14.00" fill="#666666">[INTEGER]</text>
<polygon fill="none" stroke="black" points="468.71,-412.8 468.71,-443.6 858.91,-443.6 858.91,-412.8 468.71,-412.8"/>
<text text-anchor="start" x="475.71" y="-425" font-family="Arial" font-size="14.00">aggregate_time_original_estimate </text>
<text text-anchor="start" x="690.51" y="-425" font-family="Arial" font-size="14.00" fill="#666666">[INTEGER]</text>
<polygon fill="none" stroke="black" points="468.71,-382 468.71,-412.8 858.91,-412.8 858.91,-382 468.71,-382"/>
<text text-anchor="start" x="475.71" y="-394.2" font-family="Arial" font-size="14.00">workratio </text>
<text text-anchor="start" x="536.39" y="-394.2" font-family="Arial" font-size="14.00" fill="#666666">[INTEGER]</text>
<polygon fill="none" stroke="black" points="468.71,-351.2 468.71,-382 858.91,-382 858.91,-351.2 468.71,-351.2"/>
<text text-anchor="start" x="475.71" y="-363.4" font-family="Arial" font-size="14.00">current_progress </text>
<text text-anchor="start" x="585.43" y="-363.4" font-family="Arial" font-size="14.00" fill="#666666">[INTEGER]</text>
<polygon fill="none" stroke="black" points="468.71,-320.4 468.71,-351.2 858.91,-351.2 858.91,-320.4 468.71,-320.4"/>
<text text-anchor="start" x="475.71" y="-332.6" font-family="Arial" font-size="14.00">total_progress </text>
<text text-anchor="start" x="568.32" y="-332.6" font-family="Arial" font-size="14.00" fill="#666666">[INTEGER]</text>
<polygon fill="none" stroke="black" points="468.71,-289.6 468.71,-320.4 858.91,-320.4 858.91,-289.6 468.71,-289.6"/>
<text text-anchor="start" x="475.71" y="-301.8" font-family="Arial" font-size="14.00">resolution_name </text>
<text text-anchor="start" x="583.11" y="-301.8" font-family="Arial" font-size="14.00" fill="#666666">[TEXT]</text>
<polygon fill="none" stroke="black" points="468.71,-258.8 468.71,-289.6 858.91,-289.6 858.91,-258.8 468.71,-258.8"/>
<text text-anchor="start" x="475.71" y="-271" font-family="Arial" font-size="14.00">resolution_date </text>
<text text-anchor="start" x="575.34" y="-271" font-family="Arial" font-size="14.00" fill="#666666">[TEXT]</text>
<polygon fill="none" stroke="black" points="468.71,-228 468.71,-258.8 858.91,-258.8 858.91,-228 468.71,-228"/>
<text text-anchor="start" x="475.71" y="-240.2" font-family="Arial" font-size="14.00">created_at </text>
<text text-anchor="start" x="545.76" y="-240.2" font-family="Arial" font-size="14.00" fill="#666666">[TIMESTAMPTZ]</text>
<polygon fill="none" stroke="black" points="468.71,-197.2 468.71,-228 858.91,-228 858.91,-197.2 468.71,-197.2"/>
<text text-anchor="start" x="475.71" y="-209.4" font-family="Arial" font-size="14.00">created_by </text>
<text text-anchor="start" x="548.87" y="-209.4" font-family="Arial" font-size="14.00" fill="#666666">[TEXT]</text>
<polygon fill="none" stroke="black" points="468.71,-166.4 468.71,-197.2 858.91,-197.2 858.91,-166.4 468.71,-166.4"/>
<text text-anchor="start" x="475.71" y="-178.6" font-family="Arial" font-size="14.00">updated_at </text>
<text text-anchor="start" x="549.67" y="-178.6" font-family="Arial" font-size="14.00" fill="#666666">[TIMESTAMPTZ]</text>
<polygon fill="none" stroke="black" points="468.71,-135.6 468.71,-166.4 858.91,-166.4 858.91,-135.6 468.71,-135.6"/>
<text text-anchor="start" x="475.71" y="-147.8" font-family="Arial" font-size="14.00">updated_by </text>
<text text-anchor="start" x="552.78" y="-147.8" font-family="Arial" font-size="14.00" fill="#666666">[TEXT]</text>
<polygon fill="none" stroke="black" points="468.71,-104.8 468.71,-135.6 858.91,-135.6 858.91,-104.8 468.71,-104.8"/>
<text text-anchor="start" x="475.71" y="-117" font-family="Arial" font-size="14.00">deleted_at </text>
<text text-anchor="start" x="544.99" y="-117" font-family="Arial" font-size="14.00" fill="#666666">[TIMESTAMPTZ]</text>
<polygon fill="none" stroke="black" points="468.71,-74 468.71,-104.8 858.91,-104.8 858.91,-74 468.71,-74"/>
<text text-anchor="start" x="475.71" y="-86.2" font-family="Arial" font-size="14.00">deleted_by </text>
<text text-anchor="start" x="548.1" y="-86.2" font-family="Arial" font-size="14.00" fill="#666666">[TEXT]</text>
<polygon fill="none" stroke="black" points="468.71,-43.2 468.71,-74 858.91,-74 858.91,-43.2 468.71,-43.2"/>
<text text-anchor="start" x="475.71" y="-55.4" font-family="Arial" font-size="14.00">activity_log </text>
<text text-anchor="start" x="548.85" y="-55.4" font-family="Arial" font-size="14.00" fill="#666666">[TEXT]</text>
</g>
<!-- ur_ingest_session_plm_issue_reaction&#45;&gt;ur_ingest_session_plm_acct_project_issue -->
<g id="edge2" class="edge">
<title>ur_ingest_session_plm_issue_reaction:ur_ingest_plm_issue_id&#45;&gt;ur_ingest_session_plm_acct_project_issue:ur_ingest_session_plm_acct_project_issue_id</title>
<path fill="none" stroke="black" d="M625.07,-1571.44C761.42,-1561.62 703.89,-1350.66 613.92,-1236 572.87,-1183.69 509.96,-1252.15 468.71,-1200 442.74,-1167.16 425.84,-1105.8 467.71,-1105.8"/>
<polygon fill="black" stroke="black" points="625.24,-1571.44 615.09,-1567.29 619.91,-1571.62 615.58,-1571.78 615.58,-1571.78 615.58,-1571.78 619.91,-1571.62 615.41,-1576.29 625.24,-1571.44"/>
</g>
</g>
</svg>
