<?xml version="1.0" encoding="UTF-8" standalone="no"?>
<!DOCTYPE svg PUBLIC "-//W3C//DTD SVG 1.1//EN"
 "http://www.w3.org/Graphics/SVG/1.1/DTD/svg11.dtd">
<!-- Generated by graphviz version 12.1.2 (20240928.0832)
 -->
<!-- Title: assurance_schema Pages: 1 -->
<svg width="335pt" height="506pt"
 viewBox="0.00 0.00 334.61 505.60" xmlns="http://www.w3.org/2000/svg" xmlns:xlink="http://www.w3.org/1999/xlink">
<g id="graph0" class="graph" transform="scale(1 1) rotate(0) translate(4 501.6)">
<title>assurance_schema</title>
<polygon fill="white" stroke="none" points="-4,4 -4,-501.6 330.61,-501.6 330.61,4 -4,4"/>
<!-- assurance_schema -->
<g id="node1" class="node">
<title>assurance_schema</title>
<polygon fill="#efefef" stroke="none" points="46.2,-415.8 46.2,-451.4 280.41,-451.4 280.41,-415.8 46.2,-415.8"/>
<polygon fill="none" stroke="black" points="46.2,-415.8 46.2,-451.4 280.41,-451.4 280.41,-415.8 46.2,-415.8"/>
<text text-anchor="start" x="62.21" y="-429.2" font-family="Arial Bold" font-size="18.00">assurance_schema</text>
<text text-anchor="start" x="195.14" y="-429.2" font-family="Arial" font-size="14.00">    </text>
<text text-anchor="start" x="226.26" y="-429.2" font-family="Arial" font-size="14.00" fill="#666666">[table]</text>
<polygon fill="none" stroke="black" points="46.2,-385 46.2,-415.8 280.41,-415.8 280.41,-385 46.2,-385"/>
<text text-anchor="start" x="53.2" y="-397.2" font-family="Arial" font-size="14.00">assurance_schema_id </text>
<text text-anchor="start" x="197.17" y="-397.2" font-family="Arial" font-size="14.00" fill="#666666">[VARCHAR]</text>
<polygon fill="none" stroke="black" points="46.2,-354.2 46.2,-385 280.41,-385 280.41,-354.2 46.2,-354.2"/>
<text text-anchor="start" x="53.2" y="-366.4" font-family="Arial" font-size="14.00">assurance_type </text>
<text text-anchor="start" x="155.93" y="-366.4" font-family="Arial" font-size="14.00" fill="#666666">[TEXT]</text>
<polygon fill="none" stroke="black" points="46.2,-323.4 46.2,-354.2 280.41,-354.2 280.41,-323.4 46.2,-323.4"/>
<text text-anchor="start" x="53.2" y="-335.6" font-family="Arial" font-size="14.00">code </text>
<text text-anchor="start" x="87.45" y="-335.6" font-family="Arial" font-size="14.00" fill="#666666">[TEXT]</text>
<polygon fill="none" stroke="black" points="46.2,-292.6 46.2,-323.4 280.41,-323.4 280.41,-292.6 46.2,-292.6"/>
<text text-anchor="start" x="53.2" y="-304.8" font-family="Arial" font-size="14.00">code_json </text>
<text text-anchor="start" x="120.92" y="-304.8" font-family="Arial" font-size="14.00" fill="#666666">[TEXT]</text>
<polygon fill="none" stroke="black" points="46.2,-261.8 46.2,-292.6 280.41,-292.6 280.41,-261.8 46.2,-261.8"/>
<text text-anchor="start" x="53.2" y="-274" font-family="Arial" font-size="14.00">governance </text>
<text text-anchor="start" x="130.25" y="-274" font-family="Arial" font-size="14.00" fill="#666666">[TEXT]</text>
<polygon fill="none" stroke="black" points="46.2,-231 46.2,-261.8 280.41,-261.8 280.41,-231 46.2,-231"/>
<text text-anchor="start" x="53.2" y="-243.2" font-family="Arial" font-size="14.00">created_at </text>
<text text-anchor="start" x="123.25" y="-243.2" font-family="Arial" font-size="14.00" fill="#666666">[TIMESTAMPTZ]</text>
<polygon fill="none" stroke="black" points="46.2,-200.2 46.2,-231 280.41,-231 280.41,-200.2 46.2,-200.2"/>
<text text-anchor="start" x="53.2" y="-212.4" font-family="Arial" font-size="14.00">created_by </text>
<text text-anchor="start" x="126.36" y="-212.4" font-family="Arial" font-size="14.00" fill="#666666">[TEXT]</text>
<polygon fill="none" stroke="black" points="46.2,-169.4 46.2,-200.2 280.41,-200.2 280.41,-169.4 46.2,-169.4"/>
<text text-anchor="start" x="53.2" y="-181.6" font-family="Arial" font-size="14.00">updated_at </text>
<text text-anchor="start" x="127.16" y="-181.6" font-family="Arial" font-size="14.00" fill="#666666">[TIMESTAMPTZ]</text>
<polygon fill="none" stroke="black" points="46.2,-138.6 46.2,-169.4 280.41,-169.4 280.41,-138.6 46.2,-138.6"/>
<text text-anchor="start" x="53.2" y="-150.8" font-family="Arial" font-size="14.00">updated_by </text>
<text text-anchor="start" x="130.27" y="-150.8" font-family="Arial" font-size="14.00" fill="#666666">[TEXT]</text>
<polygon fill="none" stroke="black" points="46.2,-107.8 46.2,-138.6 280.41,-138.6 280.41,-107.8 46.2,-107.8"/>
<text text-anchor="start" x="53.2" y="-120" font-family="Arial" font-size="14.00">deleted_at </text>
<text text-anchor="start" x="122.48" y="-120" font-family="Arial" font-size="14.00" fill="#666666">[TIMESTAMPTZ]</text>
<polygon fill="none" stroke="black" points="46.2,-77 46.2,-107.8 280.41,-107.8 280.41,-77 46.2,-77"/>
<text text-anchor="start" x="53.2" y="-89.2" font-family="Arial" font-size="14.00">deleted_by </text>
<text text-anchor="start" x="125.59" y="-89.2" font-family="Arial" font-size="14.00" fill="#666666">[TEXT]</text>
<polygon fill="none" stroke="black" points="46.2,-46.2 46.2,-77 280.41,-77 280.41,-46.2 46.2,-46.2"/>
<text text-anchor="start" x="53.2" y="-58.4" font-family="Arial" font-size="14.00">activity_log </text>
<text text-anchor="start" x="126.34" y="-58.4" font-family="Arial" font-size="14.00" fill="#666666">[TEXT]</text>
<polygon fill="none" stroke="black" stroke-width="3" points="44.7,-44.7 44.7,-452.9 281.91,-452.9 281.91,-44.7 44.7,-44.7"/>
</g>
</g>
</svg>
