<?xml version="1.0" encoding="UTF-8" standalone="no"?>
<!DOCTYPE svg PUBLIC "-//W3C//DTD SVG 1.1//EN"
 "http://www.w3.org/Graphics/SVG/1.1/DTD/svg11.dtd">
<!-- Generated by graphviz version 12.1.2 (20240928.0832)
 -->
<!-- Title: code_notebook_kernel Pages: 1 -->
<svg width="358pt" height="1838pt"
 viewBox="0.00 0.00 357.62 1838.00" xmlns="http://www.w3.org/2000/svg" xmlns:xlink="http://www.w3.org/1999/xlink">
<g id="graph0" class="graph" transform="scale(1 1) rotate(0) translate(4 1834)">
<title>code_notebook_kernel</title>
<polygon fill="white" stroke="none" points="-4,4 -4,-1834 353.62,-1834 353.62,4 -4,4"/>
<!-- code_notebook_kernel -->
<g id="node1" class="node">
<title>code_notebook_kernel</title>
<polygon fill="#efefef" stroke="none" points="46.2,-477.4 46.2,-513 300.67,-513 300.67,-477.4 46.2,-477.4"/>
<polygon fill="none" stroke="black" points="46.2,-477.4 46.2,-513 300.67,-513 300.67,-477.4 46.2,-477.4"/>
<text text-anchor="start" x="56.84" y="-490.8" font-family="Arial Bold" font-size="18.00">code_notebook_kernel</text>
<text text-anchor="start" x="220.78" y="-490.8" font-family="Arial" font-size="14.00">    </text>
<text text-anchor="start" x="251.9" y="-490.8" font-family="Arial" font-size="14.00" fill="#666666">[table]</text>
<polygon fill="none" stroke="black" points="46.2,-446.6 46.2,-477.4 300.67,-477.4 300.67,-446.6 46.2,-446.6"/>
<text text-anchor="start" x="53.2" y="-458.8" font-family="Arial" font-size="14.00">code_notebook_kernel_id </text>
<text text-anchor="start" x="217.44" y="-458.8" font-family="Arial" font-size="14.00" fill="#666666">[VARCHAR]</text>
<polygon fill="none" stroke="black" points="46.2,-415.8 46.2,-446.6 300.67,-446.6 300.67,-415.8 46.2,-415.8"/>
<text text-anchor="start" x="53.2" y="-428" font-family="Arial" font-size="14.00">kernel_name </text>
<text text-anchor="start" x="138.03" y="-428" font-family="Arial" font-size="14.00" fill="#666666">[TEXT]</text>
<polygon fill="none" stroke="black" points="46.2,-385 46.2,-415.8 300.67,-415.8 300.67,-385 46.2,-385"/>
<text text-anchor="start" x="53.2" y="-397.2" font-family="Arial" font-size="14.00">description </text>
<text text-anchor="start" x="124.79" y="-397.2" font-family="Arial" font-size="14.00" fill="#666666">[TEXT]</text>
<polygon fill="none" stroke="black" points="46.2,-354.2 46.2,-385 300.67,-385 300.67,-354.2 46.2,-354.2"/>
<text text-anchor="start" x="53.2" y="-366.4" font-family="Arial" font-size="14.00">mime_type </text>
<text text-anchor="start" x="125.56" y="-366.4" font-family="Arial" font-size="14.00" fill="#666666">[TEXT]</text>
<polygon fill="none" stroke="black" points="46.2,-323.4 46.2,-354.2 300.67,-354.2 300.67,-323.4 46.2,-323.4"/>
<text text-anchor="start" x="53.2" y="-335.6" font-family="Arial" font-size="14.00">file_extn </text>
<text text-anchor="start" x="109.23" y="-335.6" font-family="Arial" font-size="14.00" fill="#666666">[TEXT]</text>
<polygon fill="none" stroke="black" points="46.2,-292.6 46.2,-323.4 300.67,-323.4 300.67,-292.6 46.2,-292.6"/>
<text text-anchor="start" x="53.2" y="-304.8" font-family="Arial" font-size="14.00">elaboration </text>
<text text-anchor="start" x="126.37" y="-304.8" font-family="Arial" font-size="14.00" fill="#666666">[TEXT]</text>
<polygon fill="none" stroke="black" points="46.2,-261.8 46.2,-292.6 300.67,-292.6 300.67,-261.8 46.2,-261.8"/>
<text text-anchor="start" x="53.2" y="-274" font-family="Arial" font-size="14.00">governance </text>
<text text-anchor="start" x="130.25" y="-274" font-family="Arial" font-size="14.00" fill="#666666">[TEXT]</text>
<polygon fill="none" stroke="black" points="46.2,-231 46.2,-261.8 300.67,-261.8 300.67,-231 46.2,-231"/>
<text text-anchor="start" x="53.2" y="-243.2" font-family="Arial" font-size="14.00">created_at </text>
<text text-anchor="start" x="123.25" y="-243.2" font-family="Arial" font-size="14.00" fill="#666666">[TIMESTAMPTZ]</text>
<polygon fill="none" stroke="black" points="46.2,-200.2 46.2,-231 300.67,-231 300.67,-200.2 46.2,-200.2"/>
<text text-anchor="start" x="53.2" y="-212.4" font-family="Arial" font-size="14.00">created_by </text>
<text text-anchor="start" x="126.36" y="-212.4" font-family="Arial" font-size="14.00" fill="#666666">[TEXT]</text>
<polygon fill="none" stroke="black" points="46.2,-169.4 46.2,-200.2 300.67,-200.2 300.67,-169.4 46.2,-169.4"/>
<text text-anchor="start" x="53.2" y="-181.6" font-family="Arial" font-size="14.00">updated_at </text>
<text text-anchor="start" x="127.16" y="-181.6" font-family="Arial" font-size="14.00" fill="#666666">[TIMESTAMPTZ]</text>
<polygon fill="none" stroke="black" points="46.2,-138.6 46.2,-169.4 300.67,-169.4 300.67,-138.6 46.2,-138.6"/>
<text text-anchor="start" x="53.2" y="-150.8" font-family="Arial" font-size="14.00">updated_by </text>
<text text-anchor="start" x="130.27" y="-150.8" font-family="Arial" font-size="14.00" fill="#666666">[TEXT]</text>
<polygon fill="none" stroke="black" points="46.2,-107.8 46.2,-138.6 300.67,-138.6 300.67,-107.8 46.2,-107.8"/>
<text text-anchor="start" x="53.2" y="-120" font-family="Arial" font-size="14.00">deleted_at </text>
<text text-anchor="start" x="122.48" y="-120" font-family="Arial" font-size="14.00" fill="#666666">[TIMESTAMPTZ]</text>
<polygon fill="none" stroke="black" points="46.2,-77 46.2,-107.8 300.67,-107.8 300.67,-77 46.2,-77"/>
<text text-anchor="start" x="53.2" y="-89.2" font-family="Arial" font-size="14.00">deleted_by </text>
<text text-anchor="start" x="125.59" y="-89.2" font-family="Arial" font-size="14.00" fill="#666666">[TEXT]</text>
<polygon fill="none" stroke="black" points="46.2,-46.2 46.2,-77 300.67,-77 300.67,-46.2 46.2,-46.2"/>
<text text-anchor="start" x="53.2" y="-58.4" font-family="Arial" font-size="14.00">activity_log </text>
<text text-anchor="start" x="126.34" y="-58.4" font-family="Arial" font-size="14.00" fill="#666666">[TEXT]</text>
<polygon fill="none" stroke="black" stroke-width="3" points="44.7,-44.7 44.7,-514.5 302.17,-514.5 302.17,-44.7 44.7,-44.7"/>
</g>
<!-- code_notebook_cell -->
<g id="node2" class="node">
<title>code_notebook_cell</title>
<polygon fill="#efefef" stroke="none" points="54.76,-1131.2 54.76,-1166.8 292.11,-1166.8 292.11,-1131.2 54.76,-1131.2"/>
<polygon fill="none" stroke="black" points="54.76,-1131.2 54.76,-1166.8 292.11,-1166.8 292.11,-1131.2 54.76,-1131.2"/>
<text text-anchor="start" x="66.34" y="-1144.6" font-family="Arial Bold" font-size="18.00">code_notebook_cell</text>
<text text-anchor="start" x="211.28" y="-1144.6" font-family="Arial" font-size="14.00">    </text>
<text text-anchor="start" x="242.4" y="-1144.6" font-family="Arial" font-size="14.00" fill="#666666">[table]</text>
<polygon fill="none" stroke="black" points="54.76,-1100.4 54.76,-1131.2 292.11,-1131.2 292.11,-1100.4 54.76,-1100.4"/>
<text text-anchor="start" x="61.76" y="-1112.6" font-family="Arial" font-size="14.00">code_notebook_cell_id </text>
<text text-anchor="start" x="208.88" y="-1112.6" font-family="Arial" font-size="14.00" fill="#666666">[VARCHAR]</text>
<polygon fill="none" stroke="black" points="54.76,-1069.6 54.76,-1100.4 292.11,-1100.4 292.11,-1069.6 54.76,-1069.6"/>
<text text-anchor="start" x="61.76" y="-1081.8" font-family="Arial" font-size="14.00">notebook_kernel_id </text>
<text text-anchor="start" x="187.86" y="-1081.8" font-family="Arial" font-size="14.00" fill="#666666">[VARCHAR]</text>
<polygon fill="none" stroke="black" points="54.76,-1038.8 54.76,-1069.6 292.11,-1069.6 292.11,-1038.8 54.76,-1038.8"/>
<text text-anchor="start" x="61.76" y="-1051" font-family="Arial" font-size="14.00">notebook_name </text>
<text text-anchor="start" x="166.06" y="-1051" font-family="Arial" font-size="14.00" fill="#666666">[TEXT]</text>
<polygon fill="none" stroke="black" points="54.76,-1008 54.76,-1038.8 292.11,-1038.8 292.11,-1008 54.76,-1008"/>
<text text-anchor="start" x="61.76" y="-1020.2" font-family="Arial" font-size="14.00">cell_name </text>
<text text-anchor="start" x="129.47" y="-1020.2" font-family="Arial" font-size="14.00" fill="#666666">[TEXT]</text>
<polygon fill="none" stroke="black" points="54.76,-977.2 54.76,-1008 292.11,-1008 292.11,-977.2 54.76,-977.2"/>
<text text-anchor="start" x="61.76" y="-989.4" font-family="Arial" font-size="14.00">cell_governance </text>
<text text-anchor="start" x="167.61" y="-989.4" font-family="Arial" font-size="14.00" fill="#666666">[TEXT]</text>
<polygon fill="none" stroke="black" points="54.76,-946.4 54.76,-977.2 292.11,-977.2 292.11,-946.4 54.76,-946.4"/>
<text text-anchor="start" x="61.76" y="-958.6" font-family="Arial" font-size="14.00">interpretable_code </text>
<text text-anchor="start" x="181.62" y="-958.6" font-family="Arial" font-size="14.00" fill="#666666">[TEXT]</text>
<polygon fill="none" stroke="black" points="54.76,-915.6 54.76,-946.4 292.11,-946.4 292.11,-915.6 54.76,-915.6"/>
<text text-anchor="start" x="61.76" y="-927.8" font-family="Arial" font-size="14.00">interpretable_code_hash </text>
<text text-anchor="start" x="219.77" y="-927.8" font-family="Arial" font-size="14.00" fill="#666666">[TEXT]</text>
<polygon fill="none" stroke="black" points="54.76,-884.8 54.76,-915.6 292.11,-915.6 292.11,-884.8 54.76,-884.8"/>
<text text-anchor="start" x="61.76" y="-897" font-family="Arial" font-size="14.00">description </text>
<text text-anchor="start" x="133.35" y="-897" font-family="Arial" font-size="14.00" fill="#666666">[TEXT]</text>
<polygon fill="none" stroke="black" points="54.76,-854 54.76,-884.8 292.11,-884.8 292.11,-854 54.76,-854"/>
<text text-anchor="start" x="61.76" y="-866.2" font-family="Arial" font-size="14.00">arguments </text>
<text text-anchor="start" x="131.8" y="-866.2" font-family="Arial" font-size="14.00" fill="#666666">[TEXT]</text>
<polygon fill="none" stroke="black" points="54.76,-823.2 54.76,-854 292.11,-854 292.11,-823.2 54.76,-823.2"/>
<text text-anchor="start" x="61.76" y="-835.4" font-family="Arial" font-size="14.00">created_at </text>
<text text-anchor="start" x="131.81" y="-835.4" font-family="Arial" font-size="14.00" fill="#666666">[TIMESTAMPTZ]</text>
<polygon fill="none" stroke="black" points="54.76,-792.4 54.76,-823.2 292.11,-823.2 292.11,-792.4 54.76,-792.4"/>
<text text-anchor="start" x="61.76" y="-804.6" font-family="Arial" font-size="14.00">created_by </text>
<text text-anchor="start" x="134.92" y="-804.6" font-family="Arial" font-size="14.00" fill="#666666">[TEXT]</text>
<polygon fill="none" stroke="black" points="54.76,-761.6 54.76,-792.4 292.11,-792.4 292.11,-761.6 54.76,-761.6"/>
<text text-anchor="start" x="61.76" y="-773.8" font-family="Arial" font-size="14.00">updated_at </text>
<text text-anchor="start" x="135.72" y="-773.8" font-family="Arial" font-size="14.00" fill="#666666">[TIMESTAMPTZ]</text>
<polygon fill="none" stroke="black" points="54.76,-730.8 54.76,-761.6 292.11,-761.6 292.11,-730.8 54.76,-730.8"/>
<text text-anchor="start" x="61.76" y="-743" font-family="Arial" font-size="14.00">updated_by </text>
<text text-anchor="start" x="138.83" y="-743" font-family="Arial" font-size="14.00" fill="#666666">[TEXT]</text>
<polygon fill="none" stroke="black" points="54.76,-700 54.76,-730.8 292.11,-730.8 292.11,-700 54.76,-700"/>
<text text-anchor="start" x="61.76" y="-712.2" font-family="Arial" font-size="14.00">deleted_at </text>
<text text-anchor="start" x="131.04" y="-712.2" font-family="Arial" font-size="14.00" fill="#666666">[TIMESTAMPTZ]</text>
<polygon fill="none" stroke="black" points="54.76,-669.2 54.76,-700 292.11,-700 292.11,-669.2 54.76,-669.2"/>
<text text-anchor="start" x="61.76" y="-681.4" font-family="Arial" font-size="14.00">deleted_by </text>
<text text-anchor="start" x="134.15" y="-681.4" font-family="Arial" font-size="14.00" fill="#666666">[TEXT]</text>
<polygon fill="none" stroke="black" points="54.76,-638.4 54.76,-669.2 292.11,-669.2 292.11,-638.4 54.76,-638.4"/>
<text text-anchor="start" x="61.76" y="-650.6" font-family="Arial" font-size="14.00">activity_log </text>
<text text-anchor="start" x="134.91" y="-650.6" font-family="Arial" font-size="14.00" fill="#666666">[TEXT]</text>
</g>
<!-- code_notebook_cell&#45;&gt;code_notebook_kernel -->
<g id="edge1" class="edge">
<title>code_notebook_cell:notebook_kernel_id&#45;&gt;code_notebook_kernel:code_notebook_kernel_id</title>
<path fill="none" stroke="black" d="M302.45,-1081.02C362.97,-1027.96 367.66,-462 301.67,-462"/>
<polygon fill="black" stroke="black" points="302.62,-1080.95 291.66,-1080.73 297.71,-1083.04 293.73,-1084.74 293.73,-1084.74 293.73,-1084.74 297.71,-1083.04 295.18,-1089.01 302.62,-1080.95"/>
</g>
<!-- code_notebook_state -->
<g id="node3" class="node">
<title>code_notebook_state</title>
<polygon fill="#efefef" stroke="none" points="50.09,-1751.2 50.09,-1786.8 296.78,-1786.8 296.78,-1751.2 50.09,-1751.2"/>
<polygon fill="none" stroke="black" points="50.09,-1751.2 50.09,-1786.8 296.78,-1786.8 296.78,-1751.2 50.09,-1751.2"/>
<text text-anchor="start" x="62.83" y="-1764.6" font-family="Arial Bold" font-size="18.00">code_notebook_state</text>
<text text-anchor="start" x="214.79" y="-1764.6" font-family="Arial" font-size="14.00">    </text>
<text text-anchor="start" x="245.9" y="-1764.6" font-family="Arial" font-size="14.00" fill="#666666">[table]</text>
<polygon fill="none" stroke="black" points="50.09,-1720.4 50.09,-1751.2 296.78,-1751.2 296.78,-1720.4 50.09,-1720.4"/>
<text text-anchor="start" x="57.09" y="-1732.6" font-family="Arial" font-size="14.00">code_notebook_state_id </text>
<text text-anchor="start" x="213.55" y="-1732.6" font-family="Arial" font-size="14.00" fill="#666666">[VARCHAR]</text>
<polygon fill="none" stroke="black" points="50.09,-1689.6 50.09,-1720.4 296.78,-1720.4 296.78,-1689.6 50.09,-1689.6"/>
<text text-anchor="start" x="57.09" y="-1701.8" font-family="Arial" font-size="14.00">code_notebook_cell_id </text>
<text text-anchor="start" x="204.21" y="-1701.8" font-family="Arial" font-size="14.00" fill="#666666">[VARCHAR]</text>
<polygon fill="none" stroke="black" points="50.09,-1658.8 50.09,-1689.6 296.78,-1689.6 296.78,-1658.8 50.09,-1658.8"/>
<text text-anchor="start" x="57.09" y="-1671" font-family="Arial" font-size="14.00">from_state </text>
<text text-anchor="start" x="127.12" y="-1671" font-family="Arial" font-size="14.00" fill="#666666">[TEXT]</text>
<polygon fill="none" stroke="black" points="50.09,-1628 50.09,-1658.8 296.78,-1658.8 296.78,-1628 50.09,-1628"/>
<text text-anchor="start" x="57.09" y="-1640.2" font-family="Arial" font-size="14.00">to_state </text>
<text text-anchor="start" x="110.79" y="-1640.2" font-family="Arial" font-size="14.00" fill="#666666">[TEXT]</text>
<polygon fill="none" stroke="black" points="50.09,-1597.2 50.09,-1628 296.78,-1628 296.78,-1597.2 50.09,-1597.2"/>
<text text-anchor="start" x="57.09" y="-1609.4" font-family="Arial" font-size="14.00">transition_result </text>
<text text-anchor="start" x="159.81" y="-1609.4" font-family="Arial" font-size="14.00" fill="#666666">[TEXT]</text>
<polygon fill="none" stroke="black" points="50.09,-1566.4 50.09,-1597.2 296.78,-1597.2 296.78,-1566.4 50.09,-1566.4"/>
<text text-anchor="start" x="57.09" y="-1578.6" font-family="Arial" font-size="14.00">transition_reason </text>
<text text-anchor="start" x="168.38" y="-1578.6" font-family="Arial" font-size="14.00" fill="#666666">[TEXT]</text>
<polygon fill="none" stroke="black" points="50.09,-1535.6 50.09,-1566.4 296.78,-1566.4 296.78,-1535.6 50.09,-1535.6"/>
<text text-anchor="start" x="57.09" y="-1547.8" font-family="Arial" font-size="14.00">transitioned_at </text>
<text text-anchor="start" x="152.82" y="-1547.8" font-family="Arial" font-size="14.00" fill="#666666">[TIMESTAMPTZ]</text>
<polygon fill="none" stroke="black" points="50.09,-1504.8 50.09,-1535.6 296.78,-1535.6 296.78,-1504.8 50.09,-1504.8"/>
<text text-anchor="start" x="57.09" y="-1517" font-family="Arial" font-size="14.00">elaboration </text>
<text text-anchor="start" x="130.25" y="-1517" font-family="Arial" font-size="14.00" fill="#666666">[TEXT]</text>
<polygon fill="none" stroke="black" points="50.09,-1474 50.09,-1504.8 296.78,-1504.8 296.78,-1474 50.09,-1474"/>
<text text-anchor="start" x="57.09" y="-1486.2" font-family="Arial" font-size="14.00">created_at </text>
<text text-anchor="start" x="127.14" y="-1486.2" font-family="Arial" font-size="14.00" fill="#666666">[TIMESTAMPTZ]</text>
<polygon fill="none" stroke="black" points="50.09,-1443.2 50.09,-1474 296.78,-1474 296.78,-1443.2 50.09,-1443.2"/>
<text text-anchor="start" x="57.09" y="-1455.4" font-family="Arial" font-size="14.00">created_by </text>
<text text-anchor="start" x="130.25" y="-1455.4" font-family="Arial" font-size="14.00" fill="#666666">[TEXT]</text>
<polygon fill="none" stroke="black" points="50.09,-1412.4 50.09,-1443.2 296.78,-1443.2 296.78,-1412.4 50.09,-1412.4"/>
<text text-anchor="start" x="57.09" y="-1424.6" font-family="Arial" font-size="14.00">updated_at </text>
<text text-anchor="start" x="131.05" y="-1424.6" font-family="Arial" font-size="14.00" fill="#666666">[TIMESTAMPTZ]</text>
<polygon fill="none" stroke="black" points="50.09,-1381.6 50.09,-1412.4 296.78,-1412.4 296.78,-1381.6 50.09,-1381.6"/>
<text text-anchor="start" x="57.09" y="-1393.8" font-family="Arial" font-size="14.00">updated_by </text>
<text text-anchor="start" x="134.16" y="-1393.8" font-family="Arial" font-size="14.00" fill="#666666">[TEXT]</text>
<polygon fill="none" stroke="black" points="50.09,-1350.8 50.09,-1381.6 296.78,-1381.6 296.78,-1350.8 50.09,-1350.8"/>
<text text-anchor="start" x="57.09" y="-1363" font-family="Arial" font-size="14.00">deleted_at </text>
<text text-anchor="start" x="126.37" y="-1363" font-family="Arial" font-size="14.00" fill="#666666">[TIMESTAMPTZ]</text>
<polygon fill="none" stroke="black" points="50.09,-1320 50.09,-1350.8 296.78,-1350.8 296.78,-1320 50.09,-1320"/>
<text text-anchor="start" x="57.09" y="-1332.2" font-family="Arial" font-size="14.00">deleted_by </text>
<text text-anchor="start" x="129.48" y="-1332.2" font-family="Arial" font-size="14.00" fill="#666666">[TEXT]</text>
<polygon fill="none" stroke="black" points="50.09,-1289.2 50.09,-1320 296.78,-1320 296.78,-1289.2 50.09,-1289.2"/>
<text text-anchor="start" x="57.09" y="-1301.4" font-family="Arial" font-size="14.00">activity_log </text>
<text text-anchor="start" x="130.23" y="-1301.4" font-family="Arial" font-size="14.00" fill="#666666">[TEXT]</text>
</g>
<!-- code_notebook_state&#45;&gt;code_notebook_cell -->
<g id="edge2" class="edge">
<title>code_notebook_state:code_notebook_cell_id&#45;&gt;code_notebook_cell:code_notebook_cell_id</title>
<path fill="none" stroke="black" d="M307.22,-1700.6C362.62,-1646.68 355.26,-1115.8 293.11,-1115.8"/>
<polygon fill="black" stroke="black" points="307.15,-1700.63 296.18,-1700.78 302.32,-1702.88 298.39,-1704.72 298.39,-1704.72 298.39,-1704.72 302.32,-1702.88 299.99,-1708.94 307.15,-1700.63"/>
</g>
</g>
</svg>
