<?xml version="1.0" encoding="UTF-8" standalone="no"?>
<!DOCTYPE svg PUBLIC "-//W3C//DTD SVG 1.1//EN"
 "http://www.w3.org/Graphics/SVG/1.1/DTD/svg11.dtd">
<!-- Generated by graphviz version 2.40.1 (20161225.0304)
 -->
<!-- Title: code_notebook_cell Pages: 1 -->
<svg width="421pt" height="1799pt"
 viewBox="0.00 0.00 421.16 1799.00" xmlns="http://www.w3.org/2000/svg" xmlns:xlink="http://www.w3.org/1999/xlink">
<g id="graph0" class="graph" transform="scale(1 1) rotate(0) translate(4 1795)">
<title>code_notebook_cell</title>
<polygon fill="#ffffff" stroke="transparent" points="-4,4 -4,-1795 417.159,-1795 417.159,4 -4,4"/>
<!-- code_notebook_cell -->
<g id="node1" class="node">
<title>code_notebook_cell</title>
<polygon fill="#efefef" stroke="transparent" points="62,-1102.5 62,-1137.5 308,-1137.5 308,-1102.5 62,-1102.5"/>
<polygon fill="none" stroke="#000000" points="62,-1102.5 62,-1137.5 308,-1137.5 308,-1102.5 62,-1102.5"/>
<text text-anchor="start" x="68.802" y="-1115.3" font-family="Arial Bold" font-size="18.00" fill="#000000">code_notebook_cell</text>
<text text-anchor="start" x="228.867" y="-1115.3" font-family="Arial" font-size="14.00" fill="#000000">    </text>
<text text-anchor="start" x="263.0718" y="-1115.3" font-family="Arial" font-size="14.00" fill="#666666">[table]</text>
<polygon fill="none" stroke="#000000" points="62,-1072.5 62,-1102.5 308,-1102.5 308,-1072.5 62,-1072.5"/>
<text text-anchor="start" x="69" y="-1083.9" font-family="Arial" font-size="14.00" fill="#000000">code_notebook_cell_id </text>
<text text-anchor="start" x="216.0574" y="-1083.9" font-family="Arial" font-size="14.00" fill="#666666">[VARCHAR]</text>
<polygon fill="none" stroke="#000000" points="62,-1042.5 62,-1072.5 308,-1072.5 308,-1042.5 62,-1042.5"/>
<text text-anchor="start" x="69" y="-1053.9" font-family="Arial" font-size="14.00" fill="#000000">notebook_kernel_id </text>
<text text-anchor="start" x="195.0462" y="-1053.9" font-family="Arial" font-size="14.00" fill="#666666">[VARCHAR]</text>
<polygon fill="none" stroke="#000000" points="62,-1012.5 62,-1042.5 308,-1042.5 308,-1012.5 62,-1012.5"/>
<text text-anchor="start" x="69" y="-1023.9" font-family="Arial" font-size="14.00" fill="#000000">notebook_name </text>
<text text-anchor="start" x="173.2678" y="-1023.9" font-family="Arial" font-size="14.00" fill="#666666">[TEXT]</text>
<polygon fill="none" stroke="#000000" points="62,-982.5 62,-1012.5 308,-1012.5 308,-982.5 62,-982.5"/>
<text text-anchor="start" x="69" y="-993.9" font-family="Arial" font-size="14.00" fill="#000000">cell_name </text>
<text text-anchor="start" x="136.6774" y="-993.9" font-family="Arial" font-size="14.00" fill="#666666">[TEXT]</text>
<polygon fill="none" stroke="#000000" points="62,-952.5 62,-982.5 308,-982.5 308,-952.5 62,-952.5"/>
<text text-anchor="start" x="69" y="-963.9" font-family="Arial" font-size="14.00" fill="#000000">cell_governance </text>
<text text-anchor="start" x="174.8078" y="-963.9" font-family="Arial" font-size="14.00" fill="#666666">[TEXT]</text>
<polygon fill="none" stroke="#000000" points="62,-922.5 62,-952.5 308,-952.5 308,-922.5 62,-922.5"/>
<text text-anchor="start" x="69" y="-933.9" font-family="Arial" font-size="14.00" fill="#000000">interpretable_code </text>
<text text-anchor="start" x="188.8148" y="-933.9" font-family="Arial" font-size="14.00" fill="#666666">[TEXT]</text>
<polygon fill="none" stroke="#000000" points="62,-892.5 62,-922.5 308,-922.5 308,-892.5 62,-892.5"/>
<text text-anchor="start" x="69" y="-903.9" font-family="Arial" font-size="14.00" fill="#000000">interpretable_code_hash </text>
<text text-anchor="start" x="226.9452" y="-903.9" font-family="Arial" font-size="14.00" fill="#666666">[TEXT]</text>
<polygon fill="none" stroke="#000000" points="62,-862.5 62,-892.5 308,-892.5 308,-862.5 62,-862.5"/>
<text text-anchor="start" x="69" y="-873.9" font-family="Arial" font-size="14.00" fill="#000000">description </text>
<text text-anchor="start" x="140.568" y="-873.9" font-family="Arial" font-size="14.00" fill="#666666">[TEXT]</text>
<polygon fill="none" stroke="#000000" points="62,-832.5 62,-862.5 308,-862.5 308,-832.5 62,-832.5"/>
<text text-anchor="start" x="69" y="-843.9" font-family="Arial" font-size="14.00" fill="#000000">arguments </text>
<text text-anchor="start" x="139.0154" y="-843.9" font-family="Arial" font-size="14.00" fill="#666666">[TEXT]</text>
<polygon fill="none" stroke="#000000" points="62,-802.5 62,-832.5 308,-832.5 308,-802.5 62,-802.5"/>
<text text-anchor="start" x="69" y="-813.9" font-family="Arial" font-size="14.00" fill="#000000">created_at </text>
<text text-anchor="start" x="139.028" y="-813.9" font-family="Arial" font-size="14.00" fill="#666666">[TIMESTAMP]</text>
<polygon fill="none" stroke="#000000" points="62,-772.5 62,-802.5 308,-802.5 308,-772.5 62,-772.5"/>
<text text-anchor="start" x="69" y="-783.9" font-family="Arial" font-size="14.00" fill="#000000">created_by </text>
<text text-anchor="start" x="142.1374" y="-783.9" font-family="Arial" font-size="14.00" fill="#666666">[TEXT]</text>
<polygon fill="none" stroke="#000000" points="62,-742.5 62,-772.5 308,-772.5 308,-742.5 62,-742.5"/>
<text text-anchor="start" x="69" y="-753.9" font-family="Arial" font-size="14.00" fill="#000000">updated_at </text>
<text text-anchor="start" x="142.9326" y="-753.9" font-family="Arial" font-size="14.00" fill="#666666">[TIMESTAMP]</text>
<polygon fill="none" stroke="#000000" points="62,-712.5 62,-742.5 308,-742.5 308,-712.5 62,-712.5"/>
<text text-anchor="start" x="69" y="-723.9" font-family="Arial" font-size="14.00" fill="#000000">updated_by </text>
<text text-anchor="start" x="146.042" y="-723.9" font-family="Arial" font-size="14.00" fill="#666666">[TEXT]</text>
<polygon fill="none" stroke="#000000" points="62,-682.5 62,-712.5 308,-712.5 308,-682.5 62,-682.5"/>
<text text-anchor="start" x="69" y="-693.9" font-family="Arial" font-size="14.00" fill="#000000">deleted_at </text>
<text text-anchor="start" x="138.2566" y="-693.9" font-family="Arial" font-size="14.00" fill="#666666">[TIMESTAMP]</text>
<polygon fill="none" stroke="#000000" points="62,-652.5 62,-682.5 308,-682.5 308,-652.5 62,-652.5"/>
<text text-anchor="start" x="69" y="-663.9" font-family="Arial" font-size="14.00" fill="#000000">deleted_by </text>
<text text-anchor="start" x="141.366" y="-663.9" font-family="Arial" font-size="14.00" fill="#666666">[TEXT]</text>
<polygon fill="none" stroke="#000000" points="62,-622.5 62,-652.5 308,-652.5 308,-622.5 62,-622.5"/>
<text text-anchor="start" x="69" y="-633.9" font-family="Arial" font-size="14.00" fill="#000000">activity_log </text>
<text text-anchor="start" x="142.122" y="-633.9" font-family="Arial" font-size="14.00" fill="#666666">[TEXT]</text>
<polygon fill="none" stroke="#000000" stroke-width="3" points="60.5,-621.5 60.5,-1139.5 309.5,-1139.5 309.5,-621.5 60.5,-621.5"/>
</g>
<!-- code_notebook_kernel -->
<g id="node3" class="node">
<title>code_notebook_kernel</title>
<polygon fill="#efefef" stroke="transparent" points="43,-462.5 43,-497.5 327,-497.5 327,-462.5 43,-462.5"/>
<polygon fill="none" stroke="#000000" points="43,-462.5 43,-497.5 327,-497.5 327,-462.5 43,-462.5"/>
<text text-anchor="start" x="57.7968" y="-475.3" font-family="Arial Bold" font-size="18.00" fill="#000000">code_notebook_kernel</text>
<text text-anchor="start" x="239.8722" y="-475.3" font-family="Arial" font-size="14.00" fill="#000000">    </text>
<text text-anchor="start" x="274.077" y="-475.3" font-family="Arial" font-size="14.00" fill="#666666">[table]</text>
<polygon fill="none" stroke="#000000" points="43,-432.5 43,-462.5 327,-462.5 327,-432.5 43,-432.5"/>
<text text-anchor="start" x="49.6459" y="-443.9" font-family="Arial" font-size="14.00" fill="#000000">code_notebook_kernel_id    </text>
<text text-anchor="start" x="244.1367" y="-443.9" font-family="Arial" font-size="14.00" fill="#666666">[VARCHAR]</text>
<polygon fill="none" stroke="#000000" points="43,-402.5 43,-432.5 327,-432.5 327,-402.5 43,-402.5"/>
<text text-anchor="start" x="50" y="-413.9" font-family="Arial" font-size="14.00" fill="#000000">kernel_name    </text>
<text text-anchor="start" x="165.1108" y="-413.9" font-family="Arial" font-size="14.00" fill="#666666">[TEXT]</text>
<polygon fill="none" stroke="#000000" points="43,-372.5 43,-402.5 327,-402.5 327,-372.5 43,-372.5"/>
<text text-anchor="start" x="50" y="-383.9" font-family="Arial" font-size="14.00" fill="#000000">description    </text>
<text text-anchor="start" x="151.8822" y="-383.9" font-family="Arial" font-size="14.00" fill="#666666">[TEXT]</text>
<polygon fill="none" stroke="#000000" points="43,-342.5 43,-372.5 327,-372.5 327,-342.5 43,-342.5"/>
<text text-anchor="start" x="50" y="-353.9" font-family="Arial" font-size="14.00" fill="#000000">mime_type    </text>
<text text-anchor="start" x="152.6536" y="-353.9" font-family="Arial" font-size="14.00" fill="#666666">[TEXT]</text>
<polygon fill="none" stroke="#000000" points="43,-312.5 43,-342.5 327,-342.5 327,-312.5 43,-312.5"/>
<text text-anchor="start" x="50" y="-323.9" font-family="Arial" font-size="14.00" fill="#000000">file_extn    </text>
<text text-anchor="start" x="136.3296" y="-323.9" font-family="Arial" font-size="14.00" fill="#666666">[TEXT]</text>
<polygon fill="none" stroke="#000000" points="43,-282.5 43,-312.5 327,-312.5 327,-282.5 43,-282.5"/>
<text text-anchor="start" x="50" y="-293.9" font-family="Arial" font-size="14.00" fill="#000000">elaboration    </text>
<text text-anchor="start" x="153.4474" y="-293.9" font-family="Arial" font-size="14.00" fill="#666666">[TEXT]</text>
<polygon fill="none" stroke="#000000" points="43,-252.5 43,-282.5 327,-282.5 327,-252.5 43,-252.5"/>
<text text-anchor="start" x="50" y="-263.9" font-family="Arial" font-size="14.00" fill="#000000">governance    </text>
<text text-anchor="start" x="157.3436" y="-263.9" font-family="Arial" font-size="14.00" fill="#666666">[TEXT]</text>
<polygon fill="none" stroke="#000000" points="43,-222.5 43,-252.5 327,-252.5 327,-222.5 43,-222.5"/>
<text text-anchor="start" x="50" y="-233.9" font-family="Arial" font-size="14.00" fill="#000000">created_at    </text>
<text text-anchor="start" x="150.3422" y="-233.9" font-family="Arial" font-size="14.00" fill="#666666">[TIMESTAMP]</text>
<polygon fill="none" stroke="#000000" points="43,-192.5 43,-222.5 327,-222.5 327,-192.5 43,-192.5"/>
<text text-anchor="start" x="50" y="-203.9" font-family="Arial" font-size="14.00" fill="#000000">created_by    </text>
<text text-anchor="start" x="153.4516" y="-203.9" font-family="Arial" font-size="14.00" fill="#666666">[TEXT]</text>
<polygon fill="none" stroke="#000000" points="43,-162.5 43,-192.5 327,-192.5 327,-162.5 43,-162.5"/>
<text text-anchor="start" x="50" y="-173.9" font-family="Arial" font-size="14.00" fill="#000000">updated_at    </text>
<text text-anchor="start" x="154.2468" y="-173.9" font-family="Arial" font-size="14.00" fill="#666666">[TIMESTAMP]</text>
<polygon fill="none" stroke="#000000" points="43,-132.5 43,-162.5 327,-162.5 327,-132.5 43,-132.5"/>
<text text-anchor="start" x="50" y="-143.9" font-family="Arial" font-size="14.00" fill="#000000">updated_by    </text>
<text text-anchor="start" x="157.3562" y="-143.9" font-family="Arial" font-size="14.00" fill="#666666">[TEXT]</text>
<polygon fill="none" stroke="#000000" points="43,-102.5 43,-132.5 327,-132.5 327,-102.5 43,-102.5"/>
<text text-anchor="start" x="50" y="-113.9" font-family="Arial" font-size="14.00" fill="#000000">deleted_at    </text>
<text text-anchor="start" x="149.5708" y="-113.9" font-family="Arial" font-size="14.00" fill="#666666">[TIMESTAMP]</text>
<polygon fill="none" stroke="#000000" points="43,-72.5 43,-102.5 327,-102.5 327,-72.5 43,-72.5"/>
<text text-anchor="start" x="50" y="-83.9" font-family="Arial" font-size="14.00" fill="#000000">deleted_by    </text>
<text text-anchor="start" x="152.6802" y="-83.9" font-family="Arial" font-size="14.00" fill="#666666">[TEXT]</text>
<polygon fill="none" stroke="#000000" points="43,-42.5 43,-72.5 327,-72.5 327,-42.5 43,-42.5"/>
<text text-anchor="start" x="50" y="-53.9" font-family="Arial" font-size="14.00" fill="#000000">activity_log    </text>
<text text-anchor="start" x="153.4362" y="-53.9" font-family="Arial" font-size="14.00" fill="#666666">[TEXT]</text>
</g>
<!-- code_notebook_cell&#45;&gt;code_notebook_kernel -->
<g id="edge2" class="edge">
<title>code_notebook_cell:notebook_kernel_id&#45;&gt;code_notebook_kernel:code_notebook_kernel_id</title>
<path fill="none" stroke="#000000" d="M317.2102,-1053.6047C377.4012,-1001.6528 391.632,-447.5 327,-447.5"/>
<polygon fill="#000000" stroke="#000000" points="317.2101,-1053.6046 306.2471,-1053.3554 312.6051,-1055.5523 308,-1057.5 308,-1057.5 308,-1057.5 312.6051,-1055.5523 309.7529,-1061.6446 317.2101,-1053.6046 317.2101,-1053.6046"/>
</g>
<!-- code_notebook_state -->
<g id="node2" class="node">
<title>code_notebook_state</title>
<polygon fill="#efefef" stroke="transparent" points="47,-1712.5 47,-1747.5 323,-1747.5 323,-1712.5 47,-1712.5"/>
<polygon fill="none" stroke="#000000" points="47,-1712.5 47,-1747.5 323,-1747.5 323,-1712.5 47,-1712.5"/>
<text text-anchor="start" x="62.7909" y="-1725.3" font-family="Arial Bold" font-size="18.00" fill="#000000">code_notebook_state</text>
<text text-anchor="start" x="234.8781" y="-1725.3" font-family="Arial" font-size="14.00" fill="#000000">    </text>
<text text-anchor="start" x="269.0829" y="-1725.3" font-family="Arial" font-size="14.00" fill="#666666">[table]</text>
<polygon fill="none" stroke="#000000" points="47,-1682.5 47,-1712.5 323,-1712.5 323,-1682.5 47,-1682.5"/>
<text text-anchor="start" x="53.5302" y="-1693.9" font-family="Arial" font-size="14.00" fill="#000000">code_notebook_state_id    </text>
<text text-anchor="start" x="240.2524" y="-1693.9" font-family="Arial" font-size="14.00" fill="#666666">[VARCHAR]</text>
<polygon fill="none" stroke="#000000" points="47,-1652.5 47,-1682.5 323,-1682.5 323,-1652.5 47,-1652.5"/>
<text text-anchor="start" x="54" y="-1663.9" font-family="Arial" font-size="14.00" fill="#000000">code_notebook_cell_id    </text>
<text text-anchor="start" x="231.3716" y="-1663.9" font-family="Arial" font-size="14.00" fill="#666666">[VARCHAR]</text>
<polygon fill="none" stroke="#000000" points="47,-1622.5 47,-1652.5 323,-1652.5 323,-1622.5 47,-1622.5"/>
<text text-anchor="start" x="54" y="-1633.9" font-family="Arial" font-size="14.00" fill="#000000">from_state    </text>
<text text-anchor="start" x="154.3282" y="-1633.9" font-family="Arial" font-size="14.00" fill="#666666">[TEXT]</text>
<polygon fill="none" stroke="#000000" points="47,-1592.5 47,-1622.5 323,-1622.5 323,-1592.5 47,-1592.5"/>
<text text-anchor="start" x="54" y="-1603.9" font-family="Arial" font-size="14.00" fill="#000000">to_state    </text>
<text text-anchor="start" x="138.007" y="-1603.9" font-family="Arial" font-size="14.00" fill="#666666">[TEXT]</text>
<polygon fill="none" stroke="#000000" points="47,-1562.5 47,-1592.5 323,-1592.5 323,-1562.5 47,-1562.5"/>
<text text-anchor="start" x="54" y="-1573.9" font-family="Arial" font-size="14.00" fill="#000000">transition_result    </text>
<text text-anchor="start" x="186.9958" y="-1573.9" font-family="Arial" font-size="14.00" fill="#666666">[TEXT]</text>
<polygon fill="none" stroke="#000000" points="47,-1532.5 47,-1562.5 323,-1562.5 323,-1532.5 47,-1532.5"/>
<text text-anchor="start" x="54" y="-1543.9" font-family="Arial" font-size="14.00" fill="#000000">transition_reason    </text>
<text text-anchor="start" x="195.5638" y="-1543.9" font-family="Arial" font-size="14.00" fill="#666666">[TEXT]</text>
<polygon fill="none" stroke="#000000" points="47,-1502.5 47,-1532.5 323,-1532.5 323,-1502.5 47,-1502.5"/>
<text text-anchor="start" x="54" y="-1513.9" font-family="Arial" font-size="14.00" fill="#000000">transitioned_at    </text>
<text text-anchor="start" x="180.0112" y="-1513.9" font-family="Arial" font-size="14.00" fill="#666666">[TIMESTAMP]</text>
<polygon fill="none" stroke="#000000" points="47,-1472.5 47,-1502.5 323,-1502.5 323,-1472.5 47,-1472.5"/>
<text text-anchor="start" x="54" y="-1483.9" font-family="Arial" font-size="14.00" fill="#000000">elaboration    </text>
<text text-anchor="start" x="157.4474" y="-1483.9" font-family="Arial" font-size="14.00" fill="#666666">[TEXT]</text>
<polygon fill="none" stroke="#000000" points="47,-1442.5 47,-1472.5 323,-1472.5 323,-1442.5 47,-1442.5"/>
<text text-anchor="start" x="54" y="-1453.9" font-family="Arial" font-size="14.00" fill="#000000">created_at    </text>
<text text-anchor="start" x="154.3422" y="-1453.9" font-family="Arial" font-size="14.00" fill="#666666">[TIMESTAMP]</text>
<polygon fill="none" stroke="#000000" points="47,-1412.5 47,-1442.5 323,-1442.5 323,-1412.5 47,-1412.5"/>
<text text-anchor="start" x="54" y="-1423.9" font-family="Arial" font-size="14.00" fill="#000000">created_by    </text>
<text text-anchor="start" x="157.4516" y="-1423.9" font-family="Arial" font-size="14.00" fill="#666666">[TEXT]</text>
<polygon fill="none" stroke="#000000" points="47,-1382.5 47,-1412.5 323,-1412.5 323,-1382.5 47,-1382.5"/>
<text text-anchor="start" x="54" y="-1393.9" font-family="Arial" font-size="14.00" fill="#000000">updated_at    </text>
<text text-anchor="start" x="158.2468" y="-1393.9" font-family="Arial" font-size="14.00" fill="#666666">[TIMESTAMP]</text>
<polygon fill="none" stroke="#000000" points="47,-1352.5 47,-1382.5 323,-1382.5 323,-1352.5 47,-1352.5"/>
<text text-anchor="start" x="54" y="-1363.9" font-family="Arial" font-size="14.00" fill="#000000">updated_by    </text>
<text text-anchor="start" x="161.3562" y="-1363.9" font-family="Arial" font-size="14.00" fill="#666666">[TEXT]</text>
<polygon fill="none" stroke="#000000" points="47,-1322.5 47,-1352.5 323,-1352.5 323,-1322.5 47,-1322.5"/>
<text text-anchor="start" x="54" y="-1333.9" font-family="Arial" font-size="14.00" fill="#000000">deleted_at    </text>
<text text-anchor="start" x="153.5708" y="-1333.9" font-family="Arial" font-size="14.00" fill="#666666">[TIMESTAMP]</text>
<polygon fill="none" stroke="#000000" points="47,-1292.5 47,-1322.5 323,-1322.5 323,-1292.5 47,-1292.5"/>
<text text-anchor="start" x="54" y="-1303.9" font-family="Arial" font-size="14.00" fill="#000000">deleted_by    </text>
<text text-anchor="start" x="156.6802" y="-1303.9" font-family="Arial" font-size="14.00" fill="#666666">[TEXT]</text>
<polygon fill="none" stroke="#000000" points="47,-1262.5 47,-1292.5 323,-1292.5 323,-1262.5 47,-1262.5"/>
<text text-anchor="start" x="54" y="-1273.9" font-family="Arial" font-size="14.00" fill="#000000">activity_log    </text>
<text text-anchor="start" x="157.4362" y="-1273.9" font-family="Arial" font-size="14.00" fill="#666666">[TEXT]</text>
</g>
<!-- code_notebook_state&#45;&gt;code_notebook_cell -->
<g id="edge1" class="edge">
<title>code_notebook_state:code_notebook_cell_id&#45;&gt;code_notebook_cell:code_notebook_cell_id</title>
<path fill="none" stroke="#000000" d="M333.2542,-1666.2228C451.0265,-1636.2149 433.4065,-1087.5 308,-1087.5"/>
<polygon fill="#000000" stroke="#000000" points="332.9233,-1666.2639 322.4437,-1663.0345 327.9617,-1666.8819 323,-1667.5 323,-1667.5 323,-1667.5 327.9617,-1666.8819 323.5563,-1671.9655 332.9233,-1666.2639 332.9233,-1666.2639"/>
</g>
</g>
</svg>
