<?xml version="1.0" encoding="UTF-8" standalone="no"?>
<!DOCTYPE svg PUBLIC "-//W3C//DTD SVG 1.1//EN"
 "http://www.w3.org/Graphics/SVG/1.1/DTD/svg11.dtd">
<!-- Generated by graphviz version 12.1.2 (20240928.0832)
 -->
<!-- Title: code_notebook_cell Pages: 1 -->
<svg width="355pt" height="1838pt"
 viewBox="0.00 0.00 354.62 1838.00" xmlns="http://www.w3.org/2000/svg" xmlns:xlink="http://www.w3.org/1999/xlink">
<g id="graph0" class="graph" transform="scale(1 1) rotate(0) translate(4 1834)">
<title>code_notebook_cell</title>
<polygon fill="white" stroke="none" points="-4,4 -4,-1834 350.62,-1834 350.62,4 -4,4"/>
<!-- code_notebook_cell -->
<g id="node1" class="node">
<title>code_notebook_cell</title>
<polygon fill="#efefef" stroke="none" points="51.76,-1128.2 51.76,-1163.8 289.11,-1163.8 289.11,-1128.2 51.76,-1128.2"/>
<polygon fill="none" stroke="black" points="51.76,-1128.2 51.76,-1163.8 289.11,-1163.8 289.11,-1128.2 51.76,-1128.2"/>
<text text-anchor="start" x="63.34" y="-1141.6" font-family="Arial Bold" font-size="18.00">code_notebook_cell</text>
<text text-anchor="start" x="208.28" y="-1141.6" font-family="Arial" font-size="14.00">    </text>
<text text-anchor="start" x="239.4" y="-1141.6" font-family="Arial" font-size="14.00" fill="#666666">[table]</text>
<polygon fill="none" stroke="black" points="51.76,-1097.4 51.76,-1128.2 289.11,-1128.2 289.11,-1097.4 51.76,-1097.4"/>
<text text-anchor="start" x="58.76" y="-1109.6" font-family="Arial" font-size="14.00">code_notebook_cell_id </text>
<text text-anchor="start" x="205.88" y="-1109.6" font-family="Arial" font-size="14.00" fill="#666666">[VARCHAR]</text>
<polygon fill="none" stroke="black" points="51.76,-1066.6 51.76,-1097.4 289.11,-1097.4 289.11,-1066.6 51.76,-1066.6"/>
<text text-anchor="start" x="58.76" y="-1078.8" font-family="Arial" font-size="14.00">notebook_kernel_id </text>
<text text-anchor="start" x="184.86" y="-1078.8" font-family="Arial" font-size="14.00" fill="#666666">[VARCHAR]</text>
<polygon fill="none" stroke="black" points="51.76,-1035.8 51.76,-1066.6 289.11,-1066.6 289.11,-1035.8 51.76,-1035.8"/>
<text text-anchor="start" x="58.76" y="-1048" font-family="Arial" font-size="14.00">notebook_name </text>
<text text-anchor="start" x="163.06" y="-1048" font-family="Arial" font-size="14.00" fill="#666666">[TEXT]</text>
<polygon fill="none" stroke="black" points="51.76,-1005 51.76,-1035.8 289.11,-1035.8 289.11,-1005 51.76,-1005"/>
<text text-anchor="start" x="58.76" y="-1017.2" font-family="Arial" font-size="14.00">cell_name </text>
<text text-anchor="start" x="126.47" y="-1017.2" font-family="Arial" font-size="14.00" fill="#666666">[TEXT]</text>
<polygon fill="none" stroke="black" points="51.76,-974.2 51.76,-1005 289.11,-1005 289.11,-974.2 51.76,-974.2"/>
<text text-anchor="start" x="58.76" y="-986.4" font-family="Arial" font-size="14.00">cell_governance </text>
<text text-anchor="start" x="164.61" y="-986.4" font-family="Arial" font-size="14.00" fill="#666666">[TEXT]</text>
<polygon fill="none" stroke="black" points="51.76,-943.4 51.76,-974.2 289.11,-974.2 289.11,-943.4 51.76,-943.4"/>
<text text-anchor="start" x="58.76" y="-955.6" font-family="Arial" font-size="14.00">interpretable_code </text>
<text text-anchor="start" x="178.62" y="-955.6" font-family="Arial" font-size="14.00" fill="#666666">[TEXT]</text>
<polygon fill="none" stroke="black" points="51.76,-912.6 51.76,-943.4 289.11,-943.4 289.11,-912.6 51.76,-912.6"/>
<text text-anchor="start" x="58.76" y="-924.8" font-family="Arial" font-size="14.00">interpretable_code_hash </text>
<text text-anchor="start" x="216.77" y="-924.8" font-family="Arial" font-size="14.00" fill="#666666">[TEXT]</text>
<polygon fill="none" stroke="black" points="51.76,-881.8 51.76,-912.6 289.11,-912.6 289.11,-881.8 51.76,-881.8"/>
<text text-anchor="start" x="58.76" y="-894" font-family="Arial" font-size="14.00">description </text>
<text text-anchor="start" x="130.35" y="-894" font-family="Arial" font-size="14.00" fill="#666666">[TEXT]</text>
<polygon fill="none" stroke="black" points="51.76,-851 51.76,-881.8 289.11,-881.8 289.11,-851 51.76,-851"/>
<text text-anchor="start" x="58.76" y="-863.2" font-family="Arial" font-size="14.00">arguments </text>
<text text-anchor="start" x="128.8" y="-863.2" font-family="Arial" font-size="14.00" fill="#666666">[TEXT]</text>
<polygon fill="none" stroke="black" points="51.76,-820.2 51.76,-851 289.11,-851 289.11,-820.2 51.76,-820.2"/>
<text text-anchor="start" x="58.76" y="-832.4" font-family="Arial" font-size="14.00">created_at </text>
<text text-anchor="start" x="128.81" y="-832.4" font-family="Arial" font-size="14.00" fill="#666666">[TIMESTAMPTZ]</text>
<polygon fill="none" stroke="black" points="51.76,-789.4 51.76,-820.2 289.11,-820.2 289.11,-789.4 51.76,-789.4"/>
<text text-anchor="start" x="58.76" y="-801.6" font-family="Arial" font-size="14.00">created_by </text>
<text text-anchor="start" x="131.92" y="-801.6" font-family="Arial" font-size="14.00" fill="#666666">[TEXT]</text>
<polygon fill="none" stroke="black" points="51.76,-758.6 51.76,-789.4 289.11,-789.4 289.11,-758.6 51.76,-758.6"/>
<text text-anchor="start" x="58.76" y="-770.8" font-family="Arial" font-size="14.00">updated_at </text>
<text text-anchor="start" x="132.72" y="-770.8" font-family="Arial" font-size="14.00" fill="#666666">[TIMESTAMPTZ]</text>
<polygon fill="none" stroke="black" points="51.76,-727.8 51.76,-758.6 289.11,-758.6 289.11,-727.8 51.76,-727.8"/>
<text text-anchor="start" x="58.76" y="-740" font-family="Arial" font-size="14.00">updated_by </text>
<text text-anchor="start" x="135.83" y="-740" font-family="Arial" font-size="14.00" fill="#666666">[TEXT]</text>
<polygon fill="none" stroke="black" points="51.76,-697 51.76,-727.8 289.11,-727.8 289.11,-697 51.76,-697"/>
<text text-anchor="start" x="58.76" y="-709.2" font-family="Arial" font-size="14.00">deleted_at </text>
<text text-anchor="start" x="128.04" y="-709.2" font-family="Arial" font-size="14.00" fill="#666666">[TIMESTAMPTZ]</text>
<polygon fill="none" stroke="black" points="51.76,-666.2 51.76,-697 289.11,-697 289.11,-666.2 51.76,-666.2"/>
<text text-anchor="start" x="58.76" y="-678.4" font-family="Arial" font-size="14.00">deleted_by </text>
<text text-anchor="start" x="131.15" y="-678.4" font-family="Arial" font-size="14.00" fill="#666666">[TEXT]</text>
<polygon fill="none" stroke="black" points="51.76,-635.4 51.76,-666.2 289.11,-666.2 289.11,-635.4 51.76,-635.4"/>
<text text-anchor="start" x="58.76" y="-647.6" font-family="Arial" font-size="14.00">activity_log </text>
<text text-anchor="start" x="131.91" y="-647.6" font-family="Arial" font-size="14.00" fill="#666666">[TEXT]</text>
<polygon fill="none" stroke="black" stroke-width="3" points="50.26,-633.9 50.26,-1165.3 290.61,-1165.3 290.61,-633.9 50.26,-633.9"/>
</g>
<!-- code_notebook_kernel -->
<g id="node3" class="node">
<title>code_notebook_kernel</title>
<polygon fill="#efefef" stroke="none" points="43.2,-474.4 43.2,-510 297.67,-510 297.67,-474.4 43.2,-474.4"/>
<polygon fill="none" stroke="black" points="43.2,-474.4 43.2,-510 297.67,-510 297.67,-474.4 43.2,-474.4"/>
<text text-anchor="start" x="53.84" y="-487.8" font-family="Arial Bold" font-size="18.00">code_notebook_kernel</text>
<text text-anchor="start" x="217.78" y="-487.8" font-family="Arial" font-size="14.00">    </text>
<text text-anchor="start" x="248.9" y="-487.8" font-family="Arial" font-size="14.00" fill="#666666">[table]</text>
<polygon fill="none" stroke="black" points="43.2,-443.6 43.2,-474.4 297.67,-474.4 297.67,-443.6 43.2,-443.6"/>
<text text-anchor="start" x="50.2" y="-455.8" font-family="Arial" font-size="14.00">code_notebook_kernel_id </text>
<text text-anchor="start" x="214.44" y="-455.8" font-family="Arial" font-size="14.00" fill="#666666">[VARCHAR]</text>
<polygon fill="none" stroke="black" points="43.2,-412.8 43.2,-443.6 297.67,-443.6 297.67,-412.8 43.2,-412.8"/>
<text text-anchor="start" x="50.2" y="-425" font-family="Arial" font-size="14.00">kernel_name </text>
<text text-anchor="start" x="135.03" y="-425" font-family="Arial" font-size="14.00" fill="#666666">[TEXT]</text>
<polygon fill="none" stroke="black" points="43.2,-382 43.2,-412.8 297.67,-412.8 297.67,-382 43.2,-382"/>
<text text-anchor="start" x="50.2" y="-394.2" font-family="Arial" font-size="14.00">description </text>
<text text-anchor="start" x="121.79" y="-394.2" font-family="Arial" font-size="14.00" fill="#666666">[TEXT]</text>
<polygon fill="none" stroke="black" points="43.2,-351.2 43.2,-382 297.67,-382 297.67,-351.2 43.2,-351.2"/>
<text text-anchor="start" x="50.2" y="-363.4" font-family="Arial" font-size="14.00">mime_type </text>
<text text-anchor="start" x="122.56" y="-363.4" font-family="Arial" font-size="14.00" fill="#666666">[TEXT]</text>
<polygon fill="none" stroke="black" points="43.2,-320.4 43.2,-351.2 297.67,-351.2 297.67,-320.4 43.2,-320.4"/>
<text text-anchor="start" x="50.2" y="-332.6" font-family="Arial" font-size="14.00">file_extn </text>
<text text-anchor="start" x="106.23" y="-332.6" font-family="Arial" font-size="14.00" fill="#666666">[TEXT]</text>
<polygon fill="none" stroke="black" points="43.2,-289.6 43.2,-320.4 297.67,-320.4 297.67,-289.6 43.2,-289.6"/>
<text text-anchor="start" x="50.2" y="-301.8" font-family="Arial" font-size="14.00">elaboration </text>
<text text-anchor="start" x="123.37" y="-301.8" font-family="Arial" font-size="14.00" fill="#666666">[TEXT]</text>
<polygon fill="none" stroke="black" points="43.2,-258.8 43.2,-289.6 297.67,-289.6 297.67,-258.8 43.2,-258.8"/>
<text text-anchor="start" x="50.2" y="-271" font-family="Arial" font-size="14.00">governance </text>
<text text-anchor="start" x="127.25" y="-271" font-family="Arial" font-size="14.00" fill="#666666">[TEXT]</text>
<polygon fill="none" stroke="black" points="43.2,-228 43.2,-258.8 297.67,-258.8 297.67,-228 43.2,-228"/>
<text text-anchor="start" x="50.2" y="-240.2" font-family="Arial" font-size="14.00">created_at </text>
<text text-anchor="start" x="120.25" y="-240.2" font-family="Arial" font-size="14.00" fill="#666666">[TIMESTAMPTZ]</text>
<polygon fill="none" stroke="black" points="43.2,-197.2 43.2,-228 297.67,-228 297.67,-197.2 43.2,-197.2"/>
<text text-anchor="start" x="50.2" y="-209.4" font-family="Arial" font-size="14.00">created_by </text>
<text text-anchor="start" x="123.36" y="-209.4" font-family="Arial" font-size="14.00" fill="#666666">[TEXT]</text>
<polygon fill="none" stroke="black" points="43.2,-166.4 43.2,-197.2 297.67,-197.2 297.67,-166.4 43.2,-166.4"/>
<text text-anchor="start" x="50.2" y="-178.6" font-family="Arial" font-size="14.00">updated_at </text>
<text text-anchor="start" x="124.16" y="-178.6" font-family="Arial" font-size="14.00" fill="#666666">[TIMESTAMPTZ]</text>
<polygon fill="none" stroke="black" points="43.2,-135.6 43.2,-166.4 297.67,-166.4 297.67,-135.6 43.2,-135.6"/>
<text text-anchor="start" x="50.2" y="-147.8" font-family="Arial" font-size="14.00">updated_by </text>
<text text-anchor="start" x="127.27" y="-147.8" font-family="Arial" font-size="14.00" fill="#666666">[TEXT]</text>
<polygon fill="none" stroke="black" points="43.2,-104.8 43.2,-135.6 297.67,-135.6 297.67,-104.8 43.2,-104.8"/>
<text text-anchor="start" x="50.2" y="-117" font-family="Arial" font-size="14.00">deleted_at </text>
<text text-anchor="start" x="119.48" y="-117" font-family="Arial" font-size="14.00" fill="#666666">[TIMESTAMPTZ]</text>
<polygon fill="none" stroke="black" points="43.2,-74 43.2,-104.8 297.67,-104.8 297.67,-74 43.2,-74"/>
<text text-anchor="start" x="50.2" y="-86.2" font-family="Arial" font-size="14.00">deleted_by </text>
<text text-anchor="start" x="122.59" y="-86.2" font-family="Arial" font-size="14.00" fill="#666666">[TEXT]</text>
<polygon fill="none" stroke="black" points="43.2,-43.2 43.2,-74 297.67,-74 297.67,-43.2 43.2,-43.2"/>
<text text-anchor="start" x="50.2" y="-55.4" font-family="Arial" font-size="14.00">activity_log </text>
<text text-anchor="start" x="123.34" y="-55.4" font-family="Arial" font-size="14.00" fill="#666666">[TEXT]</text>
</g>
<!-- code_notebook_cell&#45;&gt;code_notebook_kernel -->
<g id="edge2" class="edge">
<title>code_notebook_cell:notebook_kernel_id&#45;&gt;code_notebook_kernel:code_notebook_kernel_id</title>
<path fill="none" stroke="black" d="M299.45,-1078.02C359.97,-1024.96 364.66,-459 298.67,-459"/>
<polygon fill="black" stroke="black" points="299.62,-1077.95 288.66,-1077.73 294.71,-1080.04 290.73,-1081.74 290.73,-1081.74 290.73,-1081.74 294.71,-1080.04 292.18,-1086.01 299.62,-1077.95"/>
</g>
<!-- code_notebook_state -->
<g id="node2" class="node">
<title>code_notebook_state</title>
<polygon fill="#efefef" stroke="none" points="47.09,-1751.2 47.09,-1786.8 293.78,-1786.8 293.78,-1751.2 47.09,-1751.2"/>
<polygon fill="none" stroke="black" points="47.09,-1751.2 47.09,-1786.8 293.78,-1786.8 293.78,-1751.2 47.09,-1751.2"/>
<text text-anchor="start" x="59.83" y="-1764.6" font-family="Arial Bold" font-size="18.00">code_notebook_state</text>
<text text-anchor="start" x="211.79" y="-1764.6" font-family="Arial" font-size="14.00">    </text>
<text text-anchor="start" x="242.9" y="-1764.6" font-family="Arial" font-size="14.00" fill="#666666">[table]</text>
<polygon fill="none" stroke="black" points="47.09,-1720.4 47.09,-1751.2 293.78,-1751.2 293.78,-1720.4 47.09,-1720.4"/>
<text text-anchor="start" x="54.09" y="-1732.6" font-family="Arial" font-size="14.00">code_notebook_state_id </text>
<text text-anchor="start" x="210.55" y="-1732.6" font-family="Arial" font-size="14.00" fill="#666666">[VARCHAR]</text>
<polygon fill="none" stroke="black" points="47.09,-1689.6 47.09,-1720.4 293.78,-1720.4 293.78,-1689.6 47.09,-1689.6"/>
<text text-anchor="start" x="54.09" y="-1701.8" font-family="Arial" font-size="14.00">code_notebook_cell_id </text>
<text text-anchor="start" x="201.21" y="-1701.8" font-family="Arial" font-size="14.00" fill="#666666">[VARCHAR]</text>
<polygon fill="none" stroke="black" points="47.09,-1658.8 47.09,-1689.6 293.78,-1689.6 293.78,-1658.8 47.09,-1658.8"/>
<text text-anchor="start" x="54.09" y="-1671" font-family="Arial" font-size="14.00">from_state </text>
<text text-anchor="start" x="124.12" y="-1671" font-family="Arial" font-size="14.00" fill="#666666">[TEXT]</text>
<polygon fill="none" stroke="black" points="47.09,-1628 47.09,-1658.8 293.78,-1658.8 293.78,-1628 47.09,-1628"/>
<text text-anchor="start" x="54.09" y="-1640.2" font-family="Arial" font-size="14.00">to_state </text>
<text text-anchor="start" x="107.79" y="-1640.2" font-family="Arial" font-size="14.00" fill="#666666">[TEXT]</text>
<polygon fill="none" stroke="black" points="47.09,-1597.2 47.09,-1628 293.78,-1628 293.78,-1597.2 47.09,-1597.2"/>
<text text-anchor="start" x="54.09" y="-1609.4" font-family="Arial" font-size="14.00">transition_result </text>
<text text-anchor="start" x="156.81" y="-1609.4" font-family="Arial" font-size="14.00" fill="#666666">[TEXT]</text>
<polygon fill="none" stroke="black" points="47.09,-1566.4 47.09,-1597.2 293.78,-1597.2 293.78,-1566.4 47.09,-1566.4"/>
<text text-anchor="start" x="54.09" y="-1578.6" font-family="Arial" font-size="14.00">transition_reason </text>
<text text-anchor="start" x="165.38" y="-1578.6" font-family="Arial" font-size="14.00" fill="#666666">[TEXT]</text>
<polygon fill="none" stroke="black" points="47.09,-1535.6 47.09,-1566.4 293.78,-1566.4 293.78,-1535.6 47.09,-1535.6"/>
<text text-anchor="start" x="54.09" y="-1547.8" font-family="Arial" font-size="14.00">transitioned_at </text>
<text text-anchor="start" x="149.82" y="-1547.8" font-family="Arial" font-size="14.00" fill="#666666">[TIMESTAMPTZ]</text>
<polygon fill="none" stroke="black" points="47.09,-1504.8 47.09,-1535.6 293.78,-1535.6 293.78,-1504.8 47.09,-1504.8"/>
<text text-anchor="start" x="54.09" y="-1517" font-family="Arial" font-size="14.00">elaboration </text>
<text text-anchor="start" x="127.25" y="-1517" font-family="Arial" font-size="14.00" fill="#666666">[TEXT]</text>
<polygon fill="none" stroke="black" points="47.09,-1474 47.09,-1504.8 293.78,-1504.8 293.78,-1474 47.09,-1474"/>
<text text-anchor="start" x="54.09" y="-1486.2" font-family="Arial" font-size="14.00">created_at </text>
<text text-anchor="start" x="124.14" y="-1486.2" font-family="Arial" font-size="14.00" fill="#666666">[TIMESTAMPTZ]</text>
<polygon fill="none" stroke="black" points="47.09,-1443.2 47.09,-1474 293.78,-1474 293.78,-1443.2 47.09,-1443.2"/>
<text text-anchor="start" x="54.09" y="-1455.4" font-family="Arial" font-size="14.00">created_by </text>
<text text-anchor="start" x="127.25" y="-1455.4" font-family="Arial" font-size="14.00" fill="#666666">[TEXT]</text>
<polygon fill="none" stroke="black" points="47.09,-1412.4 47.09,-1443.2 293.78,-1443.2 293.78,-1412.4 47.09,-1412.4"/>
<text text-anchor="start" x="54.09" y="-1424.6" font-family="Arial" font-size="14.00">updated_at </text>
<text text-anchor="start" x="128.05" y="-1424.6" font-family="Arial" font-size="14.00" fill="#666666">[TIMESTAMPTZ]</text>
<polygon fill="none" stroke="black" points="47.09,-1381.6 47.09,-1412.4 293.78,-1412.4 293.78,-1381.6 47.09,-1381.6"/>
<text text-anchor="start" x="54.09" y="-1393.8" font-family="Arial" font-size="14.00">updated_by </text>
<text text-anchor="start" x="131.16" y="-1393.8" font-family="Arial" font-size="14.00" fill="#666666">[TEXT]</text>
<polygon fill="none" stroke="black" points="47.09,-1350.8 47.09,-1381.6 293.78,-1381.6 293.78,-1350.8 47.09,-1350.8"/>
<text text-anchor="start" x="54.09" y="-1363" font-family="Arial" font-size="14.00">deleted_at </text>
<text text-anchor="start" x="123.37" y="-1363" font-family="Arial" font-size="14.00" fill="#666666">[TIMESTAMPTZ]</text>
<polygon fill="none" stroke="black" points="47.09,-1320 47.09,-1350.8 293.78,-1350.8 293.78,-1320 47.09,-1320"/>
<text text-anchor="start" x="54.09" y="-1332.2" font-family="Arial" font-size="14.00">deleted_by </text>
<text text-anchor="start" x="126.48" y="-1332.2" font-family="Arial" font-size="14.00" fill="#666666">[TEXT]</text>
<polygon fill="none" stroke="black" points="47.09,-1289.2 47.09,-1320 293.78,-1320 293.78,-1289.2 47.09,-1289.2"/>
<text text-anchor="start" x="54.09" y="-1301.4" font-family="Arial" font-size="14.00">activity_log </text>
<text text-anchor="start" x="127.23" y="-1301.4" font-family="Arial" font-size="14.00" fill="#666666">[TEXT]</text>
</g>
<!-- code_notebook_state&#45;&gt;code_notebook_cell -->
<g id="edge1" class="edge">
<title>code_notebook_state:code_notebook_cell_id&#45;&gt;code_notebook_cell:code_notebook_cell_id</title>
<path fill="none" stroke="black" d="M303.92,-1700.9C359.98,-1648.58 352.7,-1112.8 290.11,-1112.8"/>
<polygon fill="black" stroke="black" points="304.21,-1700.77 293.25,-1700.76 299.35,-1702.95 295.4,-1704.73 295.4,-1704.73 295.4,-1704.73 299.35,-1702.95 296.93,-1708.97 304.21,-1700.77"/>
</g>
</g>
</svg>
