<?xml version="1.0" encoding="UTF-8" standalone="no"?>
<!DOCTYPE svg PUBLIC "-//W3C//DTD SVG 1.1//EN"
 "http://www.w3.org/Graphics/SVG/1.1/DTD/svg11.dtd">
<!-- Generated by graphviz version 2.40.1 (20161225.0304)
 -->
<!-- Title: code_notebook_kernel Pages: 1 -->
<svg width="409pt" height="1799pt"
 viewBox="0.00 0.00 408.99 1799.00" xmlns="http://www.w3.org/2000/svg" xmlns:xlink="http://www.w3.org/1999/xlink">
<g id="graph0" class="graph" transform="scale(1 1) rotate(0) translate(4 1795)">
<title>code_notebook_kernel</title>
<polygon fill="#ffffff" stroke="transparent" points="-4,4 -4,-1795 404.9934,-1795 404.9934,4 -4,4"/>
<!-- code_notebook_kernel -->
<g id="node1" class="node">
<title>code_notebook_kernel</title>
<polygon fill="#efefef" stroke="transparent" points="66.9039,-465.5 66.9039,-500.5 334.9039,-500.5 334.9039,-465.5 66.9039,-465.5"/>
<polygon fill="none" stroke="#000000" points="66.9039,-465.5 66.9039,-500.5 334.9039,-500.5 334.9039,-465.5 66.9039,-465.5"/>
<text text-anchor="start" x="73.7007" y="-478.3" font-family="Arial Bold" font-size="18.00" fill="#000000">code_notebook_kernel</text>
<text text-anchor="start" x="255.7761" y="-478.3" font-family="Arial" font-size="14.00" fill="#000000">    </text>
<text text-anchor="start" x="289.9809" y="-478.3" font-family="Arial" font-size="14.00" fill="#666666">[table]</text>
<polygon fill="none" stroke="#000000" points="66.9039,-435.5 66.9039,-465.5 334.9039,-465.5 334.9039,-435.5 66.9039,-435.5"/>
<text text-anchor="start" x="73.9039" y="-446.9" font-family="Arial" font-size="14.00" fill="#000000">code_notebook_kernel_id </text>
<text text-anchor="start" x="238.0805" y="-446.9" font-family="Arial" font-size="14.00" fill="#666666">[VARCHAR]</text>
<polygon fill="none" stroke="#000000" points="66.9039,-405.5 66.9039,-435.5 334.9039,-435.5 334.9039,-405.5 66.9039,-405.5"/>
<text text-anchor="start" x="73.9039" y="-416.9" font-family="Arial" font-size="14.00" fill="#000000">kernel_name </text>
<text text-anchor="start" x="158.7005" y="-416.9" font-family="Arial" font-size="14.00" fill="#666666">[TEXT]</text>
<polygon fill="none" stroke="#000000" points="66.9039,-375.5 66.9039,-405.5 334.9039,-405.5 334.9039,-375.5 66.9039,-375.5"/>
<text text-anchor="start" x="73.9039" y="-386.9" font-family="Arial" font-size="14.00" fill="#000000">description </text>
<text text-anchor="start" x="145.4719" y="-386.9" font-family="Arial" font-size="14.00" fill="#666666">[TEXT]</text>
<polygon fill="none" stroke="#000000" points="66.9039,-345.5 66.9039,-375.5 334.9039,-375.5 334.9039,-345.5 66.9039,-345.5"/>
<text text-anchor="start" x="73.9039" y="-356.9" font-family="Arial" font-size="14.00" fill="#000000">mime_type </text>
<text text-anchor="start" x="146.2433" y="-356.9" font-family="Arial" font-size="14.00" fill="#666666">[TEXT]</text>
<polygon fill="none" stroke="#000000" points="66.9039,-315.5 66.9039,-345.5 334.9039,-345.5 334.9039,-315.5 66.9039,-315.5"/>
<text text-anchor="start" x="73.9039" y="-326.9" font-family="Arial" font-size="14.00" fill="#000000">file_extn </text>
<text text-anchor="start" x="129.9193" y="-326.9" font-family="Arial" font-size="14.00" fill="#666666">[TEXT]</text>
<polygon fill="none" stroke="#000000" points="66.9039,-285.5 66.9039,-315.5 334.9039,-315.5 334.9039,-285.5 66.9039,-285.5"/>
<text text-anchor="start" x="73.9039" y="-296.9" font-family="Arial" font-size="14.00" fill="#000000">elaboration </text>
<text text-anchor="start" x="147.0371" y="-296.9" font-family="Arial" font-size="14.00" fill="#666666">[TEXT]</text>
<polygon fill="none" stroke="#000000" points="66.9039,-255.5 66.9039,-285.5 334.9039,-285.5 334.9039,-255.5 66.9039,-255.5"/>
<text text-anchor="start" x="73.9039" y="-266.9" font-family="Arial" font-size="14.00" fill="#000000">governance </text>
<text text-anchor="start" x="150.9333" y="-266.9" font-family="Arial" font-size="14.00" fill="#666666">[TEXT]</text>
<polygon fill="none" stroke="#000000" points="66.9039,-225.5 66.9039,-255.5 334.9039,-255.5 334.9039,-225.5 66.9039,-225.5"/>
<text text-anchor="start" x="73.9039" y="-236.9" font-family="Arial" font-size="14.00" fill="#000000">created_at </text>
<text text-anchor="start" x="143.9319" y="-236.9" font-family="Arial" font-size="14.00" fill="#666666">[TIMESTAMP]</text>
<polygon fill="none" stroke="#000000" points="66.9039,-195.5 66.9039,-225.5 334.9039,-225.5 334.9039,-195.5 66.9039,-195.5"/>
<text text-anchor="start" x="73.9039" y="-206.9" font-family="Arial" font-size="14.00" fill="#000000">created_by </text>
<text text-anchor="start" x="147.0413" y="-206.9" font-family="Arial" font-size="14.00" fill="#666666">[TEXT]</text>
<polygon fill="none" stroke="#000000" points="66.9039,-165.5 66.9039,-195.5 334.9039,-195.5 334.9039,-165.5 66.9039,-165.5"/>
<text text-anchor="start" x="73.9039" y="-176.9" font-family="Arial" font-size="14.00" fill="#000000">updated_at </text>
<text text-anchor="start" x="147.8365" y="-176.9" font-family="Arial" font-size="14.00" fill="#666666">[TIMESTAMP]</text>
<polygon fill="none" stroke="#000000" points="66.9039,-135.5 66.9039,-165.5 334.9039,-165.5 334.9039,-135.5 66.9039,-135.5"/>
<text text-anchor="start" x="73.9039" y="-146.9" font-family="Arial" font-size="14.00" fill="#000000">updated_by </text>
<text text-anchor="start" x="150.9459" y="-146.9" font-family="Arial" font-size="14.00" fill="#666666">[TEXT]</text>
<polygon fill="none" stroke="#000000" points="66.9039,-105.5 66.9039,-135.5 334.9039,-135.5 334.9039,-105.5 66.9039,-105.5"/>
<text text-anchor="start" x="73.9039" y="-116.9" font-family="Arial" font-size="14.00" fill="#000000">deleted_at </text>
<text text-anchor="start" x="143.1605" y="-116.9" font-family="Arial" font-size="14.00" fill="#666666">[TIMESTAMP]</text>
<polygon fill="none" stroke="#000000" points="66.9039,-75.5 66.9039,-105.5 334.9039,-105.5 334.9039,-75.5 66.9039,-75.5"/>
<text text-anchor="start" x="73.9039" y="-86.9" font-family="Arial" font-size="14.00" fill="#000000">deleted_by </text>
<text text-anchor="start" x="146.2699" y="-86.9" font-family="Arial" font-size="14.00" fill="#666666">[TEXT]</text>
<polygon fill="none" stroke="#000000" points="66.9039,-45.5 66.9039,-75.5 334.9039,-75.5 334.9039,-45.5 66.9039,-45.5"/>
<text text-anchor="start" x="73.9039" y="-56.9" font-family="Arial" font-size="14.00" fill="#000000">activity_log </text>
<text text-anchor="start" x="147.0259" y="-56.9" font-family="Arial" font-size="14.00" fill="#666666">[TEXT]</text>
<polygon fill="none" stroke="#000000" stroke-width="3" points="65.4039,-44.5 65.4039,-502.5 336.4039,-502.5 336.4039,-44.5 65.4039,-44.5"/>
</g>
<!-- code_notebook_cell -->
<g id="node2" class="node">
<title>code_notebook_cell</title>
<polygon fill="#efefef" stroke="transparent" points="66.9039,-1105.5 66.9039,-1140.5 333.9039,-1140.5 333.9039,-1105.5 66.9039,-1105.5"/>
<polygon fill="none" stroke="#000000" points="66.9039,-1105.5 66.9039,-1140.5 333.9039,-1140.5 333.9039,-1105.5 66.9039,-1105.5"/>
<text text-anchor="start" x="84.2059" y="-1118.3" font-family="Arial Bold" font-size="18.00" fill="#000000">code_notebook_cell</text>
<text text-anchor="start" x="244.2709" y="-1118.3" font-family="Arial" font-size="14.00" fill="#000000">    </text>
<text text-anchor="start" x="278.4757" y="-1118.3" font-family="Arial" font-size="14.00" fill="#666666">[table]</text>
<polygon fill="none" stroke="#000000" points="66.9039,-1075.5 66.9039,-1105.5 333.9039,-1105.5 333.9039,-1075.5 66.9039,-1075.5"/>
<text text-anchor="start" x="73.6094" y="-1086.9" font-family="Arial" font-size="14.00" fill="#000000">code_notebook_cell_id    </text>
<text text-anchor="start" x="250.981" y="-1086.9" font-family="Arial" font-size="14.00" fill="#666666">[VARCHAR]</text>
<polygon fill="none" stroke="#000000" points="66.9039,-1045.5 66.9039,-1075.5 333.9039,-1075.5 333.9039,-1045.5 66.9039,-1045.5"/>
<text text-anchor="start" x="73.9039" y="-1056.9" font-family="Arial" font-size="14.00" fill="#000000">notebook_kernel_id    </text>
<text text-anchor="start" x="230.2643" y="-1056.9" font-family="Arial" font-size="14.00" fill="#666666">[VARCHAR]</text>
<polygon fill="none" stroke="#000000" points="66.9039,-1015.5 66.9039,-1045.5 333.9039,-1045.5 333.9039,-1015.5 66.9039,-1015.5"/>
<text text-anchor="start" x="73.9039" y="-1026.9" font-family="Arial" font-size="14.00" fill="#000000">notebook_name    </text>
<text text-anchor="start" x="208.4859" y="-1026.9" font-family="Arial" font-size="14.00" fill="#666666">[TEXT]</text>
<polygon fill="none" stroke="#000000" points="66.9039,-985.5 66.9039,-1015.5 333.9039,-1015.5 333.9039,-985.5 66.9039,-985.5"/>
<text text-anchor="start" x="73.9039" y="-996.9" font-family="Arial" font-size="14.00" fill="#000000">cell_name    </text>
<text text-anchor="start" x="171.8955" y="-996.9" font-family="Arial" font-size="14.00" fill="#666666">[TEXT]</text>
<polygon fill="none" stroke="#000000" points="66.9039,-955.5 66.9039,-985.5 333.9039,-985.5 333.9039,-955.5 66.9039,-955.5"/>
<text text-anchor="start" x="73.9039" y="-966.9" font-family="Arial" font-size="14.00" fill="#000000">cell_governance    </text>
<text text-anchor="start" x="210.0259" y="-966.9" font-family="Arial" font-size="14.00" fill="#666666">[TEXT]</text>
<polygon fill="none" stroke="#000000" points="66.9039,-925.5 66.9039,-955.5 333.9039,-955.5 333.9039,-925.5 66.9039,-925.5"/>
<text text-anchor="start" x="73.9039" y="-936.9" font-family="Arial" font-size="14.00" fill="#000000">interpretable_code    </text>
<text text-anchor="start" x="224.0329" y="-936.9" font-family="Arial" font-size="14.00" fill="#666666">[TEXT]</text>
<polygon fill="none" stroke="#000000" points="66.9039,-895.5 66.9039,-925.5 333.9039,-925.5 333.9039,-895.5 66.9039,-895.5"/>
<text text-anchor="start" x="73.9039" y="-906.9" font-family="Arial" font-size="14.00" fill="#000000">interpretable_code_hash    </text>
<text text-anchor="start" x="262.1633" y="-906.9" font-family="Arial" font-size="14.00" fill="#666666">[TEXT]</text>
<polygon fill="none" stroke="#000000" points="66.9039,-865.5 66.9039,-895.5 333.9039,-895.5 333.9039,-865.5 66.9039,-865.5"/>
<text text-anchor="start" x="73.9039" y="-876.9" font-family="Arial" font-size="14.00" fill="#000000">description    </text>
<text text-anchor="start" x="175.7861" y="-876.9" font-family="Arial" font-size="14.00" fill="#666666">[TEXT]</text>
<polygon fill="none" stroke="#000000" points="66.9039,-835.5 66.9039,-865.5 333.9039,-865.5 333.9039,-835.5 66.9039,-835.5"/>
<text text-anchor="start" x="73.9039" y="-846.9" font-family="Arial" font-size="14.00" fill="#000000">arguments    </text>
<text text-anchor="start" x="174.2335" y="-846.9" font-family="Arial" font-size="14.00" fill="#666666">[TEXT]</text>
<polygon fill="none" stroke="#000000" points="66.9039,-805.5 66.9039,-835.5 333.9039,-835.5 333.9039,-805.5 66.9039,-805.5"/>
<text text-anchor="start" x="73.9039" y="-816.9" font-family="Arial" font-size="14.00" fill="#000000">created_at    </text>
<text text-anchor="start" x="174.2461" y="-816.9" font-family="Arial" font-size="14.00" fill="#666666">[TIMESTAMP]</text>
<polygon fill="none" stroke="#000000" points="66.9039,-775.5 66.9039,-805.5 333.9039,-805.5 333.9039,-775.5 66.9039,-775.5"/>
<text text-anchor="start" x="73.9039" y="-786.9" font-family="Arial" font-size="14.00" fill="#000000">created_by    </text>
<text text-anchor="start" x="177.3555" y="-786.9" font-family="Arial" font-size="14.00" fill="#666666">[TEXT]</text>
<polygon fill="none" stroke="#000000" points="66.9039,-745.5 66.9039,-775.5 333.9039,-775.5 333.9039,-745.5 66.9039,-745.5"/>
<text text-anchor="start" x="73.9039" y="-756.9" font-family="Arial" font-size="14.00" fill="#000000">updated_at    </text>
<text text-anchor="start" x="178.1507" y="-756.9" font-family="Arial" font-size="14.00" fill="#666666">[TIMESTAMP]</text>
<polygon fill="none" stroke="#000000" points="66.9039,-715.5 66.9039,-745.5 333.9039,-745.5 333.9039,-715.5 66.9039,-715.5"/>
<text text-anchor="start" x="73.9039" y="-726.9" font-family="Arial" font-size="14.00" fill="#000000">updated_by    </text>
<text text-anchor="start" x="181.2601" y="-726.9" font-family="Arial" font-size="14.00" fill="#666666">[TEXT]</text>
<polygon fill="none" stroke="#000000" points="66.9039,-685.5 66.9039,-715.5 333.9039,-715.5 333.9039,-685.5 66.9039,-685.5"/>
<text text-anchor="start" x="73.9039" y="-696.9" font-family="Arial" font-size="14.00" fill="#000000">deleted_at    </text>
<text text-anchor="start" x="173.4747" y="-696.9" font-family="Arial" font-size="14.00" fill="#666666">[TIMESTAMP]</text>
<polygon fill="none" stroke="#000000" points="66.9039,-655.5 66.9039,-685.5 333.9039,-685.5 333.9039,-655.5 66.9039,-655.5"/>
<text text-anchor="start" x="73.9039" y="-666.9" font-family="Arial" font-size="14.00" fill="#000000">deleted_by    </text>
<text text-anchor="start" x="176.5841" y="-666.9" font-family="Arial" font-size="14.00" fill="#666666">[TEXT]</text>
<polygon fill="none" stroke="#000000" points="66.9039,-625.5 66.9039,-655.5 333.9039,-655.5 333.9039,-625.5 66.9039,-625.5"/>
<text text-anchor="start" x="73.9039" y="-636.9" font-family="Arial" font-size="14.00" fill="#000000">activity_log    </text>
<text text-anchor="start" x="177.3401" y="-636.9" font-family="Arial" font-size="14.00" fill="#666666">[TEXT]</text>
</g>
<!-- code_notebook_cell&#45;&gt;code_notebook_kernel -->
<g id="edge1" class="edge">
<title>code_notebook_cell:notebook_kernel_id&#45;&gt;code_notebook_kernel:code_notebook_kernel_id</title>
<path fill="none" stroke="#000000" d="M344.0066,-1059.2111C437.5693,-1034.4463 401.4242,-660.2352 333.9039,-583 255.0942,-492.8512 145.7135,-637.1488 66.9039,-547 38.6757,-514.7103 24.015,-450.5 66.9039,-450.5"/>
<polygon fill="#000000" stroke="#000000" points="343.8235,-1059.2344 333.3344,-1056.0362 338.8637,-1059.8672 333.9039,-1060.5 333.9039,-1060.5 333.9039,-1060.5 338.8637,-1059.8672 334.4734,-1064.9638 343.8235,-1059.2344 343.8235,-1059.2344"/>
</g>
<!-- code_notebook_state -->
<g id="node3" class="node">
<title>code_notebook_state</title>
<polygon fill="#efefef" stroke="transparent" points="62.9039,-1712.5 62.9039,-1747.5 338.9039,-1747.5 338.9039,-1712.5 62.9039,-1712.5"/>
<polygon fill="none" stroke="#000000" points="62.9039,-1712.5 62.9039,-1747.5 338.9039,-1747.5 338.9039,-1712.5 62.9039,-1712.5"/>
<text text-anchor="start" x="78.6948" y="-1725.3" font-family="Arial Bold" font-size="18.00" fill="#000000">code_notebook_state</text>
<text text-anchor="start" x="250.782" y="-1725.3" font-family="Arial" font-size="14.00" fill="#000000">    </text>
<text text-anchor="start" x="284.9868" y="-1725.3" font-family="Arial" font-size="14.00" fill="#666666">[table]</text>
<polygon fill="none" stroke="#000000" points="62.9039,-1682.5 62.9039,-1712.5 338.9039,-1712.5 338.9039,-1682.5 62.9039,-1682.5"/>
<text text-anchor="start" x="69.4341" y="-1693.9" font-family="Arial" font-size="14.00" fill="#000000">code_notebook_state_id    </text>
<text text-anchor="start" x="256.1563" y="-1693.9" font-family="Arial" font-size="14.00" fill="#666666">[VARCHAR]</text>
<polygon fill="none" stroke="#000000" points="62.9039,-1652.5 62.9039,-1682.5 338.9039,-1682.5 338.9039,-1652.5 62.9039,-1652.5"/>
<text text-anchor="start" x="69.9039" y="-1663.9" font-family="Arial" font-size="14.00" fill="#000000">code_notebook_cell_id    </text>
<text text-anchor="start" x="247.2755" y="-1663.9" font-family="Arial" font-size="14.00" fill="#666666">[VARCHAR]</text>
<polygon fill="none" stroke="#000000" points="62.9039,-1622.5 62.9039,-1652.5 338.9039,-1652.5 338.9039,-1622.5 62.9039,-1622.5"/>
<text text-anchor="start" x="69.9039" y="-1633.9" font-family="Arial" font-size="14.00" fill="#000000">from_state    </text>
<text text-anchor="start" x="170.2321" y="-1633.9" font-family="Arial" font-size="14.00" fill="#666666">[TEXT]</text>
<polygon fill="none" stroke="#000000" points="62.9039,-1592.5 62.9039,-1622.5 338.9039,-1622.5 338.9039,-1592.5 62.9039,-1592.5"/>
<text text-anchor="start" x="69.9039" y="-1603.9" font-family="Arial" font-size="14.00" fill="#000000">to_state    </text>
<text text-anchor="start" x="153.9109" y="-1603.9" font-family="Arial" font-size="14.00" fill="#666666">[TEXT]</text>
<polygon fill="none" stroke="#000000" points="62.9039,-1562.5 62.9039,-1592.5 338.9039,-1592.5 338.9039,-1562.5 62.9039,-1562.5"/>
<text text-anchor="start" x="69.9039" y="-1573.9" font-family="Arial" font-size="14.00" fill="#000000">transition_result    </text>
<text text-anchor="start" x="202.8997" y="-1573.9" font-family="Arial" font-size="14.00" fill="#666666">[TEXT]</text>
<polygon fill="none" stroke="#000000" points="62.9039,-1532.5 62.9039,-1562.5 338.9039,-1562.5 338.9039,-1532.5 62.9039,-1532.5"/>
<text text-anchor="start" x="69.9039" y="-1543.9" font-family="Arial" font-size="14.00" fill="#000000">transition_reason    </text>
<text text-anchor="start" x="211.4677" y="-1543.9" font-family="Arial" font-size="14.00" fill="#666666">[TEXT]</text>
<polygon fill="none" stroke="#000000" points="62.9039,-1502.5 62.9039,-1532.5 338.9039,-1532.5 338.9039,-1502.5 62.9039,-1502.5"/>
<text text-anchor="start" x="69.9039" y="-1513.9" font-family="Arial" font-size="14.00" fill="#000000">transitioned_at    </text>
<text text-anchor="start" x="195.9151" y="-1513.9" font-family="Arial" font-size="14.00" fill="#666666">[TIMESTAMP]</text>
<polygon fill="none" stroke="#000000" points="62.9039,-1472.5 62.9039,-1502.5 338.9039,-1502.5 338.9039,-1472.5 62.9039,-1472.5"/>
<text text-anchor="start" x="69.9039" y="-1483.9" font-family="Arial" font-size="14.00" fill="#000000">elaboration    </text>
<text text-anchor="start" x="173.3513" y="-1483.9" font-family="Arial" font-size="14.00" fill="#666666">[TEXT]</text>
<polygon fill="none" stroke="#000000" points="62.9039,-1442.5 62.9039,-1472.5 338.9039,-1472.5 338.9039,-1442.5 62.9039,-1442.5"/>
<text text-anchor="start" x="69.9039" y="-1453.9" font-family="Arial" font-size="14.00" fill="#000000">created_at    </text>
<text text-anchor="start" x="170.2461" y="-1453.9" font-family="Arial" font-size="14.00" fill="#666666">[TIMESTAMP]</text>
<polygon fill="none" stroke="#000000" points="62.9039,-1412.5 62.9039,-1442.5 338.9039,-1442.5 338.9039,-1412.5 62.9039,-1412.5"/>
<text text-anchor="start" x="69.9039" y="-1423.9" font-family="Arial" font-size="14.00" fill="#000000">created_by    </text>
<text text-anchor="start" x="173.3555" y="-1423.9" font-family="Arial" font-size="14.00" fill="#666666">[TEXT]</text>
<polygon fill="none" stroke="#000000" points="62.9039,-1382.5 62.9039,-1412.5 338.9039,-1412.5 338.9039,-1382.5 62.9039,-1382.5"/>
<text text-anchor="start" x="69.9039" y="-1393.9" font-family="Arial" font-size="14.00" fill="#000000">updated_at    </text>
<text text-anchor="start" x="174.1507" y="-1393.9" font-family="Arial" font-size="14.00" fill="#666666">[TIMESTAMP]</text>
<polygon fill="none" stroke="#000000" points="62.9039,-1352.5 62.9039,-1382.5 338.9039,-1382.5 338.9039,-1352.5 62.9039,-1352.5"/>
<text text-anchor="start" x="69.9039" y="-1363.9" font-family="Arial" font-size="14.00" fill="#000000">updated_by    </text>
<text text-anchor="start" x="177.2601" y="-1363.9" font-family="Arial" font-size="14.00" fill="#666666">[TEXT]</text>
<polygon fill="none" stroke="#000000" points="62.9039,-1322.5 62.9039,-1352.5 338.9039,-1352.5 338.9039,-1322.5 62.9039,-1322.5"/>
<text text-anchor="start" x="69.9039" y="-1333.9" font-family="Arial" font-size="14.00" fill="#000000">deleted_at    </text>
<text text-anchor="start" x="169.4747" y="-1333.9" font-family="Arial" font-size="14.00" fill="#666666">[TIMESTAMP]</text>
<polygon fill="none" stroke="#000000" points="62.9039,-1292.5 62.9039,-1322.5 338.9039,-1322.5 338.9039,-1292.5 62.9039,-1292.5"/>
<text text-anchor="start" x="69.9039" y="-1303.9" font-family="Arial" font-size="14.00" fill="#000000">deleted_by    </text>
<text text-anchor="start" x="172.5841" y="-1303.9" font-family="Arial" font-size="14.00" fill="#666666">[TEXT]</text>
<polygon fill="none" stroke="#000000" points="62.9039,-1262.5 62.9039,-1292.5 338.9039,-1292.5 338.9039,-1262.5 62.9039,-1262.5"/>
<text text-anchor="start" x="69.9039" y="-1273.9" font-family="Arial" font-size="14.00" fill="#000000">activity_log    </text>
<text text-anchor="start" x="173.3401" y="-1273.9" font-family="Arial" font-size="14.00" fill="#666666">[TEXT]</text>
</g>
<!-- code_notebook_state&#45;&gt;code_notebook_cell -->
<g id="edge2" class="edge">
<title>code_notebook_state:code_notebook_cell_id&#45;&gt;code_notebook_cell:code_notebook_cell_id</title>
<path fill="none" stroke="#000000" d="M52.9057,-1666.1472C-34.1165,-1641.663 -.3171,-1292.1747 62.9039,-1220 142.9627,-1128.6028 253.8451,-1275.3972 333.9039,-1184 361.2851,-1152.7409 375.4594,-1090.5 333.9039,-1090.5"/>
<polygon fill="#000000" stroke="#000000" points="52.9942,-1666.1591 62.3005,-1671.9594 57.949,-1666.8296 62.9039,-1667.5 62.9039,-1667.5 62.9039,-1667.5 57.949,-1666.8296 63.5073,-1663.0406 52.9942,-1666.1591 52.9942,-1666.1591"/>
</g>
</g>
</svg>
