<?xml version="1.0" encoding="UTF-8" standalone="no"?>
<!DOCTYPE svg PUBLIC "-//W3C//DTD SVG 1.1//EN"
 "http://www.w3.org/Graphics/SVG/1.1/DTD/svg11.dtd">
<!-- Generated by graphviz version 2.40.1 (20161225.0304)
 -->
<!-- Title: Resource Surveillance Notebooks Schema Pages: 1 -->
<svg width="757pt" height="1793pt"
 viewBox="0.00 0.00 757.14 1793.00" xmlns="http://www.w3.org/2000/svg" xmlns:xlink="http://www.w3.org/1999/xlink">
<g id="graph0" class="graph" transform="scale(1 1) rotate(0) translate(4 1789)">
<title>Resource Surveillance Notebooks Schema</title>
<polygon fill="#ffffff" stroke="transparent" points="-4,4 -4,-1789 753.1392,-1789 753.1392,4 -4,4"/>
<!-- assurance_schema -->
<g id="node1" class="node">
<title>assurance_schema</title>
<polygon fill="#efefef" stroke="transparent" points="43,-1661.5 43,-1696.5 307,-1696.5 307,-1661.5 43,-1661.5"/>
<polygon fill="none" stroke="#000000" points="43,-1661.5 43,-1696.5 307,-1696.5 307,-1661.5 43,-1661.5"/>
<text text-anchor="start" x="60.8144" y="-1674.3" font-family="Arial Bold" font-size="18.00" fill="#000000">assurance_schema</text>
<text text-anchor="start" x="216.8546" y="-1674.3" font-family="Arial" font-size="14.00" fill="#000000">    </text>
<text text-anchor="start" x="251.0594" y="-1674.3" font-family="Arial" font-size="14.00" fill="#666666">[table]</text>
<polygon fill="none" stroke="#000000" points="43,-1631.5 43,-1661.5 307,-1661.5 307,-1631.5 43,-1631.5"/>
<text text-anchor="start" x="49.7707" y="-1642.9" font-family="Arial" font-size="14.00" fill="#000000">assurance_schema_id    </text>
<text text-anchor="start" x="224.0119" y="-1642.9" font-family="Arial" font-size="14.00" fill="#666666">[VARCHAR]</text>
<polygon fill="none" stroke="#000000" points="43,-1601.5 43,-1631.5 307,-1631.5 307,-1601.5 43,-1601.5"/>
<text text-anchor="start" x="50" y="-1612.9" font-family="Arial" font-size="14.00" fill="#000000">assurance_type    </text>
<text text-anchor="start" x="183.0168" y="-1612.9" font-family="Arial" font-size="14.00" fill="#666666">[TEXT]</text>
<polygon fill="none" stroke="#000000" points="43,-1571.5 43,-1601.5 307,-1601.5 307,-1571.5 43,-1571.5"/>
<text text-anchor="start" x="50" y="-1582.9" font-family="Arial" font-size="14.00" fill="#000000">code    </text>
<text text-anchor="start" x="114.5526" y="-1582.9" font-family="Arial" font-size="14.00" fill="#666666">[TEXT]</text>
<polygon fill="none" stroke="#000000" points="43,-1541.5 43,-1571.5 307,-1571.5 307,-1541.5 43,-1541.5"/>
<text text-anchor="start" x="50" y="-1552.9" font-family="Arial" font-size="14.00" fill="#000000">code_json    </text>
<text text-anchor="start" x="148.007" y="-1552.9" font-family="Arial" font-size="14.00" fill="#666666">[TEXT]</text>
<polygon fill="none" stroke="#000000" points="43,-1511.5 43,-1541.5 307,-1541.5 307,-1511.5 43,-1511.5"/>
<text text-anchor="start" x="50" y="-1522.9" font-family="Arial" font-size="14.00" fill="#000000">governance    </text>
<text text-anchor="start" x="157.3436" y="-1522.9" font-family="Arial" font-size="14.00" fill="#666666">[TEXT]</text>
<polygon fill="none" stroke="#000000" points="43,-1481.5 43,-1511.5 307,-1511.5 307,-1481.5 43,-1481.5"/>
<text text-anchor="start" x="50" y="-1492.9" font-family="Arial" font-size="14.00" fill="#000000">created_at    </text>
<text text-anchor="start" x="150.3422" y="-1492.9" font-family="Arial" font-size="14.00" fill="#666666">[TIMESTAMP]</text>
<polygon fill="none" stroke="#000000" points="43,-1451.5 43,-1481.5 307,-1481.5 307,-1451.5 43,-1451.5"/>
<text text-anchor="start" x="50" y="-1462.9" font-family="Arial" font-size="14.00" fill="#000000">created_by    </text>
<text text-anchor="start" x="153.4516" y="-1462.9" font-family="Arial" font-size="14.00" fill="#666666">[TEXT]</text>
<polygon fill="none" stroke="#000000" points="43,-1421.5 43,-1451.5 307,-1451.5 307,-1421.5 43,-1421.5"/>
<text text-anchor="start" x="50" y="-1432.9" font-family="Arial" font-size="14.00" fill="#000000">updated_at    </text>
<text text-anchor="start" x="154.2468" y="-1432.9" font-family="Arial" font-size="14.00" fill="#666666">[TIMESTAMP]</text>
<polygon fill="none" stroke="#000000" points="43,-1391.5 43,-1421.5 307,-1421.5 307,-1391.5 43,-1391.5"/>
<text text-anchor="start" x="50" y="-1402.9" font-family="Arial" font-size="14.00" fill="#000000">updated_by    </text>
<text text-anchor="start" x="157.3562" y="-1402.9" font-family="Arial" font-size="14.00" fill="#666666">[TEXT]</text>
<polygon fill="none" stroke="#000000" points="43,-1361.5 43,-1391.5 307,-1391.5 307,-1361.5 43,-1361.5"/>
<text text-anchor="start" x="50" y="-1372.9" font-family="Arial" font-size="14.00" fill="#000000">deleted_at    </text>
<text text-anchor="start" x="149.5708" y="-1372.9" font-family="Arial" font-size="14.00" fill="#666666">[TIMESTAMP]</text>
<polygon fill="none" stroke="#000000" points="43,-1331.5 43,-1361.5 307,-1361.5 307,-1331.5 43,-1331.5"/>
<text text-anchor="start" x="50" y="-1342.9" font-family="Arial" font-size="14.00" fill="#000000">deleted_by    </text>
<text text-anchor="start" x="152.6802" y="-1342.9" font-family="Arial" font-size="14.00" fill="#666666">[TEXT]</text>
<polygon fill="none" stroke="#000000" points="43,-1301.5 43,-1331.5 307,-1331.5 307,-1301.5 43,-1301.5"/>
<text text-anchor="start" x="50" y="-1312.9" font-family="Arial" font-size="14.00" fill="#000000">activity_log    </text>
<text text-anchor="start" x="153.4362" y="-1312.9" font-family="Arial" font-size="14.00" fill="#666666">[TEXT]</text>
</g>
<!-- code_notebook_kernel -->
<g id="node2" class="node">
<title>code_notebook_kernel</title>
<polygon fill="#efefef" stroke="transparent" points="407,-462.5 407,-497.5 691,-497.5 691,-462.5 407,-462.5"/>
<polygon fill="none" stroke="#000000" points="407,-462.5 407,-497.5 691,-497.5 691,-462.5 407,-462.5"/>
<text text-anchor="start" x="421.7968" y="-475.3" font-family="Arial Bold" font-size="18.00" fill="#000000">code_notebook_kernel</text>
<text text-anchor="start" x="603.8722" y="-475.3" font-family="Arial" font-size="14.00" fill="#000000">    </text>
<text text-anchor="start" x="638.077" y="-475.3" font-family="Arial" font-size="14.00" fill="#666666">[table]</text>
<polygon fill="none" stroke="#000000" points="407,-432.5 407,-462.5 691,-462.5 691,-432.5 407,-432.5"/>
<text text-anchor="start" x="413.6459" y="-443.9" font-family="Arial" font-size="14.00" fill="#000000">code_notebook_kernel_id    </text>
<text text-anchor="start" x="608.1367" y="-443.9" font-family="Arial" font-size="14.00" fill="#666666">[VARCHAR]</text>
<polygon fill="none" stroke="#000000" points="407,-402.5 407,-432.5 691,-432.5 691,-402.5 407,-402.5"/>
<text text-anchor="start" x="414" y="-413.9" font-family="Arial" font-size="14.00" fill="#000000">kernel_name    </text>
<text text-anchor="start" x="529.1108" y="-413.9" font-family="Arial" font-size="14.00" fill="#666666">[TEXT]</text>
<polygon fill="none" stroke="#000000" points="407,-372.5 407,-402.5 691,-402.5 691,-372.5 407,-372.5"/>
<text text-anchor="start" x="414" y="-383.9" font-family="Arial" font-size="14.00" fill="#000000">description    </text>
<text text-anchor="start" x="515.8822" y="-383.9" font-family="Arial" font-size="14.00" fill="#666666">[TEXT]</text>
<polygon fill="none" stroke="#000000" points="407,-342.5 407,-372.5 691,-372.5 691,-342.5 407,-342.5"/>
<text text-anchor="start" x="414" y="-353.9" font-family="Arial" font-size="14.00" fill="#000000">mime_type    </text>
<text text-anchor="start" x="516.6536" y="-353.9" font-family="Arial" font-size="14.00" fill="#666666">[TEXT]</text>
<polygon fill="none" stroke="#000000" points="407,-312.5 407,-342.5 691,-342.5 691,-312.5 407,-312.5"/>
<text text-anchor="start" x="414" y="-323.9" font-family="Arial" font-size="14.00" fill="#000000">file_extn    </text>
<text text-anchor="start" x="500.3296" y="-323.9" font-family="Arial" font-size="14.00" fill="#666666">[TEXT]</text>
<polygon fill="none" stroke="#000000" points="407,-282.5 407,-312.5 691,-312.5 691,-282.5 407,-282.5"/>
<text text-anchor="start" x="414" y="-293.9" font-family="Arial" font-size="14.00" fill="#000000">elaboration    </text>
<text text-anchor="start" x="517.4474" y="-293.9" font-family="Arial" font-size="14.00" fill="#666666">[TEXT]</text>
<polygon fill="none" stroke="#000000" points="407,-252.5 407,-282.5 691,-282.5 691,-252.5 407,-252.5"/>
<text text-anchor="start" x="414" y="-263.9" font-family="Arial" font-size="14.00" fill="#000000">governance    </text>
<text text-anchor="start" x="521.3436" y="-263.9" font-family="Arial" font-size="14.00" fill="#666666">[TEXT]</text>
<polygon fill="none" stroke="#000000" points="407,-222.5 407,-252.5 691,-252.5 691,-222.5 407,-222.5"/>
<text text-anchor="start" x="414" y="-233.9" font-family="Arial" font-size="14.00" fill="#000000">created_at    </text>
<text text-anchor="start" x="514.3422" y="-233.9" font-family="Arial" font-size="14.00" fill="#666666">[TIMESTAMP]</text>
<polygon fill="none" stroke="#000000" points="407,-192.5 407,-222.5 691,-222.5 691,-192.5 407,-192.5"/>
<text text-anchor="start" x="414" y="-203.9" font-family="Arial" font-size="14.00" fill="#000000">created_by    </text>
<text text-anchor="start" x="517.4516" y="-203.9" font-family="Arial" font-size="14.00" fill="#666666">[TEXT]</text>
<polygon fill="none" stroke="#000000" points="407,-162.5 407,-192.5 691,-192.5 691,-162.5 407,-162.5"/>
<text text-anchor="start" x="414" y="-173.9" font-family="Arial" font-size="14.00" fill="#000000">updated_at    </text>
<text text-anchor="start" x="518.2468" y="-173.9" font-family="Arial" font-size="14.00" fill="#666666">[TIMESTAMP]</text>
<polygon fill="none" stroke="#000000" points="407,-132.5 407,-162.5 691,-162.5 691,-132.5 407,-132.5"/>
<text text-anchor="start" x="414" y="-143.9" font-family="Arial" font-size="14.00" fill="#000000">updated_by    </text>
<text text-anchor="start" x="521.3562" y="-143.9" font-family="Arial" font-size="14.00" fill="#666666">[TEXT]</text>
<polygon fill="none" stroke="#000000" points="407,-102.5 407,-132.5 691,-132.5 691,-102.5 407,-102.5"/>
<text text-anchor="start" x="414" y="-113.9" font-family="Arial" font-size="14.00" fill="#000000">deleted_at    </text>
<text text-anchor="start" x="513.5708" y="-113.9" font-family="Arial" font-size="14.00" fill="#666666">[TIMESTAMP]</text>
<polygon fill="none" stroke="#000000" points="407,-72.5 407,-102.5 691,-102.5 691,-72.5 407,-72.5"/>
<text text-anchor="start" x="414" y="-83.9" font-family="Arial" font-size="14.00" fill="#000000">deleted_by    </text>
<text text-anchor="start" x="516.6802" y="-83.9" font-family="Arial" font-size="14.00" fill="#666666">[TEXT]</text>
<polygon fill="none" stroke="#000000" points="407,-42.5 407,-72.5 691,-72.5 691,-42.5 407,-42.5"/>
<text text-anchor="start" x="414" y="-53.9" font-family="Arial" font-size="14.00" fill="#000000">activity_log    </text>
<text text-anchor="start" x="517.4362" y="-53.9" font-family="Arial" font-size="14.00" fill="#666666">[TEXT]</text>
</g>
<!-- code_notebook_cell -->
<g id="node3" class="node">
<title>code_notebook_cell</title>
<polygon fill="#efefef" stroke="transparent" points="415,-1099.5 415,-1134.5 682,-1134.5 682,-1099.5 415,-1099.5"/>
<polygon fill="none" stroke="#000000" points="415,-1099.5 415,-1134.5 682,-1134.5 682,-1099.5 415,-1099.5"/>
<text text-anchor="start" x="432.302" y="-1112.3" font-family="Arial Bold" font-size="18.00" fill="#000000">code_notebook_cell</text>
<text text-anchor="start" x="592.367" y="-1112.3" font-family="Arial" font-size="14.00" fill="#000000">    </text>
<text text-anchor="start" x="626.5718" y="-1112.3" font-family="Arial" font-size="14.00" fill="#666666">[table]</text>
<polygon fill="none" stroke="#000000" points="415,-1069.5 415,-1099.5 682,-1099.5 682,-1069.5 415,-1069.5"/>
<text text-anchor="start" x="421.7055" y="-1080.9" font-family="Arial" font-size="14.00" fill="#000000">code_notebook_cell_id    </text>
<text text-anchor="start" x="599.0771" y="-1080.9" font-family="Arial" font-size="14.00" fill="#666666">[VARCHAR]</text>
<polygon fill="none" stroke="#000000" points="415,-1039.5 415,-1069.5 682,-1069.5 682,-1039.5 415,-1039.5"/>
<text text-anchor="start" x="422" y="-1050.9" font-family="Arial" font-size="14.00" fill="#000000">notebook_kernel_id    </text>
<text text-anchor="start" x="578.3604" y="-1050.9" font-family="Arial" font-size="14.00" fill="#666666">[VARCHAR]</text>
<polygon fill="none" stroke="#000000" points="415,-1009.5 415,-1039.5 682,-1039.5 682,-1009.5 415,-1009.5"/>
<text text-anchor="start" x="422" y="-1020.9" font-family="Arial" font-size="14.00" fill="#000000">notebook_name    </text>
<text text-anchor="start" x="556.582" y="-1020.9" font-family="Arial" font-size="14.00" fill="#666666">[TEXT]</text>
<polygon fill="none" stroke="#000000" points="415,-979.5 415,-1009.5 682,-1009.5 682,-979.5 415,-979.5"/>
<text text-anchor="start" x="422" y="-990.9" font-family="Arial" font-size="14.00" fill="#000000">cell_name    </text>
<text text-anchor="start" x="519.9916" y="-990.9" font-family="Arial" font-size="14.00" fill="#666666">[TEXT]</text>
<polygon fill="none" stroke="#000000" points="415,-949.5 415,-979.5 682,-979.5 682,-949.5 415,-949.5"/>
<text text-anchor="start" x="422" y="-960.9" font-family="Arial" font-size="14.00" fill="#000000">cell_governance    </text>
<text text-anchor="start" x="558.122" y="-960.9" font-family="Arial" font-size="14.00" fill="#666666">[TEXT]</text>
<polygon fill="none" stroke="#000000" points="415,-919.5 415,-949.5 682,-949.5 682,-919.5 415,-919.5"/>
<text text-anchor="start" x="422" y="-930.9" font-family="Arial" font-size="14.00" fill="#000000">interpretable_code    </text>
<text text-anchor="start" x="572.129" y="-930.9" font-family="Arial" font-size="14.00" fill="#666666">[TEXT]</text>
<polygon fill="none" stroke="#000000" points="415,-889.5 415,-919.5 682,-919.5 682,-889.5 415,-889.5"/>
<text text-anchor="start" x="422" y="-900.9" font-family="Arial" font-size="14.00" fill="#000000">interpretable_code_hash    </text>
<text text-anchor="start" x="610.2594" y="-900.9" font-family="Arial" font-size="14.00" fill="#666666">[TEXT]</text>
<polygon fill="none" stroke="#000000" points="415,-859.5 415,-889.5 682,-889.5 682,-859.5 415,-859.5"/>
<text text-anchor="start" x="422" y="-870.9" font-family="Arial" font-size="14.00" fill="#000000">description    </text>
<text text-anchor="start" x="523.8822" y="-870.9" font-family="Arial" font-size="14.00" fill="#666666">[TEXT]</text>
<polygon fill="none" stroke="#000000" points="415,-829.5 415,-859.5 682,-859.5 682,-829.5 415,-829.5"/>
<text text-anchor="start" x="422" y="-840.9" font-family="Arial" font-size="14.00" fill="#000000">arguments    </text>
<text text-anchor="start" x="522.3296" y="-840.9" font-family="Arial" font-size="14.00" fill="#666666">[TEXT]</text>
<polygon fill="none" stroke="#000000" points="415,-799.5 415,-829.5 682,-829.5 682,-799.5 415,-799.5"/>
<text text-anchor="start" x="422" y="-810.9" font-family="Arial" font-size="14.00" fill="#000000">created_at    </text>
<text text-anchor="start" x="522.3422" y="-810.9" font-family="Arial" font-size="14.00" fill="#666666">[TIMESTAMP]</text>
<polygon fill="none" stroke="#000000" points="415,-769.5 415,-799.5 682,-799.5 682,-769.5 415,-769.5"/>
<text text-anchor="start" x="422" y="-780.9" font-family="Arial" font-size="14.00" fill="#000000">created_by    </text>
<text text-anchor="start" x="525.4516" y="-780.9" font-family="Arial" font-size="14.00" fill="#666666">[TEXT]</text>
<polygon fill="none" stroke="#000000" points="415,-739.5 415,-769.5 682,-769.5 682,-739.5 415,-739.5"/>
<text text-anchor="start" x="422" y="-750.9" font-family="Arial" font-size="14.00" fill="#000000">updated_at    </text>
<text text-anchor="start" x="526.2468" y="-750.9" font-family="Arial" font-size="14.00" fill="#666666">[TIMESTAMP]</text>
<polygon fill="none" stroke="#000000" points="415,-709.5 415,-739.5 682,-739.5 682,-709.5 415,-709.5"/>
<text text-anchor="start" x="422" y="-720.9" font-family="Arial" font-size="14.00" fill="#000000">updated_by    </text>
<text text-anchor="start" x="529.3562" y="-720.9" font-family="Arial" font-size="14.00" fill="#666666">[TEXT]</text>
<polygon fill="none" stroke="#000000" points="415,-679.5 415,-709.5 682,-709.5 682,-679.5 415,-679.5"/>
<text text-anchor="start" x="422" y="-690.9" font-family="Arial" font-size="14.00" fill="#000000">deleted_at    </text>
<text text-anchor="start" x="521.5708" y="-690.9" font-family="Arial" font-size="14.00" fill="#666666">[TIMESTAMP]</text>
<polygon fill="none" stroke="#000000" points="415,-649.5 415,-679.5 682,-679.5 682,-649.5 415,-649.5"/>
<text text-anchor="start" x="422" y="-660.9" font-family="Arial" font-size="14.00" fill="#000000">deleted_by    </text>
<text text-anchor="start" x="524.6802" y="-660.9" font-family="Arial" font-size="14.00" fill="#666666">[TEXT]</text>
<polygon fill="none" stroke="#000000" points="415,-619.5 415,-649.5 682,-649.5 682,-619.5 415,-619.5"/>
<text text-anchor="start" x="422" y="-630.9" font-family="Arial" font-size="14.00" fill="#000000">activity_log    </text>
<text text-anchor="start" x="525.4362" y="-630.9" font-family="Arial" font-size="14.00" fill="#666666">[TEXT]</text>
</g>
<!-- code_notebook_cell&#45;&gt;code_notebook_kernel -->
<g id="edge1" class="edge">
<title>code_notebook_cell:notebook_kernel_id&#45;&gt;code_notebook_kernel:code_notebook_kernel_id</title>
<path fill="none" stroke="#000000" d="M692.1032,-1053.2107C785.6753,-1028.4377 749.6691,-654.1049 682,-577 600.6918,-484.3541 488.3082,-633.6459 407,-541 379.5891,-509.7669 365.4444,-447.5 407,-447.5"/>
<polygon fill="#000000" stroke="#000000" points="691.9196,-1053.2341 681.4303,-1050.0362 686.9598,-1053.867 682,-1054.5 682,-1054.5 682,-1054.5 686.9598,-1053.867 682.5697,-1058.9638 691.9196,-1053.2341 691.9196,-1053.2341"/>
</g>
<!-- code_notebook_state -->
<g id="node4" class="node">
<title>code_notebook_state</title>
<polygon fill="#efefef" stroke="transparent" points="411,-1706.5 411,-1741.5 687,-1741.5 687,-1706.5 411,-1706.5"/>
<polygon fill="none" stroke="#000000" points="411,-1706.5 411,-1741.5 687,-1741.5 687,-1706.5 411,-1706.5"/>
<text text-anchor="start" x="426.7909" y="-1719.3" font-family="Arial Bold" font-size="18.00" fill="#000000">code_notebook_state</text>
<text text-anchor="start" x="598.8781" y="-1719.3" font-family="Arial" font-size="14.00" fill="#000000">    </text>
<text text-anchor="start" x="633.0829" y="-1719.3" font-family="Arial" font-size="14.00" fill="#666666">[table]</text>
<polygon fill="none" stroke="#000000" points="411,-1676.5 411,-1706.5 687,-1706.5 687,-1676.5 411,-1676.5"/>
<text text-anchor="start" x="417.5302" y="-1687.9" font-family="Arial" font-size="14.00" fill="#000000">code_notebook_state_id    </text>
<text text-anchor="start" x="604.2524" y="-1687.9" font-family="Arial" font-size="14.00" fill="#666666">[VARCHAR]</text>
<polygon fill="none" stroke="#000000" points="411,-1646.5 411,-1676.5 687,-1676.5 687,-1646.5 411,-1646.5"/>
<text text-anchor="start" x="418" y="-1657.9" font-family="Arial" font-size="14.00" fill="#000000">code_notebook_cell_id    </text>
<text text-anchor="start" x="595.3716" y="-1657.9" font-family="Arial" font-size="14.00" fill="#666666">[VARCHAR]</text>
<polygon fill="none" stroke="#000000" points="411,-1616.5 411,-1646.5 687,-1646.5 687,-1616.5 411,-1616.5"/>
<text text-anchor="start" x="418" y="-1627.9" font-family="Arial" font-size="14.00" fill="#000000">from_state    </text>
<text text-anchor="start" x="518.3282" y="-1627.9" font-family="Arial" font-size="14.00" fill="#666666">[TEXT]</text>
<polygon fill="none" stroke="#000000" points="411,-1586.5 411,-1616.5 687,-1616.5 687,-1586.5 411,-1586.5"/>
<text text-anchor="start" x="418" y="-1597.9" font-family="Arial" font-size="14.00" fill="#000000">to_state    </text>
<text text-anchor="start" x="502.007" y="-1597.9" font-family="Arial" font-size="14.00" fill="#666666">[TEXT]</text>
<polygon fill="none" stroke="#000000" points="411,-1556.5 411,-1586.5 687,-1586.5 687,-1556.5 411,-1556.5"/>
<text text-anchor="start" x="418" y="-1567.9" font-family="Arial" font-size="14.00" fill="#000000">transition_result    </text>
<text text-anchor="start" x="550.9958" y="-1567.9" font-family="Arial" font-size="14.00" fill="#666666">[TEXT]</text>
<polygon fill="none" stroke="#000000" points="411,-1526.5 411,-1556.5 687,-1556.5 687,-1526.5 411,-1526.5"/>
<text text-anchor="start" x="418" y="-1537.9" font-family="Arial" font-size="14.00" fill="#000000">transition_reason    </text>
<text text-anchor="start" x="559.5638" y="-1537.9" font-family="Arial" font-size="14.00" fill="#666666">[TEXT]</text>
<polygon fill="none" stroke="#000000" points="411,-1496.5 411,-1526.5 687,-1526.5 687,-1496.5 411,-1496.5"/>
<text text-anchor="start" x="418" y="-1507.9" font-family="Arial" font-size="14.00" fill="#000000">transitioned_at    </text>
<text text-anchor="start" x="544.0112" y="-1507.9" font-family="Arial" font-size="14.00" fill="#666666">[TIMESTAMP]</text>
<polygon fill="none" stroke="#000000" points="411,-1466.5 411,-1496.5 687,-1496.5 687,-1466.5 411,-1466.5"/>
<text text-anchor="start" x="418" y="-1477.9" font-family="Arial" font-size="14.00" fill="#000000">elaboration    </text>
<text text-anchor="start" x="521.4474" y="-1477.9" font-family="Arial" font-size="14.00" fill="#666666">[TEXT]</text>
<polygon fill="none" stroke="#000000" points="411,-1436.5 411,-1466.5 687,-1466.5 687,-1436.5 411,-1436.5"/>
<text text-anchor="start" x="418" y="-1447.9" font-family="Arial" font-size="14.00" fill="#000000">created_at    </text>
<text text-anchor="start" x="518.3422" y="-1447.9" font-family="Arial" font-size="14.00" fill="#666666">[TIMESTAMP]</text>
<polygon fill="none" stroke="#000000" points="411,-1406.5 411,-1436.5 687,-1436.5 687,-1406.5 411,-1406.5"/>
<text text-anchor="start" x="418" y="-1417.9" font-family="Arial" font-size="14.00" fill="#000000">created_by    </text>
<text text-anchor="start" x="521.4516" y="-1417.9" font-family="Arial" font-size="14.00" fill="#666666">[TEXT]</text>
<polygon fill="none" stroke="#000000" points="411,-1376.5 411,-1406.5 687,-1406.5 687,-1376.5 411,-1376.5"/>
<text text-anchor="start" x="418" y="-1387.9" font-family="Arial" font-size="14.00" fill="#000000">updated_at    </text>
<text text-anchor="start" x="522.2468" y="-1387.9" font-family="Arial" font-size="14.00" fill="#666666">[TIMESTAMP]</text>
<polygon fill="none" stroke="#000000" points="411,-1346.5 411,-1376.5 687,-1376.5 687,-1346.5 411,-1346.5"/>
<text text-anchor="start" x="418" y="-1357.9" font-family="Arial" font-size="14.00" fill="#000000">updated_by    </text>
<text text-anchor="start" x="525.3562" y="-1357.9" font-family="Arial" font-size="14.00" fill="#666666">[TEXT]</text>
<polygon fill="none" stroke="#000000" points="411,-1316.5 411,-1346.5 687,-1346.5 687,-1316.5 411,-1316.5"/>
<text text-anchor="start" x="418" y="-1327.9" font-family="Arial" font-size="14.00" fill="#000000">deleted_at    </text>
<text text-anchor="start" x="517.5708" y="-1327.9" font-family="Arial" font-size="14.00" fill="#666666">[TIMESTAMP]</text>
<polygon fill="none" stroke="#000000" points="411,-1286.5 411,-1316.5 687,-1316.5 687,-1286.5 411,-1286.5"/>
<text text-anchor="start" x="418" y="-1297.9" font-family="Arial" font-size="14.00" fill="#000000">deleted_by    </text>
<text text-anchor="start" x="520.6802" y="-1297.9" font-family="Arial" font-size="14.00" fill="#666666">[TEXT]</text>
<polygon fill="none" stroke="#000000" points="411,-1256.5 411,-1286.5 687,-1286.5 687,-1256.5 411,-1256.5"/>
<text text-anchor="start" x="418" y="-1267.9" font-family="Arial" font-size="14.00" fill="#000000">activity_log    </text>
<text text-anchor="start" x="521.4362" y="-1267.9" font-family="Arial" font-size="14.00" fill="#666666">[TEXT]</text>
</g>
<!-- code_notebook_state&#45;&gt;code_notebook_cell -->
<g id="edge2" class="edge">
<title>code_notebook_state:code_notebook_cell_id&#45;&gt;code_notebook_cell:code_notebook_cell_id</title>
<path fill="none" stroke="#000000" d="M402.2032,-1656.5987C363.5297,-1610.1841 380.3493,-1248.9916 411,-1214 491.0588,-1122.6028 601.9412,-1269.3972 682,-1178 709.3812,-1146.7409 723.5556,-1084.5 682,-1084.5"/>
<polygon fill="#000000" stroke="#000000" points="402.2644,-1656.6328 408.8098,-1665.431 406.6322,-1659.0664 411,-1661.5 411,-1661.5 411,-1661.5 406.6322,-1659.0664 413.1902,-1657.569 402.2644,-1656.6328 402.2644,-1656.6328"/>
</g>
</g>
</svg>
