<?xml version="1.0" encoding="UTF-8" standalone="no"?>
<!DOCTYPE svg PUBLIC "-//W3C//DTD SVG 1.1//EN"
 "http://www.w3.org/Graphics/SVG/1.1/DTD/svg11.dtd">
<!-- Generated by graphviz version 2.40.1 (20161225.0304)
 -->
<!-- Title: orchestration_session_issue Pages: 1 -->
<svg width="1285pt" height="2227pt"
 viewBox="0.00 0.00 1285.00 2227.00" xmlns="http://www.w3.org/2000/svg" xmlns:xlink="http://www.w3.org/1999/xlink">
<g id="graph0" class="graph" transform="scale(1 1) rotate(0) translate(4 2223)">
<title>orchestration_session_issue</title>
<polygon fill="#ffffff" stroke="transparent" points="-4,4 -4,-2223 1281,-2223 1281,4 -4,4"/>
<!-- orchestration_session_issue -->
<g id="node1" class="node">
<title>orchestration_session_issue</title>
<polygon fill="#efefef" stroke="transparent" points="77,-1758.5 77,-1793.5 390,-1793.5 390,-1758.5 77,-1758.5"/>
<polygon fill="none" stroke="#000000" points="77,-1758.5 77,-1793.5 390,-1793.5 390,-1758.5 77,-1758.5"/>
<text text-anchor="start" x="83.8085" y="-1771.3" font-family="Arial Bold" font-size="18.00" fill="#000000">orchestration_session_issue</text>
<text text-anchor="start" x="310.8605" y="-1771.3" font-family="Arial" font-size="14.00" fill="#000000">    </text>
<text text-anchor="start" x="345.0653" y="-1771.3" font-family="Arial" font-size="14.00" fill="#666666">[table]</text>
<polygon fill="none" stroke="#000000" points="77,-1728.5 77,-1758.5 390,-1758.5 390,-1728.5 77,-1728.5"/>
<text text-anchor="start" x="84" y="-1739.9" font-family="Arial" font-size="14.00" fill="#000000">orchestration_session_issue_id </text>
<text text-anchor="start" x="283.1584" y="-1739.9" font-family="Arial" font-size="14.00" fill="#666666">[UUID]</text>
<polygon fill="none" stroke="#000000" points="77,-1698.5 77,-1728.5 390,-1728.5 390,-1698.5 77,-1698.5"/>
<text text-anchor="start" x="84" y="-1709.9" font-family="Arial" font-size="14.00" fill="#000000">session_id </text>
<text text-anchor="start" x="154.0168" y="-1709.9" font-family="Arial" font-size="14.00" fill="#666666">[VARCHAR]</text>
<polygon fill="none" stroke="#000000" points="77,-1668.5 77,-1698.5 390,-1698.5 390,-1668.5 77,-1668.5"/>
<text text-anchor="start" x="84" y="-1679.9" font-family="Arial" font-size="14.00" fill="#000000">session_entry_id </text>
<text text-anchor="start" x="192.9158" y="-1679.9" font-family="Arial" font-size="14.00" fill="#666666">[VARCHAR]</text>
<polygon fill="none" stroke="#000000" points="77,-1638.5 77,-1668.5 390,-1668.5 390,-1638.5 77,-1638.5"/>
<text text-anchor="start" x="84" y="-1649.9" font-family="Arial" font-size="14.00" fill="#000000">issue_type </text>
<text text-anchor="start" x="154.8008" y="-1649.9" font-family="Arial" font-size="14.00" fill="#666666">[TEXT]</text>
<polygon fill="none" stroke="#000000" points="77,-1608.5 77,-1638.5 390,-1638.5 390,-1608.5 77,-1608.5"/>
<text text-anchor="start" x="84" y="-1619.9" font-family="Arial" font-size="14.00" fill="#000000">issue_message </text>
<text text-anchor="start" x="185.136" y="-1619.9" font-family="Arial" font-size="14.00" fill="#666666">[TEXT]</text>
<polygon fill="none" stroke="#000000" points="77,-1578.5 77,-1608.5 390,-1608.5 390,-1578.5 77,-1578.5"/>
<text text-anchor="start" x="84" y="-1589.9" font-family="Arial" font-size="14.00" fill="#000000">issue_row </text>
<text text-anchor="start" x="150.8948" y="-1589.9" font-family="Arial" font-size="14.00" fill="#666666">[INTEGER]</text>
<polygon fill="none" stroke="#000000" points="77,-1548.5 77,-1578.5 390,-1578.5 390,-1548.5 77,-1548.5"/>
<text text-anchor="start" x="84" y="-1559.9" font-family="Arial" font-size="14.00" fill="#000000">issue_column </text>
<text text-anchor="start" x="173.46" y="-1559.9" font-family="Arial" font-size="14.00" fill="#666666">[TEXT]</text>
<polygon fill="none" stroke="#000000" points="77,-1518.5 77,-1548.5 390,-1548.5 390,-1518.5 77,-1518.5"/>
<text text-anchor="start" x="84" y="-1529.9" font-family="Arial" font-size="14.00" fill="#000000">invalid_value </text>
<text text-anchor="start" x="168.7952" y="-1529.9" font-family="Arial" font-size="14.00" fill="#666666">[TEXT]</text>
<polygon fill="none" stroke="#000000" points="77,-1488.5 77,-1518.5 390,-1518.5 390,-1488.5 77,-1488.5"/>
<text text-anchor="start" x="84" y="-1499.9" font-family="Arial" font-size="14.00" fill="#000000">remediation </text>
<text text-anchor="start" x="161.0112" y="-1499.9" font-family="Arial" font-size="14.00" fill="#666666">[TEXT]</text>
<polygon fill="none" stroke="#000000" points="77,-1458.5 77,-1488.5 390,-1488.5 390,-1458.5 77,-1458.5"/>
<text text-anchor="start" x="84" y="-1469.9" font-family="Arial" font-size="14.00" fill="#000000">elaboration </text>
<text text-anchor="start" x="157.1332" y="-1469.9" font-family="Arial" font-size="14.00" fill="#666666">[TEXT]</text>
<polygon fill="none" stroke="#000000" stroke-width="3" points="75,-1457.5 75,-1795.5 391,-1795.5 391,-1457.5 75,-1457.5"/>
</g>
<!-- orchestration_session -->
<g id="node3" class="node">
<title>orchestration_session</title>
<polygon fill="#efefef" stroke="transparent" points="583,-919.5 583,-954.5 862,-954.5 862,-919.5 583,-919.5"/>
<polygon fill="none" stroke="#000000" points="583,-919.5 583,-954.5 862,-954.5 862,-919.5 583,-919.5"/>
<text text-anchor="start" x="598.8149" y="-932.3" font-family="Arial Bold" font-size="18.00" fill="#000000">orchestration_session</text>
<text text-anchor="start" x="773.8541" y="-932.3" font-family="Arial" font-size="14.00" fill="#000000">    </text>
<text text-anchor="start" x="808.0589" y="-932.3" font-family="Arial" font-size="14.00" fill="#666666">[table]</text>
<polygon fill="none" stroke="#000000" points="583,-889.5 583,-919.5 862,-919.5 862,-889.5 583,-889.5"/>
<text text-anchor="start" x="589.8822" y="-900.9" font-family="Arial" font-size="14.00" fill="#000000">orchestration_session_id    </text>
<text text-anchor="start" x="778.9004" y="-900.9" font-family="Arial" font-size="14.00" fill="#666666">[VARCHAR]</text>
<polygon fill="none" stroke="#000000" points="583,-859.5 583,-889.5 862,-889.5 862,-859.5 583,-859.5"/>
<text text-anchor="start" x="590" y="-870.9" font-family="Arial" font-size="14.00" fill="#000000">device_id    </text>
<text text-anchor="start" x="683.331" y="-870.9" font-family="Arial" font-size="14.00" fill="#666666">[VARCHAR]</text>
<polygon fill="none" stroke="#000000" points="583,-829.5 583,-859.5 862,-859.5 862,-829.5 583,-829.5"/>
<text text-anchor="start" x="590" y="-840.9" font-family="Arial" font-size="14.00" fill="#000000">orchestration_nature_id    </text>
<text text-anchor="start" x="771.2454" y="-840.9" font-family="Arial" font-size="14.00" fill="#666666">[TEXT]</text>
<polygon fill="none" stroke="#000000" points="583,-799.5 583,-829.5 862,-829.5 862,-799.5 583,-799.5"/>
<text text-anchor="start" x="590" y="-810.9" font-family="Arial" font-size="14.00" fill="#000000">version    </text>
<text text-anchor="start" x="669.3198" y="-810.9" font-family="Arial" font-size="14.00" fill="#666666">[TEXT]</text>
<polygon fill="none" stroke="#000000" points="583,-769.5 583,-799.5 862,-799.5 862,-769.5 583,-769.5"/>
<text text-anchor="start" x="590" y="-780.9" font-family="Arial" font-size="14.00" fill="#000000">orch_started_at    </text>
<text text-anchor="start" x="721.4586" y="-780.9" font-family="Arial" font-size="14.00" fill="#666666">[TIMESTAMPTZ]</text>
<polygon fill="none" stroke="#000000" points="583,-739.5 583,-769.5 862,-769.5 862,-739.5 583,-739.5"/>
<text text-anchor="start" x="590" y="-750.9" font-family="Arial" font-size="14.00" fill="#000000">orch_finished_at    </text>
<text text-anchor="start" x="726.9032" y="-750.9" font-family="Arial" font-size="14.00" fill="#666666">[TIMESTAMPTZ]</text>
<polygon fill="none" stroke="#000000" points="583,-709.5 583,-739.5 862,-739.5 862,-709.5 583,-709.5"/>
<text text-anchor="start" x="590" y="-720.9" font-family="Arial" font-size="14.00" fill="#000000">elaboration    </text>
<text text-anchor="start" x="693.4474" y="-720.9" font-family="Arial" font-size="14.00" fill="#666666">[TEXT]</text>
<polygon fill="none" stroke="#000000" points="583,-679.5 583,-709.5 862,-709.5 862,-679.5 583,-679.5"/>
<text text-anchor="start" x="590" y="-690.9" font-family="Arial" font-size="14.00" fill="#000000">args_json    </text>
<text text-anchor="start" x="684.885" y="-690.9" font-family="Arial" font-size="14.00" fill="#666666">[TEXT]</text>
<polygon fill="none" stroke="#000000" points="583,-649.5 583,-679.5 862,-679.5 862,-649.5 583,-649.5"/>
<text text-anchor="start" x="590" y="-660.9" font-family="Arial" font-size="14.00" fill="#000000">diagnostics_json    </text>
<text text-anchor="start" x="727.676" y="-660.9" font-family="Arial" font-size="14.00" fill="#666666">[TEXT]</text>
<polygon fill="none" stroke="#000000" points="583,-619.5 583,-649.5 862,-649.5 862,-619.5 583,-619.5"/>
<text text-anchor="start" x="590" y="-630.9" font-family="Arial" font-size="14.00" fill="#000000">diagnostics_md    </text>
<text text-anchor="start" x="721.4474" y="-630.9" font-family="Arial" font-size="14.00" fill="#666666">[TEXT]</text>
</g>
<!-- orchestration_session_issue&#45;&gt;orchestration_session -->
<g id="edge2" class="edge">
<title>orchestration_session_issue:session_id&#45;&gt;orchestration_session:orchestration_session_id</title>
<path fill="none" stroke="#000000" d="M393.4586,-1703.8687C406.0746,-1622.281 388.8047,-1049.4968 397,-1034 444.0902,-944.9554 482.2706,-904.5 583,-904.5"/>
<polygon fill="#000000" stroke="#000000" points="393.3798,-1704.0884 385.7648,-1711.9791 391.6899,-1708.7942 390,-1713.5 390,-1713.5 390,-1713.5 391.6899,-1708.7942 394.2352,-1715.0209 393.3798,-1704.0884 393.3798,-1704.0884"/>
</g>
<!-- orchestration_session_entry -->
<g id="node4" class="node">
<title>orchestration_session_entry</title>
<polygon fill="#efefef" stroke="transparent" points="449,-1226.5 449,-1261.5 767,-1261.5 767,-1226.5 449,-1226.5"/>
<polygon fill="none" stroke="#000000" points="449,-1226.5 449,-1261.5 767,-1261.5 767,-1226.5 449,-1226.5"/>
<text text-anchor="start" x="459.3084" y="-1239.3" font-family="Arial Bold" font-size="18.00" fill="#000000">orchestration_session_entry</text>
<text text-anchor="start" x="684.3606" y="-1239.3" font-family="Arial" font-size="14.00" fill="#000000">    </text>
<text text-anchor="start" x="718.5654" y="-1239.3" font-family="Arial" font-size="14.00" fill="#666666">[table]</text>
<polygon fill="none" stroke="#000000" points="449,-1196.5 449,-1226.5 767,-1226.5 767,-1196.5 449,-1196.5"/>
<text text-anchor="start" x="455.9327" y="-1207.9" font-family="Arial" font-size="14.00" fill="#000000">orchestration_session_entry_id    </text>
<text text-anchor="start" x="683.8499" y="-1207.9" font-family="Arial" font-size="14.00" fill="#666666">[VARCHAR]</text>
<polygon fill="none" stroke="#000000" points="449,-1166.5 449,-1196.5 767,-1196.5 767,-1166.5 449,-1166.5"/>
<text text-anchor="start" x="456" y="-1177.9" font-family="Arial" font-size="14.00" fill="#000000">session_id    </text>
<text text-anchor="start" x="556.331" y="-1177.9" font-family="Arial" font-size="14.00" fill="#666666">[VARCHAR]</text>
<polygon fill="none" stroke="#000000" points="449,-1136.5 449,-1166.5 767,-1166.5 767,-1136.5 449,-1136.5"/>
<text text-anchor="start" x="456" y="-1147.9" font-family="Arial" font-size="14.00" fill="#000000">ingest_src    </text>
<text text-anchor="start" x="553.993" y="-1147.9" font-family="Arial" font-size="14.00" fill="#666666">[TEXT]</text>
<polygon fill="none" stroke="#000000" points="449,-1106.5 449,-1136.5 767,-1136.5 767,-1106.5 449,-1106.5"/>
<text text-anchor="start" x="456" y="-1117.9" font-family="Arial" font-size="14.00" fill="#000000">ingest_table_name    </text>
<text text-anchor="start" x="608.4684" y="-1117.9" font-family="Arial" font-size="14.00" fill="#666666">[TEXT]</text>
<polygon fill="none" stroke="#000000" points="449,-1076.5 449,-1106.5 767,-1106.5 767,-1076.5 449,-1076.5"/>
<text text-anchor="start" x="456" y="-1087.9" font-family="Arial" font-size="14.00" fill="#000000">elaboration    </text>
<text text-anchor="start" x="559.4474" y="-1087.9" font-family="Arial" font-size="14.00" fill="#666666">[TEXT]</text>
</g>
<!-- orchestration_session_issue&#45;&gt;orchestration_session_entry -->
<g id="edge8" class="edge">
<title>orchestration_session_issue:session_entry_id&#45;&gt;orchestration_session_entry:orchestration_session_entry_id</title>
<path fill="none" stroke="#000000" d="M399.9549,-1681.8835C485.588,-1651.7858 346.9078,-1211.5 449,-1211.5"/>
<polygon fill="#000000" stroke="#000000" points="399.8707,-1681.897 389.2787,-1679.0582 394.9354,-1682.6985 390,-1683.5 390,-1683.5 390,-1683.5 394.9354,-1682.6985 390.7213,-1687.9418 399.8707,-1681.897 399.8707,-1681.897"/>
</g>
<!-- orchestration_session_issue_relation -->
<g id="node2" class="node">
<title>orchestration_session_issue_relation</title>
<polygon fill="#efefef" stroke="transparent" points="43,-2140.5 43,-2175.5 425,-2175.5 425,-2140.5 43,-2140.5"/>
<polygon fill="none" stroke="#000000" points="43,-2140.5 43,-2175.5 425,-2175.5 425,-2140.5 43,-2140.5"/>
<text text-anchor="start" x="49.8016" y="-2153.3" font-family="Arial Bold" font-size="18.00" fill="#000000">orchestration_session_issue_relation</text>
<text text-anchor="start" x="345.8674" y="-2153.3" font-family="Arial" font-size="14.00" fill="#000000">    </text>
<text text-anchor="start" x="380.0722" y="-2153.3" font-family="Arial" font-size="14.00" fill="#666666">[table]</text>
<polygon fill="none" stroke="#000000" points="43,-2110.5 43,-2140.5 425,-2140.5 425,-2110.5 43,-2110.5"/>
<text text-anchor="start" x="50" y="-2121.9" font-family="Arial" font-size="14.00" fill="#000000">orchestration_session_issue_relation_id    </text>
<text text-anchor="start" x="333.15" y="-2121.9" font-family="Arial" font-size="14.00" fill="#666666">[UUID]</text>
<polygon fill="none" stroke="#000000" points="43,-2080.5 43,-2110.5 425,-2110.5 425,-2080.5 43,-2080.5"/>
<text text-anchor="start" x="50" y="-2091.9" font-family="Arial" font-size="14.00" fill="#000000">issue_id_prime    </text>
<text text-anchor="start" x="178.324" y="-2091.9" font-family="Arial" font-size="14.00" fill="#666666">[UUID]</text>
<polygon fill="none" stroke="#000000" points="43,-2050.5 43,-2080.5 425,-2080.5 425,-2050.5 43,-2050.5"/>
<text text-anchor="start" x="50" y="-2061.9" font-family="Arial" font-size="14.00" fill="#000000">issue_id_rel    </text>
<text text-anchor="start" x="158.8808" y="-2061.9" font-family="Arial" font-size="14.00" fill="#666666">[TEXT]</text>
<polygon fill="none" stroke="#000000" points="43,-2020.5 43,-2050.5 425,-2050.5 425,-2020.5 43,-2020.5"/>
<text text-anchor="start" x="50" y="-2031.9" font-family="Arial" font-size="14.00" fill="#000000">relationship_nature    </text>
<text text-anchor="start" x="203.2356" y="-2031.9" font-family="Arial" font-size="14.00" fill="#666666">[TEXT]</text>
<polygon fill="none" stroke="#000000" points="43,-1990.5 43,-2020.5 425,-2020.5 425,-1990.5 43,-1990.5"/>
<text text-anchor="start" x="50" y="-2001.9" font-family="Arial" font-size="14.00" fill="#000000">elaboration    </text>
<text text-anchor="start" x="153.4474" y="-2001.9" font-family="Arial" font-size="14.00" fill="#666666">[TEXT]</text>
</g>
<!-- orchestration_session_issue_relation&#45;&gt;orchestration_session_issue -->
<g id="edge1" class="edge">
<title>orchestration_session_issue_relation:issue_id_prime&#45;&gt;orchestration_session_issue:orchestration_session_issue_id</title>
<path fill="none" stroke="#000000" d="M32.734,-2094.6133C-19.4926,-2084.9062 6.3398,-1997.8048 43,-1948 138.7485,-1817.9204 294.2515,-1970.0796 390,-1840 415.4245,-1805.4594 432.8889,-1743.5 390,-1743.5"/>
<polygon fill="#000000" stroke="#000000" points="33.0371,-2094.6394 42.6127,-2099.9833 38.0185,-2095.0697 43,-2095.5 43,-2095.5 43,-2095.5 38.0185,-2095.0697 43.3873,-2091.0167 33.0371,-2094.6394 33.0371,-2094.6394"/>
</g>
<!-- device -->
<g id="node7" class="node">
<title>device</title>
<polygon fill="#efefef" stroke="transparent" points="440,-462.5 440,-497.5 664,-497.5 664,-462.5 440,-462.5"/>
<polygon fill="none" stroke="#000000" points="440,-462.5 440,-497.5 664,-497.5 664,-462.5 440,-462.5"/>
<text text-anchor="start" x="489.8281" y="-475.3" font-family="Arial Bold" font-size="18.00" fill="#000000">device</text>
<text text-anchor="start" x="541.8409" y="-475.3" font-family="Arial" font-size="14.00" fill="#000000">    </text>
<text text-anchor="start" x="576.0457" y="-475.3" font-family="Arial" font-size="14.00" fill="#666666">[table]</text>
<polygon fill="none" stroke="#000000" points="440,-432.5 440,-462.5 664,-462.5 664,-432.5 440,-432.5"/>
<text text-anchor="start" x="447" y="-443.9" font-family="Arial" font-size="14.00" fill="#000000">device_id    </text>
<text text-anchor="start" x="540.331" y="-443.9" font-family="Arial" font-size="14.00" fill="#666666">[VARCHAR]</text>
<polygon fill="none" stroke="#000000" points="440,-402.5 440,-432.5 664,-432.5 664,-402.5 440,-402.5"/>
<text text-anchor="start" x="447" y="-413.9" font-family="Arial" font-size="14.00" fill="#000000">name    </text>
<text text-anchor="start" x="516.2132" y="-413.9" font-family="Arial" font-size="14.00" fill="#666666">[TEXT]</text>
<polygon fill="none" stroke="#000000" points="440,-372.5 440,-402.5 664,-402.5 664,-372.5 440,-372.5"/>
<text text-anchor="start" x="447" y="-383.9" font-family="Arial" font-size="14.00" fill="#000000">state    </text>
<text text-anchor="start" x="511.5512" y="-383.9" font-family="Arial" font-size="14.00" fill="#666666">[TEXT]</text>
<polygon fill="none" stroke="#000000" points="440,-342.5 440,-372.5 664,-372.5 664,-342.5 440,-342.5"/>
<text text-anchor="start" x="447" y="-353.9" font-family="Arial" font-size="14.00" fill="#000000">boundary    </text>
<text text-anchor="start" x="539.561" y="-353.9" font-family="Arial" font-size="14.00" fill="#666666">[TEXT]</text>
<polygon fill="none" stroke="#000000" points="440,-312.5 440,-342.5 664,-342.5 664,-312.5 440,-312.5"/>
<text text-anchor="start" x="447" y="-323.9" font-family="Arial" font-size="14.00" fill="#000000">segmentation    </text>
<text text-anchor="start" x="565.2314" y="-323.9" font-family="Arial" font-size="14.00" fill="#666666">[TEXT]</text>
<polygon fill="none" stroke="#000000" points="440,-282.5 440,-312.5 664,-312.5 664,-282.5 440,-282.5"/>
<text text-anchor="start" x="447" y="-293.9" font-family="Arial" font-size="14.00" fill="#000000">state_sysinfo    </text>
<text text-anchor="start" x="562.8962" y="-293.9" font-family="Arial" font-size="14.00" fill="#666666">[TEXT]</text>
<polygon fill="none" stroke="#000000" points="440,-252.5 440,-282.5 664,-282.5 664,-252.5 440,-252.5"/>
<text text-anchor="start" x="447" y="-263.9" font-family="Arial" font-size="14.00" fill="#000000">elaboration    </text>
<text text-anchor="start" x="550.4474" y="-263.9" font-family="Arial" font-size="14.00" fill="#666666">[TEXT]</text>
<polygon fill="none" stroke="#000000" points="440,-222.5 440,-252.5 664,-252.5 664,-222.5 440,-222.5"/>
<text text-anchor="start" x="447" y="-233.9" font-family="Arial" font-size="14.00" fill="#000000">created_at    </text>
<text text-anchor="start" x="547.3422" y="-233.9" font-family="Arial" font-size="14.00" fill="#666666">[TIMESTAMPTZ]</text>
<polygon fill="none" stroke="#000000" points="440,-192.5 440,-222.5 664,-222.5 664,-192.5 440,-192.5"/>
<text text-anchor="start" x="447" y="-203.9" font-family="Arial" font-size="14.00" fill="#000000">created_by    </text>
<text text-anchor="start" x="550.4516" y="-203.9" font-family="Arial" font-size="14.00" fill="#666666">[TEXT]</text>
<polygon fill="none" stroke="#000000" points="440,-162.5 440,-192.5 664,-192.5 664,-162.5 440,-162.5"/>
<text text-anchor="start" x="446.6017" y="-173.9" font-family="Arial" font-size="14.00" fill="#000000">updated_at    </text>
<text text-anchor="start" x="550.8485" y="-173.9" font-family="Arial" font-size="14.00" fill="#666666">[TIMESTAMPTZ]</text>
<polygon fill="none" stroke="#000000" points="440,-132.5 440,-162.5 664,-162.5 664,-132.5 440,-132.5"/>
<text text-anchor="start" x="447" y="-143.9" font-family="Arial" font-size="14.00" fill="#000000">updated_by    </text>
<text text-anchor="start" x="554.3562" y="-143.9" font-family="Arial" font-size="14.00" fill="#666666">[TEXT]</text>
<polygon fill="none" stroke="#000000" points="440,-102.5 440,-132.5 664,-132.5 664,-102.5 440,-102.5"/>
<text text-anchor="start" x="447" y="-113.9" font-family="Arial" font-size="14.00" fill="#000000">deleted_at    </text>
<text text-anchor="start" x="546.5708" y="-113.9" font-family="Arial" font-size="14.00" fill="#666666">[TIMESTAMPTZ]</text>
<polygon fill="none" stroke="#000000" points="440,-72.5 440,-102.5 664,-102.5 664,-72.5 440,-72.5"/>
<text text-anchor="start" x="447" y="-83.9" font-family="Arial" font-size="14.00" fill="#000000">deleted_by    </text>
<text text-anchor="start" x="549.6802" y="-83.9" font-family="Arial" font-size="14.00" fill="#666666">[TEXT]</text>
<polygon fill="none" stroke="#000000" points="440,-42.5 440,-72.5 664,-72.5 664,-42.5 440,-42.5"/>
<text text-anchor="start" x="447" y="-53.9" font-family="Arial" font-size="14.00" fill="#000000">activity_log    </text>
<text text-anchor="start" x="550.4362" y="-53.9" font-family="Arial" font-size="14.00" fill="#666666">[TEXT]</text>
</g>
<!-- orchestration_session&#45;&gt;device -->
<g id="edge6" class="edge">
<title>orchestration_session:device_id&#45;&gt;device:device_id</title>
<path fill="none" stroke="#000000" d="M572.939,-874.1156C453.9592,-864.7107 512.8501,-684.944 583,-577 604.4671,-543.9672 642.5329,-574.0328 664,-541 686.6442,-506.156 705.5556,-447.5 664,-447.5"/>
<polygon fill="#000000" stroke="#000000" points="573.0073,-874.1181 582.8281,-878.9967 578.0036,-874.309 583,-874.5 583,-874.5 583,-874.5 578.0036,-874.309 583.1719,-870.0033 573.0073,-874.1181 573.0073,-874.1181"/>
</g>
<!-- orchestration_nature -->
<g id="node8" class="node">
<title>orchestration_nature</title>
<polygon fill="#efefef" stroke="transparent" points="769,-402.5 769,-437.5 1020,-437.5 1020,-402.5 769,-402.5"/>
<polygon fill="none" stroke="#000000" points="769,-402.5 769,-437.5 1020,-437.5 1020,-402.5 769,-402.5"/>
<text text-anchor="start" x="775.8117" y="-415.3" font-family="Arial Bold" font-size="18.00" fill="#000000">orchestration_nature</text>
<text text-anchor="start" x="940.8573" y="-415.3" font-family="Arial" font-size="14.00" fill="#000000">    </text>
<text text-anchor="start" x="975.0621" y="-415.3" font-family="Arial" font-size="14.00" fill="#666666">[table]</text>
<polygon fill="none" stroke="#000000" points="769,-372.5 769,-402.5 1020,-402.5 1020,-372.5 769,-372.5"/>
<text text-anchor="start" x="776" y="-383.9" font-family="Arial" font-size="14.00" fill="#000000">orchestration_nature_id    </text>
<text text-anchor="start" x="957.2454" y="-383.9" font-family="Arial" font-size="14.00" fill="#666666">[TEXT]</text>
<polygon fill="none" stroke="#000000" points="769,-342.5 769,-372.5 1020,-372.5 1020,-342.5 769,-342.5"/>
<text text-anchor="start" x="776" y="-353.9" font-family="Arial" font-size="14.00" fill="#000000">nature    </text>
<text text-anchor="start" x="849.8864" y="-353.9" font-family="Arial" font-size="14.00" fill="#666666">[TEXT]</text>
<polygon fill="none" stroke="#000000" points="769,-312.5 769,-342.5 1020,-342.5 1020,-312.5 769,-312.5"/>
<text text-anchor="start" x="776" y="-323.9" font-family="Arial" font-size="14.00" fill="#000000">elaboration    </text>
<text text-anchor="start" x="879.4474" y="-323.9" font-family="Arial" font-size="14.00" fill="#666666">[TEXT]</text>
<polygon fill="none" stroke="#000000" points="769,-282.5 769,-312.5 1020,-312.5 1020,-282.5 769,-282.5"/>
<text text-anchor="start" x="776" y="-293.9" font-family="Arial" font-size="14.00" fill="#000000">created_at    </text>
<text text-anchor="start" x="876.3422" y="-293.9" font-family="Arial" font-size="14.00" fill="#666666">[TIMESTAMPTZ]</text>
<polygon fill="none" stroke="#000000" points="769,-252.5 769,-282.5 1020,-282.5 1020,-252.5 769,-252.5"/>
<text text-anchor="start" x="776" y="-263.9" font-family="Arial" font-size="14.00" fill="#000000">created_by    </text>
<text text-anchor="start" x="879.4516" y="-263.9" font-family="Arial" font-size="14.00" fill="#666666">[TEXT]</text>
<polygon fill="none" stroke="#000000" points="769,-222.5 769,-252.5 1020,-252.5 1020,-222.5 769,-222.5"/>
<text text-anchor="start" x="776" y="-233.9" font-family="Arial" font-size="14.00" fill="#000000">updated_at    </text>
<text text-anchor="start" x="880.2468" y="-233.9" font-family="Arial" font-size="14.00" fill="#666666">[TIMESTAMPTZ]</text>
<polygon fill="none" stroke="#000000" points="769,-192.5 769,-222.5 1020,-222.5 1020,-192.5 769,-192.5"/>
<text text-anchor="start" x="776" y="-203.9" font-family="Arial" font-size="14.00" fill="#000000">updated_by    </text>
<text text-anchor="start" x="883.3562" y="-203.9" font-family="Arial" font-size="14.00" fill="#666666">[TEXT]</text>
<polygon fill="none" stroke="#000000" points="769,-162.5 769,-192.5 1020,-192.5 1020,-162.5 769,-162.5"/>
<text text-anchor="start" x="776" y="-173.9" font-family="Arial" font-size="14.00" fill="#000000">deleted_at    </text>
<text text-anchor="start" x="875.5708" y="-173.9" font-family="Arial" font-size="14.00" fill="#666666">[TIMESTAMPTZ]</text>
<polygon fill="none" stroke="#000000" points="769,-132.5 769,-162.5 1020,-162.5 1020,-132.5 769,-132.5"/>
<text text-anchor="start" x="776" y="-143.9" font-family="Arial" font-size="14.00" fill="#000000">deleted_by    </text>
<text text-anchor="start" x="878.6802" y="-143.9" font-family="Arial" font-size="14.00" fill="#666666">[TEXT]</text>
<polygon fill="none" stroke="#000000" points="769,-102.5 769,-132.5 1020,-132.5 1020,-102.5 769,-102.5"/>
<text text-anchor="start" x="776" y="-113.9" font-family="Arial" font-size="14.00" fill="#000000">activity_log    </text>
<text text-anchor="start" x="879.4362" y="-113.9" font-family="Arial" font-size="14.00" fill="#666666">[TEXT]</text>
</g>
<!-- orchestration_session&#45;&gt;orchestration_nature -->
<g id="edge7" class="edge">
<title>orchestration_session:orchestration_nature_id&#45;&gt;orchestration_nature:orchestration_nature_id</title>
<path fill="none" stroke="#000000" d="M872.2726,-844.0732C976.4195,-835.0189 905.2728,-683.8606 862,-577 839.7032,-521.9388 791.2968,-536.0612 769,-481 753.4026,-442.4827 727.4444,-387.5 769,-387.5"/>
<polygon fill="#000000" stroke="#000000" points="871.9914,-844.0848 861.8131,-840.0039 866.9957,-844.2924 862,-844.5 862,-844.5 862,-844.5 866.9957,-844.2924 862.1869,-848.9961 871.9914,-844.0848 871.9914,-844.0848"/>
</g>
<!-- orchestration_session_entry&#45;&gt;orchestration_session -->
<g id="edge3" class="edge">
<title>orchestration_session_entry:session_id&#45;&gt;orchestration_session:orchestration_session_id</title>
<path fill="none" stroke="#000000" d="M776.9644,-1180.6541C829.8896,-1171.041 806.3888,-1081.8421 767,-1034 714.0361,-969.6694 635.9639,-1062.3306 583,-998 556.5871,-965.9185 541.4444,-904.5 583,-904.5"/>
<polygon fill="#000000" stroke="#000000" points="776.9642,-1180.654 766.6193,-1177.0161 771.9821,-1181.077 767,-1181.5 767,-1181.5 767,-1181.5 771.9821,-1181.077 767.3807,-1185.9839 776.9642,-1180.654 776.9642,-1180.654"/>
</g>
<!-- orchestration_session_state -->
<g id="node5" class="node">
<title>orchestration_session_state</title>
<polygon fill="#efefef" stroke="transparent" points="497,-1743.5 497,-1778.5 814,-1778.5 814,-1743.5 497,-1743.5"/>
<polygon fill="none" stroke="#000000" points="497,-1743.5 497,-1778.5 814,-1778.5 814,-1743.5 497,-1743.5"/>
<text text-anchor="start" x="507.3034" y="-1756.3" font-family="Arial Bold" font-size="18.00" fill="#000000">orchestration_session_state</text>
<text text-anchor="start" x="731.3656" y="-1756.3" font-family="Arial" font-size="14.00" fill="#000000">    </text>
<text text-anchor="start" x="765.5704" y="-1756.3" font-family="Arial" font-size="14.00" fill="#666666">[table]</text>
<polygon fill="none" stroke="#000000" points="497,-1713.5 497,-1743.5 814,-1743.5 814,-1713.5 497,-1713.5"/>
<text text-anchor="start" x="503.8177" y="-1724.9" font-family="Arial" font-size="14.00" fill="#000000">orchestration_session_state_id    </text>
<text text-anchor="start" x="730.9649" y="-1724.9" font-family="Arial" font-size="14.00" fill="#666666">[VARCHAR]</text>
<polygon fill="none" stroke="#000000" points="497,-1683.5 497,-1713.5 814,-1713.5 814,-1683.5 497,-1683.5"/>
<text text-anchor="start" x="504" y="-1694.9" font-family="Arial" font-size="14.00" fill="#000000">session_id    </text>
<text text-anchor="start" x="604.331" y="-1694.9" font-family="Arial" font-size="14.00" fill="#666666">[VARCHAR]</text>
<polygon fill="none" stroke="#000000" points="497,-1653.5 497,-1683.5 814,-1683.5 814,-1653.5 497,-1653.5"/>
<text text-anchor="start" x="504" y="-1664.9" font-family="Arial" font-size="14.00" fill="#000000">session_entry_id    </text>
<text text-anchor="start" x="643.23" y="-1664.9" font-family="Arial" font-size="14.00" fill="#666666">[VARCHAR]</text>
<polygon fill="none" stroke="#000000" points="497,-1623.5 497,-1653.5 814,-1653.5 814,-1623.5 497,-1623.5"/>
<text text-anchor="start" x="504" y="-1634.9" font-family="Arial" font-size="14.00" fill="#000000">from_state    </text>
<text text-anchor="start" x="604.3282" y="-1634.9" font-family="Arial" font-size="14.00" fill="#666666">[TEXT]</text>
<polygon fill="none" stroke="#000000" points="497,-1593.5 497,-1623.5 814,-1623.5 814,-1593.5 497,-1593.5"/>
<text text-anchor="start" x="504" y="-1604.9" font-family="Arial" font-size="14.00" fill="#000000">to_state    </text>
<text text-anchor="start" x="588.007" y="-1604.9" font-family="Arial" font-size="14.00" fill="#666666">[TEXT]</text>
<polygon fill="none" stroke="#000000" points="497,-1563.5 497,-1593.5 814,-1593.5 814,-1563.5 497,-1563.5"/>
<text text-anchor="start" x="504" y="-1574.9" font-family="Arial" font-size="14.00" fill="#000000">transition_result    </text>
<text text-anchor="start" x="636.9958" y="-1574.9" font-family="Arial" font-size="14.00" fill="#666666">[TEXT]</text>
<polygon fill="none" stroke="#000000" points="497,-1533.5 497,-1563.5 814,-1563.5 814,-1533.5 497,-1533.5"/>
<text text-anchor="start" x="504" y="-1544.9" font-family="Arial" font-size="14.00" fill="#000000">transition_reason    </text>
<text text-anchor="start" x="645.5638" y="-1544.9" font-family="Arial" font-size="14.00" fill="#666666">[TEXT]</text>
<polygon fill="none" stroke="#000000" points="497,-1503.5 497,-1533.5 814,-1533.5 814,-1503.5 497,-1503.5"/>
<text text-anchor="start" x="504" y="-1514.9" font-family="Arial" font-size="14.00" fill="#000000">transitioned_at    </text>
<text text-anchor="start" x="630.0112" y="-1514.9" font-family="Arial" font-size="14.00" fill="#666666">[TIMESTAMPTZ]</text>
<polygon fill="none" stroke="#000000" points="497,-1473.5 497,-1503.5 814,-1503.5 814,-1473.5 497,-1473.5"/>
<text text-anchor="start" x="504" y="-1484.9" font-family="Arial" font-size="14.00" fill="#000000">elaboration    </text>
<text text-anchor="start" x="607.4474" y="-1484.9" font-family="Arial" font-size="14.00" fill="#666666">[TEXT]</text>
</g>
<!-- orchestration_session_state&#45;&gt;orchestration_session -->
<g id="edge4" class="edge">
<title>orchestration_session_state:session_id&#45;&gt;orchestration_session:orchestration_session_id</title>
<path fill="none" stroke="#000000" d="M818.4963,-1689.3084C841.9071,-1600.8985 882.6933,-904.5 862,-904.5"/>
<polygon fill="#000000" stroke="#000000" points="818.3942,-1689.5172 809.9577,-1696.5226 816.1971,-1694.0086 814,-1698.5 814,-1698.5 814,-1698.5 816.1971,-1694.0086 818.0423,-1700.4774 818.3942,-1689.5172 818.3942,-1689.5172"/>
</g>
<!-- orchestration_session_state&#45;&gt;orchestration_session_entry -->
<g id="edge9" class="edge">
<title>orchestration_session_state:session_entry_id&#45;&gt;orchestration_session_entry:orchestration_session_entry_id</title>
<path fill="none" stroke="#000000" d="M486.9868,-1665.7565C447.6766,-1642.0957 470.6425,-1472.3864 497,-1431 568.1347,-1319.3046 695.8653,-1416.6954 767,-1305 789.3226,-1269.9491 808.5556,-1211.5 767,-1211.5"/>
<polygon fill="#000000" stroke="#000000" points="487.3555,-1665.8574 495.8108,-1672.84 492.1777,-1667.1787 497,-1668.5 497,-1668.5 497,-1668.5 492.1777,-1667.1787 498.1892,-1664.16 487.3555,-1665.8574 487.3555,-1665.8574"/>
</g>
<!-- orchestration_session_exec -->
<g id="node6" class="node">
<title>orchestration_session_exec</title>
<polygon fill="#efefef" stroke="transparent" points="918,-1833.5 918,-1868.5 1234,-1868.5 1234,-1833.5 918,-1833.5"/>
<polygon fill="none" stroke="#000000" points="918,-1833.5 918,-1868.5 1234,-1868.5 1234,-1833.5 918,-1833.5"/>
<text text-anchor="start" x="928.3056" y="-1846.3" font-family="Arial Bold" font-size="18.00" fill="#000000">orchestration_session_exec</text>
<text text-anchor="start" x="1151.3634" y="-1846.3" font-family="Arial" font-size="14.00" fill="#000000">    </text>
<text text-anchor="start" x="1185.5682" y="-1846.3" font-family="Arial" font-size="14.00" fill="#666666">[table]</text>
<polygon fill="none" stroke="#000000" points="918,-1803.5 918,-1833.5 1234,-1833.5 1234,-1803.5 918,-1803.5"/>
<text text-anchor="start" x="924.7083" y="-1814.9" font-family="Arial" font-size="14.00" fill="#000000">orchestration_session_exec_id    </text>
<text text-anchor="start" x="1151.0743" y="-1814.9" font-family="Arial" font-size="14.00" fill="#666666">[VARCHAR]</text>
<polygon fill="none" stroke="#000000" points="918,-1773.5 918,-1803.5 1234,-1803.5 1234,-1773.5 918,-1773.5"/>
<text text-anchor="start" x="925" y="-1784.9" font-family="Arial" font-size="14.00" fill="#000000">exec_nature    </text>
<text text-anchor="start" x="1036.2342" y="-1784.9" font-family="Arial" font-size="14.00" fill="#666666">[TEXT]</text>
<polygon fill="none" stroke="#000000" points="918,-1743.5 918,-1773.5 1234,-1773.5 1234,-1743.5 918,-1743.5"/>
<text text-anchor="start" x="925" y="-1754.9" font-family="Arial" font-size="14.00" fill="#000000">session_id    </text>
<text text-anchor="start" x="1025.331" y="-1754.9" font-family="Arial" font-size="14.00" fill="#666666">[VARCHAR]</text>
<polygon fill="none" stroke="#000000" points="918,-1713.5 918,-1743.5 1234,-1743.5 1234,-1713.5 918,-1713.5"/>
<text text-anchor="start" x="925" y="-1724.9" font-family="Arial" font-size="14.00" fill="#000000">session_entry_id    </text>
<text text-anchor="start" x="1064.23" y="-1724.9" font-family="Arial" font-size="14.00" fill="#666666">[VARCHAR]</text>
<polygon fill="none" stroke="#000000" points="918,-1683.5 918,-1713.5 1234,-1713.5 1234,-1683.5 918,-1683.5"/>
<text text-anchor="start" x="925" y="-1694.9" font-family="Arial" font-size="14.00" fill="#000000">parent_exec_id    </text>
<text text-anchor="start" x="1054.906" y="-1694.9" font-family="Arial" font-size="14.00" fill="#666666">[VARCHAR]</text>
<polygon fill="none" stroke="#000000" points="918,-1653.5 918,-1683.5 1234,-1683.5 1234,-1653.5 918,-1653.5"/>
<text text-anchor="start" x="925" y="-1664.9" font-family="Arial" font-size="14.00" fill="#000000">namespace    </text>
<text text-anchor="start" x="1031.561" y="-1664.9" font-family="Arial" font-size="14.00" fill="#666666">[TEXT]</text>
<polygon fill="none" stroke="#000000" points="918,-1623.5 918,-1653.5 1234,-1653.5 1234,-1623.5 918,-1623.5"/>
<text text-anchor="start" x="925" y="-1634.9" font-family="Arial" font-size="14.00" fill="#000000">exec_identity    </text>
<text text-anchor="start" x="1040.8948" y="-1634.9" font-family="Arial" font-size="14.00" fill="#666666">[TEXT]</text>
<polygon fill="none" stroke="#000000" points="918,-1593.5 918,-1623.5 1234,-1623.5 1234,-1593.5 918,-1593.5"/>
<text text-anchor="start" x="925" y="-1604.9" font-family="Arial" font-size="14.00" fill="#000000">exec_code    </text>
<text text-anchor="start" x="1026.9004" y="-1604.9" font-family="Arial" font-size="14.00" fill="#666666">[TEXT]</text>
<polygon fill="none" stroke="#000000" points="918,-1563.5 918,-1593.5 1234,-1593.5 1234,-1563.5 918,-1563.5"/>
<text text-anchor="start" x="925" y="-1574.9" font-family="Arial" font-size="14.00" fill="#000000">exec_status    </text>
<text text-anchor="start" x="1033.899" y="-1574.9" font-family="Arial" font-size="14.00" fill="#666666">[INTEGER]</text>
<polygon fill="none" stroke="#000000" points="918,-1533.5 918,-1563.5 1234,-1563.5 1234,-1533.5 918,-1533.5"/>
<text text-anchor="start" x="925" y="-1544.9" font-family="Arial" font-size="14.00" fill="#000000">input_text    </text>
<text text-anchor="start" x="1019.8962" y="-1544.9" font-family="Arial" font-size="14.00" fill="#666666">[TEXT]</text>
<polygon fill="none" stroke="#000000" points="918,-1503.5 918,-1533.5 1234,-1533.5 1234,-1503.5 918,-1503.5"/>
<text text-anchor="start" x="925" y="-1514.9" font-family="Arial" font-size="14.00" fill="#000000">exec_error_text    </text>
<text text-anchor="start" x="1056.446" y="-1514.9" font-family="Arial" font-size="14.00" fill="#666666">[TEXT]</text>
<polygon fill="none" stroke="#000000" points="918,-1473.5 918,-1503.5 1234,-1503.5 1234,-1473.5 918,-1473.5"/>
<text text-anchor="start" x="925" y="-1484.9" font-family="Arial" font-size="14.00" fill="#000000">output_text    </text>
<text text-anchor="start" x="1028.4628" y="-1484.9" font-family="Arial" font-size="14.00" fill="#666666">[TEXT]</text>
<polygon fill="none" stroke="#000000" points="918,-1443.5 918,-1473.5 1234,-1473.5 1234,-1443.5 918,-1443.5"/>
<text text-anchor="start" x="925" y="-1454.9" font-family="Arial" font-size="14.00" fill="#000000">output_nature    </text>
<text text-anchor="start" x="1045.5806" y="-1454.9" font-family="Arial" font-size="14.00" fill="#666666">[TEXT]</text>
<polygon fill="none" stroke="#000000" points="918,-1413.5 918,-1443.5 1234,-1443.5 1234,-1413.5 918,-1413.5"/>
<text text-anchor="start" x="925" y="-1424.9" font-family="Arial" font-size="14.00" fill="#000000">narrative_md    </text>
<text text-anchor="start" x="1040.8794" y="-1424.9" font-family="Arial" font-size="14.00" fill="#666666">[TEXT]</text>
<polygon fill="none" stroke="#000000" points="918,-1383.5 918,-1413.5 1234,-1413.5 1234,-1383.5 918,-1383.5"/>
<text text-anchor="start" x="925" y="-1394.9" font-family="Arial" font-size="14.00" fill="#000000">elaboration    </text>
<text text-anchor="start" x="1028.4474" y="-1394.9" font-family="Arial" font-size="14.00" fill="#666666">[TEXT]</text>
</g>
<!-- orchestration_session_exec&#45;&gt;orchestration_session -->
<g id="edge5" class="edge">
<title>orchestration_session_exec:session_id&#45;&gt;orchestration_session:orchestration_session_id</title>
<path fill="none" stroke="#000000" d="M908.3373,-1755.0591C832.5507,-1696.2932 953.5638,-904.5 862,-904.5"/>
<polygon fill="#000000" stroke="#000000" points="908.5795,-1755.1453 916.4904,-1762.7392 913.2897,-1756.8227 918,-1758.5 918,-1758.5 918,-1758.5 913.2897,-1756.8227 919.5096,-1754.2608 908.5795,-1755.1453 908.5795,-1755.1453"/>
</g>
<!-- orchestration_session_exec&#45;&gt;orchestration_session_entry -->
<g id="edge10" class="edge">
<title>orchestration_session_exec:session_entry_id&#45;&gt;orchestration_session_entry:orchestration_session_entry_id</title>
<path fill="none" stroke="#000000" d="M908.0741,-1726.9863C836.5376,-1703.6784 897.912,-1417.9659 866,-1341 838.2521,-1274.077 839.4475,-1211.5 767,-1211.5"/>
<polygon fill="#000000" stroke="#000000" points="908.1143,-1726.9923 917.3215,-1732.9486 913.0571,-1727.7462 918,-1728.5 918,-1728.5 918,-1728.5 913.0571,-1727.7462 918.6785,-1724.0514 908.1143,-1726.9923 908.1143,-1726.9923"/>
</g>
</g>
</svg>
