<?xml version="1.0" encoding="UTF-8" standalone="no"?>
<!DOCTYPE svg PUBLIC "-//W3C//DTD SVG 1.1//EN"
 "http://www.w3.org/Graphics/SVG/1.1/DTD/svg11.dtd">
<!-- Generated by graphviz version 2.40.1 (20161225.0304)
 -->
<!-- Title: orchestration_session_log Pages: 1 -->
<svg width="395pt" height="468pt"
 viewBox="0.00 0.00 395.00 468.00" xmlns="http://www.w3.org/2000/svg" xmlns:xlink="http://www.w3.org/1999/xlink">
<g id="graph0" class="graph" transform="scale(1 1) rotate(0) translate(4 464)">
<title>orchestration_session_log</title>
<polygon fill="#ffffff" stroke="transparent" points="-4,4 -4,-464 391,-464 391,4 -4,4"/>
<!-- orchestration_session_log -->
<g id="node1" class="node">
<title>orchestration_session_log</title>
<polygon fill="#efefef" stroke="transparent" points="46.5,-225.5 46.5,-260.5 341.5,-260.5 341.5,-225.5 46.5,-225.5"/>
<polygon fill="none" stroke="#000000" points="46.5,-225.5 46.5,-260.5 341.5,-260.5 341.5,-225.5 46.5,-225.5"/>
<text text-anchor="start" x="53.3085" y="-238.3" font-family="Arial Bold" font-size="18.00" fill="#000000">orchestration_session_log</text>
<text text-anchor="start" x="262.3605" y="-238.3" font-family="Arial" font-size="14.00" fill="#000000">    </text>
<text text-anchor="start" x="296.5653" y="-238.3" font-family="Arial" font-size="14.00" fill="#666666">[table]</text>
<polygon fill="none" stroke="#000000" points="46.5,-195.5 46.5,-225.5 341.5,-225.5 341.5,-195.5 46.5,-195.5"/>
<text text-anchor="start" x="53.5" y="-206.9" font-family="Arial" font-size="14.00" fill="#000000">orchestration_session_log_id </text>
<text text-anchor="start" x="238.6584" y="-206.9" font-family="Arial" font-size="14.00" fill="#666666">[UUID]</text>
<polygon fill="none" stroke="#000000" points="46.5,-165.5 46.5,-195.5 341.5,-195.5 341.5,-165.5 46.5,-165.5"/>
<text text-anchor="start" x="53.5" y="-176.9" font-family="Arial" font-size="14.00" fill="#000000">category </text>
<text text-anchor="start" x="111.0722" y="-176.9" font-family="Arial" font-size="14.00" fill="#666666">[TEXT]</text>
<polygon fill="none" stroke="#000000" points="46.5,-135.5 46.5,-165.5 341.5,-165.5 341.5,-135.5 46.5,-135.5"/>
<text text-anchor="start" x="53.5" y="-146.9" font-family="Arial" font-size="14.00" fill="#000000">parent_exec_id </text>
<text text-anchor="start" x="153.0918" y="-146.9" font-family="Arial" font-size="14.00" fill="#666666">[UUID]</text>
<polygon fill="none" stroke="#000000" points="46.5,-105.5 46.5,-135.5 341.5,-135.5 341.5,-105.5 46.5,-105.5"/>
<text text-anchor="start" x="53.5" y="-116.9" font-family="Arial" font-size="14.00" fill="#000000">content </text>
<text text-anchor="start" x="103.3022" y="-116.9" font-family="Arial" font-size="14.00" fill="#666666">[TEXT]</text>
<polygon fill="none" stroke="#000000" points="46.5,-75.5 46.5,-105.5 341.5,-105.5 341.5,-75.5 46.5,-75.5"/>
<text text-anchor="start" x="53.5" y="-86.9" font-family="Arial" font-size="14.00" fill="#000000">sibling_order </text>
<text text-anchor="start" x="137.5098" y="-86.9" font-family="Arial" font-size="14.00" fill="#666666">[INTEGER]</text>
<polygon fill="none" stroke="#000000" points="46.5,-45.5 46.5,-75.5 341.5,-75.5 341.5,-45.5 46.5,-45.5"/>
<text text-anchor="start" x="53.5" y="-56.9" font-family="Arial" font-size="14.00" fill="#000000">elaboration </text>
<text text-anchor="start" x="126.6332" y="-56.9" font-family="Arial" font-size="14.00" fill="#666666">[TEXT]</text>
<polygon fill="none" stroke="#000000" stroke-width="3" points="44.5,-44.5 44.5,-262.5 342.5,-262.5 342.5,-44.5 44.5,-44.5"/>
</g>
<!-- orchestration_session_log&#45;&gt;orchestration_session_log -->
<g id="edge1" class="edge">
<title>orchestration_session_log:parent_exec_id&#45;&gt;orchestration_session_log:orchestration_session_log_id</title>
<path fill="none" stroke="#000000" d="M196.4112,-175.7097C203.4471,-283.2366 202.8101,-460 194.5,-460 185.9395,-460 185.5215,-326.7034 193.246,-225.7665"/>
<polygon fill="#000000" stroke="#000000" points="196.397,-175.5044 200.1956,-165.2174 196.0517,-170.5163 195.7063,-165.5282 195.7063,-165.5282 195.7063,-165.5282 196.0517,-170.5163 191.217,-165.8391 196.397,-175.5044 196.397,-175.5044"/>
</g>
</g>
</svg>
