<?xml version="1.0" encoding="UTF-8" standalone="no"?>
<!DOCTYPE svg PUBLIC "-//W3C//DTD SVG 1.1//EN"
 "http://www.w3.org/Graphics/SVG/1.1/DTD/svg11.dtd">
<!-- Generated by graphviz version 2.40.1 (20161225.0304)
 -->
<!-- Title: ur_ingest_session_plm_reaction Pages: 1 -->
<svg width="978pt" height="1696pt"
 viewBox="0.00 0.00 977.50 1696.00" xmlns="http://www.w3.org/2000/svg" xmlns:xlink="http://www.w3.org/1999/xlink">
<g id="graph0" class="graph" transform="scale(1 1) rotate(0) translate(4 1692)">
<title>ur_ingest_session_plm_reaction</title>
<polygon fill="#ffffff" stroke="transparent" points="-4,4 -4,-1692 973.5,-1692 973.5,4 -4,4"/>
<!-- ur_ingest_session_plm_reaction -->
<g id="node1" class="node">
<title>ur_ingest_session_plm_reaction</title>
<polygon fill="#efefef" stroke="transparent" points="46,-732.5 46,-767.5 390,-767.5 390,-732.5 46,-732.5"/>
<polygon fill="none" stroke="#000000" points="46,-732.5 46,-767.5 390,-767.5 390,-732.5 46,-732.5"/>
<text text-anchor="start" x="52.806" y="-745.3" font-family="Arial Bold" font-size="18.00" fill="#000000">ur_ingest_session_plm_reaction</text>
<text text-anchor="start" x="310.863" y="-745.3" font-family="Arial" font-size="14.00" fill="#000000">    </text>
<text text-anchor="start" x="345.0678" y="-745.3" font-family="Arial" font-size="14.00" fill="#666666">[table]</text>
<polygon fill="none" stroke="#000000" points="46,-702.5 46,-732.5 390,-732.5 390,-702.5 46,-702.5"/>
<text text-anchor="start" x="53" y="-713.9" font-family="Arial" font-size="14.00" fill="#000000">ur_ingest_session_plm_reaction_id </text>
<text text-anchor="start" x="276.2734" y="-713.9" font-family="Arial" font-size="14.00" fill="#666666">[VARCHAR]</text>
<polygon fill="none" stroke="#000000" points="46,-672.5 46,-702.5 390,-702.5 390,-672.5 46,-672.5"/>
<text text-anchor="start" x="53" y="-683.9" font-family="Arial" font-size="14.00" fill="#000000">reaction_id </text>
<text text-anchor="start" x="125.3506" y="-683.9" font-family="Arial" font-size="14.00" fill="#666666">[TEXT]</text>
<polygon fill="none" stroke="#000000" points="46,-642.5 46,-672.5 390,-672.5 390,-642.5 46,-642.5"/>
<text text-anchor="start" x="53" y="-653.9" font-family="Arial" font-size="14.00" fill="#000000">reaction_type </text>
<text text-anchor="start" x="140.9172" y="-653.9" font-family="Arial" font-size="14.00" fill="#666666">[TEXT]</text>
<polygon fill="none" stroke="#000000" points="46,-612.5 46,-642.5 390,-642.5 390,-612.5 46,-612.5"/>
<text text-anchor="start" x="53" y="-623.9" font-family="Arial" font-size="14.00" fill="#000000">elaboration </text>
<text text-anchor="start" x="126.1332" y="-623.9" font-family="Arial" font-size="14.00" fill="#666666">[TEXT]</text>
<polygon fill="none" stroke="#000000" points="46,-582.5 46,-612.5 390,-612.5 390,-582.5 46,-582.5"/>
<text text-anchor="start" x="53" y="-593.9" font-family="Arial" font-size="14.00" fill="#000000">created_at </text>
<text text-anchor="start" x="123.028" y="-593.9" font-family="Arial" font-size="14.00" fill="#666666">[TIMESTAMPTZ]</text>
<polygon fill="none" stroke="#000000" points="46,-552.5 46,-582.5 390,-582.5 390,-552.5 46,-552.5"/>
<text text-anchor="start" x="53" y="-563.9" font-family="Arial" font-size="14.00" fill="#000000">created_by </text>
<text text-anchor="start" x="126.1374" y="-563.9" font-family="Arial" font-size="14.00" fill="#666666">[TEXT]</text>
<polygon fill="none" stroke="#000000" points="46,-522.5 46,-552.5 390,-552.5 390,-522.5 46,-522.5"/>
<text text-anchor="start" x="53" y="-533.9" font-family="Arial" font-size="14.00" fill="#000000">updated_at </text>
<text text-anchor="start" x="126.9326" y="-533.9" font-family="Arial" font-size="14.00" fill="#666666">[TIMESTAMPTZ]</text>
<polygon fill="none" stroke="#000000" points="46,-492.5 46,-522.5 390,-522.5 390,-492.5 46,-492.5"/>
<text text-anchor="start" x="53" y="-503.9" font-family="Arial" font-size="14.00" fill="#000000">updated_by </text>
<text text-anchor="start" x="130.042" y="-503.9" font-family="Arial" font-size="14.00" fill="#666666">[TEXT]</text>
<polygon fill="none" stroke="#000000" points="46,-462.5 46,-492.5 390,-492.5 390,-462.5 46,-462.5"/>
<text text-anchor="start" x="53" y="-473.9" font-family="Arial" font-size="14.00" fill="#000000">deleted_at </text>
<text text-anchor="start" x="122.2566" y="-473.9" font-family="Arial" font-size="14.00" fill="#666666">[TIMESTAMPTZ]</text>
<polygon fill="none" stroke="#000000" points="46,-432.5 46,-462.5 390,-462.5 390,-432.5 46,-432.5"/>
<text text-anchor="start" x="53" y="-443.9" font-family="Arial" font-size="14.00" fill="#000000">deleted_by </text>
<text text-anchor="start" x="125.366" y="-443.9" font-family="Arial" font-size="14.00" fill="#666666">[TEXT]</text>
<polygon fill="none" stroke="#000000" points="46,-402.5 46,-432.5 390,-432.5 390,-402.5 46,-402.5"/>
<text text-anchor="start" x="53" y="-413.9" font-family="Arial" font-size="14.00" fill="#000000">activity_log </text>
<text text-anchor="start" x="126.122" y="-413.9" font-family="Arial" font-size="14.00" fill="#666666">[TEXT]</text>
<polygon fill="none" stroke="#000000" stroke-width="3" points="44.5,-401.5 44.5,-769.5 391.5,-769.5 391.5,-401.5 44.5,-401.5"/>
</g>
<!-- ur_ingest_session_plm_issue_reaction -->
<g id="node2" class="node">
<title>ur_ingest_session_plm_issue_reaction</title>
<polygon fill="#efefef" stroke="transparent" points="267,-1609.5 267,-1644.5 663,-1644.5 663,-1609.5 267,-1609.5"/>
<polygon fill="none" stroke="#000000" points="267,-1609.5 267,-1644.5 663,-1644.5 663,-1609.5 267,-1609.5"/>
<text text-anchor="start" x="273.7996" y="-1622.3" font-family="Arial Bold" font-size="18.00" fill="#000000">ur_ingest_session_plm_issue_reaction</text>
<text text-anchor="start" x="583.8694" y="-1622.3" font-family="Arial" font-size="14.00" fill="#000000">    </text>
<text text-anchor="start" x="618.0742" y="-1622.3" font-family="Arial" font-size="14.00" fill="#666666">[table]</text>
<polygon fill="none" stroke="#000000" points="267,-1579.5 267,-1609.5 663,-1609.5 663,-1579.5 267,-1579.5"/>
<text text-anchor="start" x="274" y="-1590.9" font-family="Arial" font-size="14.00" fill="#000000">ur_ingest_session_plm_issue_reaction_id    </text>
<text text-anchor="start" x="568.042" y="-1590.9" font-family="Arial" font-size="14.00" fill="#666666">[VARCHAR]</text>
<polygon fill="none" stroke="#000000" points="267,-1549.5 267,-1579.5 663,-1579.5 663,-1549.5 267,-1549.5"/>
<text text-anchor="start" x="274" y="-1560.9" font-family="Arial" font-size="14.00" fill="#000000">ur_ingest_plm_reaction_id    </text>
<text text-anchor="start" x="472.3506" y="-1560.9" font-family="Arial" font-size="14.00" fill="#666666">[VARCHAR]</text>
<polygon fill="none" stroke="#000000" points="267,-1519.5 267,-1549.5 663,-1549.5 663,-1519.5 267,-1519.5"/>
<text text-anchor="start" x="274" y="-1530.9" font-family="Arial" font-size="14.00" fill="#000000">ur_ingest_plm_issue_id    </text>
<text text-anchor="start" x="455.2342" y="-1530.9" font-family="Arial" font-size="14.00" fill="#666666">[VARCHAR]</text>
<polygon fill="none" stroke="#000000" points="267,-1489.5 267,-1519.5 663,-1519.5 663,-1489.5 267,-1489.5"/>
<text text-anchor="start" x="274" y="-1500.9" font-family="Arial" font-size="14.00" fill="#000000">count    </text>
<text text-anchor="start" x="342.4432" y="-1500.9" font-family="Arial" font-size="14.00" fill="#666666">[INTEGER]</text>
<polygon fill="none" stroke="#000000" points="267,-1459.5 267,-1489.5 663,-1489.5 663,-1459.5 267,-1459.5"/>
<text text-anchor="start" x="274" y="-1470.9" font-family="Arial" font-size="14.00" fill="#000000">elaboration    </text>
<text text-anchor="start" x="377.4474" y="-1470.9" font-family="Arial" font-size="14.00" fill="#666666">[TEXT]</text>
<polygon fill="none" stroke="#000000" points="267,-1429.5 267,-1459.5 663,-1459.5 663,-1429.5 267,-1429.5"/>
<text text-anchor="start" x="274" y="-1440.9" font-family="Arial" font-size="14.00" fill="#000000">created_at    </text>
<text text-anchor="start" x="374.3422" y="-1440.9" font-family="Arial" font-size="14.00" fill="#666666">[TIMESTAMPTZ]</text>
<polygon fill="none" stroke="#000000" points="267,-1399.5 267,-1429.5 663,-1429.5 663,-1399.5 267,-1399.5"/>
<text text-anchor="start" x="274" y="-1410.9" font-family="Arial" font-size="14.00" fill="#000000">created_by    </text>
<text text-anchor="start" x="377.4516" y="-1410.9" font-family="Arial" font-size="14.00" fill="#666666">[TEXT]</text>
<polygon fill="none" stroke="#000000" points="267,-1369.5 267,-1399.5 663,-1399.5 663,-1369.5 267,-1369.5"/>
<text text-anchor="start" x="274" y="-1380.9" font-family="Arial" font-size="14.00" fill="#000000">updated_at    </text>
<text text-anchor="start" x="378.2468" y="-1380.9" font-family="Arial" font-size="14.00" fill="#666666">[TIMESTAMPTZ]</text>
<polygon fill="none" stroke="#000000" points="267,-1339.5 267,-1369.5 663,-1369.5 663,-1339.5 267,-1339.5"/>
<text text-anchor="start" x="274" y="-1350.9" font-family="Arial" font-size="14.00" fill="#000000">updated_by    </text>
<text text-anchor="start" x="381.3562" y="-1350.9" font-family="Arial" font-size="14.00" fill="#666666">[TEXT]</text>
<polygon fill="none" stroke="#000000" points="267,-1309.5 267,-1339.5 663,-1339.5 663,-1309.5 267,-1309.5"/>
<text text-anchor="start" x="274" y="-1320.9" font-family="Arial" font-size="14.00" fill="#000000">deleted_at    </text>
<text text-anchor="start" x="373.5708" y="-1320.9" font-family="Arial" font-size="14.00" fill="#666666">[TIMESTAMPTZ]</text>
<polygon fill="none" stroke="#000000" points="267,-1279.5 267,-1309.5 663,-1309.5 663,-1279.5 267,-1279.5"/>
<text text-anchor="start" x="274" y="-1290.9" font-family="Arial" font-size="14.00" fill="#000000">deleted_by    </text>
<text text-anchor="start" x="376.6802" y="-1290.9" font-family="Arial" font-size="14.00" fill="#666666">[TEXT]</text>
<polygon fill="none" stroke="#000000" points="267,-1249.5 267,-1279.5 663,-1279.5 663,-1249.5 267,-1249.5"/>
<text text-anchor="start" x="274" y="-1260.9" font-family="Arial" font-size="14.00" fill="#000000">activity_log    </text>
<text text-anchor="start" x="377.4362" y="-1260.9" font-family="Arial" font-size="14.00" fill="#666666">[TEXT]</text>
</g>
<!-- ur_ingest_session_plm_issue_reaction&#45;&gt;ur_ingest_session_plm_reaction -->
<g id="edge1" class="edge">
<title>ur_ingest_session_plm_issue_reaction:ur_ingest_plm_reaction_id&#45;&gt;ur_ingest_session_plm_reaction:ur_ingest_session_plm_reaction_id</title>
<path fill="none" stroke="#000000" d="M256.929,-1563.855C83.1664,-1540.6164 377.3566,-896.7265 390,-814 396.4796,-771.6034 432.8889,-717.5 390,-717.5"/>
<polygon fill="#000000" stroke="#000000" points="257.0204,-1563.8607 266.7123,-1568.9908 262.0102,-1564.1804 267,-1564.5 267,-1564.5 267,-1564.5 262.0102,-1564.1804 267.2877,-1560.0092 257.0204,-1563.8607 257.0204,-1563.8607"/>
</g>
<!-- ur_ingest_session_plm_acct_project_issue -->
<g id="node3" class="node">
<title>ur_ingest_session_plm_acct_project_issue</title>
<polygon fill="#efefef" stroke="transparent" points="498,-1092.5 498,-1127.5 927,-1127.5 927,-1092.5 498,-1092.5"/>
<polygon fill="none" stroke="#000000" points="498,-1092.5 498,-1127.5 927,-1127.5 927,-1092.5 498,-1092.5"/>
<text text-anchor="start" x="504.7954" y="-1105.3" font-family="Arial Bold" font-size="18.00" fill="#000000">ur_ingest_session_plm_acct_project_issue</text>
<text text-anchor="start" x="847.8736" y="-1105.3" font-family="Arial" font-size="14.00" fill="#000000">    </text>
<text text-anchor="start" x="882.0784" y="-1105.3" font-family="Arial" font-size="14.00" fill="#666666">[table]</text>
<polygon fill="none" stroke="#000000" points="498,-1062.5 498,-1092.5 927,-1092.5 927,-1062.5 498,-1062.5"/>
<text text-anchor="start" x="505" y="-1073.9" font-family="Arial" font-size="14.00" fill="#000000">ur_ingest_session_plm_acct_project_issue_id    </text>
<text text-anchor="start" x="824.7152" y="-1073.9" font-family="Arial" font-size="14.00" fill="#666666">[VARCHAR]</text>
<polygon fill="none" stroke="#000000" points="498,-1032.5 498,-1062.5 927,-1062.5 927,-1032.5 498,-1032.5"/>
<text text-anchor="start" x="505" y="-1043.9" font-family="Arial" font-size="14.00" fill="#000000">ingest_session_id    </text>
<text text-anchor="start" x="650.4586" y="-1043.9" font-family="Arial" font-size="14.00" fill="#666666">[VARCHAR]</text>
<polygon fill="none" stroke="#000000" points="498,-1002.5 498,-1032.5 927,-1032.5 927,-1002.5 498,-1002.5"/>
<text text-anchor="start" x="505" y="-1013.9" font-family="Arial" font-size="14.00" fill="#000000">ur_ingest_session_plm_acct_project_id    </text>
<text text-anchor="start" x="784.2608" y="-1013.9" font-family="Arial" font-size="14.00" fill="#666666">[VARCHAR]</text>
<polygon fill="none" stroke="#000000" points="498,-972.5 498,-1002.5 927,-1002.5 927,-972.5 498,-972.5"/>
<text text-anchor="start" x="505" y="-983.9" font-family="Arial" font-size="14.00" fill="#000000">uniform_resource_id    </text>
<text text-anchor="start" x="666.777" y="-983.9" font-family="Arial" font-size="14.00" fill="#666666">[VARCHAR]</text>
<polygon fill="none" stroke="#000000" points="498,-942.5 498,-972.5 927,-972.5 927,-942.5 498,-942.5"/>
<text text-anchor="start" x="505" y="-953.9" font-family="Arial" font-size="14.00" fill="#000000">issue_id    </text>
<text text-anchor="start" x="590.5484" y="-953.9" font-family="Arial" font-size="14.00" fill="#666666">[TEXT]</text>
<polygon fill="none" stroke="#000000" points="498,-912.5 498,-942.5 927,-942.5 927,-912.5 498,-912.5"/>
<text text-anchor="start" x="505" y="-923.9" font-family="Arial" font-size="14.00" fill="#000000">issue_number    </text>
<text text-anchor="start" x="627.1108" y="-923.9" font-family="Arial" font-size="14.00" fill="#666666">[INTEGER]</text>
<polygon fill="none" stroke="#000000" points="498,-882.5 498,-912.5 927,-912.5 927,-882.5 498,-882.5"/>
<text text-anchor="start" x="505" y="-893.9" font-family="Arial" font-size="14.00" fill="#000000">parent_issue_id    </text>
<text text-anchor="start" x="638.0126" y="-893.9" font-family="Arial" font-size="14.00" fill="#666666">[TEXT]</text>
<polygon fill="none" stroke="#000000" points="498,-852.5 498,-882.5 927,-882.5 927,-852.5 498,-852.5"/>
<text text-anchor="start" x="505" y="-863.9" font-family="Arial" font-size="14.00" fill="#000000">title    </text>
<text text-anchor="start" x="560.9818" y="-863.9" font-family="Arial" font-size="14.00" fill="#666666">[TEXT]</text>
<polygon fill="none" stroke="#000000" points="498,-822.5 498,-852.5 927,-852.5 927,-822.5 498,-822.5"/>
<text text-anchor="start" x="505" y="-833.9" font-family="Arial" font-size="14.00" fill="#000000">body    </text>
<text text-anchor="start" x="569.5526" y="-833.9" font-family="Arial" font-size="14.00" fill="#666666">[TEXT]</text>
<polygon fill="none" stroke="#000000" points="498,-792.5 498,-822.5 927,-822.5 927,-792.5 498,-792.5"/>
<text text-anchor="start" x="505" y="-803.9" font-family="Arial" font-size="14.00" fill="#000000">body_text    </text>
<text text-anchor="start" x="599.899" y="-803.9" font-family="Arial" font-size="14.00" fill="#666666">[TEXT]</text>
<polygon fill="none" stroke="#000000" points="498,-762.5 498,-792.5 927,-792.5 927,-762.5 498,-762.5"/>
<text text-anchor="start" x="505" y="-773.9" font-family="Arial" font-size="14.00" fill="#000000">body_html    </text>
<text text-anchor="start" x="603.7756" y="-773.9" font-family="Arial" font-size="14.00" fill="#666666">[TEXT]</text>
<polygon fill="none" stroke="#000000" points="498,-732.5 498,-762.5 927,-762.5 927,-732.5 498,-732.5"/>
<text text-anchor="start" x="505" y="-743.9" font-family="Arial" font-size="14.00" fill="#000000">state    </text>
<text text-anchor="start" x="569.5512" y="-743.9" font-family="Arial" font-size="14.00" fill="#666666">[TEXT]</text>
<polygon fill="none" stroke="#000000" points="498,-702.5 498,-732.5 927,-732.5 927,-702.5 498,-702.5"/>
<text text-anchor="start" x="505" y="-713.9" font-family="Arial" font-size="14.00" fill="#000000">assigned_to    </text>
<text text-anchor="start" x="614.6802" y="-713.9" font-family="Arial" font-size="14.00" fill="#666666">[TEXT]</text>
<polygon fill="none" stroke="#000000" points="498,-672.5 498,-702.5 927,-702.5 927,-672.5 498,-672.5"/>
<text text-anchor="start" x="505" y="-683.9" font-family="Arial" font-size="14.00" fill="#000000">user    </text>
<text text-anchor="start" x="566.4306" y="-683.9" font-family="Arial" font-size="14.00" fill="#666666">[VARCHAR]</text>
<polygon fill="none" stroke="#000000" points="498,-642.5 498,-672.5 927,-672.5 927,-642.5 498,-642.5"/>
<text text-anchor="start" x="505" y="-653.9" font-family="Arial" font-size="14.00" fill="#000000">url    </text>
<text text-anchor="start" x="554.7546" y="-653.9" font-family="Arial" font-size="14.00" fill="#666666">[TEXT]</text>
<polygon fill="none" stroke="#000000" points="498,-612.5 498,-642.5 927,-642.5 927,-612.5 498,-612.5"/>
<text text-anchor="start" x="505" y="-623.9" font-family="Arial" font-size="14.00" fill="#000000">closed_at    </text>
<text text-anchor="start" x="599.115" y="-623.9" font-family="Arial" font-size="14.00" fill="#666666">[TEXT]</text>
<polygon fill="none" stroke="#000000" points="498,-582.5 498,-612.5 927,-612.5 927,-582.5 498,-582.5"/>
<text text-anchor="start" x="505" y="-593.9" font-family="Arial" font-size="14.00" fill="#000000">issue_type_id    </text>
<text text-anchor="start" x="624.7868" y="-593.9" font-family="Arial" font-size="14.00" fill="#666666">[VARCHAR]</text>
<polygon fill="none" stroke="#000000" points="498,-552.5 498,-582.5 927,-582.5 927,-552.5 498,-552.5"/>
<text text-anchor="start" x="505" y="-563.9" font-family="Arial" font-size="14.00" fill="#000000">time_estimate    </text>
<text text-anchor="start" x="626.324" y="-563.9" font-family="Arial" font-size="14.00" fill="#666666">[INTEGER]</text>
<polygon fill="none" stroke="#000000" points="498,-522.5 498,-552.5 927,-552.5 927,-522.5 498,-522.5"/>
<text text-anchor="start" x="505" y="-533.9" font-family="Arial" font-size="14.00" fill="#000000">aggregate_time_estimate    </text>
<text text-anchor="start" x="697.136" y="-533.9" font-family="Arial" font-size="14.00" fill="#666666">[INTEGER]</text>
<polygon fill="none" stroke="#000000" points="498,-492.5 498,-522.5 927,-522.5 927,-492.5 498,-492.5"/>
<text text-anchor="start" x="505" y="-503.9" font-family="Arial" font-size="14.00" fill="#000000">time_original_estimate    </text>
<text text-anchor="start" x="679.2174" y="-503.9" font-family="Arial" font-size="14.00" fill="#666666">[INTEGER]</text>
<polygon fill="none" stroke="#000000" points="498,-462.5 498,-492.5 927,-492.5 927,-462.5 498,-462.5"/>
<text text-anchor="start" x="505" y="-473.9" font-family="Arial" font-size="14.00" fill="#000000">time_spent    </text>
<text text-anchor="start" x="607.6662" y="-473.9" font-family="Arial" font-size="14.00" fill="#666666">[INTEGER]</text>
<polygon fill="none" stroke="#000000" points="498,-432.5 498,-462.5 927,-462.5 927,-432.5 498,-432.5"/>
<text text-anchor="start" x="505" y="-443.9" font-family="Arial" font-size="14.00" fill="#000000">aggregate_time_spent    </text>
<text text-anchor="start" x="678.4782" y="-443.9" font-family="Arial" font-size="14.00" fill="#666666">[INTEGER]</text>
<polygon fill="none" stroke="#000000" points="498,-402.5 498,-432.5 927,-432.5 927,-402.5 498,-402.5"/>
<text text-anchor="start" x="505" y="-413.9" font-family="Arial" font-size="14.00" fill="#000000">aggregate_time_original_estimate    </text>
<text text-anchor="start" x="750.0294" y="-413.9" font-family="Arial" font-size="14.00" fill="#666666">[INTEGER]</text>
<polygon fill="none" stroke="#000000" points="498,-372.5 498,-402.5 927,-402.5 927,-372.5 498,-372.5"/>
<text text-anchor="start" x="505" y="-383.9" font-family="Arial" font-size="14.00" fill="#000000">workratio    </text>
<text text-anchor="start" x="595.9776" y="-383.9" font-family="Arial" font-size="14.00" fill="#666666">[INTEGER]</text>
<polygon fill="none" stroke="#000000" points="498,-342.5 498,-372.5 927,-372.5 927,-342.5 498,-342.5"/>
<text text-anchor="start" x="505" y="-353.9" font-family="Arial" font-size="14.00" fill="#000000">current_progress    </text>
<text text-anchor="start" x="644.9986" y="-353.9" font-family="Arial" font-size="14.00" fill="#666666">[INTEGER]</text>
<polygon fill="none" stroke="#000000" points="498,-312.5 498,-342.5 927,-342.5 927,-312.5 498,-312.5"/>
<text text-anchor="start" x="505" y="-323.9" font-family="Arial" font-size="14.00" fill="#000000">total_progress    </text>
<text text-anchor="start" x="627.892" y="-323.9" font-family="Arial" font-size="14.00" fill="#666666">[INTEGER]</text>
<polygon fill="none" stroke="#000000" points="498,-282.5 498,-312.5 927,-312.5 927,-282.5 498,-282.5"/>
<text text-anchor="start" x="505" y="-293.9" font-family="Arial" font-size="14.00" fill="#000000">resolution_name    </text>
<text text-anchor="start" x="642.6732" y="-293.9" font-family="Arial" font-size="14.00" fill="#666666">[TEXT]</text>
<polygon fill="none" stroke="#000000" points="498,-252.5 498,-282.5 927,-282.5 927,-252.5 498,-252.5"/>
<text text-anchor="start" x="505" y="-263.9" font-family="Arial" font-size="14.00" fill="#000000">resolution_date    </text>
<text text-anchor="start" x="634.9032" y="-263.9" font-family="Arial" font-size="14.00" fill="#666666">[TEXT]</text>
<polygon fill="none" stroke="#000000" points="498,-222.5 498,-252.5 927,-252.5 927,-222.5 498,-222.5"/>
<text text-anchor="start" x="505" y="-233.9" font-family="Arial" font-size="14.00" fill="#000000">created_at    </text>
<text text-anchor="start" x="605.3422" y="-233.9" font-family="Arial" font-size="14.00" fill="#666666">[TIMESTAMPTZ]</text>
<polygon fill="none" stroke="#000000" points="498,-192.5 498,-222.5 927,-222.5 927,-192.5 498,-192.5"/>
<text text-anchor="start" x="505" y="-203.9" font-family="Arial" font-size="14.00" fill="#000000">created_by    </text>
<text text-anchor="start" x="608.4516" y="-203.9" font-family="Arial" font-size="14.00" fill="#666666">[TEXT]</text>
<polygon fill="none" stroke="#000000" points="498,-162.5 498,-192.5 927,-192.5 927,-162.5 498,-162.5"/>
<text text-anchor="start" x="505" y="-173.9" font-family="Arial" font-size="14.00" fill="#000000">updated_at    </text>
<text text-anchor="start" x="609.2468" y="-173.9" font-family="Arial" font-size="14.00" fill="#666666">[TIMESTAMPTZ]</text>
<polygon fill="none" stroke="#000000" points="498,-132.5 498,-162.5 927,-162.5 927,-132.5 498,-132.5"/>
<text text-anchor="start" x="505" y="-143.9" font-family="Arial" font-size="14.00" fill="#000000">updated_by    </text>
<text text-anchor="start" x="612.3562" y="-143.9" font-family="Arial" font-size="14.00" fill="#666666">[TEXT]</text>
<polygon fill="none" stroke="#000000" points="498,-102.5 498,-132.5 927,-132.5 927,-102.5 498,-102.5"/>
<text text-anchor="start" x="505" y="-113.9" font-family="Arial" font-size="14.00" fill="#000000">deleted_at    </text>
<text text-anchor="start" x="604.5708" y="-113.9" font-family="Arial" font-size="14.00" fill="#666666">[TIMESTAMPTZ]</text>
<polygon fill="none" stroke="#000000" points="498,-72.5 498,-102.5 927,-102.5 927,-72.5 498,-72.5"/>
<text text-anchor="start" x="505" y="-83.9" font-family="Arial" font-size="14.00" fill="#000000">deleted_by    </text>
<text text-anchor="start" x="607.6802" y="-83.9" font-family="Arial" font-size="14.00" fill="#666666">[TEXT]</text>
<polygon fill="none" stroke="#000000" points="498,-42.5 498,-72.5 927,-72.5 927,-42.5 498,-42.5"/>
<text text-anchor="start" x="505" y="-53.9" font-family="Arial" font-size="14.00" fill="#000000">activity_log    </text>
<text text-anchor="start" x="608.4362" y="-53.9" font-family="Arial" font-size="14.00" fill="#666666">[TEXT]</text>
</g>
<!-- ur_ingest_session_plm_issue_reaction&#45;&gt;ur_ingest_session_plm_acct_project_issue -->
<g id="edge2" class="edge">
<title>ur_ingest_session_plm_issue_reaction:ur_ingest_plm_issue_id&#45;&gt;ur_ingest_session_plm_acct_project_issue:ur_ingest_session_plm_acct_project_issue_id</title>
<path fill="none" stroke="#000000" d="M673.3059,-1534.1217C805.8841,-1524.1042 752.0678,-1317.5961 663,-1207 615.9211,-1148.5418 545.0789,-1229.4582 498,-1171 471.9351,-1138.6351 456.4444,-1077.5 498,-1077.5"/>
<polygon fill="#000000" stroke="#000000" points="672.9933,-1534.1331 662.8349,-1530.003 667.9966,-1534.3165 663,-1534.5 663,-1534.5 663,-1534.5 667.9966,-1534.3165 663.1651,-1538.997 672.9933,-1534.1331 672.9933,-1534.1331"/>
</g>
</g>
</svg>
