<svg xmlns="http://www.w3.org/2000/svg" width="128" height="128" viewBox="0 0 128 128" version="1.1"><path d="M 59.393 46.398 C 54.385 47.723, 46.735 50.444, 42.393 52.444 C 33.042 56.753, 20 64.079, 20 65.023 C 20 65.390, 22.389 64.883, 25.308 63.897 C 32.701 61.402, 42.071 60.016, 51.619 60.008 C 59.766 60, 74.517 62.105, 79.445 63.979 C 82.799 65.254, 82.406 66.033, 72.278 78.202 L 64.639 87.381 59.830 82.012 L 55.021 76.643 49.261 77.727 C 46.092 78.324, 40.913 79.786, 37.751 80.977 L 32.002 83.143 35.020 87.528 C 38.610 92.747, 50.210 104.673, 58.284 111.448 C 63.809 116.084, 64.187 116.239, 66.716 114.901 C 71.367 112.440, 88.282 94.741, 94.846 85.467 C 101.489 76.082, 110.516 58.756, 111.591 53.328 L 112.219 50.156 103.859 47.425 C 96.811 45.122, 93.383 44.638, 82 44.341 C 70.212 44.033, 67.345 44.294, 59.393 46.398" stroke="none" fill="#cc343b" fill-rule="evenodd"/><path d="M 51 13.605 C 37.445 15.230, 25.045 18.261, 15.750 22.222 L 11 24.246 11.024 29.873 C 11.046 35.102, 12.265 42.598, 13.253 43.587 C 13.489 43.822, 19.287 41.334, 26.138 38.056 C 59.348 22.170, 85.789 18.440, 110.685 26.130 C 123.306 30.028, 117.521 25.765, 103.234 20.638 C 88.973 15.522, 63.558 12.099, 51 13.605" stroke="none" fill="#b4845c" fill-rule="evenodd"/></svg>