<svg width="480" height="135" viewBox="0 0 480 135" fill="none" xmlns="http://www.w3.org/2000/svg">
<path d="M101 62.8638C58.0713 44.0467 22.8968 69.0455 9 76.886V77.5C34 66.5 65 73.5 71.8993 76.8862C70.2482 80.6859 59.1032 93.698 53.7372 99.7291L43.8305 89.3254C35.9052 89.5064 25.806 93.4718 21.747 95.4319C29.6723 108.278 46.376 122.497 53.7372 128C83.7872 105.202 97.7666 75.0768 101 62.8638Z" fill="#CB3038"/>
<path d="M2.28736 56.0714C0.432566 47.9576 -0.117437 39.979 0.0200397 36.5983C46.5422 15.3402 90.41 30.2591 106.426 39.3871V40.0526C62 22.0526 18.8533 48.0252 2.28736 56.0714Z" fill="#B1865C"/>
<path d="M180.81 77.9496C180.81 81.1297 180.058 83.8473 178.555 86.1023C177.051 88.2995 174.796 89.9763 171.79 91.1327C168.783 92.2891 165.053 92.8673 160.601 92.8673C157.305 92.8673 154.472 92.636 152.102 92.1735C149.731 91.7687 147.36 91.0749 144.99 90.0919V79.424C147.534 80.5804 150.28 81.5345 153.229 82.2861C156.178 83.0378 158.78 83.4136 161.035 83.4136C163.579 83.4136 165.371 83.0378 166.412 82.2861C167.511 81.5345 168.06 80.5515 168.06 79.3373C168.06 78.5278 167.829 77.805 167.366 77.169C166.961 76.533 166.036 75.8102 164.591 75.0007C163.145 74.1912 160.89 73.1505 157.826 71.8784C154.877 70.6064 152.448 69.3632 150.54 68.149C148.632 66.8769 147.216 65.3736 146.291 63.639C145.365 61.8465 144.903 59.6204 144.903 56.9607C144.903 52.5663 146.609 49.2705 150.02 47.0733C153.431 44.8762 157.97 43.7776 163.637 43.7776C166.586 43.7776 169.39 44.0667 172.05 44.6449C174.709 45.2231 177.456 46.1771 180.289 47.507L176.386 56.7872C174.825 56.0934 173.322 55.4863 171.876 54.9659C170.431 54.4455 169.014 54.0407 167.626 53.7516C166.297 53.4625 164.909 53.318 163.463 53.318C161.555 53.318 160.11 53.5782 159.127 54.0986C158.202 54.6189 157.739 55.3995 157.739 56.4403C157.739 57.192 157.97 57.8858 158.433 58.5218C158.953 59.1 159.907 59.7361 161.295 60.4299C162.741 61.1238 164.851 62.0489 167.626 63.2053C170.344 64.3039 172.686 65.4603 174.652 66.6745C176.618 67.831 178.121 69.3054 179.162 71.0978C180.26 72.8325 180.81 75.1164 180.81 77.9496ZM234.329 44.6449V92H224.441L222.707 85.9288H222.013C221.03 87.5478 219.758 88.8777 218.197 89.9185C216.693 90.9014 215.017 91.6242 213.166 92.0867C211.316 92.6071 209.408 92.8673 207.442 92.8673C204.088 92.8673 201.14 92.2602 198.595 91.046C196.051 89.8317 194.085 87.9526 192.698 85.4084C191.31 82.8643 190.616 79.5686 190.616 75.5211V44.6449H203.539V72.3121C203.539 75.6657 204.146 78.2098 205.36 79.9444C206.575 81.679 208.512 82.5463 211.171 82.5463C213.831 82.5463 215.884 81.9392 217.329 80.725C218.833 79.5107 219.873 77.7472 220.452 75.4344C221.088 73.1216 221.406 70.2883 221.406 66.9347V44.6449H234.329ZM274.331 43.7776C274.967 43.7776 275.719 43.8065 276.586 43.8643C277.454 43.9221 278.147 44.0089 278.668 44.1245L277.714 56.2668C277.309 56.1512 276.702 56.0645 275.892 56.0066C275.141 55.891 274.476 55.8332 273.898 55.8332C272.221 55.8332 270.602 56.0645 269.041 56.527C267.48 56.9318 266.063 57.5967 264.791 58.5218C263.577 59.447 262.594 60.6901 261.842 62.2513C261.148 63.7546 260.801 65.6338 260.801 67.8888V92H247.878V44.6449H257.679L259.587 52.6241H260.194C261.119 51.0052 262.276 49.5307 263.663 48.2009C265.051 46.871 266.641 45.8013 268.434 44.9918C270.284 44.1823 272.25 43.7776 274.331 43.7776ZM298.538 92L280.498 44.6449H294.028L303.135 71.6182C303.482 72.659 303.771 73.7576 304.002 74.914C304.291 76.0704 304.494 77.1979 304.609 78.2965C304.783 79.3951 304.898 80.407 304.956 81.3321H305.303C305.361 80.3491 305.477 79.3084 305.65 78.2098C305.823 77.1112 306.026 76.0126 306.257 74.914C306.546 73.7576 306.864 72.659 307.211 71.6182L316.318 44.6449H329.848L311.808 92H298.538ZM356.157 43.7776C360.551 43.7776 364.309 44.616 367.432 46.2928C370.612 47.9696 373.069 50.398 374.804 53.5782C376.538 56.7583 377.406 60.6612 377.406 65.2869V71.5315H346.876C346.992 75.1742 348.062 78.0363 350.085 80.1179C352.167 82.1994 355.029 83.2402 358.672 83.2402C361.736 83.2402 364.512 82.9511 366.998 82.3729C369.484 81.7368 372.057 80.7828 374.717 79.5107V89.4848C372.404 90.6412 369.947 91.4796 367.345 92C364.801 92.5782 361.707 92.8673 358.065 92.8673C353.323 92.8673 349.131 92 345.489 90.2654C341.846 88.4729 338.984 85.7843 336.902 82.1994C334.821 78.6145 333.78 74.1045 333.78 68.6694C333.78 63.1186 334.705 58.5218 336.555 54.8791C338.463 51.1786 341.094 48.4032 344.448 46.553C347.801 44.7027 351.704 43.7776 356.157 43.7776ZM356.243 52.9711C353.757 52.9711 351.675 53.7805 349.999 55.3995C348.38 57.0185 347.426 59.5337 347.137 62.9451H365.263C365.263 61.037 364.916 59.3313 364.223 57.828C363.586 56.3247 362.604 55.1393 361.274 54.272C359.944 53.4047 358.267 52.9711 356.243 52.9711ZM400.807 44.6449V92H387.884V44.6449H400.807ZM394.389 26.0844C396.297 26.0844 397.945 26.547 399.333 27.4721C400.721 28.3395 401.415 29.9873 401.415 32.4158C401.415 34.7865 400.721 36.4343 399.333 37.3595C397.945 38.2846 396.297 38.7472 394.389 38.7472C392.423 38.7472 390.747 38.2846 389.359 37.3595C388.029 36.4343 387.364 34.7865 387.364 32.4158C387.364 29.9873 388.029 28.3395 389.359 27.4721C390.747 26.547 392.423 26.0844 394.389 26.0844ZM427.233 92H414.31V26.0844H427.233V92Z" fill="#333333"/>
<path d="M467.189 43.7776C467.825 43.7776 468.577 43.8065 469.444 43.8643C470.311 43.9221 471.005 44.0089 471.526 44.1245L470.572 56.2668C470.167 56.1512 469.56 56.0645 468.75 56.0066C467.999 55.891 467.334 55.8332 466.756 55.8332C465.079 55.8332 463.46 56.0645 461.899 56.527C460.337 56.9318 458.921 57.5967 457.649 58.5218C456.435 59.447 455.452 60.6901 454.7 62.2513C454.006 63.7546 453.659 65.6338 453.659 67.8888V92H440.736V44.6449H450.537L452.445 52.6241H453.052C453.977 51.0052 455.134 49.5307 456.521 48.2009C457.909 46.871 459.499 45.8013 461.291 44.9918C463.142 44.1823 465.108 43.7776 467.189 43.7776Z" fill="#AE885C"/>
<path d="M144.864 128V113.117H147.134V115.373C147.713 114.318 148.246 113.622 148.732 113.285C149.227 112.949 149.769 112.781 150.357 112.781C151.208 112.781 152.072 113.052 152.95 113.594L152.081 115.934C151.464 115.57 150.848 115.387 150.231 115.387C149.68 115.387 149.185 115.556 148.746 115.892C148.307 116.219 147.994 116.677 147.807 117.265C147.527 118.162 147.386 119.143 147.386 120.208V128H144.864ZM167.508 123.207L170.114 123.53C169.703 125.052 168.942 126.234 167.83 127.075C166.718 127.916 165.298 128.336 163.57 128.336C161.393 128.336 159.664 127.668 158.385 126.332C157.114 124.987 156.479 123.104 156.479 120.685C156.479 118.181 157.123 116.238 158.413 114.855C159.702 113.472 161.374 112.781 163.43 112.781C165.42 112.781 167.045 113.458 168.306 114.813C169.568 116.168 170.198 118.073 170.198 120.531C170.198 120.68 170.194 120.904 170.184 121.203H159.085C159.179 122.838 159.641 124.09 160.473 124.959C161.304 125.828 162.341 126.262 163.584 126.262C164.509 126.262 165.298 126.019 165.952 125.534C166.606 125.048 167.125 124.272 167.508 123.207ZM159.225 119.129H167.536C167.424 117.877 167.106 116.938 166.583 116.312C165.779 115.341 164.738 114.855 163.458 114.855C162.299 114.855 161.323 115.243 160.529 116.018C159.744 116.794 159.309 117.831 159.225 119.129ZM175.156 123.558L177.651 123.165C177.791 124.165 178.179 124.931 178.814 125.463C179.459 125.996 180.356 126.262 181.505 126.262C182.663 126.262 183.523 126.029 184.083 125.562C184.644 125.085 184.924 124.529 184.924 123.894C184.924 123.324 184.677 122.876 184.181 122.549C183.836 122.324 182.976 122.039 181.603 121.694C179.753 121.227 178.468 120.825 177.749 120.489C177.039 120.143 176.497 119.671 176.123 119.073C175.759 118.466 175.577 117.798 175.577 117.069C175.577 116.406 175.726 115.794 176.025 115.233C176.334 114.663 176.749 114.192 177.273 113.818C177.665 113.528 178.197 113.285 178.87 113.089C179.552 112.884 180.281 112.781 181.056 112.781C182.224 112.781 183.247 112.949 184.125 113.285C185.013 113.622 185.667 114.079 186.087 114.659C186.508 115.229 186.797 115.995 186.956 116.957L184.49 117.293C184.378 116.527 184.051 115.929 183.509 115.5C182.976 115.07 182.219 114.855 181.238 114.855C180.08 114.855 179.253 115.046 178.758 115.429C178.263 115.813 178.015 116.261 178.015 116.775C178.015 117.102 178.118 117.396 178.324 117.658C178.529 117.929 178.851 118.153 179.291 118.33C179.543 118.424 180.286 118.639 181.519 118.975C183.303 119.451 184.546 119.844 185.246 120.152C185.956 120.451 186.512 120.89 186.914 121.469C187.316 122.049 187.517 122.768 187.517 123.628C187.517 124.468 187.269 125.263 186.774 126.01C186.288 126.748 185.583 127.323 184.658 127.734C183.733 128.135 182.687 128.336 181.519 128.336C179.585 128.336 178.109 127.935 177.09 127.131C176.081 126.328 175.437 125.136 175.156 123.558ZM192.447 120.559C192.447 117.803 193.213 115.761 194.745 114.434C196.025 113.332 197.585 112.781 199.426 112.781C201.472 112.781 203.144 113.454 204.443 114.799C205.741 116.135 206.391 117.985 206.391 120.348C206.391 122.264 206.101 123.772 205.522 124.875C204.952 125.968 204.116 126.818 203.013 127.425C201.92 128.033 200.724 128.336 199.426 128.336C197.342 128.336 195.656 127.668 194.367 126.332C193.087 124.996 192.447 123.072 192.447 120.559ZM195.039 120.559C195.039 122.464 195.455 123.894 196.287 124.847C197.118 125.79 198.165 126.262 199.426 126.262C200.678 126.262 201.719 125.786 202.551 124.833C203.382 123.88 203.798 122.427 203.798 120.475C203.798 118.634 203.378 117.242 202.537 116.298C201.705 115.345 200.668 114.869 199.426 114.869C198.165 114.869 197.118 115.341 196.287 116.284C195.455 117.228 195.039 118.653 195.039 120.559ZM221.985 128V125.814C220.827 127.495 219.253 128.336 217.263 128.336C216.385 128.336 215.562 128.168 214.796 127.832C214.04 127.495 213.474 127.075 213.101 126.571C212.736 126.057 212.479 125.431 212.33 124.693C212.227 124.198 212.176 123.413 212.176 122.338V113.117H214.698V121.371C214.698 122.689 214.75 123.576 214.852 124.034C215.011 124.697 215.347 125.221 215.861 125.604C216.375 125.977 217.01 126.164 217.767 126.164C218.524 126.164 219.234 125.973 219.897 125.59C220.561 125.197 221.028 124.669 221.299 124.006C221.579 123.333 221.719 122.362 221.719 121.091V113.117H224.242V128H221.985ZM231.05 128V113.117H233.32V115.373C233.899 114.318 234.432 113.622 234.918 113.285C235.413 112.949 235.955 112.781 236.543 112.781C237.393 112.781 238.257 113.052 239.136 113.594L238.267 115.934C237.65 115.57 237.034 115.387 236.417 115.387C235.866 115.387 235.371 115.556 234.932 115.892C234.492 116.219 234.179 116.677 233.993 117.265C233.712 118.162 233.572 119.143 233.572 120.208V128H231.05ZM253.217 122.549L255.697 122.871C255.426 124.581 254.73 125.921 253.609 126.893C252.498 127.855 251.129 128.336 249.503 128.336C247.467 128.336 245.827 127.673 244.584 126.346C243.351 125.01 242.734 123.1 242.734 120.615C242.734 119.008 243.001 117.602 243.533 116.396C244.066 115.191 244.874 114.29 245.958 113.692C247.051 113.084 248.237 112.781 249.517 112.781C251.134 112.781 252.456 113.192 253.483 114.014C254.511 114.827 255.17 115.985 255.459 117.49L253.007 117.868C252.773 116.868 252.357 116.116 251.759 115.612C251.171 115.107 250.456 114.855 249.615 114.855C248.345 114.855 247.312 115.313 246.518 116.228C245.724 117.135 245.327 118.573 245.327 120.545C245.327 122.544 245.71 123.997 246.476 124.903C247.242 125.809 248.242 126.262 249.475 126.262C250.466 126.262 251.292 125.959 251.956 125.351C252.619 124.744 253.039 123.81 253.217 122.549ZM270.914 123.207L273.52 123.53C273.109 125.052 272.348 126.234 271.236 127.075C270.124 127.916 268.704 128.336 266.976 128.336C264.799 128.336 263.071 127.668 261.791 126.332C260.52 124.987 259.885 123.104 259.885 120.685C259.885 118.181 260.529 116.238 261.819 114.855C263.108 113.472 264.78 112.781 266.836 112.781C268.826 112.781 270.451 113.458 271.713 114.813C272.974 116.168 273.604 118.073 273.604 120.531C273.604 120.68 273.6 120.904 273.59 121.203H262.491C262.585 122.838 263.047 124.09 263.879 124.959C264.71 125.828 265.747 126.262 266.99 126.262C267.915 126.262 268.704 126.019 269.358 125.534C270.012 125.048 270.531 124.272 270.914 123.207ZM262.631 119.129H270.942C270.83 117.877 270.512 116.938 269.989 116.312C269.185 115.341 268.144 114.855 266.864 114.855C265.705 114.855 264.729 115.243 263.935 116.018C263.15 116.794 262.716 117.831 262.631 119.129ZM289.421 123.558L291.915 123.165C292.055 124.165 292.443 124.931 293.078 125.463C293.723 125.996 294.62 126.262 295.769 126.262C296.927 126.262 297.787 126.029 298.347 125.562C298.908 125.085 299.188 124.529 299.188 123.894C299.188 123.324 298.941 122.876 298.446 122.549C298.1 122.324 297.24 122.039 295.867 121.694C294.017 121.227 292.733 120.825 292.013 120.489C291.303 120.143 290.761 119.671 290.388 119.073C290.023 118.466 289.841 117.798 289.841 117.069C289.841 116.406 289.99 115.794 290.289 115.233C290.598 114.663 291.013 114.192 291.537 113.818C291.929 113.528 292.462 113.285 293.134 113.089C293.816 112.884 294.545 112.781 295.32 112.781C296.488 112.781 297.511 112.949 298.389 113.285C299.277 113.622 299.931 114.079 300.351 114.659C300.772 115.229 301.061 115.995 301.22 116.957L298.754 117.293C298.642 116.527 298.315 115.929 297.773 115.5C297.24 115.07 296.484 114.855 295.503 114.855C294.344 114.855 293.517 115.046 293.022 115.429C292.527 115.813 292.279 116.261 292.279 116.775C292.279 117.102 292.382 117.396 292.588 117.658C292.793 117.929 293.116 118.153 293.555 118.33C293.807 118.424 294.55 118.639 295.783 118.975C297.567 119.451 298.81 119.844 299.511 120.152C300.221 120.451 300.777 120.89 301.178 121.469C301.58 122.049 301.781 122.768 301.781 123.628C301.781 124.468 301.533 125.263 301.038 126.01C300.552 126.748 299.847 127.323 298.922 127.734C297.997 128.135 296.951 128.336 295.783 128.336C293.849 128.336 292.373 127.935 291.354 127.131C290.345 126.328 289.701 125.136 289.421 123.558ZM317.404 128V125.814C316.245 127.495 314.671 128.336 312.681 128.336C311.803 128.336 310.981 128.168 310.214 127.832C309.458 127.495 308.892 127.075 308.519 126.571C308.154 126.057 307.897 125.431 307.748 124.693C307.645 124.198 307.594 123.413 307.594 122.338V113.117H310.116V121.371C310.116 122.689 310.168 123.576 310.271 124.034C310.429 124.697 310.766 125.221 311.28 125.604C311.793 125.977 312.429 126.164 313.185 126.164C313.942 126.164 314.652 125.973 315.316 125.59C315.979 125.197 316.446 124.669 316.717 124.006C316.997 123.333 317.137 122.362 317.137 121.091V113.117H319.66V128H317.404ZM326.468 128V113.117H328.738V115.373C329.317 114.318 329.85 113.622 330.336 113.285C330.831 112.949 331.373 112.781 331.961 112.781C332.811 112.781 333.676 113.052 334.554 113.594L333.685 115.934C333.068 115.57 332.452 115.387 331.835 115.387C331.284 115.387 330.789 115.556 330.35 115.892C329.911 116.219 329.598 116.677 329.411 117.265C329.13 118.162 328.99 119.143 328.99 120.208V128H326.468ZM343.058 128L337.396 113.117H340.059L343.254 122.03C343.599 122.992 343.917 123.992 344.207 125.029C344.431 124.244 344.744 123.301 345.146 122.198L348.453 113.117H351.046L345.412 128H343.058ZM366.332 123.207L368.939 123.53C368.527 125.052 367.766 126.234 366.654 127.075C365.542 127.916 364.122 128.336 362.394 128.336C360.217 128.336 358.489 127.668 357.209 126.332C355.938 124.987 355.303 123.104 355.303 120.685C355.303 118.181 355.948 116.238 357.237 114.855C358.526 113.472 360.198 112.781 362.254 112.781C364.244 112.781 365.869 113.458 367.131 114.813C368.392 116.168 369.023 118.073 369.023 120.531C369.023 120.68 369.018 120.904 369.009 121.203H357.91C358.003 122.838 358.465 124.09 359.297 124.959C360.128 125.828 361.165 126.262 362.408 126.262C363.333 126.262 364.122 126.019 364.776 125.534C365.43 125.048 365.949 124.272 366.332 123.207ZM358.05 119.129H366.36C366.248 117.877 365.93 116.938 365.407 116.312C364.604 115.341 363.562 114.855 362.282 114.855C361.123 114.855 360.147 115.243 359.353 116.018C358.568 116.794 358.134 117.831 358.05 119.129ZM375.004 110.356V107.456H377.526V110.356H375.004ZM375.004 128V113.117H377.526V128H375.004ZM384.194 128V107.456H386.717V128H384.194ZM393.455 128V107.456H395.977V128H393.455ZM412.483 126.164C411.548 126.958 410.647 127.519 409.778 127.846C408.918 128.173 407.994 128.336 407.003 128.336C405.368 128.336 404.112 127.939 403.233 127.145C402.355 126.342 401.916 125.319 401.916 124.076C401.916 123.347 402.08 122.684 402.407 122.086C402.743 121.479 403.177 120.993 403.71 120.629C404.252 120.264 404.859 119.989 405.532 119.802C406.027 119.671 406.774 119.545 407.774 119.423C409.811 119.181 411.31 118.891 412.272 118.555C412.282 118.209 412.286 117.989 412.286 117.896C412.286 116.868 412.048 116.144 411.572 115.724C410.927 115.154 409.97 114.869 408.699 114.869C407.512 114.869 406.634 115.079 406.064 115.5C405.504 115.911 405.088 116.644 404.817 117.7L402.351 117.363C402.575 116.308 402.944 115.458 403.458 114.813C403.972 114.159 404.714 113.659 405.686 113.313C406.658 112.958 407.783 112.781 409.063 112.781C410.334 112.781 411.366 112.93 412.16 113.229C412.954 113.528 413.538 113.907 413.912 114.364C414.286 114.813 414.547 115.383 414.697 116.074C414.781 116.504 414.823 117.279 414.823 118.4V121.764C414.823 124.109 414.874 125.594 414.977 126.22C415.089 126.837 415.304 127.43 415.622 128H412.987C412.726 127.477 412.557 126.865 412.483 126.164ZM412.272 120.531C411.357 120.904 409.984 121.222 408.152 121.484C407.115 121.633 406.382 121.801 405.952 121.988C405.522 122.175 405.191 122.45 404.957 122.815C404.724 123.17 404.607 123.567 404.607 124.006C404.607 124.679 404.859 125.239 405.364 125.688C405.877 126.136 406.625 126.36 407.606 126.36C408.577 126.36 409.442 126.15 410.198 125.73C410.955 125.3 411.511 124.716 411.866 123.978C412.137 123.408 412.272 122.567 412.272 121.455V120.531ZM421.617 128V113.117H423.887V115.233C424.98 113.598 426.559 112.781 428.624 112.781C429.521 112.781 430.343 112.944 431.09 113.271C431.847 113.589 432.412 114.009 432.786 114.533C433.16 115.056 433.421 115.677 433.571 116.396C433.664 116.864 433.711 117.681 433.711 118.849V128H431.189V118.947C431.189 117.919 431.09 117.153 430.894 116.649C430.698 116.135 430.348 115.728 429.843 115.429C429.348 115.121 428.764 114.967 428.091 114.967C427.017 114.967 426.087 115.308 425.303 115.99C424.527 116.672 424.139 117.966 424.139 119.872V128H421.617ZM450.175 122.549L452.655 122.871C452.384 124.581 451.688 125.921 450.567 126.893C449.455 127.855 448.087 128.336 446.461 128.336C444.424 128.336 442.785 127.673 441.542 126.346C440.309 125.01 439.692 123.1 439.692 120.615C439.692 119.008 439.958 117.602 440.491 116.396C441.023 115.191 441.832 114.29 442.915 113.692C444.008 113.084 445.195 112.781 446.475 112.781C448.091 112.781 449.413 113.192 450.441 114.014C451.469 114.827 452.127 115.985 452.417 117.49L449.964 117.868C449.731 116.868 449.315 116.116 448.717 115.612C448.129 115.107 447.414 114.855 446.573 114.855C445.302 114.855 444.27 115.313 443.476 116.228C442.682 117.135 442.285 118.573 442.285 120.545C442.285 122.544 442.668 123.997 443.434 124.903C444.2 125.809 445.2 126.262 446.433 126.262C447.423 126.262 448.25 125.959 448.913 125.351C449.577 124.744 449.997 123.81 450.175 122.549ZM467.871 123.207L470.478 123.53C470.067 125.052 469.306 126.234 468.194 127.075C467.082 127.916 465.662 128.336 463.934 128.336C461.757 128.336 460.028 127.668 458.748 126.332C457.478 124.987 456.842 123.104 456.842 120.685C456.842 118.181 457.487 116.238 458.776 114.855C460.066 113.472 461.738 112.781 463.793 112.781C465.783 112.781 467.409 113.458 468.67 114.813C469.931 116.168 470.562 118.073 470.562 120.531C470.562 120.68 470.557 120.904 470.548 121.203H459.449C459.542 122.838 460.005 124.09 460.836 124.959C461.668 125.828 462.705 126.262 463.948 126.262C464.872 126.262 465.662 126.019 466.316 125.534C466.97 125.048 467.488 124.272 467.871 123.207ZM459.589 119.129H467.899C467.787 117.877 467.47 116.938 466.947 116.312C466.143 115.341 465.101 114.855 463.821 114.855C462.663 114.855 461.687 115.243 460.892 116.018C460.108 116.794 459.673 117.831 459.589 119.129Z" fill="#808080"/>
</svg>
