<svg width="480" height="128" viewBox="0 0 480 128" fill="none" xmlns="http://www.w3.org/2000/svg">
<path d="M101 62.8638C58.0713 44.0467 22.8968 69.0455 9 76.886V77.5C34 66.5 65 73.5 71.8993 76.8862C70.2482 80.6859 59.1032 93.698 53.7372 99.7291L43.8305 89.3254C35.9052 89.5064 25.806 93.4718 21.747 95.4319C29.6723 108.278 46.376 122.497 53.7372 128C83.7872 105.202 97.7666 75.0768 101 62.8638Z" fill="#CB3038"/>
<path d="M2.28736 56.0714C0.432566 47.9576 -0.117437 39.979 0.0200397 36.5983C46.5422 15.3402 90.41 30.2591 106.426 39.3871V40.0526C62 22.0526 18.8533 48.0252 2.28736 56.0714Z" fill="#B1865C"/>
<path d="M180.81 77.9496C180.81 81.1297 180.058 83.8473 178.555 86.1023C177.051 88.2995 174.796 89.9763 171.79 91.1327C168.783 92.2891 165.053 92.8673 160.601 92.8673C157.305 92.8673 154.472 92.636 152.102 92.1735C149.731 91.7687 147.36 91.0749 144.99 90.0919V79.424C147.534 80.5804 150.28 81.5345 153.229 82.2861C156.178 83.0378 158.78 83.4136 161.035 83.4136C163.579 83.4136 165.371 83.0378 166.412 82.2861C167.511 81.5345 168.06 80.5515 168.06 79.3373C168.06 78.5278 167.829 77.805 167.366 77.169C166.961 76.533 166.036 75.8102 164.591 75.0007C163.145 74.1912 160.89 73.1505 157.826 71.8784C154.877 70.6064 152.448 69.3632 150.54 68.149C148.632 66.8769 147.216 65.3736 146.291 63.639C145.365 61.8465 144.903 59.6204 144.903 56.9607C144.903 52.5663 146.609 49.2705 150.02 47.0733C153.431 44.8762 157.97 43.7776 163.637 43.7776C166.586 43.7776 169.39 44.0667 172.05 44.6449C174.709 45.2231 177.456 46.1771 180.289 47.507L176.386 56.7872C174.825 56.0934 173.322 55.4863 171.876 54.9659C170.431 54.4455 169.014 54.0407 167.626 53.7516C166.297 53.4625 164.909 53.318 163.463 53.318C161.555 53.318 160.11 53.5782 159.127 54.0986C158.202 54.6189 157.739 55.3995 157.739 56.4403C157.739 57.192 157.97 57.8858 158.433 58.5218C158.953 59.1 159.907 59.7361 161.295 60.4299C162.741 61.1238 164.851 62.0489 167.626 63.2053C170.344 64.3039 172.686 65.4603 174.652 66.6745C176.618 67.831 178.121 69.3054 179.162 71.0978C180.26 72.8325 180.81 75.1164 180.81 77.9496ZM234.329 44.6449V92H224.441L222.707 85.9288H222.013C221.03 87.5478 219.758 88.8777 218.197 89.9185C216.693 90.9014 215.017 91.6242 213.166 92.0867C211.316 92.6071 209.408 92.8673 207.442 92.8673C204.088 92.8673 201.14 92.2602 198.595 91.046C196.051 89.8317 194.085 87.9526 192.698 85.4084C191.31 82.8643 190.616 79.5686 190.616 75.5211V44.6449H203.539V72.3121C203.539 75.6657 204.146 78.2098 205.36 79.9444C206.575 81.679 208.512 82.5463 211.171 82.5463C213.831 82.5463 215.884 81.9392 217.329 80.725C218.833 79.5107 219.873 77.7472 220.452 75.4344C221.088 73.1216 221.406 70.2883 221.406 66.9347V44.6449H234.329ZM274.331 43.7776C274.967 43.7776 275.719 43.8065 276.586 43.8643C277.454 43.9221 278.147 44.0089 278.668 44.1245L277.714 56.2668C277.309 56.1512 276.702 56.0645 275.892 56.0066C275.141 55.891 274.476 55.8332 273.898 55.8332C272.221 55.8332 270.602 56.0645 269.041 56.527C267.48 56.9318 266.063 57.5967 264.791 58.5218C263.577 59.447 262.594 60.6901 261.842 62.2513C261.148 63.7546 260.801 65.6338 260.801 67.8888V92H247.878V44.6449H257.679L259.587 52.6241H260.194C261.119 51.0052 262.276 49.5307 263.663 48.2009C265.051 46.871 266.641 45.8013 268.434 44.9918C270.284 44.1823 272.25 43.7776 274.331 43.7776ZM298.538 92L280.498 44.6449H294.028L303.135 71.6182C303.482 72.659 303.771 73.7576 304.002 74.914C304.291 76.0704 304.494 77.1979 304.609 78.2965C304.783 79.3951 304.898 80.407 304.956 81.3321H305.303C305.361 80.3491 305.477 79.3084 305.65 78.2098C305.823 77.1112 306.026 76.0126 306.257 74.914C306.546 73.7576 306.864 72.659 307.211 71.6182L316.318 44.6449H329.848L311.808 92H298.538ZM356.157 43.7776C360.551 43.7776 364.309 44.616 367.432 46.2928C370.612 47.9696 373.069 50.398 374.804 53.5782C376.538 56.7583 377.406 60.6612 377.406 65.2869V71.5315H346.876C346.992 75.1742 348.062 78.0363 350.085 80.1179C352.167 82.1994 355.029 83.2402 358.672 83.2402C361.736 83.2402 364.512 82.9511 366.998 82.3729C369.484 81.7368 372.057 80.7828 374.717 79.5107V89.4848C372.404 90.6412 369.947 91.4796 367.345 92C364.801 92.5782 361.707 92.8673 358.065 92.8673C353.323 92.8673 349.131 92 345.489 90.2654C341.846 88.4729 338.984 85.7843 336.902 82.1994C334.821 78.6145 333.78 74.1045 333.78 68.6694C333.78 63.1186 334.705 58.5218 336.555 54.8791C338.463 51.1786 341.094 48.4032 344.448 46.553C347.801 44.7027 351.704 43.7776 356.157 43.7776ZM356.243 52.9711C353.757 52.9711 351.675 53.7805 349.999 55.3995C348.38 57.0185 347.426 59.5337 347.137 62.9451H365.263C365.263 61.037 364.916 59.3313 364.223 57.828C363.586 56.3247 362.604 55.1393 361.274 54.272C359.944 53.4047 358.267 52.9711 356.243 52.9711ZM400.807 44.6449V92H387.884V44.6449H400.807ZM394.389 26.0844C396.297 26.0844 397.945 26.547 399.333 27.4721C400.721 28.3395 401.415 29.9873 401.415 32.4158C401.415 34.7865 400.721 36.4343 399.333 37.3595C397.945 38.2846 396.297 38.7472 394.389 38.7472C392.423 38.7472 390.747 38.2846 389.359 37.3595C388.029 36.4343 387.364 34.7865 387.364 32.4158C387.364 29.9873 388.029 28.3395 389.359 27.4721C390.747 26.547 392.423 26.0844 394.389 26.0844ZM427.233 92H414.31V26.0844H427.233V92Z" fill="#333333"/>
<path d="M467.189 43.7776C467.825 43.7776 468.577 43.8065 469.444 43.8643C470.311 43.9221 471.005 44.0089 471.526 44.1245L470.572 56.2668C470.167 56.1512 469.56 56.0645 468.75 56.0066C467.999 55.891 467.334 55.8332 466.756 55.8332C465.079 55.8332 463.46 56.0645 461.899 56.527C460.337 56.9318 458.921 57.5967 457.649 58.5218C456.435 59.447 455.452 60.6901 454.7 62.2513C454.006 63.7546 453.659 65.6338 453.659 67.8888V92H440.736V44.6449H450.537L452.445 52.6241H453.052C453.977 51.0052 455.134 49.5307 456.521 48.2009C457.909 46.871 459.499 45.8013 461.291 44.9918C463.142 44.1823 465.108 43.7776 467.189 43.7776Z" fill="#AE885C"/>
</svg>
